<svg xmlns="http://www.w3.org/2000/svg" width="128" height="128"><path fill="#A7A9AC" d="M64.667 118.818c-.354 0-.71-.004-1.065-.016-18.728-.533-34.264-15.588-35.369-34.27-.715-12.09 4.461-23.525 13.912-30.932L20.569 9.99a2.714 2.714 0 01.129-2.651 2.712 2.712 0 012.318-1.289l18.474.172a3.737 3.737 0 013.285 2.01l16.144 30.796h5.931L82.955 8.301a3.882 3.882 0 013.402-2.08l18.129-.168c1.029 0 1.941.508 2.471 1.359s.579 1.896.134 2.794L86.049 52.743c9.499 6.866 15.118 17.794 15.118 29.575 0 9.75-3.797 18.916-10.69 25.811-6.894 6.892-16.06 10.689-25.81 10.689z"/><path fill="#414042" d="M23.017 8.05h.007l9.249.086 9.199.086a1.743 1.743 0 011.531.937l16.706 31.869h8.35L84.727 9.229a1.886 1.886 0 011.65-1.009l9.118-.085 9.01-.083h.009a.877.877 0 01.785 1.266L83.488 53.409c9.438 6.155 15.679 16.801 15.679 28.909 0 19.055-15.446 34.5-34.5 34.5-.335 0-.672-.004-1.009-.014-17.714-.507-32.383-14.699-33.43-32.39-.736-12.454 5.142-23.58 14.446-30.208L22.362 9.104a.73.73 0 01.655-1.054m0-4a4.702 4.702 0 00-4.018 2.235 4.7 4.7 0 00-.222 4.592l20.869 42.186c-9.165 7.819-14.133 19.39-13.41 31.589 1.166 19.709 17.554 35.588 37.308 36.15.375.012.75.018 1.123.018 21.229 0 38.5-17.271 38.5-38.5a38.373 38.373 0 00-14.592-30.173l20.309-41.055a4.842 4.842 0 00-.228-4.735 4.85 4.85 0 00-4.143-2.304l-9.057.084-9.116.084a5.88 5.88 0 00-5.156 3.152L65.639 37.027h-3.51L46.546 7.301a5.736 5.736 0 00-5.037-3.079l-9.199-.085-9.249-.086-.019-.001h-.025z"/><path fill="#BCBEC0" d="M59.819 53.517L83.73 7.899a2.176 2.176 0 011.918-1.172L104.8 6.55a2.186 2.186 0 011.98 3.157l-26.643 53.86-20.318-10.05z"/><path fill="#414042" d="M104.82 8.05c.509 0 .842.534.615.991L79.457 61.557 61.86 52.853 85.059 8.596a.69.69 0 01.604-.368l19.152-.178h.005m0-3H104.793l-19.16.178a3.682 3.682 0 00-3.231 1.976L59.203 51.459l-1.426 2.721 2.753 1.361 17.597 8.705 2.688 1.33 1.33-2.688 25.979-52.517a3.662 3.662 0 00-.173-3.579 3.66 3.66 0 00-3.131-1.742z"/><path fill="#939598" d="M70.658 57.205L95.495 8.137l10.437-.098-26.475 53.519z"/><path fill="#BCBEC0" d="M20.987 9.706a2.17 2.17 0 01.102-2.122 2.174 2.174 0 011.858-1.034l19.173.178a2.18 2.18 0 011.916 1.17l23.912 45.619-20.317 10.05L20.987 9.706z"/><path fill="#414042" d="M22.947 8.05h.007l19.152.178a.692.692 0 01.603.368l23.198 44.257-17.597 8.704L22.332 9.041a.686.686 0 01.615-.991m0-3a3.667 3.667 0 00-3.132 1.741 3.667 3.667 0 00-.173 3.58l25.979 52.517 1.33 2.688 2.688-1.33 17.597-8.705 2.752-1.361-1.426-2.721L45.366 7.203a3.686 3.686 0 00-3.23-1.976L22.982 5.05h-.035z"/><path fill="#939598" d="M57.109 57.205L32.272 8.137l-10.436-.098 26.475 53.519z"/><linearGradient id="a" gradientUnits="userSpaceOnUse" x1="135.224" y1="-158.875" x2="186.112" y2="-209.763" gradientTransform="matrix(1 0 0 -1 -96 -102)"><stop offset="0" stop-color="#d1d3d4"/><stop offset=".04" stop-color="#c7c9cb"/><stop offset=".17" stop-color="#adafb1"/><stop offset=".313" stop-color="#999b9e"/><stop offset=".476" stop-color="#8b8d90"/><stop offset=".672" stop-color="#838587"/><stop offset="1" stop-color="#808285"/></linearGradient><path fill="url(#a)" d="M64.667 118.318c-19.851 0-36-16.148-36-36 0-16.693 11.58-31.233 27.708-35.035v-5.089a2.67 2.67 0 012.667-2.667h11.25a2.67 2.67 0 012.666 2.667v5.089c16.129 3.802 27.709 18.342 27.709 35.035 0 19.852-16.149 36-36 36z"/><path fill="#414042" d="M70.292 41.027c.644 0 1.166.522 1.166 1.167v6.297c15.801 3.155 27.709 17.099 27.709 33.827 0 19.055-15.446 34.5-34.5 34.5-19.054 0-34.5-15.445-34.5-34.5 0-16.729 11.907-30.672 27.708-33.827v-6.297c0-.645.522-1.167 1.167-1.167h11.25m0-3h-11.25a4.171 4.171 0 00-4.167 4.167v3.92C38.68 50.483 27.167 65.33 27.167 82.318c0 20.678 16.822 37.5 37.5 37.5 20.679 0 37.5-16.822 37.5-37.5 0-16.988-11.513-31.835-27.709-36.204v-3.92a4.171 4.171 0 00-4.166-4.167z"/><linearGradient id="b" gradientUnits="userSpaceOnUse" x1="144.919" y1="-157.377" x2="176.413" y2="-211.926" gradientTransform="matrix(1 0 0 -1 -96 -102)"><stop offset="0" stop-color="#d1d3d4"/><stop offset=".152" stop-color="#c0c2c4"/><stop offset=".352" stop-color="#b2b4b6"/><stop offset=".595" stop-color="#aaacae"/><stop offset="1" stop-color="#a7a9ac"/></linearGradient><path fill="url(#b)" d="M64.667 114.152c-17.369 0-31.5-14.131-31.5-31.5s14.131-31.5 31.5-31.5 31.5 14.131 31.5 31.5-14.131 31.5-31.5 31.5z"/><path fill="#414042" d="M64.667 51.652c17.12 0 31 13.879 31 31s-13.88 31-31 31c-17.121 0-31-13.879-31-31s13.879-31 31-31m0-1c-17.646 0-32 14.355-32 32s14.354 32 32 32 32-14.355 32-32-14.355-32-32-32z"/><path fill="#F1F2F2" d="M66.833 45.09h-7.041a.814.814 0 01-.812-.812v-1.709c0-.446.365-.812.812-.812h7.041c.446 0 .812.366.812.812v1.709a.814.814 0 01-.812.812zM55.409 51.121s-1.209.222-5.169 1.912c-4.318 1.843-10.084 7.557-10.084 7.557s-.583.233-.878-.154c-.417-.549.346-1.052.346-1.052s5.034-5.219 10.072-7.583c3.751-1.76 5.42-1.926 5.42-1.926.452-.053.688.203.768.464.08.261.005.682-.475.782z"/><linearGradient id="c" gradientUnits="userSpaceOnUse" x1="173.628" y1="-207.1" x2="147.707" y2="-162.203" gradientTransform="matrix(1 0 0 -1 -96 -102)"><stop offset="0" stop-color="#6d6e71"/><stop offset=".346" stop-color="#86888b"/><stop offset=".751" stop-color="#9ea0a3"/><stop offset="1" stop-color="#a7a9ac"/></linearGradient><circle fill="url(#c)" cx="64.667" cy="82.652" r="25.917"/><g><g opacity=".2"><path d="M77.396 101.965c-.304 0-.608-.074-.883-.219l-11.306-6.789-11.257 6.761a1.932 1.932 0 01-.932.247 1.896 1.896 0 01-1.868-2.22l2.168-12.642-8.743-9.645c-.476-.46-.659-1.204-.435-1.896a1.882 1.882 0 011.53-1.291l.072-.012h12.116l5.632-12.513c.337-.685.988-1.089 1.716-1.089.727 0 1.378.404 1.7 1.056l5.647 12.546h13.031l.072.012c.72.104 1.306.6 1.529 1.291.225.69.041 1.437-.479 1.942l-9.632 9.679 2.188 12.562a1.887 1.887 0 01-.416 1.54 1.88 1.88 0 01-1.45.68z"/><path d="M65.209 61.659a.89.89 0 01.805.5l5.676 12.612a.895.895 0 00.676.489h13.152a.897.897 0 01.496 1.529l-9.644 9.688a.896.896 0 00-.259.793l2.168 12.643a.897.897 0 01-1.301.946l-11.354-6.818c-.131-.068-.273-.104-.417-.104s-.287.033-.417.104l-11.354 6.818a.89.89 0 01-.417.104.899.899 0 01-.883-1.05l2.168-12.643a.895.895 0 00-.258-.793l-8.728-9.688a.897.897 0 01.497-1.529H58.05a.9.9 0 00.676-.489l5.677-12.612a.89.89 0 01.806-.5m0-2c-1.11 0-2.105.619-2.598 1.614l-.016.032-.015.032-5.367 11.924H45.672l-.144.021a2.874 2.874 0 00-2.338 1.971 2.876 2.876 0 00.675 2.911l8.377 9.3-2.077 12.112a2.9 2.9 0 004.203 3.054l.051-.026.049-.029 10.741-6.451 10.741 6.451.049.029.05.026a2.902 2.902 0 003.568-.7c.549-.65.78-1.51.637-2.354l-2.073-12.08 9.252-9.294c.773-.755 1.055-1.892.711-2.948s-1.24-1.812-2.338-1.971l-.144-.021H73.203l-5.366-11.924-.015-.032-.018-.032a2.875 2.875 0 00-2.595-1.615z"/></g><linearGradient id="d" gradientUnits="userSpaceOnUse" x1="139.046" y1="-182.311" x2="182.281" y2="-182.311" gradientTransform="matrix(1 0 0 -1 -96 -102)"><stop offset="0" stop-color="#a7a9ac"/><stop offset=".138" stop-color="#a7a9ac"/><stop offset="1" stop-color="#a7a9ac"/></linearGradient><path fill="url(#d)" d="M76.396 100.965c-.304 0-.608-.074-.883-.219l-11.306-6.789-11.257 6.761a1.932 1.932 0 01-.932.247 1.896 1.896 0 01-1.868-2.22l2.168-12.642-8.743-9.645c-.476-.46-.659-1.204-.435-1.896a1.882 1.882 0 011.53-1.291l.072-.012h12.116l5.632-12.513c.337-.685.988-1.089 1.716-1.089.727 0 1.378.404 1.7 1.056l5.647 12.546h13.031l.072.012c.72.104 1.306.6 1.529 1.291.225.69.041 1.437-.479 1.942l-9.632 9.679 2.188 12.562a1.887 1.887 0 01-.416 1.54 1.88 1.88 0 01-1.45.68z"/><path fill="#414042" d="M64.209 60.659a.89.89 0 01.805.5l5.676 12.612a.895.895 0 00.676.489h13.152a.897.897 0 01.496 1.529l-9.644 9.688a.896.896 0 00-.259.793l2.168 12.643a.897.897 0 01-1.301.946l-11.354-6.818c-.131-.068-.273-.104-.417-.104s-.287.033-.417.104l-11.353 6.818a.89.89 0 01-.417.104.899.899 0 01-.883-1.05l2.168-12.643a.895.895 0 00-.258-.793L44.32 75.79a.897.897 0 01.497-1.529h12.235a.9.9 0 00.676-.489l5.677-12.612a.885.885 0 01.804-.501m0-2c-1.11 0-2.105.619-2.598 1.614l-.016.032-.015.032-5.367 11.924H44.672l-.144.021a2.874 2.874 0 00-2.338 1.971 2.876 2.876 0 00.675 2.911l8.377 9.3-2.077 12.112a2.9 2.9 0 004.203 3.054l.051-.026.049-.029 10.741-6.451 10.741 6.451.049.029.05.026a2.902 2.902 0 003.568-.7c.549-.65.78-1.51.637-2.354l-2.073-12.08 9.252-9.294c.773-.755 1.055-1.892.711-2.948s-1.24-1.812-2.338-1.971l-.144-.021H72.203l-5.366-11.924-.015-.032-.018-.032a2.875 2.875 0 00-2.595-1.615z"/></g><linearGradient id="e" gradientUnits="userSpaceOnUse" x1="160.668" y1="-201.964" x2="160.668" y2="-162.66" gradientTransform="matrix(1 0 0 -1 -96 -102)"><stop offset="0" stop-color="#6d6e71"/><stop offset=".088" stop-color="#838486"/><stop offset=".232" stop-color="#9fa0a2"/><stop offset=".386" stop-color="#b5b7b8"/><stop offset=".552" stop-color="#c5c7c8"/><stop offset=".741" stop-color="#ced0d1"/><stop offset="1" stop-color="#d1d3d4"/></linearGradient><path fill="url(#e)" d="M65.014 61.159l5.676 12.612a.895.895 0 00.676.489h13.152a.897.897 0 01.496 1.529l-9.644 9.688a.896.896 0 00-.259.793l2.168 12.643a.896.896 0 01-1.301.945L64.625 93.04a.892.892 0 00-.834 0l-11.353 6.819a.896.896 0 01-1.3-.944l2.168-12.644a.897.897 0 00-.258-.793L44.32 75.79a.896.896 0 01.497-1.529h12.235a.896.896 0 00.676-.49l5.677-12.611a.897.897 0 011.609-.001z"/><g><linearGradient id="f" gradientUnits="userSpaceOnUse" x1="158.955" y1="-164.999" x2="158.955" y2="-200.305" gradientTransform="matrix(1 0 0 -1 -96 -102)"><stop offset="0" stop-color="#f1f2f2" stop-opacity=".7"/><stop offset="1" stop-color="#f1f2f2" stop-opacity="0"/></linearGradient><path fill="url(#f)" d="M63.535 62.999l9.854 35.306c-.261-.138-9.075-5.539-9.337-5.4l-7.17 4.287-4.36-22.254s5.383.201 5.513-.062l5.5-11.877z"/></g></svg>