<svg xmlns="http://www.w3.org/2000/svg" width="128" height="128"><path fill="#BC3915" d="M64.667 118.818c-.354 0-.71-.004-1.065-.016-18.729-.533-34.264-15.588-35.368-34.27-.716-12.09 4.46-23.525 13.912-30.933L20.57 9.99a2.716 2.716 0 01.128-2.651 2.712 2.712 0 012.319-1.289l18.473.172a3.739 3.739 0 013.286 2.01l16.143 30.796h5.931L82.955 8.301a3.88 3.88 0 013.402-2.08l18.129-.168c1.029 0 1.941.508 2.471 1.359.527.851.579 1.896.134 2.794L86.049 52.743c9.499 6.866 15.118 17.794 15.118 29.575 0 9.75-3.797 18.916-10.69 25.811-6.894 6.892-16.06 10.689-25.81 10.689z"/><path fill="#510F08" d="M23.017 8.05h.007l9.249.086 9.199.086a1.746 1.746 0 011.532.937l16.705 31.869h8.352L84.727 9.229a1.886 1.886 0 011.65-1.009l9.118-.085 9.01-.083h.009a.877.877 0 01.785 1.266L83.488 53.409c9.438 6.155 15.679 16.801 15.679 28.909 0 19.055-15.446 34.5-34.5 34.5-.335 0-.672-.004-1.009-.014-17.714-.507-32.382-14.699-33.429-32.39-.737-12.454 5.141-23.58 14.445-30.208L22.362 9.104a.731.731 0 01.655-1.054m0-4a4.704 4.704 0 00-4.018 2.234 4.699 4.699 0 00-.222 4.592l20.869 42.187c-9.164 7.819-14.132 19.39-13.41 31.589 1.166 19.709 17.554 35.588 37.308 36.15.376.012.75.018 1.123.018 21.229 0 38.5-17.271 38.5-38.5a38.373 38.373 0 00-14.592-30.173l20.31-41.055a4.844 4.844 0 00-.229-4.735 4.848 4.848 0 00-4.143-2.304l-9.056.084-9.117.084a5.874 5.874 0 00-5.154 3.152L65.641 37.027h-3.512L46.546 7.301a5.735 5.735 0 00-5.037-3.079l-9.199-.085-9.249-.086-.019-.001h-.025z"/><path fill="#BC3915" d="M59.819 53.517L83.73 7.899a2.176 2.176 0 011.918-1.172L104.8 6.55c.782 0 1.478.386 1.878 1.032.402.646.44 1.44.104 2.123L80.137 63.567l-20.318-10.05z"/><path fill="#510F08" d="M104.82 8.05c.509 0 .842.534.615.991L79.457 61.557 61.86 52.853 85.061 8.596a.685.685 0 01.602-.368l19.152-.178h.005m0-3H104.793l-19.16.178a3.684 3.684 0 00-3.231 1.976L59.203 51.459l-1.426 2.721 2.753 1.361 17.597 8.705 2.688 1.33 1.332-2.688 25.979-52.517a3.665 3.665 0 00-.173-3.579 3.666 3.666 0 00-3.133-1.742z"/><path fill="#84250F" d="M70.659 57.205L95.495 8.137l10.437-.098-26.475 53.519z"/><path fill="#BC3915" d="M20.987 9.706a2.173 2.173 0 01.104-2.124 2.173 2.173 0 011.856-1.032l19.173.178a2.18 2.18 0 011.919 1.174l23.91 45.615-20.317 10.05L20.987 9.706z"/><path fill="#510F08" d="M22.947 8.05h.007l19.152.178a.69.69 0 01.603.368l23.198 44.257-17.596 8.704L22.332 9.041a.687.687 0 01.615-.991m0-3a3.667 3.667 0 00-3.132 1.741 3.667 3.667 0 00-.172 3.58l25.979 52.517 1.33 2.688 2.689-1.33 17.597-8.705 2.753-1.361-1.427-2.721L45.366 7.203a3.685 3.685 0 00-3.23-1.976L22.982 5.05h-.035z"/><path fill="#84250F" d="M57.109 57.205L32.272 8.137l-10.436-.098 26.476 53.519z"/><path fill="#BC3915" d="M64.667 118.318c-19.851 0-36-16.148-36-36 0-16.693 11.58-31.233 27.708-35.035v-5.089a2.67 2.67 0 012.667-2.667h11.25a2.669 2.669 0 012.667 2.667v5.089c16.128 3.802 27.708 18.342 27.708 35.035 0 19.852-16.149 36-36 36z"/><path fill="#510F08" d="M70.292 41.027c.646 0 1.167.522 1.167 1.167v6.297C87.26 51.646 99.167 65.59 99.167 82.318c0 19.055-15.446 34.5-34.5 34.5-19.054 0-34.5-15.445-34.5-34.5 0-16.729 11.907-30.672 27.708-33.827v-6.297c0-.645.522-1.167 1.167-1.167h11.25m0-3h-11.25a4.171 4.171 0 00-4.167 4.167v3.92C38.68 50.483 27.167 65.33 27.167 82.318c0 20.678 16.822 37.5 37.5 37.5 20.679 0 37.5-16.822 37.5-37.5 0-16.988-11.513-31.835-27.708-36.204v-3.92a4.171 4.171 0 00-4.167-4.167z"/><linearGradient id="a" gradientUnits="userSpaceOnUse" x1="144.919" y1="-157.377" x2="176.413" y2="-211.926" gradientTransform="matrix(1 0 0 -1 -96 -102)"><stop offset="0" stop-color="#d85315"/><stop offset=".066" stop-color="#cd4d14"/><stop offset=".227" stop-color="#b94112"/><stop offset=".409" stop-color="#ab3810"/><stop offset=".631" stop-color="#a3330f"/><stop offset="1" stop-color="#a0320f"/></linearGradient><path fill="url(#a)" d="M64.667 114.152c-17.369 0-31.5-14.131-31.5-31.5s14.131-31.5 31.5-31.5 31.5 14.131 31.5 31.5-14.131 31.5-31.5 31.5z"/><path fill="#510F08" d="M64.667 51.652c17.121 0 31 13.879 31 31s-13.879 31-31 31-31-13.879-31-31 13.879-31 31-31m0-1c-17.645 0-32 14.355-32 32s14.355 32 32 32c17.646 0 32-14.355 32-32s-14.355-32-32-32z"/><g><path fill="#FF791F" d="M66.834 45.09h-7.042a.814.814 0 01-.812-.812v-1.709c0-.446.365-.812.812-.812h7.042c.445 0 .812.366.812.812v1.709a.815.815 0 01-.812.812z"/></g><g><path fill="#FF791F" d="M55.409 51.121s-1.209.222-5.169 1.912c-4.318 1.843-10.084 7.557-10.084 7.557s-.583.233-.878-.154c-.416-.549.346-1.052.346-1.052s5.034-5.219 10.072-7.583c3.751-1.76 5.42-1.926 5.42-1.926.452-.053.688.203.768.464.08.261.005.682-.475.782z"/></g><linearGradient id="b" gradientUnits="userSpaceOnUse" x1="173.628" y1="-207.1" x2="147.707" y2="-162.203" gradientTransform="matrix(1 0 0 -1 -96 -102)"><stop offset="0" stop-color="#70250f"/><stop offset=".033" stop-color="#73260f"/><stop offset=".456" stop-color="#9b3012"/><stop offset=".793" stop-color="#b33714"/><stop offset="1" stop-color="#bc3915"/></linearGradient><circle fill="url(#b)" cx="64.667" cy="82.652" r="25.917"/><g><g opacity=".2"><path d="M77.396 101.465c-.227 0-.444-.054-.648-.162l-11.38-6.832c-.032-.018-.097-.033-.159-.033s-.127.017-.184.047l-11.33 6.806c-.23.122-.449.176-.675.176a1.4 1.4 0 01-1.377-1.635l2.168-12.644a.4.4 0 00-.113-.35l-8.75-9.712a1.375 1.375 0 01-.331-1.408 1.39 1.39 0 011.127-.95l12.309-.006a.43.43 0 00.227-.212l5.669-12.596a1.395 1.395 0 011.26-.794c.536 0 1.017.298 1.252.778l5.685 12.628a.386.386 0 00.291.199l13.08-.004c.603.082 1.033.446 1.199.955.165.51.03 1.059-.354 1.432l-9.639 9.684a.398.398 0 00-.119.355l2.168 12.643c.069.406-.041.82-.306 1.134a1.392 1.392 0 01-1.07.501z"/><path d="M65.209 61.659a.89.89 0 01.805.5l5.676 12.612a.897.897 0 00.676.489h13.152a.897.897 0 01.496 1.529l-9.644 9.688a.898.898 0 00-.259.793l2.168 12.643a.897.897 0 01-1.299.946l-11.354-6.818a.9.9 0 00-.417-.104.865.865 0 00-.417.104l-11.354 6.818a.895.895 0 01-1.301-.946l2.168-12.643a.892.892 0 00-.258-.793l-8.728-9.688a.897.897 0 01.497-1.529h12.236a.898.898 0 00.675-.489l5.677-12.612a.89.89 0 01.805-.5m0-1c-.727 0-1.379.405-1.7 1.058l-5.647 12.545H45.745l-.071.012a1.882 1.882 0 00-1.531 1.291 1.882 1.882 0 00.453 1.916l8.709 9.668.007.008-2.159 12.591a1.898 1.898 0 001.868 2.219c.305 0 .609-.075.883-.22l.025-.014.024-.015 11.256-6.761 11.256 6.761.023.015.025.014a1.89 1.89 0 002.336-.459c.359-.426.512-.987.416-1.54l-2.16-12.59 9.615-9.66a1.877 1.877 0 00.471-1.933 1.885 1.885 0 00-1.531-1.291l-.071-.012H72.557l-5.632-12.513c-.337-.685-.987-1.09-1.716-1.09z"/></g><linearGradient id="c" gradientUnits="userSpaceOnUse" x1="139.549" y1="-182.313" x2="181.786" y2="-182.313" gradientTransform="matrix(1 0 0 -1 -96 -102)"><stop offset="0" stop-color="#bc3915"/><stop offset=".066" stop-color="#b13514"/><stop offset=".227" stop-color="#9d2e12"/><stop offset=".409" stop-color="#8f2910"/><stop offset=".631" stop-color="#87260f"/><stop offset="1" stop-color="#84250f"/></linearGradient><path fill="url(#c)" d="M76.396 100.465c-.227 0-.444-.054-.648-.162l-11.38-6.832a.4.4 0 00-.343.014l-11.329 6.806c-.23.122-.449.176-.675.176a1.4 1.4 0 01-1.377-1.635l2.168-12.644a.4.4 0 00-.113-.35l-8.75-9.712a1.375 1.375 0 01-.331-1.408 1.39 1.39 0 011.127-.95l12.309-.006a.43.43 0 00.227-.212l5.669-12.596a1.395 1.395 0 011.26-.794c.536 0 1.017.298 1.252.778l5.685 12.628a.386.386 0 00.291.199l13.08-.004c.603.082 1.033.446 1.199.955.165.51.03 1.059-.354 1.432l-9.639 9.684a.398.398 0 00-.119.355l2.168 12.643a1.396 1.396 0 01-1.377 1.635z"/><path fill="#510F08" d="M64.209 60.659a.89.89 0 01.805.5l5.676 12.612a.897.897 0 00.676.489h13.152a.897.897 0 01.496 1.529l-9.644 9.688a.898.898 0 00-.259.793l2.168 12.643a.897.897 0 01-1.299.946l-11.354-6.818c-.131-.068-.273-.104-.417-.104s-.286.033-.417.104l-11.354 6.818a.895.895 0 01-1.301-.946l2.168-12.643a.892.892 0 00-.258-.793l-8.728-9.688a.897.897 0 01.497-1.529h12.236a.898.898 0 00.675-.489l5.677-12.612a.89.89 0 01.805-.5m0-1c-.727 0-1.379.405-1.7 1.058l-5.647 12.545H44.745l-.071.012a1.882 1.882 0 00-1.531 1.291 1.882 1.882 0 00.453 1.916l8.709 9.668.007.008-2.159 12.591a1.898 1.898 0 001.868 2.219c.305 0 .609-.075.883-.22l.025-.014.024-.015 11.256-6.761 11.256 6.761.023.015.025.014a1.89 1.89 0 002.336-.459c.359-.426.512-.987.416-1.54l-2.16-12.59 9.615-9.66a1.877 1.877 0 00.471-1.933 1.885 1.885 0 00-1.531-1.291l-.071-.012H71.557l-5.632-12.513c-.337-.685-.987-1.09-1.716-1.09z"/></g><linearGradient id="d" gradientUnits="userSpaceOnUse" x1="160.667" y1="-201.964" x2="160.667" y2="-162.66" gradientTransform="matrix(1 0 0 -1 -96 -102)"><stop offset="0" stop-color="#78250f"/><stop offset=".108" stop-color="#8a2a11"/><stop offset=".285" stop-color="#a03113"/><stop offset=".479" stop-color="#b03514"/><stop offset=".699" stop-color="#b93815"/><stop offset="1" stop-color="#bc3915"/></linearGradient><path fill="url(#d)" d="M65.014 61.159l5.676 12.612a.897.897 0 00.676.489h13.152a.897.897 0 01.496 1.529l-9.644 9.688a.898.898 0 00-.259.793l2.168 12.643a.895.895 0 01-1.299.945L64.626 93.04a.892.892 0 00-.834 0l-11.354 6.819a.896.896 0 01-1.301-.944l2.168-12.644a.894.894 0 00-.258-.793l-8.728-9.688a.896.896 0 01.497-1.529h12.236a.895.895 0 00.675-.49l5.677-12.611a.898.898 0 011.61-.001z"/><g><linearGradient id="e" gradientUnits="userSpaceOnUse" x1="158.956" y1="-164.999" x2="158.956" y2="-200.305" gradientTransform="matrix(1 0 0 -1 -96 -102)"><stop offset="0" stop-color="#f7941d" stop-opacity=".7"/><stop offset="1" stop-color="#f7941d" stop-opacity="0"/></linearGradient><path fill="url(#e)" d="M63.536 62.999l9.854 35.306c-.262-.138-9.076-5.539-9.337-5.4l-7.169 4.287-4.361-22.254s5.383.201 5.514-.062l5.499-11.877z"/></g></svg>