<svg xmlns="http://www.w3.org/2000/svg" width="100" height="100" fill="none" xmlns:v="https://vecta.io/nano"><g clip-path="url(#A)"><path d="M6.869 92.904c-1.423-.001-2.788-.567-3.795-1.574S1.502 88.959 1.5 87.536V6.869c.002-1.423.568-2.788 1.574-3.795S5.446 1.502 6.869 1.5h80.667c1.423.002 2.788.568 3.794 1.574s1.572 2.371 1.574 3.795v80.667c-.001 1.423-.567 2.788-1.574 3.794s-2.371 1.572-3.794 1.574H6.869z" fill="#55a4b0"/><path d="M87.536 3a3.87 3.87 0 0 1 3.868 3.869v80.667a3.87 3.87 0 0 1-3.868 3.868H6.869A3.87 3.87 0 0 1 3 87.536V6.869c.001-1.026.409-2.009 1.134-2.735S5.843 3.001 6.869 3h80.667zm0-3H6.869A6.87 6.87 0 0 0 0 6.869v80.667a6.87 6.87 0 0 0 2.012 4.857 6.87 6.87 0 0 0 4.857 2.011h80.667c.902 0 1.795-.177 2.628-.522s1.591-.851 2.228-1.489 1.144-1.395 1.489-2.228.523-1.726.522-2.628V6.869a6.87 6.87 0 0 0-2.011-4.857A6.87 6.87 0 0 0 87.536 0h0z" fill="#c0e9ff"/><path d="M18.039 22V11.979h1.996l2.372 7.096.479 1.483.533-1.606 2.399-6.973h1.784V22h-1.278v-8.388L23.412 22h-1.196l-2.898-8.531V22h-1.278zm16.516-2.338l1.272.157c-.2.743-.572 1.319-1.114 1.73s-1.235.615-2.078.615c-1.062 0-1.905-.326-2.529-.978s-.93-1.575-.93-2.755c0-1.221.314-2.169.943-2.844s1.445-1.012 2.447-1.012c.971 0 1.764.33 2.379.991s.923 1.591.923 2.789l-.007.328h-5.414c.046.797.271 1.408.677 1.832s.912.636 1.518.636c.451 0 .836-.118 1.155-.355s.572-.615.759-1.135zm-4.04-1.989h4.054c-.055-.611-.21-1.069-.465-1.374-.392-.474-.9-.711-1.524-.711-.565 0-1.041.189-1.429.567s-.595.884-.636 1.518zM37.364 22v-7.26h1.107v1.101c.282-.515.542-.854.779-1.018a1.38 1.38 0 0 1 .793-.246c.415 0 .836.132 1.265.396l-.424 1.142a1.76 1.76 0 0 0-.902-.267 1.16 1.16 0 0 0-.725.246c-.214.159-.367.383-.458.67-.137.438-.205.916-.205 1.436V22h-1.23zm9.413-2.659l1.21.157c-.132.834-.472 1.488-1.018 1.962s-1.21.704-2.003.704c-.994 0-1.793-.324-2.399-.971s-.902-1.584-.902-2.796c0-.784.13-1.47.39-2.058s.654-1.028 1.183-1.319 1.112-.444 1.736-.444c.788 0 1.433.2 1.935.601s.823.962.964 1.695l-1.196.185c-.114-.488-.317-.855-.608-1.101s-.636-.369-1.046-.369c-.62 0-1.123.223-1.511.67s-.581 1.144-.581 2.105c0 .975.187 1.684.561 2.126s.861.663 1.463.663c.483 0 .886-.148 1.21-.444s.529-.752.615-1.367zM49.04 22V11.979h1.23v3.596c.574-.665 1.299-.998 2.174-.998.538 0 1.005.107 1.401.321s.679.501.848.875.26.916.26 1.627V22h-1.23v-4.601c0-.615-.135-1.062-.403-1.34s-.64-.424-1.128-.424c-.365 0-.709.096-1.032.287s-.547.442-.684.766-.205.77-.205 1.34V22h-1.23zm12.53-.895c-.456.387-.896.661-1.319.82s-.87.239-1.353.239c-.798 0-1.41-.194-1.839-.581s-.643-.891-.643-1.497a1.99 1.99 0 0 1 .239-.971c.164-.296.376-.533.636-.711s.561-.312.889-.403c.242-.064.606-.125 1.094-.185.993-.119 1.725-.26 2.194-.424l.007-.321c0-.501-.116-.855-.349-1.06-.314-.278-.782-.417-1.401-.417-.579 0-1.007.103-1.285.308s-.476.558-.608 1.073l-1.203-.164c.109-.515.289-.93.54-1.244s.613-.563 1.087-.731 1.023-.26 1.647-.26 1.123.073 1.511.219.672.33.855.554.31.497.383.834c.041.21.062.588.062 1.135v1.641l.075 2.174c.055.301.159.59.314.868h-1.285a2.61 2.61 0 0 1-.246-.895zm-.103-2.748c-.447.182-1.117.337-2.01.465-.506.073-.864.155-1.073.246s-.371.226-.485.403-.171.367-.171.581a1.05 1.05 0 0 0 .369.82c.251.219.615.328 1.094.328a2.56 2.56 0 0 0 1.265-.308c.369-.21.64-.495.813-.855.132-.278.198-.688.198-1.23v-.451zM64.626 22v-7.26h1.107v1.032c.533-.798 1.303-1.196 2.31-1.196a2.97 2.97 0 0 1 1.203.239c.369.155.645.36.827.615s.31.558.383.909c.046.228.068.627.068 1.196V22h-1.231v-4.416c0-.501-.048-.875-.144-1.121a1.16 1.16 0 0 0-.513-.595c-.242-.15-.526-.226-.855-.226-.524 0-.978.166-1.36.499s-.567.964-.567 1.894V22h-1.23zm10.48-1.101l.178 1.087c-.346.073-.656.109-.93.109-.447 0-.793-.071-1.039-.212a1.19 1.19 0 0 1-.52-.554c-.1-.232-.15-.718-.15-1.456v-4.177h-.902v-.957h.902v-1.798l1.224-.738v2.536h1.237v.957h-1.237v4.245c0 .351.02.576.061.677a.54.54 0 0 0 .212.239c.1.059.242.089.424.089.137 0 .317-.016.54-.048z" fill="#e6f7ff"/><path d="M45.906 30.975c4.743-.001 9.512 1.247 10.883 3.241 1.094 1.592 11.902 37.072 12.069 38.965.222 2.523-5.395 8.842-22.252 8.842-.254 0-.51-.002-.768-.004-18.395-.206-20.943-7.76-20.861-10.072.073-2.059 8.47-34.945 10.908-37.848 1.841-2.191 5.921-3.124 10.021-3.124h0zM45.87 29v1.975-1.945h.036c-2.5 0-8.63.358-11.533 3.814-.469.559-1.893 2.247-6.734 19.984-1.908 6.991-4.58 17.499-4.636 19.053-.026.733.089 3.335 2.674 6.044 3.741 3.92 10.517 5.962 20.139 6.07l.791.004c14.688 0 20.526-4.643 22.355-6.64 1.322-1.445 1.985-2.99 1.864-4.352-.149-1.687-5.192-18.133-5.766-20.002-5.693-18.528-6.426-19.567-6.661-19.908C56.318 30.073 50.315 29 45.87 29h0z" fill="#000"/><path d="M45.83 82.756c-11.555-.129-16.851-3.165-19.259-5.689-1.79-1.876-2.379-3.89-2.334-5.151.066-1.855 8.438-35.15 11.081-38.298 2.57-3.059 8.261-3.389 10.588-3.389 4.356 0 9.81 1.114 11.493 3.562 1.339 1.948 12.051 37.674 12.197 39.32.089 1.013-.46 2.223-1.545 3.409-1.718 1.876-7.247 6.24-21.444 6.24-.257.001-.515-.001-.777-.004h0z" fill="#cceffe"/><path d="M45.906 30.974c4.743-.001 9.512 1.247 10.883 3.241 1.094 1.592 11.902 37.072 12.069 38.965.222 2.522-5.394 8.842-22.252 8.842-.254 0-.51-.001-.768-.004-18.395-.206-20.943-7.76-20.861-10.072.073-2.059 8.47-34.945 10.908-37.848 1.841-2.191 5.921-3.124 10.021-3.124h0zm-.036-1.482v1.482-1.451h.018c-2.431 0-8.376.34-11.146 3.638-1.21 1.441-3.438 8.096-6.632 19.795-2.146 7.861-4.568 17.571-4.616 18.941-.024.684.087 3.117 2.539 5.686 2.507 2.627 7.974 5.785 19.788 5.917l.785.004c14.492 0 20.206-4.532 21.99-6.48 1.228-1.341 1.845-2.753 1.737-3.975-.147-1.665-5.518-19.157-5.747-19.9C62 44.73 58.741 34.465 57.992 33.375c-1.845-2.682-7.183-3.883-12.121-3.883h0z" fill="#223948"/><path opacity=".6" d="M36.036 33.9c-.625.842-.228 4.441 8.169 4.997 8.538.565 9.014-.901 9.261-.734l9.703 40.884s5.06-2.216 5.677-5.386c.142-.73-.659-2.916-2.058-7.902-1.456-5.189-4.062-13.111-6.09-19.916-2.552-8.558-3.952-11.631-3.952-11.631s-2.025-3.036-10.082-3.208c-7.416-.159-10.003 2.052-10.629 2.896h0z" fill="#a0c1cf"/></g><defs><clipPath id="A"><path fill="#fff" d="M0 0h100v100H0z"/></clipPath></defs></svg>