<svg xmlns="http://www.w3.org/2000/svg" xmlns:xlink="http://www.w3.org/1999/xlink" width="100" height="100" fill="none" xmlns:v="https://vecta.io/nano"><style><![CDATA[.B{fill:#000}.C{stroke-width:1.5}.D{fill-rule:evenodd}.E{fill:#a58410}.F{fill:#157435}.G{fill:#304e89}]]></style><g clip-path="url(#S)"><path d="M6.869 92.904c-1.423-.001-2.788-.567-3.795-1.574S1.502 88.959 1.5 87.536V6.869c.002-1.423.568-2.788 1.574-3.795S5.446 1.502 6.869 1.5h80.667c1.423.002 2.788.568 3.794 1.574s1.572 2.371 1.574 3.795v80.667c-.001 1.423-.567 2.788-1.574 3.794s-2.371 1.572-3.794 1.574H6.869z" fill="#55a4b0"/><path d="M87.536 3a3.87 3.87 0 0 1 3.868 3.869v80.667a3.87 3.87 0 0 1-3.868 3.868H6.869A3.87 3.87 0 0 1 3 87.536V6.869c.001-1.026.409-2.009 1.134-2.735S5.843 3.001 6.869 3h80.667zm0-3H6.869A6.87 6.87 0 0 0 0 6.869v80.667a6.87 6.87 0 0 0 2.012 4.857 6.87 6.87 0 0 0 4.857 2.011h80.667c.902 0 1.795-.177 2.628-.522s1.591-.851 2.228-1.489 1.144-1.395 1.489-2.228.523-1.726.522-2.628V6.869a6.87 6.87 0 0 0-2.011-4.857A6.87 6.87 0 0 0 87.536 0h0z" fill="#c0e9ff"/><path d="M15.039 22V11.979h1.996l2.372 7.096.479 1.483.533-1.606 2.399-6.973h1.784V22h-1.278v-8.388L20.412 22h-1.196l-2.898-8.531V22h-1.278zm16.516-2.338l1.271.157c-.2.743-.572 1.319-1.114 1.73s-1.235.615-2.078.615c-1.062 0-1.905-.326-2.529-.978s-.93-1.575-.93-2.755c0-1.221.314-2.169.943-2.844s1.445-1.012 2.447-1.012c.971 0 1.764.33 2.379.991s.923 1.591.923 2.789l-.007.328h-5.414c.046.797.271 1.408.677 1.832s.912.636 1.518.636c.451 0 .836-.118 1.155-.355s.572-.615.759-1.135zm-4.04-1.989h4.054c-.055-.611-.21-1.069-.465-1.374-.392-.474-.9-.711-1.524-.711-.565 0-1.041.189-1.429.567s-.595.884-.636 1.518zm9.55 3.227l.178 1.087c-.346.073-.656.109-.93.109-.447 0-.793-.071-1.039-.212a1.19 1.19 0 0 1-.52-.554c-.1-.232-.15-.718-.15-1.456v-4.177h-.902v-.957h.902v-1.798l1.224-.738v2.536h1.237v.957h-1.237v4.245c0 .351.021.576.062.677s.116.18.212.239.242.089.424.089c.137 0 .317-.016.54-.048zM38.261 22v-7.26h1.108v1.101c.282-.515.542-.854.779-1.018a1.38 1.38 0 0 1 .793-.246c.415 0 .836.132 1.265.396l-.424 1.142c-.301-.178-.602-.267-.902-.267a1.16 1.16 0 0 0-.725.246c-.214.159-.367.383-.458.67-.137.438-.205.916-.205 1.436V22h-1.23zm4.218-3.63c0-1.344.374-2.34 1.121-2.987.624-.538 1.385-.807 2.283-.807.998 0 1.814.328 2.447.984s.95 1.554.95 2.707c0 .934-.141 1.67-.424 2.208s-.686.948-1.224 1.244-1.117.444-1.75.444c-1.016 0-1.839-.326-2.468-.978s-.937-1.59-.937-2.816zm1.265 0c0 .93.203 1.627.608 2.092s.916.69 1.531.69 1.119-.232 1.524-.697.608-1.174.608-2.126c0-.898-.205-1.577-.615-2.037a1.93 1.93 0 0 0-1.518-.697c-.615 0-1.126.23-1.531.691s-.608 1.155-.608 2.085zm6.986 6.412V14.74h1.121v.943c.264-.369.563-.645.895-.827s.736-.28 1.21-.28c.62 0 1.167.159 1.641.479s.832.77 1.073 1.354.362 1.214.362 1.907c0 .743-.134 1.413-.403 2.01a3.01 3.01 0 0 1-1.162 1.367c-.506.314-1.039.472-1.6.472-.41 0-.779-.087-1.107-.26s-.59-.392-.8-.656v3.534h-1.23zm1.114-6.371c0 .934.189 1.625.567 2.071s.836.67 1.374.67c.547 0 1.014-.23 1.401-.69s.588-1.183.588-2.153c0-.925-.191-1.618-.574-2.078s-.832-.691-1.36-.691-.989.246-1.394.738-.602 1.199-.602 2.133zm6.221-.041c0-1.344.374-2.34 1.121-2.987.624-.538 1.386-.807 2.283-.807.998 0 1.814.328 2.447.984s.95 1.554.95 2.707c0 .934-.141 1.67-.424 2.208s-.686.948-1.224 1.244-1.117.444-1.75.444c-1.016 0-1.839-.326-2.468-.978s-.936-1.59-.936-2.816zm1.265 0c0 .93.203 1.627.608 2.092s.916.69 1.531.69 1.119-.232 1.524-.697.608-1.174.608-2.126c0-.898-.205-1.577-.615-2.037a1.93 1.93 0 0 0-1.517-.697c-.615 0-1.126.23-1.531.691s-.608 1.155-.608 2.085zM66.288 22V11.979h1.231V22h-1.231zm3.151-8.606v-1.415h1.23v1.415h-1.23zm0 8.606v-7.26h1.23V22h-1.23zm2.618-2.167l1.217-.191c.068.488.257.861.567 1.121s.752.39 1.313.39.984-.114 1.258-.342.41-.504.41-.813c0-.278-.121-.497-.362-.656-.169-.109-.588-.248-1.258-.417-.902-.228-1.529-.424-1.88-.588s-.611-.399-.793-.69-.267-.622-.267-.977c0-.324.073-.622.219-.895s.353-.508.608-.691c.191-.141.451-.26.779-.355s.688-.15 1.066-.15c.57 0 1.069.082 1.497.246s.752.387.957.67.346.652.424 1.121l-1.203.164c-.055-.374-.214-.665-.479-.875s-.629-.314-1.107-.314c-.565 0-.968.093-1.21.28s-.362.406-.362.656a.68.68 0 0 0 .15.431c.1.132.257.241.472.328.123.046.485.15 1.087.314l1.818.574c.346.146.617.36.814.643s.294.633.294 1.053c0 .41-.121.797-.362 1.162s-.581.64-1.032.841-.962.294-1.531.294c-.943 0-1.663-.196-2.16-.588s-.807-.973-.943-1.743z" fill="#e6f7ff"/><path d="M34.198 41.615l1.035-.318c-.137-.447-.546-.756-1.014-.765s-.889.284-1.043.726l1.022.357zm-3.091 8.851l-1.022-.357-.013.039 1.035.318zm-9.285-.012l1.046-.279-.01-.035-1.037.314zm-2.679-8.851l1.036-.314c-.151-.5-.637-.82-1.156-.763s-.923.478-.96.998l1.08.078zm7.218-10.521V30v1.083zm-.412.118l-.605-.898-.004.002.608.896zm-6.475 4.395l-.608-.896-.021.014-.02.015.65.866zm-.026.02l-.65-.866-.041.031-.038.034.728.801zm-.024.022l.683.84.023-.019.022-.02-.728-.801zm-.306.509l-1.063-.208-.02.103v.105h1.083zm0 .013l1.049.27.034-.133v-.137h-1.083zm-1.392 5.401l-1.049-.27-.009.035-.007.036 1.064.199zm.859 1.027v-1.083h-.004-.004l.008 1.083zm.498-.157l.622.886.421-.295.037-.513-1.08-.078zm8.487-11.23l-.605.898.004.003.601-.901zm6.458 4.305l.65-.866-.024-.018-.025-.017-.601.901zm.026.02l.728-.801-.038-.034-.041-.031-.65.866zm.024.022l-.728.801.022.02.023.019.683-.84zm.306.509h1.083v-.105l-.02-.103-1.063.208zm0 .013h-1.083v.137l.034.133 1.049-.27zm1.392 5.401l1.064-.199-.007-.036-.009-.035-1.049.27zm-.859 1.027l.008-1.083h-.004-.004v1.083zm-.498-.157l-1.035.318.109.355.304.214.622-.887zm-2.291 8.483l3.091-8.851-2.045-.714-3.091 8.851 2.045.714zm-1.336.957a1.41 1.41 0 0 0 1.348-.996l-2.07-.636c.097-.317.39-.533.722-.533v2.166zm-8.655 0h8.655v-2.166h-8.655v2.166zm-1.363-1.047a1.41 1.41 0 0 0 1.363 1.047v-2.166c.342 0 .642.23.73.561l-2.093.558zm-2.669-8.816l2.679 8.851 2.073-.627-2.679-8.851-2.073.627zM26.362 30c-.319 0-.696.087-1.016.303l1.209 1.797c-.056.038-.099.052-.117.057s-.043.01-.076.01V30zm-1.02.305L18.867 34.7l1.216 1.792 6.475-4.395-1.216-1.792zm-6.517 4.425l-.026.02 1.299 1.733.026-.02-1.299-1.733zm-.105.085l-.024.022 1.457 1.602.024-.022-1.457-1.602zm.022-.017c-.355.288-.598.692-.686 1.142l2.125.416a.21.21 0 0 1-.074.123l-1.365-1.681zm-.706 1.35v.013h2.166v-.013h-2.166zm.034-.257l-1.392 5.401 2.097.541 1.392-5.401-2.097-.541zm-1.408 5.472a1.95 1.95 0 0 0 .03.852l2.095-.548c.008.031.009.063.003.094l-2.129-.398zm.03.852a1.95 1.95 0 0 0 .391.758l1.661-1.389c.02.024.035.053.043.084l-2.095.548zm.391.758a1.95 1.95 0 0 0 .677.519l.91-1.965c.029.013.054.033.075.057l-1.661 1.389zm.677.519a1.95 1.95 0 0 0 .833.181l-.015-2.166c.032 0 .063.007.092.02l-.91 1.965zm.826.181c.398 0 .791-.123 1.12-.354l-1.244-1.773c.037-.026.079-.039.124-.039v2.166zm8.599-11.505c-.078 0-.154-.024-.218-.066l1.209-1.797c-.291-.196-.634-.303-.991-.303v2.166zm-.214-.064l6.458 4.306 1.201-1.802-6.458-4.306-1.201 1.802zm6.409 4.271l.026.02 1.299-1.733-.026-.02-1.299 1.733zm-.053-.045l.024.022 1.457-1.602-.024-.022-1.457 1.602zm.07.061a.21.21 0 0 1-.074-.123l2.125-.416c-.088-.449-.331-.853-.686-1.142l-1.365 1.681zm-.094-.331v.013h2.166v-.013h-2.166zm.034.283l1.392 5.401 2.097-.541-1.392-5.401-2.097.541zm1.376 5.33c-.006-.031-.005-.063.003-.094l2.095.548a1.95 1.95 0 0 0 .03-.852l-2.129.398zm.003-.094c.008-.031.023-.059.043-.084l1.661 1.389a1.95 1.95 0 0 0 .391-.758l-2.095-.548zm.043-.084c.02-.024.046-.044.075-.057l.91 1.965a1.95 1.95 0 0 0 .677-.519l-1.661-1.389zm.075-.057c.029-.013.06-.02.092-.02l-.015 2.166a1.95 1.95 0 0 0 .833-.181l-.91-1.965zm.084-.02c.044 0 .087.013.123.039l-1.244 1.773a1.95 1.95 0 0 0 1.12.354v-2.166zM27.187 30h-.002v2.166h.002V30zm-.825 2.166h.825V30h-.825v2.166zm-6.198 10.343l.06-.827-2.16-.156-.06.827 2.16.156zm15.292-.485l-.223-.726-2.07.635.223.726 2.071-.635z" class="B"/><use xlink:href="#T" fill="url(#A)"/><g stroke="#000" class="C"><path d="M32.873 45.336l2.166 12.128M20.314 45.336l-2.166 12.128"/></g><path d="M20.314 45.336h12.561l2.166 12.128H18.148l2.166-12.128z" fill="#fff06b"/><use xlink:href="#U" class="D E"/><path d="M27.8 50.79h-2.085l-.35-2.461c0-.232.064-.458.184-.656s.294-.358.5-.463c.417-.214.911-.219 1.333-.015l.048.022a1.26 1.26 0 0 1 .71 1.132l-.339 2.441H27.8zm-.24-7.525h-1.609l-.269-1.866c0-.358.203-.688.527-.852.16-.08.336-.123.515-.125s.356.037.517.114l.035.018c.163.077.301.199.398.351s.148.329.149.51l-.262 1.851z" class="B"/><path d="M18.588 42.257c-.08 0-.159-.018-.232-.052s-.137-.084-.188-.146-.088-.134-.108-.212-.023-.159-.008-.237l1.39-5.267c.022-.131.092-.245.19-.326l.011-.011 6.559-4.371.116-.006c.197 0 .358.159.358.356v5.274c0 .164-.072.319-.201.422l-.018.015-7.551 4.459c-.094.07-.203.105-.319.105v-.002z" fill="url(#B)"/><path d="M26.323 31.824c.015 0 .028.011.028.031v5.401c0 .032-.007.064-.021.093s-.034.055-.058.075l-7.547 4.456c-.038.031-.086.048-.136.048a.22.22 0 0 1-.167-.079c-.02-.025-.035-.053-.043-.084s-.009-.063-.003-.095l1.39-5.405c.01-.05.037-.095.076-.127l6.463-4.31zm0-.656a.69.69 0 0 0-.387.118l-6.458 4.306-.026.02-.024.022a.87.87 0 0 0-.306.509v.013l-1.392 5.401a.87.87 0 0 0 .013.379c.032.124.092.239.174.337a.87.87 0 0 0 .301.231c.116.054.243.081.371.08a.87.87 0 0 0 .498-.157l7.518-4.436.041-.026.037-.031a.87.87 0 0 0 .321-.677v-5.401c0-.378-.306-.686-.684-.686h.002z" class="E"/><use xlink:href="#V" fill="url(#C)"/><g class="E"><path d="M27.186 31.824c-.015 0-.028.011-.028.031v5.401c0 .032.007.064.021.093s.033.055.058.075l7.547 4.456c.038.031.086.048.136.048.032 0 .063-.007.092-.021a.22.22 0 0 0 .075-.058c.02-.025.035-.053.043-.084s.009-.063.004-.095l-1.39-5.405c-.01-.05-.037-.095-.077-.127l-6.463-4.31zm0-.656a.69.69 0 0 1 .387.118l6.458 4.306.026.02.024.022a.87.87 0 0 1 .306.509v.013l1.392 5.401a.87.87 0 0 1-.187.716.87.87 0 0 1-.301.231c-.116.054-.243.081-.371.08a.87.87 0 0 1-.498-.157l-7.518-4.436-.042-.026-.037-.031a.87.87 0 0 1-.321-.677v-5.401c0-.378.306-.686.684-.686h-.002z"/><use xlink:href="#W"/></g><path d="M32.443 45.336H20.748" stroke="#a58410" class="C"/><path d="M38.087 64.595l1.035-.318c-.137-.447-.547-.756-1.015-.765s-.889.284-1.043.726l1.022.357zm-4.875 13.962l-1.022-.357-.013.039 1.035.318zm-14.645-.019l1.046-.279-.01-.035-1.036.314zm-4.225-13.961l1.036-.314c-.151-.5-.637-.82-1.156-.763s-.923.478-.96.998l1.08.078zm11.386-16.594v-1.083 1.083zm-.65.186l-.605-.898-.003.002.608.896zM14.864 55.1l-.608-.896-.021.014-.02.015.65.866zm-.041.031l-.65-.866-.041.031-.038.034.728.801zm-.038.035l.683.84.023-.019.022-.02-.728-.801zm-.483.803l-1.063-.208-.02.103v.105h1.083zm0 .021l1.049.27.034-.133v-.137h-1.083zm-2.196 8.519l-1.049-.27-.009.035-.007.036 1.064.199zm1.355 1.62v-1.083h-.004-.004l.008 1.083zm.786-.248l.622.886.421-.295.037-.513-1.08-.078zm13.387-17.713l-.605.898.004.003.601-.901zm10.187 6.791l.65-.866-.024-.018-.025-.017-.601.901zm.041.031l.728-.801-.038-.034-.041-.031-.65.866zm.038.034l-.728.801.022.02.023.019.683-.841zm.483.803h1.083v-.105l-.02-.103-1.063.208zm0 .021H37.3v.137l.034.133 1.049-.27zm2.196 8.519l1.064-.199-.007-.036-.009-.035-1.049.27zm-1.355 1.62l.008-1.083h-.004-.004v1.083zm-.786-.248l-1.035.318.109.355.304.213.622-.886zm-4.204 13.174l4.875-13.961-2.045-.714-4.875 13.961 2.045.714zm-1.517 1.091a1.6 1.6 0 0 0 1.529-1.13l-2.07-.636c.073-.237.292-.399.541-.399v2.166zm-13.651 0h13.651v-2.166H19.066v2.166zm-1.546-1.188a1.6 1.6 0 0 0 1.546 1.188v-2.166c.256 0 .481.172.547.42l-2.093.558zm-4.215-13.927l4.225 13.961 2.073-.627-4.225-13.961-2.073.627zm12.422-17.991a2.3 2.3 0 0 0-1.254.371l1.209 1.797c-.013.009-.02.012-.019.011.025-.008.035-.01.045-.011l.019-2.167zm-1.258.373l-10.213 6.932 1.216 1.792 10.213-6.932-1.216-1.792zm-10.255 6.962l-.041.031 1.299 1.733.041-.031-1.299-1.733zm-.12.096l-.038.034 1.457 1.602.038-.034-1.457-1.602zm.008-.005a2.46 2.46 0 0 0-.863 1.436l2.125.416c.013-.067.05-.128.103-.171l-1.365-1.681zm-.883 1.644v.021h2.166v-.021h-2.166zm.034-.25l-2.196 8.519 2.097.541 2.196-8.519-2.097-.541zm-2.212 8.59a2.45 2.45 0 0 0 .038 1.071l2.095-.548c-.011-.041-.012-.083-.004-.125l-2.129-.398zm.038 1.071c.091.35.259.675.491.953l1.662-1.389c-.027-.032-.047-.07-.057-.111l-2.095.548zm.491.953c.232.277.522.5.851.652l.91-1.965c-.038-.018-.072-.044-.099-.076l-1.662 1.389zm.851.652a2.45 2.45 0 0 0 1.047.227l-.015-2.166c-.042 0-.084-.009-.122-.026l-.91 1.965zm1.04.227c.501 0 .994-.154 1.408-.445l-1.244-1.773a.29.29 0 0 1-.164.052v2.166zm13.563-18.147l1.215-1.795a2.17 2.17 0 0 0-1.215-.371v2.166zm.009.004L37.22 55.86l1.201-1.802-10.187-6.791-1.201 1.802zm10.138 6.756l.041.031 1.299-1.733-.041-.031-1.299 1.733zm-.037-.034l.038.035 1.457-1.602-.038-.034-1.457 1.602zm.084.074c.053.043.09.104.103.171l2.125-.416a2.46 2.46 0 0 0-.863-1.436l-1.365 1.681zm.082-.037v.021h2.166v-.021H37.3zm.034.291l2.196 8.519 2.097-.54-2.196-8.519-2.097.541zm2.18 8.448c.008.041.006.084-.004.125l2.095.548a2.45 2.45 0 0 0 .038-1.071l-2.129.398zm-.004.125c-.011.041-.03.079-.057.111l1.661 1.389a2.45 2.45 0 0 0 .491-.952l-2.095-.548zm-.057.111c-.027.032-.061.058-.099.076l.91 1.965a2.45 2.45 0 0 0 .85-.652l-1.661-1.389zm-.099.076c-.038.018-.08.027-.122.026l-.015 2.166a2.45 2.45 0 0 0 1.047-.227l-.91-1.965zm-.13.026a.29.29 0 0 1-.164-.052l-1.244 1.773c.414.291.907.445 1.408.445v-2.166zM27.028 46.898h-.003v2.166h.003v-2.166zm-1.301 2.166h1.301v-2.166h-1.301v2.166zm-10.4 16.894l.094-1.304-2.16-.156-.094 1.304 2.16.156zm24.146-.536l-.351-1.145-2.071.635.351 1.145 2.07-.635z" class="B"/><use xlink:href="#X" fill="url(#D)"/><path d="M25.959 57.444c.16-.092.356-.092.516 0l11.376 6.55c.209.12.307.369.236.6l-4.876 13.962c-.067.217-.267.365-.494.365H19.067c-.234 0-.439-.158-.5-.384l-4.225-13.961c-.06-.226.039-.465.242-.581l11.376-6.55zm-10.516 7.248l4.021 13.194h12.872l4.642-13.202-10.76-6.195-10.774 6.203z" class="D E"/><path d="M27.989 79.069H24.7l-.552-3.881c0-.365.101-.723.291-1.035a1.98 1.98 0 0 1 .788-.73c.659-.338 1.438-.345 2.103-.024l.076.035c.335.162.619.416.817.731s.303.681.304 1.054l-.534 3.851h-.003zM27.61 67.2h-2.537l-.424-2.944a1.51 1.51 0 0 1 .831-1.344 1.85 1.85 0 0 1 .812-.197c.282-.003.561.059.816.18l.055.028c.257.122.475.314.627.554s.234.519.235.804l-.414 2.92z" class="B"/><path d="M13.465 65.616a.86.86 0 0 1-.661-.312c-.081-.097-.139-.211-.171-.334a.86.86 0 0 1-.013-.374l2.192-8.308c.034-.207.145-.386.3-.514l.017-.017 10.345-6.895.183-.01c.31 0 .565.252.565.562v8.319c0 .258-.114.503-.317.665l-.028.024-11.91 7.032a.83.83 0 0 1-.503.165v-.003z" fill="url(#E)"/><path d="M25.662 49.159c.024 0 .045.017.045.048v8.519c0 .051-.011.101-.033.147s-.053.087-.092.119l-11.903 7.029c-.06.05-.136.076-.214.076-.05 0-.1-.011-.146-.033s-.086-.053-.118-.092-.055-.084-.068-.133-.015-.1-.006-.149l2.192-8.526c.015-.079.058-.15.121-.2l10.194-6.798c.008-.005.018-.007.028-.007zm0-1.034a1.09 1.09 0 0 0-.61.186l-10.187 6.791-.041.031-.038.035c-.25.203-.421.487-.483.803v.021l-2.196 8.519a1.37 1.37 0 0 0 .021.598c.051.195.145.377.274.532s.292.279.475.364a1.37 1.37 0 0 0 1.371-.121l11.859-6.998.066-.041.059-.048a1.37 1.37 0 0 0 .507-1.069v-8.519a1.08 1.08 0 0 0-1.079-1.083h.003z" class="E"/><path d="M39.215 65.616a.86.86 0 0 0 .661-.312c.081-.097.139-.211.17-.334a.86.86 0 0 0 .013-.374l-2.192-8.308c-.035-.207-.145-.386-.3-.514l-.017-.017-10.345-6.895-.183-.01c-.31 0-.565.252-.565.562v8.319c0 .259.114.503.317.665l.028.024 11.91 7.032a.83.83 0 0 0 .503.165v-.003z" fill="url(#F)"/><g class="E"><path d="M27.017 49.159c-.024 0-.045.017-.045.048v8.519c0 .051.011.101.032.147s.053.087.092.119L39 65.021c.06.05.136.076.214.076.05 0 .1-.011.146-.033s.086-.053.118-.092.056-.084.068-.133.015-.1.006-.149l-2.192-8.526c-.015-.079-.058-.15-.121-.2l-10.194-6.798c-.008-.005-.018-.007-.028-.007zm0-1.034c.221 0 .431.066.61.186l10.187 6.791.041.031.038.035c.25.203.421.487.483.803v.021l2.196 8.519a1.37 1.37 0 0 1-.021.598c-.051.195-.145.377-.274.532a1.37 1.37 0 0 1-1.059.491 1.37 1.37 0 0 1-.786-.248l-11.858-6.998-.066-.041-.059-.048a1.37 1.37 0 0 1-.507-1.069v-8.519a1.08 1.08 0 0 1 1.079-1.083h-.003z"/><path d="M25.336 48.184s.408-.204 1.02-.204 1.02.204 1.02.204l-.111.486H25.54l-.204-.486z"/></g><path d="M76.001 41.615l1.035-.318c-.137-.447-.546-.756-1.015-.765s-.889.284-1.043.726l1.022.357zm-3.091 8.851l-1.022-.357-.013.039 1.035.318zm-9.285-.012l1.046-.279-.01-.035-1.036.314zm-2.679-8.851l1.036-.314c-.151-.5-.637-.82-1.156-.763s-.923.478-.96.998l1.08.078zm7.219-10.521V30v1.083zm-.412.118l-.605-.898-.004.002.608.896zm-6.475 4.395l-.608-.896-.021.014-.02.015.65.866zm-.026.02l-.65-.866-.041.031-.038.034.728.801zm-.024.022l.683.84.023-.019.022-.02-.728-.801zm-.306.509l-1.063-.208-.02.103v.105h1.083zm0 .013l1.049.27.034-.133v-.137h-1.083zm-1.392 5.401l-1.049-.27-.009.035-.007.036 1.064.199zm.859 1.027v-1.083h-.004-.004l.008 1.083zm.498-.157l.622.886.421-.295.037-.513-1.08-.078zm8.487-11.23l-.605.898.004.003.601-.901zm6.458 4.305l.65-.866-.024-.018-.025-.017-.601.901zm.026.02l.728-.801-.038-.034-.041-.031-.65.866zm.024.022l-.729.801.022.02.023.019.683-.84zm.306.509h1.083v-.105l-.02-.103-1.063.208zm0 .013h-1.083v.137l.034.133 1.049-.27zm1.392 5.401l1.064-.199-.007-.036-.009-.035-1.049.27zm-.859 1.027l.008-1.083h-.004-.004v1.083zm-.498-.157l-1.035.318.109.355.304.214.622-.887zm-2.291 8.483l3.091-8.851-2.045-.714-3.091 8.851 2.045.714zm-1.336.957a1.41 1.41 0 0 0 1.348-.996l-2.07-.636c.097-.317.39-.533.722-.533v2.166zm-8.655 0h8.655v-2.166h-8.655v2.166zm-1.363-1.047a1.41 1.41 0 0 0 1.363 1.047v-2.166c.342 0 .641.23.73.561l-2.093.558zm-2.669-8.816l2.679 8.851 2.073-.627-2.679-8.851-2.073.627zM68.165 30c-.319 0-.696.087-1.017.303l1.209 1.797c-.056.038-.099.052-.117.057a.27.27 0 0 1-.076.01V30zm-1.02.305L60.67 34.7l1.216 1.792 6.475-4.395-1.216-1.792zm-6.517 4.425l-.026.02 1.299 1.733.026-.02-1.299-1.733zm-.105.085l-.024.022 1.457 1.602.024-.022-1.457-1.602zm.022-.017c-.355.288-.598.692-.686 1.142l2.125.416a.21.21 0 0 1-.074.123l-1.366-1.681zm-.706 1.35v.013h2.166v-.013h-2.166zm.034-.257l-1.392 5.401 2.097.541 1.392-5.401-2.097-.541zm-1.408 5.472a1.95 1.95 0 0 0 .03.852l2.095-.548c.008.031.009.063.003.094l-2.129-.398zm.03.852a1.95 1.95 0 0 0 .391.758l1.661-1.389c.02.024.035.053.043.084l-2.095.548zm.391.758a1.95 1.95 0 0 0 .677.519l.91-1.965c.029.013.054.033.075.057l-1.661 1.389zm.677.519a1.95 1.95 0 0 0 .833.181l-.015-2.166c.032 0 .063.007.092.02l-.91 1.965zm.826.181c.398 0 .791-.123 1.12-.354l-1.244-1.773c.037-.026.079-.039.124-.039v2.166zm8.599-11.505c-.078 0-.154-.024-.218-.066l1.209-1.797c-.291-.196-.634-.303-.992-.303v2.166zm-.214-.064l6.458 4.306 1.201-1.802-6.458-4.306-1.201 1.802zm6.409 4.271l.026.02 1.299-1.733-.026-.02-1.299 1.733zm-.052-.045l.024.022 1.457-1.602-.024-.022-1.457 1.602zm.07.061a.21.21 0 0 1-.074-.123l2.125-.416c-.088-.449-.331-.853-.686-1.142L75.2 36.388zm-.094-.331v.013h2.166v-.013h-2.166zm.034.283l1.392 5.401 2.097-.541-1.392-5.401-2.097.541zm1.376 5.33c-.006-.031-.005-.063.003-.094l2.095.548a1.95 1.95 0 0 0 .03-.852l-2.129.398zm.003-.094c.008-.031.023-.059.043-.084l1.661 1.389a1.95 1.95 0 0 0 .391-.758l-2.095-.548zm.043-.084c.02-.024.046-.044.075-.057l.91 1.965a1.95 1.95 0 0 0 .677-.519l-1.661-1.389zm.075-.057c.029-.013.06-.02.092-.02l-.015 2.166a1.95 1.95 0 0 0 .833-.181l-.91-1.965zm.084-.02c.044 0 .087.013.124.039l-1.244 1.773a1.95 1.95 0 0 0 1.12.354v-2.166zM68.989 30h-.002v2.166h.002V30zm-.825 2.166h.825V30h-.825v2.166zm-6.198 10.343l.06-.827-2.16-.156-.06.827 2.16.156zm15.292-.485l-.222-.726-2.07.635.223.726 2.07-.635z" class="B"/><path d="M63.941 50.375h8.655l3.091-8.851-7.212-4.153-7.212 4.153 2.679 8.851z" fill="url(#G)"/><g stroke="#000" class="C"><path d="M74.672 45.336l2.166 12.128M62.111 45.336l-2.166 12.128"/></g><path d="M62.111 45.336h12.561l2.166 12.128H59.945l2.166-12.128z" fill="#4bb870"/><path d="M68.309 37.083c.101-.058.226-.058.327 0l7.212 4.153c.133.076.195.234.15.38l-1.326 3.725 1.083 6.064c-.042.138-.169.232-.313.232l-14.197.202c-.149 0-.279-.1-.317-.243l1.183-6.254-1.167-3.737c-.038-.143.025-.294.153-.368l7.212-4.153zm-6.667 4.595l1.119 3.663-1.083 5.631 13.211-.217-.866-5.414 1.272-3.668-6.822-3.928-6.831 3.933z" class="D F"/><path d="M69.597 50.79h-2.085l-.35-2.461c0-.232.064-.458.184-.656s.294-.358.5-.463c.417-.214.911-.219 1.333-.015l.048.022a1.26 1.26 0 0 1 .71 1.132l-.339 2.441h-.002zm-.24-7.525h-1.609l-.269-1.866c0-.358.203-.688.527-.852.16-.08.336-.123.514-.125s.356.037.517.114l.035.018c.163.077.301.199.398.351s.148.329.149.51l-.262 1.851z" class="B"/><use xlink:href="#Y" fill="url(#H)"/><path d="M68.12 31.824c.015 0 .028.011.028.031v5.401c0 .032-.007.064-.021.093s-.033.055-.058.075l-7.547 4.456c-.038.031-.086.048-.136.048-.032 0-.063-.007-.092-.021a.22.22 0 0 1-.075-.058c-.02-.025-.035-.053-.043-.084a.22.22 0 0 1-.004-.095l1.39-5.405c.01-.05.037-.095.076-.127l6.463-4.31zm0-.656a.69.69 0 0 0-.387.118l-6.458 4.306-.026.02-.024.022a.87.87 0 0 0-.306.509v.013l-1.392 5.401a.87.87 0 0 0 .187.716c.082.098.185.177.301.231s.243.081.371.08a.87.87 0 0 0 .498-.157l7.518-4.436.041-.026.037-.031a.87.87 0 0 0 .321-.677v-5.401c0-.378-.306-.686-.684-.686h.002z" class="F"/><path d="M76.714 42.257c.08 0 .159-.018.232-.052s.136-.084.188-.146.088-.134.108-.212.023-.159.008-.237l-1.39-5.267c-.022-.131-.092-.245-.19-.326l-.011-.011-6.559-4.371-.116-.006c-.197 0-.358.159-.358.356v5.274c0 .164.072.319.201.422l.017.015 7.551 4.459c.094.07.203.105.319.105v-.002z" fill="url(#I)"/><g class="F"><path d="M68.983 31.824c-.015 0-.028.011-.028.031v5.401c0 .032.007.064.02.093a.22.22 0 0 0 .058.075l7.547 4.456c.038.031.086.048.136.048a.22.22 0 0 0 .167-.079c.02-.025.035-.053.043-.084s.009-.063.003-.095l-1.39-5.405c-.01-.05-.037-.095-.076-.127L69 31.828zm0-.656a.69.69 0 0 1 .387.118l6.458 4.306.026.02.024.022a.87.87 0 0 1 .306.509v.013l1.392 5.401a.87.87 0 0 1-.187.716.87.87 0 0 1-.301.231c-.116.054-.243.081-.371.08a.87.87 0 0 1-.498-.157l-7.518-4.436-.042-.026-.037-.031c-.101-.082-.182-.185-.238-.302a.87.87 0 0 1-.084-.375v-5.401c0-.378.306-.686.684-.686h-.002z"/><path d="M67.914 31.211s.258-.129.646-.129.646.129.646.129l-.071.308h-1.093l-.129-.308z"/></g><path d="M74.238 45.336H62.543" stroke="#157435" class="C"/><path d="M79.817 64.595l1.035-.318c-.137-.447-.546-.756-1.014-.765s-.889.284-1.043.726l1.022.357zm-4.876 13.962l-1.022-.357-.013.039 1.035.318zm-14.645-.019l1.046-.279-.01-.035-1.036.314zm-4.225-13.961l1.036-.314c-.151-.5-.637-.82-1.156-.763s-.923.478-.96.998l1.08.078zm11.386-16.594v-1.083 1.083zm-.65.186l-.605-.898-.004.002.608.896zM56.595 55.1l-.608-.896-.021.014-.02.015.65.866zm-.041.031l-.65-.866-.041.031-.038.034.728.801zm-.038.035l.683.84.023-.019.022-.02-.728-.801zm-.483.803l-1.063-.208-.02.103v.105h1.083zm0 .021l1.049.27.034-.133v-.137h-1.083zm-2.196 8.519l-1.049-.27-.009.035-.007.036 1.064.199zm1.355 1.62v-1.083h-.004-.004l.008 1.083zm.786-.248l.622.886.421-.295.037-.513-1.08-.078zm13.387-17.713l-.605.898.004.003.601-.901zm10.187 6.791l.65-.866-.024-.018-.025-.017-.601.901zm.041.031l.729-.801-.038-.034-.041-.031-.65.866zm.038.034l-.728.801.022.02.023.019.683-.841zm.483.803h1.083v-.105l-.02-.103-1.063.208zm0 .021H79.03v.137l.034.133 1.049-.27zm2.196 8.519l1.064-.199-.007-.036-.009-.035-1.049.27zm-1.355 1.62l.008-1.083h-.004-.004v1.083zm-.786-.248l-1.035.318.109.355.304.213.622-.886zm-4.204 13.174l4.875-13.961-2.045-.714-4.875 13.961 2.045.714zm-1.517 1.091a1.6 1.6 0 0 0 1.529-1.13l-2.07-.636c.073-.237.292-.399.541-.399v2.166zm-13.651 0h13.651v-2.166H60.797v2.166zm-1.546-1.188a1.6 1.6 0 0 0 1.546 1.188v-2.166c.256 0 .481.172.547.42l-2.093.558zm-4.215-13.927l4.225 13.961 2.073-.627-4.225-13.961-2.073.627zm12.422-17.991a2.3 2.3 0 0 0-1.254.371l1.209 1.797c-.014.009-.021.012-.019.011.025-.008.035-.01.045-.011l.019-2.167zm-1.258.373l-10.213 6.932 1.216 1.792 10.213-6.932-1.216-1.792zm-10.255 6.962l-.041.031 1.299 1.733.041-.031-1.299-1.733zm-.12.096l-.038.034 1.457 1.602.038-.034-1.457-1.602zm.008-.005a2.46 2.46 0 0 0-.863 1.436l2.125.416c.013-.067.05-.128.103-.171l-1.365-1.681zm-.883 1.644v.021h2.166v-.021H54.95zm.034-.25l-2.196 8.519 2.097.541 2.196-8.519-2.097-.541zm-2.212 8.59a2.45 2.45 0 0 0 .038 1.071l2.095-.548c-.011-.041-.012-.083-.004-.125l-2.129-.398zm.038 1.071a2.45 2.45 0 0 0 .491.953l1.661-1.389c-.027-.032-.047-.07-.057-.111l-2.095.548zm.491.953a2.45 2.45 0 0 0 .85.652l.91-1.965c-.038-.018-.072-.044-.099-.076l-1.661 1.389zm.85.652c.328.152.686.229 1.047.227l-.015-2.166c-.042 0-.084-.009-.122-.026l-.91 1.965zm1.04.227c.501 0 .994-.154 1.408-.445l-1.244-1.773a.29.29 0 0 1-.164.052v2.166zm13.563-18.147l1.215-1.795a2.17 2.17 0 0 0-1.215-.371v2.166zm.01.004l10.187 6.791 1.201-1.802-10.187-6.791-1.201 1.802zm10.138 6.756l.041.031 1.299-1.733-.041-.031-1.299 1.733zm-.037-.034l.038.035 1.457-1.602-.038-.034-1.457 1.602zm.084.074c.053.043.089.104.103.171l2.125-.416a2.46 2.46 0 0 0-.863-1.436l-1.365 1.681zm.082-.037v.021h2.166v-.021H79.03zm.034.291l2.196 8.519 2.097-.54-2.196-8.519-2.097.541zm2.18 8.448c.008.041.006.084-.004.125l2.095.548a2.45 2.45 0 0 0 .038-1.071l-2.129.398zm-.004.125c-.011.041-.03.079-.057.111l1.661 1.389c.232-.277.4-.603.491-.952l-2.095-.548zm-.057.111c-.027.032-.061.058-.099.076l.91 1.965a2.45 2.45 0 0 0 .85-.652l-1.661-1.389zm-.099.076c-.038.018-.08.027-.122.026l-.015 2.166a2.45 2.45 0 0 0 1.047-.227l-.91-1.965zm-.13.026a.29.29 0 0 1-.164-.052l-1.244 1.773c.414.291.907.445 1.408.445v-2.166zM68.758 46.898h-.004v2.166h.004v-2.166zm-1.301 2.166h1.301v-2.166h-1.301v2.166zm-10.4 16.894l.094-1.304-2.16-.156-.094 1.304 2.16.156zm24.146-.536l-.351-1.145-2.07.635.351 1.145 2.07-.635z" class="B"/><path d="M60.798 78.406h13.651l4.875-13.962-11.376-6.55-11.376 6.55 4.225 13.962z" fill="url(#J)"/><path d="M67.686 57.44c.16-.092.356-.092.516 0l11.376 6.55c.209.12.307.369.236.6l-4.875 13.962c-.067.217-.267.365-.494.365H60.793c-.234 0-.439-.158-.5-.384l-4.225-13.961c-.06-.226.039-.465.242-.581l11.376-6.55zM57.17 64.688l4.021 13.194h12.872l4.642-13.202-10.761-6.195-10.774 6.203z" class="D F"/><path d="M69.717 79.069h-3.289l-.552-3.881c0-.365.101-.723.291-1.035a1.98 1.98 0 0 1 .788-.73c.658-.338 1.437-.345 2.103-.024l.076.035c.336.162.619.416.817.731s.303.681.304 1.054l-.534 3.851h-.003zM69.338 67.2h-2.537l-.424-2.944a1.51 1.51 0 0 1 .831-1.344 1.85 1.85 0 0 1 .812-.197c.282-.003.561.059.816.18l.055.028c.257.122.475.314.627.554s.234.519.234.804l-.414 2.92z" class="B"/><path d="M55.191 65.612a.86.86 0 0 1-.661-.312c-.081-.097-.139-.211-.17-.334a.86.86 0 0 1-.013-.374l2.193-8.308c.035-.207.145-.386.3-.514l.017-.017 10.345-6.895.183-.01c.31 0 .565.252.565.562v8.319c0 .258-.114.503-.317.665l-.028.024-11.91 7.032a.83.83 0 0 1-.503.165v-.003z" fill="url(#K)"/><path d="M67.391 49.159c.024 0 .045.017.045.048v8.519c0 .051-.011.101-.032.147s-.053.087-.092.119l-11.903 7.029c-.06.05-.136.076-.214.076-.05 0-.1-.011-.146-.033s-.086-.053-.118-.092-.056-.084-.068-.133-.015-.1-.006-.149l2.192-8.526a.34.34 0 0 1 .121-.2l10.194-6.798c.008-.005.018-.007.028-.007zm0-1.034a1.09 1.09 0 0 0-.61.186l-10.187 6.791-.041.031-.038.035c-.25.203-.421.487-.483.803v.021l-2.196 8.519a1.37 1.37 0 0 0 .295 1.13 1.37 1.37 0 0 0 1.059.491 1.37 1.37 0 0 0 .786-.248l11.859-6.998.066-.041.059-.048a1.37 1.37 0 0 0 .507-1.069v-8.519a1.08 1.08 0 0 0-1.079-1.083h.004z" class="F"/><path d="M80.948 65.612a.86.86 0 0 0 .365-.082c.114-.054.215-.132.296-.23s.139-.211.17-.334a.86.86 0 0 0 .013-.374L79.6 56.283c-.035-.207-.145-.386-.3-.514l-.017-.017-10.345-6.895-.183-.01c-.31 0-.565.252-.565.562v8.319c0 .259.114.503.317.665l.027.024 11.91 7.033a.83.83 0 0 0 .503.165v-.003z" fill="url(#L)"/><g class="F"><path d="M68.751 49.159c-.024 0-.045.017-.045.048v8.519c0 .051.011.101.032.147s.053.087.092.119l11.903 7.029c.06.05.136.076.214.076.05 0 .1-.011.146-.033s.086-.053.118-.092.056-.084.068-.133.015-.1.006-.149l-2.192-8.526c-.015-.079-.058-.15-.121-.2l-10.194-6.798c-.008-.005-.018-.007-.028-.007zm0-1.034c.221 0 .431.066.61.186l10.187 6.791.041.031.038.035c.25.203.421.487.483.803v.021l2.196 8.519a1.37 1.37 0 0 1-.295 1.13 1.37 1.37 0 0 1-1.059.491 1.37 1.37 0 0 1-.786-.248l-11.858-6.998-.066-.041-.059-.048a1.37 1.37 0 0 1-.507-1.069v-8.519a1.08 1.08 0 0 1 1.079-1.083h-.004z"/><path d="M67.065 48.184s.408-.204 1.02-.204 1.019.204 1.019.204l-.111.486h-1.724l-.204-.486z"/></g><path d="M55.065 41.615l1.035-.318c-.137-.447-.547-.756-1.014-.765s-.889.284-1.043.726l1.022.357zm-3.091 8.851l-1.022-.357-.013.039 1.035.318zm-9.285-.012l1.046-.279-.01-.035-1.036.314zm-2.679-8.851l1.036-.314c-.151-.5-.637-.82-1.156-.763s-.923.478-.96.998l1.08.078zm7.219-10.521V30v1.083zm-.412.118l-.605-.898-.004.002.608.896zm-6.475 4.395l-.608-.896-.021.014-.02.015.65.866zm-.026.02l-.65-.866-.041.031-.038.034.728.801zm-.024.022l.683.84.023-.019.022-.02-.728-.801zm-.306.509l-1.063-.208-.02.103v.105h1.083zm0 .013l1.049.27.034-.133v-.137h-1.083zm-1.392 5.401l-1.049-.27-.009.035-.007.036 1.064.199zm.859 1.027v-1.083h-.004-.004l.008 1.083zm.498-.157l.622.886.421-.295.037-.513-1.08-.078zm8.487-11.23l-.605.898.004.003.601-.901zm6.458 4.305l.65-.866-.024-.018-.025-.017-.601.901zm.026.02l.728-.801-.038-.034-.041-.031-.65.866zm.024.022l-.728.801.022.02.023.019.683-.84zm.306.509h1.083v-.105l-.02-.103-1.063.208zm0 .013H54.17v.137l.034.133 1.049-.27zm1.392 5.401l1.064-.199-.007-.036-.009-.035-1.049.27zm-.859 1.027l.008-1.083h-.004-.004v1.083zm-.498-.157l-1.035.318.109.355.304.214.622-.887zm-2.291 8.483l3.091-8.851-2.045-.714-3.091 8.851 2.045.714zm-1.336.957a1.41 1.41 0 0 0 1.349-.996l-2.07-.636c.097-.317.39-.533.722-.533v2.166zm-8.655 0h8.655v-2.166h-8.655v2.166zm-1.363-1.047a1.41 1.41 0 0 0 1.363 1.047v-2.166c.342 0 .642.23.73.561l-2.093.558zm-2.669-8.816l2.679 8.851 2.073-.627-2.679-8.851-2.073.627zM47.229 30c-.319 0-.696.087-1.017.303l1.209 1.797c-.056.038-.099.052-.117.057s-.043.01-.076.01V30zm-1.02.305L39.734 34.7l1.216 1.792 6.475-4.395-1.216-1.792zm-6.517 4.425l-.026.02 1.299 1.733.026-.02-1.299-1.733zm-.105.085l-.024.022 1.457 1.602.024-.022-1.457-1.602zm.022-.017c-.355.288-.598.692-.686 1.142l2.125.416a.21.21 0 0 1-.074.123l-1.365-1.681zm-.706 1.35v.013h2.166v-.013h-2.166zm.034-.257l-1.392 5.401 2.097.541 1.392-5.401-2.097-.541zm-1.408 5.472a1.95 1.95 0 0 0 .03.852l2.095-.548c.008.031.009.063.003.094l-2.129-.398zm.03.852a1.95 1.95 0 0 0 .391.758l1.661-1.389c.02.024.035.053.043.084l-2.095.548zm.391.758a1.95 1.95 0 0 0 .677.519l.91-1.965c.029.013.054.033.075.057l-1.661 1.389zm.677.519a1.95 1.95 0 0 0 .833.181l-.015-2.166c.032 0 .063.007.092.02l-.91 1.965zm.826.181c.398 0 .791-.123 1.12-.354l-1.244-1.773c.037-.026.079-.039.124-.039v2.166zm8.599-11.505c-.078 0-.154-.024-.218-.066l1.209-1.797c-.291-.196-.634-.303-.992-.303v2.166zm-.214-.064l6.458 4.306 1.201-1.802-6.458-4.306-1.201 1.802zm6.409 4.271l.026.02 1.299-1.733-.026-.02-1.299 1.733zm-.052-.045l.024.022 1.457-1.602-.024-.022-1.457 1.602zm.07.061a.21.21 0 0 1-.074-.123l2.125-.416c-.088-.449-.331-.853-.686-1.142l-1.365 1.681zm-.094-.331v.013h2.166v-.013H54.17zm.034.283l1.392 5.401 2.097-.541-1.392-5.401-2.097.541zm1.376 5.33c-.006-.031-.005-.063.003-.094l2.095.548a1.95 1.95 0 0 0 .03-.852l-2.129.398zm.003-.094c.008-.031.023-.059.043-.084l1.661 1.389a1.95 1.95 0 0 0 .391-.758l-2.095-.548zm.043-.084c.02-.024.046-.044.075-.057l.91 1.965a1.95 1.95 0 0 0 .677-.519l-1.661-1.389zm.075-.057c.029-.013.06-.02.092-.02l-.015 2.166a1.95 1.95 0 0 0 .833-.181l-.91-1.965zm.084-.02c.044 0 .087.013.123.039l-1.244 1.773a1.95 1.95 0 0 0 1.12.354v-2.166zM48.054 30h-.002v2.166h.002V30zm-.825 2.166h.825V30h-.825v2.166zm-6.198 10.343l.06-.827-2.16-.156-.06.827 2.16.156zm15.292-.485l-.223-.726-2.071.635.223.726 2.071-.635z" class="B"/><path d="M43.009 50.375h8.655l3.091-8.851-7.212-4.153-7.212 4.153 2.679 8.851z" fill="url(#M)"/><g stroke="#000" class="C"><path d="M53.74 45.336l2.166 12.128M41.181 45.336l-2.166 12.128"/></g><path d="M41.181 45.336h12.561l2.166 12.128H39.016l2.166-12.128z" fill="#4c7ede"/><path d="M47.381 37.083c.101-.058.226-.058.327 0l7.212 4.153c.133.076.195.234.15.38l-1.326 3.725 1.083 6.064c-.042.138-.169.232-.313.232l-14.197.202c-.149 0-.279-.1-.317-.243l1.183-6.254-1.167-3.737c-.038-.143.025-.294.153-.368l7.212-4.153zm-6.667 4.595l1.119 3.663-1.083 5.631 13.211-.217-.866-5.414 1.272-3.668-6.822-3.928-6.831 3.933z" class="D G"/><path d="M48.667 50.79h-2.085l-.35-2.461c0-.232.064-.458.184-.656s.294-.358.5-.463c.417-.214.911-.219 1.333-.015l.048.022a1.26 1.26 0 0 1 .71 1.132l-.339 2.441h-.002zm-.24-7.525h-1.608l-.269-1.866c0-.358.203-.688.527-.852.16-.08.336-.123.514-.125s.356.037.517.114l.035.018c.163.077.301.199.398.351s.148.329.149.51l-.262 1.851z" class="B"/><path d="M39.455 42.257c-.08 0-.159-.018-.232-.052s-.136-.084-.188-.146-.088-.134-.108-.212-.023-.159-.008-.237l1.39-5.267c.022-.131.092-.245.19-.326l.011-.011 6.559-4.371.116-.006c.197 0 .358.159.358.356v5.274c0 .164-.072.319-.201.422l-.017.015-7.551 4.459c-.094.07-.203.105-.319.105v-.002z" fill="url(#N)"/><path d="M47.19 31.824c.015 0 .028.011.028.031v5.401c0 .032-.007.064-.02.093s-.033.055-.058.075l-7.547 4.456c-.038.031-.086.048-.136.048a.22.22 0 0 1-.167-.079c-.02-.025-.035-.053-.043-.084a.22.22 0 0 1-.004-.095l1.39-5.405c.01-.05.037-.095.077-.127l6.463-4.31zm0-.656a.69.69 0 0 0-.387.118l-6.458 4.306-.026.02-.024.022a.87.87 0 0 0-.306.509v.013l-1.392 5.401a.87.87 0 0 0 .187.716.87.87 0 0 0 .301.231c.116.054.243.081.371.08a.87.87 0 0 0 .498-.157l7.518-4.436.041-.026.037-.031a.87.87 0 0 0 .321-.677v-5.401c0-.378-.306-.686-.684-.686h.002z" class="G"/><path d="M55.784 42.257c.08 0 .159-.018.232-.052s.136-.084.188-.146.088-.134.108-.212.023-.159.008-.237l-1.39-5.267c-.022-.131-.092-.245-.19-.326l-.011-.011-6.559-4.371-.116-.006c-.197 0-.358.159-.358.356v5.274c0 .164.072.319.201.422l.017.015 7.551 4.459c.094.07.203.105.319.105v-.002z" fill="url(#O)"/><g class="G"><path d="M48.053 31.824c-.015 0-.028.011-.028.031v5.401c0 .032.007.064.021.093s.033.055.058.075l7.547 4.456c.038.031.086.048.136.048a.22.22 0 0 0 .167-.079c.02-.025.035-.053.043-.084s.009-.063.003-.095l-1.39-5.405c-.01-.05-.037-.095-.077-.127l-6.463-4.31zm0-.656a.69.69 0 0 1 .387.118l6.458 4.306.026.02.024.022a.87.87 0 0 1 .306.509v.013l1.392 5.401a.87.87 0 0 1-.187.716.87.87 0 0 1-.301.231c-.116.054-.243.081-.371.08a.87.87 0 0 1-.498-.157l-7.518-4.436-.042-.026-.037-.031a.87.87 0 0 1-.321-.677v-5.401c0-.378.306-.686.684-.686h-.002z"/><path d="M46.984 31.211s.258-.129.646-.129.646.129.646.129l-.071.308h-1.093l-.129-.308z"/></g><path d="M53.31 45.336H41.615" stroke="#304e89" class="C"/><path d="M58.954 64.595l1.035-.318c-.137-.447-.547-.756-1.014-.765s-.889.284-1.043.726l1.022.357zm-4.875 13.962l-1.022-.357-.013.039 1.035.318zm-14.645-.019l1.046-.279-.01-.035-1.036.314zm-4.225-13.961l1.036-.314c-.151-.5-.637-.82-1.156-.763s-.923.478-.96.998l1.08.078zm11.386-16.594v-1.083 1.083zm-.65.186l-.605-.898-.003.002.608.896zM35.731 55.1l-.608-.896-.021.014-.02.015.65.866zm-.041.031l-.65-.866-.041.031-.038.034.728.801zm-.038.035l.683.84.023-.019.022-.02-.728-.801zm-.483.803l-1.063-.208-.02.103v.105h1.083zm0 .021l1.049.27.034-.133v-.137h-1.083zm-2.196 8.519l-1.049-.27-.009.035-.007.036 1.064.199zm1.355 1.62v-1.083h-.004-.004l.008 1.083zm.786-.248l.622.886.421-.295.037-.513-1.08-.078zm13.387-17.713l-.605.898.004.003.601-.901zm10.187 6.791l.65-.866-.024-.018-.025-.017-.601.901zm.041.031l.728-.801-.038-.034-.041-.031-.65.866zm.038.034l-.728.801.022.02.023.019.683-.841zm.483.803h1.083v-.105l-.02-.103-1.063.208zm0 .021h-1.083v.137l.034.133 1.049-.27zm2.196 8.519l1.064-.199-.007-.036-.009-.035-1.049.27zm-1.355 1.62l.008-1.083h-.004-.004v1.083zm-.786-.248l-1.035.318.109.355.304.213.622-.886zm-4.204 13.174l4.875-13.961-2.045-.714-4.875 13.961 2.045.714zm-1.517 1.091a1.6 1.6 0 0 0 1.529-1.13l-2.07-.636c.073-.237.292-.399.541-.399v2.166zm-13.651 0h13.651v-2.166H39.933v2.166zm-1.546-1.188a1.6 1.6 0 0 0 1.546 1.188v-2.166c.256 0 .481.172.547.42l-2.093.558zm-4.215-13.927l4.225 13.961 2.073-.627-4.225-13.961-2.073.627zm12.422-17.991a2.3 2.3 0 0 0-1.254.371l1.209 1.797c-.013.009-.02.012-.019.011.025-.008.035-.01.045-.011l.019-2.167zm-1.258.373l-10.213 6.932 1.216 1.792 10.213-6.932-1.216-1.792zm-10.255 6.962l-.041.031 1.299 1.733.041-.031-1.299-1.733zm-.12.096l-.038.034 1.457 1.602.038-.034-1.457-1.602zm.008-.005a2.46 2.46 0 0 0-.863 1.436l2.125.416c.013-.067.05-.128.103-.171l-1.365-1.681zm-.883 1.644v.021h2.166v-.021h-2.166zm.034-.25l-2.196 8.519 2.097.541 2.196-8.519-2.097-.541zm-2.212 8.59a2.45 2.45 0 0 0 .038 1.071l2.095-.548c-.011-.041-.012-.083-.004-.125l-2.129-.398zm.038 1.071c.092.35.259.675.491.953l1.661-1.389c-.027-.032-.047-.07-.057-.111l-2.095.548zm.491.953c.232.277.522.5.85.652l.91-1.965c-.038-.018-.072-.044-.099-.076l-1.661 1.389zm.85.652c.328.152.686.229 1.047.227l-.015-2.166c-.042 0-.084-.009-.122-.026l-.91 1.965zm1.04.227c.501 0 .994-.154 1.408-.445l-1.244-1.773a.29.29 0 0 1-.164.052v2.166zm13.563-18.147l1.215-1.795a2.17 2.17 0 0 0-1.215-.371v2.166zm.009.004l10.187 6.791 1.201-1.802-10.187-6.791-1.201 1.802zm10.138 6.756l.041.031 1.299-1.733-.041-.031-1.299 1.733zm-.037-.034l.038.035 1.457-1.602-.038-.034-1.457 1.602zm.084.074c.053.043.09.104.103.171l2.125-.416a2.46 2.46 0 0 0-.863-1.436l-1.365 1.681zm.082-.037v.021h2.166v-.021h-2.166zm.034.291l2.196 8.519 2.097-.54-2.196-8.519-2.097.541zm2.18 8.448c.008.041.006.084-.004.125l2.095.548a2.45 2.45 0 0 0 .038-1.071l-2.129.398zm-.004.125c-.011.041-.03.079-.057.111l1.661 1.389c.232-.277.4-.603.491-.952l-2.095-.548zm-.057.111c-.027.032-.061.058-.099.076l.91 1.965a2.45 2.45 0 0 0 .85-.652l-1.661-1.389zm-.099.076c-.038.018-.08.027-.122.026l-.015 2.166a2.45 2.45 0 0 0 1.047-.227l-.91-1.965zm-.13.026a.29.29 0 0 1-.164-.052l-1.244 1.773c.414.291.907.445 1.408.445v-2.166zM47.895 46.898h-.003v2.166h.003v-2.166zm-1.301 2.166h1.301v-2.166h-1.301v2.166zm-10.4 16.894l.094-1.304-2.16-.156-.094 1.304 2.16.156zm24.146-.536l-.351-1.145-2.071.635.351 1.145 2.071-.635z" class="B"/><path d="M39.932 78.398h13.651l4.875-13.962-11.376-6.55-11.376 6.55 4.225 13.962z" fill="url(#P)"/><path d="M46.827 57.444c.16-.092.356-.092.516 0l11.376 6.55c.209.12.307.369.236.6l-4.875 13.962c-.067.217-.267.365-.494.365H39.934c-.234 0-.439-.158-.5-.384l-4.225-13.961c-.06-.226.039-.465.242-.581l11.376-6.55zM36.31 64.692l4.021 13.194h12.872l4.642-13.202-10.76-6.195-10.774 6.203z" class="D G"/><path d="M48.856 79.069h-3.289l-.552-3.881c0-.365.101-.723.291-1.035a1.98 1.98 0 0 1 .788-.73c.659-.338 1.438-.345 2.103-.024l.076.035c.336.162.619.416.817.731s.303.681.304 1.054l-.534 3.851h-.003zM48.477 67.2H45.94l-.424-2.944a1.51 1.51 0 0 1 .831-1.344 1.85 1.85 0 0 1 .812-.197c.282-.003.561.059.816.18l.055.028c.257.122.475.314.627.554s.234.519.234.804l-.414 2.92z" class="B"/><path d="M34.332 65.616a.86.86 0 0 1-.661-.312c-.081-.097-.139-.211-.17-.334a.86.86 0 0 1-.013-.374l2.192-8.308c.035-.207.145-.386.3-.514l.017-.017 10.345-6.895.183-.01c.31 0 .565.252.565.562v8.319c0 .258-.114.503-.317.665l-.028.024-11.91 7.032a.83.83 0 0 1-.503.165v-.003z" fill="url(#Q)"/><path d="M46.529 49.159c.024 0 .045.017.045.048v8.519c0 .051-.011.101-.032.147s-.053.087-.092.119l-11.903 7.029c-.06.05-.136.076-.214.076-.05 0-.1-.011-.146-.033s-.086-.053-.118-.092-.056-.084-.068-.133-.015-.1-.006-.149l2.192-8.526c.015-.079.058-.15.121-.2l10.194-6.798c.008-.005.018-.007.027-.007zm0-1.034c-.221 0-.431.066-.61.186l-10.187 6.791-.041.031-.038.035c-.25.203-.421.487-.483.803v.021l-2.196 8.519a1.37 1.37 0 0 0 .295 1.13 1.37 1.37 0 0 0 1.06.491 1.37 1.37 0 0 0 .786-.248l11.859-6.998.066-.041.059-.048a1.37 1.37 0 0 0 .507-1.069v-8.519a1.08 1.08 0 0 0-1.079-1.083h.003z" class="G"/><path d="M60.083 65.616a.86.86 0 0 0 .661-.312c.081-.097.139-.211.171-.334a.86.86 0 0 0 .013-.374l-2.193-8.308c-.034-.207-.145-.386-.3-.514l-.017-.017-10.345-6.895-.183-.01c-.31 0-.565.252-.565.562v8.319c0 .259.114.503.317.665l.028.024 11.91 7.032a.83.83 0 0 0 .503.165v-.003z" fill="url(#R)"/><g class="G"><path d="M47.884 49.159c-.024 0-.045.017-.045.048v8.519c0 .051.011.101.032.147s.053.087.092.119l11.903 7.029c.06.05.136.076.214.076.05 0 .1-.011.146-.033s.086-.053.118-.092.056-.084.068-.133.015-.1.006-.149l-2.192-8.526c-.015-.079-.058-.15-.121-.2l-10.194-6.798c-.008-.005-.018-.007-.028-.007zm0-1.034c.221 0 .431.066.61.186l10.187 6.791.041.031.038.035c.25.203.421.487.483.803v.021l2.196 8.519a1.37 1.37 0 0 1-.021.598c-.051.195-.145.377-.274.532a1.37 1.37 0 0 1-1.059.491 1.37 1.37 0 0 1-.786-.248L47.44 58.885l-.066-.041-.059-.048a1.37 1.37 0 0 1-.507-1.069v-8.519a1.08 1.08 0 0 1 1.079-1.083h-.004z"/><path d="M46.203 48.184s.408-.204 1.02-.204 1.019.204 1.019.204l-.111.486h-1.724l-.204-.486z"/></g></g><defs><linearGradient id="A" x1="26.675" y1="41.524" x2="26.675" y2="56.167" xlink:href="#Z"><stop offset=".005" stop-color="#fff06b"/><stop offset=".271" stop-color="#f2d223"/><stop offset=".531" stop-color="#b29910"/></linearGradient><linearGradient id="B" x1="26.443" y1="37.812" x2="19.274" y2="33.673" xlink:href="#Z"><stop offset=".104" stop-color="#fff06b"/><stop offset=".479" stop-color="#f2d223"/><stop offset=".865" stop-color="#b29910"/></linearGradient><linearGradient id="C" x1="27.06" y1="37.812" x2="34.229" y2="33.673" xlink:href="#Z"><stop offset=".104" stop-color="#fff06b"/><stop offset=".479" stop-color="#f2d223"/><stop offset=".865" stop-color="#b29910"/></linearGradient><linearGradient id="D" x1="26.216" y1="64.436" x2="26.216" y2="87.533" xlink:href="#Z"><stop offset=".099" stop-color="#fff06b"/><stop offset=".5" stop-color="#f2d223"/><stop offset=".917" stop-color="#b29910"/></linearGradient><linearGradient id="E" x1="25.854" y1="58.604" x2="14.547" y2="52.075" xlink:href="#Z"><stop offset=".161" stop-color="#fff06b"/><stop offset=".568" stop-color="#f2d223"/><stop offset=".917" stop-color="#b39910"/></linearGradient><linearGradient id="F" x1="26.826" y1="58.604" x2="38.133" y2="52.075" xlink:href="#Z"><stop offset=".161" stop-color="#fff06b"/><stop offset=".568" stop-color="#f2d223"/><stop offset=".917" stop-color="#b39910"/></linearGradient><linearGradient id="G" x1="68.474" y1="41.524" x2="68.474" y2="56.167" xlink:href="#Z"><stop offset=".005" stop-color="#6cd68f"/><stop offset=".271" stop-color="#4bb870"/><stop offset=".531" stop-color="#309b55"/></linearGradient><linearGradient id="H" x1="68.245" y1="37.812" x2="61.077" y2="33.673" xlink:href="#Z"><stop offset=".104" stop-color="#6cd68f"/><stop offset=".479" stop-color="#4bb870"/><stop offset=".865" stop-color="#309b55"/></linearGradient><linearGradient id="I" x1="68.859" y1="37.812" x2="76.027" y2="33.673" xlink:href="#Z"><stop offset=".104" stop-color="#6cd68f"/><stop offset=".479" stop-color="#4bb870"/><stop offset=".865" stop-color="#309b55"/></linearGradient><linearGradient id="J" x1="67.948" y1="64.444" x2="67.948" y2="87.541" xlink:href="#Z"><stop offset=".099" stop-color="#6cd68f"/><stop offset=".5" stop-color="#4bb870"/><stop offset=".917" stop-color="#309b55"/></linearGradient><linearGradient id="K" x1="67.581" y1="58.6" x2="56.274" y2="52.071" xlink:href="#Z"><stop offset=".161" stop-color="#6cd68f"/><stop offset=".589" stop-color="#4bb870"/><stop offset=".917" stop-color="#309b55"/></linearGradient><linearGradient id="L" x1="68.558" y1="58.6" x2="79.865" y2="52.071" xlink:href="#Z"><stop offset=".161" stop-color="#6cd68f"/><stop offset=".589" stop-color="#4bb870"/><stop offset=".917" stop-color="#309b55"/></linearGradient><linearGradient id="M" x1="47.542" y1="41.524" x2="47.542" y2="56.167" xlink:href="#Z"><stop offset=".005" stop-color="#77a1f0"/><stop offset=".271" stop-color="#4c7ede"/><stop offset=".531" stop-color="#3267cd"/></linearGradient><linearGradient id="N" x1="47.31" y1="37.812" x2="40.141" y2="33.673" xlink:href="#Z"><stop offset=".104" stop-color="#77a1f0"/><stop offset=".479" stop-color="#4c7ede"/><stop offset=".865" stop-color="#3267cd"/></linearGradient><linearGradient id="O" x1="47.929" y1="37.812" x2="55.098" y2="33.673" xlink:href="#Z"><stop offset=".104" stop-color="#77a1f0"/><stop offset=".479" stop-color="#4c7ede"/><stop offset=".865" stop-color="#3267cd"/></linearGradient><linearGradient id="P" x1="47.083" y1="64.436" x2="47.083" y2="87.533" xlink:href="#Z"><stop offset=".099" stop-color="#77a1f0"/><stop offset=".5" stop-color="#4c7ede"/><stop offset=".917" stop-color="#3267cd"/></linearGradient><linearGradient id="Q" x1="46.721" y1="58.604" x2="35.414" y2="52.075" xlink:href="#Z"><stop offset=".161" stop-color="#77a1f0"/><stop offset=".589" stop-color="#4c7ede"/><stop offset=".917" stop-color="#3267cd"/></linearGradient><linearGradient id="R" x1="47.693" y1="58.604" x2="59" y2="52.075" xlink:href="#Z"><stop offset=".161" stop-color="#77a1f0"/><stop offset=".589" stop-color="#4c7ede"/><stop offset=".917" stop-color="#3267cd"/></linearGradient><clipPath id="S"><path fill="#fff" d="M0 0h100v100H0z"/></clipPath><path id="T" d="M22.142 50.375h8.655l3.091-8.851-7.212-4.153-7.212 4.153 2.679 8.851z"/><path id="U" d="M26.512 37.083c.101-.058.226-.058.327 0l7.212 4.153c.133.076.195.234.15.38l-1.326 3.725 1.083 6.064c-.042.138-.169.232-.313.232l-14.197.202c-.149 0-.279-.1-.317-.243l1.183-6.254-1.167-3.737c-.038-.143.025-.294.153-.368l7.212-4.153zm-6.667 4.595l1.119 3.663-1.083 5.631 13.211-.217-.866-5.414 1.272-3.668-6.822-3.928-6.831 3.933z"/><path id="V" d="M34.915 42.257c.08 0 .159-.018.232-.052s.136-.084.188-.146.088-.134.108-.212.023-.159.008-.237l-1.39-5.267c-.022-.131-.092-.245-.19-.326l-.011-.011-6.559-4.371-.116-.006c-.197 0-.358.159-.358.356v5.274c0 .164.072.319.201.422l.017.015 7.551 4.459c.094.07.203.105.319.105v-.002z"/><path id="W" d="M26.117 31.211s.258-.129.646-.129.646.129.646.129l-.071.308h-1.093l-.129-.308z"/><path id="X" d="M19.065 78.398h13.651l4.875-13.962-11.376-6.55-11.376 6.55 4.225 13.962z"/><path id="Y" d="M60.391 42.257c-.08 0-.159-.018-.232-.052s-.136-.084-.188-.146-.088-.134-.108-.212-.023-.159-.008-.237l1.39-5.267c.022-.131.092-.245.19-.326l.011-.011 6.559-4.371.116-.006c.197 0 .358.159.358.356v5.274c0 .164-.072.319-.201.422l-.017.015-7.551 4.459c-.094.07-.203.105-.319.105v-.002z"/><linearGradient id="Z" gradientUnits="userSpaceOnUse"/></defs></svg>