<svg xmlns="http://www.w3.org/2000/svg" xmlns:xlink="http://www.w3.org/1999/xlink" width="100" height="100" fill="none" xmlns:v="https://vecta.io/nano"><g clip-path="url(#A)"><path d="M6.869 92.904c-1.423-.001-2.788-.567-3.795-1.574S1.502 88.959 1.5 87.536V6.869c.002-1.423.568-2.788 1.574-3.795S5.446 1.502 6.869 1.5h80.667c1.423.002 2.788.568 3.794 1.574s1.572 2.371 1.574 3.795v80.667c-.001 1.423-.567 2.788-1.574 3.794s-2.371 1.572-3.794 1.574H6.869z" fill="#55a4b0"/><path d="M87.536 3a3.87 3.87 0 0 1 3.868 3.869v80.667a3.87 3.87 0 0 1-3.868 3.868H6.869A3.87 3.87 0 0 1 3 87.536V6.869c.001-1.026.409-2.009 1.134-2.735S5.843 3.001 6.869 3h80.667zm0-3H6.869A6.87 6.87 0 0 0 0 6.869v80.667a6.87 6.87 0 0 0 2.012 4.857 6.87 6.87 0 0 0 4.857 2.011h80.667c.902 0 1.795-.177 2.628-.522s1.591-.851 2.228-1.489 1.144-1.395 1.489-2.228.523-1.726.522-2.628V6.869a6.87 6.87 0 0 0-2.011-4.857A6.87 6.87 0 0 0 87.536 0h0z" fill="#c0e9ff"/><g fill="#e6f7ff"><path d="M23.025 21V10.979h1.326v8.839h4.935V21h-6.262zm7.232-3.63c0-1.344.374-2.34 1.121-2.987.624-.538 1.385-.807 2.283-.807.998 0 1.814.328 2.447.984s.95 1.554.95 2.707c0 .934-.141 1.67-.424 2.208s-.686.948-1.224 1.244a3.56 3.56 0 0 1-1.75.444c-1.016 0-1.839-.326-2.468-.978s-.936-1.59-.936-2.816zm1.265 0c0 .93.203 1.627.608 2.092s.916.69 1.531.69a1.93 1.93 0 0 0 1.524-.697c.405-.465.608-1.174.608-2.126 0-.898-.205-1.577-.615-2.037a1.93 1.93 0 0 0-1.518-.697 1.95 1.95 0 0 0-1.531.691c-.405.461-.608 1.155-.608 2.085zM38.509 21v-7.26h1.107v1.032c.533-.798 1.303-1.196 2.311-1.196a2.97 2.97 0 0 1 1.203.239c.369.155.645.36.827.615s.31.558.383.909c.046.228.068.627.068 1.196V21h-1.23v-4.416c0-.501-.048-.875-.144-1.121a1.16 1.16 0 0 0-.513-.595c-.242-.15-.526-.226-.855-.226-.524 0-.977.166-1.36.499s-.567.964-.567 1.894V21h-1.23zm7.567.602l1.196.178c.05.369.189.638.417.807.305.228.722.342 1.251.342.57 0 1.01-.114 1.319-.342s.52-.547.629-.957c.064-.251.093-.777.089-1.579-.538.633-1.208.95-2.01.95-.998 0-1.77-.36-2.317-1.08s-.82-1.584-.82-2.591c0-.693.125-1.331.376-1.914s.613-1.041 1.087-1.36 1.039-.479 1.682-.479c.857 0 1.563.346 2.119 1.039v-.875h1.135v6.275c0 1.13-.116 1.93-.349 2.399s-.593.848-1.094 1.121-1.11.41-1.839.41c-.866 0-1.565-.196-2.099-.588s-.791-.973-.772-1.757zm1.019-4.361c0 .952.189 1.647.567 2.085a1.8 1.8 0 0 0 1.422.656 1.82 1.82 0 0 0 1.422-.649c.383-.437.574-1.121.574-2.051 0-.889-.198-1.558-.595-2.01s-.866-.677-1.422-.677c-.547 0-1.012.223-1.395.67s-.574 1.101-.574 1.976zm11.97 1.422l1.271.157c-.201.743-.572 1.319-1.114 1.73s-1.235.615-2.078.615c-1.062 0-1.905-.326-2.529-.978s-.93-1.575-.93-2.755c0-1.221.314-2.169.943-2.844s1.445-1.012 2.447-1.012c.971 0 1.764.33 2.379.991s.923 1.591.923 2.789l-.007.328h-5.414c.046.797.271 1.408.677 1.832s.911.636 1.518.636c.451 0 .836-.118 1.155-.355s.572-.615.759-1.135zm-4.04-1.989h4.054c-.055-.611-.21-1.069-.465-1.374-.392-.474-.9-.711-1.524-.711-.565 0-1.041.189-1.429.567s-.595.884-.636 1.518zm6.371 2.16l1.217-.191c.068.488.258.861.567 1.121s.752.39 1.313.39.984-.114 1.258-.342.41-.504.41-.813c0-.278-.121-.497-.362-.656-.169-.109-.588-.248-1.258-.417-.902-.228-1.529-.424-1.88-.588s-.611-.399-.793-.69-.267-.622-.267-.977c0-.324.073-.622.219-.895s.353-.508.608-.691c.191-.141.451-.26.779-.355a3.84 3.84 0 0 1 1.066-.15c.57 0 1.069.082 1.497.246s.752.387.957.67.346.652.424 1.121l-1.203.164c-.055-.374-.214-.665-.478-.875s-.629-.314-1.107-.314c-.565 0-.968.093-1.21.28s-.362.406-.362.656a.68.68 0 0 0 .15.431c.1.132.258.242.472.328.123.046.485.15 1.087.314l1.818.574c.346.146.617.36.813.643s.294.633.294 1.053c0 .41-.121.797-.362 1.162s-.581.64-1.032.841-.962.294-1.531.294c-.943 0-1.663-.196-2.16-.588s-.807-.973-.943-1.743zM71.575 19.9l.178 1.087a4.55 4.55 0 0 1-.93.109c-.447 0-.793-.071-1.039-.212a1.19 1.19 0 0 1-.519-.554c-.1-.232-.15-.718-.15-1.456v-4.177h-.902v-.957h.902v-1.798l1.224-.738v2.536h1.237v.957h-1.237v4.245c0 .351.02.576.061.677s.116.18.212.239.242.089.424.089c.137 0 .317-.016.54-.048zM32.101 37V26.979h4.443c.893 0 1.572.091 2.037.273s.836.494 1.114.95.417.959.417 1.511c0 .711-.23 1.31-.69 1.798s-1.171.798-2.133.93c.351.169.617.335.8.499.387.355.754.8 1.101 1.333L40.933 37h-1.668l-1.326-2.085-.957-1.381c-.251-.319-.476-.542-.677-.67a1.95 1.95 0 0 0-.602-.267c-.15-.032-.396-.048-.738-.048h-1.538V37h-1.326zm1.326-5.599h2.85c.606 0 1.08-.062 1.422-.185s.602-.328.779-.602a1.64 1.64 0 0 0 .267-.902c0-.474-.173-.864-.52-1.169s-.884-.458-1.627-.458h-3.172v3.316zm8.155 1.969c0-1.344.374-2.34 1.121-2.987.624-.538 1.385-.807 2.283-.807.998 0 1.814.328 2.447.984s.95 1.554.95 2.707c0 .934-.141 1.67-.424 2.208s-.686.948-1.224 1.244a3.56 3.56 0 0 1-1.75.444c-1.016 0-1.839-.326-2.468-.978s-.937-1.591-.937-2.816zm1.265 0c0 .93.203 1.627.608 2.092s.916.69 1.531.69a1.93 1.93 0 0 0 1.524-.697c.405-.465.608-1.174.608-2.126 0-.898-.205-1.577-.615-2.037a1.93 1.93 0 0 0-1.518-.697 1.95 1.95 0 0 0-1.531.691c-.405.461-.608 1.155-.608 2.085zm11.724 2.734c-.456.387-.896.661-1.319.82s-.87.239-1.353.239c-.798 0-1.41-.194-1.839-.581s-.643-.891-.643-1.497a1.99 1.99 0 0 1 .239-.971c.164-.296.376-.533.636-.711s.561-.312.889-.403c.242-.064.606-.125 1.094-.185.993-.119 1.725-.26 2.194-.424l.007-.321c0-.501-.116-.855-.349-1.06-.314-.278-.782-.417-1.401-.417-.579 0-1.007.103-1.285.308s-.476.558-.608 1.073l-1.203-.164c.109-.515.289-.93.54-1.244s.613-.563 1.087-.732 1.023-.26 1.647-.26 1.123.073 1.511.219.672.33.855.554.31.497.383.834c.041.21.062.588.062 1.135v1.641l.075 2.174c.055.301.159.59.314.868h-1.285a2.61 2.61 0 0 1-.246-.895zm-.103-2.748c-.447.182-1.117.337-2.01.465-.506.073-.864.155-1.073.246s-.371.226-.485.403-.171.367-.171.581a1.05 1.05 0 0 0 .369.82c.251.219.615.328 1.094.328a2.56 2.56 0 0 0 1.265-.308c.369-.21.64-.495.813-.855.132-.278.198-.688.198-1.23v-.451zM62.336 37v-.916c-.46.72-1.137 1.08-2.03 1.08a2.86 2.86 0 0 1-1.6-.479c-.483-.319-.859-.763-1.128-1.333s-.396-1.233-.396-1.975c0-.725.121-1.381.362-1.969s.604-1.046 1.087-1.36a2.91 2.91 0 0 1 1.62-.472c.438 0 .827.093 1.169.28a2.41 2.41 0 0 1 .834.718v-3.596h1.224V37h-1.142zm-3.89-3.623c0 .93.196 1.625.588 2.085s.855.69 1.388.69.993-.219 1.367-.656.567-1.114.567-2.017c0-.994-.191-1.723-.574-2.187s-.855-.697-1.415-.697c-.547 0-1.005.223-1.374.67s-.547 1.151-.547 2.112z"/></g><path d="M33.098 56.114l.086-8.133 27.626.292-.087 8.134-27.625-.293z" fill="#808285"/><use xlink:href="#B" fill="#414042"/><g fill="#a7a9ac"><path d="M36.302 50.543c-1.641-.018-2.643 2.532-2.643 2.532l-.194 2.489 5.558.11.075-.899c.025-2.32-.968-4.212-2.796-4.232h0zm13.232 1.045c-.632-1.685-1.838-2.831-3.236-2.846-.876-.009-1.686.431-2.334 1.169l.011-.229c.004-.382-.132-1.092-.132-1.092l-4.537-.047s-.15.705-.155 1.088c-.019 1.771 1.046 3.217 2.378 3.23.423.004.822-.139 1.17-.389-.144.594-.22 1.203-.227 1.814-.005.492.108 1.426.108 1.426l.89.01 6.396.066.138-1.422a8.2 8.2 0 0 0-.119-1.465c.368.896.938 1.474 1.587 1.479 1.135.013 2.074-1.729 2.098-3.892.007-.648-.211-1.802-.211-1.802l-3.653-.039s-.242 1.148-.249 1.798c-.004.4.023.784.077 1.143h0zm-11.673-.667c.487.005.888-.616.896-1.387s-.379-1.401-.866-1.406-.888.616-.896 1.387.379 1.401.866 1.406z"/><path d="M41.099 55.156c.01-.955-.431-1.733-.984-1.739s-1.01.763-1.021 1.718.437 1.115.991 1.121 1.003-.145 1.014-1.1h0zm13.761-5.923c-.705-.007-1.285.819-1.297 1.848s.553 1.867 1.258 1.874 1.287-.819 1.298-1.848c.004-.295-.043-.589-.14-.868.51.561 1.168 1.062 1.895 1.069.24.002.473-.021.697-.063-.682.511-1.189 1.411-1.364 2.485a2.38 2.38 0 0 0-1.179-.33c-1.283-.015-2.707 2.424-2.707 2.424l6.91.074.074-5.062s-.275-.047-.418-.048c-.058-.001-.115.006-.173.01.226-.143.597-.666.597-.666l-.006-1.371-5.39-.058s.14.277.384.649a.94.94 0 0 0-.439-.119h0z"/></g><g fill="#c1c1c1"><path d="M51.463 48.671s-.264 1.031-.271 1.67c-.015 1.424.447 2.582 1.031 2.588s1.068-1.143 1.084-2.565c.006-.639-.236-1.677-.236-1.677l-1.608-.016h0zm-2.038 6.04c.027-2.526-.897-4.586-2.064-4.599s-2.134 2.026-2.161 4.554c-.004.37.047 1.074.047 1.074l4.108.044.07-1.073h0zm-5.886-5.508c.002-.215-.037-.618-.037-.618l-2.116-.022-.049.617c-.013 1.229.469 2.229 1.078 2.236s1.111-.984 1.124-2.213h0zm-5.259 5.825c.021-2.021-.523-3.662-1.217-3.67-1.255-.014-1.724 1.598-1.745 3.615l-.007.661 2.272.011.672.014c-.001 0 .022-.416.025-.631h0zm18.872-5.91c-.01.908.517 1.648 1.176 1.656s1.201-.725 1.211-1.631c.001-.132-.029-.384-.029-.384l-2.32-.03a3.45 3.45 0 0 0-.038.389h0zm1.142 4.822c-.008.752.36 1.941.36 1.941l1.574.016.066-4.438s-.388-.301-.607-.305c-.753-.005-1.376 1.242-1.393 2.786zm-1.485.666c-.886-.01-.897 1.207-.897 1.207l1.772.06s-.118-1.258-.875-1.267zm-1.09-3.595c.008-.705-.267-1.279-.613-1.283s-.633.565-.641 1.269.267 1.279.613 1.283.633-.564.641-1.269zm-17.193-1.656c.007-.67-.266-1.216-.61-1.219s-.628.537-.635 1.207.266 1.216.61 1.219.628-.537.635-1.207zm2.573 5.62c.007-.638-.274-1.159-.627-1.163s-.645.511-.651 1.149.274 1.159.627 1.163.644-.511.651-1.149z"/></g><use xlink:href="#B" fill="#414042"/><path d="M60.982 56.53l6.54-4.842 16.437 22.203-6.54 4.841L60.982 56.53z" fill="#808285"/><use xlink:href="#C" fill="#414042"/><g fill="#a7a9ac"><path d="M77.585 74.703c.977 1.317 3.614.578 3.614.578l2.102-1.349-3.265-4.498-.764.482c-1.865 1.384-2.775 3.317-1.687 4.787h0zM70.433 63.52c-.961 1.521-1.147 3.174-.315 4.297.521.705 1.36 1.086 2.34 1.156l-.188.129c-.309.229-.791.765-.791.765l2.699 3.646s.654-.307.961-.533c1.422-1.054 1.934-2.774 1.141-3.846a1.95 1.95 0 0 0-1.016-.699 8 8 0 0 0 1.584-.914c.396-.293 1.071-.946 1.071-.946l-.528-.716-3.807-5.139-1.217.747a8.15 8.15 0 0 0-1.096.979c.492-.833.607-1.637.223-2.158-.676-.912-2.633-.609-4.369.676-.521.387-1.309 1.256-1.309 1.256l2.172 2.938s1.062-.5 1.584-.887c.318-.237.605-.49.861-.751h0zm6.521 9.719c-.289-.391-1.027-.336-1.647.123s-.888 1.148-.599 1.539 1.027.336 1.647-.123.888-1.148.599-1.539z"/><path d="M78.37 68.093c-.768.568-1.123 1.389-.793 1.834s1.218.346 1.986-.224.625-1.021.295-1.466-.72-.713-1.488-.144zm-13.028-7.401c.421.567 1.431.531 2.257-.08s1.155-1.566.735-2.135-1.431-.529-2.256.082c-.239.174-.444.389-.608.635.139-.745.141-1.572-.291-2.155-.141-.187-.3-.361-.473-.519.818.234 1.843.098 2.807-.412.051.408.194.8.446 1.14.765 1.032 3.567.694 3.567.694l-4.11-5.555-4.08 2.996s.128.247.212.36c.035.047.074.089.112.132-.25-.093-.892-.072-.892-.072l-1.09.831 3.209 4.332s.135-.276.285-.696a.93.93 0 0 0 .17.422h0z"/></g><g fill="#c1c1c1"><path d="M66.943 63.744s.981-.412 1.496-.792c1.144-.848 1.789-1.914 1.441-2.383s-1.556-.164-2.699.684c-.515.38-1.195 1.199-1.195 1.199l.957 1.292h0zm6.045-2.018c-2.03 1.502-3.113 3.481-2.42 4.42s2.904.479 4.936-1.024c.297-.22.829-.687.829-.687l-2.444-3.303-.901.594h0zm-.838 8.015c-.172.127-.471.402-.471.402l1.258 1.699.522-.333c.988-.729 1.495-1.72 1.133-2.209s-1.453-.29-2.442.441zm7.819.678c-1.623 1.201-2.604 2.627-2.191 3.186.748 1.008 2.313.41 3.937-.791l.531-.394-1.363-1.817-.396-.543c.001 0-.344.231-.518.359zm-16.102-11.48c.729-.539 1.003-1.408.611-1.938s-1.303-.521-2.031.02c-.106.078-.289.254-.289.254l1.376 1.869.333-.205h0zm3.154-3.822c.604-.448 1.332-1.459 1.332-1.459l-.938-1.267-3.579 2.625s-.005.491.125.668c.45.607 1.82.352 3.06-.567h0zm1.431.782c.526.711 1.504-.014 1.504-.014l-1.022-1.449c0 .003-.934.853-.482 1.463zm-2.216 3.037c-.566.419-.858.985-.652 1.263s.832.164 1.398-.256.858-.985.652-1.263-.832-.164-1.399.256zm9.06 14.705c-.539.399-.81.946-.605 1.222s.807.176 1.346-.223.81-.946.605-1.222-.807-.176-1.346.223zm2.931-5.438c-.513.38-.758.917-.548 1.201s.796.206 1.309-.174.758-.917.548-1.201-.796-.206-1.308.174z"/></g><use xlink:href="#C" fill="#414042"/><path d="M9.74 73.893l16.442-22.205 6.538 4.842-16.44 22.205-6.54-4.842z" fill="#808285"/><use xlink:href="#D" fill="#414042"/><g fill="#a7a9ac"><path d="M16.116 74.703c-.977 1.317-3.614.578-3.614.578L10.4 73.935l3.265-4.5.763.483c1.866 1.382 2.776 3.315 1.688 4.785h0zm7.153-11.183c.962 1.521 1.148 3.174.316 4.297-.521.705-1.36 1.086-2.34 1.156l.189.129c.308.229.791.765.791.765l-2.7 3.646s-.654-.307-.961-.533c-1.422-1.054-1.933-2.774-1.141-3.846.252-.34.605-.572 1.016-.699a8 8 0 0 1-1.584-.914c-.396-.293-1.071-.946-1.071-.946l.529-.716 3.806-5.139 1.217.747c.408.302.771.632 1.095.979-.492-.833-.607-1.637-.222-2.158.676-.912 2.632-.609 4.369.676.521.387 1.309 1.256 1.309 1.256l-2.173 2.938s-1.062-.5-1.583-.887a7.25 7.25 0 0 1-.862-.751h0zm-6.514 9.714c-.289.391-.021 1.08.599 1.539s1.358.514 1.647.123.021-1.08-.599-1.539-1.358-.514-1.647-.123z"/><path d="M15.332 68.093c.767.568 1.123 1.389.793 1.834s-1.218.346-1.986-.224-.625-1.021-.296-1.466.721-.713 1.489-.144zm13.028-7.401c-.419.567-1.43.531-2.255-.08s-1.156-1.566-.736-2.135 1.43-.529 2.256.082c.252.187.457.403.609.635-.139-.745-.141-1.572.291-2.155.143-.192.303-.364.472-.519-.819.234-1.843.098-2.806-.412-.051.408-.195.8-.447 1.14-.764 1.032-3.567.694-3.567.694l4.11-5.555 4.08 2.996s-.128.247-.212.36c-.035.047-.074.089-.112.132.25-.093.891-.072.891-.072l1.09.831-3.208 4.332s-.136-.276-.285-.696c-.022.152-.08.297-.171.422h0z"/></g><g fill="#c1c1c1"><path d="M26.759 63.744s-.982-.412-1.496-.792c-1.144-.848-1.789-1.914-1.442-2.383s1.556-.164 2.7.684c.513.38 1.194 1.199 1.194 1.199l-.956 1.292h0zm-6.047-2.018c2.031 1.502 3.115 3.481 2.42 4.42s-2.904.479-4.935-1.024c-.297-.22-.829-.687-.829-.687l2.445-3.303a16.4 16.4 0 0 1 .899.594zm.84 8.015c.172.127.471.402.471.402l-1.259 1.699-.522-.333c-.988-.729-1.495-1.72-1.133-2.209s1.455-.29 2.443.441h0zm-7.819.678c1.623 1.201 2.604 2.627 2.191 3.186-.747 1.008-2.313.41-3.936-.791l-.531-.394 1.363-1.817.395-.543c-.001 0 .345.231.518.359h0zm16.102-11.48c-.729-.539-1.003-1.408-.611-1.938s1.302-.521 2.031.02c.106.078.289.254.289.254l-1.376 1.869-.333-.205zm-3.155-3.822c-.604-.448-1.332-1.459-1.332-1.459l.938-1.267 3.579 2.625s.005.491-.125.668c-.449.607-1.819.352-3.06-.567h0zm-1.43.782c-.526.711-1.504-.014-1.504-.014l1.023-1.449c.001.003.934.853.481 1.463zm2.212 3.032c-.566-.419-1.193-.533-1.399-.255s.085.845.652 1.264 1.193.533 1.399.255-.085-.845-.652-1.264zm-9.053 14.714c-.539-.399-1.141-.499-1.346-.223s.067.823.605 1.222 1.141.499 1.346.223-.067-.823-.605-1.222zm-2.923-5.442c-.513-.38-1.099-.458-1.309-.175s.036.822.549 1.201 1.099.458 1.309.175-.036-.822-.549-1.201z"/></g><use xlink:href="#D" fill="#414042"/></g><defs><clipPath id="A"><path fill="#fff" d="M0 0h100v100H0z"/></clipPath><path id="B" d="M33.68 48.483l26.625.281-.076 7.134-26.625-.28.076-7.135zm-.99-1.01l-.01 1-.076 7.136-.01 1 1 .01 26.626.281 1 .011.01-1 .076-7.135.01-1-1-.011-26.626-.282-1-.01h0z"/><path id="C" d="M67.415 52.391L83.261 73.79l-5.736 4.247-15.844-21.4 5.734-4.246h0zm.209-1.399l-.805.595-5.734 4.246-.804.597.595.803 15.846 21.399.594.804.805-.596 5.734-4.246.805-.595-.596-.804L68.22 51.796l-.596-.804h0z"/><path id="D" d="M26.286 52.391l5.735 4.246-15.845 21.4-5.735-4.247 15.845-21.399h0zm-.208-1.399l-.595.804L9.638 73.195l-.595.804.804.595 5.735 4.246.804.596.595-.804 15.845-21.399.595-.803-.804-.597-5.735-4.246-.804-.595h0z"/></defs></svg>