<svg xmlns="http://www.w3.org/2000/svg" version="1.1" id="Layer_1" x="0" y="0" width="100" height="100" xml:space="preserve"><style id="style10">.st30{fill:#cceffe}</style><path d="M6.869 92.905A5.376 5.376 0 011.5 87.536V6.869A5.376 5.376 0 016.869 1.5h80.667a5.376 5.376 0 015.369 5.369v80.667a5.376 5.376 0 01-5.369 5.369H6.869z" fill="#55a4b0" id="path12"/><path d="M87.536 3a3.874 3.874 0 013.87 3.87v80.667a3.874 3.874 0 01-3.87 3.869H6.869A3.875 3.875 0 013 87.536V6.87A3.873 3.873 0 016.869 3h80.667m0-3H6.869A6.87 6.87 0 000 6.87v80.667a6.869 6.869 0 006.869 6.869h80.667a6.87 6.87 0 006.87-6.869V6.87A6.87 6.87 0 0087.536 0z" fill="#c0e9ff" id="path14"/><path class="st30" d="M43.975 84.251a1.332 1.332 0 01-1.331-1.331v-7.492h-7.439a1.332 1.332 0 01-1.331-1.331v-5.309c0-.734.597-1.331 1.331-1.331h7.439v-7.439c0-.734.597-1.331 1.331-1.331h5.309c.734 0 1.331.597 1.331 1.331v7.439h7.493c.734 0 1.331.597 1.331 1.331v5.309c0 .734-.597 1.331-1.331 1.331h-7.493v7.492c0 .734-.597 1.331-1.331 1.331h-5.309z" id="path16"/><path d="M49.284 59.437a.58.58 0 01.581.581v8.189h8.243a.58.58 0 01.581.581v5.309a.58.58 0 01-.581.581h-8.243v8.242a.58.58 0 01-.581.581h-5.309a.58.58 0 01-.581-.581v-8.242h-8.189a.58.58 0 01-.581-.581v-5.309a.58.58 0 01.581-.581h8.189v-8.189a.58.58 0 01.581-.581h5.309m0-1.5h-5.309a2.084 2.084 0 00-2.081 2.081v6.689h-6.689a2.084 2.084 0 00-2.081 2.081v5.309c0 1.147.933 2.081 2.081 2.081h6.689v6.742c0 1.147.934 2.081 2.081 2.081h5.309a2.084 2.084 0 002.081-2.081v-6.742h6.743a2.084 2.084 0 002.081-2.081v-5.309a2.083 2.083 0 00-2.081-2.081h-6.743v-6.689a2.083 2.083 0 00-2.081-2.081z" fill="#223948" id="path18"/><g id="g86" transform="matrix(-49014.802 0 0 0 2313645.7 0)"><path class="st30" d="M47.203 21.8c4.521 0 8.201 3.679 8.201 8.201s-3.679 8.201-8.201 8.201-8.201-3.679-8.201-8.201 3.679-8.201 8.201-8.201m0-1a9.201 9.201 0 100 18.402 9.201 9.201 0 000-18.402z" id="path46"/><path d="M47.203 20.8a9.202 9.202 0 11-.001 18.403 9.202 9.202 0 01.001-18.403m0-1c-5.625 0-10.201 4.576-10.201 10.201 0 5.625 4.576 10.201 10.201 10.201 5.625 0 10.201-4.576 10.201-10.201 0-5.625-4.577-10.201-10.201-10.201z" fill="#1b75bc" id="path48"/><linearGradient id="SVGID_2_" gradientUnits="userSpaceOnUse" x1="47.203" y1="30.001" x2="47.203" y2="21.612"><stop offset="0" stop-color="#8adbe0" id="stop50"/><stop offset=".222" stop-color="#82d2dd" id="stop52"/><stop offset=".584" stop-color="#6cbad5" id="stop54"/><stop offset="1" stop-color="#4b96ca" id="stop56"/></linearGradient><path d="M55.591 30.001H38.814a8.39 8.39 0 0116.777 0z" fill="url(#SVGID_2_)" id="path59" style="fill:url(#SVGID_2_)"/><linearGradient id="SVGID_3_" gradientUnits="userSpaceOnUse" x1="47.203" y1="38.39" x2="47.203" y2="30.001"><stop offset="0" stop-color="#b5db4b" id="stop61"/><stop offset=".209" stop-color="#acd648" id="stop63"/><stop offset=".549" stop-color="#94c93f" id="stop65"/><stop offset=".977" stop-color="#6cb332" id="stop67"/><stop offset="1" stop-color="#6ab231" id="stop69"/></linearGradient><path d="M55.591 30.001H38.814a8.39 8.39 0 0016.777 0z" fill="url(#SVGID_3_)" id="path72" style="fill:url(#SVGID_3_)"/><path d="M43.255 34.884l8.831-8.831a.763.763 0 000-1.079v0a.764.764 0 00-1.08 0l-8.831 8.831a.763.763 0 000 1.079v0a.764.764 0 001.08 0z" fill="#b4510e" stroke="#4f1607" stroke-width=".3" stroke-miterlimit="10" id="path74"/><path d="M42.923 34.961l9.302-9.303c.128-.128-.065-.395-.034-.629l-9.699 9.699c-.032.235.269.416.431.233z" opacity=".42" fill="#6d330c" id="path76"/><path d="M52.438 29.411a.404.404 0 01-.286-.118l-2.35-2.019-1.899-2.231a.403.403 0 01.008-.563l.969-.969a.402.402 0 01.572 0l2.206 1.884L53.7 27.76c.15.15.149.407-.008.564l-.969.969a.402.402 0 01-.285.118z" fill="#ccd7cf" id="path78"/><path d="M49.165 23.543c.065 0 .13.024.18.074l2.214 1.892 2.027 2.349c.099.1.099.261 0 .36l-.969.969a.253.253 0 01-.18.074.253.253 0 01-.18-.074l-2.359-2.026-1.882-2.214a.255.255 0 010-.36l.969-.969a.254.254 0 01.18-.075m0-.3a.55.55 0 00-.392.163l-.968.968a.555.555 0 000 .784l1.865 2.197 2.392 2.06a.535.535 0 00.375.147.55.55 0 00.392-.163l.969-.968a.555.555 0 000-.784l-2.012-2.333-2.246-1.924a.533.533 0 00-.375-.147z" fill="#58595b" id="path80"/><g id="g84"><path d="M52.617 29.187l.968-.969c.1-.099.1-.26 0-.36l-2.026-2.349-1.661 1.651 2.359 2.026c.099.1.261.1.36.001z" fill="#a7a9ac" id="path82"/></g></g><g id="g1765" transform="matrix(.51028 0 0 .44286 34.0442 16.6693)"><path style="fill:#f9d53d;stroke:#8d4e23;stroke-width:3.41px;stroke-miterlimit:10" class="cls-8" d="M-34.7612 31.5226l29.22-18.56c1.86-1.85 5.82-1.71 8.44-1.71l13.94.26a8.73 8.73 0 018.26 5.89l2.46 10.29a11 11 0 01-1.81 10.49l-23.62 14.21" id="path993"/><path style="fill:#f9d53d;stroke:#8d4e23;stroke-width:3.41px;stroke-miterlimit:10" class="cls-8" d="M-36.8712 54.0526h35.66a3.4 3.4 0 003.28-4.31l-4.68-16.92a3.4 3.4 0 00-3.28-2.5h-26.29a3.41 3.41 0 00-3.28 2.48l-4.74 16.93a3.4 3.4 0 003.33 4.32zm60.1-39.76l-26.58 16.03" id="path995"/><path style="fill:#f9d53d;stroke:#8d4e23;stroke-width:3.41px;stroke-miterlimit:10" class="cls-8" d="M-8.8712 41.8726l29.22-18.56c1.86-1.85 5.82-1.71 8.44-1.71l13.94.26a8.74 8.74 0 018.26 5.88l2.46 10.29a11 11 0 01-1.81 10.5l-23.61 14.2" id="path997"/><path style="fill:#f9d53d;stroke:#8d4e23;stroke-width:3.41px;stroke-miterlimit:10" class="cls-8" d="M-11.0212 64.4026h35.66a3.4 3.4 0 003.28-4.31l-4.68-16.93a3.41 3.41 0 00-3.28-2.49h-26.24a3.4 3.4 0 00-3.28 2.48l-4.74 16.93a3.4 3.4 0 003.28 4.32zm60.15-39.76l-26.58 16.03m36.99-1.83l-8.15 23a1.74 1.74 0 002.44 1.68l33.76-14.62a3.8 3.8 0 001.88-5.21l-6.05-14.77z" id="path999"/><path style="fill:#f9d53d;stroke:#8d4e23;stroke-width:3.41px;stroke-miterlimit:10" class="cls-8" d="M50.3588 61.2526l-31-40.8c-1.86-2.09-1.34-7.43.87-9.13l6.9-12.6a.7.7 0 011.17-.09l30.71 39.54a2.23 2.23 0 01.52 1.55l-7.4 20.93a1 1 0 01-1.77.6z" id="path1001"/><path style="fill:#f9d53d;stroke:#8d4e23;stroke-width:3.41px;stroke-miterlimit:10" class="cls-8" d="M28.7288-3.2374l15.3-6.88a6 6 0 016.95 1.48l31.28 35.13a2 2 0 01-.74 3.23l-17.92 7.44a6.08 6.08 0 01-7-1.72l-28.84-34.45a2.73 2.73 0 01.97-4.23z" id="path1003"/><path style="fill:#ffe4c5" class="cls-9" d="M-9.6112 49.5326s15-12.28 32.84 0l-1.47-5.46s-.27-1.89-2.95-1.67h-24.84s-1.28-.71-2.13 2.1zm-26.76-6.53s2.81-9.88 28-10.8h-22.63a3.47 3.47 0 00-2.48.45 10.42 10.42 0 00-.68 1.85zm12.44-16.23a91.27 91.27 0 0141.29-13.64h-16.31s-3.41-.94-7.67 2.64z" id="path1005"/><path style="fill:#e78826" class="cls-10" d="M27.2088 2.6526l30.52 36.65-6.85 19.75-29.75-39.2a6.29 6.29 0 01-.65-6.25c1.42-3.09 4.26-8.65 6.73-10.95zm29.19 50.83l30.17-12.3 1.4 3.39s1.17 2-1.45 3.05c-2.62 1.05-33.22 14.29-33.22 14.29zm-39.04-26.29l7.75 9.88 3.39-1.92-7.75-10.09zm9.85 12.69l-2.64 1.81 3.59 12.71 1.45 5.38 12.11-7.25-11.28-14.69zm-2.39 15.69h-36.08l-1.26 4.68s-1 2.52 1.94 2.47c2.94-.05 34.48 0 34.48 0s2.66.2 2.42-2.27zm-26.35-24.51l1.12 3.44 19.22-12.19s-1.79-1.86-1.74-2.34zm-3.34 1.36l-7.81 5.76a4.65 4.65 0 00-1.75 2.71c-.37 1.79-1.77 7.07-1.77 7.07h-21.67l-.58 2.23s-.48 1.83 1.74 2.2h22.81l2.86-10s.29-1.8 3.15-3.11l4.57-2.9-.89-3.2a1.56 1.56 0 00-.66-.76z" id="path1007"/><path style="fill:#ffe4c5" class="cls-9" d="M31.1288-2.4074a42.58 42.58 0 0136 14.26c15.49 17.41-15.5-17.41-15.5-17.41s-2.53-3.3-4-3.26a5 5 0 00-3.15.43zm30 42.39s20.19-6.36 24.38-1l-2.75-7.9zm-43.77-12.79s-12.85 9.89-7.42 11.68h-10.93z" id="path1009"/></g></svg>