<svg xmlns="http://www.w3.org/2000/svg" width="100" height="100" fill="none" xmlns:v="https://vecta.io/nano"><g clip-path="url(#A)"><path d="M6.869 92.904c-1.423-.001-2.788-.567-3.795-1.574S1.502 88.959 1.5 87.536V6.869c.002-1.423.568-2.788 1.574-3.795S5.446 1.502 6.869 1.5h80.667c1.423.002 2.788.568 3.794 1.574s1.572 2.371 1.574 3.795v80.667c-.001 1.423-.567 2.788-1.574 3.794s-2.371 1.572-3.794 1.574H6.869z" fill="#55a4b0"/><path d="M87.536 3a3.87 3.87 0 0 1 3.868 3.869v80.667a3.87 3.87 0 0 1-3.868 3.868H6.869A3.87 3.87 0 0 1 3 87.536V6.869c.001-1.026.409-2.009 1.134-2.735S5.843 3.001 6.869 3h80.667zm0-3H6.869A6.87 6.87 0 0 0 0 6.869v80.667a6.87 6.87 0 0 0 2.012 4.857 6.87 6.87 0 0 0 4.857 2.011h80.667c.902 0 1.795-.177 2.628-.522s1.591-.851 2.228-1.489 1.144-1.395 1.489-2.228.523-1.726.522-2.628V6.869a6.87 6.87 0 0 0-2.011-4.857A6.87 6.87 0 0 0 87.536 0h0z" fill="#c0e9ff"/><path d="M19.08 22V11.979h3.452c.779 0 1.374.048 1.784.144.574.132 1.064.371 1.47.718.529.447.923 1.019 1.183 1.716s.396 1.486.396 2.379c0 .761-.089 1.436-.267 2.023s-.406 1.076-.684 1.463-.583.686-.916.909-.727.385-1.196.499-1 .171-1.606.171H19.08zm1.326-1.183h2.14c.661 0 1.178-.061 1.552-.185s.679-.296.902-.52c.314-.314.558-.736.731-1.265s.267-1.178.267-1.934c0-1.048-.173-1.853-.52-2.413s-.759-.943-1.251-1.135c-.355-.137-.927-.205-1.716-.205h-2.106v7.656zm13.604-1.155l1.271.157c-.2.743-.572 1.319-1.114 1.73s-1.235.615-2.078.615c-1.062 0-1.905-.326-2.529-.978s-.93-1.575-.93-2.755c0-1.221.314-2.169.943-2.844s1.445-1.012 2.447-1.012c.971 0 1.764.33 2.379.991s.923 1.591.923 2.789l-.007.328h-5.414c.046.797.271 1.408.677 1.832s.912.636 1.518.636c.451 0 .836-.118 1.155-.355s.572-.615.759-1.135zm-4.04-1.989h4.054c-.055-.611-.21-1.069-.465-1.374-.392-.474-.9-.711-1.524-.711-.565 0-1.041.189-1.429.567s-.595.884-.636 1.518zM37.127 22v-6.303H36.04v-.957h1.087v-.772c0-.488.043-.85.13-1.087a1.56 1.56 0 0 1 .622-.773c.301-.2.72-.301 1.258-.301.346 0 .729.041 1.149.123l-.185 1.073c-.255-.046-.497-.068-.725-.068-.374 0-.638.08-.793.239s-.232.458-.232.896v.67h1.415v.957h-1.415V22h-1.224zm8.572-2.338l1.272.157c-.2.743-.572 1.319-1.114 1.73s-1.235.615-2.078.615c-1.062 0-1.905-.326-2.529-.978s-.93-1.575-.93-2.755c0-1.221.315-2.169.943-2.844s1.445-1.012 2.447-1.012c.971 0 1.764.33 2.379.991s.923 1.591.923 2.789l-.007.328h-5.414c.046.797.271 1.408.677 1.832s.911.636 1.518.636c.451 0 .836-.118 1.155-.355s.572-.615.759-1.135zm-4.04-1.989h4.054c-.055-.611-.21-1.069-.465-1.374-.392-.474-.9-.711-1.524-.711-.565 0-1.041.189-1.429.567s-.595.884-.636 1.518zM48.523 22v-7.26h1.107v1.032c.533-.798 1.303-1.196 2.31-1.196a2.97 2.97 0 0 1 1.203.239c.369.155.645.36.827.615s.31.558.383.909c.046.228.068.627.068 1.196V22h-1.23v-4.416c0-.501-.048-.875-.144-1.121a1.16 1.16 0 0 0-.513-.595c-.242-.15-.526-.226-.855-.226-.524 0-.978.166-1.36.499s-.567.964-.567 1.894V22h-1.23zm12.503 0v-.916c-.46.72-1.137 1.08-2.03 1.08a2.86 2.86 0 0 1-1.6-.479c-.483-.319-.859-.763-1.128-1.333s-.397-1.233-.397-1.976c0-.725.121-1.381.362-1.969s.604-1.046 1.087-1.36 1.023-.472 1.62-.472c.438 0 .827.093 1.169.28a2.41 2.41 0 0 1 .834.718v-3.596h1.224V22h-1.142zm-3.89-3.623c0 .93.196 1.625.588 2.085s.855.69 1.388.69.993-.219 1.367-.656.567-1.114.567-2.017c0-.994-.191-1.723-.574-2.187s-.855-.697-1.415-.697c-.547 0-1.005.223-1.374.67s-.547 1.151-.547 2.112zm11.942 1.285l1.271.157c-.2.743-.572 1.319-1.114 1.73s-1.235.615-2.078.615c-1.062 0-1.905-.326-2.529-.978s-.93-1.575-.93-2.755c0-1.221.314-2.169.943-2.844s1.445-1.012 2.447-1.012c.971 0 1.764.33 2.379.991s.923 1.591.923 2.789l-.007.328H64.97c.046.797.271 1.408.677 1.832s.911.636 1.518.636c.451 0 .836-.118 1.155-.355s.572-.615.759-1.135zm-4.04-1.989h4.054c-.055-.611-.21-1.069-.465-1.374-.392-.474-.9-.711-1.524-.711-.565 0-1.041.189-1.429.567s-.595.884-.636 1.518zM71.888 22v-7.26h1.107v1.101c.283-.515.542-.854.779-1.018a1.38 1.38 0 0 1 .793-.246c.415 0 .836.132 1.265.396l-.424 1.142a1.76 1.76 0 0 0-.902-.267 1.16 1.16 0 0 0-.725.246c-.214.159-.367.383-.458.67-.137.438-.205.916-.205 1.436V22h-1.231z" fill="#e6f7ff"/><path d="M46.853 84.215l-.137-.123C34.702 79.42 29.723 69.007 27.798 63.237c-1.114-3.344-2.013-13.975-2.013-23.173v-.528l21.254-8.688 21.122 8.743v.525c0 9.452-.846 19.808-1.938 23.085-3.154 9.462-10.196 17.313-18.872 20.885l-.123.128h-.375 0z" fill="#666"/><path d="M47.036 31.696l20.424 8.421c0 8.951-.846 19.624-1.94 22.906-2.512 7.535-8.531 16.092-18.447 20.408H47C36.5 79.115 31.013 70.558 28.5 63.023c-1.093-3.282-2.016-13.972-2.016-22.924l20.552-8.403zM47.04 30l-.596.242-20.509 8.368-.935.398v1.055c0 8.256.8 19.623 2.054 23.386 1.968 5.901 7.086 16.586 19.399 21.374l.253.176h.678l.287-.188c8.884-3.658 16.071-11.653 19.296-21.328 1.248-3.745 1.978-15.062 1.978-23.368v-1.051l-.929-.401-20.403-8.421L47.04 30h0z" fill="#223948"/><path d="M47.036 31.695l-20.552 8.368c0 8.951.922 19.48 2.015 22.762 2.512 7.536 8 16.681 18.5 20.212h.073c9.916-3.531 15.935-12.676 18.447-20.212 1.093-3.281 1.94-13.822 1.94-22.772l-20.424-8.358z" fill="#cceffe"/><path d="M47.036 31.543l-.092.037 15.399 9.59s.633 17.428-2.701 26.311c-3.248 8.653-12.825 15.741-12.825 15.741a8.37 8.37 0 0 0 .255.072c9.916-4.202 15.935-13.033 18.447-20.569 1.094-3.281 1.94-13.848 1.94-22.799l-20.423-8.383z" fill="#a0c1cf"/></g><defs><clipPath id="A"><path fill="#fff" d="M0 0h100v100H0z"/></clipPath></defs></svg>