<svg xmlns="http://www.w3.org/2000/svg" width="100" height="100"><path fill="#55A4B0" d="M6.869 92.904A5.374 5.374 0 011.5 87.536V6.869A5.375 5.375 0 016.869 1.5h80.667a5.374 5.374 0 015.368 5.369v80.667a5.373 5.373 0 01-5.368 5.368H6.869z"/><path fill="#C0E9FF" d="M87.536 3a3.872 3.872 0 013.868 3.869v80.667a3.872 3.872 0 01-3.868 3.868H6.869A3.872 3.872 0 013 87.536V6.869A3.873 3.873 0 016.869 3h80.667m0-3H6.869A6.869 6.869 0 000 6.869v80.667a6.868 6.868 0 006.869 6.868h80.667a6.867 6.867 0 006.868-6.868V6.869A6.868 6.868 0 0087.536 0z"/><path fill="#CCEFFE" d="M52.389 27.321a.5.5 0 01-.5-.5V14.438l-2.552.725a.502.502 0 01-.617-.343l-.633-2.216a.5.5 0 01.314-.609l4.16-1.469a.49.49 0 01.166-.028h2.262a.5.5 0 01.5.5v15.824a.5.5 0 01-.5.5l-2.6-.001z"/><path fill="#223948" d="M54.986 10.997v15.824h-2.6V13.777l-3.186.905-.633-2.216 4.16-1.469h2.259m0-1h-2.26c-.113 0-.227.02-.334.057l-4.159 1.469a1 1 0 00-.628 1.218l.633 2.216a1 1 0 001.234.688l1.916-.543v11.721a1 1 0 001 1h2.6a1 1 0 001-1V10.997c-.002-.553-.448-1-1.002-1z"/><g><path fill="#CCEFFE" d="M40.904 24.382a.5.5 0 01-.5-.5v-3.32h-3.321a.5.5 0 01-.5-.5v-2.306a.5.5 0 01.5-.5h3.321v-3.32a.5.5 0 01.5-.5h2.306a.5.5 0 01.5.5v3.32h3.321a.5.5 0 01.5.5v2.306a.5.5 0 01-.5.5H43.71v3.32a.5.5 0 01-.5.5h-2.306z"/><path fill="#223948" d="M43.209 13.936v3.82h3.821v2.306h-3.821v3.82h-2.306v-3.82h-3.821v-2.306h3.821v-3.82h2.306m0-1h-2.306a1 1 0 00-1 1v2.82h-2.821a1 1 0 00-1 1v2.306a1 1 0 001 1h2.821v2.82a1 1 0 001 1h2.306a1 1 0 001-1v-2.82h2.821a1 1 0 001-1v-2.306a1 1 0 00-1-1h-2.821v-2.82a1 1 0 00-1-1z"/></g><g><path fill="#CCEFFE" d="M38.971 73.172c-.965 0-1.75-.785-1.75-1.75v-.861c0-.965.785-1.75 1.75-1.75h16.696c.965 0 1.75.785 1.75 1.75v.861c0 .965-.785 1.75-1.75 1.75H38.971z"/><path fill="#223948" d="M55.667 69.811a.75.75 0 01.75.75v.861a.75.75 0 01-.75.75H38.971a.75.75 0 01-.75-.75v-.861a.75.75 0 01.75-.75h16.696m0-2H38.971a2.752 2.752 0 00-2.75 2.75v.861a2.753 2.753 0 002.75 2.75h16.696a2.753 2.753 0 002.75-2.75v-.861a2.752 2.752 0 00-2.75-2.75z"/><path fill="#CCEFFE" d="M37.994 77.281a2.201 2.201 0 01-2.199-2.198v-1.286c0-1.213.987-2.199 2.199-2.199h18.652c1.211 0 2.199.986 2.199 2.199v1.286a2.2 2.2 0 01-2.199 2.198H37.994z"/><path fill="#223948" d="M56.646 72.598a1.2 1.2 0 011.199 1.199v1.286c0 .662-.537 1.198-1.199 1.198H37.994a1.198 1.198 0 01-1.199-1.198v-1.286a1.2 1.2 0 011.199-1.199h18.652m0-2H37.994a3.204 3.204 0 00-3.199 3.199v1.286a3.201 3.201 0 003.199 3.198h18.652a3.203 3.203 0 003.199-3.198v-1.286a3.204 3.204 0 00-3.199-3.199z"/><path fill="#CCEFFE" d="M35.816 81.682a1.926 1.926 0 01-1.925-1.925v-.19l.975-2.467a1.35 1.35 0 011.325-1.102h22.257a1.35 1.35 0 011.325 1.102l.975 2.467v.19a1.927 1.927 0 01-1.925 1.925H35.816z"/><path fill="#223948" d="M58.448 76.998a.35.35 0 01.349.348l.952 2.411a.925.925 0 01-.925.925H35.816a.925.925 0 01-.925-.925l.952-2.411c0-.191.156-.348.348-.348h22.257m0-2H36.191c-1.11 0-2.042.773-2.286 1.811l-.875 2.213-.14.354v.381a2.929 2.929 0 002.925 2.925h23.007a2.928 2.928 0 002.925-2.925v-.381l-.14-.354-.875-2.213a2.346 2.346 0 00-2.284-1.811z"/><path fill="#CCEFFE" d="M36.356 62.5c-.517 0-.963-.242-1.368-.504l-14.632-7.764a4.118 4.118 0 01-2.083-3.465l-.171-7.356v-1.133a3.383 3.383 0 013.378-3.379h14.271a3.382 3.382 0 013.378 3.379 2.43 2.43 0 01-2.426 2.427H24.492a.586.586 0 00-.585.585v4.126l12.197 6.047.048.03a2.275 2.275 0 01.902 2.668l.977 3.106-.256.395c-.45.692-1.02.838-1.419.838z"/><path fill="#223948" d="M35.751 39.899a2.385 2.385 0 012.378 2.379c0 .788-.639 1.427-1.426 1.427H24.492c-.875 0-1.585.709-1.585 1.585v4.337c0 .227.115.438.305.561l12.397 6.146c.539.35.724 1.044.456 1.609a.418.418 0 00-.032.302l.903 2.874c-.177.273-.367.382-.579.382-.242 0-.512-.142-.824-.344L20.825 53.35a3.079 3.079 0 01-1.552-2.604l-.171-7.357V42.28a2.385 2.385 0 012.378-2.379H35.751m0-2.002H21.48a4.383 4.383 0 00-4.378 4.379v1.109l.172 7.404a5.112 5.112 0 002.559 4.294l.027.017.028.015 14.635 7.768c.494.313 1.095.616 1.834.616.53 0 1.528-.168 2.258-1.295l.511-.789-.282-.896-.744-2.371a3.283 3.283 0 00-1.403-3.496l-.097-.061-.103-.051-11.59-5.745v-3.091h11.796a3.43 3.43 0 003.426-3.427 4.384 4.384 0 00-4.378-4.38z"/><g><path fill="#CCEFFE" d="M57.704 62.5c-.399 0-.97-.146-1.418-.838l-.257-.395.978-3.106a2.278 2.278 0 01.903-2.668l.099-.056 12.146-6.021V45.29a.586.586 0 00-.584-.585H57.357a2.43 2.43 0 01-2.428-2.427 3.383 3.383 0 013.379-3.379h14.271a3.383 3.383 0 013.378 3.379v1.109l-.172 7.38a4.105 4.105 0 01-2.055 3.449l-14.735 7.821c-.328.221-.774.463-1.291.463z"/><path fill="#223948" d="M72.581 39.899a2.385 2.385 0 012.378 2.379v1.109l-.171 7.357a3.08 3.08 0 01-1.552 2.604l-14.709 7.807c-.312.203-.582.345-.823.345-.212 0-.402-.108-.579-.382l.902-2.874a.403.403 0 00-.031-.302 1.27 1.27 0 01.456-1.609l12.396-6.146a.668.668 0 00.305-.561V45.29c0-.876-.709-1.585-1.584-1.585H57.357a1.427 1.427 0 01-1.428-1.427 2.385 2.385 0 012.379-2.379H72.581m0-2H58.309a4.383 4.383 0 00-4.377 4.379 3.43 3.43 0 003.426 3.427h11.797v3.091l-11.59 5.745-.104.051-.096.062a3.282 3.282 0 00-1.404 3.494l-.744 2.369-.281.897.512.789c.729 1.127 1.728 1.295 2.257 1.295.739 0 1.34-.304 1.834-.616l14.635-7.768.028-.016.027-.016a5.11 5.11 0 002.559-4.294l.171-7.357v-1.156a4.384 4.384 0 00-4.378-4.376z"/></g><g><path fill="#CCEFFE" d="M40.316 70.811c-.443 0-.851-.205-1.118-.561a1.419 1.419 0 01-.226-1.241c.175-.6.311-.979.409-1.253.14-.392.14-.392-.036-1.206l-.132-.622C32.731 62.471 28.56 54.969 28.56 46.724v-5.386a2.44 2.44 0 012.438-2.438h31.861a2.447 2.447 0 012.427 2.438v5.386c0 8.247-4.173 15.749-10.654 19.204l-.132.621c-.176.815-.176.815-.036 1.208.099.272.234.653.409 1.253.123.426.038.889-.227 1.241-.268.354-.674.56-1.117.56H40.316z"/><path fill="#223948" d="M62.859 39.899a1.438 1.438 0 011.426 1.438v5.386c0 8.242-4.264 15.325-10.368 18.449a.405.405 0 00-.207.276c-.547 2.665-.479 1.495.202 3.84a.406.406 0 01-.385.521h-13.21a.405.405 0 01-.384-.521c.683-2.345.75-1.175.202-3.84a.4.4 0 00-.206-.276C33.823 62.049 29.56 54.966 29.56 46.724v-5.386c0-.795.645-1.438 1.438-1.438h.012l31.849-.001m.009-2H31.01c-.93 0-1.793.357-2.443 1.007a3.415 3.415 0 00-1.007 2.432v5.386c0 8.437 4.203 16.137 10.77 19.858l.038.179c.044.201.089.408.114.542l-.042.116c-.097.271-.244.681-.427 1.312a2.424 2.424 0 00.386 2.121 2.41 2.41 0 001.918.959h13.212a2.404 2.404 0 002.303-3.08 20.833 20.833 0 00-.469-1.428c.025-.134.07-.341.113-.543l.039-.178c6.566-3.721 10.77-11.422 10.77-19.858v-5.386a3.447 3.447 0 00-3.41-3.438l-.007-.001z"/></g><g><path fill="#CCEFFE" d="M38.989 73.172a1.769 1.769 0 01-1.767-1.768v-.827a1.77 1.77 0 011.767-1.769H55.65a1.77 1.77 0 011.767 1.769v.827c0 .975-.792 1.768-1.767 1.768H38.989z"/><path fill="#223948" d="M55.65 69.811c.424 0 .767.344.767.768v.826a.768.768 0 01-.767.769H38.989a.768.768 0 01-.767-.769v-.826c0-.424.344-.768.767-.768H55.65m0-2H38.989a2.77 2.77 0 00-2.767 2.768v.826a2.772 2.772 0 002.767 2.769H55.65a2.77 2.77 0 002.767-2.769v-.826a2.77 2.77 0 00-2.767-2.768z"/></g><g><path fill="#CCEFFE" d="M38.034 77.281a2.243 2.243 0 01-2.24-2.239v-1.205a2.243 2.243 0 012.24-2.239h18.569a2.243 2.243 0 012.24 2.239v1.205a2.243 2.243 0 01-2.24 2.239H38.034z"/><path fill="#223948" d="M56.604 72.598c.686 0 1.24.555 1.24 1.24v1.204c0 .685-.555 1.239-1.24 1.239h-18.57a1.24 1.24 0 01-1.24-1.239v-1.204c0-.686.555-1.24 1.24-1.24h18.57m0-2h-18.57a3.244 3.244 0 00-3.24 3.24v1.204a3.244 3.244 0 003.24 3.239h18.569a3.243 3.243 0 003.24-3.239v-1.204a3.242 3.242 0 00-3.239-3.24z"/></g><g><path fill="#CCEFFE" d="M35.816 81.682a1.926 1.926 0 01-1.925-1.925v-.19l.975-2.467a1.35 1.35 0 011.325-1.102h22.257a1.35 1.35 0 011.325 1.102l.975 2.467v.19a1.927 1.927 0 01-1.925 1.925H35.816z"/><path fill="#223948" d="M58.448 76.998c.192 0 .348.156.348.35l.952 2.409a.925.925 0 01-.925.925H35.816a.925.925 0 01-.925-.925l.952-2.409a.35.35 0 01.348-.35h22.257m0-2H36.191c-1.11 0-2.042.773-2.286 1.811l-.875 2.213-.14.354v.381a2.929 2.929 0 002.925 2.925h23.007a2.928 2.928 0 002.925-2.925v-.381l-.14-.354-.875-2.213a2.346 2.346 0 00-2.284-1.811z"/></g><g><path fill="#FFF" d="M53.227 62.357a.987.987 0 01-.449-.111l-5.896-3.54-5.789 3.526a.96.96 0 01-1.211-.221.959.959 0 01-.211-.781l1.121-6.539-4.526-5.001a.944.944 0 01-.221-.965.956.956 0 01.778-.655l6.312-.005 2.917-6.482a.963.963 0 011.736-.017l2.925 6.499h6.713c.438.058.735.309.85.661a.954.954 0 01-.244.987l-4.981 5.005 1.126 6.513a.966.966 0 01-.95 1.126z"/><path fill="#223948" d="M46.923 41.529c.166 0 .331.087.416.259l2.937 6.523a.465.465 0 00.349.254h6.802c.38.055.532.522.257.79l-4.986 5.011a.462.462 0 00-.133.409l1.121 6.539a.464.464 0 01-.672.488l-5.873-3.525a.46.46 0 00-.432 0l-5.872 3.525a.464.464 0 01-.673-.488l1.121-6.539a.462.462 0 00-.133-.409l-4.514-5.011a.463.463 0 01.257-.79h6.329a.465.465 0 00.349-.254l2.936-6.523a.455.455 0 01.414-.259m0-1c-.561 0-1.064.313-1.312.816l-2.8 6.22h-5.989l-.071.01a1.458 1.458 0 00-1.182.996 1.457 1.457 0 00.341 1.472l4.344 4.822-1.077 6.281a1.464 1.464 0 002.124 1.54l.025-.014.024-.015 5.573-3.347 5.573 3.347.023.015.025.014a1.464 1.464 0 002.124-1.541l-1.075-6.267 4.797-4.819c.392-.382.533-.956.359-1.49a1.455 1.455 0 00-1.182-.996l-.071-.01h-6.463l-2.784-6.188c-.262-.532-.765-.846-1.326-.846z"/></g></g></svg>