<svg xmlns="http://www.w3.org/2000/svg" width="100" height="100" fill="none" xmlns:v="https://vecta.io/nano"><style><![CDATA[.B{fill:#cceffe}.C{fill:#223948}]]></style><path d="M6.869 92.904c-1.423-.001-2.788-.567-3.795-1.574S1.502 88.959 1.5 87.536V6.869c.002-1.423.568-2.788 1.574-3.795S5.446 1.502 6.869 1.5h80.667c1.423.002 2.788.568 3.794 1.574s1.572 2.371 1.574 3.795v80.667c-.001 1.423-.567 2.788-1.574 3.794s-2.371 1.572-3.794 1.574H6.869z" fill="#55a4b0"/><path d="M87.536 3c1.026.001 2.01.409 2.735 1.134s1.134 1.709 1.135 2.735v80.667a3.87 3.87 0 0 1-1.135 2.734c-.725.725-1.709 1.133-2.735 1.134H6.869A3.87 3.87 0 0 1 3 87.536V6.869c.001-1.026.409-2.009 1.134-2.735S5.843 3.001 6.869 3h80.667zm0-3H6.869A6.87 6.87 0 0 0 0 6.869v80.667a6.87 6.87 0 0 0 2.012 4.857 6.87 6.87 0 0 0 4.857 2.011h80.667a6.87 6.87 0 0 0 4.857-2.011 6.87 6.87 0 0 0 1.489-2.228c.345-.833.523-1.726.523-2.629V6.869A6.87 6.87 0 0 0 87.536 0z" fill="#c0e9ff"/><path d="M25.025 18V7.979h1.326v8.839h4.935V18h-6.262zm12.428-.895c-.456.387-.895.661-1.319.82s-.87.239-1.354.239c-.798 0-1.41-.194-1.839-.581s-.643-.891-.643-1.497a1.99 1.99 0 0 1 .239-.971c.164-.296.376-.533.636-.711s.561-.312.889-.403c.242-.064.606-.125 1.094-.185.994-.118 1.725-.26 2.194-.424l.007-.321c0-.501-.116-.855-.349-1.06-.315-.278-.782-.417-1.401-.417-.579 0-1.007.103-1.285.308s-.476.558-.608 1.073l-1.203-.164c.109-.515.289-.93.54-1.244s.613-.563 1.087-.731 1.023-.26 1.648-.26 1.123.073 1.511.219.672.33.854.554.31.497.383.834c.041.21.062.588.062 1.135v1.641l.075 2.174a2.81 2.81 0 0 0 .315.868h-1.285a2.61 2.61 0 0 1-.246-.895zm-.102-2.748c-.447.182-1.117.337-2.01.465-.506.073-.864.155-1.073.246s-.371.226-.485.403-.171.367-.171.581a1.05 1.05 0 0 0 .369.82c.251.219.615.328 1.094.328a2.56 2.56 0 0 0 1.265-.308c.369-.21.64-.495.813-.855.132-.278.198-.688.198-1.23v-.451zM40.495 18v-7.26h1.107v1.101c.283-.515.542-.854.779-1.018a1.38 1.38 0 0 1 .793-.246c.415 0 .836.132 1.265.396l-.424 1.142a1.76 1.76 0 0 0-.902-.267 1.16 1.16 0 0 0-.725.246c-.214.159-.367.383-.458.67a4.79 4.79 0 0 0-.205 1.435V18h-1.23zm4.45.602l1.196.178c.05.369.189.638.417.807.305.228.722.342 1.251.342.57 0 1.009-.114 1.319-.342a1.68 1.68 0 0 0 .629-.957c.064-.251.093-.777.089-1.579-.538.633-1.208.95-2.01.95-.998 0-1.77-.36-2.317-1.08s-.82-1.584-.82-2.591c0-.693.125-1.331.376-1.914s.613-1.041 1.087-1.36 1.039-.479 1.682-.479c.857 0 1.563.346 2.119 1.039v-.875h1.135v6.275c0 1.13-.116 1.93-.349 2.399s-.592.848-1.094 1.121-1.11.41-1.839.41c-.866 0-1.565-.196-2.099-.588s-.791-.973-.772-1.757zm1.019-4.361c0 .953.189 1.648.567 2.085a1.8 1.8 0 0 0 1.422.656 1.82 1.82 0 0 0 1.422-.649c.383-.437.574-1.121.574-2.051 0-.889-.198-1.559-.595-2.01s-.866-.677-1.422-.677c-.547 0-1.012.223-1.395.67s-.574 1.101-.574 1.976zm11.97 1.422l1.272.157c-.2.743-.572 1.319-1.114 1.729s-1.235.615-2.078.615c-1.062 0-1.905-.326-2.529-.978s-.93-1.574-.93-2.755c0-1.221.315-2.169.943-2.844s1.445-1.012 2.447-1.012c.971 0 1.764.33 2.379.991s.923 1.591.923 2.789l-.007.328h-5.414c.046.798.271 1.408.677 1.832s.911.636 1.517.636c.451 0 .836-.118 1.155-.355s.572-.615.759-1.135zm-4.04-1.989h4.054c-.055-.611-.21-1.069-.465-1.374-.392-.474-.9-.711-1.524-.711-.565 0-1.041.189-1.429.567s-.595.884-.636 1.518zm6.371 2.16l1.217-.191c.068.488.258.861.567 1.121s.752.39 1.313.39.984-.114 1.258-.342.41-.504.41-.813c0-.278-.121-.497-.362-.656-.169-.109-.588-.248-1.258-.417-.902-.228-1.529-.424-1.88-.588s-.611-.399-.793-.69-.267-.622-.267-.978c0-.324.073-.622.219-.895s.353-.508.608-.691c.191-.141.451-.26.779-.355a3.84 3.84 0 0 1 1.066-.15c.57 0 1.069.082 1.497.246s.752.387.957.67.346.652.424 1.121l-1.203.164a1.31 1.31 0 0 0-.479-.875c-.26-.21-.629-.314-1.107-.314-.565 0-.968.093-1.21.28s-.362.406-.362.656a.68.68 0 0 0 .15.431c.1.132.258.242.472.328.123.046.485.15 1.087.314l1.818.574c.346.146.618.36.814.643s.294.633.294 1.053c0 .41-.121.797-.362 1.162s-.581.64-1.032.841-.962.294-1.531.294c-.943 0-1.663-.196-2.16-.588s-.807-.973-.943-1.743zM70.444 16.9l.178 1.087a4.55 4.55 0 0 1-.93.109c-.447 0-.793-.071-1.039-.212a1.19 1.19 0 0 1-.519-.554c-.1-.232-.15-.718-.15-1.456v-4.177h-.902v-.957h.902V8.942l1.224-.738v2.536h1.237v.957h-1.237v4.245c0 .351.02.576.061.677a.54.54 0 0 0 .212.239c.1.059.242.089.424.089.137 0 .317-.016.54-.048zM28.98 34l3.849-10.021h1.429L38.358 34h-1.511l-1.169-3.035h-4.19L30.388 34H28.98zm2.892-4.115h3.398l-1.046-2.775-.711-2.078a12.78 12.78 0 0 1-.54 1.914l-1.101 2.939zM39.247 34v-7.26h1.107v1.101c.282-.515.542-.855.779-1.019a1.38 1.38 0 0 1 .793-.246c.415 0 .836.132 1.265.396l-.424 1.142a1.76 1.76 0 0 0-.902-.267 1.16 1.16 0 0 0-.725.246c-.214.159-.367.383-.458.67-.137.438-.205.916-.205 1.436V34h-1.23zm4.676 0v-7.26h1.101v1.019a2.56 2.56 0 0 1 .909-.855 2.53 2.53 0 0 1 1.292-.328c.538 0 .977.112 1.319.335s.59.535.731.937c.574-.848 1.322-1.271 2.242-1.271.72 0 1.274.201 1.661.602s.581 1.009.581 1.839V34h-1.224v-4.573c0-.492-.041-.845-.123-1.06a1.01 1.01 0 0 0-.431-.526c-.21-.132-.456-.198-.738-.198a1.71 1.71 0 0 0-1.271.513c-.337.342-.506.88-.506 1.627V34h-1.23v-4.717c0-.547-.1-.957-.301-1.23s-.529-.41-.984-.41a1.81 1.81 0 0 0-.964.273c-.296.182-.504.449-.636.8s-.198.857-.198 1.518V34h-1.23zm11.607 2.796l-.137-1.155a2.74 2.74 0 0 0 .704.109c.273 0 .492-.046.656-.137a1.12 1.12 0 0 0 .403-.383c.077-.123.203-.428.376-.916l.109-.301-2.755-7.273h1.326l1.511 4.204.526 1.682c.141-.565.31-1.117.506-1.654l1.552-4.231h1.23l-2.762 7.383-.69 1.648c-.219.406-.469.702-.752.889s-.62.287-1.012.287c-.237 0-.501-.05-.793-.15z" fill="#e6f7ff"/><path d="M46.79 87.67c-4.68 0-8.453-2.091-9.197-4.92a14.57 14.57 0 0 1-2.137.154c-5.232 0-9.331-2.613-9.331-5.95a6.14 6.14 0 0 1 .169-1.433C21.079 75.509 17 72.9 17 69.572c0-1.399.468-2.727 1.361-3.875C17.446 63.884 17 61.46 17 58.32c0-3.024.847-5.574 2.459-7.435-.718-1.27-1.133-2.761-1.133-4.127 0-5.647 2.851-8.758 8.028-8.758 4.802 0 7.524 2.566 7.927 7.442.387-.04.787-.061 1.198-.061 4.085 0 6.688 1.878 7.604 5.454 1.066-.457 2.315-.688 3.73-.688 1.197 0 2.271.158 3.21.472.986-3.433 3.583-5.237 7.579-5.237a12.34 12.34 0 0 1 1.157.053C59.181 40.628 61.977 38 66.727 38c5.223 0 7.983 3.028 7.983 8.758a8.85 8.85 0 0 1-.854 3.788c1.477 1.766 2.223 4.374 2.223 7.771 0 2.973-.484 5.523-1.375 7.297a6.32 6.32 0 0 1 1.375 3.955c0 3.318-4.07 5.921-9.283 5.951.105.463.158.94.158 1.432 0 3.337-4.117 5.949-9.375 5.949-.529 0-1.06-.027-1.584-.084-.826 2.824-4.574 4.853-9.205 4.853h0z" class="B"/><path d="M66.727 39.001c3.869 0 6.982 1.725 6.982 7.758 0 1.245-.313 2.69-1.072 3.945 1.441 1.383 2.441 3.707 2.441 7.615 0 3.074-.541 5.774-1.595 7.421 1.015 1.04 1.595 2.353 1.595 3.831 0 2.515-3.443 4.949-8.375 4.949-.47 0-.921-.027-1.361-.069.397.756.611 1.599.611 2.502 0 2.514-3.443 4.95-8.375 4.95a13.68 13.68 0 0 1-2.414-.213v.027c0 2.514-3.445 4.95-8.375 4.95s-8.331-2.437-8.331-4.95c0-.051.008-.1.009-.148-.92.209-1.928.334-3.012.334-4.931 0-8.332-2.438-8.332-4.95 0-.892.231-1.739.653-2.511a13.82 13.82 0 0 1-1.447.078c-4.931 0-8.332-2.436-8.332-4.949 0-1.404.572-2.701 1.574-3.752-1.068-1.723-1.574-4.233-1.574-7.5 0-3.452 1.14-5.801 2.72-7.31-.992-1.402-1.394-3.057-1.394-4.252 0-5.901 3.159-7.758 7.028-7.758 3.835 0 6.925 1.7 6.979 7.608a9.63 9.63 0 0 1 2.146-.227c3.463 0 6.315 1.392 6.876 6.011 1.215-.891 2.769-1.244 4.458-1.244 1.457 0 2.806.244 3.922.871.686-4.232 3.506-5.638 6.866-5.638.733 0 1.44.062 2.103.204.067-5.757 3.196-7.583 7.026-7.583h0zm0-2c-4.95 0-8.085 2.66-8.844 7.385l-.281-.003c-4.068 0-6.917 1.765-8.221 5.026-.844-.179-1.705-.267-2.568-.261-1.122 0-2.153.135-3.088.401-1.256-3.354-4.107-5.167-8.246-5.167l-.316.004C34.433 39.602 31.366 37 26.354 37c-5.737 0-9.028 3.557-9.028 9.758 0 1.316.342 2.734.946 4.009C17.08 52.353 16 54.771 16 58.32c0 2.992.396 5.389 1.208 7.271C16.421 66.769 16 68.155 16 69.572c0 3.625 3.929 6.521 9.141 6.906-.01.157-.016.315-.016.476 0 3.897 4.538 6.95 10.332 6.95a15.99 15.99 0 0 0 1.473-.068c1.302 2.832 5.17 4.834 9.861 4.834s8.558-1.982 9.883-4.792a14.42 14.42 0 0 0 .906.026c5.817 0 10.375-3.053 10.375-6.95 0-.159-.006-.319-.016-.478 5.215-.397 9.141-3.287 9.141-6.904 0-1.475-.42-2.857-1.225-4.069.795-1.868 1.225-4.354 1.225-7.183 0-3.342-.695-5.995-2.07-7.916a9.88 9.88 0 0 0 .701-3.646c-.001-6.291-3.191-9.757-8.984-9.757h0z" class="C"/><path d="M26.333 75.023c-4.87 0-8.831-2.445-8.831-5.451 0-3.862 3.796-6.775 8.831-6.775 5.143 0 8.875 2.85 8.875 6.775 0 3.005-3.981 5.451-8.875 5.451z" class="B"/><path d="M26.332 63.293c4.931 0 8.375 2.651 8.375 6.276 0 2.515-3.444 4.949-8.375 4.949S18 72.082 18 69.569c.001-3.447 3.401-6.276 8.332-6.276zm0-1c-5.32 0-9.332 3.128-9.332 7.276 0 3.337 4.099 5.949 9.332 5.949 5.257 0 9.375-2.612 9.375-5.949 0-4.216-3.943-7.276-9.375-7.276z" class="C"/><path d="M26.333 68.979c-2.431 0-5.604-.739-6.83-2.364-1.346-1.785-2.001-4.499-2.001-8.298 0-6.9 4.589-10.044 8.854-10.044 5.957 0 8.853 3.285 8.853 10.044 0 4.005-.877 7.146-2.406 8.621-1.307 1.26-3.786 2.041-6.47 2.041h0z" class="B"/><path d="M26.354 48.773c3.757 0 8.353 1.143 8.353 9.544 0 3.666-.761 6.822-2.253 8.262-1.238 1.193-3.62 1.9-6.122 1.9-2.432 0-5.371-.76-6.431-2.166-1.297-1.719-1.9-4.407-1.9-7.996 0-7.075 4.773-9.544 8.353-9.544zm0-1c-4.505 0-9.354 3.3-9.354 10.544 0 3.912.688 6.725 2.102 8.6 1.329 1.762 4.679 2.562 7.229 2.562 2.809 0 5.42-.836 6.815-2.181 1.627-1.569 2.56-4.843 2.56-8.981.001-7.093-3.058-10.544-9.352-10.544h0z" class="C"/><path d="M26.331 54.264c-5.468 0-7.505-4.604-7.505-7.506 0-6.825 4.094-8.258 7.528-8.258 4.966 0 7.483 2.778 7.483 8.258-.001 2.787-1.582 7.506-7.506 7.506h0z" class="B"/><path d="M26.354 39c3.869 0 6.983 1.725 6.983 7.758 0 2.938-1.724 7.006-7.005 7.006s-7.006-4.509-7.006-7.006c0-5.902 3.159-7.758 7.028-7.758h0zm0-1c-5.177 0-8.028 3.11-8.028 8.758 0 3.095 2.173 8.006 8.006 8.006 5.5 0 8.005-4.149 8.005-8.006 0-5.73-2.76-8.758-7.983-8.758z" class="C"/><path d="M66.705 75.023c-4.871 0-8.832-2.445-8.832-5.451 0-3.862 3.797-6.775 8.832-6.775 5.143 0 8.875 2.85 8.875 6.775 0 3.005-3.983 5.451-8.875 5.451z" class="B"/><path d="M66.705 63.293c4.93 0 8.375 2.651 8.375 6.276 0 2.515-3.445 4.949-8.375 4.949s-8.332-2.436-8.332-4.949c0-3.447 3.4-6.276 8.332-6.276zm0-1c-5.32 0-9.332 3.128-9.332 7.276 0 3.337 4.1 5.949 9.332 5.949 5.256 0 9.375-2.612 9.375-5.949 0-4.216-3.944-7.276-9.375-7.276z" class="C"/><path d="M66.705 68.979c-2.432 0-5.605-.739-6.832-2.364-1.346-1.785-2-4.499-2-8.298 0-6.9 4.588-10.044 8.854-10.044 5.957 0 8.854 3.285 8.854 10.044 0 4.005-.877 7.146-2.406 8.621-1.309 1.26-3.787 2.041-6.47 2.041h0z" class="B"/><path d="M66.727 48.773c3.757 0 8.354 1.143 8.354 9.544 0 3.666-.762 6.822-2.254 8.262-1.238 1.193-3.619 1.9-6.121 1.9-2.433 0-5.371-.76-6.432-2.166-1.297-1.719-1.9-4.407-1.9-7.996 0-7.075 4.773-9.544 8.353-9.544zm0-1c-4.505 0-9.354 3.3-9.354 10.544 0 3.912.688 6.725 2.103 8.6 1.329 1.762 4.679 2.562 7.229 2.562 2.809 0 5.42-.836 6.814-2.181 1.627-1.569 2.561-4.843 2.561-8.981.001-7.093-3.06-10.544-9.353-10.544h0z" class="C"/><path d="M66.706 54.264c-5.469 0-7.507-4.604-7.507-7.506 0-6.825 4.095-8.258 7.528-8.258 4.966 0 7.482 2.778 7.482 8.258.001 2.787-1.58 7.506-7.503 7.506h0z" class="B"/><path d="M66.727 39c3.869 0 6.982 1.725 6.982 7.758 0 2.938-1.724 7.006-7.004 7.006s-7.007-4.509-7.007-7.006C59.699 40.856 62.857 39 66.727 39zm0-1c-5.178 0-8.028 3.11-8.028 8.758 0 3.095 2.173 8.006 8.007 8.006 5.5 0 8.004-4.149 8.004-8.006 0-5.73-2.761-8.758-7.983-8.758z" class="C"/><path d="M57.58 82.402c-4.871 0-8.832-2.445-8.832-5.45 0-3.863 3.797-6.776 8.832-6.776 5.143 0 8.875 2.85 8.875 6.776 0 3.005-3.983 5.45-8.875 5.45z" class="B"/><path d="M57.58 70.676c4.93 0 8.375 2.651 8.375 6.276 0 2.514-3.445 4.95-8.375 4.95s-8.332-2.438-8.332-4.95c0-3.448 3.4-6.276 8.332-6.276zm0-1c-5.32 0-9.332 3.129-9.332 7.276 0 3.336 4.099 5.95 9.332 5.95 5.256 0 9.375-2.614 9.375-5.95 0-4.218-3.944-7.276-9.375-7.276z" class="C"/><path d="M57.58 76.359c-2.432 0-5.605-.739-6.832-2.364-1.346-1.783-2-4.498-2-8.298 0-6.9 4.588-10.045 8.854-10.045 5.957 0 8.854 3.285 8.854 10.045 0 4.005-.877 7.146-2.406 8.621-1.308 1.26-3.787 2.041-6.47 2.041h0z" class="B"/><path d="M57.601 56.152c3.757 0 8.354 1.145 8.354 9.545 0 3.667-.762 6.822-2.254 8.263-1.238 1.192-3.619 1.899-6.121 1.899-2.433 0-5.371-.76-6.432-2.166-1.297-1.719-1.9-4.407-1.9-7.996 0-7.074 4.773-9.545 8.353-9.545h0zm0-1c-4.505 0-9.353 3.301-9.353 10.545 0 3.912.688 6.725 2.102 8.6 1.329 1.762 4.679 2.562 7.229 2.562 2.809 0 5.42-.836 6.814-2.18 1.627-1.568 2.561-4.844 2.561-8.982.001-7.095-3.06-10.545-9.353-10.545h0z" class="C"/><path d="M57.581 61.646c-5.469 0-7.507-4.604-7.507-7.506 0-6.824 4.095-8.257 7.528-8.257 4.966 0 7.482 2.778 7.482 8.257.001 2.788-1.58 7.506-7.503 7.506z" class="B"/><path d="M57.602 46.383c3.869 0 6.982 1.724 6.982 7.757 0 2.939-1.724 7.006-7.004 7.006s-7.007-4.509-7.007-7.006c.001-5.901 3.159-7.757 7.029-7.757zm0-1c-5.178 0-8.028 3.109-8.028 8.757 0 3.096 2.173 8.006 8.007 8.006 5.5 0 8.004-4.149 8.004-8.006 0-5.729-2.761-8.757-7.983-8.757h0z" class="C"/><path d="M35.458 82.402c-4.87 0-8.831-2.445-8.831-5.45 0-3.863 3.796-6.776 8.831-6.776 5.143 0 8.875 2.85 8.875 6.776 0 3.005-3.981 5.45-8.875 5.45z" class="B"/><path d="M35.457 70.676c4.931 0 8.375 2.651 8.375 6.276 0 2.514-3.444 4.95-8.375 4.95s-8.332-2.438-8.332-4.95c.001-3.448 3.401-6.276 8.332-6.276zm0-1c-5.32 0-9.332 3.129-9.332 7.276 0 3.336 4.099 5.95 9.332 5.95 5.257 0 9.375-2.614 9.375-5.95 0-4.218-3.943-7.276-9.375-7.276z" class="C"/><path d="M35.458 76.359c-2.431 0-5.604-.739-6.83-2.364-1.346-1.783-2.001-4.498-2.001-8.298 0-6.9 4.589-10.045 8.854-10.045 5.957 0 8.853 3.285 8.853 10.045 0 4.005-.877 7.146-2.406 8.621-1.307 1.26-3.785 2.041-6.47 2.041h0z" class="B"/><path d="M35.479 56.152c3.757 0 8.353 1.145 8.353 9.545 0 3.667-.761 6.822-2.253 8.263-1.238 1.192-3.62 1.899-6.122 1.899-2.432 0-5.371-.76-6.431-2.166-1.297-1.719-1.9-4.407-1.9-7.996 0-7.074 4.773-9.545 8.353-9.545h0zm0-1c-4.505 0-9.354 3.301-9.354 10.545 0 3.912.688 6.725 2.102 8.6 1.329 1.762 4.679 2.562 7.229 2.562 2.809 0 5.42-.836 6.815-2.18 1.627-1.568 2.56-4.844 2.56-8.982.001-7.095-3.058-10.545-9.352-10.545h0z" class="C"/><path d="M35.458 61.646c-5.468 0-7.505-4.604-7.505-7.506 0-6.824 4.094-8.257 7.528-8.257 4.966 0 7.483 2.778 7.483 8.257-.001 2.788-1.582 7.506-7.506 7.506z" class="B"/><path d="M35.479 46.383c3.869 0 6.983 1.724 6.983 7.757 0 2.939-1.724 7.006-7.005 7.006s-7.006-4.509-7.006-7.006c0-5.901 3.159-7.757 7.028-7.757h0zm0-1c-5.177 0-8.028 3.109-8.028 8.757 0 3.096 2.173 8.006 8.006 8.006 5.5 0 8.005-4.149 8.005-8.006 0-5.729-2.76-8.757-7.983-8.757h0z" class="C"/><path d="M46.792 87.167c-4.87 0-8.831-2.445-8.831-5.45 0-3.862 3.796-6.776 8.831-6.776 5.143 0 8.875 2.851 8.875 6.776.001 3.005-3.981 5.45-8.875 5.45h0z" class="B"/><path d="M46.792 75.441c4.931 0 8.375 2.65 8.375 6.275 0 2.514-3.445 4.95-8.375 4.95s-8.331-2.437-8.331-4.95c0-3.446 3.4-6.275 8.331-6.275h0zm0-1c-5.319 0-9.331 3.127-9.331 7.275 0 3.336 4.099 5.95 9.331 5.95 5.256 0 9.375-2.614 9.375-5.95.001-4.215-3.942-7.275-9.375-7.275z" class="C"/><path d="M46.792 81.129c-2.43 0-5.604-.739-6.83-2.364-1.347-1.785-2.001-4.498-2.001-8.299 0-6.9 4.589-10.044 8.853-10.044 5.958 0 8.854 3.285 8.854 10.044 0 4.006-.877 7.146-2.406 8.623-1.305 1.258-3.785 2.04-6.47 2.04h0z" class="B"/><path d="M46.814 60.922c3.757 0 8.354 1.144 8.354 9.544 0 3.667-.761 6.823-2.254 8.264-1.236 1.192-3.619 1.899-6.122 1.899-2.432 0-5.37-.76-6.431-2.166-1.297-1.719-1.9-4.407-1.9-7.997 0-7.074 4.773-9.544 8.353-9.544h0zm0-1c-4.504 0-9.353 3.3-9.353 10.544 0 3.912.688 6.725 2.102 8.6 1.329 1.763 4.679 2.563 7.229 2.563 2.809 0 5.42-.836 6.816-2.181 1.626-1.568 2.56-4.844 2.56-8.982 0-7.095-3.06-10.544-9.354-10.544z" class="C"/><path d="M46.79 66.409c-5.468 0-7.505-4.604-7.505-7.506 0-6.824 4.093-8.258 7.527-8.258 4.966 0 7.484 2.778 7.484 8.258 0 2.787-1.582 7.506-7.506 7.506z" class="B"/><path d="M46.812 51.145c3.869 0 6.984 1.725 6.984 7.758 0 2.938-1.725 7.006-7.006 7.006s-7.005-4.51-7.005-7.006c0-5.9 3.158-7.758 7.027-7.758h0zm0-1c-5.176 0-8.027 3.11-8.027 8.758 0 3.096 2.173 8.006 8.005 8.006 5.5 0 8.006-4.15 8.006-8.006 0-5.728-2.761-8.758-7.984-8.758h0z" class="C"/></svg>