<svg id="Layer_1" data-name="Layer 1" xmlns="http://www.w3.org/2000/svg" viewBox="0 0 190.04 157.17" width="226" height="226"><defs><style>.cls-1{fill:#81635e;}.cls-2,.cls-3{fill:#414342;}.cls-3{opacity:0.25;isolation:isolate;}.cls-4{fill:#e0e0e0;}.cls-5{fill:#cecece;stroke-linecap:round;}.cls-10,.cls-5,.cls-6,.cls-7,.cls-8,.cls-9{stroke:#414342;}.cls-5,.cls-8,.cls-9{stroke-linejoin:round;}.cls-5,.cls-7,.cls-8{stroke-width:2.02px;}.cls-10,.cls-6,.cls-7{fill:none;stroke-miterlimit:10;}.cls-6{stroke-width:1.86px;}.cls-11,.cls-8,.cls-9{fill:#595959;}.cls-9{stroke-width:1.79px;}.cls-10{stroke-width:0.67px;}</style></defs><path class="cls-1" d="M9.42,54.31a1.06,1.06,0,0,1-1-1l-.4-6a1.1,1.1,0,0,1,.26-.76L28,22.85a1.06,1.06,0,0,1,.8-.37,1.08,1.08,0,0,1,.81.37L49.42,46.56a1.1,1.1,0,0,1,.21.94l-1.43,6a1.08,1.08,0,0,1-1,.81Z" transform="translate(-0.05)"/><path class="cls-2" d="M28.8,23.53h0L48.57,47.24h0l-1.43,6H9.42l-.39-6H9L28.8,23.52h0m0-2a2.05,2.05,0,0,0-1.58.74L7.45,46A2.17,2.17,0,0,0,7,47.43l.4,6a2.06,2.06,0,0,0,2,1.93H47.09a2.09,2.09,0,0,0,2-1.59l1.43-6A2.16,2.16,0,0,0,50.1,46L30.33,22.25a2.16,2.16,0,0,0-1.59-.74Z" transform="translate(-0.05)"/><path class="cls-1" d="M75.65,32.84a1.08,1.08,0,0,1-1.05-1l-.39-6a1.09,1.09,0,0,1,.23-.72L94.22,1.38a1.07,1.07,0,0,1,1.51-.11l.11.11L115.6,25.1a1.1,1.1,0,0,1,.22.92l-1.43,6a1.09,1.09,0,0,1-1,.81Z" transform="translate(-0.05)"/><path class="cls-2" d="M95,2h0l19.76,23.72h0l-1.43,6H75.65l-.4-6h0L95,2h0m0-2a2.12,2.12,0,0,0-1.59.75L73.71,24.46a2.1,2.1,0,0,0-.48,1.46l.39,6a2.06,2.06,0,0,0,2.06,1.92H113.4a2.08,2.08,0,0,0,2-1.58l1.43-6a2.09,2.09,0,0,0-.42-1.8L96.61.75A2.06,2.06,0,0,0,95,0Z" transform="translate(-0.05)"/><path class="cls-1" d="M142,54.31a1.06,1.06,0,0,1-1-1l-.4-6a1.14,1.14,0,0,1,.23-.73l19.78-23.73a1.1,1.1,0,0,1,.81-.37,1.08,1.08,0,0,1,.81.37L182,46.56a1.09,1.09,0,0,1,.21.94l-1.42,6a1.08,1.08,0,0,1-1,.81Z" transform="translate(-0.05)"/><path class="cls-2" d="M161.38,23.53h0l19.77,23.71h0l-1.44,6.07H142l-.4-6h0l19.77-23.72h0m0-2a2.05,2.05,0,0,0-1.58.74L140,46.05a2.07,2.07,0,0,0-.48,1.45l.39,6A2.07,2.07,0,0,0,142,55.43h37.72a2.08,2.08,0,0,0,2-1.58l1.44-6a2.16,2.16,0,0,0-.42-1.8L163,22.33a2.16,2.16,0,0,0-1.59-.74Z" transform="translate(-0.05)"/><polygon class="cls-3" points="28.73 23.53 42.54 54.53 44.32 54.5 43.91 51.36 44.38 43.6 46.74 43.53 28.73 23.53"/><rect class="cls-4" x="71.98" y="45.13" width="46.07" height="45.03" rx="1.01"/><path class="cls-2" d="M117.1,46.15v43h-44v-43H117.1m0-2h-44a2,2,0,0,0-2,2v43a2,2,0,0,0,2,2H117.1a2,2,0,0,0,2-2v-43A2,2,0,0,0,117.1,44.15Z" transform="translate(-0.05)"/><path class="cls-4" d="M55.71,156.07a1,1,0,0,1-1-1L52.46,80.88a1,1,0,0,1,1-1H65.36a1,1,0,0,1,1,1v9h9.87v-9a1,1,0,0,1,1-1h11.9a1,1,0,0,1,1,1v9H100v-9a1,1,0,0,1,1-1h11.9a1,1,0,0,1,1,1v9h9.87v-9a1,1,0,0,1,1-1h11.94a1,1,0,0,1,1,1l-2.28,74.21a1,1,0,0,1-1,1Z" transform="translate(-0.05)"/><path class="cls-2" d="M136.71,80.87h0m0,0-2.29,74.21H55.69L53.44,80.89H65.33v10h11.9v-10h11.9v10H101v-10h11.9v10h11.89v-10h11.9m0-2h-11.9a2,2,0,0,0-2,2v8H115v-8a2,2,0,0,0-2-2h-11.9a2,2,0,0,0-2,2v8H91.21v-8a2,2,0,0,0-2-2H77.31a2,2,0,0,0-2,2v8H67.46v-8a2,2,0,0,0-2-2h-12a2,2,0,0,0-2,2.08l2.28,74.15a2,2,0,0,0,2,2h78.73a2,2,0,0,0,2-2L138.72,81v-.17a2,2,0,0,0-2-2Z" transform="translate(-0.05)"/><path class="cls-5" d="M90.26,80.41" transform="translate(-0.05)"/><path class="cls-4" d="M2.05,156.09a1,1,0,0,1-1-1,.53.53,0,0,1,0-.13L4.83,68.31,1.21,63.26a1.09,1.09,0,0,1-.19-.6V44.46a1,1,0,0,1,1-1H12.74a1,1,0,0,1,1,1v9.6h8.71v-9.6a1,1,0,0,1,1-1H34.18a1,1,0,0,1,.72.3,1,1,0,0,1,.29.71v9.6h8.72v-9.6a1,1,0,0,1,1-1h10.8a1,1,0,0,1,1,1V62.64a1,1,0,0,1-.2.6L52.9,68.31,56.71,155a1,1,0,0,1-.92,1.08H2.05Z" transform="translate(-0.05)"/><path class="cls-2" d="M2.06,44.46H12.78V55.07H23.52V44.46H34.25V55.07H45V44.48H55.71V62.65h0L51.88,68h0l3.83,87.08H2.05L5.88,68h0L2.05,62.67h0V44.46m53.66,0h0m-53.66-2a2,2,0,0,0-2,2v18.2a2.07,2.07,0,0,0,.39,1.2l3.42,4.76L.06,155a2,2,0,0,0,.54,1.48,2.07,2.07,0,0,0,1.5.65H55.71a2.07,2.07,0,0,0,1.5-.65,2,2,0,0,0,.54-1.48h0L54,68.62l3.42-4.77a2,2,0,0,0,.39-1.19V44.48a2,2,0,0,0-2-2H45a2,2,0,0,0-2,2v8.58H36.3V44.49a2,2,0,0,0-2-2H23.52a2,2,0,0,0-2,2V53H14.83V44.47a2,2,0,0,0-2-2H2.05Z" transform="translate(-0.05)"/><path class="cls-4" d="M134.46,156.07a1.12,1.12,0,0,1-.77-.34,1,1,0,0,1-.26-.78l3.81-86.64-3.63-5.05v-.09a1,1,0,0,1-.14-.51V44.47a1,1,0,0,1,1-1h10.72a1,1,0,0,1,1,1v9.59h8.72V44.47a1,1,0,0,1,1-1h10.8a1,1,0,0,1,.72.3,1,1,0,0,1,.29.71v9.59h8.71V44.48a1,1,0,0,1,1-1h10.72a1,1,0,0,1,.72.3,1,1,0,0,1,.29.71V62.66a1.14,1.14,0,0,1-.13.51l-.06.09-3.67,5.05L189.12,155a1,1,0,0,1-.92,1.08h-.08Z" transform="translate(-0.05)"/><path class="cls-2" d="M134.47,44.44h10.71V55.05h10.73V44.46h10.8V55.07h10.73V44.46h10.72V62.63h0L184.33,68h0L188.16,155h-53.7l3.84-87h0l-3.82-5.33h0V44.44m53.65,0h0m-53.66-2a2,2,0,0,0-2,2v18.2a2.07,2.07,0,0,0,.39,1.2l3.41,4.76L132.47,155a2,2,0,0,0,1.87,2.13h53.75a2,2,0,0,0,2-2V155h0l-3.8-86.36,3.42-4.77a2,2,0,0,0,.38-1.19V44.47a2,2,0,0,0-2-2H177.4a2,2,0,0,0-2,2v8.58h-6.69V44.47a2,2,0,0,0-2-2H155.92a2,2,0,0,0-2,2v8.58h-6.69V44.47a2,2,0,0,0-2-2H134.51Z" transform="translate(-0.05)"/><line class="cls-6" x1="53.32" y1="68.89" x2="5.26" y2="68.89"/><line class="cls-7" x1="137.59" y1="69.04" x2="184.45" y2="69.04"/><path class="cls-8" d="M28.78,87.07a5.26,5.26,0,0,0-5,5.38v11.48H34V92.31a5.14,5.14,0,0,0-5-5.24Z" transform="translate(-0.05)"/><path class="cls-8" d="M161.17,87.07a5.27,5.27,0,0,0-5,5.38v11.48h10.18V92.31a5.16,5.16,0,0,0-5.06-5.24Z" transform="translate(-0.05)"/><path class="cls-9" d="M94.71,55.45a4.66,4.66,0,0,0-4.42,4.76v10.1h9V60a4.54,4.54,0,0,0-4.49-4.59Z" transform="translate(-0.05)"/><path class="cls-10" d="M45.23,68.9" transform="translate(-0.05)"/><path class="cls-3" d="M1.36,148.17,1,155.84H57L53,69.06l-8.2-.16,1.81,77.41a1.81,1.81,0,0,1-1.76,1.86H1.36Z" transform="translate(-0.05)"/><path class="cls-3" d="M133.61,148.17l-.39,7.67h56.07l-4.06-86.78L177,68.9l1.82,77.67a1.56,1.56,0,0,1-1.52,1.6H133.61Z" transform="translate(-0.05)"/><polygon class="cls-3" points="117.98 89.8 113.83 89.82 113.72 79.66 110.79 79.66 110.79 47.46 118.01 47.46 117.98 89.8"/><path class="cls-3" d="M127.24,79.91l-2.38,66.56a1.79,1.79,0,0,1-1.78,1.7H56.33V156H134v-7.82h-.39l3.14-68.37Z" transform="translate(-0.05)"/><path class="cls-11" d="M82.46,156.09v-28.8c0-7.64,5.54-13.94,12.35-14.06H95c6.92,0,12.56,6.1,12.56,13.6V156.1H82.46Z" transform="translate(-0.05)"/><path class="cls-2" d="M95,114.19c6.38,0,11.54,5.64,11.54,12.59V155h-23v-27.8c0-7,5-12.94,11.36-13h.18m0-2h-.22c-7.36.13-13.35,6.88-13.35,15.07v27.8a2.06,2.06,0,0,0,2.06,2.06h23a2.06,2.06,0,0,0,2.06-2.06V126.78c0-8.06-6.09-14.61-13.57-14.61Z" transform="translate(-0.05)"/><polygon class="cls-3" points="114.14 25.36 122.54 24.6 123.04 41.48 118.01 47.46 110.29 47.46 114.08 41.1 114.14 25.36"/><polygon class="cls-3" points="48.11 43.71 56.34 43.54 56.89 63.09 51.86 69.07 44.15 69.07 47.93 62.72 48.11 43.71"/><path class="cls-4" d="M72,47.43a1,1,0,0,1-.82-.42l-3.83-5.33a1.09,1.09,0,0,1-.19-.6V22.88a1,1,0,0,1,1-1H78.83a1,1,0,0,1,1,1v9.59h8.71V22.91a1,1,0,0,1,1-1h10.73a1,1,0,0,1,1,1V32.5H110V22.91a1,1,0,0,1,1-1h10.73a1,1,0,0,1,.71.29,1,1,0,0,1,.3.72V41.09a1,1,0,0,1-.14.51l-.06.09L118.71,47a1,1,0,0,1-.83.42Z" transform="translate(-0.05)"/><path class="cls-2" d="M68.16,22.89H78.88v10.6H89.61V22.89h10.73v10.6h10.74V22.91h10.73V41.08h0L118,46.41H72l-3.83-5.33h0V22.89m53.66,0h0M68.15,20.84a2,2,0,0,0-2,2V41a2,2,0,0,0,.39,1.19l3.82,5.33A2,2,0,0,0,72,48.4h46a2,2,0,0,0,1.65-.84l3.82-5.33a2,2,0,0,0,.39-1.19V22.91a2,2,0,0,0-2-2H111.09a2,2,0,0,0-2,2v8.58H102.4V22.91a2,2,0,0,0-2-2H89.62a2,2,0,0,0-2,2v8.58H80.93V22.91a2,2,0,0,0-2-2H68.22Z" transform="translate(-0.05)"/><polygon class="cls-3" points="180.51 43.69 188.74 43.52 189.3 63.07 184.27 69.05 176.55 69.05 180.33 62.7 180.51 43.69"/><polygon class="cls-3" points="114.27 21.92 122.51 21.75 123.06 41.31 118.03 47.28 110.31 47.28 114.1 40.93 114.27 21.92"/><polygon class="cls-3" points="94.97 2.01 108.78 33.02 110.56 32.98 110.16 29.84 110.63 22.08 112.99 22.02 94.97 2.01"/><polygon class="cls-3" points="161.32 23.51 175.13 54.52 176.91 54.48 176.5 51.34 176.97 43.58 179.33 43.52 161.32 23.51"/></svg>