<svg version="1.1" id="dice_x5F_darkred_x5F_2-regular-active" xmlns="http://www.w3.org/2000/svg" xmlns:xlink="http://www.w3.org/1999/xlink" x="0" y="0" width="200" height="200" xml:space="preserve"><style><![CDATA[.st0{fill:#ABACAB}.st1{fill:#4C4C4C}.st2{fill:#4F3026}.st3{fill:#81635E}.st4{fill:#424242;stroke:#331704;stroke-width:4;stroke-miterlimit:10}.st5{fill:#595959}.st7{fill:#F2F2F2}.st8{fill:#595959;stroke:#414342;stroke-linecap:round;stroke-linejoin:round;stroke-miterlimit:10}.st9{fill:#5E2121}.st11{fill:url(#SVGID_2_)}.st12{fill:url(#SVGID_3_)}.st13{fill:url(#SVGID_4_)}.st14{fill:url(#SVGID_5_)}.st15{fill:url(#SVGID_6_)}.st16{fill:url(#SVGID_7_)}.st17{fill:url(#SVGID_8_)}.st18{fill:#2D2621}.st19{fill:none}.st20{fill:#686868}.st21{fill:#9CBBD0}.st22{fill:#CECECE}.st23{fill:#331704}.st24{fill:#3A312B}.st25{opacity:0.5;fill:#492424}.st26{fill:#715B57}.st27{fill:none;stroke:#414342;stroke-width:2;stroke-miterlimit:10}.st28{fill:#414342}.st29{fill:#414343}.st30{fill:#272727;stroke:#151515;stroke-width:4;stroke-miterlimit:10}]]></style><g id="dice_x5F_trade"><image width="833" height="833" xlink:href="FB8E5B3E.png" transform="matrix(.24 0 0 .24 2.669 2.669)" overflow="visible" opacity=".33"/><radialGradient id="SVGID_1_" cx="98.603" cy="98.604" r="89.935" gradientUnits="userSpaceOnUse"><stop offset="0" stop-color="#fbe678"/><stop offset="1" stop-color="#e3c62b"/></radialGradient><path d="M167.684 188.539H29.524c-11.471 0-20.855-9.385-20.855-20.855V29.524c0-11.471 9.385-20.855 20.855-20.855h138.159c11.471 0 20.855 9.385 20.855 20.855v138.159c.001 11.471-9.384 20.856-20.854 20.856z" fill="url(#SVGID_1_)"/><path d="M167.684 8.669c11.471 0 20.855 9.385 20.855 20.855v138.159c0 11.471-9.385 20.855-20.855 20.855H29.524c-11.471 0-20.855-9.385-20.855-20.855V29.524c0-11.471 9.385-20.855 20.855-20.855h138.16m0-4H29.524c-13.705 0-24.855 11.15-24.855 24.855v138.159c0 13.706 11.15 24.855 24.855 24.855h138.159c13.705 0 24.855-11.15 24.855-24.855V29.524c.001-13.705-11.149-24.855-24.854-24.855z" fill="#223948"/></g></svg>