<svg xmlns="http://www.w3.org/2000/svg" xmlns:xlink="http://www.w3.org/1999/xlink" width="200" height="200"><style>.st0{fill:#494949}.st6{fill:#223948}.st8{fill:#f5f5f5}.st19{opacity:.5}</style><g id="dice_x5F_darkred_x5F_2-regular-active"><g id="dice_x5F_red_x5F_6_x5F_active"><image width="833" height="833" xlink:href="6D5A1982.png" transform="matrix(.24 0 0 .24 2.669 2.669)" overflow="visible" opacity=".33"/><radialGradient id="SVGID_1_" cx="98.603" cy="98.604" r="89.935" gradientUnits="userSpaceOnUse"><stop offset=".181" stop-color="#fe404d"/><stop offset=".894" stop-color="#e52c2a"/></radialGradient><path d="M167.684 188.539H29.524c-11.471 0-20.855-9.385-20.855-20.855V29.524c0-11.471 9.385-20.855 20.855-20.855h138.159c11.47 0 20.854 9.385 20.854 20.855v138.159c.001 11.471-9.384 20.856-20.853 20.856z" fill="url(#SVGID_1_)"/><path class="st6" d="M167.684 8.669c11.47 0 20.854 9.385 20.854 20.855v138.159c0 11.471-9.385 20.855-20.854 20.855H29.524c-11.471 0-20.855-9.385-20.855-20.855V29.524c0-11.471 9.385-20.855 20.855-20.855h138.16m0-4H29.524c-13.705 0-24.855 11.15-24.855 24.855v138.159c0 13.706 11.15 24.855 24.855 24.855h138.159c13.705 0 24.854-11.15 24.854-24.855V29.524c.001-13.705-11.148-24.855-24.853-24.855z"/><g><g id="_x31__81_"><path class="st8" d="M153.04 62.531c-10.667 0-19.345-8.678-19.345-19.345s8.678-19.345 19.345-19.345 19.345 8.678 19.345 19.345-8.678 19.345-19.345 19.345z"/><path class="st6" d="M153.04 24.592c10.27 0 18.595 8.325 18.595 18.595s-8.325 18.595-18.595 18.595-18.595-8.325-18.595-18.595 8.326-18.595 18.595-18.595m0-1.5c-11.08 0-20.095 9.015-20.095 20.095s9.015 20.095 20.095 20.095 20.095-9.015 20.095-20.095-9.015-20.095-20.095-20.095z"/></g><g id="_x31__79_" class="st19"><path class="st0" d="M168.761 33.255c.854 1.353 1.112 2.093 1.223 2.262.424.647-9.51-13.289-24.175-4.119-13.551 8.474-7.326 23.203-7.019 23.735.071.123-.438-.382-1.467-2.01-5.486-8.682-2.896-20.166 5.785-25.653 8.681-5.486 20.166-2.896 25.653 5.785z"/></g><g id="_x31__77_"><path class="st8" d="M42.203 174.098c-10.667 0-19.345-8.679-19.345-19.346 0-10.666 8.678-19.344 19.345-19.344s19.345 8.678 19.345 19.344c0 10.667-8.678 19.346-19.345 19.346z"/><path class="st6" d="M42.203 136.158c10.27 0 18.595 8.325 18.595 18.594 0 10.271-8.325 18.596-18.595 18.596s-18.595-8.325-18.595-18.596c0-10.269 8.326-18.594 18.595-18.594m0-1.5c-11.08 0-20.095 9.014-20.095 20.094 0 11.081 9.015 20.096 20.095 20.096s20.095-9.015 20.095-20.096c0-11.08-9.015-20.094-20.095-20.094z"/></g><g id="_x31__75_" class="st19"><path class="st0" d="M57.924 144.821c.854 1.352 1.112 2.093 1.223 2.262.424.647-9.51-13.289-24.175-4.119-13.551 8.474-7.326 23.203-7.019 23.735.071.123-.438-.383-1.466-2.011-5.487-8.681-2.897-20.166 5.784-25.652s20.167-2.896 25.653 5.785z"/></g><g id="_x31__73_"><path class="st8" d="M42.203 62.531c-10.667 0-19.345-8.678-19.345-19.345s8.678-19.345 19.345-19.345 19.345 8.678 19.345 19.345-8.678 19.345-19.345 19.345z"/><path class="st6" d="M42.203 24.592c10.27 0 18.595 8.325 18.595 18.595s-8.325 18.595-18.595 18.595-18.595-8.325-18.595-18.595 8.326-18.595 18.595-18.595m0-1.5c-11.08 0-20.095 9.015-20.095 20.095s9.015 20.095 20.095 20.095 20.095-9.015 20.095-20.095-9.015-20.095-20.095-20.095z"/></g><g id="_x31__71_" class="st19"><path class="st0" d="M57.924 33.255c.854 1.353 1.112 2.093 1.223 2.262.424.647-9.51-13.289-24.175-4.119-13.551 8.474-7.326 23.203-7.019 23.735.071.123-.438-.382-1.466-2.01C21 44.441 23.59 32.957 32.271 27.47c8.682-5.486 20.167-2.896 25.653 5.785z"/></g><g id="_x31__69_"><path class="st8" d="M153.04 174.098c-10.667 0-19.345-8.679-19.345-19.346 0-10.666 8.678-19.344 19.345-19.344s19.345 8.678 19.345 19.344c0 10.667-8.678 19.346-19.345 19.346z"/><path class="st6" d="M153.04 136.158c10.27 0 18.595 8.325 18.595 18.594 0 10.271-8.325 18.596-18.595 18.596s-18.595-8.325-18.595-18.596c0-10.269 8.326-18.594 18.595-18.594m0-1.5c-11.08 0-20.095 9.014-20.095 20.094 0 11.081 9.015 20.096 20.095 20.096s20.095-9.015 20.095-20.096c0-11.08-9.015-20.094-20.095-20.094z"/></g><g id="_x31__65_" class="st19"><path class="st0" d="M168.761 144.821c.854 1.352 1.112 2.093 1.223 2.262.424.647-9.51-13.289-24.175-4.119-13.551 8.474-7.326 23.203-7.019 23.735.071.123-.438-.383-1.467-2.011-5.486-8.681-2.896-20.166 5.785-25.652s20.166-2.896 25.653 5.785z"/></g><g id="_x31__59_"><path class="st8" d="M42.423 118.531c-10.667 0-19.345-8.678-19.345-19.345s8.678-19.345 19.345-19.345 19.345 8.678 19.345 19.345-8.678 19.345-19.345 19.345z"/><path class="st6" d="M42.423 80.592c10.27 0 18.595 8.325 18.595 18.595s-8.325 18.595-18.595 18.595-18.595-8.325-18.595-18.595 8.325-18.595 18.595-18.595m0-1.5c-11.08 0-20.095 9.015-20.095 20.095s9.015 20.095 20.095 20.095 20.095-9.015 20.095-20.095-9.015-20.095-20.095-20.095z"/></g><g id="_x31__49_" class="st19"><path class="st0" d="M58.144 89.255c.854 1.353 1.112 2.093 1.223 2.262.424.647-9.511-13.289-24.175-4.119-13.551 8.474-7.326 23.203-7.019 23.735.071.123-.438-.382-1.467-2.01-5.486-8.682-2.896-20.166 5.785-25.653 8.681-5.486 20.166-2.896 25.653 5.785z"/></g><g><g id="_x31__32_"><path class="st8" d="M153.423 118.098c-10.667 0-19.345-8.679-19.345-19.346 0-10.666 8.678-19.344 19.345-19.344s19.345 8.678 19.345 19.344c0 10.667-8.678 19.346-19.345 19.346z"/><path class="st6" d="M153.423 80.158c10.27 0 18.595 8.325 18.595 18.594 0 10.271-8.325 18.596-18.595 18.596s-18.595-8.325-18.595-18.596c0-10.269 8.325-18.594 18.595-18.594m0-1.5c-11.08 0-20.095 9.014-20.095 20.094 0 11.081 9.015 20.096 20.095 20.096s20.095-9.015 20.095-20.096c0-11.08-9.015-20.094-20.095-20.094z"/></g><g id="_x31__1_" class="st19"><path class="st0" d="M169.144 88.821c.854 1.352 1.112 2.093 1.223 2.262.424.647-9.511-13.289-24.175-4.119-13.551 8.474-7.326 23.203-7.019 23.735.071.123-.438-.383-1.467-2.011-5.486-8.681-2.896-20.166 5.785-25.652 8.681-5.486 20.166-2.896 25.653 5.785z"/></g></g></g></g></g></svg>