<svg xmlns="http://www.w3.org/2000/svg" width="113" height="113" fill="none" xmlns:v="https://vecta.io/nano"><path d="M54.076 4.016c9.604 0 19.265 2.537 22.04 6.589 2.216 3.236 24.103 75.365 24.441 79.213.451 5.128-10.924 17.976-45.062 17.976-.514 0-1.031-.003-1.556-.009-37.252-.418-42.413-15.775-42.246-20.475.148-4.186 17.153-71.04 22.091-76.942 3.729-4.453 11.991-6.351 20.293-6.351zM54.077 0C49.012 0 36.6.759 30.722 7.785c-.949 1.133-3.834 4.583-13.638 40.64-3.864 14.212-9.276 35.581-9.388 38.742-.054 1.491.181 6.784 5.416 12.292 7.575 7.97 21.297 12.122 40.782 12.342l1.601.009c29.745 0 41.569-9.44 45.271-13.499 2.679-2.936 4.02-6.078 3.776-8.846-.302-3.43-10.515-36.861-11.678-40.662C81.334 11.136 79.888 9.024 79.413 8.329 75.2 2.181 63.132 0 54.077 0z" fill="#000"/><path d="M53.923 109.291c-23.4-.263-34.125-6.434-39.002-11.565-3.624-3.813-4.817-7.908-4.727-10.471.134-3.772 17.087-71.456 22.441-77.857C37.838 3.18 49.362 2.51 54.075 2.51c8.821 0 19.868 2.266 23.276 7.241 2.712 3.961 24.405 76.59 24.7 79.935.181 2.059-.931 4.52-3.13 6.93-3.479 3.814-14.676 12.684-43.428 12.684a138.55 138.55 0 0 1-1.57-.009z" fill="#ffccd9"/><path d="M54.076 4.016c9.604 0 19.265 2.537 22.04 6.589 2.216 3.237 24.103 75.365 24.441 79.213.45 5.128-10.924 17.976-45.062 17.976-.514 0-1.031-.003-1.556-.009-37.252-.418-42.413-15.775-42.246-20.475.148-4.186 17.153-71.04 22.091-76.942 3.729-4.453 11.99-6.351 20.293-6.351zm.002-2.698h-.002c-4.923 0-16.98.567-22.589 7.269-2.451 2.929-6.972 16.397-13.439 40.181-4.344 15.979-9.254 35.688-9.353 38.475-.05 1.391.175 6.32 5.14 11.543 5.076 5.34 16.148 11.753 40.071 12.022l1.589.004c29.349 0 40.921-9.215 44.534-13.175 2.486-2.726 3.736-5.597 3.518-8.082-.298-3.385-11.175-38.944-11.638-40.456-5.239-17.117-11.803-37.827-13.32-40.043-3.736-5.454-15.003-7.738-24.511-7.738z" fill="#ec537a"/><path opacity=".6" d="M34.092 9.954c-1.266 1.713-.461 9.027 16.544 10.159 17.29 1.148 18.255-1.832 18.755-1.492l19.649 83.116s10.246-4.506 11.497-10.949c.287-1.485-1.334-5.928-4.168-16.064-2.949-10.549-8.225-26.654-12.332-40.488-5.168-17.399-8.002-23.645-8.002-23.645s-4.101-6.173-20.417-6.522C40.598 3.745 35.358 8.24 34.092 9.954z" fill="#ff799b"/></svg>