<svg xmlns="http://www.w3.org/2000/svg" width="226" height="226"><style>.st2{fill:#4c4c4c}.st3{fill:#4f3026}.st14{fill:#f2f2f2}.st25{fill:#2d2621}.st33{fill:#686868}.st35{fill:#331704}</style><g id="icon_x5F_barbarian_x5F_ship"><path d="M177.839 93.707c8.291-37.406 21.733-46.916 22.05-52.76-.423-2.445-7.535-.467-11.794-1.229-19.735-3.534-39.375-7.584-59.055-11.399-1.208-.234-2.448-.386-3.347-.852-.223.031-.445.063-.665.097.002.854-.006 1.705-.062 2.553l53.983 10.499c-.021.184-.04.366-.062.549l-54.091 4.717s-4.705.539-7.08.534v.06c-11.675 1.025-23.288 2.047-34.898 3.066l-.202-.631 34.278-17.616c-.01-.816-.012-1.626.05-2.426a.6.6 0 00-.006-.086 54.11 54.11 0 00-.912.142c-.903.555-1.963.999-2.943 1.501-9.758 5.01-19.523 10.011-29.28 15.02-5.163 2.648-10.063 6.053-16.916 5.199.768 37.321-13.229 68.703 5.75 100.021 1.741-13.218 71.879-5.518 83.205-1.491 3.967 1.411 22.649 5.182 22.635 4.894-.039-.893-6.08-41.548-.638-60.362z" fill="#424242" stroke="#331704" stroke-width="7" stroke-miterlimit="10"/><path d="M203.033 144.227c-.817-7.939-3.175-15.718-4.712-23.594-.21-1.071.138-2.564.8-3.43 1.475-1.931 2.501-3.773 1.094-6.104-.245-.402-.602-.783-1.038-1.134-1.342-2.21-8.649-3.057-11.05-2.126-2.719 1.055-2.9 2.06-2.636 4.278.397 3.335 1.09 6.635 1.709 9.94 1.7 9.116 5.835 22.792-.036 30.364a6.396 6.396 0 01-.53.356c-3.948 2.287-10.362 4.341-18.177 6.022-1.985-1.865-4.614-2.989-7.642-3.035-4.599-.067-9.054 2.368-12.13 6.154a254 254 0 01-6.902.664c-2.005-3.329-5.447-5.479-9.661-5.542-4.669-.07-9.192 2.443-12.273 6.332a161.51 161.51 0 01-5.87-.285c-1.753-4.325-5.624-7.248-10.548-7.323-4.132-.061-8.147 1.9-11.153 5.047-8.738-1.165-17.392-2.521-24.775-3.648-4.91-3.902-9.308-8.583-13.319-14.169-5.989-8.344-10.511-17.272-10.766-27.805-.128-5.251.567-5.979 5.595-7.195.157-.038.287-.194.601-.416l-.689-7.335c1.22-.175 2.169-.311 4.094-.585-4.284-4.178-7.834-8.019-11.786-11.389-3.969-3.388-6.838-3.545-10.26.384-3.092 3.551-6.275 4.679-10.58 3.853-.112-.021-.274.218-.276.22 0 2.914.165 5.718-.042 8.496-.248 3.292-1.156 6.295-5.342 6.488 3.269 6.555 6.392 6.97 10.974 1.659 1.113-1.292 2.143-2.652 3.494-4.333.229 2.244.35 3.91.579 5.563.592 4.264.527 8.236-2.914 11.608-1.485 1.456-2.338 3.592-3.352 5.487-14.646 27.398-4.66 59.514 22.788 73.176.826.412 2.35.709 2.955.803 86.276 10.662 125.412-2.717 141.856-19.539.062-.009 9.89-9.798 11.146-17.578 1.074-6.661 1.462-13.638.774-20.329z" fill="#272727" stroke="#151515" stroke-width="7" stroke-miterlimit="10"/><path class="st35" d="M121.175 194.934a5.265 5.265 0 01-5.259-5.259V24.276c0-2.9 2.359-5.259 5.259-5.259 2.9 0 5.26 2.359 5.26 5.259v165.398c0 2.9-2.36 5.26-5.26 5.26z"/><path class="st35" d="M121.175 20.518a3.76 3.76 0 013.76 3.759v165.398a3.76 3.76 0 01-7.519 0V24.276a3.759 3.759 0 013.759-3.758m0-3a6.767 6.767 0 00-6.759 6.759v165.398a6.767 6.767 0 006.759 6.759 6.767 6.767 0 006.76-6.759V24.276c0-3.727-3.033-6.758-6.76-6.758z"/><path class="st3" d="M124.841 189.957a3.759 3.759 0 01-3.759 3.759 3.758 3.758 0 01-3.759-3.759V24.558a3.759 3.759 0 017.518 0v165.399z"/><path d="M177.839 93.707c8.291-37.406 21.733-46.916 22.05-52.76-.423-2.445-7.535-.467-11.794-1.229-19.735-3.534-39.375-7.584-59.055-11.399-1.208-.234-2.448-.386-3.347-.852-.223.031-.445.063-.665.097.002.854-.006 1.705-.062 2.553l53.983 10.499c-.021.184-.04.366-.062.549l-54.091 4.717s-4.705.539-7.08.534v.06c-11.675 1.025-23.288 2.047-34.898 3.066l-.202-.631c11.323-5.82 20.635-10.703 32.26-16.677-.01-.773.251-2.865-.052-2.817-.902.556-.761.506-1.741 1.008-9.758 5.01-19.523 10.011-29.28 15.02-5.163 2.648-10.063 6.053-16.916 5.199.768 37.321-13.229 68.703 5.75 100.021 1.741-13.218 71.879-5.518 83.205-1.491 3.967 1.411 22.649 5.182 22.635 4.894-.039-.892-6.08-41.547-.638-60.361z" fill="#5e2121"/><path class="st3" d="M114.825 29.416c-.902.556-.761.506-1.741 1.008-9.758 5.01-19.523 10.011-29.28 15.02-2.989 1.534-5.902 3.293-9.147 4.359 0 0 5.396.076 5.896-.013.066-.034 2.948-.266 3.016-.296a.624.624 0 01.054-.023c-.267.023-.938-.352-1.005-.562 11.323-5.82 20.635-10.703 32.26-16.677-.011-.772.25-2.864-.053-2.816zM178.9 41.044c3.603-.505 8.514-1.258 9.131-1.338-19.712-3.53-39.333-7.575-58.991-11.387-1.208-.234-2.448-.386-3.347-.852-.223.031-.445.063-.665.097.002.854-.006 1.705-.062 2.553l53.983 10.499c-.015.141-.032.285-.049.428z"/><path class="st14" d="M89.807 98.554c.629-10.356 2.331-20.678 3.834-30.933.615-4.202 1.026-8.479 1.944-12.626.329-1.485.685-2.971.947-4.47-.036.098.137-1.351.135-1.488a13.243 13.243 0 01-.013-.321c-.017-.127-.026-.257-.04-.386-3.831.335-7.662.672-11.489 1.009-1.51.184-3.034.32-4.561.44 1.091 3.739-5.477 56.62-5.165 63.905.798 18.598 5.569 29.458 6.45 31.146 3.5-.754 7.799-1.205 12.556-1.419-3.324-14.717-5.513-29.799-4.598-44.857zM170.078 60.56c3.592-6.761 7.736-13.187 11.867-19.621-1.22.114-2.439.214-3.655.276-8.704.759-17.408 1.52-26.135 2.279-.544 4.71-2.35 8.994-3.924 13.483-1.779 5.074-3.39 10.214-4.643 15.445-2.551 10.638-3.478 21.375-3.388 32.308.111 14.055 1.672 27.987 3.519 41.894 5.604.869 9.95 1.776 12.123 2.549.949.337 2.751.812 4.932 1.333a95.448 95.448 0 01-2.468-10.561c-2.464-14.048-2.447-27.947-.207-42.023 2.077-13.062 5.751-25.651 11.979-37.362zM122.209 104.73c-.021-11.693.863-23.433 3.501-34.848a155.81 155.81 0 014.414-15.498c.92-2.683 2.501-6.332 3.434-9.265l-8.76.763s-4.705.539-7.08.534v.06l-4.729.415c.353 3.371-.198 6.69-.933 10.043-.821 3.772-1.385 7.536-1.941 11.358-1.347 9.238-2.79 18.471-3.604 27.776-1.402 16.023 1.139 31.888 4.87 47.418 4.691.203 9.442.533 14.019.944-1.744-13.183-3.168-26.398-3.191-39.7z"/><path d="M176.041 104.162c-11.873 5.519-24.306 10.011-36.933 13.142-15.956 3.959-32.741 6.374-49.217 5.753-9.008-.338-18.223-1.267-26.969-3.568.8 10.538 3.464 20.861 9.715 31.175 1.741-13.218 71.879-5.518 83.205-1.491 3.967 1.411 22.649 5.182 22.635 4.894-.033-.747-4.297-29.556-2.436-49.905z" opacity=".5" fill="#492424"/><path class="st25" d="M199.019 142.473c-.817-7.94-3.176-15.717-4.716-23.594-.207-1.071.145-2.563.803-3.428 1.473-1.933 5.291-3.157 3.882-5.486-1.337-2.21-8.649-3.057-11.052-2.126-2.716 1.055-2.899 2.06-2.635 4.278.399 3.335 1.092 6.635 1.71 9.94 1.744 9.353 6.056 23.51-.512 30.945-4.593 5.205-29.997 15.602-30.299 16.482 1.47.644 2.938 1.282 4.417 1.91-1.479-.623-2.955-1.247-4.433-1.868 0 .003-.002.005-.004.008 6.662 2.838 13.225 5.864 19.855 8.761 2.441.974 4.917 1.872 7.437 2.615a40.354 40.354 0 013.188-.61c5.85-4.27 10.328-9.72 11.584-17.499 1.074-6.66 1.461-13.634.775-20.328z"/><path class="st25" d="M192.908 148.01c-.922-.289-4.466 3.719-6.274 4.768-10.265 5.951-37.174 10.322-62.164 10.641-27.221.343-77.361-11.051-77.785-8.077-2.187 15.316 57.595 26.566 90.114 22.739 32.515-3.824 57.807-29.541 56.109-30.071z"/><path d="M203.033 144.227c-.817-7.939-3.175-15.718-4.712-23.594-.21-1.071.138-2.564.8-3.43 1.475-1.931 2.501-3.773 1.094-6.104-1.341-2.208-6.132-3.862-8.536-2.929-2.716 1.053-2.629 3.482-2.362 5.701.396 3.334 1.09 6.634 1.711 9.941 1.448 7.781 4.94 18.953 2.198 26.748-4.783 7.783-11.788 9.521-24.548 14.239-33.26 12.298-72.729 4.909-81.952 2.902-13.532-4.822-23.917-12.691-32.542-24.707-5.989-8.344-10.511-17.272-10.766-27.805-.128-5.251.567-5.979 5.595-7.195.157-.038.287-.194.601-.416l-.689-7.335c1.22-.175 2.169-.311 4.094-.585-4.284-4.178-7.834-8.019-11.786-11.389-3.969-3.388-6.838-3.545-10.26.384-3.092 3.551-6.275 4.679-10.58 3.853-.112-.021-.274.218-.276.22 0 2.914.165 5.718-.042 8.496-.248 3.292-1.156 6.295-5.342 6.488 3.269 6.555 6.392 6.97 10.974 1.659 1.113-1.292 2.143-2.652 3.494-4.333.229 2.244.35 3.91.579 5.563.592 4.264.527 8.236-2.914 11.608-1.485 1.456-2.338 3.592-3.352 5.487-14.646 27.398-4.66 59.514 22.788 73.176.826.412 2.35.709 2.955.803 86.276 10.662 125.412-2.717 141.856-19.539.062-.009 9.89-9.798 11.146-17.578 1.074-6.661 1.462-13.638.774-20.329z" fill="#3a312b"/><path class="st25" d="M177.795 185.101c-19.251 6.415-39.897 10.812-60.268 10.604-17.391-.18-51.371-2.852-82.634-24.144-6.55-4.461-12.529-9.842-18.223-15.384.77 18.502 11.265 35.645 29.44 44.691.826.412 2.351.709 2.956.803 86.274 10.662 125.412-2.717 141.857-19.539.022-.003 1.488-1.451 3.35-3.67-5.294 2.67-10.908 4.78-16.478 6.639z"/><path class="st2" d="M114.802 171.061c-1.292 8.334-8.478 14.997-16.046 14.885-7.57-.111-12.663-6.958-11.371-15.293 1.291-8.335 8.476-14.998 16.046-14.887 7.571.112 12.662 6.96 11.371 15.295z"/><path class="st33" d="M105.697 170.924c-.431 2.801-2.846 5.041-5.391 5.002-2.543-.036-4.255-2.338-3.822-5.14.435-2.799 2.851-5.038 5.394-5.002 2.545.04 4.256 2.34 3.819 5.14z"/><path class="st2" d="M143.493 172.336c-1.291 8.333-8.475 14.998-16.044 14.883-7.574-.11-12.664-6.958-11.373-15.291 1.294-8.335 8.476-14.999 16.046-14.886 7.571.112 12.661 6.96 11.371 15.294z"/><path class="st33" d="M134.391 172.199c-.433 2.802-2.847 5.04-5.393 5.003-2.545-.038-4.253-2.341-3.82-5.14.436-2.8 2.849-5.039 5.394-5.002 2.542.039 4.251 2.339 3.819 5.139z"/><path class="st2" d="M172.186 171.061c-1.292 8.334-8.478 14.997-16.045 14.885-7.573-.111-12.662-6.958-11.372-15.293 1.291-8.335 8.475-14.998 16.047-14.887 7.57.112 12.66 6.96 11.37 15.295z"/><path class="st33" d="M163.084 170.924c-.436 2.801-2.85 5.041-5.394 5.002-2.545-.036-4.254-2.338-3.821-5.14.434-2.799 2.85-5.038 5.395-5.002 2.545.04 4.252 2.34 3.82 5.14z"/></g></svg>