<svg version="1.1" id="Merchant-Icon" xmlns="http://www.w3.org/2000/svg" x="0" y="0" width="112.25" height="112.25" xml:space="preserve"><style><![CDATA[.st0{fill:#482402}.st1{fill:#7C7D80}.st2{opacity:0.6;fill:#3333FF}.st3{fill:#4F0066}.st4{fill:#4F4F4F}.st5{fill:#B35800}.st6{opacity:0.7;fill:#4DA45F}.st7{fill:#B85739}.st8{opacity:0.6;fill:#7003A3}.st9{opacity:0.6;fill:#70ABF1}.st10{fill:#8C0039}.st11{fill:#231F20}.st12{opacity:0.6;fill:#414042}.st13{clip-path:url(#SVGID_2_)}.st14{fill:#C1C1C1}.st15{fill:#FCD001}.st16{fill:#FF0000}.st18{fill:#FFFBF2}.st19{opacity:0.6;fill:#B30000}.st20{fill:none;stroke:#58595B;stroke-width:3;stroke-miterlimit:10}.st21{opacity:0.6;fill:#B8CCCC}.st22{fill:#6BB2B0}.st23{fill:#0000B2}.st24{fill:#0071BC}.st25{fill:#00AAFF}.st26{opacity:0.6;clip-path:url(#SVGID_2_);fill:#58595B}.st27{fill:#D04DF7}.st28{fill:#D1EBFF}.st29{fill:#D5D5D5}.st30{fill:#086800}.st32{opacity:0.6;fill:#F77C00}.st34{opacity:0.6;fill:#5E5E5E}.st35{fill:#A7A9AC}.st36{opacity:0.6;fill:#93320F}.st37{fill:#0EDD1D}.st38{fill:#414042}]]></style><g id="Orange"><path d="M53.907 4.554c9.758 0 19.604 2.553 22.204 6.447 2.171 3.253 24.102 75.072 24.44 78.905.45 5.108-10.924 17.906-45.06 17.906-.514 0-1.032-.003-1.556-.009-37.25-.417-42.411-15.714-42.244-20.396.148-4.17 17.152-70.764 22.09-76.643 3.683-4.384 11.873-6.21 20.126-6.21m-.157-4v4-4c-6 0-17.528.993-23.111 7.639-.949 1.129-3.795 4.565-13.598 40.482-3.864 14.156-9.256 35.442-9.368 38.591-.053 1.485.191 6.758 5.426 12.244 7.576 7.939 21.301 12.075 40.786 12.294.54.006 1.075.009 1.604.009 29.744 0 41.567-9.403 45.27-13.446 2.678-2.925 4.02-6.054 3.776-8.812-.299-3.387-10.529-36.707-11.694-40.495-7.65-24.862-12.238-38.414-13.483-40.28C75.565 3.098 63.75.554 53.75.554z"/><path d="M53.918 109.304c-23.399-.262-34.124-6.409-39-11.52-3.624-3.798-4.817-7.877-4.726-10.43.134-3.757 17.086-71.178 22.44-77.554 5.204-6.194 16.728-6.863 21.44-6.863 8.821 0 19.866 2.257 23.274 7.213 2.712 3.945 24.404 76.292 24.699 79.624.181 2.051-.931 4.502-3.129 6.903-3.479 3.799-14.675 12.635-43.425 12.635-.52.001-1.043-.002-1.573-.008z" fill="#ff963b"/><path d="M54.072 4.438c9.604 0 19.263 2.527 22.038 6.563 2.216 3.224 24.102 75.072 24.44 78.905.45 5.108-10.924 17.906-45.06 17.906-.514 0-1.032-.003-1.556-.009-37.25-.417-42.411-15.714-42.244-20.396.148-4.17 17.152-70.764 22.09-76.643 3.728-4.436 11.99-6.326 20.292-6.326m-.322-3v3V1.75h.161c-4.923 0-16.899.565-22.508 7.242-2.45 2.918-6.931 16.332-13.397 40.024-4.346 15.918-9.235 35.549-9.334 38.325-.049 1.386.185 6.295 5.15 11.498 5.076 5.319 16.152 11.707 40.074 11.975.536.006 1.067.004 1.592.004 29.347 0 40.919-9.179 44.532-13.124 2.486-2.715 3.736-5.575 3.518-8.05-.298-3.372-11.174-38.793-11.637-40.299-5.238-17.05-11.964-37.837-13.481-40.043-3.735-5.432-14.67-7.864-24.67-7.864z" fill="#753802"/><path id="head_10_" d="M34.088 10.354c-1.266 1.705-.461 8.992 16.543 10.119 17.289 1.144 18.254-1.825 18.754-1.486l19.648 82.791s10.246-4.488 11.496-10.906c.287-1.479-1.334-5.905-4.168-16.002-2.949-10.508-8.225-26.55-12.332-40.33-5.168-17.33-8.002-23.553-8.002-23.553S71.926 4.838 55.611 4.49c-15.017-.322-20.257 4.156-21.523 5.864z" opacity=".6" fill="#f27202"/></g></svg>