<svg width="753" height="748" viewBox="0 0 753 748" fill="none" xmlns="http://www.w3.org/2000/svg">
<path d="M185.882 440H12.0001C7.58178 440 4.00005 443.582 4.00005 448L4 612C4 616.418 7.58173 620 12 620H185.882C190.3 620 193.882 616.418 193.882 612V448C193.882 443.582 190.3 440 185.882 440Z" fill="url(#paint0_radial)" stroke="#414042" stroke-width="8"/>
<path d="M185.882 260H12.0001C7.58178 260 4.00005 263.582 4.00005 268L4 432C4 436.418 7.58173 440 12 440H185.882C190.3 440 193.882 436.418 193.882 432V268C193.882 263.582 190.3 260 185.882 260Z" fill="url(#paint1_radial)" stroke="#414042" stroke-width="8"/>
<path d="M185.882 80H12.0001C7.58178 80 4.00005 83.5817 4.00005 88L4 252C4 256.418 7.58173 260 12 260H185.882C190.3 260 193.882 256.418 193.882 252V88C193.882 83.5817 190.3 80 185.882 80Z" fill="url(#paint2_radial)" stroke="#414042" stroke-width="8"/>
<path d="M169.145 340.775C168.307 340.723 167.517 340.371 166.923 339.785C166.329 339.2 165.972 338.421 165.919 337.594L164.628 318.507C164.589 317.625 164.889 316.762 165.467 316.089L229.213 240.693C229.532 240.325 229.928 240.03 230.373 239.827C230.819 239.624 231.303 239.518 231.794 239.516C232.289 239.517 232.779 239.623 233.229 239.826C233.68 240.029 234.081 240.325 234.407 240.693L298.185 316.121C298.518 316.537 298.752 317.022 298.87 317.54C298.987 318.057 298.985 318.594 298.862 319.111L294.249 338.199C294.063 338.913 293.649 339.549 293.068 340.013C292.487 340.477 291.77 340.744 291.023 340.775H169.145Z" fill="#81635E"/>
<path d="M231.669 242.856L295.447 318.284L290.834 337.371H169.149L167.891 318.284L231.669 242.824V242.856ZM231.669 236.461C230.698 236.469 229.739 236.683 228.859 237.089C227.98 237.495 227.199 238.084 226.572 238.816L162.794 314.275C161.72 315.573 161.169 317.215 161.245 318.888L162.536 337.976C162.64 339.609 163.36 341.144 164.553 342.28C165.747 343.417 167.329 344.071 168.988 344.116H290.673C292.164 344.095 293.606 343.587 294.774 342.672C295.941 341.757 296.768 340.486 297.125 339.057L301.738 319.97C301.958 318.976 301.951 317.946 301.716 316.956C301.482 315.965 301.026 315.039 300.383 314.244L236.605 238.784C235.97 238.053 235.183 237.465 234.299 237.059C233.414 236.653 232.451 236.439 231.475 236.43L231.669 236.461Z" fill="#414342"/>
<path d="M382.801 272.47C381.937 272.448 381.112 272.111 380.486 271.523C379.86 270.935 379.478 270.139 379.414 269.288L378.156 250.201C378.118 249.374 378.381 248.562 378.898 247.91L442.708 172.387C443.032 172.017 443.433 171.72 443.884 171.516C444.335 171.312 444.825 171.207 445.321 171.207C445.817 171.207 446.307 171.312 446.758 171.516C447.209 171.72 447.61 172.017 447.934 172.387L511.68 247.847C512.012 248.252 512.247 248.725 512.37 249.231C512.493 249.737 512.5 250.264 512.39 250.773L507.777 269.861C507.586 270.573 507.17 271.206 506.59 271.669C506.011 272.132 505.296 272.401 504.551 272.438L382.801 272.47Z" fill="#81635E"/>
<path d="M445.322 174.458L509.068 249.918L504.455 269.005H382.802L381.512 249.918L445.29 174.458H445.322ZM445.29 168.095C444.311 168.104 443.345 168.322 442.46 168.734C441.574 169.146 440.79 169.742 440.161 170.481L376.544 245.814C375.451 247.114 374.898 248.773 374.995 250.458L376.254 269.546C376.368 271.206 377.119 272.761 378.353 273.895C379.587 275.029 381.212 275.658 382.899 275.654H504.584C506.071 275.635 507.51 275.132 508.677 274.223C509.844 273.314 510.673 272.05 511.036 270.628L515.649 251.54C515.884 250.547 515.883 249.514 515.648 248.521C515.414 247.528 514.95 246.602 514.294 245.814L450.419 170.386C449.799 169.644 449.021 169.045 448.14 168.633C447.259 168.221 446.297 168.005 445.322 168L445.29 168.095Z" fill="#414342"/>
<path d="M596.847 340.775C596.009 340.723 595.219 340.371 594.625 339.785C594.031 339.2 593.674 338.421 593.621 337.594L592.331 318.507C592.299 317.671 592.561 316.851 593.073 316.184L656.883 240.693C657.211 240.328 657.613 240.034 658.063 239.832C658.513 239.629 659.001 239.521 659.496 239.516C659.991 239.517 660.481 239.623 660.931 239.826C661.382 240.029 661.783 240.325 662.109 240.693L725.855 316.121C726.195 316.533 726.433 317.018 726.55 317.537C726.668 318.056 726.662 318.595 726.532 319.111L721.951 338.199C721.765 338.913 721.351 339.549 720.77 340.013C720.189 340.477 719.472 340.744 718.725 340.775H596.847Z" fill="#81635E"/>
<path d="M659.368 242.855L723.146 318.283L718.501 337.593H596.848L595.558 318.506L659.336 243.046L659.368 242.855ZM659.336 236.684C658.364 236.691 657.406 236.905 656.526 237.311C655.646 237.717 654.866 238.306 654.239 239.038L590.461 314.497C589.373 315.787 588.82 317.435 588.912 319.11L590.17 338.198C590.285 339.861 591.034 341.419 592.267 342.558C593.501 343.698 595.126 344.334 596.816 344.338H718.501C719.989 344.324 721.431 343.823 722.599 342.913C723.767 342.003 724.595 340.736 724.953 339.311L729.598 320.224C729.818 319.23 729.811 318.2 729.577 317.21C729.342 316.219 728.887 315.292 728.243 314.497L664.465 239.038C663.83 238.307 663.044 237.719 662.159 237.313C661.274 236.907 660.312 236.692 659.336 236.684V236.684Z" fill="#414342"/>
<g style="mix-blend-mode:darken" opacity="0.25">
<path d="M231.605 242.855L276.157 341.475L281.899 341.379L280.576 331.39L282.092 306.704L289.706 306.481L231.605 242.855Z" fill="#414342"/>
</g>
<path d="M516.493 311.57H374.387C372.588 311.57 371.129 313.009 371.129 314.783V451.61C371.129 453.384 372.588 454.823 374.387 454.823H516.493C518.292 454.823 519.751 453.384 519.751 451.61V314.783C519.751 313.009 518.292 311.57 516.493 311.57Z" fill="#CECECE"/>
<path d="M516.522 314.816V451.61H374.417V314.816H516.522ZM516.522 308.453H374.417C372.706 308.453 371.065 309.123 369.855 310.317C368.645 311.51 367.965 313.128 367.965 314.816V451.61C367.965 453.298 368.645 454.916 369.855 456.109C371.065 457.303 372.706 457.973 374.417 457.973H516.522C518.233 457.973 519.874 457.303 521.084 456.109C522.294 454.916 522.974 453.298 522.974 451.61V314.816C522.974 313.128 522.294 311.51 521.084 310.317C519.874 309.123 518.233 308.453 516.522 308.453Z" fill="#414342"/>
<path d="M318.479 664.501C317.623 664.501 316.803 664.165 316.198 663.569C315.593 662.972 315.253 662.163 315.253 661.319L307.994 425.301C307.979 424.874 308.051 424.448 308.206 424.049C308.361 423.65 308.596 423.286 308.897 422.978C309.201 422.664 309.567 422.415 309.972 422.245C310.377 422.076 310.813 421.99 311.253 421.992H349.61C350.465 421.992 351.286 422.327 351.891 422.924C352.496 423.521 352.836 424.33 352.836 425.174V453.805H384.676V425.174C384.676 424.33 385.016 423.521 385.621 422.924C386.226 422.327 387.047 421.992 387.902 421.992H426.292C427.147 421.992 427.968 422.327 428.573 422.924C429.178 423.521 429.518 424.33 429.518 425.174V453.805H461.358V425.174C461.358 424.33 461.698 423.521 462.303 422.924C462.908 422.327 463.729 421.992 464.584 421.992H502.974C503.829 421.992 504.65 422.327 505.255 422.924C505.86 423.521 506.2 424.33 506.2 425.174V453.805H538.04V425.174C538.04 424.33 538.38 423.521 538.985 422.924C539.59 422.327 540.411 421.992 541.266 421.992H579.785C580.225 421.99 580.661 422.076 581.066 422.245C581.471 422.415 581.836 422.664 582.14 422.978C582.441 423.286 582.676 423.65 582.831 424.049C582.986 424.448 583.059 424.874 583.043 425.301L575.688 661.383C575.688 662.227 575.348 663.036 574.743 663.632C574.138 664.229 573.317 664.564 572.462 664.564L318.479 664.501Z" fill="#CECECE"/>
<path d="M579.781 425.27L572.394 661.352H318.411L311.152 425.333H349.509V457.146H387.899V425.333H426.288V457.146H464.645V425.333H503.035V457.146H541.392V425.333H579.781V425.27ZM579.781 418.971H541.392C539.681 418.971 538.04 419.641 536.83 420.834C535.62 422.028 534.94 423.646 534.94 425.333V450.784H509.616V425.333C509.616 423.646 508.936 422.028 507.726 420.834C506.516 419.641 504.875 418.971 503.164 418.971H464.775C463.063 418.971 461.422 419.641 460.212 420.834C459.002 422.028 458.323 423.646 458.323 425.333V450.784H432.998V425.333C432.998 423.646 432.319 422.028 431.109 420.834C429.899 419.641 428.258 418.971 426.546 418.971H388.157C386.446 418.971 384.805 419.641 383.595 420.834C382.385 422.028 381.705 423.646 381.705 425.333V450.784H356.381V425.333C356.381 423.646 355.701 422.028 354.491 420.834C353.281 419.641 351.64 418.971 349.929 418.971H311.185C310.312 418.966 309.448 419.135 308.644 419.469C307.84 419.802 307.113 420.293 306.507 420.912C305.895 421.528 305.417 422.26 305.1 423.064C304.784 423.867 304.637 424.726 304.668 425.588L312.023 661.479C312.023 663.167 312.703 664.785 313.913 665.978C315.123 667.171 316.764 667.842 318.475 667.842H572.458C574.17 667.842 575.811 667.171 577.021 665.978C578.231 664.785 578.91 663.167 578.91 661.479L586.266 425.747C586.266 425.556 586.266 425.397 586.266 425.206C586.266 423.519 585.586 421.9 584.376 420.707C583.166 419.514 581.525 418.844 579.814 418.844L579.781 418.971Z" fill="#414342"/>
<path d="M145.377 664.565C144.919 664.568 144.465 664.475 144.047 664.292C143.628 664.108 143.253 663.839 142.948 663.502C142.642 663.165 142.414 662.768 142.276 662.336C142.139 661.905 142.096 661.45 142.151 661.001L154.346 385.312L142.668 369.247C142.274 368.686 142.06 368.021 142.055 367.338V343.32V309.439C142.055 308.595 142.395 307.786 143 307.19C143.605 306.593 144.425 306.258 145.281 306.258H179.863C180.719 306.258 181.54 306.593 182.145 307.19C182.75 307.786 183.089 308.595 183.089 309.439V339.979H211.188V309.439C211.188 308.595 211.528 307.786 212.133 307.19C212.738 306.593 213.558 306.258 214.414 306.258H249.029C249.461 306.255 249.889 306.339 250.288 306.503C250.687 306.666 251.049 306.908 251.352 307.212C251.651 307.51 251.887 307.862 252.048 308.25C252.208 308.637 252.29 309.052 252.287 309.471V340.011H280.418V309.471C280.418 308.627 280.758 307.818 281.363 307.221C281.968 306.625 282.788 306.29 283.644 306.29H318.485C319.34 306.29 320.161 306.625 320.766 307.221C321.371 307.818 321.711 308.627 321.711 309.471V367.275C321.711 367.963 321.484 368.633 321.066 369.183L309.42 385.312L321.711 661.129C321.746 661.567 321.689 662.009 321.543 662.424C321.397 662.84 321.165 663.222 320.862 663.545C320.559 663.867 320.191 664.125 319.782 664.3C319.373 664.476 318.931 664.566 318.485 664.565H145.377Z" fill="#CECECE"/>
<path d="M145.402 309.441H179.985V343.194H214.632V309.441H249.247V343.194H283.894V309.504H318.477V343.321V367.308L306.122 384.264L318.477 661.289H145.37L157.726 384.328L145.37 367.372V343.321V309.441H145.402ZM145.37 303.078C143.659 303.078 142.018 303.749 140.808 304.942C139.598 306.135 138.918 307.753 138.918 309.441V343.321V367.34C138.924 368.711 139.364 370.045 140.176 371.157L151.209 386.3L138.95 661.035C138.902 661.895 139.032 662.756 139.331 663.565C139.631 664.375 140.094 665.116 140.692 665.743C141.314 666.394 142.064 666.912 142.896 667.268C143.728 667.624 144.625 667.808 145.531 667.811H318.477C319.384 667.808 320.281 667.624 321.113 667.268C321.944 666.912 322.694 666.394 323.316 665.743C323.915 665.116 324.378 664.375 324.677 663.565C324.977 662.756 325.106 661.895 325.058 661.035L312.799 386.3L323.832 371.126C324.652 370.029 325.093 368.702 325.091 367.34V309.504C325.091 307.817 324.411 306.199 323.201 305.005C321.991 303.812 320.35 303.142 318.638 303.142H283.894C282.183 303.142 280.542 303.812 279.332 305.005C278.122 306.199 277.442 307.817 277.442 309.504V336.8H255.861V309.536C255.866 308.684 255.697 307.839 255.364 307.052C255.032 306.265 254.542 305.552 253.925 304.955C253.321 304.356 252.602 303.881 251.81 303.559C251.018 303.237 250.169 303.073 249.312 303.078H214.632C212.921 303.078 211.28 303.749 210.07 304.942C208.86 306.135 208.18 307.753 208.18 309.441V336.736H186.598V309.473C186.598 307.785 185.919 306.167 184.709 304.974C183.499 303.78 181.857 303.11 180.146 303.11H145.596L145.37 303.078Z" fill="#414342"/>
<path d="M572.523 664.5C572.057 664.491 571.598 664.391 571.171 664.205C570.745 664.02 570.36 663.752 570.039 663.418C569.729 663.087 569.494 662.695 569.349 662.267C569.205 661.839 569.154 661.386 569.2 660.937L581.492 385.312L569.781 369.246V368.96C569.486 368.469 569.33 367.909 569.329 367.338V343.351V309.47C569.329 308.627 569.669 307.817 570.274 307.221C570.879 306.624 571.7 306.289 572.555 306.289H607.138C607.994 306.289 608.814 306.624 609.419 307.221C610.024 307.817 610.364 308.627 610.364 309.47V339.979H638.495V309.47C638.495 308.627 638.835 307.817 639.44 307.221C640.045 306.624 640.865 306.289 641.721 306.289H676.562C676.994 306.287 677.422 306.37 677.821 306.534C678.22 306.698 678.582 306.939 678.884 307.243C679.183 307.541 679.42 307.893 679.581 308.281C679.741 308.669 679.822 309.084 679.82 309.502V340.011H707.918V309.502C707.918 308.659 708.258 307.849 708.863 307.253C709.468 306.656 710.289 306.321 711.144 306.321H745.727C746.159 306.318 746.588 306.402 746.987 306.566C747.386 306.73 747.747 306.971 748.05 307.275C748.349 307.573 748.586 307.925 748.746 308.313C748.907 308.7 748.988 309.115 748.986 309.534V367.338C748.981 367.904 748.837 368.461 748.566 368.96L748.373 369.246L736.533 385.312L748.856 661.16C748.892 661.599 748.835 662.04 748.689 662.456C748.543 662.871 748.311 663.253 748.008 663.576C747.705 663.899 747.337 664.156 746.928 664.331C746.519 664.507 746.077 664.597 745.63 664.595L572.523 664.5Z" fill="#CECECE"/>
<path d="M572.559 309.374H607.11V343.127H641.725V309.438H676.566V343.191H711.181V309.438H745.763V367.242L733.408 384.198L745.763 661.127H572.527L584.915 384.198L572.592 367.242V343.255V309.374H572.559ZM572.559 303.012C570.848 303.012 569.207 303.682 567.997 304.875C566.787 306.068 566.107 307.687 566.107 309.374V343.255V367.273C566.114 368.644 566.554 369.979 567.366 371.091L578.366 386.234L566.107 660.968C566.05 661.838 566.174 662.71 566.473 663.53C566.771 664.351 567.237 665.102 567.842 665.737C568.447 666.372 569.178 666.878 569.989 667.224C570.801 667.569 571.676 667.746 572.559 667.744H745.538C746.421 667.746 747.296 667.569 748.108 667.224C748.919 666.878 749.65 666.372 750.255 665.737C750.86 665.102 751.326 664.351 751.624 663.53C751.923 662.71 752.047 661.838 751.99 660.968L739.731 386.234L750.764 371.059C751.572 369.959 752.001 368.632 751.99 367.273V343.287V309.788V309.47C751.99 307.782 751.31 306.164 750.1 304.971C748.89 303.777 747.249 303.107 745.538 303.107H711.052C709.34 303.107 707.699 303.777 706.489 304.971C705.279 306.164 704.6 307.782 704.6 309.47V336.765H683.018V309.47C683.018 307.782 682.338 306.164 681.128 304.971C679.918 303.777 678.277 303.107 676.566 303.107H641.757C640.046 303.107 638.405 303.777 637.195 304.971C635.985 306.164 635.305 307.782 635.305 309.47V336.765H613.723V309.47C613.723 307.782 613.043 306.164 611.833 304.971C610.623 303.777 608.982 303.107 607.271 303.107H572.688L572.559 303.012Z" fill="#414342"/>
<path d="M310.928 387.156H155.887" stroke="#414342" stroke-width="5" stroke-miterlimit="10"/>
<path d="M582.781 387.637H733.952" stroke="#414342" stroke-width="5" stroke-miterlimit="10"/>
<path d="M231.604 444.996C227.182 445.211 223.021 447.121 220.008 450.318C216.994 453.516 215.367 457.748 215.474 462.112V498.633H248.282V461.666C248.325 459.484 247.925 457.316 247.105 455.289C246.285 453.262 245.061 451.417 243.507 449.863C241.953 448.31 240.099 447.079 238.054 446.243C236.01 445.407 233.817 444.983 231.604 444.996Z" fill="#595959" stroke="#414342" stroke-width="2.02" stroke-linejoin="round"/>
<path d="M658.693 444.996C654.274 445.219 650.118 447.131 647.106 450.327C644.094 453.522 642.465 457.75 642.563 462.112V498.633H675.403V461.666C675.442 459.483 675.038 457.314 674.214 455.286C673.391 453.259 672.164 451.415 670.607 449.862C669.05 448.308 667.194 447.078 665.148 446.242C663.102 445.407 660.907 444.983 658.693 444.996V444.996Z" fill="#595959" stroke="#414342" stroke-width="2.02" stroke-linejoin="round"/>
<path d="M444.29 344.399C440.382 344.597 436.707 346.289 434.044 349.117C431.382 351.944 429.942 355.684 430.031 359.542V391.673H459.065V359.001C459.087 357.08 458.72 355.174 457.985 353.395C457.251 351.616 456.164 350 454.788 348.64C453.412 347.28 451.775 346.205 449.972 345.476C448.17 344.748 446.238 344.382 444.29 344.399V344.399Z" fill="#595959" stroke="#414342" stroke-width="1.79" stroke-linejoin="round"/>
<g style="mix-blend-mode:darken" opacity="0.25">
<path d="M143.145 639.371L141.887 663.771H322.769L309.671 387.7L283.218 387.191L289.057 633.454C289.078 634.223 288.943 634.989 288.66 635.706C288.376 636.423 287.949 637.077 287.405 637.628C286.86 638.18 286.209 638.618 285.49 638.918C284.771 639.217 283.998 639.371 283.218 639.371H143.145Z" fill="#414342"/>
</g>
<g style="mix-blend-mode:darken" opacity="0.25">
<path d="M569.782 639.371L568.523 663.771H749.405L736.308 387.7L709.855 387.191L715.726 634.281C715.743 634.943 715.626 635.602 715.381 636.219C715.135 636.836 714.767 637.398 714.298 637.872C713.829 638.347 713.269 638.724 712.65 638.981C712.03 639.239 711.365 639.371 710.693 639.371H569.782Z" fill="#414342"/>
</g>
<g style="mix-blend-mode:darken" opacity="0.25">
<path d="M519.523 453.675L506.135 453.739L505.78 421.417H496.328V318.98H519.62L519.523 453.675Z" fill="#414342"/>
</g>
<g style="mix-blend-mode:darken" opacity="0.25">
<path d="M549.232 422.213L541.555 633.959C541.48 635.413 540.844 636.785 539.776 637.791C538.707 638.796 537.289 639.36 535.812 639.367H320.477V664.244H570.911V639.367H569.653L579.783 421.863L549.232 422.213Z" fill="#414342"/>
</g>
<path d="M404.773 664.568V661.387V572.947C404.773 548.642 422.645 528.601 444.615 528.219H445.26C467.584 528.219 485.778 547.625 485.778 571.484V664.6H482.391L404.773 664.568Z" fill="#595959"/>
<path d="M445.163 531.266C465.745 531.266 482.391 549.208 482.391 571.318V661.221H408.193V572.782C408.193 550.513 424.323 531.616 444.841 531.425H445.421L445.163 531.266ZM445.421 525.063H444.712C420.968 525.476 401.645 546.95 401.645 573.004V661.444C401.645 663.182 402.345 664.849 403.591 666.078C404.837 667.307 406.528 667.997 408.29 667.997H482.488C484.251 667.997 485.941 667.307 487.187 666.078C488.434 664.849 489.134 663.182 489.134 661.444V571.318C489.134 545.677 469.487 524.84 445.357 524.84L445.421 525.063Z" fill="#414342"/>
<g style="mix-blend-mode:darken" opacity="0.25">
<path d="M507.131 248.676L534.229 246.258L535.842 299.958L519.616 318.982H494.711L506.937 298.749L507.131 248.676Z" fill="#414342"/>
</g>
<g style="mix-blend-mode:darken" opacity="0.25">
<path d="M294.123 307.053L320.673 306.512L322.447 368.706L306.22 387.73H281.348L293.542 367.528L294.123 307.053Z" fill="#414342"/>
</g>
<path d="M370.903 318.887C370.386 318.89 369.875 318.77 369.415 318.537C368.955 318.305 368.558 317.966 368.258 317.551L355.902 300.595C355.508 300.033 355.295 299.368 355.289 298.686V274.667V240.787C355.289 239.943 355.629 239.134 356.234 238.537C356.839 237.941 357.659 237.605 358.515 237.605H393.066C393.921 237.605 394.742 237.941 395.347 238.537C395.952 239.134 396.292 239.943 396.292 240.787V271.295H424.39V240.882C424.39 240.038 424.73 239.229 425.335 238.633C425.94 238.036 426.76 237.701 427.616 237.701H462.231C463.087 237.701 463.907 238.036 464.512 238.633C465.117 239.229 465.457 240.038 465.457 240.882V271.391H493.588V240.882C493.588 240.038 493.928 239.229 494.533 238.633C495.138 238.036 495.958 237.701 496.814 237.701H531.429C531.853 237.698 532.274 237.779 532.667 237.937C533.06 238.095 533.418 238.329 533.719 238.623C534.028 238.922 534.273 239.278 534.439 239.672C534.605 240.065 534.69 240.488 534.687 240.914V298.718C534.687 299.289 534.531 299.849 534.235 300.34L534.042 300.626L521.718 317.583C521.415 318.003 521.013 318.344 520.547 318.576C520.08 318.809 519.564 318.927 519.041 318.919L370.903 318.887Z" fill="#CECECE"/>
<path d="M358.641 240.818H393.223V274.54H427.838V240.818H462.453V274.54H497.1V240.882H531.715V274.667V298.686L519.36 315.642H370.964L358.608 298.686V274.667V240.818H358.641ZM358.608 234.297C356.897 234.297 355.256 234.967 354.046 236.16C352.836 237.354 352.156 238.972 352.156 240.659V274.54V298.559C352.167 299.919 352.607 301.242 353.414 302.344L365.738 319.3C366.341 320.136 367.14 320.815 368.067 321.281C368.994 321.746 370.021 321.983 371.061 321.973H519.457C520.497 321.983 521.524 321.746 522.45 321.281C523.377 320.815 524.176 320.136 524.78 319.3L537.103 302.344C537.911 301.242 538.35 299.919 538.361 298.559V240.882C538.361 239.195 537.681 237.576 536.471 236.383C535.261 235.19 533.62 234.52 531.909 234.52H497.133C495.422 234.52 493.78 235.19 492.57 236.383C491.36 237.576 490.681 239.195 490.681 240.882V268.177H469.099V240.882C469.099 239.195 468.419 237.576 467.209 236.383C465.999 235.19 464.358 234.52 462.647 234.52H427.87C426.159 234.52 424.518 235.19 423.308 236.383C422.098 237.576 421.418 239.195 421.418 240.882V268.177H399.837V240.882C399.837 239.195 399.157 237.576 397.947 236.383C396.737 235.19 395.096 234.52 393.385 234.52H358.834L358.608 234.297Z" fill="#414342"/>
<g style="mix-blend-mode:darken" opacity="0.25">
<path d="M721.251 306.986L747.801 306.445L749.608 368.639L733.381 387.663H708.477L720.671 367.462L721.251 306.986Z" fill="#414342"/>
</g>
<g style="mix-blend-mode:darken" opacity="0.25">
<path d="M507.556 237.736L534.138 237.195L535.913 299.421L519.686 318.413H494.781L507.008 298.212L507.556 237.736Z" fill="#414342"/>
</g>
<g style="mix-blend-mode:darken" opacity="0.25">
<path d="M445.297 174.395L489.848 273.046L495.59 272.918L494.3 262.929L495.816 238.243L503.429 238.052L445.297 174.395Z" fill="#414342"/>
</g>
<g style="mix-blend-mode:darken" opacity="0.25">
<path d="M659.34 242.789L703.891 341.44L709.633 341.313L708.311 331.324L709.827 306.637L717.44 306.446L659.34 242.789Z" fill="#414342"/>
</g>
<defs>
<radialGradient id="paint0_radial" cx="0" cy="0" r="1" gradientUnits="userSpaceOnUse" gradientTransform="translate(98.9305 530) rotate(88.8598) scale(90.0177 72.5749)">
<stop stop-color="#FBE678"/>
<stop offset="1" stop-color="#E3C62B"/>
</radialGradient>
<radialGradient id="paint1_radial" cx="0" cy="0" r="1" gradientUnits="userSpaceOnUse" gradientTransform="translate(98.9305 350) rotate(88.8598) scale(90.0177 72.5749)">
<stop stop-color="#FBE678"/>
<stop offset="1" stop-color="#E3C62B"/>
</radialGradient>
<radialGradient id="paint2_radial" cx="0" cy="0" r="1" gradientUnits="userSpaceOnUse" gradientTransform="translate(98.9305 170) rotate(88.8598) scale(90.0177 72.5749)">
<stop stop-color="#FBE678"/>
<stop offset="1" stop-color="#E3C62B"/>
</radialGradient>
</defs>
</svg>
