<svg width="752" height="748" viewBox="0 0 752 748" fill="none" xmlns="http://www.w3.org/2000/svg">
<path d="M185.882 440.001L12.0001 440C7.58176 440 4.00002 443.582 4.00004 448L4.00092 612C4.00094 616.418 7.58264 620 12.0009 620H185.882C190.3 620 193.882 616.418 193.882 612L193.882 448.001C193.882 443.582 190.3 440.001 185.882 440.001Z" fill="url(#paint0_radial)" stroke="#414042" stroke-width="8"/>
<path d="M185.882 260.001L12.0001 260C7.58176 260 4.00002 263.582 4.00004 268L4.00092 432C4.00094 436.418 7.58264 440 12.0009 440H185.882C190.3 440 193.882 436.418 193.882 432L193.882 268.001C193.882 263.582 190.3 260.001 185.882 260.001Z" fill="url(#paint1_radial)" stroke="#414042" stroke-width="8"/>
<path d="M185.882 80.0005L12.0001 80C7.58176 80 4.00002 83.5818 4.00004 88.0001L4.00092 252C4.00094 256.418 7.58264 260 12.0009 260H185.882C190.3 260 193.882 256.418 193.882 252L193.882 88.0005C193.882 83.5822 190.3 80.0005 185.882 80.0005Z" fill="url(#paint2_radial)" stroke="#414042" stroke-width="8"/>
<path d="M169.141 340.775C168.303 340.723 167.513 340.371 166.919 339.785C166.325 339.2 165.968 338.421 165.915 337.594L164.625 318.507C164.585 317.625 164.885 316.762 165.463 316.089L229.209 240.693C229.528 240.325 229.924 240.03 230.369 239.827C230.815 239.624 231.299 239.518 231.79 239.516C232.285 239.517 232.775 239.623 233.225 239.826C233.676 240.029 234.077 240.325 234.403 240.693L298.181 316.121C298.514 316.537 298.748 317.022 298.866 317.54C298.983 318.057 298.98 318.594 298.858 319.111L294.245 338.199C294.059 338.913 293.645 339.549 293.064 340.013C292.483 340.477 291.766 340.744 291.019 340.775H169.141Z" fill="#81635E"/>
<path d="M231.665 242.856L295.443 318.284L290.83 337.371H169.145L167.887 318.284L231.665 242.824V242.856ZM231.665 236.461C230.693 236.469 229.735 236.683 228.855 237.089C227.976 237.495 227.195 238.084 226.568 238.816L162.79 314.275C161.716 315.573 161.165 317.215 161.241 318.888L162.532 337.976C162.636 339.609 163.356 341.144 164.55 342.28C165.743 343.417 167.325 344.071 168.984 344.116H290.668C292.16 344.095 293.602 343.587 294.769 342.672C295.937 341.757 296.764 340.486 297.12 339.057L301.734 319.97C301.954 318.976 301.946 317.946 301.712 316.956C301.478 315.965 301.022 315.039 300.379 314.244L236.601 238.784C235.966 238.053 235.179 237.465 234.294 237.059C233.41 236.653 232.447 236.439 231.471 236.43L231.665 236.461Z" fill="#414342"/>
<path d="M382.797 272.47C381.933 272.448 381.108 272.111 380.482 271.523C379.856 270.935 379.474 270.139 379.41 269.288L378.152 250.201C378.114 249.374 378.378 248.562 378.894 247.91L442.704 172.387C443.028 172.017 443.429 171.72 443.88 171.516C444.331 171.312 444.821 171.207 445.317 171.207C445.813 171.207 446.303 171.312 446.754 171.516C447.205 171.72 447.606 172.017 447.93 172.387L511.676 247.847C512.008 248.252 512.243 248.725 512.366 249.231C512.489 249.737 512.496 250.264 512.386 250.773L507.772 269.861C507.582 270.573 507.166 271.206 506.586 271.669C506.006 272.132 505.292 272.401 504.546 272.438L382.797 272.47Z" fill="#81635E"/>
<path d="M445.314 174.458L509.06 249.918L504.447 269.005H382.795L381.504 249.918L445.282 174.458H445.314ZM445.282 168.095C444.303 168.104 443.338 168.322 442.452 168.734C441.567 169.146 440.782 169.742 440.153 170.481L376.536 245.814C375.443 247.114 374.89 248.773 374.988 250.458L376.246 269.546C376.36 271.206 377.111 272.761 378.345 273.895C379.579 275.029 381.204 275.658 382.891 275.654H504.576C506.063 275.635 507.502 275.132 508.669 274.223C509.836 273.314 510.665 272.05 511.028 270.628L515.641 251.54C515.876 250.547 515.875 249.514 515.64 248.521C515.405 247.528 514.942 246.602 514.286 245.814L450.411 170.386C449.791 169.644 449.013 169.045 448.132 168.633C447.251 168.221 446.289 168.005 445.314 168L445.282 168.095Z" fill="#414342"/>
<path d="M596.843 340.775C596.005 340.723 595.215 340.371 594.621 339.785C594.027 339.2 593.67 338.421 593.617 337.594L592.327 318.507C592.295 317.671 592.557 316.851 593.069 316.184L656.879 240.693C657.207 240.328 657.609 240.034 658.059 239.832C658.509 239.629 658.997 239.521 659.492 239.516C659.987 239.517 660.477 239.623 660.927 239.826C661.378 240.029 661.779 240.325 662.105 240.693L725.851 316.121C726.191 316.533 726.429 317.018 726.546 317.537C726.664 318.056 726.658 318.595 726.528 319.111L721.947 338.199C721.761 338.913 721.347 339.549 720.766 340.013C720.185 340.477 719.468 340.744 718.721 340.775H596.843Z" fill="#81635E"/>
<path d="M659.364 242.855L723.142 318.283L718.497 337.593H596.844L595.554 318.506L659.332 243.046L659.364 242.855ZM659.332 236.684C658.36 236.691 657.402 236.905 656.522 237.311C655.642 237.717 654.862 238.306 654.235 239.038L590.457 314.497C589.369 315.787 588.816 317.435 588.908 319.11L590.166 338.198C590.281 339.861 591.03 341.419 592.263 342.558C593.497 343.698 595.122 344.334 596.812 344.338H718.497C719.985 344.324 721.427 343.823 722.595 342.913C723.763 342.003 724.591 340.736 724.949 339.311L729.594 320.224C729.814 319.23 729.807 318.2 729.572 317.21C729.338 316.219 728.883 315.292 728.239 314.497L664.461 239.038C663.826 238.307 663.04 237.719 662.155 237.313C661.27 236.907 660.308 236.692 659.332 236.684V236.684Z" fill="#414342"/>
<g style="mix-blend-mode:darken" opacity="0.25">
<path d="M231.598 242.855L276.149 341.475L281.891 341.379L280.568 331.39L282.084 306.704L289.698 306.481L231.598 242.855Z" fill="#414342"/>
</g>
<path d="M516.488 311.57H374.383C372.584 311.57 371.125 313.009 371.125 314.783V451.61C371.125 453.384 372.584 454.823 374.383 454.823H516.488C518.288 454.823 519.747 453.384 519.747 451.61V314.783C519.747 313.009 518.288 311.57 516.488 311.57Z" fill="#CECECE"/>
<path d="M516.514 314.816V451.61H374.409V314.816H516.514ZM516.514 308.453H374.409C372.698 308.453 371.057 309.123 369.847 310.317C368.637 311.51 367.957 313.128 367.957 314.816V451.61C367.957 453.298 368.637 454.916 369.847 456.109C371.057 457.303 372.698 457.973 374.409 457.973H516.514C518.225 457.973 519.866 457.303 521.076 456.109C522.286 454.916 522.966 453.298 522.966 451.61V314.816C522.966 313.128 522.286 311.51 521.076 310.317C519.866 309.123 518.225 308.453 516.514 308.453Z" fill="#414342"/>
<path d="M318.475 664.501C317.619 664.501 316.799 664.165 316.194 663.569C315.589 662.972 315.249 662.163 315.249 661.319L307.99 425.301C307.975 424.874 308.047 424.448 308.202 424.049C308.357 423.65 308.593 423.286 308.894 422.978C309.197 422.664 309.563 422.415 309.968 422.245C310.373 422.076 310.809 421.99 311.249 421.992H349.606C350.461 421.992 351.282 422.327 351.887 422.924C352.492 423.521 352.832 424.33 352.832 425.174V453.805H384.672V425.174C384.672 424.33 385.012 423.521 385.617 422.924C386.222 422.327 387.043 421.992 387.898 421.992H426.288C427.143 421.992 427.964 422.327 428.569 422.924C429.174 423.521 429.514 424.33 429.514 425.174V453.805H461.354V425.174C461.354 424.33 461.694 423.521 462.299 422.924C462.904 422.327 463.725 421.992 464.58 421.992H502.97C503.825 421.992 504.646 422.327 505.251 422.924C505.856 423.521 506.196 424.33 506.196 425.174V453.805H538.036V425.174C538.036 424.33 538.376 423.521 538.981 422.924C539.586 422.327 540.407 421.992 541.262 421.992H579.781C580.22 421.99 580.656 422.076 581.061 422.245C581.466 422.415 581.832 422.664 582.135 422.978C582.436 423.286 582.672 423.65 582.827 424.049C582.982 424.448 583.054 424.874 583.039 425.301L575.683 661.383C575.683 662.227 575.344 663.036 574.739 663.632C574.134 664.229 573.313 664.564 572.457 664.564L318.475 664.501Z" fill="#CECECE"/>
<path d="M579.781 425.27L572.394 661.352H318.411L311.152 425.333H349.509V457.146H387.899V425.333H426.288V457.146H464.645V425.333H503.035V457.146H541.392V425.333H579.781V425.27ZM579.781 418.971H541.392C539.68 418.971 538.039 419.641 536.829 420.834C535.619 422.028 534.94 423.646 534.94 425.333V450.784H509.616V425.333C509.616 423.646 508.936 422.028 507.726 420.834C506.516 419.641 504.875 418.971 503.164 418.971H464.774C463.063 418.971 461.422 419.641 460.212 420.834C459.002 422.028 458.322 423.646 458.322 425.333V450.784H432.998V425.333C432.998 423.646 432.318 422.028 431.108 420.834C429.898 419.641 428.257 418.971 426.546 418.971H388.157C386.446 418.971 384.805 419.641 383.595 420.834C382.385 422.028 381.705 423.646 381.705 425.333V450.784H356.381V425.333C356.381 423.646 355.701 422.028 354.491 420.834C353.281 419.641 351.64 418.971 349.929 418.971H311.185C310.312 418.966 309.448 419.135 308.644 419.469C307.84 419.802 307.113 420.293 306.507 420.912C305.895 421.528 305.417 422.26 305.1 423.064C304.784 423.867 304.637 424.726 304.668 425.588L312.023 661.479C312.023 663.167 312.703 664.785 313.913 665.978C315.123 667.171 316.764 667.842 318.475 667.842H572.458C574.169 667.842 575.81 667.171 577.02 665.978C578.23 664.785 578.91 663.167 578.91 661.479L586.265 425.747C586.265 425.556 586.265 425.397 586.265 425.206C586.265 423.519 585.585 421.9 584.375 420.707C583.165 419.514 581.524 418.844 579.813 418.844L579.781 418.971Z" fill="#414342"/>
<path d="M145.37 664.564C144.911 664.568 144.458 664.475 144.039 664.291C143.62 664.108 143.245 663.839 142.94 663.502C142.635 663.165 142.406 662.768 142.268 662.336C142.131 661.905 142.089 661.45 142.144 661.001L154.338 385.312L142.66 369.247C142.266 368.686 142.053 368.021 142.047 367.338V343.32V309.439C142.047 308.595 142.387 307.786 142.992 307.19C143.597 306.593 144.417 306.258 145.273 306.258H179.856C180.711 306.258 181.532 306.593 182.137 307.19C182.742 307.786 183.082 308.595 183.082 309.439V339.979H211.18V309.439C211.18 308.595 211.52 307.786 212.125 307.19C212.73 306.593 213.55 306.258 214.406 306.258H249.021C249.453 306.255 249.881 306.339 250.28 306.503C250.679 306.666 251.041 306.908 251.344 307.212C251.643 307.51 251.879 307.862 252.04 308.25C252.2 308.637 252.282 309.052 252.279 309.471V340.011H280.41V309.471C280.41 308.627 280.75 307.818 281.355 307.221C281.96 306.625 282.78 306.29 283.636 306.29H318.477C319.332 306.29 320.153 306.625 320.758 307.221C321.363 307.818 321.703 308.627 321.703 309.471V367.275C321.703 367.963 321.476 368.633 321.057 369.183L309.412 385.312L321.703 661.129C321.738 661.567 321.681 662.009 321.535 662.424C321.389 662.84 321.157 663.222 320.854 663.545C320.551 663.867 320.183 664.125 319.774 664.3C319.365 664.476 318.923 664.566 318.477 664.564H145.37Z" fill="#CECECE"/>
<path d="M145.398 309.441H179.981V343.194H214.628V309.441H249.243V343.194H283.89V309.504H318.473V343.321V367.308L306.118 384.264L318.473 661.289H145.366L157.722 384.328L145.366 367.372V343.321V309.441H145.398ZM145.366 303.078C143.655 303.078 142.014 303.749 140.804 304.942C139.594 306.135 138.914 307.753 138.914 309.441V343.321V367.34C138.92 368.711 139.36 370.045 140.172 371.157L151.205 386.3L138.946 661.035C138.898 661.895 139.028 662.756 139.327 663.565C139.627 664.375 140.09 665.116 140.688 665.743C141.31 666.394 142.06 666.912 142.892 667.268C143.724 667.624 144.621 667.808 145.527 667.811H318.473C319.38 667.808 320.276 667.624 321.108 667.268C321.94 666.912 322.69 666.394 323.312 665.743C323.911 665.116 324.374 664.375 324.673 663.565C324.972 662.756 325.102 661.895 325.054 661.035L312.795 386.3L323.828 371.126C324.648 370.029 325.089 368.702 325.086 367.34V309.504C325.086 307.817 324.407 306.199 323.197 305.005C321.987 303.812 320.345 303.142 318.634 303.142H283.89C282.179 303.142 280.538 303.812 279.328 305.005C278.118 306.199 277.438 307.817 277.438 309.504V336.8H255.856V309.536C255.861 308.684 255.693 307.839 255.36 307.052C255.028 306.265 254.538 305.552 253.921 304.955C253.317 304.356 252.598 303.881 251.806 303.559C251.014 303.237 250.164 303.073 249.308 303.078H214.628C212.917 303.078 211.276 303.749 210.066 304.942C208.856 306.135 208.176 307.753 208.176 309.441V336.736H186.594V309.473C186.594 307.785 185.915 306.167 184.705 304.974C183.495 303.78 181.853 303.11 180.142 303.11H145.592L145.366 303.078Z" fill="#414342"/>
<path d="M572.515 664.5C572.049 664.491 571.59 664.391 571.163 664.205C570.737 664.02 570.352 663.752 570.031 663.418C569.721 663.087 569.486 662.695 569.341 662.267C569.197 661.839 569.146 661.386 569.193 660.937L581.484 385.312L569.773 369.246V368.96C569.478 368.469 569.322 367.909 569.322 367.338V343.351V309.47C569.322 308.627 569.662 307.817 570.267 307.221C570.872 306.624 571.692 306.289 572.548 306.289H607.13C607.986 306.289 608.807 306.624 609.412 307.221C610.017 307.817 610.356 308.627 610.356 309.47V339.979H638.487V309.47C638.487 308.627 638.827 307.817 639.432 307.221C640.037 306.624 640.857 306.289 641.713 306.289H676.554C676.986 306.287 677.414 306.37 677.813 306.534C678.212 306.698 678.574 306.939 678.876 307.243C679.175 307.541 679.412 307.893 679.573 308.281C679.733 308.669 679.814 309.084 679.812 309.502V340.011H707.91V309.502C707.91 308.659 708.25 307.849 708.855 307.253C709.46 306.656 710.281 306.321 711.136 306.321H745.719C746.151 306.318 746.58 306.402 746.979 306.566C747.378 306.73 747.739 306.971 748.042 307.275C748.341 307.573 748.577 307.925 748.738 308.313C748.898 308.7 748.98 309.115 748.977 309.534V367.338C748.973 367.904 748.829 368.461 748.558 368.96L748.364 369.246L736.525 385.312L748.848 661.16C748.884 661.599 748.827 662.04 748.681 662.456C748.535 662.871 748.303 663.253 748 663.576C747.697 663.899 747.329 664.156 746.92 664.331C746.51 664.507 746.068 664.597 745.622 664.595L572.515 664.5Z" fill="#CECECE"/>
<path d="M572.555 309.374H607.106V343.127H641.721V309.438H676.562V343.191H711.176V309.438H745.759V367.242L733.404 384.198L745.759 661.127H572.523L584.911 384.198L572.588 367.242V343.255V309.374H572.555ZM572.555 303.012C570.844 303.012 569.203 303.682 567.993 304.875C566.783 306.068 566.103 307.687 566.103 309.374V343.255V367.273C566.11 368.644 566.55 369.979 567.362 371.091L578.362 386.234L566.103 660.968C566.046 661.838 566.17 662.71 566.469 663.53C566.767 664.351 567.233 665.102 567.838 665.737C568.443 666.372 569.174 666.878 569.986 667.224C570.797 667.569 571.672 667.746 572.555 667.744H745.533C746.417 667.746 747.292 667.569 748.103 667.224C748.915 666.878 749.646 666.372 750.251 665.737C750.855 665.102 751.322 664.351 751.62 663.53C751.919 662.71 752.043 661.838 751.985 660.968L739.727 386.234L750.759 371.059C751.568 369.959 751.997 368.632 751.985 367.273V343.287V309.788V309.47C751.985 307.782 751.306 306.164 750.096 304.971C748.886 303.777 747.245 303.107 745.533 303.107H711.047C709.336 303.107 707.695 303.777 706.485 304.971C705.275 306.164 704.595 307.782 704.595 309.47V336.765H683.014V309.47C683.014 307.782 682.334 306.164 681.124 304.971C679.914 303.777 678.273 303.107 676.562 303.107H641.753C640.042 303.107 638.401 303.777 637.191 304.971C635.981 306.164 635.301 307.782 635.301 309.47V336.765H613.719V309.47C613.719 307.782 613.039 306.164 611.829 304.971C610.619 303.777 608.978 303.107 607.267 303.107H572.684L572.555 303.012Z" fill="#414342"/>
<path d="M310.92 387.156H155.879" stroke="#414342" stroke-width="5" stroke-miterlimit="10"/>
<path d="M582.777 387.637H733.948" stroke="#414342" stroke-width="5" stroke-miterlimit="10"/>
<path d="M231.6 444.996C227.179 445.211 223.017 447.121 220.004 450.318C216.991 453.516 215.363 457.748 215.47 462.112V498.633H248.278V461.666C248.321 459.484 247.921 457.316 247.101 455.289C246.281 453.262 245.058 451.417 243.503 449.863C241.949 448.31 240.095 447.079 238.05 446.243C236.006 445.407 233.813 444.983 231.6 444.996Z" fill="#595959" stroke="#414342" stroke-width="2.02" stroke-linejoin="round"/>
<path d="M658.693 444.996C654.274 445.219 650.118 447.131 647.106 450.327C644.094 453.522 642.465 457.75 642.563 462.112V498.633H675.403V461.666C675.442 459.483 675.038 457.314 674.214 455.286C673.39 453.259 672.164 451.415 670.607 449.862C669.05 448.308 667.194 447.078 665.148 446.242C663.102 445.407 660.907 444.983 658.693 444.996V444.996Z" fill="#595959" stroke="#414342" stroke-width="2.02" stroke-linejoin="round"/>
<path d="M444.29 344.399C440.382 344.597 436.707 346.289 434.044 349.117C431.382 351.944 429.942 355.684 430.031 359.542V391.673H459.065V359.001C459.087 357.08 458.72 355.174 457.985 353.395C457.251 351.616 456.164 350 454.788 348.64C453.412 347.28 451.775 346.205 449.972 345.476C448.17 344.748 446.238 344.382 444.29 344.399V344.399Z" fill="#595959" stroke="#414342" stroke-width="1.79" stroke-linejoin="round"/>
<g style="mix-blend-mode:darken" opacity="0.25">
<path d="M143.141 639.371L141.883 663.771H322.764L309.667 387.7L283.214 387.191L289.053 633.454C289.074 634.223 288.939 634.989 288.655 635.706C288.372 636.423 287.945 637.077 287.401 637.628C286.856 638.18 286.205 638.618 285.486 638.918C284.767 639.217 283.994 639.371 283.214 639.371H143.141Z" fill="#414342"/>
</g>
<g style="mix-blend-mode:darken" opacity="0.25">
<path d="M569.778 639.371L568.52 663.771H749.401L736.304 387.7L709.85 387.191L715.722 634.281C715.739 634.943 715.622 635.602 715.376 636.219C715.131 636.836 714.763 637.398 714.294 637.872C713.825 638.347 713.265 638.724 712.645 638.981C712.026 639.239 711.361 639.371 710.689 639.371H569.778Z" fill="#414342"/>
</g>
<g style="mix-blend-mode:darken" opacity="0.25">
<path d="M519.519 453.675L506.131 453.739L505.776 421.417H496.324V318.98H519.616L519.519 453.675Z" fill="#414342"/>
</g>
<g style="mix-blend-mode:darken" opacity="0.25">
<path d="M549.228 422.213L541.55 633.959C541.476 635.413 540.839 636.785 539.771 637.791C538.703 638.796 537.285 639.36 535.808 639.367H320.473V664.244H570.907V639.367H569.649L579.778 421.863L549.228 422.213Z" fill="#414342"/>
</g>
<path d="M404.77 664.568V661.387V572.947C404.77 548.642 422.642 528.601 444.611 528.219H445.256C467.58 528.219 485.774 547.625 485.774 571.484V664.6H482.387L404.77 664.568Z" fill="#595959"/>
<path d="M445.159 531.266C465.741 531.266 482.387 549.208 482.387 571.318V661.221H408.189V572.782C408.189 550.513 424.319 531.616 444.837 531.425H445.417L445.159 531.266ZM445.417 525.063H444.708C420.964 525.476 401.641 546.95 401.641 573.004V661.444C401.641 663.182 402.341 664.849 403.587 666.078C404.833 667.307 406.524 667.997 408.286 667.997H482.484C484.247 667.997 485.937 667.307 487.183 666.078C488.429 664.849 489.13 663.182 489.13 661.444V571.318C489.13 545.677 469.483 524.84 445.353 524.84L445.417 525.063Z" fill="#414342"/>
<g style="mix-blend-mode:darken" opacity="0.25">
<path d="M507.123 248.676L534.222 246.258L535.835 299.958L519.608 318.982H494.703L506.93 298.749L507.123 248.676Z" fill="#414342"/>
</g>
<g style="mix-blend-mode:darken" opacity="0.25">
<path d="M294.115 307.053L320.665 306.512L322.439 368.706L306.212 387.73H281.34L293.534 367.528L294.115 307.053Z" fill="#414342"/>
</g>
<path d="M370.899 318.887C370.382 318.89 369.871 318.77 369.411 318.537C368.951 318.305 368.554 317.966 368.254 317.551L355.898 300.595C355.504 300.033 355.291 299.368 355.285 298.686V274.667V240.787C355.285 239.943 355.625 239.134 356.23 238.537C356.835 237.941 357.656 237.605 358.511 237.605H393.062C393.917 237.605 394.738 237.941 395.343 238.537C395.948 239.134 396.288 239.943 396.288 240.787V271.295H424.386V240.882C424.386 240.038 424.726 239.229 425.331 238.633C425.936 238.036 426.756 237.701 427.612 237.701H462.227C463.083 237.701 463.903 238.036 464.508 238.633C465.113 239.229 465.453 240.038 465.453 240.882V271.391H493.584V240.882C493.584 240.038 493.923 239.229 494.528 238.633C495.133 238.036 495.954 237.701 496.81 237.701H531.425C531.849 237.698 532.27 237.779 532.663 237.937C533.056 238.095 533.413 238.329 533.715 238.623C534.024 238.922 534.269 239.278 534.435 239.672C534.601 240.065 534.685 240.488 534.683 240.914V298.718C534.683 299.289 534.527 299.849 534.231 300.34L534.038 300.626L521.714 317.583C521.411 318.003 521.009 318.344 520.543 318.576C520.076 318.809 519.559 318.927 519.037 318.919L370.899 318.887Z" fill="#CECECE"/>
<path d="M358.637 240.822H393.219V274.544H427.834V240.822H462.449V274.544H497.096V240.886H531.711V274.671V298.69L519.356 315.646H370.96L358.604 298.69V274.671V240.822H358.637ZM358.604 234.301C356.893 234.301 355.252 234.971 354.042 236.164C352.832 237.358 352.152 238.976 352.152 240.663V274.544V298.562C352.163 299.923 352.603 301.246 353.41 302.348L365.734 319.304C366.337 320.14 367.136 320.819 368.063 321.284C368.99 321.75 370.017 321.987 371.057 321.977H519.452C520.492 321.987 521.519 321.75 522.446 321.284C523.373 320.819 524.172 320.14 524.775 319.304L537.099 302.348C537.906 301.246 538.346 299.923 538.357 298.562V240.886C538.357 239.199 537.677 237.58 536.467 236.387C535.257 235.194 533.616 234.523 531.905 234.523H497.129C495.417 234.523 493.776 235.194 492.566 236.387C491.356 237.58 490.677 239.199 490.677 240.886V268.181H469.095V240.886C469.095 239.199 468.415 237.58 467.205 236.387C465.995 235.194 464.354 234.523 462.643 234.523H427.866C426.155 234.523 424.514 235.194 423.304 236.387C422.094 237.58 421.414 239.199 421.414 240.886V268.181H399.833V240.886C399.833 239.199 399.153 237.58 397.943 236.387C396.733 235.194 395.092 234.523 393.381 234.523H358.83L358.604 234.301Z" fill="#414342"/>
<g style="mix-blend-mode:darken" opacity="0.25">
<path d="M721.244 306.986L747.794 306.445L749.6 368.639L733.373 387.663H708.469L720.663 367.462L721.244 306.986Z" fill="#414342"/>
</g>
<g style="mix-blend-mode:darken" opacity="0.25">
<path d="M507.552 237.736L534.134 237.195L535.909 299.421L519.682 318.413H494.777L507.004 298.212L507.552 237.736Z" fill="#414342"/>
</g>
<g style="mix-blend-mode:darken" opacity="0.25">
<path d="M445.293 174.395L489.844 273.046L495.586 272.918L494.296 262.929L495.812 238.243L503.425 238.052L445.293 174.395Z" fill="#414342"/>
</g>
<g style="mix-blend-mode:darken" opacity="0.25">
<path d="M659.336 242.789L703.887 341.44L709.629 341.313L708.307 331.324L709.823 306.637L717.436 306.446L659.336 242.789Z" fill="#414342"/>
</g>
<defs>
<radialGradient id="paint0_radial" cx="0" cy="0" r="1" gradientUnits="userSpaceOnUse" gradientTransform="translate(98.9429 530.001) rotate(90) scale(90 94.9411)">
<stop stop-color="#6A97EE"/>
<stop offset="1" stop-color="#396ED4"/>
</radialGradient>
<radialGradient id="paint1_radial" cx="0" cy="0" r="1" gradientUnits="userSpaceOnUse" gradientTransform="translate(98.9429 350.001) rotate(90) scale(90 94.9411)">
<stop stop-color="#6A97EE"/>
<stop offset="1" stop-color="#396ED4"/>
</radialGradient>
<radialGradient id="paint2_radial" cx="0" cy="0" r="1" gradientUnits="userSpaceOnUse" gradientTransform="translate(98.9429 170.001) rotate(90) scale(90 94.9411)">
<stop stop-color="#6A97EE"/>
<stop offset="1" stop-color="#396ED4"/>
</radialGradient>
</defs>
</svg>
