<svg version="1.1" id="Merchant-Icon" xmlns="http://www.w3.org/2000/svg" x="0" y="0" width="112.25" height="112.25" xml:space="preserve"><style><![CDATA[.st0{fill:#482402}.st1{fill:#7C7D80}.st2{opacity:0.6;fill:#3333FF}.st3{fill:#4F0066}.st4{fill:#4F4F4F}.st5{fill:#B35800}.st6{opacity:0.7;fill:#4DA45F}.st7{fill:#B85739}.st8{opacity:0.6;fill:#7003A3}.st9{opacity:0.6;fill:#70ABF1}.st10{fill:#8C0039}.st11{fill:#231F20}.st12{opacity:0.6;fill:#414042}.st13{clip-path:url(#SVGID_2_)}.st14{fill:#C1C1C1}.st15{fill:#FCD001}.st16{fill:#FF0000}.st17{fill:#FF963B}.st19{opacity:0.6;fill:#B30000}.st20{fill:none;stroke:#58595B;stroke-width:3;stroke-miterlimit:10}.st23{fill:#0000B2}.st24{fill:#0071BC}.st25{fill:#00AAFF}.st26{opacity:0.6;clip-path:url(#SVGID_2_);fill:#58595B}.st27{fill:#D04DF7}.st28{fill:#D1EBFF}.st29{fill:#D5D5D5}.st30{fill:#086800}.st31{opacity:0.6;fill:#F27202}.st32{opacity:0.6;fill:#F77C00}.st33{fill:#753802}.st34{opacity:0.6;fill:#5E5E5E}.st35{fill:#A7A9AC}.st36{opacity:0.6;fill:#93320F}.st37{fill:#0EDD1D}.st38{fill:#414042}]]></style><g id="White"><path d="M54.072 4.438c9.604-.001 19.263 2.526 22.038 6.563 2.216 3.224 24.102 75.072 24.44 78.905.45 5.108-10.924 17.906-45.061 17.906-.514 0-1.031-.003-1.556-.009-37.25-.417-42.411-15.714-42.244-20.396.148-4.17 17.152-70.764 22.09-76.643 3.729-4.436 11.991-6.326 20.293-6.326m.426-4v4V.5h-.213c-5.064 0-17.582.725-23.461 7.723-.949 1.131-3.888 4.551-13.69 40.468C13.27 62.847 7.831 84.125 7.72 87.273c-.054 1.485.168 6.754 5.403 12.24 7.575 7.939 21.289 12.073 40.773 12.292.54.006 1.068.008 1.597.008 29.744 0 41.566-9.403 45.269-13.446 2.678-2.926 4.018-6.055 3.774-8.813-.302-3.417-10.515-36.719-11.678-40.505-11.53-37.518-12.764-39.622-13.24-40.314C75.407 2.611 63.498.438 54.498.438z"/><path d="M53.918 109.304c-23.399-.262-34.124-6.409-39-11.52-3.624-3.798-4.817-7.877-4.727-10.43.134-3.757 17.086-71.179 22.44-77.554 5.203-6.194 16.728-6.862 21.44-6.862 8.82 0 19.866 2.257 23.274 7.213 2.712 3.945 24.403 76.291 24.698 79.623.181 2.051-.931 4.502-3.129 6.903-3.479 3.799-14.675 12.635-43.426 12.635-.517.001-1.041-.002-1.57-.008z" fill="#fffbf2"/><path d="M54.072 4.438c9.604-.001 19.263 2.526 22.038 6.563 2.216 3.224 24.102 75.072 24.44 78.905.45 5.108-10.924 17.906-45.061 17.906-.514 0-1.031-.003-1.556-.009-37.25-.417-42.411-15.714-42.244-20.396.148-4.17 17.152-70.764 22.09-76.643 3.729-4.436 11.991-6.326 20.293-6.326m.426-3v3V1.5h-.213c-4.924 0-17.087.689-22.695 7.367-2.45 2.918-7.025 16.395-13.492 40.086-4.344 15.918-9.28 35.581-9.379 38.356-.05 1.386.162 6.311 5.127 11.514 5.076 5.319 16.141 11.715 40.063 11.982.535.006 1.061.008 1.585.008 29.348 0 40.918-9.177 44.531-13.122 2.485-2.715 3.734-5.574 3.516-8.049-.298-3.372-11.175-38.793-11.638-40.299-5.24-17.048-11.591-37.835-13.108-40.041-3.736-5.433-15.297-7.864-24.297-7.864z" fill="#6bb2b0"/><path id="head_8_" d="M34.088 10.354c-1.266 1.705-.461 8.992 16.543 10.119 17.289 1.144 18.254-1.825 18.754-1.486l19.648 82.791s10.246-4.488 11.496-10.906c.287-1.479-1.334-5.905-4.168-16.002-2.949-10.508-8.225-26.55-12.332-40.33-5.168-17.33-8.002-23.553-8.002-23.553S71.926 4.838 55.611 4.49c-15.017-.322-20.257 4.156-21.523 5.864z" opacity=".6" fill="#b8cccc"/></g></svg>