<svg xmlns="http://www.w3.org/2000/svg" xmlns:xlink="http://www.w3.org/1999/xlink" width="200" height="200" fill="none" xmlns:v="https://vecta.io/nano"><style><![CDATA[.B{fill:#515151}.C{fill:#e4e4e4}.D{fill:#676767}.E{fill:#919191}.F{stroke-miterlimit:10}]]></style><path d="M99.995 11.56c48.846 0 88.445 39.6 88.445 88.445s-39.6 88.445-88.445 88.445-88.445-39.599-88.445-88.445S51.148 11.56 99.995 11.56zm0-10.25C45.574 1.31 1.3 45.584 1.3 100.005S45.574 198.7 99.995 198.7s98.695-44.274 98.695-98.695S154.415 1.31 99.995 1.31z" fill="#000"/><path d="M99.995 192.987c-51.27 0-92.981-41.712-92.981-92.982S48.724 7.023 99.995 7.023s92.981 41.711 92.981 92.982-41.711 92.982-92.981 92.982z" fill="#878787"/><path d="M99.995 11.523c48.866 0 88.481 39.617 88.481 88.482s-39.615 88.482-88.481 88.482-88.481-39.615-88.481-88.482 39.615-88.482 88.481-88.482zm0-9c-53.751 0-97.481 43.73-97.481 97.482s43.73 97.482 97.481 97.482 97.481-43.73 97.481-97.482-43.73-97.482-97.481-97.482z" fill="#ec537a"/><path d="M99.995 23.671c42.09 0 76.333 34.243 76.333 76.334s-34.243 76.334-76.333 76.334-76.333-34.243-76.333-76.334 34.243-76.334 76.333-76.334zm0-17.064c-51.58 0-93.397 41.816-93.397 93.398s41.817 93.398 93.397 93.398 93.397-41.814 93.397-93.398S151.578 6.607 99.995 6.607z" fill="#ff8fac"/><path d="M135.334 52.469c-.245.247-.538.444-.859.577s-.668.202-1.016.201l-9.371.002c-.703-.001-1.377-.28-1.874-.777s-.777-1.171-.778-1.874l-.001-5.735a2.64 2.64 0 0 1 .778-1.876c.245-.247.537-.443.859-.577a2.63 2.63 0 0 1 1.014-.201h9.372a2.65 2.65 0 0 1 1.875.776c.498.497.777 1.171.778 1.875l.001 5.736c.001.348-.067.693-.201 1.015a2.64 2.64 0 0 1-.577.858z" class="E"/><path d="M122.789 43.608a1.68 1.68 0 0 1 1.187-.493l9.595-.003c.922 0 1.679.756 1.679 1.68l.003 5.873c-.002.445-.18.871-.495 1.186s-.742.491-1.187.492l-9.593.001a1.69 1.69 0 0 1-1.682-1.678v-5.872c0-.464.19-.882.493-1.186zm-1.465-1.466a3.72 3.72 0 0 0-.817 1.215c-.189.455-.285.944-.284 1.437l.001 5.872a3.76 3.76 0 0 0 3.753 3.752l9.594-.001a3.73 3.73 0 0 0 1.437-.286 3.72 3.72 0 0 0 1.214-.818c.35-.347.627-.759.816-1.214s.285-.942.284-1.435l-.001-5.873c-.001-.995-.397-1.949-1.101-2.652a3.75 3.75 0 0 0-2.651-1.1l-9.594.002a3.72 3.72 0 0 0-2.651 1.101z" class="B"/><path d="M145.731 81.494c-.222.223-.485.4-.775.52a2.38 2.38 0 0 1-.916.182l-30.52.004c-.64 0-1.241-.248-1.692-.699-.223-.222-.399-.485-.52-.775a2.38 2.38 0 0 1-.181-.916l-.001-6.867c.001-.683.279-1.105.514-1.339.729-.728 2.055-.675 3.228.126l2.508 1.714c.061.042.132.064.206.064l22.394-.004c.073 0 .145-.022.206-.063l2.507-1.716c.764-.522 1.907-.91 2.823-.425.584.307.919.903.92 1.637v6.865a2.38 2.38 0 0 1-.181.916 2.39 2.39 0 0 1-.52.776z" class="E"/><path d="M111.858 72.193c.408-.407 1.297-.226 2 .255l2.582 1.768a1.43 1.43 0 0 0 .801.248l23.072-.005a1.43 1.43 0 0 0 .802-.249l2.582-1.767c.941-.646 2.222-.755 2.222.388l.002 7.072a1.41 1.41 0 0 1-.417 1.005c-.132.132-.288.237-.46.309s-.357.108-.544.107l-31.443.007a1.42 1.42 0 0 1-1.421-1.42l-.001-7.076c0-.292.083-.5.223-.642zm-1.476-1.475c-.381.383-.834 1.058-.834 2.118l.001 7.075a3.51 3.51 0 0 0 3.509 3.506l31.443-.005a3.49 3.49 0 0 0 1.342-.266c.425-.176.812-.435 1.137-.761s.585-.712.761-1.138.267-.882.266-1.343l-.002-7.072c0-1.139-.562-2.114-1.505-2.611-1.352-.714-2.944-.209-3.982.502l-2.411 1.65-22.661.002-2.412-1.647c-1.655-1.134-3.525-1.137-4.652-.01z" class="B"/><path d="M123.451 48.403H134.1v28.086h-10.649V48.403z" fill="#a4a4a4"/><path d="M124.44 49.29l8.666-.001.005 26.31-8.666.001-.005-26.31zm-2.113-2.112v2.112l.006 26.311.001 2.114h2.111l8.666-.001 2.114-.001v-2.114l-.005-26.311v-2.113h-2.114l-8.666.003h-2.113z" class="D"/><path d="M130.141 156.625c-.409.412-1.015.604-1.62.518a1.81 1.81 0 0 1-1.344-.915l-6.859-12.682-.012-65.311 16.978-.003.012 65.312-6.856 12.683c-.082.146-.18.282-.299.398z" fill="#898989"/><path d="M121.184 78.637l15.22-.003.012 65.183-6.856 12.68c-.033.062-.075.119-.125.168-.372.374-1.116.317-1.38-.167l-6.858-12.678-.013-65.183zm-2.061-2.061v2.063l.011 65.181.001.522.25.46 6.858 12.677c.429.793 1.203 1.325 2.125 1.46a2.98 2.98 0 0 0 1.359-.11 2.97 2.97 0 0 0 1.166-.706c.19-.191.353-.407.48-.645l6.854-12.68.248-.46v-.522l-.011-65.182v-2.061h-2.062l-15.22.003h-2.059z" class="D"/><g class="C"><path d="M124.495 52.824h6.454v22.619h-6.454V52.824z"/><path d="M135.13 52.265a2.35 2.35 0 0 1-1.671.694l-9.371.002a2.37 2.37 0 0 1-1.67-.694c-.443-.443-.691-1.044-.692-1.67l-.001-5.734a2.35 2.35 0 0 1 .692-1.67 2.33 2.33 0 0 1 .765-.514c.286-.119.594-.18.904-.179l9.372-.002a2.35 2.35 0 0 1 1.67.691c.22.219.394.48.514.766a2.36 2.36 0 0 1 .18.905l.001 5.736c0 .629-.246 1.222-.693 1.669z"/></g><path d="M122.928 43.703c.306-.308.723-.481 1.157-.482l9.374-.002c.9 0 1.639.738 1.639 1.641l.002 5.736c0 .435-.173.852-.481 1.159a1.64 1.64 0 0 1-1.159.48l-9.372.001c-.899 0-1.639-.736-1.64-1.64v-5.735c0-.215.042-.428.124-.627s.203-.379.356-.531zm-1.023-1.022c-.288.286-.516.626-.671 1s-.235.776-.234 1.182l.001 5.735c0 .823.322 1.597.906 2.181s1.359.905 2.18.905l9.372-.002c.823 0 1.599-.321 2.182-.905.287-.286.515-.626.671-1a3.07 3.07 0 0 0 .234-1.181V44.86a3.07 3.07 0 0 0-.906-2.183c-.286-.287-.626-.515-1.001-.669a3.07 3.07 0 0 0-1.181-.233l-9.373.001c-.405 0-.806.079-1.18.235s-.714.384-1 .671z" class="B"/><path d="M145.527 81.289c-.195.196-.426.351-.681.457s-.529.16-.805.16l-30.521.005a2.08 2.08 0 0 1-.805-.159c-.255-.106-.487-.261-.681-.457a2.07 2.07 0 0 1-.457-.681c-.106-.255-.16-.528-.159-.804l-.002-6.867c0-.582.233-.939.43-1.135.732-.732 1.995-.429 2.859.16l2.507 1.715a.66.66 0 0 0 .371.115l22.394-.005c.132.001.261-.039.369-.114l2.507-1.715c.662-.452 1.722-.832 2.524-.408.286.15.764.53.764 1.381l.001 6.865a2.08 2.08 0 0 1-.159.805 2.11 2.11 0 0 1-.456.682z" class="C"/><path d="M112.355 72.318c.396-.396 1.259-.219 1.94.248l2.507 1.714a1.38 1.38 0 0 0 .778.242l22.395-.006a1.38 1.38 0 0 0 .778-.241l2.507-1.714c.914-.627 2.156-.733 2.156.376l.002 6.864a1.37 1.37 0 0 1-1.379 1.38l-30.521.007c-.366 0-.717-.145-.975-.404a1.38 1.38 0 0 1-.405-.975l-.001-6.867c.002-.284.083-.486.218-.624zm-1.022-1.023c-.293.293-.641.817-.641 1.647l.001 6.867a2.83 2.83 0 0 0 .829 1.997c.53.529 1.249.827 1.998.827l30.52-.005c.755 0 1.465-.294 1.998-.827a2.81 2.81 0 0 0 .827-2l-.002-6.864c0-.9-.419-1.636-1.149-2.023-1.088-.572-2.402-.142-3.271.453l-2.49 1.702-22.352.004-2.488-1.701c-1.349-.924-2.903-.954-3.78-.077z" class="B"/><use xlink:href="#B" class="D"/><path d="M128.069 156.261l-6.74-12.456-.01-56.072 14.955-.002.009 56.07-6.736 12.46c-.29.539-1.188.537-1.478 0z" fill="#bbb"/><path d="M128.808 156.664c-.296 0-.592-.135-.737-.403l-6.741-12.456-.01-56.072 7.478-.001c-.001 0 .306 68.932.01 68.932z" class="C"/><path d="M120.601 87.221l16.259-.042" stroke="#676767" stroke-width="3" class="F"/><path d="M143.164 73.142a.97.97 0 0 0-.097-.449l-2.315 1.583c-.229.157-.5.241-.777.241l-1.535.002a1.39 1.39 0 0 1-.718.204l-22.393.004c-.277 0-.549-.085-.778-.241l-2.404-1.644-.008.101.001 6.867c0 .181.036.361.105.528s.172.319.3.447a1.37 1.37 0 0 0 .448.299c.167.069.347.105.528.105l28.98-.007c.397-.242.664-.675.664-1.174l-.001-6.866zM123.31 43.426c-.26.14-.477.347-.629.6s-.233.542-.234.837l.001 5.735c0 .902.739 1.639 1.64 1.638h7.895c.513-.278.865-.814.865-1.435l-.001-5.736c-.002-.435-.175-.851-.483-1.159s-.724-.48-1.159-.481l-7.895.001z" class="C"/><path d="M123.831 44.265l4.846-.001c.436 0 .794.357.794.795a.8.8 0 0 1-.233.561c-.149.149-.35.233-.561.234l-4.845.001a.8.8 0 0 1-.563-.233c-.149-.149-.233-.352-.233-.563 0-.436.357-.794.795-.794zm-6.274 32.808l12.343-.002c.211-.001.413-.085.562-.234a.8.8 0 0 0 .233-.563.8.8 0 0 0-.234-.561c-.149-.149-.35-.233-.561-.233l-12.344.001a.8.8 0 0 0-.796.796c.001.211.085.413.235.562a.8.8 0 0 0 .562.234z" fill="#f7f7f7"/><path d="M79.733 52.469a2.63 2.63 0 0 1-1.875.778l-9.372.002c-.703-.001-1.377-.28-1.874-.777s-.777-1.171-.778-1.874l-.001-5.735a2.64 2.64 0 0 1 .778-1.876c.245-.247.537-.443.859-.577s.666-.202 1.014-.201h9.373c.703 0 1.378.279 1.875.776s.777 1.171.778 1.875l.001 5.736c.001.348-.067.693-.201 1.015s-.33.613-.577.858z" class="E"/><path d="M67.187 43.608a1.68 1.68 0 0 1 1.187-.493l9.595-.003c.922 0 1.679.756 1.679 1.68l.002 5.873c-.002.445-.18.871-.495 1.185s-.741.492-1.186.492l-9.593.001a1.69 1.69 0 0 1-1.682-1.678v-5.872a1.68 1.68 0 0 1 .493-1.186zm-1.464-1.466a3.72 3.72 0 0 0-1.101 2.652l.001 5.872a3.76 3.76 0 0 0 3.753 3.752l9.594-.001c1 0 1.942-.393 2.652-1.104a3.72 3.72 0 0 0 1.1-2.649l-.001-5.873c-.001-.995-.397-1.949-1.101-2.652s-1.657-1.099-2.652-1.1l-9.594.002a3.72 3.72 0 0 0-2.651 1.101z" class="B"/><path d="M90.13 81.494a2.38 2.38 0 0 1-1.691.702l-30.52.004c-.64 0-1.241-.248-1.692-.699-.223-.222-.4-.485-.52-.775a2.38 2.38 0 0 1-.181-.916l-.001-6.867c.001-.683.279-1.105.514-1.339.729-.728 2.055-.675 3.228.126l2.508 1.714c.061.042.132.064.206.064l22.394-.004a.36.36 0 0 0 .206-.063l2.507-1.716c.764-.522 1.907-.91 2.823-.425.584.307.919.903.92 1.637v6.865a2.39 2.39 0 0 1-.701 1.692z" class="E"/><path d="M56.257 72.193c.409-.407 1.298-.226 2 .255l2.583 1.768a1.43 1.43 0 0 0 .801.248l23.072-.005a1.43 1.43 0 0 0 .802-.249l2.582-1.767c.941-.646 2.222-.755 2.222.388l.002 7.072a1.41 1.41 0 0 1-.877 1.314 1.41 1.41 0 0 1-.544.107l-31.443.007a1.42 1.42 0 0 1-1.421-1.42l-.001-7.076c-.001-.292.082-.5.222-.642zm-1.476-1.475c-.381.383-.834 1.058-.834 2.118l.001 7.075a3.51 3.51 0 0 0 3.509 3.506l31.443-.005a3.49 3.49 0 0 0 2.479-1.027c.326-.325.585-.712.761-1.138s.267-.882.266-1.343l-.002-7.072c0-1.139-.562-2.114-1.505-2.611-1.353-.714-2.944-.209-3.982.502l-2.411 1.65-22.661.002-2.412-1.647c-1.655-1.134-3.525-1.137-4.652-.01z" class="B"/><path d="M67.849 48.403h10.649v28.086H67.849V48.403z" fill="#a4a4a4"/><path d="M68.839 49.29l8.666-.001.005 26.31-8.666.001-.005-26.31zm-2.114-2.112v2.112l.005 26.311.001 2.114h2.112l8.666-.001 2.114-.001v-2.114l-.005-26.311v-2.113h-2.113l-8.666.003h-2.114z" class="D"/><path d="M74.539 156.625c-.409.412-1.015.604-1.62.518-.28-.037-.547-.139-.781-.298a1.81 1.81 0 0 1-.563-.617l-6.859-12.682-.012-65.311 16.979-.003.013 65.312-6.857 12.683c-.081.146-.181.28-.3.398z" fill="#898989"/><path d="M65.584 78.637l15.221-.003.012 65.183-6.856 12.68c-.033.062-.075.119-.125.168-.372.374-1.116.317-1.38-.167l-6.86-12.679-.012-65.182zm-2.062-2.061v2.063l.011 65.181.001.522.249.46 6.86 12.677c.428.793 1.203 1.325 2.124 1.46a2.97 2.97 0 0 0 2.526-.816c.19-.191.353-.407.48-.645l6.854-12.68.248-.46v-.522l-.009-65.182v-2.061h-2.062l-15.221.003h-2.061z" class="D"/><g class="C"><path d="M68.893 52.824h6.454v22.619h-6.454V52.824z"/><path d="M79.529 52.265a2.35 2.35 0 0 1-1.671.694l-9.372.002c-.626-.001-1.227-.25-1.67-.694s-.692-1.044-.692-1.67l-.002-5.734a2.35 2.35 0 0 1 .693-1.67c.218-.221.478-.395.765-.514s.594-.18.904-.179l9.373-.002a2.35 2.35 0 0 1 1.67.691 2.36 2.36 0 0 1 .694 1.671l.001 5.736c.001.31-.06.618-.179.904s-.294.547-.514.765z"/></g><path d="M67.326 43.703a1.64 1.64 0 0 1 1.158-.482l9.374-.002c.9 0 1.639.738 1.639 1.641l.002 5.736a1.64 1.64 0 0 1-1.64 1.639l-9.372.001c-.9 0-1.64-.736-1.641-1.64v-5.735a1.63 1.63 0 0 1 .48-1.158zm-1.022-1.022c-.288.286-.516.626-.671 1s-.235.776-.234 1.182l.001 5.735c0 .823.322 1.597.906 2.181s1.359.905 2.181.905l9.372-.002c.823 0 1.599-.321 2.182-.905.287-.286.515-.626.671-1a3.07 3.07 0 0 0 .234-1.181V44.86a3.07 3.07 0 0 0-1.907-2.852 3.07 3.07 0 0 0-1.181-.233l-9.373.001a3.07 3.07 0 0 0-2.181.906z" class="B"/><path d="M89.926 81.289c-.195.196-.426.351-.681.457s-.528.16-.805.16l-30.522.005a2.08 2.08 0 0 1-1.943-1.296 2.08 2.08 0 0 1-.159-.805l-.001-6.867c0-.582.233-.939.43-1.135.732-.732 1.995-.429 2.859.16l2.507 1.715a.66.66 0 0 0 .371.115l22.394-.005c.132.001.261-.039.369-.114l2.507-1.715c.662-.452 1.721-.832 2.524-.408.286.15.764.53.764 1.381l.001 6.865a2.1 2.1 0 0 1-.615 1.487z" class="C"/><path d="M56.754 72.318c.396-.396 1.259-.219 1.94.248l2.507 1.714a1.38 1.38 0 0 0 .778.242l22.395-.006a1.38 1.38 0 0 0 .778-.241l2.507-1.714c.914-.627 2.156-.733 2.156.376l.002 6.864c0 .382-.154.728-.405.976-.128.129-.279.23-.446.3s-.347.105-.528.104l-30.521.007a1.38 1.38 0 0 1-1.379-1.379l-.001-6.867c0-.284.081-.486.217-.624zm-1.023-1.023c-.293.293-.641.817-.641 1.647l.001 6.867c.001.749.299 1.468.829 1.997s1.249.827 1.998.827l30.52-.005c.755 0 1.465-.294 1.998-.827a2.81 2.81 0 0 0 .827-2l-.002-6.864c0-.9-.419-1.636-1.149-2.023-1.088-.572-2.402-.142-3.271.453l-2.49 1.702-22.352.004-2.489-1.701c-1.348-.924-2.902-.954-3.779-.077z" class="B"/><use xlink:href="#B" x="-55.602" class="D"/><path d="M72.468 156.261l-6.74-12.456-.01-56.072 14.955-.002.009 56.07-6.736 12.46c-.291.539-1.188.537-1.478 0z" fill="#bbb"/><path d="M73.206 156.664c-.296 0-.592-.135-.737-.403l-6.742-12.456-.01-56.072 7.478-.001.011 68.932z" class="C"/><path d="M65 87.221l16.26-.042" stroke="#676767" stroke-width="3" class="F"/><path d="M87.563 73.142c.004-.155-.029-.309-.097-.449l-2.315 1.583a1.37 1.37 0 0 1-.777.241l-1.535.002c-.216.132-.465.203-.718.204l-22.394.004c-.277 0-.549-.085-.778-.241l-2.404-1.644-.008.101.001 6.867a1.38 1.38 0 0 0 .405.975 1.38 1.38 0 0 0 .976.404l28.981-.007c.397-.242.664-.675.664-1.174l-.001-6.866zM67.709 43.426c-.26.14-.478.347-.629.6s-.233.542-.234.837l.001 5.735c0 .902.739 1.639 1.64 1.638h7.896c.513-.278.865-.814.865-1.435l-.001-5.736c-.002-.435-.175-.851-.483-1.159s-.724-.48-1.159-.481l-7.896.001z" class="C"/><path d="M68.229 44.265l4.846-.001c.436 0 .794.357.794.795-.001.211-.084.412-.233.561s-.35.233-.561.234l-4.845.001c-.211 0-.413-.084-.563-.233s-.233-.352-.233-.563a.8.8 0 0 1 .795-.794zm-6.274 32.808l12.343-.002c.211-.001.413-.085.562-.234s.233-.352.233-.563-.085-.412-.234-.561-.351-.233-.561-.233l-12.344.001a.8.8 0 0 0-.796.796.8.8 0 0 0 .797.796z" fill="#f7f7f7"/><defs ><path id="B" d="M133.507 70.377v-1.023s-1.873-.584-4.729-.583-4.699.585-4.699.585l.001 1.023s2.602-.586 4.698-.586 4.729.584 4.729.584zm-.001-6.094v-1.024s-1.873-.584-4.729-.583-4.698.585-4.698.585l-.001 1.023s2.604-.586 4.7-.586 4.728.585 4.728.585zm-.001-5.537v-1.023s-1.873-.583-4.729-.583-4.7.586-4.7.586l.001 1.022s2.604-.584 4.699-.585 4.729.583 4.729.583z"/></defs></svg>