<svg xmlns="http://www.w3.org/2000/svg" width="200" height="200" fill="none" xmlns:v="https://vecta.io/nano"><path d="M99.995 11.56c48.846 0 88.445 39.601 88.445 88.445s-39.6 88.445-88.445 88.445-88.445-39.599-88.445-88.445S51.148 11.56 99.995 11.56zm0-10.25C45.574 1.31 1.3 45.584 1.3 100.005S45.574 198.7 99.995 198.7s98.695-44.275 98.695-98.695S154.415 1.31 99.995 1.31z" fill="#000"/><path d="M99.995 192.986c-51.27 0-92.981-41.712-92.981-92.982s41.711-92.98 92.981-92.98 92.981 41.71 92.981 92.98-41.711 92.982-92.981 92.982z" fill="#fff"/><path d="M99.995 11.524c48.866 0 88.481 39.616 88.481 88.481s-39.615 88.481-88.481 88.481-88.481-39.615-88.481-88.481 39.615-88.481 88.481-88.481zm0-9c-53.751 0-97.481 43.729-97.481 97.481s43.73 97.481 97.481 97.481 97.481-43.73 97.481-97.481-43.73-97.481-97.481-97.481z" fill="#ec537a"/><path d="M99.995 23.671c42.089 0 76.332 34.243 76.332 76.334s-34.243 76.333-76.332 76.333-76.332-34.243-76.332-76.333 34.243-76.334 76.332-76.334zm0-17.064c-51.58 0-93.397 41.816-93.397 93.398s41.817 93.397 93.397 93.397 93.397-41.814 93.397-93.397S151.578 6.607 99.995 6.607z" fill="#ff8fac"/><path d="M106.538 52.442c-.246.248-.538.444-.86.577a2.64 2.64 0 0 1-1.017.201l-9.377.002c-.703-.001-1.378-.281-1.875-.778s-.777-1.172-.778-1.875l-.001-5.738a2.64 2.64 0 0 1 .778-1.877c.245-.247.537-.443.859-.577s.667-.202 1.015-.201h9.378c.704 0 1.378.279 1.876.777s.778 1.172.779 1.875l.001 5.739a2.62 2.62 0 0 1-.201 1.016c-.134.322-.33.614-.577.859z" fill="#916136"/><path d="M93.984 43.574c.315-.315.742-.492 1.188-.493l9.601-.003a1.69 1.69 0 0 1 1.68 1.681l.002 5.876c-.002.445-.179.872-.495 1.187s-.742.492-1.187.493l-9.599.001a1.69 1.69 0 0 1-1.682-1.68v-5.875c0-.463.19-.882.492-1.187zm-1.466-1.466c-.35.347-.628.761-.817 1.217s-.286.944-.284 1.437l.001 5.875a3.76 3.76 0 0 0 3.755 3.754l9.6-.001c.493.001.982-.097 1.438-.286a3.73 3.73 0 0 0 1.216-.818 3.72 3.72 0 0 0 .816-1.215c.189-.455.285-.943.284-1.436l-.001-5.876a3.76 3.76 0 0 0-3.755-3.754l-9.6.002a3.73 3.73 0 0 0-2.653 1.101z" fill="#42250d"/><path d="M116.94 81.484a2.38 2.38 0 0 1-.776.52c-.29.12-.602.182-.916.182l-30.538.004c-.64 0-1.241-.248-1.692-.7-.223-.221-.4-.485-.52-.776s-.182-.602-.181-.916l-.001-6.87c.001-.684.28-1.106.515-1.341.729-.728 2.056-.675 3.229.127l2.509 1.715c.061.042.133.064.207.064l22.405-.005c.074.001.146-.021.207-.063l2.508-1.717c.765-.523 1.908-.91 2.825-.426.585.307.92.904.921 1.638v6.87a2.39 2.39 0 0 1-.701 1.694z" fill="#916136"/><path d="M83.049 72.177c.408-.407 1.298-.226 2.001.256l2.583 1.768a1.43 1.43 0 0 0 .802.248l23.086-.005a1.43 1.43 0 0 0 .801-.248l2.583-1.768c.943-.646 2.224-.756 2.224.387l.002 7.077a1.41 1.41 0 0 1-.877 1.314c-.173.072-.357.108-.544.108l-31.461.007a1.42 1.42 0 0 1-1.422-1.422l-.001-7.08c-.001-.292.082-.501.223-.642zm-1.478-1.476c-.381.382-.834 1.057-.834 2.118l.001 7.079c.001.931.371 1.823 1.03 2.481s1.551 1.028 2.481 1.028l31.461-.005c.461.001.917-.09 1.342-.266s.812-.435 1.137-.762a3.5 3.5 0 0 0 1.028-2.482l-.002-7.077c0-1.139-.562-2.114-1.505-2.612-1.354-.715-2.947-.21-3.985.502l-2.412 1.651-22.673.003-2.414-1.649c-1.656-1.134-3.527-1.137-4.655-.009z" fill="#42250d"/><path d="M94.647 48.373h10.655v28.102H94.647V48.373z" fill="#9b7753"/><path d="M95.637 49.261l8.672-.001.005 26.325-8.672.001-.005-26.325zm-2.115-2.114v2.114l.006 26.326.001 2.114h2.112l8.672-.001 2.115-.001v-2.114l-.006-26.326v-2.115h-2.114l-8.672.003h-2.114z" fill="#603913"/><path d="M101.341 156.657c-.41.412-1.016.604-1.621.518a1.81 1.81 0 0 1-1.345-.916l-6.863-12.688-.012-65.348 16.988-.003.013 65.349-6.861 12.689a1.73 1.73 0 0 1-.299.399z" fill="#636362"/><path d="M92.379 78.624l15.229-.003.012 65.22-6.86 12.687c-.032.062-.075.119-.125.168-.372.375-1.116.318-1.38-.167l-6.864-12.685-.012-65.22zm-2.063-2.061v2.063l.011 65.218.001.523.25.459 6.863 12.685c.429.794 1.204 1.326 2.126 1.461.456.069.921.031 1.36-.11a2.97 2.97 0 0 0 1.167-.707 2.76 2.76 0 0 0 .481-.645l6.858-12.688.247-.46v-.522l-.01-65.219v-2.062h-2.063l-15.229.003h-2.062v.001z" fill="#414042"/><path d="M95.692 52.796h6.457v22.633h-6.457V52.796z" fill="#c49a6c"/><path d="M106.334 52.237a2.35 2.35 0 0 1-.767.514c-.287.119-.595.18-.906.179l-9.377.002c-.627-.001-1.228-.25-1.671-.694s-.692-1.044-.693-1.671l-.001-5.737a2.35 2.35 0 0 1 .693-1.671 2.34 2.34 0 0 1 1.67-.693l9.378-.002a2.36 2.36 0 0 1 .905.179 2.37 2.37 0 0 1 .768.512 2.36 2.36 0 0 1 .693 1.672l.002 5.739a2.35 2.35 0 0 1-.694 1.671z" fill="#633b1a"/><path d="M94.124 43.67a1.64 1.64 0 0 1 1.158-.482l9.379-.002a1.65 1.65 0 0 1 1.641 1.642l.002 5.739a1.64 1.64 0 0 1-1.642 1.641l-9.377.001a1.65 1.65 0 0 1-1.642-1.642v-5.738c0-.215.042-.429.125-.628s.204-.38.356-.531zM93.1 42.648a3.06 3.06 0 0 0-.672 1.001c-.155.375-.235.777-.233 1.182l.001 5.738c0 .824.321 1.598.906 2.183s1.36.905 2.182.905l9.377-.002a3.07 3.07 0 0 0 2.184-.905c.585-.586.905-1.36.905-2.183v-5.739c.001-.406-.079-.808-.234-1.183s-.384-.715-.672-1.001a3.08 3.08 0 0 0-1.002-.67c-.375-.155-.776-.235-1.182-.234l-9.378.001a3.07 3.07 0 0 0-2.182.907z" fill="#42250d"/><path d="M116.735 81.278c-.195.196-.426.351-.681.457s-.529.16-.805.16l-30.54.004c-.562 0-1.09-.218-1.486-.615-.196-.195-.352-.426-.458-.682s-.16-.529-.159-.805l-.001-6.87c0-.583.233-.94.43-1.137.732-.732 1.996-.428 2.861.161l2.509 1.716a.66.66 0 0 0 .371.115l22.405-.005c.132.001.261-.039.369-.114l2.509-1.716c.663-.452 1.723-.833 2.526-.408.285.149.764.53.764 1.381l.001 6.87a2.09 2.09 0 0 1-.615 1.488z" fill="#633b1a"/><path d="M83.545 72.302c.396-.396 1.26-.219 1.942.248l2.508 1.716a1.38 1.38 0 0 0 .779.241l22.406-.005c.278 0 .55-.085.779-.241l2.508-1.716c.915-.627 2.158-.733 2.158.376l.002 6.869a1.37 1.37 0 0 1-.405.976c-.128.129-.28.23-.447.3a1.37 1.37 0 0 1-.528.104l-30.539.008a1.38 1.38 0 0 1-1.38-1.381l-.001-6.87c.001-.285.082-.487.218-.625zm-1.023-1.024c-.293.293-.642.817-.642 1.648l.001 6.87a2.83 2.83 0 0 0 2.828 2.826l30.538-.005a2.81 2.81 0 0 0 1.999-.827c.264-.262.472-.574.615-.918s.214-.712.213-1.084l-.002-6.869c0-.9-.42-1.637-1.15-2.023-1.089-.573-2.403-.143-3.272.452l-2.491 1.703-22.365.005-2.49-1.703c-1.35-.922-2.905-.953-3.782-.076z" fill="#42250d"/><path d="M104.709 70.359v-1.023s-1.875-.585-4.731-.584-4.702.586-4.702.586l.001 1.024s2.603-.587 4.701-.587 4.731.584 4.731.584zm-.001-6.097v-1.024s-1.875-.584-4.733-.583-4.7.585-4.7.585l-.001 1.023s2.605-.586 4.702-.586 4.732.585 4.732.585zm-.001-5.54v-1.023s-1.875-.584-4.732-.584-4.702.587-4.702.587l.001 1.023s2.604-.585 4.701-.586 4.732.583 4.732.583z" fill="#603913"/><path d="M99.267 156.292l-6.744-12.463-.01-56.103 14.964-.002.009 56.102-6.739 12.467c-.291.538-1.189.537-1.48-.001z" fill="#939598"/><path d="M100.007 156.695c-.297 0-.592-.135-.738-.403l-6.745-12.463-.01-56.103 7.482-.002.011 68.971z" fill="#bcbec0"/><path d="M91.797 87.213l16.268-.042" stroke="#414042" stroke-width="3" stroke-miterlimit="10"/><path d="M114.371 73.126c.004-.156-.029-.31-.097-.45l-2.316 1.585a1.38 1.38 0 0 1-.778.241l-1.536.001c-.216.133-.464.203-.717.204l-22.406.004a1.38 1.38 0 0 1-.779-.241l-2.405-1.644-.008.101.001 6.87a1.38 1.38 0 0 0 1.381 1.381l28.998-.008c.397-.242.664-.675.664-1.174l-.002-6.87zM94.507 43.394c-.26.139-.478.346-.63.599s-.233.542-.234.838l.001 5.738c0 .903.739 1.641 1.641 1.64h7.9c.513-.279.865-.815.865-1.437l-.001-5.739c-.002-.435-.175-.851-.483-1.159s-.724-.48-1.159-.481l-7.9.001z" fill="#916136"/><path d="M95.027 44.233l4.848-.001a.8.8 0 0 1 .545.243c.143.148.223.347.223.553s-.08.404-.223.553a.8.8 0 0 1-.545.243l-4.847.001a.8.8 0 0 1-.796-.797.8.8 0 0 1 .795-.794zM88.749 77.06l12.35-.002a.8.8 0 0 0 .563-.234c.149-.149.233-.352.233-.563a.8.8 0 0 0-.234-.562c-.149-.149-.351-.233-.562-.233l-12.351.001a.8.8 0 0 0-.796.797.8.8 0 0 0 .797.796z" fill="#b78358"/></svg>