<svg xmlns="http://www.w3.org/2000/svg" xmlns:xlink="http://www.w3.org/1999/xlink" width="200" height="200" fill="none" xmlns:v="https://vecta.io/nano"><style><![CDATA[.B{fill:#515151}.C{fill:#e4e4e4}.D{fill:#676767}.E{fill:#919191}.F{fill:#a4a4a4}.G{fill:#898989}.H{stroke:#676767}.I{stroke-width:3}.J{stroke-miterlimit:10}.K{fill:#f7f7f7}]]></style><path d="M99.995 11.56c48.846 0 88.445 39.6 88.445 88.445s-39.6 88.445-88.445 88.445-88.445-39.599-88.445-88.445S51.148 11.56 99.995 11.56zm0-10.25C45.574 1.31 1.3 45.584 1.3 100.005S45.574 198.7 99.995 198.7s98.695-44.274 98.695-98.695S154.415 1.31 99.995 1.31z" fill="#000"/><path d="M99.995 192.987c-51.27 0-92.981-41.712-92.981-92.982S48.724 7.023 99.995 7.023s92.981 41.711 92.981 92.982-41.711 92.982-92.981 92.982z" fill="#878787"/><path d="M99.995 11.523c48.866 0 88.481 39.617 88.481 88.482s-39.615 88.482-88.481 88.482-88.481-39.615-88.481-88.482 39.615-88.482 88.481-88.482zm0-9c-53.751 0-97.481 43.73-97.481 97.482s43.73 97.482 97.481 97.482 97.481-43.73 97.481-97.482-43.73-97.482-97.481-97.482z" fill="#ec537a"/><path d="M99.995 23.671c42.09 0 76.333 34.243 76.333 76.334s-34.243 76.334-76.333 76.334-76.333-34.243-76.333-76.334 34.243-76.334 76.333-76.334zm0-17.064c-51.58 0-93.397 41.816-93.397 93.398s41.817 93.398 93.397 93.398 93.397-41.814 93.397-93.398S151.578 6.607 99.995 6.607z" fill="#ff8fac"/><path d="M140.345 50.838a2.55 2.55 0 0 1-.835.56c-.312.13-.648.196-.986.196l-9.102.002a2.58 2.58 0 0 1-2.576-2.575l-.001-5.57a2.56 2.56 0 0 1 1.59-2.381c.312-.13.647-.196.985-.196h9.103c.683 0 1.338.271 1.821.753s.755 1.138.756 1.821l.001 5.571a2.56 2.56 0 0 1-.756 1.819z" class="E"/><path d="M128.161 42.232a1.63 1.63 0 0 1 1.152-.479l9.318-.003c.896 0 1.631.734 1.631 1.631l.002 5.704a1.64 1.64 0 0 1-1.632 1.63l-9.316.001a1.64 1.64 0 0 1-1.152-.479c-.306-.305-.479-.719-.481-1.151v-5.703c0-.449.184-.856.478-1.151zm-1.423-1.424c-.34.337-.609.739-.792 1.181a3.61 3.61 0 0 0-.276 1.395l.001 5.703a3.65 3.65 0 0 0 3.645 3.644l9.317-.001a3.62 3.62 0 0 0 2.576-1.071c.339-.337.608-.738.791-1.18a3.62 3.62 0 0 0 .276-1.393l-.001-5.704c-.001-.966-.385-1.893-1.069-2.576s-1.61-1.067-2.576-1.068l-9.317.002a3.61 3.61 0 0 0-2.575 1.068z" class="B"/><use xlink:href="#B" class="E"/><path d="M117.545 69.994c.396-.396 1.26-.219 1.942.248l2.508 1.716c.229.156.501.241.778.241l22.407-.005c.277 0 .549-.085.778-.241l2.508-1.716c.915-.627 2.158-.733 2.158.376l.002 6.869a1.37 1.37 0 0 1-1.38 1.38l-30.538.007a1.38 1.38 0 0 1-1.38-1.38l-.001-6.872c.001-.283.082-.485.218-.623zm-1.434-1.432c-.37.371-.81 1.026-.81 2.057l.001 6.871a3.41 3.41 0 0 0 3.407 3.405l30.538-.005c.447.001.89-.087 1.303-.258s.789-.423 1.104-.74.568-.691.74-1.105.259-.857.258-1.304l-.002-6.869c0-1.105-.545-2.053-1.461-2.536-1.313-.693-2.86-.203-3.868.487l-2.342 1.604-22.008.002-2.343-1.601c-1.606-1.1-3.422-1.103-4.517-.008z" class="B"/><path d="M128.804 46.889h10.342v27.276h-10.342V46.889z" class="F"/><use xlink:href="#C" class="D"/><path d="M135.3 151.995c-.397.399-.985.586-1.573.502-.272-.036-.532-.135-.758-.289a1.76 1.76 0 0 1-.547-.6l-6.661-12.316-.012-63.43 16.489-.003.012 63.431-6.66 12.317a1.62 1.62 0 0 1-.29.388z" class="G"/><path d="M126.602 76.252l14.781-.003.012 63.306-6.658 12.314a.64.64 0 0 1-.121.163c-.361.363-1.084.309-1.34-.162l-6.662-12.313-.012-63.305zm-2.002-2.001v2.003l.011 63.304.001.508.242.446 6.662 12.312c.416.771 1.169 1.287 2.063 1.418.442.067.894.03 1.32-.107s.813-.373 1.132-.686a2.72 2.72 0 0 0 .467-.626l6.657-12.314.24-.446v-.508l-.01-63.305v-2.001h-2.003l-14.781.003H124.6v-.001z" class="D"/><g class="C"><path d="M129.818 51.183h6.268v21.968h-6.268V51.183z"/><path d="M140.146 50.64c-.213.214-.465.384-.744.499a2.28 2.28 0 0 1-.879.175l-9.102.002c-.609-.001-1.192-.243-1.622-.673s-.672-1.014-.673-1.623l-.001-5.569a2.28 2.28 0 0 1 .673-1.622c.212-.214.465-.384.743-.5a2.27 2.27 0 0 1 .878-.173l9.103-.002c.61 0 1.188.237 1.622.672a2.29 2.29 0 0 1 .675 1.622l.001 5.571c0 .611-.239 1.186-.674 1.621z"/></g><path d="M128.295 42.324c.29-.288.688-.468 1.125-.468l9.104-.002a1.6 1.6 0 0 1 1.592 1.593l.002 5.571c-.001.422-.169.827-.468 1.126a1.6 1.6 0 0 1-1.126.467l-9.102.001a1.6 1.6 0 0 1-1.594-1.593v-5.57a1.59 1.59 0 0 1 .121-.609c.081-.193.198-.368.346-.516zm-.993-.992a2.98 2.98 0 0 0-.652.971 2.97 2.97 0 0 0-.227 1.147l.001 5.57c0 .8.313 1.551.88 2.118s1.32.879 2.118.879l9.102-.002c.8 0 1.553-.312 2.119-.879.279-.278.501-.608.651-.971a2.97 2.97 0 0 0 .228-1.147v-5.571a2.98 2.98 0 0 0-.88-2.119c-.278-.279-.608-.5-.972-.651a2.98 2.98 0 0 0-1.147-.227l-9.103.001a2.98 2.98 0 0 0-1.147.229c-.364.151-.694.373-.971.652z" class="B"/><path d="M150.243 78.828c-.189.19-.414.341-.661.444s-.514.156-.782.155l-29.642.004c-.268.001-.534-.051-.782-.154a2.03 2.03 0 0 1-.661-.444 2.02 2.02 0 0 1-.445-.661c-.102-.248-.155-.514-.154-.782l-.001-6.669c0-.565.227-.912.417-1.103.711-.711 1.938-.416 2.777.156l2.435 1.665a.64.64 0 0 0 .36.112l21.747-.005c.128.001.253-.038.358-.111l2.435-1.665c.644-.439 1.672-.809 2.452-.396.277.146.741.515.741 1.341l.001 6.668c.002.268-.05.534-.152.782a2.02 2.02 0 0 1-.443.662z" class="C"/><path d="M118.028 70.115c.385-.384 1.223-.212 1.885.241l2.435 1.665a1.34 1.34 0 0 0 .756.234l21.748-.005a1.34 1.34 0 0 0 .756-.234l2.435-1.665c.888-.608 2.095-.712 2.095.365l.002 6.667c0 .37-.15.706-.394.947-.124.125-.271.224-.434.291s-.336.102-.512.102l-29.641.007a1.34 1.34 0 0 1-1.34-1.34l-.001-6.669c-.001-.276.078-.472.21-.606zm-.993-.993c-.284.284-.622.793-.622 1.6l.001 6.669c.001.728.29 1.425.805 1.94a2.74 2.74 0 0 0 1.94.803l29.64-.005c.733 0 1.423-.285 1.94-.803.256-.254.459-.557.597-.89a2.73 2.73 0 0 0 .207-1.052l-.002-6.667c0-.874-.407-1.589-1.116-1.965-1.057-.556-2.333-.138-3.177.439l-2.418 1.653-21.707.004-2.417-1.652c-1.311-.896-2.819-.926-3.671-.074z" class="B"/><use xlink:href="#D" class="D"/><use xlink:href="#E" fill="#bbb"/><use xlink:href="#F" class="C"/><path d="M126.037 84.589l15.79-.041" class="H I J"/><path d="M147.949 70.915c.004-.151-.028-.301-.094-.437l-2.249 1.538a1.33 1.33 0 0 1-.755.234l-1.491.001c-.209.128-.45.198-.696.198l-21.749.004a1.34 1.34 0 0 1-.756-.234l-2.335-1.596-.008.098.001 6.669a1.34 1.34 0 0 0 1.341 1.34l28.147-.007a1.33 1.33 0 0 0 .645-1.14l-.001-6.668zm-19.282-28.859c-.496.271-.84.792-.839 1.395l.001 5.57c0 .876.718 1.592 1.593 1.591h7.668c.498-.271.84-.791.84-1.394l-.001-5.571a1.6 1.6 0 0 0-.469-1.125c-.298-.298-.703-.466-1.125-.467l-7.668.001z" class="C"/><path d="M129.173 42.87l4.706-.001c.424 0 .771.347.771.771a.78.78 0 0 1-.226.545c-.145.145-.341.226-.545.227l-4.705.001a.77.77 0 0 1-.745-.771c0-.2.078-.392.216-.536s.328-.229.528-.236zm-6.094 31.864l11.987-.002c.205 0 .401-.082.546-.227a.77.77 0 0 0 .226-.546c-.001-.204-.082-.4-.227-.545s-.341-.226-.545-.226l-11.988.001c-.205.001-.4.083-.545.228s-.226.341-.227.545.083.4.228.545.34.226.545.227z" class="K"/><path d="M73.346 50.838a2.56 2.56 0 0 1-1.821.756l-9.102.002a2.58 2.58 0 0 1-2.576-2.575l-.001-5.57a2.56 2.56 0 0 1 1.59-2.381c.312-.13.647-.196.985-.196h9.103c.683 0 1.338.271 1.821.753s.755 1.138.755 1.821l.001 5.571a2.56 2.56 0 0 1-.756 1.819z" class="E"/><path d="M61.161 42.232a1.63 1.63 0 0 1 1.152-.479l9.318-.003c.896 0 1.631.734 1.631 1.631l.002 5.704a1.64 1.64 0 0 1-1.632 1.63l-9.316.001a1.64 1.64 0 0 1-1.633-1.63v-5.703c0-.449.184-.856.478-1.151zm-1.423-1.424c-.34.337-.609.739-.792 1.181s-.277.916-.276 1.395l.001 5.703a3.65 3.65 0 0 0 3.645 3.644l9.317-.001a3.62 3.62 0 0 0 2.576-1.071c.339-.337.608-.738.791-1.18s.277-.915.276-1.393l-.001-5.704a3.65 3.65 0 0 0-3.645-3.644l-9.317.002a3.61 3.61 0 0 0-2.575 1.068z" class="B"/><path d="M83.442 79.027a2.31 2.31 0 0 1-1.643.682l-29.641.004a2.31 2.31 0 0 1-1.644-.68c-.439-.439-.681-1.021-.681-1.643l-.001-6.669c.001-.663.271-1.073.499-1.301.707-.706 1.995-.655 3.135.123l2.436 1.664a.35.35 0 0 0 .2.063l21.748-.004c.072 0 .141-.021.2-.062l2.435-1.666c.742-.508 1.853-.884 2.742-.413.567.298.893.878.894 1.59v6.668c.001.305-.058.608-.174.89s-.288.538-.505.754z" class="E"/><path d="M50.546 69.994c.396-.396 1.26-.219 1.942.248l2.508 1.716c.229.156.501.241.778.241l22.407-.005c.277 0 .549-.085.778-.241l2.508-1.716c.915-.627 2.158-.733 2.158.376l.002 6.869a1.37 1.37 0 0 1-1.38 1.38l-30.538.007a1.38 1.38 0 0 1-1.38-1.38l-.001-6.872c.001-.283.082-.485.218-.623zm-1.434-1.432c-.37.371-.81 1.026-.81 2.057l.001 6.871a3.41 3.41 0 0 0 3.407 3.405l30.538-.005c.447.001.89-.087 1.303-.258s.788-.423 1.104-.74.568-.691.74-1.105a3.39 3.39 0 0 0 .258-1.304l-.002-6.869c0-1.105-.545-2.053-1.461-2.536-1.313-.693-2.86-.203-3.868.487l-2.342 1.604-22.008.002-2.343-1.601c-1.606-1.1-3.422-1.103-4.517-.008z" class="B"/><path d="M61.804 46.889h10.342v27.276H61.804V46.889z" class="F"/><use xlink:href="#C" x="-66.999" class="D"/><path d="M68.301 151.995c-.397.399-.985.586-1.573.502a1.76 1.76 0 0 1-1.305-.889l-6.662-12.316-.012-63.43 16.49-.003.012 63.431-6.66 12.317c-.077.143-.175.274-.29.388z" class="G"/><path d="M59.602 76.252l14.782-.003.012 63.306-6.659 12.314a.65.65 0 0 1-.121.163c-.361.363-1.084.309-1.34-.162l-6.662-12.313-.012-63.305zM57.6 74.251v2.003l.011 63.304.001.508.242.446 6.662 12.312c.416.771 1.169 1.287 2.063 1.418.442.067.894.03 1.32-.107s.814-.373 1.133-.686a2.72 2.72 0 0 0 .467-.626l6.657-12.314.24-.446v-.508l-.01-63.305v-2.001h-2.001l-14.782.003H57.6v-.001z" class="D"/><g class="C"><path d="M62.818 51.183h6.268v21.968h-6.268V51.183z"/><path d="M73.147 50.64c-.213.214-.465.384-.744.499a2.28 2.28 0 0 1-.879.175l-9.102.002a2.3 2.3 0 0 1-2.295-2.296l-.001-5.569a2.28 2.28 0 0 1 .673-1.622 2.27 2.27 0 0 1 1.621-.673l9.103-.002c.61 0 1.188.237 1.622.672a2.29 2.29 0 0 1 .675 1.622l.001 5.571c0 .611-.239 1.186-.674 1.621z"/></g><path d="M61.296 42.324c.29-.288.688-.468 1.125-.468l9.104-.002a1.6 1.6 0 0 1 1.592 1.593l.002 5.571c-.001.422-.169.827-.468 1.126s-.704.467-1.126.467l-9.102.001a1.6 1.6 0 0 1-1.594-1.593v-5.57a1.59 1.59 0 0 1 .467-1.125zm-.993-.992c-.279.277-.501.607-.652.971s-.228.754-.227 1.147l.001 5.57c0 .8.313 1.551.88 2.118s1.32.879 2.118.879l9.102-.002c.8 0 1.553-.312 2.119-.879a2.98 2.98 0 0 0 .879-2.118v-5.571a2.98 2.98 0 0 0-.88-2.119c-.278-.279-.608-.5-.972-.651s-.754-.228-1.147-.227l-9.103.001c-.394 0-.784.078-1.147.229a2.98 2.98 0 0 0-.971.652z" class="B"/><path d="M83.244 78.828a2.03 2.03 0 0 1-1.443.6l-29.643.004a2.02 2.02 0 0 1-1.443-.598 2.02 2.02 0 0 1-.599-1.443l-.001-6.669c0-.565.227-.912.417-1.103.711-.711 1.938-.416 2.777.156l2.435 1.665a.64.64 0 0 0 .36.112l21.748-.005c.128.001.253-.038.358-.111l2.435-1.665c.644-.439 1.672-.809 2.452-.396.277.146.741.515.741 1.341l.001 6.668a2.02 2.02 0 0 1-.595 1.444z" class="C"/><path d="M51.029 70.115c.385-.384 1.223-.212 1.885.241l2.435 1.665a1.34 1.34 0 0 0 .756.234l21.749-.005a1.34 1.34 0 0 0 .756-.234l2.435-1.665c.888-.608 2.095-.712 2.095.365l.002 6.667c0 .37-.15.706-.394.947a1.33 1.33 0 0 1-.946.393l-29.642.007a1.34 1.34 0 0 1-1.34-1.34l-.001-6.669c-.001-.276.078-.472.21-.606zm-.993-.993c-.284.284-.622.793-.622 1.6l.001 6.669c.001.728.29 1.425.805 1.94s1.213.803 1.94.803l29.641-.005c.733 0 1.423-.285 1.94-.803.256-.254.459-.557.597-.89a2.73 2.73 0 0 0 .207-1.052l-.002-6.667c0-.874-.407-1.589-1.116-1.965-1.057-.556-2.333-.138-3.177.439l-2.418 1.653-21.708.004-2.417-1.652c-1.311-.896-2.819-.926-3.671-.074z" class="B"/><use xlink:href="#D" x="-66.999" class="D"/><use xlink:href="#E" x="-67" fill="#bbb"/><use xlink:href="#F" x="-67" class="C"/><path d="M59.037 84.589l15.791-.041" class="H I J"/><path d="M80.95 70.915a.95.95 0 0 0-.094-.437l-2.249 1.538c-.222.153-.486.234-.755.234l-1.491.001c-.209.128-.45.198-.696.198l-21.749.004a1.34 1.34 0 0 1-.756-.234l-2.335-1.596-.008.098.001 6.669a1.34 1.34 0 0 0 1.341 1.34l28.147-.007a1.33 1.33 0 0 0 .645-1.14l-.001-6.668zM61.668 42.056c-.496.271-.84.792-.839 1.395l.001 5.57c0 .876.718 1.592 1.593 1.591h7.668c.498-.271.84-.791.84-1.394l-.001-5.571a1.6 1.6 0 0 0-1.594-1.592l-7.668.001z" class="C"/><path d="M62.174 42.87l4.706-.001c.424 0 .771.347.771.771 0 .204-.082.4-.226.545s-.34.226-.545.227l-4.705.001a.77.77 0 0 1-.745-.771.77.77 0 0 1 .744-.772zM56.08 74.734l11.987-.002c.205 0 .401-.082.546-.227s.226-.341.226-.546-.082-.4-.227-.545-.341-.226-.545-.226l-11.988.001c-.205.001-.401.083-.545.228s-.226.341-.227.545.083.4.228.545.341.226.545.227z" class="K"/><path d="M106.346 64.838a2.55 2.55 0 0 1-.835.561c-.312.13-.648.196-.986.195l-9.102.002a2.58 2.58 0 0 1-2.576-2.575l-.001-5.57a2.56 2.56 0 0 1 1.59-2.381c.312-.13.647-.196.985-.196h9.103c.683 0 1.338.271 1.821.753s.755 1.138.756 1.821l.001 5.571a2.56 2.56 0 0 1-.756 1.819z" class="E"/><path d="M94.161 56.232a1.63 1.63 0 0 1 1.152-.479l9.318-.003c.896 0 1.631.734 1.631 1.631l.002 5.704a1.64 1.64 0 0 1-1.632 1.63l-9.316.001a1.64 1.64 0 0 1-1.633-1.63v-5.703c0-.449.184-.856.478-1.151zm-1.423-1.424c-.34.337-.609.739-.792 1.181s-.277.916-.276 1.395l.001 5.703a3.65 3.65 0 0 0 3.645 3.644l9.317-.001a3.62 3.62 0 0 0 2.576-1.071c.339-.337.608-.738.791-1.18a3.6 3.6 0 0 0 .276-1.393l-.001-5.704c-.001-.966-.385-1.893-1.069-2.576s-1.61-1.067-2.576-1.068l-9.317.002a3.61 3.61 0 0 0-2.575 1.068z" class="B"/><use xlink:href="#B" x="-34" y="14" class="E"/><path d="M83.546 83.994c.396-.396 1.26-.219 1.942.248l2.508 1.716c.229.156.501.241.778.241l22.406-.005c.277 0 .549-.085.778-.241l2.508-1.716c.915-.627 2.158-.733 2.158.376l.002 6.869a1.37 1.37 0 0 1-1.38 1.38l-30.537.007a1.38 1.38 0 0 1-1.38-1.38l-.001-6.872c.001-.283.082-.485.218-.623zm-1.434-1.432c-.37.371-.81 1.026-.81 2.057l.001 6.871a3.41 3.41 0 0 0 3.407 3.405l30.537-.005c.447.001.89-.087 1.303-.258s.789-.423 1.104-.74.568-.691.74-1.105.259-.857.258-1.304l-.002-6.869c0-1.105-.545-2.053-1.461-2.536-1.313-.693-2.86-.203-3.868.487l-2.342 1.604-22.007.002-2.343-1.601c-1.606-1.1-3.422-1.103-4.517-.008z" class="B"/><path d="M94.804 60.889h10.342v27.276H94.804V60.889z" class="F"/><use xlink:href="#C" x="-33.999" y="14" class="D"/><path d="M101.301 165.995c-.397.399-.985.586-1.573.502a1.76 1.76 0 0 1-1.305-.889l-6.662-12.316-.012-63.43 16.49-.003.012 63.431-6.66 12.317a1.62 1.62 0 0 1-.29.388z" class="G"/><path d="M92.602 90.252l14.782-.003.012 63.306-6.659 12.314a.64.64 0 0 1-.121.163c-.361.363-1.084.309-1.34-.162l-6.662-12.313-.012-63.305zM90.6 88.251v2.003l.011 63.304.001.508.242.446 6.662 12.312c.416.771 1.169 1.287 2.063 1.418.442.067.894.03 1.32-.107a2.89 2.89 0 0 0 1.133-.686 2.72 2.72 0 0 0 .467-.626l6.657-12.314.24-.446v-.508l-.01-63.305v-2.001h-2.003l-14.782.003H90.6v-.001z" class="D"/><g class="C"><path d="M95.818 65.183h6.268v21.968h-6.268V65.183z"/><path d="M106.146 64.64c-.213.214-.465.384-.744.499a2.28 2.28 0 0 1-.879.174l-9.102.002a2.3 2.3 0 0 1-2.295-2.296l-.001-5.569a2.28 2.28 0 0 1 .673-1.622 2.27 2.27 0 0 1 1.621-.673l9.103-.002c.61 0 1.188.237 1.622.672a2.29 2.29 0 0 1 .675 1.622l.001 5.571c0 .611-.239 1.186-.674 1.621z"/></g><path d="M94.296 56.324c.29-.288.688-.468 1.125-.468l9.104-.002a1.6 1.6 0 0 1 1.592 1.593l.002 5.571c-.001.422-.169.827-.468 1.126a1.6 1.6 0 0 1-1.126.467l-9.102.001a1.6 1.6 0 0 1-1.594-1.593v-5.57a1.59 1.59 0 0 1 .467-1.125zm-.993-.992c-.279.277-.501.607-.652.971s-.228.753-.227 1.147l.001 5.57c0 .8.313 1.551.88 2.118s1.32.879 2.118.879l9.102-.002c.8 0 1.553-.312 2.119-.879.279-.277.501-.608.651-.971a2.97 2.97 0 0 0 .228-1.147v-5.571a2.98 2.98 0 0 0-.88-2.119c-.278-.279-.608-.5-.972-.651a2.98 2.98 0 0 0-1.147-.227l-9.103.001c-.394 0-.784.078-1.147.229a2.98 2.98 0 0 0-.971.652z" class="B"/><path d="M116.244 92.828c-.189.19-.414.341-.661.444s-.514.156-.782.155l-29.643.004a2.02 2.02 0 0 1-1.443-.598 2.02 2.02 0 0 1-.599-1.443l-.001-6.669c0-.565.227-.912.417-1.103.711-.711 1.938-.416 2.777.156l2.435 1.665a.64.64 0 0 0 .36.112l21.748-.005c.128.001.253-.038.358-.111l2.435-1.665c.644-.439 1.672-.809 2.452-.396.277.146.741.515.741 1.341l.001 6.668c.002.268-.05.534-.152.782a2.02 2.02 0 0 1-.443.662z" class="C"/><path d="M84.028 84.115c.385-.384 1.223-.212 1.885.241l2.435 1.665a1.34 1.34 0 0 0 .756.234l21.749-.005a1.34 1.34 0 0 0 .756-.234l2.435-1.665c.888-.608 2.095-.712 2.095.365l.002 6.667c0 .37-.15.706-.394.947-.124.125-.271.224-.434.291s-.336.102-.512.102l-29.641.007a1.34 1.34 0 0 1-1.34-1.34l-.001-6.669c-.001-.276.078-.472.21-.606zm-.993-.993c-.284.284-.622.793-.622 1.6l.001 6.669c.001.728.29 1.425.805 1.94s1.213.803 1.94.803l29.64-.005c.733 0 1.423-.285 1.94-.803.256-.254.459-.557.597-.89a2.73 2.73 0 0 0 .207-1.052l-.002-6.667c0-.874-.407-1.589-1.116-1.965-1.057-.556-2.333-.138-3.177.439l-2.418 1.653-21.707.004-2.417-1.652c-1.311-.896-2.819-.926-3.671-.074z" class="B"/><use xlink:href="#D" x="-34" y="14" class="D"/><use xlink:href="#E" x="-34" y="14" fill="#bbb"/><use xlink:href="#F" x="-34" y="14" class="C"/><path d="M92.037 98.589l15.79-.041" class="H I J"/><path d="M113.95 84.915c.004-.151-.028-.301-.094-.437l-2.249 1.538a1.33 1.33 0 0 1-.755.234l-1.491.001c-.209.128-.45.198-.696.198l-21.749.004a1.34 1.34 0 0 1-.756-.234l-2.335-1.596-.008.098.001 6.669a1.34 1.34 0 0 0 1.341 1.34l28.147-.007a1.33 1.33 0 0 0 .645-1.14l-.001-6.668zM94.668 56.056c-.496.271-.84.792-.839 1.395l.001 5.57c0 .876.718 1.592 1.593 1.591h7.668c.498-.271.84-.791.84-1.394l-.001-5.571a1.6 1.6 0 0 0-.469-1.125c-.298-.298-.703-.466-1.125-.467l-7.668.001z" class="C"/><path d="M95.173 56.87l4.706-.001c.424 0 .772.347.772.771-.001.204-.082.4-.227.545s-.34.226-.544.227l-4.705.001a.77.77 0 0 1-.745-.771.77.77 0 0 1 .744-.772zm-6.094 31.864l11.987-.002c.204 0 .401-.082.546-.227a.77.77 0 0 0 .226-.546c-.001-.204-.082-.4-.227-.545s-.341-.226-.545-.226l-11.988.001c-.205.001-.4.083-.545.228s-.226.341-.227.545.083.4.228.545.341.226.545.227z" class="K"/><defs ><path id="B" d="M150.442 79.027c-.215.217-.471.388-.753.505s-.585.177-.89.177l-29.641.004a2.31 2.31 0 0 1-1.644-.68c-.439-.439-.681-1.021-.681-1.643l-.001-6.669c.001-.663.271-1.073.499-1.301.707-.706 1.995-.655 3.135.123l2.436 1.664a.35.35 0 0 0 .2.063l21.748-.004a.35.35 0 0 0 .2-.062l2.435-1.666c.742-.508 1.853-.884 2.742-.413.567.298.893.878.894 1.59v6.668a2.32 2.32 0 0 1-.679 1.644z"/><path id="C" d="M129.764 47.751l8.417-.001.005 25.552-8.417.001-.005-25.552zm-2.052-2.052v2.052l.005 25.553.001 2.053h2.051l8.417-.001 2.053-.001v-2.053l-.005-25.553v-2.053h-2.053l-8.417.003h-2.052z"/><path id="D" d="M138.57 68.231v-.994s-1.819-.567-4.593-.566-4.563.568-4.563.568l.001.994s2.526-.569 4.563-.569 4.592.567 4.592.567zm-.001-5.919v-.994s-1.819-.567-4.594-.566-4.563.568-4.563.568l-.001.993s2.529-.568 4.564-.568 4.594.567 4.594.567zm-.001-5.377v-.994s-1.819-.566-4.593-.566-4.564.569-4.564.569l.001.993s2.528-.567 4.563-.568 4.593.566 4.593.566z"/><path id="E" d="M133.289 151.641l-6.546-12.097-.01-54.458 14.524-.002.009 54.456-6.542 12.101c-.282.523-1.153.522-1.435 0z"/><path id="F" d="M134.007 152.032c-.288 0-.575-.131-.717-.392l-6.547-12.097-.01-54.458 7.263-.001.011 66.948z"/></defs></svg>