<svg xmlns="http://www.w3.org/2000/svg" width="200" height="200"><style>.st6{fill:#b78358}.st13{fill:#bcbec0}.st18{fill:#916136}.st20{fill:#939598}.st21{fill:#c49a6c}.st23{fill:#603913}.st25{fill:#633b1a}.st26{fill:#636362}.st28{fill:#9b7753}.st29{fill:none;stroke:#414042;stroke-width:3;stroke-miterlimit:10}.st42{fill:#414042}.st43{fill:#42250d}</style><g id="knight_x5F_gold"><g id="Active_State_copy_3"><path d="M100 11.555c48.847 0 88.446 39.601 88.446 88.445 0 48.847-39.6 88.446-88.446 88.446S11.554 148.847 11.554 100c0-48.845 39.599-88.445 88.446-88.445m0-10.25C45.579 1.305 1.304 45.579 1.304 100c0 54.421 44.275 98.696 98.696 98.696s98.696-44.275 98.696-98.696S154.421 1.305 100 1.305z"/><path d="M100 192.982c-51.271 0-92.982-41.712-92.982-92.982C7.018 48.73 48.729 7.019 100 7.019S192.982 48.73 192.982 100c0 51.271-41.711 92.982-92.982 92.982z" fill="#fff"/><path d="M100 11.519c48.867 0 88.482 39.616 88.482 88.481 0 48.867-39.615 88.482-88.482 88.482S11.518 148.867 11.518 100c0-48.865 39.615-88.481 88.482-88.481m0-9C46.248 2.519 2.518 46.249 2.518 100c0 53.752 43.73 97.482 97.482 97.482s97.482-43.73 97.482-97.482c0-53.751-43.73-97.481-97.482-97.481z" fill="#b35800"/><g><path d="M100 23.667c42.09 0 76.333 34.243 76.333 76.333S142.09 176.333 100 176.333 23.667 142.09 23.667 100 57.91 23.667 100 23.667m0-17.065C48.419 6.602 6.602 48.418 6.602 100c0 51.584 41.817 93.398 93.398 93.398 51.584 0 93.398-41.814 93.398-93.398 0-51.582-41.814-93.398-93.398-93.398z" fill="#fcd001"/></g></g><g id="knight_x5F_active_copy_3"><g id="knight_x5F_active_x5F_level2_3_"><g id="sword_29_"><path class="st18" d="M135.299 52.521a2.63 2.63 0 01-1.873.777l-9.36.002a2.653 2.653 0 01-2.649-2.648l-.001-5.729c0-.706.276-1.371.777-1.873a2.629 2.629 0 011.871-.777h9.361a2.65 2.65 0 012.65 2.647l.001 5.729a2.627 2.627 0 01-.777 1.872"/><path class="st43" d="M122.768 43.669a1.682 1.682 0 011.186-.491l9.583-.004c.921 0 1.678.756 1.678 1.678l.002 5.866a1.678 1.678 0 01-1.68 1.676l-9.581.002a1.686 1.686 0 01-1.68-1.677v-5.865c-.001-.462.19-.88.492-1.185m-1.463-1.463a3.719 3.719 0 00-1.099 2.649l.001 5.865a3.752 3.752 0 003.748 3.747l9.582-.001c1 0 1.94-.392 2.649-1.102a3.715 3.715 0 001.098-2.646l-.001-5.866a3.75 3.75 0 00-3.748-3.747l-9.582.002c-.999 0-1.94.39-2.648 1.099"/><path class="st18" d="M145.683 81.512a2.376 2.376 0 01-1.689.701l-30.483.004a2.373 2.373 0 01-1.69-.699 2.377 2.377 0 01-.699-1.689l-.001-6.858c.001-.682.278-1.104.513-1.338.728-.726 2.052-.674 3.224.127l2.505 1.711a.363.363 0 00.206.064l22.366-.004a.36.36 0 00.206-.063l2.504-1.713c.764-.522 1.905-.909 2.82-.425.583.306.918.902.919 1.635v6.857a2.389 2.389 0 01-.701 1.69"/><path class="st43" d="M111.851 72.222c.408-.407 1.296-.226 1.998.255l2.579 1.765c.236.16.515.248.801.248l23.044-.005c.285 0 .564-.088.801-.248l2.579-1.765c.94-.645 2.219-.754 2.219.387l.002 7.064c0 .392-.158.747-.416 1.003a1.413 1.413 0 01-1.003.416l-31.406.007a1.42 1.42 0 01-1.419-1.419l-.001-7.067c-.001-.291.082-.499.222-.641m-1.474-1.473c-.381.382-.833 1.056-.833 2.115l.001 7.066a3.506 3.506 0 003.504 3.502l31.406-.005a3.485 3.485 0 002.476-1.026 3.49 3.49 0 001.026-2.478l-.002-7.064c0-1.137-.56-2.111-1.502-2.608-1.351-.713-2.941-.209-3.979.501l-2.408 1.649-22.634.002-2.409-1.646c-1.653-1.132-3.521-1.134-4.646-.008"/><path class="st28" d="M123.429 48.46h10.636v28.052h-10.636z"/><path class="st23" d="M124.417 49.346l8.656-.001.005 26.278-8.656.001-.005-26.278zm-2.11-2.11v2.11l.005 26.279.001 2.111h2.109l8.656-.001 2.111-.001v-2.111l-.005-26.279v-2.111h-2.111l-8.656.003h-2.11z"/><path class="st26" d="M130.11 156.553c-.408.411-1.013.603-1.618.517a1.808 1.808 0 01-1.342-.914l-6.852-12.667-.012-65.231 16.959-.003.013 65.232-6.85 12.668c-.08.146-.178.282-.298.398z"/><path class="st42" d="M121.165 78.658l15.202-.003.013 65.104-6.849 12.665a.646.646 0 01-.125.167c-.371.374-1.114.317-1.378-.166l-6.852-12.663-.011-65.104m-2.059-2.058v2.06l.011 65.103.001.522.249.459 6.852 12.661c.428.793 1.202 1.324 2.122 1.459a2.97 2.97 0 002.523-.815c.189-.191.353-.407.479-.645l6.847-12.664.247-.459v-.522l-.01-65.104v-2.058h-2.061l-15.201.003h-2.059z"/><path class="st21" d="M124.472 52.875h6.445v22.593h-6.445z"/><path class="st25" d="M135.095 52.317a2.344 2.344 0 01-1.669.693l-9.36.002a2.363 2.363 0 01-2.36-2.361l-.001-5.728c0-.63.246-1.222.692-1.668a2.335 2.335 0 011.667-.692l9.361-.002c.628 0 1.222.244 1.668.691.446.446.693 1.039.694 1.668l.001 5.729a2.34 2.34 0 01-.693 1.668"/><path class="st43" d="M122.906 43.765a1.64 1.64 0 011.157-.48l9.362-.002c.9 0 1.637.736 1.637 1.638l.002 5.729a1.641 1.641 0 01-1.638 1.637l-9.36.001a1.644 1.644 0 01-1.639-1.638v-5.729c-.001-.45.184-.858.479-1.156m-1.021-1.02a3.062 3.062 0 00-.903 2.179l.001 5.729c0 .822.321 1.595.904 2.179a3.065 3.065 0 002.179.903l9.36-.002c.822 0 1.597-.32 2.18-.903a3.067 3.067 0 00.903-2.179V44.92c0-.822-.321-1.595-.904-2.18a3.073 3.073 0 00-2.18-.902l-9.361.001a3.07 3.07 0 00-2.179.906"/><path class="st25" d="M145.479 81.307a2.09 2.09 0 01-1.484.616l-30.485.005a2.082 2.082 0 01-1.484-.615 2.081 2.081 0 01-.615-1.484l-.001-6.858c0-.582.232-.938.429-1.134.731-.731 1.992-.428 2.856.16l2.504 1.713a.655.655 0 00.37.115l22.366-.005a.637.637 0 00.369-.114l2.504-1.713c.661-.452 1.719-.831 2.521-.407.285.149.763.529.763 1.379l.001 6.857c0 .561-.218 1.089-.614 1.485"/><path class="st43" d="M112.347 72.346c.396-.395 1.258-.218 1.938.248l2.504 1.713c.229.156.5.241.777.241l22.367-.006c.277 0 .549-.084.777-.24l2.504-1.713c.913-.625 2.154-.732 2.154.376l.002 6.856c0 .381-.154.727-.404.975-.249.25-.593.403-.974.403l-30.484.007a1.379 1.379 0 01-1.378-1.378l-.001-6.858c.001-.284.082-.486.218-.624m-1.022-1.021c-.292.293-.64.815-.64 1.646l.001 6.858a2.824 2.824 0 002.823 2.821l30.483-.005c.755 0 1.464-.293 1.996-.825a2.809 2.809 0 00.826-1.998l-.002-6.856c0-.899-.419-1.634-1.147-2.021-1.087-.572-2.399-.142-3.268.451l-2.486 1.701-22.325.004-2.486-1.699c-1.347-.923-2.899-.953-3.775-.077"/><path class="st23" d="M133.473 70.408v-1.021s-1.871-.584-4.723-.583c-2.854.001-4.693.585-4.693.585l.001 1.021s2.598-.585 4.692-.585c2.092 0 4.723.583 4.723.583M133.472 64.321v-1.022s-1.871-.583-4.724-.582c-2.854 0-4.692.584-4.692.584l-.001 1.021s2.601-.584 4.694-.584c2.092-.001 4.723.583 4.723.583M133.471 58.792V57.77s-1.871-.583-4.723-.583c-2.854.001-4.694.586-4.694.586l.001 1.021s2.6-.584 4.693-.585c2.092-.001 4.723.583 4.723.583"/><path class="st20" d="M128.042 156.189l-6.732-12.44-.01-56.006 14.938-.002.009 56.004-6.729 12.444c-.29.538-1.186.537-1.476 0"/><path class="st13" d="M128.78 156.591c-.297 0-.592-.134-.737-.402l-6.733-12.44-.01-56.006 7.469-.001s.307 68.849.011 68.849"/><path class="st29" d="M120.584 87.232l16.239-.042"/><path class="st18" d="M143.12 73.169a.966.966 0 00-.097-.449l-2.313 1.582c-.228.156-.498.24-.776.24l-1.533.002a1.38 1.38 0 01-.716.203l-22.368.004c-.276 0-.548-.084-.777-.24l-2.401-1.642c-.002.033-.008.065-.008.101l.001 6.858c0 .761.617 1.378 1.379 1.378l28.948-.007c.396-.242.663-.674.663-1.172l-.002-6.858zM123.289 43.489c-.51.278-.863.814-.862 1.435l.001 5.729c0 .901.738 1.637 1.638 1.636h7.886a1.63 1.63 0 00.864-1.433l-.001-5.729a1.644 1.644 0 00-1.64-1.638h-7.886z"/><path class="st6" d="M123.809 44.327l4.84-.001a.795.795 0 010 1.588l-4.839.001a.795.795 0 01-.001-1.588M117.541 77.096l12.328-.002a.796.796 0 00.795-.796.796.796 0 00-.795-.793l-12.329.001a.797.797 0 00-.794.795.798.798 0 00.795.795"/></g><g id="sword_28_"><path class="st18" d="M79.764 52.521a2.63 2.63 0 01-1.873.777l-9.361.002a2.653 2.653 0 01-2.649-2.648l-.001-5.729c0-.706.276-1.371.777-1.873a2.629 2.629 0 011.871-.777h9.361a2.65 2.65 0 012.65 2.647l.001 5.729a2.622 2.622 0 01-.776 1.872"/><path class="st43" d="M67.232 43.669a1.682 1.682 0 011.186-.491l9.583-.004c.921 0 1.677.756 1.677 1.678l.003 5.866a1.678 1.678 0 01-1.68 1.676l-9.581.002a1.686 1.686 0 01-1.68-1.677v-5.865c0-.462.191-.88.492-1.185m-1.462-1.463a3.719 3.719 0 00-1.099 2.649l.001 5.865a3.752 3.752 0 003.748 3.747l9.582-.001c.999 0 1.94-.392 2.649-1.102a3.715 3.715 0 001.098-2.646l-.001-5.866A3.752 3.752 0 0078 41.105l-9.582.002c-1 0-1.94.39-2.648 1.099"/><path class="st18" d="M90.147 81.512a2.376 2.376 0 01-1.689.701l-30.483.004c-.639 0-1.239-.248-1.69-.699s-.7-1.051-.7-1.689l-.001-6.858c.001-.682.279-1.104.514-1.338.727-.726 2.052-.674 3.224.127l2.505 1.711a.363.363 0 00.206.064l22.366-.004a.36.36 0 00.206-.063l2.504-1.713c.763-.522 1.905-.909 2.82-.425.583.306.918.902.919 1.635v6.857a2.38 2.38 0 01-.701 1.69"/><path class="st43" d="M56.315 72.222c.408-.407 1.296-.226 1.998.255l2.579 1.765c.235.16.515.248.8.248l23.045-.005c.285 0 .564-.088.8-.248l2.579-1.765c.941-.645 2.22-.754 2.22.387l.002 7.064c0 .392-.158.747-.417 1.003a1.41 1.41 0 01-1.002.416l-31.406.007a1.42 1.42 0 01-1.419-1.419l-.001-7.067c0-.291.083-.499.222-.641m-1.474-1.473c-.38.382-.832 1.056-.832 2.115l.001 7.066a3.506 3.506 0 003.504 3.502l31.406-.005a3.486 3.486 0 002.476-1.026 3.49 3.49 0 001.026-2.478l-.002-7.064c0-1.137-.561-2.111-1.502-2.608-1.352-.713-2.942-.209-3.979.501l-2.408 1.649-22.634.002-2.409-1.646c-1.653-1.132-3.521-1.134-4.647-.008"/><path class="st28" d="M67.894 48.46H78.53v28.052H67.894z"/><path class="st23" d="M68.882 49.346l8.656-.001.005 26.278-8.656.001-.005-26.278zm-2.111-2.11v2.11l.005 26.279.001 2.111h2.109l8.656-.001 2.111-.001v-2.111l-.005-26.279v-2.111h-2.111l-8.656.003h-2.11z"/><path class="st26" d="M74.575 156.553c-.409.411-1.014.603-1.618.517a1.808 1.808 0 01-1.342-.914l-6.852-12.667-.012-65.231 16.959-.003.012 65.232-6.85 12.668a1.653 1.653 0 01-.297.398z"/><path class="st42" d="M65.63 78.658l15.202-.003.012 65.104-6.848 12.665a.67.67 0 01-.125.167c-.371.374-1.115.317-1.378-.166l-6.852-12.663-.011-65.104M63.57 76.6v2.06l.012 65.103.001.522.249.459 6.852 12.661c.428.793 1.202 1.324 2.122 1.459.933.136 1.877-.169 2.522-.815.19-.191.353-.407.48-.645l6.847-12.664.247-.459v-.522l-.011-65.104v-2.058h-2.06L65.63 76.6h-2.06z"/><path class="st21" d="M68.936 52.875h6.446v22.593h-6.446z"/><path class="st25" d="M79.56 52.317a2.346 2.346 0 01-1.669.693l-9.36.002a2.363 2.363 0 01-2.36-2.361l-.001-5.728c0-.63.246-1.222.692-1.668a2.333 2.333 0 011.667-.692l9.361-.002c.628 0 1.221.244 1.668.691.446.446.693 1.039.694 1.668l.001 5.729a2.34 2.34 0 01-.693 1.668"/><path class="st43" d="M67.371 43.765a1.64 1.64 0 011.157-.48l9.362-.002c.899 0 1.637.736 1.637 1.638l.002 5.729a1.641 1.641 0 01-1.638 1.637l-9.36.001c-.9 0-1.639-.735-1.64-1.638v-5.729c-.001-.45.185-.858.48-1.156m-1.021-1.02a3.062 3.062 0 00-.903 2.179l.001 5.729c0 .822.321 1.595.904 2.179a3.065 3.065 0 002.179.903l9.36-.002c.822 0 1.597-.32 2.18-.903a3.067 3.067 0 00.903-2.179V44.92c0-.822-.321-1.595-.904-2.18a3.073 3.073 0 00-2.18-.902l-9.361.001a3.07 3.07 0 00-2.179.906"/><path class="st25" d="M89.943 81.307a2.09 2.09 0 01-1.484.616l-30.485.005a2.082 2.082 0 01-1.484-.615 2.081 2.081 0 01-.615-1.484l-.001-6.858c0-.582.232-.938.429-1.134.73-.731 1.992-.428 2.856.16l2.503 1.713c.11.075.237.114.371.115l22.366-.005c.133 0 .26-.038.369-.114l2.503-1.713c.662-.452 1.72-.831 2.522-.407.285.149.762.529.762 1.379l.001 6.857a2.082 2.082 0 01-.613 1.485"/><path class="st43" d="M56.812 72.346c.396-.395 1.258-.218 1.938.248l2.504 1.713c.229.156.5.241.777.241l22.367-.006c.277 0 .549-.084.777-.24l2.504-1.713c.913-.625 2.154-.732 2.154.376l.002 6.856c0 .381-.154.727-.404.975-.249.25-.593.403-.974.403l-30.484.007a1.378 1.378 0 01-1.378-1.378l-.001-6.858c.001-.284.082-.486.218-.624m-1.022-1.021c-.292.293-.64.815-.64 1.646l.001 6.858a2.824 2.824 0 002.823 2.821l30.483-.005c.754 0 1.463-.293 1.996-.825a2.809 2.809 0 00.826-1.998l-.002-6.856c0-.899-.419-1.634-1.148-2.021-1.086-.572-2.399-.142-3.267.451l-2.487 1.701-22.325.004-2.485-1.699c-1.347-.923-2.899-.953-3.775-.077"/><path class="st23" d="M77.938 70.408v-1.021s-1.871-.584-4.724-.583c-2.854.001-4.692.585-4.692.585l.001 1.021s2.598-.585 4.691-.585 4.724.583 4.724.583M77.937 64.321v-1.022s-1.871-.583-4.725-.582c-2.854 0-4.691.584-4.691.584l-.001 1.021s2.601-.584 4.693-.584c2.093-.001 4.724.583 4.724.583M77.936 58.792V57.77s-1.871-.583-4.724-.583c-2.854.001-4.694.586-4.694.586l.002 1.021s2.6-.584 4.692-.585 4.724.583 4.724.583"/><path class="st20" d="M72.506 156.189l-6.731-12.44-.01-56.006 14.937-.002.01 56.004-6.729 12.444c-.291.538-1.186.537-1.477 0"/><path class="st13" d="M73.244 156.591c-.296 0-.591-.134-.737-.402l-6.732-12.44-.01-56.006 7.469-.001c-.001 0 .307 68.849.01 68.849"/><path class="st29" d="M65.048 87.232l16.24-.042"/><path class="st18" d="M87.584 73.169a.98.98 0 00-.096-.449l-2.313 1.582c-.228.156-.498.24-.776.24l-1.533.002a1.38 1.38 0 01-.717.203l-22.367.004c-.277 0-.548-.084-.777-.24l-2.401-1.642c-.002.033-.008.065-.008.101l.001 6.858c0 .761.616 1.378 1.379 1.378l28.947-.006c.396-.242.662-.674.662-1.172l-.001-6.859zM67.754 43.489a1.634 1.634 0 00-.863 1.435l.001 5.729c0 .901.738 1.637 1.639 1.636h7.886a1.63 1.63 0 00.864-1.433l-.001-5.729a1.644 1.644 0 00-1.64-1.638h-7.886z"/><path class="st6" d="M68.273 44.327l4.84-.001a.795.795 0 010 1.588l-4.839.001a.796.796 0 01-.795-.796c0-.435.357-.792.794-.792M62.006 77.096l12.328-.002a.796.796 0 00.795-.796.796.796 0 00-.795-.793l-12.329.001a.797.797 0 00-.794.795.798.798 0 00.795.795"/></g></g></g></g></svg>