<svg xmlns="http://www.w3.org/2000/svg" width="200" height="200"><style>.st2{fill:#e4e4e4}.st8{fill:#898989}.st9{fill:#515151}.st12{fill:#bbb}.st16{fill:#f7f7f7}.st19{fill:#919191}.st27{fill:#676767}.st37{fill:none;stroke:#676767;stroke-width:3;stroke-miterlimit:10}.st40{fill:#a4a4a4}</style><g id="knight_x5F_blue"><g id="Inactive_copy"><path d="M100 11.554c48.847 0 88.446 39.601 88.446 88.445 0 48.847-39.6 88.446-88.446 88.446S11.554 148.846 11.554 100c0-48.845 39.599-88.446 88.446-88.446m0-10.25C45.579 1.304 1.304 45.579 1.304 100S45.579 198.696 100 198.696s98.696-44.275 98.696-98.696S154.421 1.304 100 1.304z"/><path d="M100 192.982c-51.271 0-92.982-41.712-92.982-92.982C7.018 48.73 48.73 7.019 100 7.019s92.982 41.71 92.982 92.981c0 51.27-41.711 92.982-92.982 92.982z" fill="#878787"/><path d="M100 11.518c48.867 0 88.482 39.616 88.482 88.481 0 48.867-39.615 88.482-88.482 88.482S11.518 148.867 11.518 100c0-48.866 39.615-88.482 88.482-88.482m0-9C46.248 2.518 2.518 46.248 2.518 100s43.73 97.482 97.482 97.482 97.482-43.73 97.482-97.482S153.752 2.518 100 2.518z" fill="#0000b2"/><g><path d="M100 23.667c42.091 0 76.334 34.243 76.334 76.333S142.091 176.333 100 176.333 23.666 142.09 23.666 100 57.909 23.667 100 23.667m0-17.065C48.419 6.602 6.602 48.418 6.602 100c0 51.584 41.817 93.398 93.398 93.398 51.584 0 93.398-41.814 93.398-93.398 0-51.582-41.814-93.398-93.398-93.398z" fill="#33f"/></g></g><g id="knight_x5F_inactive_copy"><g id="knight_x5F_inactive_x5F_level3_1_"><g id="sword_9_"><path class="st19" d="M140.351 50.833a2.558 2.558 0 01-1.821.756l-9.102.002a2.579 2.579 0 01-2.576-2.575l-.001-5.57c0-.687.269-1.333.756-1.821a2.557 2.557 0 011.819-.756h9.103a2.576 2.576 0 012.577 2.574l.001 5.571c0 .686-.269 1.332-.756 1.819"/><path class="st9" d="M128.166 42.227a1.632 1.632 0 011.152-.479l9.318-.003c.896 0 1.631.734 1.631 1.631l.002 5.704a1.638 1.638 0 01-1.632 1.63l-9.316.001a1.638 1.638 0 01-1.633-1.63v-5.703c0-.449.184-.855.478-1.151m-1.423-1.424a3.616 3.616 0 00-1.068 2.576l.001 5.703a3.649 3.649 0 003.645 3.644l9.317-.001c.972 0 1.887-.381 2.576-1.071a3.614 3.614 0 001.067-2.573l-.001-5.704a3.648 3.648 0 00-3.645-3.644l-9.317.002a3.62 3.62 0 00-2.575 1.068"/><path class="st19" d="M150.447 79.023a2.311 2.311 0 01-1.643.682l-29.641.004c-.621 0-1.205-.241-1.644-.68s-.681-1.021-.681-1.643l-.001-6.669c.001-.663.271-1.073.499-1.301.707-.706 1.995-.655 3.135.123l2.436 1.664c.06.041.128.063.2.063l21.748-.004a.348.348 0 00.2-.062l2.435-1.666c.742-.508 1.853-.884 2.742-.413.567.298.893.878.894 1.59v6.668a2.306 2.306 0 01-.679 1.644"/><path class="st9" d="M117.551 69.99c.396-.396 1.26-.219 1.942.248l2.508 1.716c.229.156.501.241.778.241l22.407-.005c.277 0 .549-.085.778-.241l2.508-1.716c.915-.627 2.158-.733 2.158.376l.002 6.869c0 .381-.154.727-.405.976-.249.25-.594.404-.975.404l-30.538.007a1.38 1.38 0 01-1.38-1.38l-.001-6.872c.001-.283.082-.486.218-.623m-1.434-1.433c-.37.371-.81 1.026-.81 2.057l.001 6.871a3.41 3.41 0 003.407 3.405l30.538-.005a3.387 3.387 0 002.407-.998 3.392 3.392 0 00.998-2.409l-.002-6.869c0-1.105-.545-2.053-1.461-2.536-1.313-.693-2.86-.203-3.868.487l-2.342 1.604-22.008.002-2.343-1.601c-1.606-1.1-3.422-1.103-4.517-.008"/><path class="st40" d="M128.809 46.885h10.342v27.276h-10.342z"/><path class="st27" d="M129.77 47.747l8.417-.001.005 25.552-8.417.001-.005-25.552zm-2.052-2.052v2.052l.005 25.553.001 2.053h2.051l8.417-.001 2.053-.001v-2.053l-.005-25.553v-2.053h-2.053l-8.417.003h-2.052z"/><path class="st8" d="M135.306 151.99c-.397.399-.985.586-1.573.502a1.754 1.754 0 01-1.305-.889l-6.662-12.316-.012-63.429 16.49-.003.012 63.43-6.66 12.317a1.645 1.645 0 01-.29.388z"/><path class="st27" d="M126.607 76.248l14.782-.003.012 63.305-6.659 12.314a.635.635 0 01-.121.163c-.361.363-1.084.309-1.34-.162l-6.662-12.313-.012-63.304m-2.002-2.001v2.003l.011 63.303.001.508.242.446 6.662 12.312c.416.771 1.169 1.287 2.063 1.418a2.884 2.884 0 002.453-.793c.185-.186.343-.396.467-.626l6.657-12.314.24-.446v-.508l-.01-63.304v-2.001h-2.003l-14.782.003h-2.001z"/><path class="st2" d="M129.823 51.178h6.268v21.968h-6.268z"/><path class="st2" d="M140.152 50.635a2.282 2.282 0 01-1.623.674l-9.102.002a2.298 2.298 0 01-2.295-2.296l-.001-5.569c0-.612.239-1.188.673-1.622a2.27 2.27 0 011.621-.673l9.103-.002c.61 0 1.188.237 1.622.672.434.435.674 1.011.675 1.622l.001 5.571c0 .611-.239 1.187-.674 1.621"/><path class="st9" d="M128.301 42.32c.29-.288.688-.468 1.125-.468l9.104-.002c.875 0 1.592.717 1.592 1.593l.002 5.571a1.597 1.597 0 01-1.594 1.593l-9.102.001a1.6 1.6 0 01-1.594-1.593v-5.57c-.001-.439.18-.836.467-1.125m-.993-.992a2.975 2.975 0 00-.879 2.118l.001 5.57c0 .8.313 1.551.88 2.118s1.32.879 2.118.879l9.102-.002c.8 0 1.553-.312 2.119-.879a2.98 2.98 0 00.879-2.118v-5.571c0-.8-.313-1.551-.88-2.119a2.986 2.986 0 00-2.119-.878l-9.103.001a2.978 2.978 0 00-2.118.881"/><path class="st2" d="M150.249 78.824a2.03 2.03 0 01-1.443.6l-29.643.004a2.021 2.021 0 01-1.443-.598 2.022 2.022 0 01-.599-1.443l-.001-6.669c0-.565.227-.912.417-1.103.711-.711 1.938-.416 2.777.156l2.435 1.665c.106.073.23.111.36.112l21.748-.005a.617.617 0 00.358-.111l2.435-1.665c.644-.439 1.672-.809 2.452-.396.277.146.741.515.741 1.341l.001 6.668a2.022 2.022 0 01-.595 1.444"/><path class="st9" d="M118.033 70.111c.385-.384 1.223-.212 1.885.241l2.435 1.665c.223.152.486.234.756.234l21.749-.005c.27 0 .533-.082.756-.234l2.435-1.665c.888-.608 2.095-.712 2.095.365l.002 6.667c0 .37-.15.706-.394.947a1.33 1.33 0 01-.946.393l-29.642.007c-.74 0-1.339-.601-1.34-1.34l-.001-6.669c-.001-.276.078-.472.21-.606m-.993-.993c-.284.284-.622.793-.622 1.6l.001 6.669a2.745 2.745 0 002.745 2.743l29.641-.005c.733 0 1.423-.285 1.94-.803a2.727 2.727 0 00.804-1.942l-.002-6.667c0-.874-.407-1.589-1.116-1.965-1.057-.556-2.333-.138-3.177.439l-2.418 1.653-21.708.004-2.417-1.652c-1.311-.897-2.819-.927-3.671-.074"/><path class="st27" d="M138.575 68.226v-.994s-1.819-.567-4.593-.566c-2.775.001-4.563.568-4.563.568l.001.994s2.526-.569 4.563-.569c2.034 0 4.592.567 4.592.567M138.574 62.307v-.994s-1.819-.567-4.594-.566c-2.775 0-4.563.568-4.563.568l-.001.993s2.529-.568 4.564-.568c2.036-.001 4.594.567 4.594.567M138.573 56.93v-.994s-1.819-.566-4.593-.566c-2.775.001-4.564.569-4.564.569l.001.993s2.528-.567 4.563-.568c2.035-.001 4.593.566 4.593.566"/><path class="st12" d="M133.294 151.635l-6.546-12.097-.01-54.457 14.524-.002.009 54.455-6.542 12.101c-.282.524-1.153.523-1.435 0"/><path class="st2" d="M134.012 152.027c-.288 0-.575-.131-.717-.392l-6.547-12.097-.01-54.457 7.263-.001c0 .001.299 66.947.011 66.947"/><path class="st37" d="M126.042 84.584l15.791-.041"/><path class="st2" d="M147.955 70.911a.952.952 0 00-.094-.437l-2.249 1.538a1.334 1.334 0 01-.755.234l-1.491.001c-.209.128-.45.198-.696.198l-21.749.004c-.27 0-.533-.082-.756-.234l-2.335-1.596c-.002.032-.008.063-.008.098l.001 6.669c0 .739.6 1.34 1.341 1.34l28.147-.007c.386-.235.645-.655.645-1.14l-.001-6.668zM128.673 42.051c-.496.271-.84.792-.839 1.395l.001 5.57c0 .876.718 1.592 1.593 1.591h7.668c.498-.271.84-.791.84-1.394l-.001-5.571a1.598 1.598 0 00-1.594-1.592l-7.668.001z"/><path class="st16" d="M129.178 42.866l4.706-.001c.424 0 .771.347.771.771a.774.774 0 01-.771.772l-4.705.001a.772.772 0 01-.001-1.543M123.084 74.729l11.987-.002a.773.773 0 00.772-.773.774.774 0 00-.772-.771l-11.988.001a.776.776 0 00-.772.773.777.777 0 00.773.772"/></g><g id="sword_8_"><path class="st19" d="M73.351 50.833a2.558 2.558 0 01-1.821.756l-9.102.002a2.579 2.579 0 01-2.576-2.575l-.001-5.57c0-.687.269-1.333.756-1.821a2.557 2.557 0 011.819-.756h9.103a2.576 2.576 0 012.577 2.574l.001 5.571c0 .686-.269 1.332-.756 1.819"/><path class="st9" d="M61.166 42.227a1.632 1.632 0 011.152-.479l9.318-.003c.896 0 1.631.734 1.631 1.631l.002 5.704a1.638 1.638 0 01-1.632 1.63l-9.316.001a1.638 1.638 0 01-1.633-1.63v-5.703c0-.449.184-.855.478-1.151m-1.423-1.424a3.616 3.616 0 00-1.068 2.576l.001 5.703a3.649 3.649 0 003.645 3.644l9.317-.001c.972 0 1.887-.381 2.576-1.071a3.614 3.614 0 001.067-2.573l-.001-5.704a3.648 3.648 0 00-3.645-3.644l-9.317.002a3.62 3.62 0 00-2.575 1.068"/><path class="st19" d="M83.447 79.023a2.311 2.311 0 01-1.643.682l-29.641.004c-.621 0-1.205-.241-1.644-.68s-.681-1.021-.681-1.643l-.001-6.669c.001-.663.271-1.073.499-1.301.707-.706 1.995-.655 3.135.123l2.436 1.664c.06.041.128.063.2.063l21.748-.004a.348.348 0 00.2-.062l2.435-1.666c.742-.508 1.853-.884 2.742-.413.567.298.893.878.894 1.59v6.668a2.306 2.306 0 01-.679 1.644"/><path class="st9" d="M50.551 69.99c.396-.396 1.26-.219 1.942.248l2.508 1.716c.229.156.501.241.778.241l22.407-.005c.277 0 .549-.085.778-.241l2.508-1.716c.915-.627 2.158-.733 2.158.376l.002 6.869c0 .381-.154.727-.405.976-.249.25-.594.404-.975.404l-30.538.007a1.38 1.38 0 01-1.38-1.38l-.001-6.872c.001-.283.082-.486.218-.623m-1.434-1.433c-.37.371-.81 1.026-.81 2.057l.001 6.871a3.41 3.41 0 003.407 3.405l30.538-.005a3.387 3.387 0 002.407-.998 3.392 3.392 0 00.998-2.409l-.002-6.869c0-1.105-.545-2.053-1.461-2.536-1.313-.693-2.86-.203-3.868.487l-2.342 1.604-22.008.002-2.343-1.601c-1.606-1.1-3.422-1.103-4.517-.008"/><path class="st40" d="M61.809 46.885h10.342v27.276H61.809z"/><path class="st27" d="M62.77 47.747l8.417-.001.005 25.552-8.417.001-.005-25.552zm-2.052-2.052v2.052l.005 25.553.001 2.053h2.051l8.417-.001 2.053-.001v-2.053l-.005-25.553v-2.053h-2.053l-8.417.003h-2.052z"/><path class="st8" d="M68.306 151.99c-.397.399-.985.586-1.573.502a1.754 1.754 0 01-1.305-.889l-6.662-12.316-.012-63.429 16.49-.003.012 63.43-6.66 12.317a1.645 1.645 0 01-.29.388z"/><path class="st27" d="M59.607 76.248l14.782-.003.012 63.305-6.659 12.314a.635.635 0 01-.121.163c-.361.363-1.084.309-1.34-.162l-6.662-12.313-.012-63.304m-2.002-2.001v2.003l.011 63.303.001.508.242.446 6.662 12.312c.416.771 1.169 1.287 2.063 1.418a2.884 2.884 0 002.453-.793c.185-.186.343-.396.467-.626l6.657-12.314.24-.446v-.508l-.01-63.304v-2.001H74.39l-14.782.003h-2.003z"/><path class="st2" d="M62.823 51.178h6.268v21.968h-6.268z"/><path class="st2" d="M73.152 50.635a2.282 2.282 0 01-1.623.674l-9.102.002a2.298 2.298 0 01-2.295-2.296l-.001-5.569c0-.612.239-1.188.673-1.622a2.27 2.27 0 011.621-.673l9.103-.002c.61 0 1.188.237 1.622.672.434.435.674 1.011.675 1.622l.001 5.571c0 .611-.239 1.187-.674 1.621"/><path class="st9" d="M61.301 42.32c.29-.288.688-.468 1.125-.468l9.104-.002c.875 0 1.592.717 1.592 1.593l.002 5.571a1.597 1.597 0 01-1.594 1.593l-9.102.001a1.6 1.6 0 01-1.594-1.593v-5.57c-.001-.439.18-.836.467-1.125m-.993-.992a2.975 2.975 0 00-.879 2.118l.001 5.57c0 .8.313 1.551.88 2.118s1.32.879 2.118.879l9.102-.002c.8 0 1.553-.312 2.119-.879a2.98 2.98 0 00.879-2.118v-5.571c0-.8-.313-1.551-.88-2.119a2.986 2.986 0 00-2.119-.878l-9.103.001a2.978 2.978 0 00-2.118.881"/><path class="st2" d="M83.249 78.824a2.03 2.03 0 01-1.443.6l-29.643.004a2.021 2.021 0 01-1.443-.598 2.022 2.022 0 01-.599-1.443l-.001-6.669c0-.565.227-.912.417-1.103.711-.711 1.938-.416 2.777.156l2.435 1.665c.106.073.23.111.36.112l21.748-.005a.617.617 0 00.358-.111l2.435-1.665c.644-.439 1.672-.809 2.452-.396.277.146.741.515.741 1.341l.001 6.668a2.022 2.022 0 01-.595 1.444"/><path class="st9" d="M51.033 70.111c.385-.384 1.223-.212 1.885.241l2.435 1.665c.223.152.486.234.756.234l21.749-.005c.27 0 .533-.082.756-.234l2.435-1.665c.888-.608 2.095-.712 2.095.365l.002 6.667c0 .37-.15.706-.394.947a1.33 1.33 0 01-.946.393l-29.642.007c-.74 0-1.339-.601-1.34-1.34l-.001-6.669c-.001-.276.078-.472.21-.606m-.993-.993c-.284.284-.622.793-.622 1.6l.001 6.669a2.745 2.745 0 002.745 2.743l29.641-.005c.733 0 1.423-.285 1.94-.803a2.727 2.727 0 00.804-1.942l-.002-6.667c0-.874-.407-1.589-1.116-1.965-1.057-.556-2.333-.138-3.177.439l-2.418 1.653-21.708.004-2.417-1.652c-1.311-.897-2.819-.927-3.671-.074"/><path class="st27" d="M71.575 68.226v-.994s-1.819-.567-4.593-.566c-2.775.001-4.563.568-4.563.568l.001.994s2.526-.569 4.563-.569c2.034 0 4.592.567 4.592.567M71.574 62.307v-.994s-1.819-.567-4.594-.566c-2.775 0-4.563.568-4.563.568l-.001.993s2.529-.568 4.564-.568c2.036-.001 4.594.567 4.594.567M71.573 56.93v-.994s-1.819-.566-4.593-.566c-2.775.001-4.564.569-4.564.569l.001.993s2.528-.567 4.563-.568c2.035-.001 4.593.566 4.593.566"/><path class="st12" d="M66.294 151.635l-6.546-12.097-.01-54.457 14.524-.002.009 54.455-6.542 12.101c-.282.524-1.153.523-1.435 0"/><path class="st2" d="M67.012 152.027c-.288 0-.575-.131-.717-.392l-6.547-12.097-.01-54.457 7.263-.001c0 .001.299 66.947.011 66.947"/><path class="st37" d="M59.042 84.584l15.791-.041"/><path class="st2" d="M80.955 70.911a.952.952 0 00-.094-.437l-2.249 1.538a1.334 1.334 0 01-.755.234l-1.491.001c-.209.128-.45.198-.696.198l-21.749.005c-.27 0-.533-.082-.756-.234L50.83 70.62c-.002.032-.008.063-.008.098l.001 6.669c0 .739.6 1.34 1.341 1.34l28.147-.007c.386-.235.645-.655.645-1.14l-.001-6.669zM61.673 42.051c-.496.271-.84.792-.839 1.395l.001 5.57c0 .876.718 1.592 1.593 1.591h7.668c.498-.271.84-.791.84-1.394l-.001-5.571a1.598 1.598 0 00-1.594-1.592l-7.668.001z"/><path class="st16" d="M62.178 42.866l4.706-.001c.424 0 .771.347.771.771a.774.774 0 01-.771.772l-4.705.001a.772.772 0 01-.001-1.543M56.084 74.729l11.987-.002a.773.773 0 00.772-.773.774.774 0 00-.772-.771l-11.988.001a.776.776 0 00-.772.773.777.777 0 00.773.772"/></g><g id="sword_7_"><path class="st19" d="M106.351 64.833a2.558 2.558 0 01-1.821.756l-9.102.002a2.579 2.579 0 01-2.576-2.575l-.001-5.57c0-.687.269-1.333.756-1.821a2.557 2.557 0 011.819-.756h9.103a2.576 2.576 0 012.577 2.574l.001 5.571c0 .686-.269 1.332-.756 1.819"/><path class="st9" d="M94.166 56.227a1.632 1.632 0 011.152-.479l9.318-.003c.896 0 1.631.734 1.631 1.631l.002 5.704a1.638 1.638 0 01-1.632 1.63l-9.316.001a1.638 1.638 0 01-1.633-1.63v-5.703c0-.449.184-.855.478-1.151m-1.423-1.424a3.616 3.616 0 00-1.068 2.576l.001 5.703a3.649 3.649 0 003.645 3.644l9.317-.001c.972 0 1.887-.381 2.576-1.071a3.614 3.614 0 001.067-2.573l-.001-5.704a3.648 3.648 0 00-3.645-3.644l-9.317.002a3.62 3.62 0 00-2.575 1.068"/><path class="st19" d="M116.447 93.023a2.311 2.311 0 01-1.643.682l-29.641.004c-.621 0-1.205-.241-1.644-.68s-.681-1.021-.681-1.643l-.001-6.669c.001-.663.271-1.073.499-1.301.707-.706 1.995-.655 3.135.123l2.436 1.664c.06.041.128.063.2.063l21.748-.004a.348.348 0 00.2-.062l2.435-1.666c.742-.508 1.853-.884 2.742-.413.567.298.893.878.894 1.59v6.668a2.306 2.306 0 01-.679 1.644"/><path class="st9" d="M83.551 83.99c.396-.396 1.26-.219 1.942.248l2.508 1.716c.229.156.501.241.778.241l22.407-.005c.277 0 .549-.085.778-.241l2.508-1.716c.915-.627 2.158-.733 2.158.376l.002 6.869c0 .381-.154.727-.405.976-.249.25-.594.404-.975.404l-30.538.007a1.38 1.38 0 01-1.38-1.38l-.001-6.872c.001-.283.082-.486.218-.623m-1.434-1.433c-.37.371-.81 1.026-.81 2.057l.001 6.871a3.41 3.41 0 003.407 3.405l30.538-.005a3.387 3.387 0 002.407-.998 3.392 3.392 0 00.998-2.409l-.002-6.869c0-1.105-.545-2.053-1.461-2.536-1.313-.693-2.86-.203-3.868.487l-2.342 1.604-22.008.002-2.343-1.601c-1.606-1.1-3.422-1.103-4.517-.008"/><path class="st40" d="M94.809 60.885h10.342v27.276H94.809z"/><path class="st27" d="M95.77 61.747l8.417-.001.005 25.552-8.417.001-.005-25.552zm-2.052-2.052v2.052l.005 25.553.001 2.053h2.051l8.417-.001 2.053-.001v-2.053l-.005-25.553v-2.053h-2.053l-8.417.003h-2.052z"/><path class="st8" d="M101.306 165.99c-.397.399-.985.586-1.573.502a1.754 1.754 0 01-1.305-.889l-6.662-12.316-.012-63.429 16.49-.003.012 63.43-6.66 12.317a1.645 1.645 0 01-.29.388z"/><path class="st27" d="M92.607 90.248l14.782-.003.012 63.305-6.659 12.314a.635.635 0 01-.121.163c-.361.363-1.084.309-1.34-.162l-6.662-12.313-.012-63.304m-2.002-2.001v2.003l.011 63.303.001.508.242.446 6.662 12.312c.416.771 1.169 1.287 2.063 1.418a2.884 2.884 0 002.453-.793c.185-.186.343-.396.467-.626l6.657-12.314.24-.446v-.508l-.01-63.304v-2.001h-2.003l-14.782.003h-2.001z"/><path class="st2" d="M95.823 65.178h6.268v21.968h-6.268z"/><path class="st2" d="M106.152 64.635a2.282 2.282 0 01-1.623.674l-9.102.002a2.298 2.298 0 01-2.295-2.296l-.001-5.569c0-.612.239-1.188.673-1.622a2.27 2.27 0 011.621-.673l9.103-.002c.61 0 1.188.237 1.622.672.434.435.674 1.011.675 1.622l.001 5.571c0 .611-.239 1.187-.674 1.621"/><path class="st9" d="M94.301 56.32c.29-.288.688-.468 1.125-.468l9.104-.002c.875 0 1.592.717 1.592 1.593l.002 5.571a1.597 1.597 0 01-1.594 1.593l-9.102.001a1.6 1.6 0 01-1.594-1.593v-5.57c-.001-.439.18-.836.467-1.125m-.993-.992a2.975 2.975 0 00-.879 2.118l.001 5.57c0 .8.313 1.551.88 2.118s1.32.879 2.118.879l9.102-.002c.8 0 1.553-.312 2.119-.879a2.98 2.98 0 00.879-2.118v-5.571c0-.8-.313-1.551-.88-2.119a2.986 2.986 0 00-2.119-.878l-9.103.001a2.978 2.978 0 00-2.118.881"/><path class="st2" d="M116.249 92.824a2.03 2.03 0 01-1.443.6l-29.643.004a2.021 2.021 0 01-1.443-.598 2.022 2.022 0 01-.599-1.443l-.001-6.669c0-.565.227-.912.417-1.103.711-.711 1.938-.416 2.777.156l2.435 1.665c.106.073.23.111.36.112l21.748-.005a.617.617 0 00.358-.111l2.435-1.665c.644-.439 1.672-.809 2.452-.396.277.146.741.515.741 1.341l.001 6.668a2.022 2.022 0 01-.595 1.444"/><path class="st9" d="M84.033 84.111c.385-.384 1.223-.212 1.885.241l2.435 1.665c.223.152.486.234.756.234l21.749-.005c.27 0 .533-.082.756-.234l2.435-1.665c.888-.608 2.095-.712 2.095.365l.002 6.667c0 .37-.15.706-.394.947a1.33 1.33 0 01-.946.393l-29.642.007c-.74 0-1.339-.601-1.34-1.34l-.001-6.669c-.001-.276.078-.472.21-.606m-.993-.993c-.284.284-.622.793-.622 1.6l.001 6.669a2.745 2.745 0 002.745 2.743l29.641-.005c.733 0 1.423-.285 1.94-.803a2.727 2.727 0 00.804-1.942l-.002-6.667c0-.874-.407-1.589-1.116-1.965-1.057-.556-2.333-.138-3.177.439l-2.418 1.653-21.708.004-2.417-1.652c-1.311-.897-2.819-.927-3.671-.074"/><path class="st27" d="M104.575 82.226v-.994s-1.819-.567-4.593-.566c-2.775.001-4.563.568-4.563.568l.001.994s2.526-.569 4.563-.569c2.034 0 4.592.567 4.592.567M104.574 76.307v-.994s-1.819-.567-4.594-.566c-2.775 0-4.563.568-4.563.568l-.001.993s2.529-.568 4.564-.568c2.036-.001 4.594.567 4.594.567M104.573 70.93v-.994s-1.819-.566-4.593-.566c-2.775.001-4.564.569-4.564.569l.001.993s2.528-.567 4.563-.568c2.035-.001 4.593.566 4.593.566"/><path class="st12" d="M99.294 165.635l-6.546-12.097-.01-54.457 14.524-.002.009 54.455-6.542 12.101c-.282.524-1.153.523-1.435 0"/><path class="st2" d="M100.012 166.027c-.288 0-.575-.131-.717-.392l-6.547-12.097-.01-54.457 7.263-.001c0 .001.299 66.947.011 66.947"/><path class="st37" d="M92.042 98.584l15.791-.041"/><path class="st2" d="M113.955 84.911a.952.952 0 00-.094-.437l-2.249 1.538a1.334 1.334 0 01-.755.234l-1.491.001c-.209.128-.45.198-.696.198l-21.749.005c-.27 0-.533-.082-.756-.234L83.83 84.62c-.002.032-.008.063-.008.098l.001 6.669c0 .739.6 1.34 1.341 1.34l28.147-.007c.386-.235.645-.655.645-1.14l-.001-6.669zM94.673 56.051c-.496.271-.84.792-.839 1.395l.001 5.57c0 .876.718 1.592 1.593 1.591h7.668c.498-.271.84-.791.84-1.394l-.001-5.571a1.598 1.598 0 00-1.594-1.592l-7.668.001z"/><path class="st16" d="M95.178 56.866l4.706-.001c.424 0 .771.347.771.771a.774.774 0 01-.771.772l-4.705.001a.772.772 0 01-.001-1.543M89.084 88.729l11.987-.002a.773.773 0 00.772-.773.774.774 0 00-.772-.771l-11.988.001a.776.776 0 00-.772.773.777.777 0 00.773.772"/></g></g></g></g></svg>