<svg xmlns="http://www.w3.org/2000/svg" width="130" height="130"><linearGradient id="a" gradientUnits="userSpaceOnUse" x1="65.029" y1="392.58" x2="65.029" y2="337.438"><stop offset="0" stop-color="#fcee21"/><stop offset=".148" stop-color="#fce921"/><stop offset=".315" stop-color="#fbdc21"/><stop offset=".491" stop-color="#f9c522"/><stop offset=".674" stop-color="#f7a622"/><stop offset=".86" stop-color="#f47d23"/><stop offset="1" stop-color="#f15a24"/></linearGradient><path d="M19.125 337.5c-5.438.25-6.375 4.625-6.375 4.625L5.5 377.313c-.125 2.063 1.063 4.875 1.063 4.875s1.938 3.938 3.813 7.375 5.5 3 5.5 3 96.188 0 99.063-.063 4.375-2.313 4.375-2.313 2.938-5.813 3.75-7.438 1.313-3.25 1.5-4.125-7.375-36.563-7.375-36.563-1.344-4.5-6.438-4.625l-91.626.064z" fill="url(#a)" stroke="#000" stroke-width="5" stroke-linejoin="round" stroke-miterlimit="10"/><linearGradient id="b" gradientUnits="userSpaceOnUse" x1="64.977" y1="376.408" x2="64.977" y2="391.125"><stop offset="0" stop-color="#fcee21"/><stop offset=".148" stop-color="#fce921"/><stop offset=".315" stop-color="#fbdc21"/><stop offset=".491" stop-color="#f9c522"/><stop offset=".674" stop-color="#f7a622"/><stop offset=".86" stop-color="#f47d23"/><stop offset="1" stop-color="#f15a24"/></linearGradient><path d="M16.748 391.084l-.447.004c-1.599 0-3.398-.146-4.522-1.904-.402-.629-3.837-6.969-4.321-9.003-.279-1.179.09-1.97.45-2.425.947-1.199 2.727-1.299 4.468-1.299l43.281-.034c.066-.009.135-.015.203-.015l9.118.008 9.116-.008c.07 0 .139.006.207.015l43.278.034c1.74 0 3.52.1 4.467 1.299.36.455.729 1.246.45 2.425-.484 2.034-3.919 8.374-4.321 9.003-1.124 1.758-2.924 1.904-4.521 1.904l-.48-.005-47.505.042-48.921-.041z" fill="url(#b)"/><path d="M74.094 377.908v.015l43.484.034c1.968 0 3.875.127 3.458 1.877s-3.732 7.928-4.125 8.541c-.616.963-1.516 1.213-3.259 1.213-.144 0-.293-.001-.449-.004l-47.537.041-48.916-.041c-.156.003-.306.004-.449.004-1.743 0-2.643-.25-3.259-1.213-.393-.613-3.708-6.791-4.125-8.541s1.49-1.877 3.458-1.877l43.484-.034v-.015l9.117.008 9.118-.008m-18.235-3c-.1 0-.197.006-.294.015l-43.192.034c-1.557 0-4.166 0-5.643 1.869-.799 1.012-1.06 2.326-.732 3.702.562 2.358 4.201 8.97 4.517 9.464 1.661 2.596 4.446 2.596 5.786 2.596.152 0 .313-.001.477-.004l48.887.041 47.512-.041c.164.003.324.004.477.004 1.34 0 4.125 0 5.786-2.596.315-.494 3.955-7.105 4.517-9.464.327-1.376.066-2.69-.732-3.702-1.477-1.869-4.086-1.869-5.645-1.869l-43.193-.034a3.115 3.115 0 00-.291-.015h-.002l-9.117.008-9.113-.008h-.005z" fill="#b35800"/><linearGradient id="c" gradientUnits="userSpaceOnUse" x1="65" y1="382.103" x2="65" y2="338.982"><stop offset="0" stop-color="#fcee21"/><stop offset=".148" stop-color="#fce921"/><stop offset=".315" stop-color="#fbdc21"/><stop offset=".491" stop-color="#f9c522"/><stop offset=".674" stop-color="#f7a622"/><stop offset=".86" stop-color="#f47d23"/><stop offset="1" stop-color="#f15a24"/></linearGradient><path d="M10.992 382.104c-2.752 0-3.984-2.08-3.984-4.141 0-.101.01-.201.03-.299l7.144-35.132c.471-2.134 2.574-3.55 5.237-3.55h91.102c2.507 0 4.241 1.1 5.153 3.267.039.091.068.185.088.282l7.025 34.39c.381.966.229 2.222-.416 3.271-.744 1.215-1.99 1.911-3.417 1.911H10.992z" fill="url(#c)"/><path d="M110.521 340.482c2.097 0 3.167.913 3.771 2.349l7.057 34.546c.497.976-.299 3.227-2.395 3.227H10.992c-2.096 0-2.484-1.658-2.484-2.641l7.143-35.132c.289-1.303 1.672-2.349 3.769-2.349h91.101m0-3H19.419c-3.384 0-6.075 1.889-6.697 4.701l-.011.05-7.143 35.132a2.924 2.924 0 00-.061.598c0 3.321 2.255 5.641 5.484 5.641h107.962c1.961 0 3.673-.957 4.696-2.627.854-1.396 1.064-3.09.584-4.463l-7.003-34.283a3.061 3.061 0 00-.175-.563c-1.151-2.738-3.41-4.186-6.534-4.186z" fill="#b35800"/><linearGradient id="d" gradientUnits="userSpaceOnUse" x1="65.029" y1="242.581" x2="65.029" y2="187.438"><stop offset="0" stop-color="#fcee21"/><stop offset=".148" stop-color="#fce921"/><stop offset=".315" stop-color="#fbdc21"/><stop offset=".491" stop-color="#f9c522"/><stop offset=".674" stop-color="#f7a622"/><stop offset=".86" stop-color="#f47d23"/><stop offset="1" stop-color="#f15a24"/></linearGradient><path d="M19.125 187.5c-5.438.25-6.375 4.625-6.375 4.625L5.5 227.313c-.125 2.063 1.063 4.875 1.063 4.875s1.938 3.938 3.813 7.375 5.5 3 5.5 3 96.188 0 99.063-.063 4.375-2.313 4.375-2.313 2.938-5.813 3.75-7.438 1.313-3.25 1.5-4.125-7.375-36.563-7.375-36.563-1.344-4.5-6.438-4.625l-91.626.064z" fill="url(#d)" stroke="#000" stroke-width="5" stroke-linejoin="round" stroke-miterlimit="10"/><linearGradient id="e" gradientUnits="userSpaceOnUse" x1="64.977" y1="226.409" x2="64.977" y2="241.125"><stop offset="0" stop-color="#d5d5d5"/><stop offset=".167" stop-color="#d0d0d0"/><stop offset=".355" stop-color="#c3c3c3"/><stop offset=".554" stop-color="#acacac"/><stop offset=".76" stop-color="#8d8d8d"/><stop offset=".97" stop-color="#646464"/><stop offset="1" stop-color="#5e5e5e"/></linearGradient><path d="M16.749 241.083l-.448.005c-1.599 0-3.397-.147-4.522-1.905-.402-.629-3.836-6.967-4.32-9.002-.281-1.179.089-1.97.449-2.425.946-1.199 2.727-1.299 4.468-1.299l43.281-.034c.067-.009.135-.014.203-.014l9.118.007 9.116-.007c.069 0 .139.005.207.014l43.278.034c1.74 0 3.521.1 4.467 1.299.36.456.73 1.247.449 2.425-.484 2.036-3.918 8.373-4.32 9.002-1.125 1.758-2.924 1.905-4.521 1.905l-.48-.005-47.506.042-48.919-.042z" fill="url(#e)"/><path d="M74.094 227.909v.014l43.484.034c1.968 0 3.875.127 3.458 1.877s-3.732 7.928-4.125 8.542c-.616.962-1.516 1.213-3.259 1.213-.144 0-.294-.001-.449-.005l-47.537.042-48.916-.042a23.53 23.53 0 01-.449.005c-1.742 0-2.643-.251-3.259-1.213-.393-.614-3.708-6.792-4.125-8.542s1.49-1.877 3.458-1.877l43.484-.034v-.014l9.117.007 9.118-.007m-18.235-3c-.099 0-.196.005-.293.014l-43.193.034c-1.558 0-4.167 0-5.644 1.87-.799 1.012-1.059 2.327-.73 3.703.562 2.359 4.2 8.969 4.516 9.463 1.662 2.597 4.447 2.597 5.786 2.597.153 0 .313-.001.478-.005l48.885.042 47.512-.042c.165.003.324.005.478.005 1.339 0 4.124 0 5.785-2.596.316-.494 3.955-7.104 4.517-9.463.328-1.375.068-2.69-.73-3.703-1.477-1.87-4.086-1.87-5.646-1.87l-43.194-.034a3.094 3.094 0 00-.29-.014h-.002l-9.117.007-9.113-.007-.005-.001z" fill="#4f4f4f"/><g><linearGradient id="f" gradientUnits="userSpaceOnUse" x1="65" y1="232.103" x2="65" y2="188.982"><stop offset="0" stop-color="#d5d5d5"/><stop offset=".167" stop-color="#d0d0d0"/><stop offset=".355" stop-color="#c3c3c3"/><stop offset=".554" stop-color="#acacac"/><stop offset=".76" stop-color="#8d8d8d"/><stop offset=".97" stop-color="#646464"/><stop offset="1" stop-color="#5e5e5e"/></linearGradient><path d="M10.992 232.104c-2.752 0-3.984-2.08-3.984-4.141 0-.101.01-.201.03-.299l7.143-35.132c.473-2.134 2.576-3.55 5.238-3.55h91.102c2.507 0 4.241 1.099 5.154 3.267.038.091.067.185.087.282l7.024 34.39c.382.966.229 2.221-.415 3.271-.744 1.215-1.989 1.911-3.417 1.911H10.992z" fill="url(#f)"/><path d="M110.521 190.482c2.097 0 3.167.913 3.771 2.349l7.057 34.546c.497.976-.299 3.227-2.395 3.227H10.992c-2.096 0-2.484-1.658-2.484-2.641l7.143-35.132c.289-1.303 1.672-2.349 3.769-2.349h91.101m0-3H19.419c-3.382 0-6.073 1.888-6.697 4.699l-.011.052-7.143 35.132c-.04.197-.061.397-.061.598 0 3.321 2.255 5.641 5.484 5.641h107.962c1.961 0 3.673-.958 4.696-2.627.854-1.396 1.064-3.09.584-4.463l-7.003-34.283a2.986 2.986 0 00-.175-.563c-1.151-2.739-3.411-4.186-6.534-4.186z" fill="#4f4f4f"/></g><g><linearGradient id="g" gradientUnits="userSpaceOnUse" x1="65.029" y1="92.581" x2="65.029" y2="37.438"><stop offset="0" stop-color="#fcee21"/><stop offset=".148" stop-color="#fce921"/><stop offset=".315" stop-color="#fbdc21"/><stop offset=".491" stop-color="#f9c522"/><stop offset=".674" stop-color="#f7a622"/><stop offset=".86" stop-color="#f47d23"/><stop offset="1" stop-color="#f15a24"/></linearGradient><path d="M19.125 37.5c-5.438.25-6.375 4.625-6.375 4.625L5.5 77.313c-.125 2.063 1.063 4.875 1.063 4.875s1.938 3.938 3.813 7.375 5.5 3 5.5 3 96.188 0 99.063-.063 4.375-2.313 4.375-2.313 2.938-5.813 3.75-7.438 1.313-3.25 1.5-4.125-7.375-36.563-7.375-36.563-1.344-4.5-6.438-4.625l-91.626.064z" fill="url(#g)" stroke="#000" stroke-width="5" stroke-linejoin="round" stroke-miterlimit="10"/><linearGradient id="h" gradientUnits="userSpaceOnUse" x1="64.977" y1="76.409" x2="64.977" y2="91.125"><stop offset="0" stop-color="#7c7d80"/><stop offset=".239" stop-color="#78787b"/><stop offset=".509" stop-color="#6b6b6e"/><stop offset=".792" stop-color="#555557"/><stop offset="1" stop-color="#414042"/></linearGradient><path d="M16.749 91.083l-.448.005c-1.599 0-3.397-.147-4.522-1.905-.402-.629-3.836-6.967-4.32-9.002-.281-1.179.089-1.97.449-2.425.946-1.199 2.727-1.299 4.468-1.299l43.281-.034c.067-.009.135-.014.203-.014l9.118.007 9.116-.007c.069 0 .139.005.207.014l43.278.034c1.74 0 3.521.1 4.467 1.299.36.456.73 1.247.449 2.425-.484 2.036-3.918 8.373-4.32 9.002-1.125 1.758-2.924 1.905-4.521 1.905l-.48-.005-47.506.042-48.919-.042z" fill="url(#h)"/><path d="M74.094 77.909v.014l43.484.034c1.968 0 3.875.127 3.458 1.877s-3.732 7.928-4.125 8.542c-.616.962-1.516 1.213-3.259 1.213-.144 0-.294-.002-.449-.005l-47.537.042-48.916-.043a23.53 23.53 0 01-.449.005c-1.742 0-2.643-.251-3.259-1.213-.393-.614-3.708-6.792-4.125-8.542s1.49-1.877 3.458-1.877l43.484-.034v-.014l9.117.007 9.118-.006m-18.235-3c-.099 0-.196.005-.293.014l-43.193.034c-1.558 0-4.167 0-5.644 1.87-.799 1.012-1.059 2.327-.73 3.703.562 2.359 4.2 8.969 4.516 9.463 1.662 2.597 4.447 2.597 5.786 2.597.153 0 .313-.001.478-.005l48.885.042 47.512-.042c.165.003.324.005.478.005 1.339 0 4.124 0 5.785-2.596.316-.494 3.955-7.104 4.517-9.463.328-1.375.068-2.69-.73-3.703-1.477-1.87-4.086-1.87-5.646-1.87l-43.194-.034a3.094 3.094 0 00-.29-.014h-.002l-9.117.007-9.113-.007-.005-.001z" fill="#231f20"/><g><linearGradient id="i" gradientUnits="userSpaceOnUse" x1="65" y1="82.103" x2="65" y2="38.982"><stop offset="0" stop-color="#7c7d80"/><stop offset=".239" stop-color="#78787b"/><stop offset=".509" stop-color="#6b6b6e"/><stop offset=".792" stop-color="#555557"/><stop offset="1" stop-color="#414042"/></linearGradient><path d="M10.992 82.104c-2.752 0-3.984-2.08-3.984-4.141 0-.101.01-.201.03-.299l7.143-35.132c.473-2.134 2.576-3.55 5.238-3.55h91.102c2.507 0 4.241 1.099 5.154 3.267.038.091.067.185.087.282l7.024 34.39c.382.966.229 2.221-.415 3.271-.744 1.215-1.989 1.911-3.417 1.911H10.992z" fill="url(#i)"/><path d="M110.521 40.482c2.097 0 3.167.913 3.771 2.349l7.057 34.546c.497.976-.299 3.227-2.395 3.227H10.992c-2.096 0-2.484-1.658-2.484-2.641l7.143-35.132c.289-1.303 1.672-2.349 3.769-2.349h91.101m0-3H19.419c-3.382 0-6.073 1.888-6.697 4.699l-.011.052-7.143 35.132c-.04.197-.061.397-.061.598 0 3.321 2.255 5.641 5.484 5.641h107.962c1.961 0 3.673-.958 4.696-2.627.854-1.396 1.064-3.09.584-4.463l-7.003-34.283a2.986 2.986 0 00-.175-.563c-1.151-2.739-3.411-4.186-6.534-4.186z" fill="#231f20"/></g></g><g><linearGradient id="j" gradientUnits="userSpaceOnUse" x1="-84.971" y1="542.58" x2="-84.971" y2="487.438"><stop offset="0" stop-color="#fcee21"/><stop offset=".148" stop-color="#fce921"/><stop offset=".315" stop-color="#fbdc21"/><stop offset=".491" stop-color="#f9c522"/><stop offset=".674" stop-color="#f7a622"/><stop offset=".86" stop-color="#f47d23"/><stop offset="1" stop-color="#f15a24"/></linearGradient><path d="M-130.875 487.5c-5.438.25-6.375 4.625-6.375 4.625l-7.25 35.188c-.125 2.063 1.063 4.875 1.063 4.875s1.938 3.938 3.813 7.375 5.5 3 5.5 3 96.188 0 99.063-.063 4.375-2.313 4.375-2.313 2.938-5.813 3.75-7.438 1.313-3.25 1.5-4.125-7.375-36.563-7.375-36.563-1.344-4.5-6.438-4.625l-91.626.064z" fill="url(#j)" stroke="#000" stroke-width="5" stroke-linejoin="round" stroke-miterlimit="10"/><linearGradient id="k" gradientUnits="userSpaceOnUse" x1="-85.024" y1="526.408" x2="-85.024" y2="541.125"><stop offset="0" stop-color="#d1ebff"/><stop offset=".187" stop-color="#cce8fe"/><stop offset=".398" stop-color="#bfdffc"/><stop offset=".62" stop-color="#a8d0f9"/><stop offset=".849" stop-color="#89bbf5"/><stop offset="1" stop-color="#70abf1"/></linearGradient><path d="M-133.251 541.084l-.444.005c-1.6 0-3.4-.147-4.525-1.905-.402-.628-3.835-6.963-4.321-9.002-.281-1.179.089-1.97.449-2.426.947-1.198 2.726-1.299 4.468-1.299l43.278-.034c.068-.01.137-.015.206-.015l9.119.008 9.116-.008c.07 0 .141.005.21.015l43.275.034c1.74 0 3.521.101 4.467 1.299.36.456.73 1.247.449 2.426-.485 2.039-3.919 8.374-4.32 9.002-1.126 1.758-2.927 1.905-4.526 1.905l-.476-.005-47.505.041-48.92-.041z" fill="url(#k)"/><path d="M-75.906 527.908v.015l43.484.034c1.968 0 3.875.127 3.458 1.877s-3.732 7.928-4.125 8.541c-.616.963-1.518 1.214-3.263 1.214-.143 0-.291-.002-.445-.005l-47.537.041-48.916-.041c-.154.003-.303.005-.445.005-1.745 0-2.646-.251-3.263-1.214-.393-.613-3.708-6.791-4.125-8.541s1.49-1.877 3.458-1.877l43.484-.034v-.015l9.117.008 9.118-.008m0-3h-.003l-9.117.008-9.112-.008h-.002c-.1 0-.2.005-.298.015l-43.188.034c-1.557 0-4.166 0-5.643 1.87-.799 1.012-1.059 2.326-.731 3.702.563 2.363 4.201 8.97 4.517 9.463 1.662 2.597 4.45 2.597 5.79 2.597.152 0 .31-.002.473-.005l48.886.041 47.511-.041c.164.003.322.005.474.005 1.34 0 4.127 0 5.789-2.597.315-.493 3.954-7.1 4.517-9.463.328-1.376.068-2.69-.73-3.702-1.477-1.87-4.086-1.87-5.646-1.87l-43.189-.034c-.101-.01-.2-.015-.298-.015z" fill="#0071bc"/><g><linearGradient id="l" gradientUnits="userSpaceOnUse" x1="-84.999" y1="532.104" x2="-84.999" y2="488.982"><stop offset="0" stop-color="#d1ebff"/><stop offset=".187" stop-color="#cce8fe"/><stop offset=".398" stop-color="#bfdffc"/><stop offset=".62" stop-color="#a8d0f9"/><stop offset=".849" stop-color="#89bbf5"/><stop offset="1" stop-color="#70abf1"/></linearGradient><path d="M-139.008 532.104c-2.752 0-3.984-2.08-3.984-4.141 0-.101.01-.2.03-.299l7.143-35.132c.473-2.134 2.576-3.55 5.238-3.55h91.102c2.507 0 4.241 1.099 5.154 3.267.038.091.067.186.087.282l7.024 34.39c.382.966.229 2.221-.415 3.271-.744 1.215-1.989 1.911-3.417 1.911h-107.962z" fill="url(#l)"/><path d="M-39.479 490.482c2.097 0 3.167.913 3.771 2.349l7.057 34.546c.497.976-.299 3.227-2.395 3.227h-107.962c-2.096 0-2.484-1.658-2.484-2.641l7.143-35.132c.289-1.303 1.672-2.349 3.769-2.349h91.101m0-3h-91.102c-3.382 0-6.074 1.889-6.697 4.699l-.011.052-7.143 35.132c-.04.196-.06.396-.06.598 0 3.321 2.255 5.641 5.484 5.641h107.962c1.961 0 3.673-.958 4.696-2.627.854-1.396 1.064-3.09.584-4.464l-7.003-34.282a2.986 2.986 0 00-.175-.563c-1.152-2.738-3.412-4.186-6.535-4.186z" fill="#0071bc"/></g></g><g><linearGradient id="m" gradientUnits="userSpaceOnUse" x1="-84.971" y1="392.58" x2="-84.971" y2="337.438"><stop offset="0" stop-color="#fcee21"/><stop offset=".148" stop-color="#fce921"/><stop offset=".315" stop-color="#fbdc21"/><stop offset=".491" stop-color="#f9c522"/><stop offset=".674" stop-color="#f7a622"/><stop offset=".86" stop-color="#f47d23"/><stop offset="1" stop-color="#f15a24"/></linearGradient><path d="M-130.875 337.5c-5.438.25-6.375 4.625-6.375 4.625l-7.25 35.188c-.125 2.063 1.063 4.875 1.063 4.875s1.938 3.938 3.813 7.375 5.5 3 5.5 3 96.188 0 99.063-.063 4.375-2.313 4.375-2.313 2.938-5.813 3.75-7.438 1.313-3.25 1.5-4.125-7.375-36.563-7.375-36.563-1.344-4.5-6.438-4.625l-91.626.064z" fill="url(#m)" stroke="#000" stroke-width="5" stroke-linejoin="round" stroke-miterlimit="10"/><linearGradient id="n" gradientUnits="userSpaceOnUse" x1="-85.024" y1="376.408" x2="-85.024" y2="391.125"><stop offset="0" stop-color="#de7c63"/><stop offset=".203" stop-color="#da785e"/><stop offset=".431" stop-color="#ce6c51"/><stop offset=".671" stop-color="#ba583a"/><stop offset=".919" stop-color="#9e3c1b"/><stop offset="1" stop-color="#93320f"/></linearGradient><path d="M-133.251 391.084l-.444.005c-1.6 0-3.4-.147-4.525-1.905-.402-.628-3.835-6.963-4.321-9.002-.281-1.179.089-1.97.449-2.426.947-1.198 2.726-1.299 4.468-1.299l43.278-.034c.068-.01.137-.015.206-.015l9.119.008 9.116-.008c.07 0 .141.005.21.015l43.275.034c1.74 0 3.521.101 4.467 1.299.36.456.73 1.247.449 2.426-.485 2.039-3.919 8.374-4.32 9.002-1.126 1.758-2.927 1.905-4.526 1.905l-.476-.005-47.505.041-48.92-.041z" fill="url(#n)"/><path d="M-75.906 377.908v.015l43.484.034c1.968 0 3.875.127 3.458 1.877s-3.732 7.928-4.125 8.541c-.616.963-1.518 1.214-3.263 1.214-.143 0-.291-.002-.445-.005l-47.537.041-48.916-.041c-.154.003-.303.005-.445.005-1.745 0-2.646-.251-3.263-1.214-.393-.613-3.708-6.791-4.125-8.541s1.49-1.877 3.458-1.877l43.484-.034v-.015l9.117.008 9.118-.008m0-3h-.003l-9.117.008-9.112-.008h-.002c-.1 0-.2.005-.298.015l-43.188.034c-1.557 0-4.166 0-5.643 1.87-.799 1.012-1.059 2.326-.731 3.702.563 2.363 4.201 8.97 4.517 9.463 1.662 2.597 4.45 2.597 5.79 2.597.152 0 .31-.002.473-.005l48.886.041 47.511-.041c.164.003.322.005.474.005 1.34 0 4.127 0 5.789-2.597.315-.493 3.954-7.1 4.517-9.463.328-1.376.068-2.69-.73-3.702-1.477-1.87-4.086-1.87-5.646-1.87l-43.189-.034c-.101-.01-.2-.015-.298-.015z" fill="#482402"/><g><linearGradient id="o" gradientUnits="userSpaceOnUse" x1="-84.999" y1="382.103" x2="-84.999" y2="338.982"><stop offset="0" stop-color="#de7c63"/><stop offset=".203" stop-color="#da785e"/><stop offset=".431" stop-color="#ce6c51"/><stop offset=".671" stop-color="#ba583a"/><stop offset=".919" stop-color="#9e3c1b"/><stop offset="1" stop-color="#93320f"/></linearGradient><path d="M-139.008 382.104c-2.752 0-3.984-2.08-3.984-4.141 0-.101.01-.2.03-.299l7.143-35.132c.473-2.134 2.576-3.55 5.238-3.55h91.102c2.507 0 4.241 1.099 5.154 3.267.038.091.067.186.087.282l7.024 34.39c.382.966.229 2.221-.415 3.271-.744 1.215-1.989 1.911-3.417 1.911h-107.962z" fill="url(#o)"/><path d="M-39.479 340.482c2.097 0 3.167.913 3.771 2.349l7.057 34.546c.497.976-.299 3.227-2.395 3.227h-107.962c-2.096 0-2.484-1.658-2.484-2.641l7.143-35.132c.289-1.303 1.672-2.349 3.769-2.349h91.101m0-3h-91.102c-3.382 0-6.074 1.889-6.697 4.699l-.011.052-7.143 35.132c-.04.196-.06.396-.06.598 0 3.321 2.255 5.641 5.484 5.641h107.962c1.961 0 3.673-.958 4.696-2.627.854-1.396 1.064-3.09.584-4.464l-7.003-34.282a2.986 2.986 0 00-.175-.563c-1.152-2.738-3.412-4.186-6.535-4.186z" fill="#482402"/></g></g><g><linearGradient id="p" gradientUnits="userSpaceOnUse" x1="-84.971" y1="242.581" x2="-84.971" y2="187.438"><stop offset="0" stop-color="#fcee21"/><stop offset=".148" stop-color="#fce921"/><stop offset=".315" stop-color="#fbdc21"/><stop offset=".491" stop-color="#f9c522"/><stop offset=".674" stop-color="#f7a622"/><stop offset=".86" stop-color="#f47d23"/><stop offset="1" stop-color="#f15a24"/></linearGradient><path d="M-130.875 187.5c-5.438.25-6.375 4.625-6.375 4.625l-7.25 35.188c-.125 2.063 1.063 4.875 1.063 4.875s1.938 3.938 3.813 7.375 5.5 3 5.5 3 96.188 0 99.063-.063 4.375-2.313 4.375-2.313 2.938-5.813 3.75-7.438 1.313-3.25 1.5-4.125-7.375-36.563-7.375-36.563-1.344-4.5-6.438-4.625l-91.626.064z" fill="url(#p)" stroke="#000" stroke-width="5" stroke-linejoin="round" stroke-miterlimit="10"/><linearGradient id="q" gradientUnits="userSpaceOnUse" x1="-85.024" y1="226.409" x2="-85.024" y2="241.125"><stop offset="0" stop-color="#00ff1a"/><stop offset=".194" stop-color="#04fa1e"/><stop offset=".412" stop-color="#0fed28"/><stop offset=".642" stop-color="#23d639"/><stop offset=".879" stop-color="#3db751"/><stop offset="1" stop-color="#4da45f"/></linearGradient><path d="M-133.251 241.083l-.448.005c-1.598 0-3.396-.147-4.521-1.905-.403-.629-3.836-6.967-4.321-9.002-.281-1.179.089-1.97.449-2.425.947-1.199 2.726-1.299 4.468-1.299l43.282-.034c.067-.009.134-.014.203-.014l9.118.007 9.116-.007c.069 0 .139.005.207.014l43.278.034c1.74 0 3.521.1 4.467 1.299.36.456.73 1.247.449 2.425-.484 2.036-3.918 8.373-4.32 9.002-1.125 1.758-2.924 1.905-4.521 1.905l-.48-.005-47.505.042-48.921-.042z" fill="url(#q)"/><path d="M-75.906 227.909v.014l43.484.034c1.968 0 3.875.127 3.458 1.877s-3.732 7.928-4.125 8.542c-.616.962-1.516 1.213-3.259 1.213-.144 0-.294-.001-.449-.005l-47.537.042-48.916-.042c-.156.003-.306.005-.45.005-1.742 0-2.642-.251-3.258-1.213-.393-.614-3.708-6.792-4.125-8.542s1.49-1.877 3.458-1.877l43.484-.034v-.014l9.117.007 9.118-.007m-18.235-3c-.099 0-.196.005-.293.014l-43.193.034c-1.557 0-4.166 0-5.643 1.87-.799 1.012-1.059 2.327-.731 3.703.563 2.359 4.201 8.969 4.516 9.463 1.662 2.597 4.447 2.597 5.786 2.597.153 0 .313-.001.478-.005l48.886.042 47.511-.042c.165.003.324.005.478.005 1.339 0 4.124 0 5.785-2.596.316-.494 3.955-7.104 4.517-9.463.328-1.375.068-2.69-.73-3.703-1.477-1.87-4.086-1.87-5.646-1.87l-43.194-.034a3.094 3.094 0 00-.29-.014h-.002l-9.118.007-9.112-.007-.005-.001z" fill="#086800"/><g><linearGradient id="r" gradientUnits="userSpaceOnUse" x1="-84.999" y1="232.103" x2="-84.999" y2="188.982"><stop offset="0" stop-color="#00ff1a"/><stop offset=".194" stop-color="#04fa1e"/><stop offset=".412" stop-color="#0fed28"/><stop offset=".642" stop-color="#23d639"/><stop offset=".879" stop-color="#3db751"/><stop offset="1" stop-color="#4da45f"/></linearGradient><path d="M-139.008 232.104c-2.752 0-3.984-2.08-3.984-4.141 0-.101.01-.201.03-.299l7.143-35.132c.473-2.134 2.576-3.55 5.238-3.55h91.102c2.507 0 4.241 1.099 5.154 3.267.038.091.067.185.087.282l7.024 34.39c.382.966.229 2.221-.415 3.271-.744 1.215-1.989 1.911-3.417 1.911h-107.962z" fill="url(#r)"/><path d="M-39.479 190.482c2.097 0 3.167.913 3.771 2.349l7.057 34.546c.497.976-.299 3.227-2.395 3.227h-107.962c-2.096 0-2.484-1.658-2.484-2.641l7.143-35.132c.289-1.303 1.672-2.349 3.769-2.349h91.101m0-3h-91.102c-3.382 0-6.074 1.888-6.697 4.699l-.011.052-7.143 35.132c-.04.197-.06.397-.06.598 0 3.321 2.255 5.641 5.484 5.641h107.962c1.961 0 3.673-.958 4.696-2.627.854-1.396 1.064-3.09.584-4.463l-7.003-34.283a2.986 2.986 0 00-.175-.563c-1.152-2.739-3.412-4.186-6.535-4.186z" fill="#086800"/></g></g><g><linearGradient id="s" gradientUnits="userSpaceOnUse" x1="-84.971" y1="92.581" x2="-84.971" y2="37.438"><stop offset="0" stop-color="#fcee21"/><stop offset=".148" stop-color="#fce921"/><stop offset=".315" stop-color="#fbdc21"/><stop offset=".491" stop-color="#f9c522"/><stop offset=".674" stop-color="#f7a622"/><stop offset=".86" stop-color="#f47d23"/><stop offset="1" stop-color="#f15a24"/></linearGradient><path d="M-130.875 37.5c-5.438.25-6.375 4.625-6.375 4.625l-7.25 35.188c-.125 2.063 1.063 4.875 1.063 4.875s1.938 3.938 3.813 7.375 5.5 3 5.5 3 96.188 0 99.063-.063 4.375-2.313 4.375-2.313 2.938-5.813 3.75-7.438 1.313-3.25 1.5-4.125-7.375-36.563-7.375-36.563-1.344-4.5-6.438-4.625l-91.626.064z" fill="url(#s)" stroke="#000" stroke-width="5" stroke-linejoin="round" stroke-miterlimit="10"/><linearGradient id="t" gradientUnits="userSpaceOnUse" x1="-85.024" y1="76.409" x2="-85.024" y2="91.125"><stop offset="0" stop-color="#d04df7"/><stop offset=".188" stop-color="#cb49f3"/><stop offset=".4" stop-color="#be3fe7"/><stop offset=".624" stop-color="#a72ed3"/><stop offset=".854" stop-color="#8815b8"/><stop offset="1" stop-color="#7003a3"/></linearGradient><path d="M-133.251 91.083l-.448.005c-1.598 0-3.396-.147-4.521-1.905-.403-.629-3.836-6.967-4.321-9.002-.281-1.179.089-1.97.449-2.425.947-1.199 2.726-1.299 4.468-1.299l43.282-.034c.067-.009.134-.014.203-.014l9.118.007 9.116-.007c.069 0 .139.005.207.014l43.278.034c1.74 0 3.521.1 4.467 1.299.36.456.73 1.247.449 2.425-.484 2.036-3.918 8.373-4.32 9.002-1.125 1.758-2.924 1.905-4.521 1.905l-.48-.005-47.505.042-48.921-.042z" fill="url(#t)"/><path d="M-75.906 77.909v.014l43.484.034c1.968 0 3.875.127 3.458 1.877s-3.732 7.928-4.125 8.542c-.616.962-1.516 1.213-3.259 1.213-.144 0-.294-.002-.449-.005l-47.537.042-48.916-.042c-.156.003-.306.005-.45.005-1.742 0-2.642-.251-3.258-1.213-.393-.614-3.708-6.792-4.125-8.542s1.49-1.877 3.458-1.877l43.484-.034v-.014l9.117.007 9.118-.007m-18.235-3c-.099 0-.196.005-.293.014l-43.193.034c-1.557 0-4.166 0-5.643 1.87-.799 1.012-1.059 2.327-.731 3.703.563 2.359 4.201 8.969 4.516 9.463 1.662 2.597 4.447 2.597 5.786 2.597.153 0 .313-.001.478-.005l48.886.042 47.511-.042c.165.003.324.005.478.005 1.339 0 4.124 0 5.785-2.596.316-.494 3.955-7.104 4.517-9.463.328-1.375.068-2.69-.73-3.703-1.477-1.87-4.086-1.87-5.646-1.87l-43.194-.034a3.094 3.094 0 00-.29-.014h-.002l-9.118.007-9.112-.007-.005-.001z" fill="#4f0066"/><g><linearGradient id="u" gradientUnits="userSpaceOnUse" x1="-84.999" y1="82.103" x2="-84.999" y2="38.982"><stop offset="0" stop-color="#d04df7"/><stop offset=".188" stop-color="#cb49f3"/><stop offset=".4" stop-color="#be3fe7"/><stop offset=".624" stop-color="#a72ed3"/><stop offset=".854" stop-color="#8815b8"/><stop offset="1" stop-color="#7003a3"/></linearGradient><path d="M-139.008 82.104c-2.752 0-3.984-2.08-3.984-4.141 0-.101.01-.201.03-.299l7.143-35.132c.473-2.134 2.576-3.55 5.238-3.55h91.102c2.507 0 4.241 1.099 5.154 3.267.038.091.067.185.087.282l7.024 34.39c.382.966.229 2.221-.415 3.271-.744 1.215-1.989 1.911-3.417 1.911h-107.962z" fill="url(#u)"/><path d="M-39.479 40.482c2.097 0 3.167.913 3.771 2.349l7.057 34.546c.497.976-.299 3.227-2.395 3.227h-107.962c-2.096 0-2.484-1.658-2.484-2.641l7.143-35.132c.289-1.303 1.672-2.349 3.769-2.349h91.101m0-3h-91.102c-3.382 0-6.074 1.888-6.697 4.699l-.011.052-7.143 35.132c-.04.197-.06.397-.06.598 0 3.321 2.255 5.641 5.484 5.641h107.962c1.961 0 3.673-.958 4.696-2.627.854-1.396 1.064-3.09.584-4.463l-7.003-34.283a2.986 2.986 0 00-.175-.563c-1.152-2.739-3.412-4.186-6.535-4.186z" fill="#4f0066"/></g></g><g><linearGradient id="v" gradientUnits="userSpaceOnUse" x1="-234.972" y1="542.58" x2="-234.972" y2="487.438"><stop offset="0" stop-color="#fcee21"/><stop offset=".148" stop-color="#fce921"/><stop offset=".315" stop-color="#fbdc21"/><stop offset=".491" stop-color="#f9c522"/><stop offset=".674" stop-color="#f7a622"/><stop offset=".86" stop-color="#f47d23"/><stop offset="1" stop-color="#f15a24"/></linearGradient><path d="M-280.875 487.5c-5.438.25-6.375 4.625-6.375 4.625l-7.25 35.188c-.125 2.063 1.063 4.875 1.063 4.875s1.938 3.938 3.813 7.375 5.5 3 5.5 3 96.188 0 99.063-.063 4.375-2.313 4.375-2.313 2.938-5.813 3.75-7.438 1.313-3.25 1.5-4.125-7.375-36.563-7.375-36.563-1.344-4.5-6.438-4.625l-91.626.064z" fill="url(#v)" stroke="#000" stroke-width="5" stroke-linejoin="round" stroke-miterlimit="10"/><linearGradient id="w" gradientUnits="userSpaceOnUse" x1="-235.023" y1="526.408" x2="-235.023" y2="541.125"><stop offset="0" stop-color="#ff963b"/><stop offset=".249" stop-color="#fe9336"/><stop offset=".531" stop-color="#fb8a29"/><stop offset=".826" stop-color="#f67c12"/><stop offset=".995" stop-color="#f27202"/></linearGradient><path d="M-283.251 541.084l-.444.005c-1.6 0-3.4-.147-4.525-1.905-.402-.628-3.835-6.963-4.321-9.002-.281-1.179.089-1.97.449-2.426.947-1.198 2.726-1.299 4.468-1.299l43.278-.034c.068-.01.137-.015.206-.015l9.119.008 9.116-.008c.071 0 .141.005.21.015l43.275.034c1.741 0 3.52.101 4.467 1.299.36.456.73 1.247.449 2.426-.486 2.039-3.918 8.374-4.321 9.002-1.125 1.758-2.926 1.905-4.526 1.905l-.476-.005-47.505.041-48.919-.041z" fill="url(#w)"/><path d="M-225.906 527.908v.015l43.484.034c1.968 0 3.875.127 3.458 1.877s-3.732 7.928-4.125 8.541c-.617.963-1.518 1.214-3.263 1.214-.143 0-.291-.002-.445-.005l-47.537.041-48.916-.041c-.154.003-.303.005-.445.005-1.745 0-2.646-.251-3.263-1.214-.393-.613-3.708-6.791-4.125-8.541s1.49-1.877 3.458-1.877l43.484-.034v-.015l9.117.008 9.118-.008m0-3h-.002l-9.117.008-9.112-.008h-.002c-.1 0-.2.005-.298.015l-43.188.034c-1.557 0-4.166 0-5.643 1.87-.799 1.012-1.059 2.326-.731 3.702.563 2.363 4.201 8.97 4.517 9.463 1.662 2.597 4.45 2.597 5.79 2.597.152 0 .31-.002.473-.005l48.886.041 47.512-.041c.164.003.321.005.473.005 1.34 0 4.127 0 5.79-2.597.315-.493 3.953-7.1 4.517-9.463.328-1.376.068-2.69-.731-3.702-1.477-1.87-4.086-1.87-5.645-1.87l-43.189-.034a3.074 3.074 0 00-.3-.015z" fill="#753802"/><g><linearGradient id="x" gradientUnits="userSpaceOnUse" x1="-235" y1="532.104" x2="-235" y2="488.982"><stop offset="0" stop-color="#ff963b"/><stop offset=".249" stop-color="#fe9336"/><stop offset=".531" stop-color="#fb8a29"/><stop offset=".826" stop-color="#f67c12"/><stop offset=".995" stop-color="#f27202"/></linearGradient><path d="M-289.008 532.104c-2.752 0-3.984-2.08-3.984-4.141 0-.101.01-.2.03-.299l7.143-35.132c.473-2.134 2.576-3.55 5.238-3.55h91.102c2.507 0 4.241 1.099 5.154 3.267.039.091.067.186.087.282l7.025 34.39c.382.966.229 2.221-.416 3.271-.744 1.215-1.99 1.911-3.417 1.911h-107.962z" fill="url(#x)"/><path d="M-189.479 490.482c2.097 0 3.167.913 3.771 2.349l7.057 34.546c.497.976-.299 3.227-2.395 3.227h-107.962c-2.096 0-2.484-1.658-2.484-2.641l7.143-35.132c.289-1.303 1.672-2.349 3.769-2.349h91.101m0-3h-91.102c-3.382 0-6.074 1.889-6.697 4.699l-.011.052-7.143 35.132c-.04.196-.06.396-.06.598 0 3.321 2.255 5.641 5.484 5.641h107.962c1.961 0 3.673-.958 4.696-2.627.855-1.396 1.065-3.09.584-4.464l-7.002-34.282a2.986 2.986 0 00-.175-.563c-1.153-2.738-3.413-4.186-6.536-4.186z" fill="#753802"/></g></g><g><linearGradient id="y" gradientUnits="userSpaceOnUse" x1="-234.972" y1="392.58" x2="-234.972" y2="337.438"><stop offset="0" stop-color="#fcee21"/><stop offset=".148" stop-color="#fce921"/><stop offset=".315" stop-color="#fbdc21"/><stop offset=".491" stop-color="#f9c522"/><stop offset=".674" stop-color="#f7a622"/><stop offset=".86" stop-color="#f47d23"/><stop offset="1" stop-color="#f15a24"/></linearGradient><path d="M-280.875 337.5c-5.438.25-6.375 4.625-6.375 4.625l-7.25 35.188c-.125 2.063 1.063 4.875 1.063 4.875s1.938 3.938 3.813 7.375 5.5 3 5.5 3 96.188 0 99.063-.063 4.375-2.313 4.375-2.313 2.938-5.813 3.75-7.438 1.313-3.25 1.5-4.125-7.375-36.563-7.375-36.563-1.344-4.5-6.438-4.625l-91.626.064z" fill="url(#y)" stroke="#000" stroke-width="5" stroke-linejoin="round" stroke-miterlimit="10"/><linearGradient id="z" gradientUnits="userSpaceOnUse" x1="-235.023" y1="376.408" x2="-235.023" y2="391.125"><stop offset="0" stop-color="#0af"/><stop offset=".167" stop-color="#02a5ff"/><stop offset=".355" stop-color="#0898ff"/><stop offset=".554" stop-color="#1181ff"/><stop offset=".76" stop-color="#1f62ff"/><stop offset=".97" stop-color="#3039ff"/><stop offset="1" stop-color="#33f"/></linearGradient><path d="M-283.251 391.084l-.444.005c-1.6 0-3.4-.147-4.525-1.905-.402-.628-3.835-6.963-4.321-9.002-.281-1.179.089-1.97.449-2.426.947-1.198 2.726-1.299 4.468-1.299l43.278-.034c.068-.01.137-.015.206-.015l9.119.008 9.116-.008c.071 0 .141.005.21.015l43.275.034c1.741 0 3.52.101 4.467 1.299.36.456.73 1.247.449 2.426-.486 2.039-3.918 8.374-4.321 9.002-1.125 1.758-2.926 1.905-4.526 1.905l-.476-.005-47.505.041-48.919-.041z" fill="url(#z)"/><path d="M-225.906 377.908v.015l43.484.034c1.968 0 3.875.127 3.458 1.877s-3.732 7.928-4.125 8.541c-.617.963-1.518 1.214-3.263 1.214-.143 0-.291-.002-.445-.005l-47.537.041-48.916-.041c-.154.003-.303.005-.445.005-1.745 0-2.646-.251-3.263-1.214-.393-.613-3.708-6.791-4.125-8.541s1.49-1.877 3.458-1.877l43.484-.034v-.015l9.117.008 9.118-.008m0-3h-.002l-9.117.008-9.112-.008h-.002c-.1 0-.2.005-.298.015l-43.188.034c-1.557 0-4.166 0-5.643 1.87-.799 1.012-1.059 2.326-.731 3.702.563 2.363 4.201 8.97 4.517 9.463 1.662 2.597 4.45 2.597 5.79 2.597.152 0 .31-.002.473-.005l48.886.041 47.512-.041c.164.003.321.005.473.005 1.34 0 4.127 0 5.79-2.597.315-.493 3.953-7.1 4.517-9.463.328-1.376.068-2.69-.731-3.702-1.477-1.87-4.086-1.87-5.645-1.87l-43.189-.034a3.074 3.074 0 00-.3-.015z" fill="#0000b2"/><g><linearGradient id="A" gradientUnits="userSpaceOnUse" x1="-235" y1="382.103" x2="-235" y2="338.982"><stop offset="0" stop-color="#0af"/><stop offset=".167" stop-color="#02a5ff"/><stop offset=".355" stop-color="#0898ff"/><stop offset=".554" stop-color="#1181ff"/><stop offset=".76" stop-color="#1f62ff"/><stop offset=".97" stop-color="#3039ff"/><stop offset="1" stop-color="#33f"/></linearGradient><path d="M-289.008 382.104c-2.752 0-3.984-2.08-3.984-4.141 0-.101.01-.2.03-.299l7.143-35.132c.473-2.134 2.576-3.55 5.238-3.55h91.102c2.507 0 4.241 1.099 5.154 3.267.039.091.067.186.087.282l7.025 34.39c.382.966.229 2.221-.416 3.271-.744 1.215-1.99 1.911-3.417 1.911h-107.962z" fill="url(#A)"/><path d="M-189.479 340.482c2.097 0 3.167.913 3.771 2.349l7.057 34.546c.497.976-.299 3.227-2.395 3.227h-107.962c-2.096 0-2.484-1.658-2.484-2.641l7.143-35.132c.289-1.303 1.672-2.349 3.769-2.349h91.101m0-3h-91.102c-3.382 0-6.074 1.889-6.697 4.699l-.011.052-7.143 35.132c-.04.196-.06.396-.06.598 0 3.321 2.255 5.641 5.484 5.641h107.962c1.961 0 3.673-.958 4.696-2.627.855-1.396 1.065-3.09.584-4.464l-7.002-34.282a2.986 2.986 0 00-.175-.563c-1.153-2.738-3.413-4.186-6.536-4.186z" fill="#0000b2"/></g></g><g><linearGradient id="B" gradientUnits="userSpaceOnUse" x1="-234.972" y1="242.581" x2="-234.972" y2="187.438"><stop offset="0" stop-color="#fcee21"/><stop offset=".148" stop-color="#fce921"/><stop offset=".315" stop-color="#fbdc21"/><stop offset=".491" stop-color="#f9c522"/><stop offset=".674" stop-color="#f7a622"/><stop offset=".86" stop-color="#f47d23"/><stop offset="1" stop-color="#f15a24"/></linearGradient><path d="M-280.875 187.5c-5.438.25-6.375 4.625-6.375 4.625l-7.25 35.188c-.125 2.063 1.063 4.875 1.063 4.875s1.938 3.938 3.813 7.375 5.5 3 5.5 3 96.188 0 99.063-.063 4.375-2.313 4.375-2.313 2.938-5.813 3.75-7.438 1.313-3.25 1.5-4.125-7.375-36.563-7.375-36.563-1.344-4.5-6.438-4.625l-91.626.064z" fill="url(#B)" stroke="#000" stroke-width="5" stroke-linejoin="round" stroke-miterlimit="10"/><linearGradient id="C" gradientUnits="userSpaceOnUse" x1="-235.023" y1="226.409" x2="-235.023" y2="241.125"><stop offset="0" stop-color="red"/><stop offset=".214" stop-color="#fa0000"/><stop offset=".455" stop-color="#ed0000"/><stop offset=".709" stop-color="#d60000"/><stop offset=".971" stop-color="#b70000"/><stop offset="1" stop-color="#b30000"/></linearGradient><path d="M-283.251 241.083l-.448.005c-1.598 0-3.397-.147-4.522-1.905-.402-.629-3.836-6.968-4.321-9.002-.28-1.179.09-1.969.45-2.425.947-1.199 2.727-1.299 4.468-1.299l43.281-.034c.067-.009.134-.014.203-.014l9.119.007 9.117-.007c.07 0 .139.005.207.014l43.278.034c1.74 0 3.52.1 4.467 1.299.36.456.73 1.247.45 2.425-.484 2.034-3.918 8.374-4.321 9.002-1.125 1.758-2.924 1.905-4.521 1.905l-.48-.005-47.505.042-48.922-.042z" fill="url(#C)"/><path d="M-225.906 227.909v.014l43.484.034c1.968 0 3.875.127 3.458 1.877s-3.732 7.928-4.125 8.542c-.616.962-1.516 1.213-3.258 1.213-.144 0-.294-.001-.45-.005l-47.537.042-48.917-.042c-.156.003-.306.005-.45.005-1.743 0-2.643-.251-3.258-1.213-.393-.614-3.708-6.792-4.125-8.542s1.49-1.877 3.458-1.877l43.484-.034v-.014l9.118.007 9.118-.007m-18.235-3c-.099 0-.196.005-.293.014l-43.193.034c-1.557 0-4.166 0-5.642 1.869-.799 1.012-1.06 2.327-.732 3.703.561 2.358 4.201 8.97 4.516 9.463 1.661 2.597 4.447 2.597 5.786 2.597.153 0 .313-.001.478-.005l48.886.042 47.511-.042c.165.003.324.005.478.005 1.339 0 4.125 0 5.786-2.597.315-.494 3.955-7.105 4.516-9.463.328-1.376.067-2.69-.732-3.703-1.477-1.869-4.085-1.869-5.645-1.869l-43.193-.034a3.116 3.116 0 00-.291-.014h-.002l-9.118.007-9.113-.007h-.003z" fill="#8c0039"/><g><linearGradient id="D" gradientUnits="userSpaceOnUse" x1="-235" y1="232.103" x2="-235" y2="188.982"><stop offset="0" stop-color="red"/><stop offset=".214" stop-color="#fa0000"/><stop offset=".455" stop-color="#ed0000"/><stop offset=".709" stop-color="#d60000"/><stop offset=".971" stop-color="#b70000"/><stop offset="1" stop-color="#b30000"/></linearGradient><path d="M-289.008 232.104c-2.752 0-3.984-2.08-3.984-4.141 0-.101.01-.201.03-.299l7.143-35.132c.471-2.133 2.574-3.55 5.238-3.55h91.102c2.507 0 4.241 1.099 5.154 3.267.039.091.067.185.087.282l7.025 34.39c.382.966.229 2.221-.416 3.271-.744 1.215-1.99 1.911-3.417 1.911h-107.962z" fill="url(#D)"/><path d="M-189.479 190.482c2.097 0 3.167.913 3.771 2.349l7.057 34.546c.497.976-.299 3.227-2.395 3.227h-107.962c-2.095 0-2.484-1.658-2.484-2.641l7.143-35.132c.288-1.303 1.672-2.349 3.768-2.349h91.102m0-3h-91.102c-3.384 0-6.076 1.889-6.697 4.701l-.011.05-7.143 35.132c-.04.197-.06.397-.06.598 0 3.321 2.255 5.641 5.484 5.641h107.962c1.961 0 3.673-.958 4.696-2.627.855-1.396 1.065-3.09.584-4.463l-7.002-34.283a2.986 2.986 0 00-.175-.563c-1.153-2.739-3.413-4.186-6.536-4.186z" fill="#8c0039"/></g></g><g><linearGradient id="E" gradientUnits="userSpaceOnUse" x1="-234.972" y1="92.581" x2="-234.972" y2="37.438"><stop offset="0" stop-color="#fcee21"/><stop offset=".148" stop-color="#fce921"/><stop offset=".315" stop-color="#fbdc21"/><stop offset=".491" stop-color="#f9c522"/><stop offset=".674" stop-color="#f7a622"/><stop offset=".86" stop-color="#f47d23"/><stop offset="1" stop-color="#f15a24"/></linearGradient><path d="M-280.875 37.5c-5.438.25-6.375 4.625-6.375 4.625l-7.25 35.188c-.125 2.063 1.063 4.875 1.063 4.875s1.938 3.938 3.813 7.375 5.5 3 5.5 3 96.188 0 99.063-.063 4.375-2.313 4.375-2.313 2.938-5.813 3.75-7.438 1.313-3.25 1.5-4.125-7.375-36.563-7.375-36.563-1.344-4.5-6.438-4.625l-91.626.064z" fill="url(#E)" stroke="#000" stroke-width="5" stroke-linejoin="round" stroke-miterlimit="10"/><linearGradient id="F" gradientUnits="userSpaceOnUse" x1="-235.023" y1="76.409" x2="-235.023" y2="91.125"><stop offset="0" stop-color="#fcee21"/><stop offset=".148" stop-color="#fce921"/><stop offset=".315" stop-color="#fbdc21"/><stop offset=".491" stop-color="#f9c522"/><stop offset=".674" stop-color="#f7a622"/><stop offset=".86" stop-color="#f47d23"/><stop offset="1" stop-color="#f15a24"/></linearGradient><path d="M-283.251 91.083l-.448.005c-1.598 0-3.397-.147-4.522-1.905-.402-.629-3.836-6.968-4.321-9.002-.28-1.179.09-1.969.45-2.425.947-1.199 2.727-1.299 4.468-1.299l43.281-.034c.067-.009.134-.014.203-.014l9.119.007 9.117-.007c.07 0 .139.005.207.014l43.278.034c1.74 0 3.52.1 4.467 1.299.36.456.73 1.247.45 2.425-.484 2.034-3.918 8.374-4.321 9.002-1.125 1.758-2.924 1.905-4.521 1.905l-.48-.005-47.505.042-48.922-.042z" fill="url(#F)"/><path d="M-225.906 77.909v.014l43.484.034c1.968 0 3.875.127 3.458 1.877s-3.732 7.928-4.125 8.542c-.616.962-1.516 1.213-3.258 1.213-.144 0-.294-.001-.45-.005l-47.537.042-48.917-.042c-.156.003-.306.005-.45.005-1.743 0-2.643-.251-3.258-1.213-.393-.614-3.708-6.792-4.125-8.542s1.49-1.877 3.458-1.877l43.484-.034v-.014l9.118.007 9.118-.007m-18.235-3c-.099 0-.196.005-.293.014l-43.193.034c-1.557 0-4.166 0-5.642 1.869-.799 1.012-1.06 2.327-.732 3.703.561 2.358 4.201 8.97 4.516 9.463 1.661 2.597 4.447 2.597 5.786 2.597.153 0 .313-.001.478-.005l48.886.042 47.511-.042c.165.003.324.005.478.005 1.339 0 4.125 0 5.786-2.597.315-.494 3.955-7.105 4.516-9.463.328-1.376.067-2.69-.732-3.703-1.477-1.869-4.085-1.869-5.645-1.869l-43.193-.034a3.116 3.116 0 00-.291-.014h-.002l-9.118.007-9.113-.007h-.003z" fill="#b35800"/><g><linearGradient id="G" gradientUnits="userSpaceOnUse" x1="-235" y1="82.103" x2="-235" y2="38.982"><stop offset="0" stop-color="#fcee21"/><stop offset=".148" stop-color="#fce921"/><stop offset=".315" stop-color="#fbdc21"/><stop offset=".491" stop-color="#f9c522"/><stop offset=".674" stop-color="#f7a622"/><stop offset=".86" stop-color="#f47d23"/><stop offset="1" stop-color="#f15a24"/></linearGradient><path d="M-289.008 82.104c-2.752 0-3.984-2.08-3.984-4.141 0-.101.01-.201.03-.299l7.143-35.132c.471-2.133 2.574-3.55 5.238-3.55h91.102c2.507 0 4.241 1.099 5.154 3.267.039.091.067.185.087.282l7.025 34.39c.382.966.229 2.221-.416 3.271-.744 1.215-1.99 1.911-3.417 1.911h-107.962z" fill="url(#G)"/><path d="M-189.479 40.482c2.097 0 3.167.913 3.771 2.349l7.057 34.546c.497.976-.299 3.227-2.395 3.227h-107.962c-2.095 0-2.484-1.658-2.484-2.641l7.143-35.132c.288-1.303 1.672-2.349 3.768-2.349h91.102m0-3h-91.102c-3.384 0-6.076 1.889-6.697 4.701l-.011.05-7.143 35.132c-.04.197-.06.397-.06.598 0 3.321 2.255 5.641 5.484 5.641h107.962c1.961 0 3.673-.958 4.696-2.627.855-1.396 1.065-3.09.584-4.463l-7.002-34.283a2.986 2.986 0 00-.175-.563c-1.153-2.739-3.413-4.186-6.536-4.186z" fill="#b35800"/></g></g></svg>