<svg xmlns="http://www.w3.org/2000/svg" xmlns:xlink="http://www.w3.org/1999/xlink" width="132" height="132" fill="none" xmlns:v="https://vecta.io/nano"><path d="M65.128 20.066s4.25 4.313 15 18.564c7.815 10.359 8.605 11.194 9.563 14.064 1.125 3.375.25 5.875.25 5.875l20.468 5.344s2.344.531 2.219 2.906-2 2.844-2 2.844.188.094.438.406.281.5.281.5l2.188-1.844s1.018-.9 2.469-.563c1.344.313 1.75 1.188 1.75 1.188s.52-.336 1.094-1.031c.594-.719 1.701-1.362 2.813-1.156 0 0 1.594.156 2.313 1.875l1.875 5s2.031 4.594 2.031 5.844l-6.959 24.252s-.249 1.749-1.541 2.333-1.584.458-2.084.375-4.75-1.166-4.75-1.166l-7.999 9.291-82.332.208-5.368-15.7 2.469-4-4.375-1.875-6.594-19.439 2.111-1.249.107-.063s-1.271.323-1.896.198-2.458-1.167-3-1.875-1.583-1.875-1.25-4.125c.114-.772.495-1.429.75-2 .489-1.095.916-1.792.917-1.792s.833-1.291 1.958-1.333 1.749.208 1.749.208-.582-3.084-.082-4 .5-.916.916-1.166 1.166-.543 1.166-.543-1.5-1.041-1.041-3.125 2.25-2.207 2.25-2.207l5.041-1.043s-.709-2.49.334-4c.912-1.318 2.348-1.291 3.625-1.082.941.152 1.917.375 1.917.375s-.167-1.521 1.354-2.604c.593-.422 1.295-.455 1.875-.563.907-.167 1.583-.25 1.583-.25l-2.958-3.583s-1.167-1.542-.125-3.167 2.416-1.667 3.291-1.417 2.229.938 2.229.938-.666-3.104-.707-4.104.229-2.313 1.563-3.084l14.854-4.833c6-1.917 12.791-3.625 12.791-3.625s2.293-.583 3.209-.333 1.333.541 2.25 1.354z" stroke="#000" stroke-width="5" stroke-miterlimit="10"/><path d="M10.032 75.097l4.572-10.376 14.157-7.352 14.633-.799-33.362 18.528zm59.82 21.112l46.341.427-14.529-13.214-28.947 4.902-2.865 7.885z" fill="#b25900"/><path d="M24.308 113.693a1.5 1.5 0 0 1-1.421-1.021l-4.162-12.349c-.071-.21-.094-.433-.069-.652a1.5 1.5 0 0 1 .216-.619l2.649-4.269-4.803-2.009a1.5 1.5 0 0 1-.843-.905l-5.342-15.855a1.5 1.5 0 0 1 .646-1.763l33.826-20.418c.236-.143.506-.218.781-.217a1.5 1.5 0 0 1 .78.223l32.528 19.995c.605.373.867 1.347.626 2.015l-6.83 19.158h43.992c.585 0 1.116.113 1.361.645s.16 1.042-.22 1.487l-13.681 16.005c-.284.334-.701.499-1.14.499l-78.894.051z" fill="url(#A)"/><path d="M45.78 55.118l32.528 19.972-7.554 20.917h46.128l-13.681 16.085-78.894.09-4.162-12.343 3.578-5.762-6.428-2.686-5.342-15.855L45.78 55.118zm0-3c-.537 0-1.073.144-1.55.432L10.404 72.967a3 3 0 0 0-1.292 3.526l5.342 15.855a3 3 0 0 0 1.686 1.81l3.179 1.329-1.722 2.774a3 3 0 0 0-.294 2.541l4.162 12.256c.411 1.221 1.555 1.949 2.843 1.949h.003l78.894.014c.878-.001 1.712-.34 2.281-1.008l13.681-16.039a3.02 3.02 0 0 0 .687-1.542c.078-.569-.008-1.148-.248-1.669a3.02 3.02 0 0 0-2.724-1.757H75.025L81.13 76.11c.234-.647.237-1.355.009-2.004s-.673-1.2-1.26-1.559l-32.528-19.99a2.99 2.99 0 0 0-1.571-.439z" fill="#ec537a"/><path d="M88.132 103.007h-6.68l4.371-10.001h6.683l-4.374 10.001zm9.226 0h-6.68l4.373-10.001h6.679l-4.373 10.001z" fill="#000"/><path d="M117.85 105.918c-.123 0-.247-.015-.372-.047l-49.784-13.39c-1.258-1.067-1.419-1.204 12.595-24.284l1.052-1.514 2.285-6.317a1.5 1.5 0 0 1 1.789-.941l24.641 6.437a1.5 1.5 0 0 1 .803.53c.202.26.313.579.316.909a1.5 1.5 0 0 1-1.095 1.457c-1.488.627-2.967 1.478-4.377 2.335.022-.003.157-.017.202-.018a1.2 1.2 0 0 1 .143-.027l.479-.07.586-.084c.287-.034.562-.074.836-.118a1.44 1.44 0 0 1 .473 0l.42.067a1.5 1.5 0 0 1 .616.247c.184.127.337.294.448.489s.178.411.195.634a1.5 1.5 0 0 1-.099.656l-.157.402-.661 1.736c.409-.322.824-.704 1.267-1.164l.104-.101c1.266-1.122 2.552-2.221 3.858-3.296.209-.172.46-.285.727-.325a1.49 1.49 0 0 1 .791.095 1.5 1.5 0 0 1 .924 1.228l.146 1.35.234-.262 2.444-2.477.459-.467a1.5 1.5 0 0 1 .639-.386c.242-.073.498-.083.745-.029a1.5 1.5 0 0 1 1.092.948l3.531 9.591a1.5 1.5 0 0 1 .035.93l-6.891 24.186a1.49 1.49 0 0 1-.536.787 1.5 1.5 0 0 1-.903.303z" fill="#ffccd9"/><path d="M85.036 60.876l24.641 6.437-.081.021c-1.847.766-3.627 1.83-5.331 2.88-.706.436-1.644 1.574-.535 2.158.373.196.831.263 1.313.263a7.51 7.51 0 0 0 .907-.062.67.67 0 0 0 .295-.038l.007-.002 1.05-.152.885-.125.42.067-.919 2.421c-.143.316-1.462 4.7-1.462 4.7l1.674-1.473c.07-.024 2.04-1.654 2.062-1.668a13.62 13.62 0 0 0 1.572-1.421l.032-.03 3.801-3.247.122 1.131.021.189c-.007.018.366 3.377.366 3.377l2.479-2.77 2.855-2.893 3.531 9.591-6.891 24.186-49.187-13.082c-.44-.374 12.909-22.36 12.909-22.36l1.113-1.598 2.351-6.501zm-.001-3.001c-.617.001-1.218.191-1.722.545s-.888.855-1.098 1.435l-2.217 6.131-.888 1.274c-.036.052-.07.104-.104.158l-6.637 11.067-4.491 7.726a74.84 74.84 0 0 0-1.464 2.698c-.472.932-1.578 3.112.306 4.712.729.616 1.092.923 26.12 7.444l24.269 6.258a3 3 0 0 0 2.237-.307c.677-.389 1.175-1.027 1.389-1.778l6.891-24.186a2.99 2.99 0 0 0-.069-1.858l-3.531-9.591c-.212-.576-.595-1.074-1.099-1.425s-1.103-.539-1.717-.538a3 3 0 0 0-2.14.897l-.46.468-.82.834a3.01 3.01 0 0 0-1.289-1.011c-.5-.205-1.047-.271-1.582-.19a3 3 0 0 0-1.457.648l-2.128 1.789a2.94 2.94 0 0 0-.666-.93c.606-.213 1.128-.615 1.489-1.147s.541-1.165.515-1.807a3 3 0 0 0-2.237-2.781l-24.641-6.437c-.248-.066-.503-.099-.759-.099z" fill="#ec537a"/><path d="M121.209 70.641c-.232.202-1.662 1.441-2.855 2.893l-2.479 2.77-.509-4.697-4.791 4.203 14.114 4.407-3.48-9.576z" fill="url(#B)"/><path d="M108.605 72.323c-.447-.22-4.432.886-5.15-.22-.576-.884 0-1.662 6.222-4.791L86.965 61.37l-1.79 7.869 22.518 5.675a57.71 57.71 0 0 1 .912-2.591z" fill="url(#C)"/><path d="M9.354 71.566c-.153 0-.307-.023-.454-.07-1.94-.616-3.561-2.391-2.905-4.591a1.51 1.51 0 0 1 .077-.203l1.146-2.47a1.5 1.5 0 0 1 1.736-.82l2.65.686-.607-4.56a1.5 1.5 0 0 1 .494-1.322 1.5 1.5 0 0 1 1.373-.327l4.004 1.049-4.247-3.827a1.5 1.5 0 0 1-.443-1.511 1.5 1.5 0 0 1 1.151-1.074l6.447-1.296-.526-3.12a1.5 1.5 0 0 1 .412-1.305 1.5 1.5 0 0 1 1.3-.426l6.597 1.036-1.423-.852a1.5 1.5 0 0 1-.705-1.562 1.5 1.5 0 0 1 1.22-1.204l4.868-.839-4.442-5.355a1.5 1.5 0 0 1-.035-1.861 1.5 1.5 0 0 1 1.802-.466l4.506 1.936-.415-1.757c-1.156-4.816-1.467-6.111.028-6.725 1.249-.514 26.059-8.563 29.238-8.563 1.129 0 1.731.785 1.744 1.56.002.174-.025.347-.082.511L50.159 61.187c-.1.183-.238.343-.403.47s-.356.218-.558.267l-39.488 9.6a1.59 1.59 0 0 1-.356.041z" fill="url(#D)"/><path d="M62.201 21.664c.159 0 .243.026.244.083L48.843 60.465l-39.488 9.6c-1.012-.321-2.36-1.261-1.922-2.732l1.146-2.47 4.807 1.243-.902-6.767 9.969 2.611-8.828-7.955 7.873-1.582-.769-4.555 14.236 2.236-8.06-4.82 7.423-1.279-6.097-7.352s6.205 2.776 6.899 2.776c.02 0 .035-.002.046-.007.477-.213-2.228-9.058-1.645-9.297 1.919-.787 25.981-8.45 28.67-8.45zm0-3c-3.588 0-28.634 8.193-29.809 8.677-2.479 1.017-1.954 3.707-1.701 5 .134.689.319 1.5.517 2.334l-1.75-.771a3 3 0 0 0-3.614.923 3 3 0 0 0 .079 3.73l2.787 3.36-2.313.399a3 3 0 0 0-2.49 3.002l-2.711-.426a3 3 0 0 0-2.599.854 3 3 0 0 0-.824 2.609l.285 1.688-5.022 1.009a3 3 0 0 0-2.3 2.148 3 3 0 0 0 .883 3.021l.209.188a3 3 0 0 0-2.315 3.324l.313 2.35-.493-.127a3 3 0 0 0-3.472 1.641l-1.146 2.47c-.061.132-.112.267-.154.406-.822 2.76.813 5.472 3.889 6.448.523.166 1.082.186 1.616.056l39.488-9.6c.406-.098.786-.28 1.117-.534s.606-.574.806-.941c.787-1.438 8.989-25.167 13.807-39.184a3.01 3.01 0 0 0 .163-1.021c-.026-1.47-1.17-3.035-3.246-3.035z" fill="#ec537a"/><path d="M79.036 93.737c-.786 0-1.471-.257-1.98-.743-.033-.031-.064-.064-.094-.098l-26.849-30.64c-.137-.156-.24-.339-.303-.537s-.083-.407-.06-.613c.181-1.669 9.514-33.272 11.383-39.592a1.5 1.5 0 0 1 .222-.452c.282-.391.772-.64 1.253-.64.925 0 1.536 0 13.038 14.849 4.231 5.462 11.191 14.634 11.852 15.993 1.073 2.212 1.424 3.779 1.251 5.592a1.29 1.29 0 0 1-.017.119l-6.03 34.068c-.218 1.589-2.074 2.694-3.666 2.694z" fill="url(#E)"/><path d="M62.608 21.921c1.168 0 22.592 28.044 23.541 29.997.961 1.981 1.251 3.274 1.106 4.793l-6.03 34.068c-.109.792-1.242 1.456-2.189 1.456-.367 0-.705-.1-.946-.329L51.241 61.266c.176-1.619 11.33-39.328 11.33-39.328.004-.006.01-.01.016-.013s.014-.004.021-.004zm0-3c-.963 0-1.904.479-2.468 1.26-.199.275-.35.582-.446.907L48.259 60.943c-.091.835.173 1.67.726 2.302l26.849 30.641c.059.067.121.133.187.194.783.746 1.854 1.157 3.016 1.157 2.191 0 4.764-1.516 5.15-3.971l6.023-34.031c.014-.079.024-.158.032-.238.198-2.086-.205-3.936-1.394-6.386-.965-1.986-11.906-16.117-12.017-16.26-11.952-15.43-12.478-15.43-14.223-15.43z" fill="#ec537a"/><path d="M46.83 67.675c-1.925-.251-4.296.482-4.49 3.569l-.515 8.196 7.051.876 1.485-8.03c.594-3.037-1.279-4.32-3.531-4.611z" fill="#000"/><path d="M24.089 112.703l-1.347-1.975 4.423-6.894 2.833 3.495 2.931-4.194 2.287 3.447-2.11-1.792-2.74 4.455-2.957-1.986-3.32 5.444zm33.615-43.252l9.293.801v-3.517l5.871-3.73.127-7.458-3.017-6.074-.759-10.336 1.897 9.804 3.596 5.22L78 51.391l2.543.852.529-3.09 3.392-.212-2.331 1.278-.426 2.77-3.394.321-3.605 3.09.107 8.523-6.468 3.091-.336 4.368-10.307-2.931zm-40.242 2.391l-1.736 1.054 3.087 5.424-5.067 3.064.82 1.909 5.117-3.314 1.639 3.064 7.48-.102 2.172 4.12 6.176-1.457 3.716 2.914-3.04-4.22-5.55.703-1.35-3.365-7.771-.753-5.693-9.041zm61.392 23.904l-10.02 6.234-6.761 1.12-7.873 6.952 5.805-7.672 7.716-1.759 7.633-6.793 3.5 1.918zm8.055-26.214l4.082 12.414c.187.162 6.432 4.475 6.738 4.621s-3.032 3.979-3.032 3.979l10.829 6.604-13.836-5.896 3.707-4.007-5.69-3.825-4.391-12.186 1.594-1.704z" fill="#ec537a"/><path d="M47.958 116.21h-9.551l-1.606-11.258c0-1.061.293-2.101.846-3.005a5.76 5.76 0 0 1 2.29-2.122 6.86 6.86 0 0 1 6.111-.068l.209.1c.975.471 1.797 1.207 2.372 2.125a5.76 5.76 0 0 1 .881 3.061l-1.552 11.167z" fill="#000"/><defs><linearGradient id="A" x1="64.418" y1="53.618" x2="64.418" y2="113.693" xlink:href="#F"><stop offset=".328" stop-color="#ffccd9"/><stop offset="1" stop-color="#ff8fac"/></linearGradient><linearGradient id="B" x1="119.755" y1="69.785" x2="117.522" y2="78.42" xlink:href="#F"><stop stop-color="#ff8fac"/><stop offset="1" stop-color="#ffccd9"/></linearGradient><linearGradient id="C" x1="98.434" y1="64.34" x2="96.411" y2="72.148" xlink:href="#F"><stop stop-color="#ff8fac"/><stop offset="1" stop-color="#ffccd9"/></linearGradient><linearGradient id="D" x1="50.575" y1="60.855" x2="25.593" y2="35.873" xlink:href="#F"><stop offset=".307" stop-color="#ffccd9"/><stop offset="1" stop-color="#ff8fac"/></linearGradient><linearGradient id="E" x1="53.107" y1="67.498" x2="85.936" y2="48.546" xlink:href="#F"><stop offset=".292" stop-color="#ffccd9"/><stop offset="1" stop-color="#ff8fac"/></linearGradient><linearGradient id="F" gradientUnits="userSpaceOnUse"/></defs></svg>