<svg xmlns="http://www.w3.org/2000/svg" width="130" height="130"><linearGradient id="a" gradientUnits="userSpaceOnUse" x1="65.028" y1="92.581" x2="65.028" y2="37.438"><stop offset="0" stop-color="#fcee21"/><stop offset=".148" stop-color="#fce921"/><stop offset=".315" stop-color="#fbdc21"/><stop offset=".491" stop-color="#f9c522"/><stop offset=".674" stop-color="#f7a622"/><stop offset=".86" stop-color="#f47d23"/><stop offset="1" stop-color="#f15a24"/></linearGradient><path d="M19.125 37.5c-5.438.25-6.375 4.625-6.375 4.625L5.5 77.313c-.125 2.063 1.063 4.875 1.063 4.875s1.938 3.938 3.813 7.375 5.5 3 5.5 3 96.188 0 99.063-.063 4.375-2.313 4.375-2.313 2.938-5.813 3.75-7.438 1.313-3.25 1.5-4.125-7.375-36.563-7.375-36.563-1.344-4.5-6.438-4.625l-91.626.064z" fill="url(#a)" stroke="#000" stroke-width="5" stroke-linejoin="round" stroke-miterlimit="10"/><linearGradient id="b" gradientUnits="userSpaceOnUse" x1="64.977" y1="76.409" x2="64.977" y2="91.125"><stop offset="0" stop-color="#fcee21"/><stop offset=".148" stop-color="#fce921"/><stop offset=".315" stop-color="#fbdc21"/><stop offset=".491" stop-color="#f9c522"/><stop offset=".674" stop-color="#f7a622"/><stop offset=".86" stop-color="#f47d23"/><stop offset="1" stop-color="#f15a24"/></linearGradient><path d="M16.749 91.083l-.449.005c-1.598 0-3.397-.147-4.522-1.905-.402-.629-3.836-6.968-4.321-9.002-.28-1.179.09-1.969.45-2.425.947-1.199 2.727-1.299 4.468-1.299l43.281-.034c.067-.009.134-.014.203-.014l9.119.007 9.117-.007c.07 0 .139.005.207.014l43.278.034c1.74 0 3.52.1 4.467 1.299.36.456.73 1.247.45 2.425-.484 2.034-3.918 8.374-4.321 9.002-1.125 1.758-2.924 1.905-4.521 1.905l-.48-.005-47.505.042-48.921-.042z" fill="url(#b)"/><path d="M74.094 77.909v.014l43.484.034c1.968 0 3.875.127 3.458 1.877s-3.732 7.928-4.125 8.542c-.616.962-1.516 1.213-3.258 1.213-.144 0-.294-.001-.45-.005l-47.537.042-48.916-.043c-.156.003-.306.005-.45.005-1.743 0-2.643-.251-3.258-1.213-.393-.614-3.708-6.792-4.125-8.542s1.49-1.877 3.458-1.877l43.484-.034v-.014l9.118.007 9.117-.006m-18.235-3c-.099 0-.196.005-.293.014l-43.193.034c-1.557 0-4.166 0-5.642 1.869-.799 1.012-1.06 2.327-.732 3.703.561 2.358 4.201 8.97 4.516 9.463 1.661 2.597 4.447 2.597 5.786 2.597.153 0 .313-.001.478-.005l48.886.042 47.511-.042c.165.003.324.005.478.005 1.339 0 4.125 0 5.786-2.597.315-.494 3.955-7.105 4.516-9.463.328-1.376.067-2.69-.732-3.703-1.477-1.869-4.085-1.869-5.645-1.869l-43.193-.034a3.116 3.116 0 00-.291-.014h-.002l-9.118.007-9.113-.007h-.003z" fill="#b35800"/><g><linearGradient id="c" gradientUnits="userSpaceOnUse" x1="65.001" y1="82.103" x2="65.001" y2="38.982"><stop offset="0" stop-color="#fcee21"/><stop offset=".148" stop-color="#fce921"/><stop offset=".315" stop-color="#fbdc21"/><stop offset=".491" stop-color="#f9c522"/><stop offset=".674" stop-color="#f7a622"/><stop offset=".86" stop-color="#f47d23"/><stop offset="1" stop-color="#f15a24"/></linearGradient><path d="M10.992 82.104c-2.752 0-3.984-2.08-3.984-4.141 0-.101.01-.201.03-.299l7.143-35.132c.471-2.133 2.574-3.55 5.238-3.55h91.102c2.507 0 4.241 1.099 5.154 3.267.039.091.067.185.087.282l7.025 34.39c.382.966.229 2.221-.416 3.271-.744 1.215-1.99 1.911-3.417 1.911H10.992z" fill="url(#c)"/><path d="M110.521 40.482c2.097 0 3.167.913 3.771 2.349l7.057 34.546c.497.976-.299 3.227-2.395 3.227H10.992c-2.095 0-2.484-1.658-2.484-2.641l7.143-35.132c.288-1.303 1.672-2.349 3.768-2.349h91.102m0-3H19.419c-3.384 0-6.076 1.889-6.697 4.701l-.011.05-7.143 35.132c-.04.197-.06.397-.06.598 0 3.321 2.255 5.641 5.484 5.641h107.962c1.961 0 3.673-.958 4.696-2.627.855-1.396 1.065-3.09.584-4.463l-7.002-34.283a2.986 2.986 0 00-.175-.563c-1.153-2.739-3.413-4.186-6.536-4.186z" fill="#b35800"/></g></svg>