<svg xmlns="http://www.w3.org/2000/svg" width="132" height="132"><path d="M65.131 20.063s4.25 4.313 15 18.563c7.815 10.359 8.605 11.193 9.563 14.063 1.125 3.375.25 5.875.25 5.875l20.469 5.344s2.344.531 2.219 2.906-2 2.844-2 2.844.188.094.438.406.281.5.281.5l2.188-1.844s1.018-.9 2.469-.563c1.344.313 1.75 1.188 1.75 1.188s.52-.336 1.094-1.031c.594-.719 1.701-1.362 2.813-1.156 0 0 1.594.156 2.313 1.875l1.875 5s2.031 4.594 2.031 5.844l-6.959 24.251s-.249 1.749-1.541 2.333-1.584.458-2.084.375-4.75-1.166-4.75-1.166l-7.999 9.291-82.333.208-5.368-15.7 2.469-4-4.375-1.875L8.35 74.156l2.112-1.249.107-.063s-1.271.323-1.896.198-2.458-1.167-3-1.875-1.583-1.875-1.25-4.125c.114-.772.495-1.429.75-2 .489-1.095.916-1.792.917-1.792 0 0 .833-1.291 1.958-1.333s1.75.208 1.75.208-.583-3.083-.083-4 .5-.917.917-1.167 1.167-.542 1.167-.542-1.5-1.042-1.042-3.125 2.25-2.208 2.25-2.208l5.042-1.042s-.709-2.49.333-4c.912-1.319 2.348-1.291 3.625-1.083.941.153 1.917.375 1.917.375s-.167-1.521 1.354-2.604c.593-.422 1.295-.455 1.875-.563.908-.167 1.583-.25 1.583-.25l-2.958-3.583s-1.167-1.542-.125-3.167 2.417-1.667 3.292-1.417 2.229.938 2.229.938-.667-3.104-.708-4.104.229-2.313 1.563-3.083c0 0 10.797-3.537 14.854-4.833 6-1.917 12.792-3.625 12.792-3.625s2.292-.583 3.208-.333c.914.249 1.331.541 2.248 1.354z" fill="none" stroke="#000" stroke-width="5" stroke-miterlimit="10"/><path fill="#b25900" d="M10.036 75.091l4.571-10.376 14.157-7.352 14.633-.799zM69.855 96.202l46.342.427-14.529-13.214-28.948 4.902z"/><linearGradient id="a" gradientUnits="userSpaceOnUse" x1="65.142" y1="53.357" x2="65.142" y2="113.833"><stop offset="0" stop-color="#ff0"/><stop offset=".236" stop-color="#fffc00"/><stop offset=".41" stop-color="#fff300"/><stop offset=".563" stop-color="#ffe300"/><stop offset=".704" stop-color="#fc0"/><stop offset=".837" stop-color="#ffaf00"/><stop offset=".962" stop-color="#ff8c00"/><stop offset="1" stop-color="#ff8000"/></linearGradient><path fill="url(#a)" d="M18.501 99.646l3.023-4.869-5.429-2.27-5.945-17.639 35.641-21.511 34.346 21.339L72.893 95h47.241l-16.236 18.833-80.665-.033z"/><path d="M45.784 55.113l32.528 19.971L70.757 96h46.129l-13.681 16.083-78.895.09-4.162-12.343 3.579-5.762-6.428-2.686-5.342-15.852 33.827-20.417m.014-3.512l-1.564.944-33.828 20.417-2.062 1.244.769 2.282 5.343 15.854.433 1.286 1.252.523 3.179 1.33-1.72 2.774-.746 1.201.452 1.339 4.162 12.349.689 2.044 2.157-.002 78.895-.079 1.384-.001.897-1.053 13.681-16.083 4.211-4.97H75.028l6.105-16.897.829-2.284-2.08-1.272-32.528-19.992-1.556-.954z" fill="#b25900"/><path d="M88.135 103h-6.68l4.371-10h6.683zM97.361 103h-6.68l4.373-10h6.68z"/><path d="M117.854 105.912c-.123 0-.248-.015-.372-.047-48.615-12.401-49.465-13.119-49.785-13.389-1.257-1.068-1.418-1.205 12.595-24.284l1.052-1.514 2.285-6.318a1.5 1.5 0 011.789-.941l24.642 6.437a1.499 1.499 0 01.024 2.896c-1.488.626-2.967 1.477-4.377 2.334.022-.002.157-.017.202-.018.048-.011.097-.021.143-.027 0 0 .885-.131 1.066-.154.286-.034.562-.074.835-.118a1.564 1.564 0 01.474 0l.42.067a1.5 1.5 0 011.16 2.026l-.157.402c-.226.578-.452 1.155-.661 1.737.409-.322.825-.704 1.266-1.164.023-.024.08-.078.105-.101 1.475-1.3 2.695-2.343 3.858-3.297a1.499 1.499 0 012.443.999l.146 1.35.234-.261c.858-.861 1.651-1.669 2.445-2.477l.458-.466a1.5 1.5 0 012.477.533l3.531 9.591c.11.298.122.624.035.929l-6.891 24.185a1.5 1.5 0 01-1.442 1.09z" fill="#ff0"/><path d="M85.039 60.871l24.642 6.437c-.026.007-.053.011-.081.021-1.847.766-3.627 1.83-5.331 2.88-.706.436-1.644 1.574-.535 2.158.373.196.831.263 1.313.263.298 0 .606-.026.907-.062a.669.669 0 00.295-.038l.007-.002c.378-.052.739-.113 1.05-.152.296-.035.591-.078.885-.125l.42.067c-.314.807-.635 1.607-.919 2.421-.143.316-1.462 4.7-1.462 4.7s1.646-1.417 1.674-1.473c.07-.024 2.04-1.654 2.062-1.668a13.633 13.633 0 001.572-1.421l.032-.03a141.714 141.714 0 013.801-3.247l.122 1.131.021.189c-.007.018.366 3.377.366 3.377l2.479-2.77c.958-.958 1.905-1.926 2.855-2.893l3.531 9.591-6.891 24.185S69.572 92.095 68.666 91.329c-.44-.374 12.909-22.359 12.909-22.359l1.113-1.598 2.351-6.501m-.001-3.001a3 3 0 00-2.82 1.98L80 65.981l-.888 1.274a3.29 3.29 0 00-.103.158c-.033.055-3.383 5.574-6.637 11.068a425.862 425.862 0 00-4.491 7.726 74.828 74.828 0 00-1.464 2.699c-.472.931-1.578 3.112.306 4.711.729.616 1.093.923 26.12 7.444a5341.982 5341.982 0 0024.269 6.257 3.001 3.001 0 003.627-2.084l6.891-24.185a3.007 3.007 0 00-.07-1.859l-3.531-9.591a3.001 3.001 0 00-4.955-1.066l-.46.467c-.273.278-.546.557-.82.834a3.003 3.003 0 00-2.425-1.234c-.683 0-1.357.233-1.903.681-.679.557-1.377 1.144-2.129 1.79a2.984 2.984 0 00-.667-.931 3 3 0 00-.233-5.734l-24.642-6.437a2.937 2.937 0 00-.757-.099z" fill="#b25900"/><linearGradient id="b" gradientUnits="userSpaceOnUse" x1="61.868" y1="123.503" x2="61.87" y2="132.422" gradientTransform="rotate(14.518 301.695 323.874)"><stop offset="0" stop-color="#ff8000"/><stop offset=".859" stop-color="#ff8000" stop-opacity=".141"/><stop offset="1" stop-color="#ff8000" stop-opacity="0"/></linearGradient><path d="M121.213 70.636c-.232.202-1.662 1.441-2.855 2.893-.952 1.158-2.479 2.77-2.479 2.77l-.509-4.697s-4.324 3.606-4.791 4.203l14.114 4.407-3.48-9.576z" fill="url(#b)"/><linearGradient id="c" gradientUnits="userSpaceOnUse" x1="39.861" y1="123.577" x2="39.861" y2="131.644" gradientTransform="rotate(14.518 301.695 323.874)"><stop offset="0" stop-color="#ff8000"/><stop offset=".859" stop-color="#ff8000" stop-opacity=".141"/><stop offset="1" stop-color="#ff8000" stop-opacity="0"/></linearGradient><path d="M108.609 72.318c-.447-.22-4.432.886-5.15-.22-.576-.884 0-1.662 6.222-4.791l-22.712-5.942-1.79 7.869 22.518 5.675c.037-.138.557-1.674.912-2.591z" fill="url(#c)"/><linearGradient id="d" gradientUnits="userSpaceOnUse" x1="50.579" y1="60.85" x2="25.597" y2="35.869"><stop offset="0" stop-color="#ff0"/><stop offset=".163" stop-color="#fffa00"/><stop offset=".344" stop-color="#ffed00"/><stop offset=".534" stop-color="gold"/><stop offset=".73" stop-color="#ffb800"/><stop offset=".928" stop-color="#ff9000"/><stop offset="1" stop-color="#ff8000"/></linearGradient><path d="M9.357 71.56c-.153 0-.307-.023-.454-.07-1.94-.617-3.561-2.391-2.905-4.591a1.51 1.51 0 01.077-.203l1.146-2.47a1.5 1.5 0 011.736-.82l2.649.685L11 59.532a1.497 1.497 0 011.487-1.698c.127 0 .254.016.38.049l4.004 1.049-4.248-3.828a1.5 1.5 0 01.709-2.585l6.447-1.295-.526-3.121a1.5 1.5 0 011.712-1.731l6.598 1.037-1.424-.852a1.5 1.5 0 01.515-2.765l4.868-.838-4.442-5.357a1.502 1.502 0 011.767-2.327c1.513.677 3.215 1.41 4.506 1.936-.137-.599-.289-1.231-.415-1.756-1.156-4.817-1.467-6.111.028-6.726 1.25-.513 26.063-8.563 29.238-8.563 1.128 0 1.731.785 1.743 1.56.002.173-.025.346-.082.511-2.147 6.247-12.901 37.483-13.703 38.949a1.5 1.5 0 01-.961.737l-39.489 9.6a1.58 1.58 0 01-.355.042z" fill="url(#d)"/><path d="M62.204 21.66c.159 0 .242.027.243.083 0 0-12.819 37.289-13.601 38.717l-39.489 9.6c-1.011-.321-2.36-1.261-1.921-2.732l1.146-2.47 4.806 1.243-.902-6.767 9.968 2.611-8.828-7.956 7.873-1.582-.769-4.555 14.236 2.237-8.06-4.821 7.423-1.278-6.097-7.353s6.205 2.777 6.899 2.777c.02 0 .035-.002.046-.007.477-.213-2.228-9.058-1.644-9.297 1.921-.787 25.982-8.45 28.671-8.45m0-3c-3.583 0-28.633 8.193-29.808 8.676-2.479 1.019-1.954 3.708-1.702 5.001.135.689.319 1.5.517 2.334-.591-.256-1.187-.519-1.75-.771a2.998 2.998 0 00-3.615.923 3 3 0 00.079 3.73l2.787 3.361-2.313.398a3 3 0 00-2.491 3.004l-2.711-.426a2.998 2.998 0 00-3.424 3.463l.285 1.687-5.022 1.009a3.001 3.001 0 00-1.417 5.17l.209.189a2.999 2.999 0 00-2.315 3.323l.313 2.35-.492-.127a3.003 3.003 0 00-3.473 1.641l-1.146 2.47a3.055 3.055 0 00-.154.406c-.823 2.759.812 5.472 3.888 6.449a2.994 2.994 0 001.616.056l39.489-9.6a2.996 2.996 0 001.923-1.475c.787-1.438 8.988-25.166 13.806-39.182.113-.329.168-.674.163-1.021-.022-1.473-1.167-3.038-3.242-3.038z" fill="#b25900"/><linearGradient id="e" gradientUnits="userSpaceOnUse" x1="53.111" y1="67.494" x2="85.939" y2="48.541"><stop offset="0" stop-color="#ff0"/><stop offset=".174" stop-color="#fffb00"/><stop offset=".353" stop-color="#ffef00"/><stop offset=".533" stop-color="#ffda00"/><stop offset=".714" stop-color="#ffbd00"/><stop offset=".895" stop-color="#f90"/><stop offset="1" stop-color="#ff8000"/></linearGradient><path d="M79.039 93.73c-.786 0-1.47-.257-1.98-.743a1.434 1.434 0 01-.094-.097L50.117 62.25a1.496 1.496 0 01-.363-1.15c.181-1.669 9.514-33.272 11.383-39.59.048-.162.123-.315.222-.452.282-.391.771-.64 1.253-.64.925 0 1.536 0 13.038 14.847 4.232 5.462 11.191 14.634 11.852 15.993 1.073 2.212 1.423 3.779 1.25 5.591-.004.04-.009.08-.016.119l-6.03 34.067c-.219 1.59-2.076 2.695-3.667 2.695z" fill="url(#e)"/><path d="M62.612 21.918c1.167 0 22.591 28.043 23.541 29.996.961 1.981 1.251 3.274 1.106 4.793l-6.03 34.067c-.109.792-1.242 1.456-2.19 1.456-.366 0-.705-.099-.946-.329l-26.848-30.64c.175-1.619 11.33-39.326 11.33-39.326.008-.012.02-.017.037-.017m0-3c-.964 0-1.906.48-2.47 1.262-.198.274-.348.58-.444.904-4.195 14.179-11.258 38.211-11.436 39.854-.09.834.173 1.668.726 2.3l26.848 30.64c.06.068.122.133.188.195.783.746 1.854 1.156 3.015 1.156 2.191 0 4.764-1.516 5.15-3.97l6.024-34.03c.014-.079.025-.159.032-.239.199-2.085-.205-3.936-1.394-6.386-.965-1.985-11.906-16.116-12.016-16.259-11.952-15.427-12.479-15.427-14.223-15.427z" fill="#b25900"/><path d="M46.833 67.67c-1.925-.251-4.296.482-4.49 3.569-.203 3.201-.515 8.196-.515 8.196l7.051.876s.872-4.882 1.485-8.03c.594-3.037-1.279-4.32-3.531-4.611z"/><path fill="#b25900" d="M24.091 112.696l-1.346-1.975 4.423-6.894 2.833 3.495 2.93-4.194 2.288 3.447-2.11-1.792-2.739 4.455-2.957-1.986zM57.707 69.446l9.293.801V66.73L72.871 63l.127-7.458-3.017-6.074-.759-10.336 1.897 9.803 3.596 5.221 3.288-2.77 2.543.852.529-3.09 3.392-.213-2.331 1.279-.426 2.77-3.394.32-3.605 3.09.107 8.524-6.468 3.091-.336 4.368zM17.465 71.837l-1.737 1.054 3.088 5.424-5.067 3.064.82 1.909 5.116-3.314 1.64 3.064 7.48-.102 2.172 4.12 6.176-1.457 3.716 2.914-3.04-4.22-5.549.703-1.351-3.365-7.77-.753zM78.857 95.74l-10.02 6.233-6.76 1.12-7.874 6.952 5.805-7.672 7.716-1.759 7.633-6.792zM86.912 69.527s3.898 12.25 4.082 12.413c.187.162 6.432 4.475 6.738 4.621.308.147-3.032 3.979-3.032 3.979l10.829 6.604-13.837-5.896 3.707-4.007-5.69-3.825-4.391-12.185 1.594-1.704z"/><path d="M47.961 116.203H38.41l-1.606-11.258a5.758 5.758 0 013.136-5.127 6.86 6.86 0 016.111-.068l.209.1a5.76 5.76 0 013.253 5.186l-1.552 11.167z"/></svg>