<svg xmlns="http://www.w3.org/2000/svg" xmlns:xlink="http://www.w3.org/1999/xlink" width="291.969" height="406.205"><style>.st1{opacity:.5;fill:#bc995b}.st9{fill:#f2de9c}.st20{fill:#9e7b44}</style><g id="card_x5F_cloth"><g id="cloth_2_"><image width="293" height="406" xlink:href="FF0671CD.png" transform="translate(-.938)" overflow="visible" opacity=".3"/><radialGradient id="SVGID_1_" cx="143.063" cy="200" r="163.995" gradientUnits="userSpaceOnUse"><stop offset="0" stop-color="#aedb60"/><stop offset=".24" stop-color="#a5d65a"/><stop offset=".631" stop-color="#8dc948"/><stop offset="1" stop-color="#70b934"/></radialGradient><path d="M276.063 383.83a6.17 6.17 0 01-6.17 6.17H16.232a6.17 6.17 0 01-6.17-6.17V16.17a6.17 6.17 0 016.17-6.17h253.66a6.17 6.17 0 016.17 6.17v367.66z" fill="url(#SVGID_1_)"/><path d="M265.063 20v360h-245V20h245m4.268-20H16.17C7.239 0 .063 7.239.063 16.169V383.83C.063 392.761 7.24 400 16.17 400h253.161c8.93 0 15.731-7.239 15.731-16.17V16.169c0-8.93-7.021-16.169-15.95-16.169h.219z" fill="#a3db6e"/><path d="M268.979 10c3.4 0 6.084 2.768 6.084 6.169V383.83c0 3.402-2.33 6.17-5.731 6.17H16.17c-3.402 0-6.107-2.768-6.107-6.17V16.169c0-3.401 2.705-6.169 6.107-6.169h252.893m.268-10H16.17C7.239 0 .063 7.239.063 16.169V383.83C.063 392.761 7.24 400 16.17 400h253.161c8.93 0 15.731-7.239 15.731-16.17V16.169c0-8.93-7.021-16.169-15.95-16.169h.219z" fill="#414042"/></g><path id="border_6_" fill="none" stroke="#e5e5e5" stroke-width="4" stroke-miterlimit="10" d="M23.063 23h239v354h-239z"/><g><image width="160" height="189" xlink:href="FF0671CF.png" transform="translate(63.063 100)" overflow="visible" opacity=".4"/><path class="st9" d="M127.021 277.878c-12.722 0-24.851-1.001-28.715-1.724-5.975-1.118-17.818-6.487-24.161-16.135-3.908-5.944-5.091-12.486-3.515-19.446.251-1.122.574-2.173.961-3.12l35.703-115.218a2.5 2.5 0 01.778-1.173c.497-.418 12.333-10.266 26.605-12.77 5.214-.915 9.452-1.36 12.956-1.36 5.087 0 8.823.872 12.896 3.011 4.531 2.38 10.237 3.587 16.96 3.587.487 0 .979-.007 1.478-.02.346-.009.71-.014 1.093-.014 7.975 0 26.612 2.142 30.254 4.732 2.621 1.869 1.646 4.9.613 8.109-1.374 4.27-3.674 11.417-2.518 23.042 1.653 16.598-3.172 31.656-5.232 38.087-.287.896-.609 1.903-.696 2.276.017.394.148 1.643.275 2.854.735 6.968 2.265 21.469-.248 30.297-2.898 10.207-3.592 18.874-3.599 18.96a2.5 2.5 0 01-2.741 2.296c-.103-.01-9.871-.99-22.224-2.474-7.359 24.496-9.652 27.657-10.555 28.692a9.06 9.06 0 01-1.611 1.739c-4.655 3.83-16.35 5.772-34.757 5.772z"/><path d="M147.634 109.432c5.312 0 8.585 1.071 11.734 2.724 4.747 2.494 10.854 3.874 18.122 3.874.509 0 1.023-.007 1.543-.021.325-.009.667-.013 1.027-.013 8.452 0 26.043 2.305 28.805 4.269 2.876 2.051-4.933 9.354-2.942 29.361 1.992 20.006-5.852 38.086-5.94 39.925-.093 1.844 3.13 22.087.122 32.658-3.001 10.567-3.687 19.452-3.687 19.452s-10.813-1.081-24.265-2.722c-3.57 11.999-8.431 27.298-10.726 29.873a6.619 6.619 0 01-1.235 1.361c-4.889 4.021-19.363 5.204-33.172 5.204-12.495 0-24.446-.969-28.255-1.681-7.932-1.484-30.258-12.431-25.697-32.571a16.82 16.82 0 01.877-2.824l35.736-115.327s11.654-9.804 25.428-12.22c5.239-.919 9.265-1.322 12.525-1.322m0-5v5-5c-3.65 0-8.029.457-13.389 1.397-14.927 2.618-27.265 12.883-27.782 13.319a5.014 5.014 0 00-1.558 2.346L69.233 236.613a22.414 22.414 0 00-1.045 3.421c-1.704 7.526-.368 14.917 3.866 21.358 6.769 10.295 19.412 16.025 25.791 17.219 4.543.85 16.988 1.767 29.175 1.767 28.637 0 34.44-4.773 36.348-6.342a11.426 11.426 0 001.979-2.109c1.145-1.329 3.475-4.763 10.384-27.521a1237.214 1237.214 0 0020.189 2.23 4.997 4.997 0 005.482-4.591c.006-.081.696-8.559 3.511-18.471 2.645-9.292 1.081-24.117.329-31.241-.09-.857-.189-1.8-.236-2.35.128-.431.35-1.125.552-1.756 2.107-6.578 7.044-21.983 5.34-39.098-1.105-11.106 1.01-17.679 2.409-22.028 1.084-3.368 2.567-7.98-1.539-10.908-4.72-3.356-25.635-5.198-31.708-5.198-.406 0-.793.005-1.159.015-.475.012-.945.019-1.411.019-6.225 0-11.688-1.141-15.797-3.3-4.403-2.311-8.607-3.297-14.059-3.297z" fill="#77491b"/><path class="st20" d="M137.232 233.677s20.041 23.384 23.104 34.852c1.882 7.063 16.096-44.447 16.096-44.447s-37.69 9.126-39.2 9.595z"/><path d="M73.068 241.125c2.537-11.22 11.688-11.729 36.977-11.102 25.287.63 27.273 1.924 34.005 5.058 6.736 3.13 25.461 27.436 16.143 35.093-9.313 7.659-53.409 5.022-61.427 3.522-7.932-1.483-30.258-12.43-25.698-32.571z" fill="#bc995b"/><path class="st20" d="M130.672 231.323c.283.024.627.056 1.051.097.773.074 1.547.132 2.32.201-1.586-.281-3.467-.522-5.783-.732.336.061.672.136 1.01.192.628.104 1.078.182 1.402.242zM103.42 271.625c-11.85-1.233-20.879-8.341-29.43-17.298 4.658 11.752 18.797 18.251 24.775 19.37 7.553 1.413 47.121 3.832 59.464-2.297-16.158 3.475-33.184 2.475-54.809.225z"/><path class="st9" d="M73.068 241.125l36.613-118.151s11.654-9.804 25.428-12.22c13.772-2.417 19.177-1.266 24.259 1.402 5.079 2.668 11.715 4.062 19.665 3.854 7.956-.209 26.953 2.209 29.832 4.256 2.876 2.051-4.933 9.354-2.942 29.361 1.992 20.006-5.852 38.086-5.94 39.925-.093 1.844 3.13 22.087.122 32.658-3.001 10.567-3.687 19.452-3.687 19.452s-52.37-5.234-70-10.173c-10.559-2.959-43.576-2.303-53.35 9.636z"/><path class="st1" d="M155.562 166.634c-2.723 20.487-8.691 63.622-10.217 68.654.883.192 20.308 2.952 22.8 3.301.118-.284-14.308-9.402-12.438-48.162.179-3.759-.274-16.103-.145-23.793zM208.865 120.266c-2.879-2.047-21.876-4.466-29.832-4.256-7.95.208-14.586-1.185-19.665-3.854-.213-.11-.423-.218-.641-.323.093.448 2.377 20.468 2.414 32.326.619 10.567 2.406 37.058 3.689 39.491 1.073-8.791-.93-27.716 2.148-47.203 1.625-10.281-.863-18.898 3.434-17.962 4.549-.302 10.887-.544 15.016.056 5.916.86 17.01-.001 21.092 3.991.295.29.473 1.21-.684 8.764-1.239 8.108-.946 16.713.17 19.415-.029-.36-.047-.719-.084-1.083-1.989-20.008 5.819-27.311 2.943-29.362zM197.915 187.409c-1.176 8.884 2.764 16.959-4.456 36.776-2.323 6.385-4.116.517-4.753-16.791-.332 2.319-1.488 14.658-1.923 21.517.59 4.139.157 7.934-.652 11.575 6.043.698 10.287 1.177 10.287 1.177s.433-9.031 3.687-19.452c2.729-8.741.34-27.685.34-27.685s-.705-4.349-.163-6.029c.972-3.01 3.226-10.092 4.546-17.272-4.009 9.536-6.542 13.379-6.913 16.184z"/><path class="st20" d="M79.17 254.125s7.75 10.125 20.75 13.625 40.25 3.25 49.751 1.875c9.5-1.375-45.501 4.75-70.501-15.5zM76.92 246.375S84.674 233.13 111.17 234c34.251 1.125 37.626 10.5 37.626 10.5s-42.626-19.125-71.876 1.875z"/><path class="st20" d="M83.713 246.333s12.457-8.208 33.707-6.708 30.535 7.008 32.501 8.25c4.75 3 9.961 13.327 7 15.75-2.75 2.25-20.841 3.816-37.251 1.5-21.25-3-26.75-7.5-26.75-7.5s16.41 4.25 30.125 5c8.541.467 26.501 2.125 28.501-4.25 1.619-5.162-9.626-11.25-23.251-14.125-10.471-2.209-32.086-1.492-44.582 2.083z"/><path class="st20" d="M84.295 248.75c-2 3.5 9.611 7.72 29.75 10.25 23.875 3 33.501 1 34.126-1.5s-.421-3.619-12.001-8c-13.875-5.25-49.875-4.25-51.875-.75zM153.871 268.667s5-1.833 5.583-4.583 2.584 5.333-5.583 4.583z"/></g></g></svg>