<svg xmlns="http://www.w3.org/2000/svg" xmlns:xlink="http://www.w3.org/1999/xlink" width="292" height="407" fill="none" xmlns:v="https://vecta.io/nano"><style><![CDATA[.B{stroke-miterlimit:10}.C{fill:#223948}.D{fill:#414042}.E{fill:#66c2e2}.F{fill:#413c25}.G{stroke:#e5e5e5}.H{fill:#9e7b44}.I{fill:#c9c9c9}.J{fill:#6d6d6d}.K{stroke:#6d6d6d}]]></style><path d="M16.201 390c-1.636-.002-3.204-.652-4.361-1.809a6.18 6.18 0 0 1-1.809-4.361V16.169c.002-1.636.653-3.204 1.81-4.36A6.18 6.18 0 0 1 16.201 10h253.161a6.18 6.18 0 0 1 6.169 6.169V383.83c-.002 1.636-.653 3.204-1.809 4.36s-2.725 1.808-4.36 1.81H16.201z" fill="url(#A)"/><path d="M265.531 20v360h-245.5V20h245.5zm3.831-20H16.201C7.271 0 .031 7.239.031 16.169V383.83c0 8.931 7.239 16.17 16.17 16.17h253.161c8.93 0 16.169-7.239 16.169-16.17V16.169c0-8.93-7.239-16.169-16.169-16.169z" fill="#fef3b8"/><path d="M269.362 10a6.18 6.18 0 0 1 6.169 6.169V383.83c-.002 1.636-.653 3.204-1.809 4.36s-2.725 1.808-4.36 1.81H16.201c-1.636-.002-3.204-.652-4.361-1.809s-1.807-2.725-1.809-4.361V16.169c.002-1.636.653-3.204 1.81-4.36A6.18 6.18 0 0 1 16.201 10h253.161zm0-10H16.201C7.271 0 .031 7.239.031 16.169V383.83c0 8.931 7.239 16.17 16.17 16.17h253.161c8.93 0 16.169-7.239 16.169-16.17V16.169c0-8.93-7.239-16.169-16.169-16.169z" class="D"/><path d="M66.079 369.549c-.412.125-.856.082-1.236-.12s-.664-.546-.791-.958l-28.29-92.497c-.125-.412-.082-.857.12-1.236a1.63 1.63 0 0 1 .958-.791l63.695-19.471a1.63 1.63 0 0 1 1.237.12 1.62 1.62 0 0 1 .79.957l28.291 92.498c.125.412.082.857-.12 1.236s-.547.665-.958.791l-63.696 19.471z" fill="url(#B)"/><path d="M100.341 257.287l27.701 90.57-61.769 18.882-27.701-90.57 61.768-18.882zm-.575-5.326L36.07 271.432c-2.247.687-3.511 3.064-2.824 5.311l28.29 92.498c.687 2.246 3.065 3.511 5.313 2.824l63.695-19.471c2.247-.687 3.512-3.065 2.825-5.312l-28.291-92.498c-.687-2.246-3.065-3.51-5.312-2.823z" class="E"/><path d="M100.535 254.476c.412-.125.856-.082 1.236.12s.665.546.791.958l28.29 92.497c.126.412.083.857-.119 1.237s-.547.664-.958.79l-63.696 19.471a1.62 1.62 0 0 1-1.236-.119c-.38-.202-.664-.547-.791-.958l-28.29-92.498c-.125-.412-.082-.856.12-1.236a1.63 1.63 0 0 1 .958-.791l63.695-19.471zm-.769-2.515L36.07 271.432c-2.247.687-3.511 3.064-2.824 5.311l28.29 92.498c.687 2.246 3.065 3.511 5.313 2.824l63.695-19.471c2.247-.687 3.512-3.065 2.825-5.312l-28.291-92.498c-.687-2.246-3.065-3.51-5.312-2.823z" class="D"/><path d="M89.275 334.134a6.01 6.01 0 0 1-3.102.119c-2.192-.505-3.889-2.074-4.538-4.196s-.12-4.372 1.415-6.016a6 6 0 0 1 2.637-1.636 6.01 6.01 0 0 1 3.102-.119c2.192.505 3.889 2.074 4.538 4.197s.12 4.371-1.415 6.015a6.01 6.01 0 0 1-2.638 1.636z" fill="url(#C)"/><path d="M85.878 323.033c.888-.271 1.844-.318 2.762-.106a5.48 5.48 0 0 1 2.79 9.122c-.643.689-1.461 1.185-2.349 1.456s-1.844.318-2.762.107a5.48 5.48 0 0 1-2.79-9.123c.643-.688 1.461-1.184 2.349-1.456zm-.385-1.258c-1.127.345-2.138.973-2.926 1.817-1.697 1.818-2.282 4.307-1.563 6.657s2.596 4.086 5.02 4.644c1.125.259 2.315.214 3.441-.13a6.66 6.66 0 0 0 2.926-1.816c1.697-1.818 2.282-4.307 1.563-6.657s-2.596-4.087-5.02-4.645c-1.125-.259-2.315-.214-3.441.13z" class="C"/><path d="M79.837 317.873a.83.83 0 0 1-.325.032c-.109-.011-.215-.044-.312-.097s-.181-.123-.25-.209a.83.83 0 0 1-.15-.29c-1.086-3.854.59-8.248 2.521-11.076 2.334-3.416 3.362-6.649 2.75-8.649-1.029-3.363-4.297-2.912-6.154-2.345-3.153.964-4.845 3.241-5.171 6.962-.014.163-.076.317-.179.444s-.241.221-.397.269c-.136.041-.28.046-.419.014l-8.226-1.893c-.194-.045-.366-.159-.483-.321s-.171-.361-.153-.559c.639-6.905 5.285-12.332 12.428-14.516 3.773-1.153 7.504-1.045 11.089.321s6.02 4.069 7.23 8.025c1.669 5.456-.84 9.894-2.856 13.459-1.483 2.623-2.763 4.887-2.212 6.936a.81.81 0 0 1-.071.606c-.102.185-.271.323-.473.384l-8.188 2.503z" fill="url(#D)"/><path d="M75.512 286.268c3.692-1.129 7.233-1.001 10.662.307s5.687 3.848 6.836 7.602c2.78 9.089-6.519 14.996-5.074 20.374.011.038.007.08-.012.116s-.051.062-.09.074l-8.188 2.503a.17.17 0 0 1-.129-.013c-.04-.021-.069-.057-.082-.1-1.014-3.598.6-7.846 2.432-10.528 1.86-2.722 3.664-6.504 2.836-9.212-.885-2.893-3.467-3.854-6.975-2.781-3.394 1.038-5.287 3.574-5.634 7.533-.003.032-.015.062-.035.088s-.047.044-.078.053-.053.009-.079.003l-8.227-1.893c-.039-.009-.074-.032-.097-.065s-.035-.072-.031-.112c.633-6.835 5.364-11.931 11.966-13.949zm-.385-1.258c-3.532 1.08-6.584 3.002-8.826 5.559-2.328 2.655-3.734 5.95-4.065 9.526-.069.734.422 1.415 1.144 1.581l8.226 1.893a1.48 1.48 0 0 0 .625.007 1.47 1.47 0 0 0 .572-.252c.17-.123.312-.282.416-.466a1.47 1.47 0 0 0 .185-.596c.3-3.427 1.84-5.518 4.709-6.394 1.981-.606 4.515-.767 5.333 1.907.554 1.811-.442 4.834-2.664 8.086-2.015 2.951-3.759 7.555-2.611 11.626.054.19.145.367.268.521s.275.282.448.376a1.48 1.48 0 0 0 .561.174 1.5 1.5 0 0 0 .584-.056l8.188-2.503a1.47 1.47 0 0 0 .857-.693c.184-.334.232-.726.132-1.094-.481-1.792.737-3.948 2.149-6.445 2.078-3.675 4.664-8.248 2.912-13.975-1.273-4.16-3.838-7.002-7.625-8.447-3.725-1.419-7.599-1.532-11.515-.335z" class="C"/><path d="M126.279 369.549a1.63 1.63 0 0 1-1.237-.12 1.62 1.62 0 0 1-.79-.958l-28.291-92.497c-.125-.412-.082-.857.12-1.236a1.63 1.63 0 0 1 .958-.791l63.696-19.471c.412-.125.856-.082 1.236.12s.665.546.791.957l28.29 92.498a1.62 1.62 0 0 1-.119 1.236 1.63 1.63 0 0 1-.958.791l-63.696 19.471z" fill="url(#E)"/><path d="M160.54 257.287l27.701 90.57-61.769 18.882-27.7-90.57 61.768-18.882zm-.575-5.326l-63.696 19.471c-2.247.687-3.511 3.064-2.824 5.311l28.29 92.498c.687 2.246 3.065 3.511 5.313 2.824l63.695-19.471c2.247-.687 3.512-3.065 2.825-5.312l-28.291-92.498c-.687-2.246-3.065-3.51-5.312-2.823z" class="E"/><path d="M160.734 254.476a1.63 1.63 0 0 1 1.237.12 1.62 1.62 0 0 1 .79.958l28.291 92.497a1.63 1.63 0 0 1-.12 1.237c-.202.38-.547.664-.958.79l-63.696 19.471a1.62 1.62 0 0 1-1.236-.119c-.38-.202-.665-.547-.791-.958l-28.29-92.498c-.125-.412-.082-.856.12-1.236a1.63 1.63 0 0 1 .958-.791l63.695-19.471zm-.769-2.515l-63.696 19.471c-2.247.687-3.511 3.064-2.824 5.311l28.29 92.498c.687 2.246 3.065 3.511 5.313 2.824l63.695-19.471c2.247-.687 3.512-3.065 2.825-5.312l-28.291-92.498c-.687-2.246-3.065-3.51-5.312-2.823z" class="D"/><path d="M149.474 334.134c-1.016.311-2.088.352-3.101.119-2.193-.505-3.889-2.074-4.539-4.196s-.12-4.372 1.415-6.016c.709-.76 1.621-1.326 2.638-1.636s2.088-.352 3.101-.119c2.193.505 3.889 2.074 4.539 4.197s.12 4.371-1.415 6.015c-.709.76-1.621 1.325-2.638 1.636z" fill="url(#F)"/><path d="M146.082 323.033c.888-.271 1.844-.318 2.762-.106a5.48 5.48 0 0 1 2.79 9.122c-.643.688-1.461 1.184-2.349 1.456s-1.844.318-2.762.106a5.48 5.48 0 0 1-2.79-9.122c.643-.688 1.461-1.184 2.349-1.456zm-.385-1.258c-1.127.345-2.138.973-2.926 1.817-1.697 1.818-2.282 4.307-1.563 6.657s2.596 4.086 5.021 4.644c1.124.259 2.314.214 3.441-.13a6.66 6.66 0 0 0 2.925-1.816c1.698-1.818 2.282-4.307 1.563-6.657s-2.595-4.087-5.02-4.645c-1.124-.259-2.314-.214-3.441.13z" class="C"/><path d="M140.04 317.873a.83.83 0 0 1-.636-.065c-.097-.052-.182-.124-.25-.209a.82.82 0 0 1-.15-.29c-1.086-3.854.59-8.248 2.521-11.076 2.334-3.416 3.362-6.649 2.75-8.649-1.028-3.363-4.297-2.912-6.154-2.345-3.153.964-4.845 3.241-5.171 6.962-.014.163-.076.317-.179.444s-.24.221-.397.269c-.136.041-.28.046-.419.014l-8.226-1.893c-.194-.045-.366-.159-.483-.321a.83.83 0 0 1-.153-.559c.64-6.905 5.286-12.332 12.428-14.516 3.774-1.153 7.504-1.045 11.089.321s6.02 4.069 7.23 8.025c1.669 5.456-.84 9.894-2.855 13.459-1.483 2.623-2.763 4.887-2.213 6.936a.81.81 0 0 1-.544.99l-8.188 2.503z" fill="url(#G)"/><path d="M135.711 286.268c3.693-1.129 7.233-1.001 10.662.307s5.688 3.848 6.836 7.602c2.78 9.089-6.519 14.996-5.074 20.374.011.038.007.08-.012.116s-.051.062-.09.074l-8.188 2.503a.17.17 0 0 1-.211-.113c-1.014-3.598.601-7.846 2.432-10.528 1.86-2.722 3.664-6.504 2.836-9.212-.885-2.893-3.467-3.854-6.976-2.781-3.394 1.038-5.286 3.574-5.634 7.533-.002.032-.015.062-.035.088s-.047.044-.077.053-.053.009-.079.003l-8.227-1.893c-.039-.009-.074-.032-.097-.065a.16.16 0 0 1-.031-.112c.633-6.835 5.364-11.931 11.965-13.949zm-.384-1.258c-3.532 1.08-6.584 3.002-8.826 5.559-2.328 2.655-3.734 5.95-4.065 9.526-.069.734.422 1.415 1.144 1.581l8.226 1.893c.205.047.418.049.624.007a1.47 1.47 0 0 0 .572-.252 1.45 1.45 0 0 0 .415-.466 1.46 1.46 0 0 0 .185-.596c.301-3.427 1.841-5.518 4.709-6.394 1.981-.606 4.515-.767 5.333 1.907.554 1.811-.442 4.834-2.665 8.086-2.014 2.951-3.758 7.555-2.611 11.626.054.19.145.367.268.521s.276.282.448.376.365.154.561.174.395.001.584-.056l8.188-2.503c.365-.111.673-.36.857-.693s.232-.727.132-1.094c-.482-1.792.737-3.948 2.149-6.445 2.078-3.675 4.663-8.248 2.912-13.975-1.273-4.16-3.839-7.002-7.625-8.447-3.725-1.419-7.599-1.532-11.515-.335z" class="C"/><path d="M184.376 369.549c-.411.125-.856.082-1.236-.12s-.664-.546-.791-.958l-28.29-92.497c-.125-.412-.082-.857.12-1.236s.546-.664.958-.791l63.696-19.471c.411-.125.856-.082 1.236.12s.664.546.791.957l28.29 92.498c.125.412.082.857-.12 1.236s-.546.665-.958.791l-63.696 19.471z" fill="url(#H)"/><path d="M218.639 257.287l27.701 90.57-61.769 18.882-27.701-90.57 61.769-18.882zm-.575-5.327l-63.696 19.472c-2.248.687-3.512 3.064-2.825 5.311l28.291 92.498c.687 2.246 3.065 3.511 5.312 2.824l63.696-19.471c2.247-.687 3.511-3.065 2.824-5.312l-28.29-92.498c-.687-2.246-3.066-3.51-5.312-2.824z" class="E"/><path d="M218.833 254.476c.412-.125.856-.082 1.236.12s.665.546.791.958l28.29 92.497c.126.412.083.857-.119 1.237s-.547.664-.958.79l-63.696 19.471c-.412.126-.857.083-1.237-.119s-.664-.547-.79-.958l-28.291-92.498c-.125-.412-.082-.856.12-1.236a1.63 1.63 0 0 1 .958-.791l63.696-19.471zm-.769-2.516l-63.696 19.472c-2.248.687-3.512 3.064-2.825 5.311l28.291 92.498c.687 2.246 3.065 3.511 5.312 2.824l63.696-19.471c2.247-.687 3.511-3.065 2.824-5.312l-28.29-92.498c-.687-2.246-3.066-3.51-5.312-2.824z" class="D"/><path d="M207.576 334.134a6.01 6.01 0 0 1-3.101.119c-2.193-.505-3.89-2.074-4.539-4.196s-.12-4.372 1.415-6.016a6 6 0 0 1 2.637-1.636c1.017-.311 2.089-.352 3.102-.119 2.192.505 3.889 2.074 4.538 4.197s.121 4.371-1.414 6.015c-.709.76-1.622 1.325-2.638 1.636z" fill="url(#I)"/><path d="M204.18 323.033a5.35 5.35 0 0 1 2.761-.106 5.48 5.48 0 0 1 2.791 9.122c-.643.689-1.462 1.184-2.349 1.456s-1.844.318-2.762.107a5.48 5.48 0 0 1-2.79-9.123 5.36 5.36 0 0 1 2.349-1.456zm-.385-1.258c-1.127.345-2.138.973-2.926 1.817-1.698 1.818-2.282 4.307-1.563 6.657s2.596 4.086 5.02 4.644c1.125.259 2.315.214 3.441-.13s2.139-.972 2.926-1.816c1.698-1.818 2.282-4.307 1.563-6.657s-2.596-4.087-5.02-4.645c-1.125-.259-2.315-.214-3.441.13z" class="C"/><path d="M198.138 317.873a.83.83 0 0 1-.325.032c-.109-.011-.215-.044-.312-.097s-.181-.123-.25-.209-.119-.184-.149-.29c-1.086-3.853.59-8.248 2.521-11.076 2.334-3.416 3.362-6.649 2.75-8.649-1.029-3.363-4.297-2.912-6.154-2.345-3.153.964-4.845 3.241-5.171 6.962-.014.163-.076.317-.179.444a.81.81 0 0 1-.397.269c-.136.041-.28.046-.419.014l-8.226-1.893c-.195-.045-.366-.159-.483-.321a.83.83 0 0 1-.153-.559c.639-6.905 5.285-12.332 12.428-14.516 3.773-1.153 7.504-1.045 11.089.321s6.02 4.069 7.23 8.025c1.669 5.456-.84 9.894-2.856 13.459-1.482 2.623-2.763 4.887-2.212 6.936a.81.81 0 0 1-.072.606c-.101.185-.271.323-.473.384l-8.187 2.503z" fill="url(#J)"/><path d="M193.813 286.268c3.692-1.129 7.233-1.001 10.662.307s5.687 3.848 6.836 7.602c2.78 9.089-6.519 14.996-5.074 20.374.011.038.007.08-.012.116s-.052.062-.09.074l-8.188 2.503a.17.17 0 0 1-.129-.013c-.04-.021-.069-.057-.082-.1-1.014-3.598.6-7.846 2.431-10.528 1.861-2.722 3.665-6.504 2.837-9.212-.885-2.893-3.467-3.854-6.976-2.781-3.394 1.038-5.287 3.574-5.634 7.533a.17.17 0 0 1-.035.088c-.02.025-.047.044-.078.053-.025.008-.053.009-.079.003l-8.226-1.893c-.039-.009-.074-.032-.097-.065a.16.16 0 0 1-.031-.112c.632-6.835 5.364-11.931 11.965-13.949zm-.385-1.258c-3.532 1.08-6.584 3.002-8.825 5.559-2.329 2.655-3.734 5.95-4.065 9.526-.07.734.422 1.415 1.144 1.581l8.225 1.893a1.48 1.48 0 0 0 .625.007c.206-.042.401-.128.571-.252s.312-.282.416-.466a1.46 1.46 0 0 0 .185-.596c.3-3.427 1.841-5.518 4.709-6.394 1.981-.606 4.514-.767 5.332 1.907.554 1.811-.441 4.834-2.664 8.086-2.015 2.951-3.759 7.555-2.611 11.626.054.19.145.367.268.521s.275.282.448.376a1.48 1.48 0 0 0 .561.174 1.5 1.5 0 0 0 .584-.056l8.188-2.503a1.47 1.47 0 0 0 .857-.693c.184-.334.232-.727.131-1.094-.481-1.792.738-3.948 2.15-6.445 2.077-3.675 4.663-8.248 2.911-13.975-1.272-4.16-3.838-7.002-7.624-8.447-3.725-1.419-7.6-1.532-11.516-.335z" class="C"/><path d="M128.891 201.545c-.002 2.85-2.314 5.171-5.157 5.171h-8.486v24.682c-.001 1.194-.476 2.338-1.32 3.182s-1.989 1.319-3.182 1.32h-23.6c-1.194-.001-2.338-.476-3.182-1.32s-1.319-1.988-1.32-3.182v-24.682h-8.486A5.17 5.17 0 0 1 69 201.545c0-1.242.441-2.406 1.276-3.362l24.788-28.42a5.15 5.15 0 0 1 1.75-1.301c.669-.304 1.396-.462 2.132-.462a5.15 5.15 0 0 1 2.131.462c.67.304 1.266.747 1.75 1.301l24.789 28.42c.823.926 1.277 2.123 1.276 3.362z" fill="url(#K)"/><path d="M69.847 201.607c0-.881.301-1.78.97-2.547l24.788-28.418a3.9 3.9 0 0 1 1.327-.989 3.91 3.91 0 0 1 1.618-.351c.558 0 1.11.12 1.617.351s.96.568 1.327.989l24.788 28.421c.624.701.969 1.607.97 2.545 0 2.017-1.58 3.93-3.915 3.93h-9.728v25.922c0 .865-.343 1.694-.955 2.305a3.26 3.26 0 0 1-2.305.955H86.751a3.26 3.26 0 0 1-3.261-3.26v-25.924h-9.729c-2.335 0-3.914-1.914-3.914-3.929zm-2.484 0c0 3.535 2.872 6.413 6.398 6.413h7.245v23.44a5.75 5.75 0 0 0 1.684 4.06c1.077 1.076 2.537 1.682 4.06 1.684h23.599c1.523-.002 2.983-.608 4.06-1.684a5.75 5.75 0 0 0 1.685-4.06v-23.44h7.243c3.529 0 6.4-2.877 6.4-6.413a6.37 6.37 0 0 0-1.583-4.178l-24.788-28.419c-.6-.688-1.34-1.239-2.171-1.616s-1.733-.573-2.645-.573-1.815.195-2.645.573a6.38 6.38 0 0 0-2.171 1.616l-24.79 28.419a6.37 6.37 0 0 0-1.581 4.178z" fill="#4f0c16"/><path d="M217.89 202.355c-.002-2.85-2.314-5.172-5.157-5.172h-8.486v-24.682c-.001-1.193-.476-2.338-1.32-3.181s-1.989-1.319-3.182-1.32h-23.6c-1.194.001-2.338.476-3.182 1.32s-1.319 1.988-1.32 3.181v24.682h-8.486c-1.37.004-2.682.55-3.649 1.52a5.17 5.17 0 0 0-1.508 3.652c0 1.242.44 2.405 1.275 3.361l24.788 28.421a5.17 5.17 0 0 0 1.75 1.301 5.16 5.16 0 0 0 2.132.461 5.15 5.15 0 0 0 2.131-.461 5.16 5.16 0 0 0 1.75-1.301l24.788-28.421c.823-.926 1.277-2.122 1.276-3.361z" fill="url(#L)"/><path d="M158.847 202.418c0 .88.301 1.779.97 2.547l24.788 28.418c.367.42.819.758 1.327.989a3.91 3.91 0 0 0 3.236 0c.508-.231.96-.569 1.327-.989l24.788-28.422a3.83 3.83 0 0 0 .97-2.544c0-2.017-1.58-3.931-3.915-3.931h-9.728v-25.922a3.26 3.26 0 0 0-3.26-3.259h-23.6a3.26 3.26 0 0 0-3.26 3.259v25.925h-9.729c-2.335 0-3.914 1.913-3.914 3.929zm-2.484 0c0-3.536 2.871-6.413 6.398-6.413h7.245v-23.441c.001-1.522.607-2.982 1.684-4.059s2.537-1.683 4.06-1.684h23.6c1.523.001 2.983.607 4.06 1.684a5.75 5.75 0 0 1 1.685 4.059v23.441h7.243c3.529 0 6.4 2.876 6.4 6.413-.006 1.538-.568 3.022-1.583 4.177l-24.788 28.419a6.39 6.39 0 0 1-2.171 1.617c-.831.377-1.733.573-2.646.573a6.4 6.4 0 0 1-2.645-.573c-.831-.378-1.572-.929-2.172-1.617l-24.789-28.419c-1.014-1.156-1.576-2.639-1.581-4.177z" fill="#162f0d"/><path d="M132.763 124.331a1.64 1.64 0 0 1 .064.63c-.021.212-.083.418-.183.606a1.63 1.63 0 0 1-.959.791l-63.851 19.521a1.62 1.62 0 0 1-.63.064c-.212-.021-.418-.083-.607-.183a1.63 1.63 0 0 1-.491-.4c-.136-.165-.237-.354-.3-.558L37.528 52.304c-.126-.412-.083-.857.119-1.237s.547-.664.959-.79l63.85-19.521c.412-.126.857-.083 1.238.119s.664.547.79.958l28.279 92.498z" fill="url(#M)"/><path d="M102.012 33.643l27.69 90.571-61.671 18.855-27.69-90.571 61.671-18.855zm-.464-5.36L37.823 47.766c-2.248.687-3.498 3.061-2.811 5.307l28.279 92.498c.687 2.247 3.05 3.515 5.298 2.828l63.724-19.483c2.248-.687 3.403-3.032 2.716-5.279L106.751 31.14c-.686-2.247-3.011-3.527-5.258-2.84l.055-.017z" fill="#a3db6e"/><path d="M102.229 30.826c.855-.262 1.744.228 2.005 1.084l28.279 92.498c.262.856-.112 1.732-.968 1.993L67.82 145.884a1.61 1.61 0 0 1-2.012-1.082L37.53 52.304c-.262-.856.206-1.76 1.063-2.022L102.25 30.82l-.021.006zm-.681-2.543L37.823 47.766c-2.248.687-3.498 3.061-2.811 5.307l28.279 92.498c.687 2.247 3.05 3.515 5.298 2.828l63.724-19.483c2.248-.687 3.403-3.032 2.716-5.279L106.751 31.14c-.686-2.247-3.011-3.527-5.258-2.84l.055-.017z" class="F"/><path d="M41.328 53.022l60.16-18.393 27.228 89.062-60.16 18.393-27.228-89.062z" class="B G"/><path d="M87.1 109.145c-3.202.979-6.332 1.66-7.361 1.776-1.59.178-4.984-.261-7.323-2.2a6.41 6.41 0 0 1-2.38-4.622c-.023-.302-.023-.591.002-.859l.125-31.735c0-.126.037-.249.106-.355.093-.143 2.315-3.532 5.715-5.26 1.242-.631 2.275-1.069 3.157-1.339 1.28-.392 2.288-.46 3.478-.235 1.324.25 2.853.115 4.545-.403l.371-.119.274-.088c2.007-.614 6.863-1.509 7.979-1.138.803.268.791 1.106.778 1.993-.017 1.18-.047 3.155 1.138 5.991 1.693 4.049 1.636 8.208 1.612 9.985v.626c.035.098.164.402.289.697.721 1.696 2.222 5.227 2.268 7.641.056 2.791.548 5.025.552 5.047a.65.65 0 0 1 .006.26.66.66 0 0 1-.096.242c-.048.073-.11.137-.183.186s-.154.083-.24.101l-5.784 1.088c.032 6.729-.302 7.701-.45 8.031a2.4 2.4 0 0 1-.272.562c-.877 1.321-3.672 2.71-8.305 4.127z" fill="#f2de9c"/><path d="M79.331 65.179c1.337-.409 2.243-.391 3.163-.218 1.387.262 3.03.139 4.86-.42l.387-.124.258-.082c2.128-.65 6.733-1.424 7.579-1.143.882.295-.522 2.733 1.518 7.613s1.456 10.032 1.576 10.502 2.487 5.316 2.543 8.207.568 5.178.568 5.178l-6.317 1.183c.024 3.293-.023 7.516-.402 8.341a1.76 1.76 0 0 1-.206.437c-.921 1.388-4.474 2.799-7.95 3.862-3.145.962-6.228 1.638-7.242 1.752-2.111.237-8.573-.799-8.974-6.217-.022-.259-.02-.519.004-.778l.125-31.765s2.179-3.363 5.461-5.031c1.248-.634 2.23-1.046 3.051-1.296zm-.385-1.258l.385 1.258-.385-1.258c-.919.281-1.986.733-3.263 1.382-3.556 1.808-5.872 5.34-5.969 5.489a1.32 1.32 0 0 0-.212.71l-.125 31.708a5.9 5.9 0 0 0 0 .941c.15 2.025 1.055 3.781 2.616 5.076 2.496 2.069 6.119 2.538 7.816 2.347 1.209-.136 4.412-.863 7.48-1.801 7.208-2.204 8.302-3.851 8.662-4.393a2.99 2.99 0 0 0 .336-.682c.186-.423.508-1.466.497-7.723l5.253-.993c.172-.034.335-.103.481-.201a1.32 1.32 0 0 0 .365-.372c.095-.147.161-.311.192-.484s.027-.35-.011-.521c-.005-.021-.483-2.207-.537-4.917-.049-2.541-1.583-6.151-2.32-7.885l-.24-.573a28.23 28.23 0 0 1 .004-.484c.024-1.817.082-6.073-1.663-10.247-1.132-2.709-1.106-4.526-1.088-5.727.014-.931.032-2.205-1.226-2.626-1.446-.481-6.853.665-8.381 1.132l-.291.093-.354.113c-1.567.479-3.03.612-4.23.386-1.286-.243-2.42-.167-3.792.253z" fill="#77491b"/><path d="M86.27 97.239s6.843 4.341 8.496 6.991c1.017 1.632.633-12.421.633-12.421l-9.129 5.431z" class="H"/><path d="M70.691 104.05c-.224-3.018 2.04-3.85 8.454-5.638s7.013-1.615 8.949-1.344 8.519 4.943 6.763 7.587-13.058 5.373-15.191 5.613c-2.111.237-8.572-.799-8.974-6.217z" fill="#bc995b"/><path d="M84.436 97.151l.272-.056.599-.128-1.512.261.269-.029.371-.047zm-3.76 12.237c-3.078.602-5.897-.492-8.738-2.087 2.076 2.598 6.135 3.145 7.726 2.966 2.01-.226 12.156-2.662 14.791-5.154-3.8 2.118-8.163 3.177-13.779 4.275z" class="H"/><path d="M70.66 104.031l.129-32.542s2.179-3.363 5.461-5.031 4.73-1.794 6.214-1.514 3.261.12 5.246-.544 6.954-1.518 7.837-1.225-.522 2.733 1.518 7.613 1.456 10.032 1.576 10.501 2.486 5.316 2.542 8.207.568 5.178.568 5.178-13.584 2.713-18.402 2.828c-2.885.068-11.146 2.775-12.688 6.53z" fill="#f2de9c"/><path opacity=".5" d="M85.727 78.961c.89 5.364 2.706 16.675 2.709 18.058.237-.02 5.339-.82 5.993-.924.008-.081-4.325-1.264-6.835-11.159-.244-.959-1.308-4.03-1.867-5.975zm9.851-15.767c-.882-.293-5.85.56-7.836 1.225s-3.763.824-5.246.544l-.186-.032c.058.106 2.173 4.966 3.094 7.947.968 2.611 3.456 9.138 3.966 9.651-.406-2.294-2.366-6.901-3.09-12.041-.382-2.712-1.671-4.688-.517-4.783 1.122-.426 2.699-.975 3.784-1.142 1.555-.239 4.282-1.309 5.616-.619.097.05.212.268.502 2.258.312 2.135 1.047 4.277 1.536 4.871l-.104-.266c-2.04-4.881-.636-7.319-1.518-7.613zm2.408 17.735c.387 2.326 2 4.054 1.707 9.595-.094 1.785-.996.447-2.488-3.859.095.609.753 3.802 1.171 5.561.467.996.65 1.984.726 2.962l2.68-.496s-.586-2.305-.569-5.177c.015-2.409-2.043-6.991-2.043-6.991s-.512-1.04-.505-1.504c.013-.832.036-2.787-.184-4.695-.276 2.708-.618 3.869-.495 4.604z" fill="#bc995b"/><path d="M73.229 106.851s2.73 1.951 6.271 1.831 10.382-2.28 12.667-3.357-11.088 4.697-18.938 1.526zm-1.162-1.776s.933-3.929 7.669-5.749c8.708-2.353 10.279-.254 10.279-.254s-12.201-1.531-17.948 6.003zm1.706-.534s2.504-3.023 7.969-4.281 8.225-.587 8.816-.426c1.426.389 3.532 2.586 2.973 3.424-.519.777-4.953 2.564-9.261 3.244-5.58.88-7.31.172-7.31.172s4.457-.194 7.968-1.061c2.186-.54 6.834-1.505 6.847-3.263.011-1.423-3.288-2.089-6.939-1.764-2.806.25-8.191 2.094-11.062 3.955zm.333.564c-.234 1.034 3.013 1.202 8.277.289 6.24-1.083 8.51-2.327 8.475-3.004s-.384-.878-3.636-1.089c-3.896-.253-12.881 2.769-13.115 3.804zm19.045-.344s1.118-.846 1.053-1.583 1.061 1.143-1.053 1.583z" class="H"/><path d="M192.99 123.261a1.62 1.62 0 0 1-.121 1.237 1.63 1.63 0 0 1-.963.792l-64.074 19.59c-.414.126-.86.084-1.241-.118s-.666-.546-.792-.958L97.52 51.306a1.62 1.62 0 0 1 .121-1.237c.203-.38.55-.665.963-.792l64.075-19.59c.413-.126.86-.084 1.241.118a1.62 1.62 0 0 1 .792.958l28.279 92.498z" fill="url(#N)"/><path d="M162.228 32.577l27.69 90.57-61.887 18.921-27.689-90.57 61.886-18.921zm-.444-5.366L97.836 46.762c-2.256.69-3.527 3.07-2.841 5.317l28.279 92.499c.687 2.246 3.072 3.509 5.328 2.819l63.948-19.552c2.256-.689 3.402-3.031 2.715-5.278l-28.279-92.498c-.687-2.247-3.009-3.528-5.265-2.838l.063-.019z" fill="#b0dcea"/><path d="M162.448 29.758a1.61 1.61 0 0 1 2.012 1.082l28.279 92.499c.261.855-.099 1.727-.958 1.99l-63.948 19.551a1.64 1.64 0 0 1-1.241-.118 1.62 1.62 0 0 1-.792-.958L97.521 51.306a1.62 1.62 0 0 1 .122-1.237c.203-.38.549-.665.962-.792l63.865-19.526-.022.006zm-.664-2.548L97.836 46.762c-2.256.69-3.527 3.07-2.841 5.317l28.279 92.499c.687 2.246 3.072 3.509 5.328 2.819l63.948-19.552c2.256-.689 3.402-3.031 2.715-5.278l-28.279-92.498c-.687-2.247-3.009-3.528-5.265-2.838l.063-.019z" class="F"/><path d="M101.332 52.021l60.371-18.458 27.228 89.062-60.371 18.458-27.228-89.062z" class="B G"/><path d="M142.296 106.269l-1.358.347c-.955.198-1.927.301-2.902.309-.059.017-.12.027-.181.028-.036 0-.885.011-2.129-.194l-.098-.016-.317-.058c-.867-.16-1.717-.4-2.539-.718l-.517-.209-.029-.012-.21-.092c-2.155-.976-4.029-2.37-4.553-2.774-3.031-2.271-5.039-5.648-5.647-9.503-1.234-7.831 3.51-15.471 11.036-17.772a15.31 15.31 0 0 1 1.36-.348c1.267-.264 2.563-.36 3.854-.285.253-.026.701-.008 1.808.212.066.013.13.028.194.042l.126.028.495.117.345.09.328.095.277.084c.719.23 1.422.508 2.104.83l.191-.099c1.795-1.004 3.742-1.831 5.788-2.456 2.433-.744 4.851-1.159 7.19-1.233 5.363-.172 9.291 1.51 10.53 4.501.301.481.681 1.668.797 2.042.244.79.606 2.177.621 2.236s.022.118.021.177c.19 1.141.002 2.355-.559 3.613.232.794.507 1.846.519 1.895a.63.63 0 0 1 .021.177c.222 1.332-.065 2.752-.855 4.224-1.98 3.688-6.874 7.099-12.773 8.903-1.929.59-3.865.975-5.76 1.146-1.946 2.216-4.423 3.829-7.178 4.672z" class="I"/><path d="M133.044 76.234l1.301-.333c1.23-.257 2.489-.347 3.742-.269.235-.039.762.019 1.656.197l.273.06.052.011.789.195.246.072.331.1a16.63 16.63 0 0 1 2.325.944l.486-.258a29.07 29.07 0 0 1 5.67-2.407c2.29-.7 4.685-1.13 7.017-1.205 5.254-.168 8.871 1.51 9.923 4.154.178.225.525 1.189.753 1.926a70.33 70.33 0 0 1 .613 2.208l-.014-.003c.211 1.08.03 2.288-.589 3.577.242.799.584 2.112.584 2.112l-.013-.003c.229 1.177-.001 2.507-.764 3.927-1.955 3.641-6.864 6.896-12.383 8.583-1.922.587-3.92.985-5.891 1.142-1.833 2.158-4.251 3.82-7.048 4.675-.424.13-.857.241-1.298.332-1.013.21-2.046.309-3.08.294l.121.029s-.812.013-2.011-.185l-.099-.016-.299-.055a13.51 13.51 0 0 1-2.425-.685 13.17 13.17 0 0 1-.496-.2l-.028-.013-.198-.087c-2.097-.949-3.92-2.306-4.422-2.694-2.788-2.089-4.797-5.26-5.4-9.086-1.185-7.522 3.481-14.87 10.576-17.039zm-.385-1.258c-3.751 1.147-6.993 3.66-9.128 7.076-2.147 3.434-2.987 7.493-2.367 11.428.634 4.021 2.73 7.545 5.902 9.925.547.423 2.466 1.847 4.677 2.847l.219.096.028.012a13.56 13.56 0 0 0 .547.222 14.83 14.83 0 0 0 2.656.75l.315.058.042.006.08.013c1.288.213 2.196.201 2.234.201a1.42 1.42 0 0 0 .255-.029c.992-.013 1.98-.121 2.952-.322a15.99 15.99 0 0 0 1.417-.363c2.791-.853 5.306-2.463 7.306-4.669a29.32 29.32 0 0 0 5.633-1.148c6.059-1.852 11.103-5.386 13.162-9.222.852-1.587 1.165-3.133.932-4.597a1.28 1.28 0 0 0-.041-.28l-.459-1.686c.532-1.282.706-2.53.519-3.717a1.3 1.3 0 0 0-.041-.283c-.016-.059-.381-1.46-.63-2.264-.222-.721-.535-1.629-.834-2.14-1.365-3.229-5.517-5.046-11.143-4.866-2.396.076-4.873.501-7.362 1.262-2.049.627-4.002 1.451-5.807 2.45-.613-.276-1.243-.518-1.884-.723-.092-.03-.19-.059-.288-.088l-.068-.02-.064-.019-.204-.059-.367-.096c-.163-.041-.326-.08-.49-.116l-.016-.004-.04-.009-.086-.019-.21-.046c-1.072-.213-1.596-.255-1.95-.227-1.333-.072-2.67.029-3.977.301-.478.099-.952.221-1.42.363z" fill="#444"/><g class="J"><path d="M167.427 91.24c-2.768 5.154-11.458 9.538-19.411 9.792-5.232.168-8.842-1.494-9.912-4.118-.557-1.365-.426-2.99.52-4.754 2.767-5.154 11.458-9.538 19.412-9.792s12.158 3.718 9.391 8.872z"/><path d="M136.979 93.556c-.061.203.322 1.181.56 1.968s.71 1.718.71 1.718.388.158.445-.965-1.611-3.064-1.715-2.72zm29.828-10.41c.165.134.542 1.176.785 1.961l.613 2.208s-.417-.057-1.093-.956-.583-3.44-.305-3.213z"/></g><g class="I"><path d="M166.305 87.899c-2.767 5.154-11.457 9.538-19.411 9.792s-12.158-3.718-9.391-8.872 11.457-9.538 19.412-9.792 12.158 3.718 9.39 8.872z"/><path d="M163.869 87.444c-2.388 4.037-9.716 7.564-16.366 7.878s-10.107-2.703-7.719-6.739 9.716-7.564 16.367-7.878 10.107 2.703 7.718 6.74z" stroke-width="3.066" class="B K"/></g><g class="J"><path opacity=".8" d="M166.328 87.898c-2.771 5.163-11.477 9.554-19.444 9.809s-12.179-3.724-9.407-8.887 11.476-9.554 19.444-9.809 12.179 3.725 9.407 8.888z"/><path d="M167.446 85.555c-2.767 5.154-11.458 9.538-19.411 9.792-5.232.167-8.841-1.495-9.912-4.118-.556-1.365-.426-2.991.521-4.754 2.767-5.154 11.457-9.538 19.411-9.792s12.158 3.718 9.391 8.872z"/><path d="M136.995 87.87c-.061.203.322 1.181.56 1.968s.71 1.718.71 1.718.388.158.445-.965-1.612-3.064-1.715-2.72zm29.828-10.409c.164.134.542 1.176.785 1.961l.613 2.208s-.417-.057-1.093-.956-.583-3.44-.305-3.213z"/></g><g fill="#a8a8a8"><path d="M166.326 82.213c-2.768 5.154-11.458 9.538-19.411 9.792s-12.159-3.718-9.392-8.872 11.458-9.538 19.412-9.792 12.158 3.718 9.391 8.872z"/><path d="M163.884 81.757c-2.388 4.037-9.716 7.564-16.367 7.878s-10.106-2.703-7.718-6.739 9.717-7.564 16.368-7.878 10.105 2.703 7.717 6.739z" stroke-width="1.1" class="B K"/></g><path opacity=".8" d="M151.071 100.706s.921-1.445 1.27-3.689c.103-.661 1.557-2.539 1.557-2.539l.079-3.52c-.442-9.857-9.505-14.118-9.505-14.118s-3.863 1.767-6.282 5.194c0 0-1.123 1.516-1.423 3.367-.127.776.039 1.53.228 2.467.09.448.74 2.465.74 2.465s.663 7.305 1.062 7.753c0 0 7.14 3.799 12.274 2.62z" fill="#444"/><g class="J"><path d="M152.682 88.6c1.257 7.972-4.06 15.749-11.876 17.371s-15.171-3.526-16.427-11.498 4.061-15.75 11.877-17.372 15.17 3.526 16.426 11.498z"/><path d="M127.73 102.249s2.094 1.688 4.563 2.805c2.842 1.285 5.555 1.24 5.555 1.24s-6.247-1.456-10.118-4.045zm22.308-20.015s-3.816-5.116-10.293-6.405 6.268 3.688 10.293 6.405z"/></g><g class="I"><path d="M150.773 87.399c1.256 7.972-4.062 15.749-11.877 17.372s-15.17-3.526-16.427-11.498 4.061-15.75 11.877-17.372 15.17 3.526 16.427 11.498z"/><path d="M148.138 87.946c1.022 6.488-3.305 12.817-9.667 14.137s-12.345-2.869-13.368-9.357 3.305-12.818 9.666-14.137 12.346 2.869 13.369 9.357z" stroke-width="1.1" class="B K"/></g><path opacity=".4" d="M130.603 86.475c5.174-3.004 10.906-5.073 16.882-6.201-3.14-3.608-8.041-5.431-13.139-4.373-7.497 1.556-12.692 8.776-11.994 16.4 2.562-2.201 5.377-4.157 8.251-5.826z" fill="#efefef"/><path d="M183.819 145.884c-.412.126-.857.083-1.237-.119s-.665-.547-.791-.958l-28.279-92.498c-.125-.412-.082-.856.12-1.236s.547-.664.959-.791l63.724-19.483a1.63 1.63 0 0 1 2.028 1.077l28.278 92.498c.126.412.083.856-.12 1.236s-.546.665-.958.791l-63.724 19.483z" fill="url(#O)"/><path d="M218.121 33.61l27.69 90.571-61.796 18.894-27.69-90.571 61.796-18.893zm-.574-5.327l-63.724 19.483c-2.248.687-3.514 3.066-2.827 5.312l28.278 92.499c.687 2.246 3.067 3.511 5.315 2.823l63.724-19.483c2.248-.687 3.514-3.065 2.827-5.312l-28.28-92.499c-.687-2.247-3.065-3.511-5.313-2.823z" fill="#57c565"/><path d="M218.315 30.799c.412-.125.857-.082 1.237.12a1.63 1.63 0 0 1 .791.958l28.28 92.498a1.63 1.63 0 0 1-.12 1.237c-.202.38-.547.664-.959.79l-63.724 19.483c-.412.126-.858.083-1.238-.119s-.664-.547-.79-.958l-28.279-92.498c-.125-.412-.083-.856.119-1.236a1.63 1.63 0 0 1 .959-.791l63.724-19.483zm-.768-2.516l-63.724 19.483c-2.248.687-3.514 3.066-2.827 5.312l28.278 92.499c.687 2.246 3.067 3.511 5.315 2.823l63.724-19.483c2.248-.687 3.514-3.065 2.827-5.312l-28.28-92.499c-.687-2.247-3.065-3.511-5.313-2.823z" class="F"/><path d="M157.32 53.024l60.16-18.393 27.228 89.061-60.16 18.393-27.228-89.061z" class="B G"/><use xlink:href="#P" fill="#e5dcc7"/><use xlink:href="#P" stroke="#605745" class="B"/><path d="M186.899 100.984l25.352-5.741s-4.338 1.505-4.562 5.047c-.199 3.161 2.175 4.112 2.175 4.112l-26.502 4.729s-1.512-1.231-.677-4.596c.791-3.182 4.178-3.336 4.214-3.551z" fill="#e5dcc7"/><g fill="#a09680"><path d="M190.425 100.123l23.008-4.644s-.335-.204-1.172-.262c-.564.089-21.849 4.442-21.849 4.442l.013.465zm20.12-32.409s.23-4.967 2.614-5.607c1.157-.31 3.132-.757 4.214.868.858 1.285.192 2.513.192 2.513l-7.02 2.226zm-27.182 41.416l26.501-4.729s.934.595 1.968.59c1.54-.008 2.77-.22 2.77-.22s-1.035.866-5.053 1.407-23.774 4.032-23.774 4.032-2.038-.162-2.412-1.08z"/><path d="M207.859 101.698l7.867-1.649s-.68-5.435-3.639-4.683-4.748 3.596-4.228 6.332z"/><path d="M209.861 104.401s-.536-.089-1.237-1.058-.765-1.646-.765-1.646l.989-.281s1.223 2.505 3.023 2.647c.862.07 2.135.244 3.4-.876 1.815-1.606 2.848-4.385 2.867-6.75-.295-4.894-.275-5.427-1.072-8.374-1.039-3.84-7.735-14.287-7.217-20.662.371-4.568 2.565-4.939 2.565-4.939s-3.938 3.761-.023 13.335c0 0 1.936 4.876 3.044 6.596.825 1.28 3.359 6.373 3.331 13.255-.032 7.43-4.084 9.055-4.084 9.055-1.822.517-2.692.945-4.821-.302z"/></g><defs><radialGradient id="A" cx="0" cy="0" r="1" gradientTransform="translate(142.781 200) scale(163.894 169.057)" xlink:href="#Q"><stop stop-color="#fbe678"/><stop offset="1" stop-color="#e3c62b"/></radialGradient><radialGradient id="B" cx="0" cy="0" r="1" gradientTransform="translate(83.3062 312.013) rotate(-107.006) scale(43.1185 44.4783)" xlink:href="#Q"><stop stop-color="#32b4ba"/><stop offset=".163" stop-color="#30abba"/><stop offset=".429" stop-color="#2b93ba"/><stop offset=".762" stop-color="#236bba"/><stop offset="1" stop-color="#1d4bba"/></radialGradient><linearGradient id="C" x1="89.275" y1="334.134" x2="85.689" y2="322.404" xlink:href="#Q"><stop stop-color="#70aefe"/><stop offset=".16" stop-color="#83bcfe"/><stop offset=".527" stop-color="#abd7fe"/><stop offset=".82" stop-color="#c3e9fe"/><stop offset="1" stop-color="#cceffe"/></linearGradient><linearGradient id="D" x1="84.189" y1="316.543" x2="74.79" y2="285.801" xlink:href="#Q"><stop stop-color="#70aefe"/><stop offset=".16" stop-color="#83bcfe"/><stop offset=".527" stop-color="#abd7fe"/><stop offset=".82" stop-color="#c3e9fe"/><stop offset="1" stop-color="#cceffe"/></linearGradient><radialGradient id="E" cx="0" cy="0" r="1" gradientTransform="translate(143.506 312.013) rotate(-107.006) scale(43.1185 44.4783)" xlink:href="#Q"><stop stop-color="#32b4ba"/><stop offset=".163" stop-color="#30abba"/><stop offset=".429" stop-color="#2b93ba"/><stop offset=".762" stop-color="#236bba"/><stop offset="1" stop-color="#1d4bba"/></radialGradient><linearGradient id="F" x1="149.474" y1="334.134" x2="145.888" y2="322.404" xlink:href="#Q"><stop stop-color="#70aefe"/><stop offset=".16" stop-color="#83bcfe"/><stop offset=".527" stop-color="#abd7fe"/><stop offset=".82" stop-color="#c3e9fe"/><stop offset="1" stop-color="#cceffe"/></linearGradient><linearGradient id="G" x1="144.392" y1="316.543" x2="134.994" y2="285.801" xlink:href="#Q"><stop stop-color="#70aefe"/><stop offset=".16" stop-color="#83bcfe"/><stop offset=".527" stop-color="#abd7fe"/><stop offset=".82" stop-color="#c3e9fe"/><stop offset="1" stop-color="#cceffe"/></linearGradient><radialGradient id="H" cx="0" cy="0" r="1" gradientTransform="translate(201.603 312.013) rotate(-107.006) scale(43.1185 44.4783)" xlink:href="#Q"><stop stop-color="#32b4ba"/><stop offset=".163" stop-color="#30abba"/><stop offset=".429" stop-color="#2b93ba"/><stop offset=".762" stop-color="#236bba"/><stop offset="1" stop-color="#1d4bba"/></radialGradient><linearGradient id="I" x1="207.576" y1="334.134" x2="203.99" y2="322.404" xlink:href="#Q"><stop stop-color="#70aefe"/><stop offset=".16" stop-color="#83bcfe"/><stop offset=".527" stop-color="#abd7fe"/><stop offset=".82" stop-color="#c3e9fe"/><stop offset="1" stop-color="#cceffe"/></linearGradient><linearGradient id="J" x1="202.489" y1="316.543" x2="193.091" y2="285.801" xlink:href="#Q"><stop stop-color="#70aefe"/><stop offset=".16" stop-color="#83bcfe"/><stop offset=".527" stop-color="#abd7fe"/><stop offset=".82" stop-color="#c3e9fe"/><stop offset="1" stop-color="#cceffe"/></linearGradient><linearGradient id="K" x1="74.271" y1="191.061" x2="122.991" y2="219.194" xlink:href="#Q"><stop stop-color="#ec6f66"/><stop offset=".008" stop-color="#ec6d65"/><stop offset=".17" stop-color="#ec504d"/><stop offset=".341" stop-color="#ec393b"/><stop offset=".525" stop-color="#ec292e"/><stop offset=".731" stop-color="#ec1f26"/><stop offset="1" stop-color="#ec1c24"/></linearGradient><linearGradient id="L" x1="163.271" y1="212.839" x2="211.99" y2="184.706" xlink:href="#Q"><stop stop-color="#4ce02d"/><stop offset=".094" stop-color="#52e733"/><stop offset=".17" stop-color="#44d626"/><stop offset=".341" stop-color="#3ac91d"/><stop offset=".525" stop-color="#37c41a"/><stop offset=".731" stop-color="#32bd15"/><stop offset="1" stop-color="#30bb13"/></linearGradient><radialGradient id="M" cx="0" cy="0" r="1" gradientTransform="translate(85.1458 88.3176) rotate(-17.0004) scale(43.1663 43.1439)" xlink:href="#Q"><stop stop-color="#aedb60"/><stop offset=".24" stop-color="#a5d65a"/><stop offset=".631" stop-color="#8dc948"/><stop offset="1" stop-color="#70b934"/></radialGradient><radialGradient id="N" cx="0" cy="0" r="1" gradientTransform="translate(145.255 87.2839) rotate(-17.0004) scale(43.3178 43.144)" xlink:href="#Q"><stop stop-color="#c5e2f9"/><stop offset=".175" stop-color="#bcdbf1"/><stop offset=".462" stop-color="#a4c7db"/><stop offset=".821" stop-color="#7ca8b8"/><stop offset="1" stop-color="#6696a4"/></radialGradient><radialGradient id="O" cx="0" cy="0" r="1" gradientTransform="translate(201.067 88.3419) rotate(-17.0004) scale(43.1397 43.1174)" xlink:href="#Q"><stop stop-color="#a3db6e"/><stop offset=".172" stop-color="#9ad66b"/><stop offset=".451" stop-color="#82c964"/><stop offset=".802" stop-color="#5ab458"/><stop offset="1" stop-color="#41a750"/></radialGradient><path id="P" d="M187.155 69.28l25.756-7.618s3.488-1.067 4.705.757c1.408 2.11.149 3.497.149 3.497l-6.588 2.18s-.221 5.004 5.199 14.646c2.335 4.155 3.44 11.406 2.801 15.365-.845 5.227-4.059 6.897-4.059 6.897s-1 .9-4.145 1.365-24.787 4.221-24.787 4.221-5.089.557-4.122-5.552c.645-4.083 5.261-4.623 5.261-4.623l2.502-.617s-.522-6.168-3.133-10.98c-2.327-4.289-7.73-13.731.461-19.538z"/><linearGradient id="Q" gradientUnits="userSpaceOnUse"/></defs></svg>