<svg xmlns="http://www.w3.org/2000/svg" width="292" height="407" fill="none"  xmlns:v="https://vecta.io/nano"><path d="M16.233 390c-1.636-.002-3.204-.652-4.361-1.809a6.18 6.18 0 0 1-1.809-4.361V16.169c.002-1.636.653-3.204 1.81-4.36s2.725-1.807 4.36-1.809h253.162c1.635.002 3.203.653 4.359 1.809a6.18 6.18 0 0 1 1.81 4.36V383.83c-.002 1.636-.653 3.204-1.809 4.36s-2.725 1.808-4.36 1.81H16.233z" fill="url(#A)"/><path d="M265.562 20v360H20.063V20h245.5zm3.832-20H16.232C7.302 0 .063 7.239.063 16.169V383.83c0 8.931 7.239 16.17 16.17 16.17h253.162c8.929 0 16.168-7.239 16.168-16.17V16.169c0-8.93-7.24-16.169-16.168-16.169z" fill="#a1ecba"/><path d="M269.394 10c1.635.002 3.203.653 4.359 1.809s1.807 2.724 1.809 4.36V383.83a6.17 6.17 0 0 1-1.808 4.36c-1.157 1.157-2.725 1.808-4.36 1.81H16.232c-1.636-.002-3.204-.652-4.361-1.809s-1.807-2.725-1.809-4.361V16.169c.002-1.636.653-3.204 1.81-4.36A6.18 6.18 0 0 1 16.232 10h253.163zm0-10H16.232C7.302 0 .063 7.239.063 16.169V383.83c0 8.931 7.239 16.17 16.17 16.17h253.162c8.929 0 16.168-7.239 16.168-16.17V16.169c0-8.93-7.24-16.169-16.168-16.169z" fill="#414042"/><path d="M166.33 215.371l-84.324 24.18c-6.338 1.817-13.015-1.885-14.832-8.222l-24.18-84.324c-1.817-6.338 1.885-13.016 8.222-14.833l84.324-24.179c6.338-1.817 13.016 1.885 14.833 8.222l24.179 84.323c1.818 6.338-1.884 13.016-8.221 14.833z" fill="url(#B)" stroke="#d97474" stroke-width="2.5"/><path d="M135.195 106.791c7.001-2.007 14.371 2.079 16.378 9.079l24.179 84.324c2.008 7.001-2.078 14.371-9.078 16.378l-84.324 24.18c-7.001 2.007-14.371-2.079-16.378-9.079l-24.179-84.324c-2.008-7.001 2.078-14.371 9.079-16.378l84.324-24.18zm-.7-2.441l-84.324 24.179c-8.365 2.399-13.218 11.156-10.82 19.52l24.179 84.324c2.399 8.365 11.155 13.218 19.52 10.82l84.323-24.179c8.365-2.399 13.218-11.156 10.82-19.52l-24.18-84.324c-2.398-8.365-11.154-13.219-19.519-10.82z" fill="#414042"/><path d="M118.89 210.697a9.09 9.09 0 0 1-4.689.097c-3.3-.82-5.822-3.235-6.747-6.461s-.065-6.609 2.298-9.054c1.092-1.129 2.485-1.96 4.028-2.402s3.166-.477 4.69-.097c3.299.821 5.821 3.236 6.746 6.461s.066 6.609-2.297 9.054c-1.091 1.128-2.485 1.959-4.029 2.402z" fill="#9cbbd0"/><path d="M114.054 193.832c1.348-.387 2.795-.432 4.176-.088 6.282 1.563 8.473 9.205 3.974 13.859-.99 1.024-2.24 1.752-3.588 2.138s-2.795.432-4.176.089c-6.283-1.563-8.474-9.205-3.974-13.86.989-1.023 2.239-1.751 3.588-2.138zm-.548-1.911a10.07 10.07 0 0 0-4.469 2.668c-2.613 2.703-3.563 6.448-2.539 10.019s3.814 6.244 7.463 7.151c1.693.421 3.492.384 5.203-.106s3.257-1.414 4.469-2.668c2.613-2.703 3.562-6.448 2.538-10.018s-3.813-6.244-7.462-7.152c-1.692-.421-3.492-.385-5.203.106z" fill="#414042"/><path d="M105.057 185.877c-.16.046-.327.059-.491.039a1.26 1.26 0 0 1-.469-.154c-.144-.082-.27-.192-.372-.323s-.176-.281-.218-.442c-1.539-5.852 1.11-12.449 4.103-16.672 3.618-5.1 5.257-9.959 4.386-12.997-1.465-5.109-6.416-4.515-9.237-3.706-4.79 1.374-7.406 4.77-7.998 10.384a1.23 1.23 0 0 1-.889 1.062c-.207.059-.425.063-.633.011l-12.38-3.077c-.293-.074-.549-.251-.721-.498a1.25 1.25 0 0 1-.216-.85c1.15-10.418 8.314-18.496 19.165-21.608 5.731-1.643 11.366-1.382 16.746.778s8.988 6.307 10.712 12.318c2.376 8.289-1.532 14.929-4.673 20.263-2.31 3.924-4.305 7.313-3.528 10.424.079.309.035.637-.124.913a1.22 1.22 0 0 1-.725.569l-12.438 3.566z" fill="#9cbbd0"/><path d="M99.359 138.002c5.61-1.609 10.956-1.321 16.103.745s8.491 5.965 10.126 11.668c3.96 13.809-10.249 22.49-8.208 30.655.016.059.008.122-.022.175s-.079.093-.137.11l-12.44 3.567c-.065.018-.135.01-.194-.024s-.102-.088-.121-.153c-1.436-5.464 1.116-11.841 3.954-15.845 2.884-4.065 5.71-9.733 4.531-13.847-1.261-4.395-5.136-5.915-10.467-4.386-5.156 1.478-8.084 5.261-8.714 11.235-.005.048-.024.094-.055.131s-.072.065-.119.079a.22.22 0 0 1-.119.002l-12.38-3.076a.26.26 0 0 1-.145-.102c-.035-.049-.05-.11-.044-.171 1.138-10.312 8.423-17.888 18.451-20.763zm-.548-1.911c-5.365 1.538-10.028 4.363-13.483 8.167-3.589 3.952-5.8 8.893-6.396 14.288-.124 1.109.601 2.151 1.686 2.421l12.379 3.076c.309.077.631.087.944.029s.61-.183.87-.366a2.22 2.22 0 0 0 .64-.694c.161-.274.262-.58.295-.896.545-5.171 2.928-8.289 7.285-9.539 3.01-.863 6.842-1.039 8.007 3.024.789 2.751-.796 7.292-4.24 12.148-3.124 4.407-5.881 11.318-4.256 17.501.077.288.21.558.392.794a2.25 2.25 0 0 0 .667.581c.26.147.546.241.843.277s.597.012.884-.069l12.439-3.567a2.22 2.22 0 0 0 1.541-2.675c-.68-2.72 1.219-5.946 3.419-9.682 3.237-5.498 7.266-12.342 4.771-21.042-1.813-6.321-5.614-10.683-11.297-12.966-5.59-2.243-11.442-2.516-17.391-.81z" fill="#414042"/><path d="M147.003 296.191a11.99 11.99 0 0 1-11.972-11.972v-87.722a11.99 11.99 0 0 1 11.972-11.972h87.722a11.99 11.99 0 0 1 11.971 11.972v87.721a11.99 11.99 0 0 1-11.971 11.972h-87.722v.001z" fill="url(#C)"/><path d="M234.726 185.795c5.901 0 10.701 4.801 10.701 10.701v87.722c0 5.901-4.801 10.702-10.701 10.702h-87.723c-5.901 0-10.702-4.801-10.702-10.702v-87.722c0-5.901 4.802-10.701 10.702-10.701h87.723zm0-2.54h-87.723c-7.283 0-13.241 5.959-13.241 13.241v87.722c0 7.284 5.959 13.242 13.241 13.242h87.722c7.283 0 13.242-5.959 13.242-13.242v-87.722c0-7.282-5.959-13.241-13.241-13.241z" fill="#9cbbd0"/><path d="M234.726 183.255c7.284 0 13.242 5.959 13.242 13.242v87.721c0 7.284-5.959 13.242-13.242 13.242h-87.722c-7.283 0-13.242-5.959-13.242-13.242v-87.721c0-7.284 5.959-13.242 13.242-13.242h87.722zm0-2.54h-87.722c-8.702 0-15.781 7.08-15.781 15.782v87.721c0 8.703 7.079 15.782 15.781 15.782h87.722c8.701 0 15.781-7.08 15.781-15.782v-87.721c.001-8.702-7.079-15.782-15.781-15.782z" fill="#414042"/><path d="M190.415 278.641a9.09 9.09 0 0 1-4.535-1.198c-2.946-1.699-4.704-4.716-4.704-8.071s1.758-6.371 4.704-8.069c1.361-.785 2.929-1.199 4.535-1.199s3.174.414 4.535 1.199c2.945 1.698 4.703 4.714 4.703 8.069s-1.758 6.373-4.703 8.071a9.09 9.09 0 0 1-4.535 1.198z" fill="#7290a7"/><path d="M190.413 261.097a8.09 8.09 0 0 1 4.038 1.066c5.609 3.234 5.609 11.184 0 14.418-1.233.711-2.635 1.066-4.038 1.066s-2.805-.355-4.038-1.066c-5.609-3.234-5.609-11.184 0-14.418 1.233-.711 2.635-1.066 4.038-1.066zm0-1.988c-1.78 0-3.52.461-5.031 1.332-3.257 1.878-5.202 5.217-5.202 8.932s1.945 7.053 5.202 8.931c1.511.871 3.251 1.332 5.031 1.332s3.52-.461 5.031-1.332c3.257-1.878 5.202-5.217 5.202-8.931s-1.945-7.054-5.202-8.932a10.08 10.08 0 0 0-5.031-1.332z" fill="#414042"/><path d="M183.958 250.971c-.165-.001-.33-.034-.483-.099a1.24 1.24 0 0 1-.407-.277c-.116-.118-.208-.259-.269-.413s-.091-.319-.088-.485c.134-6.049 4.499-11.661 8.54-14.895 4.883-3.905 7.798-8.124 7.798-11.285 0-5.315-4.922-6.108-7.857-6.108-4.983 0-8.435 2.544-10.551 7.777-.092.229-.25.426-.455.564s-.446.212-.692.212a1.23 1.23 0 0 1-.612-.164l-11.052-6.371c-.262-.151-.459-.392-.556-.677s-.088-.597.026-.876c3.977-9.698 13.091-15.489 24.379-15.489 5.963 0 11.307 1.805 15.883 5.364s6.902 8.54 6.902 14.793c0 8.623-5.588 13.928-10.077 18.191-3.303 3.135-6.154 5.842-6.264 9.048-.009.318-.142.621-.371.843s-.535.347-.854.347h-12.94z" fill="#7290a7"/><path d="M191.681 203.379c5.835 0 10.895 1.75 15.273 5.155s6.518 8.074 6.518 14.008c0 14.365-16.051 18.793-16.34 27.204-.001.061-.026.12-.069.163a.23.23 0 0 1-.163.067h-12.94c-.068 0-.133-.027-.18-.076s-.074-.113-.074-.18c.125-5.649 4.336-11.076 8.168-14.142 3.892-3.113 8.171-7.782 8.171-12.061 0-4.573-3.306-7.102-8.851-7.102-5.364 0-9.221 2.829-11.473 8.398a.25.25 0 0 1-.089.112c-.041.027-.088.042-.137.043-.04 0-.08-.011-.115-.031l-11.052-6.371a.25.25 0 0 1-.112-.137c-.019-.057-.018-.12.005-.176 3.936-9.599 13.027-14.874 23.46-14.874zm0-1.988c-5.582 0-10.843 1.43-15.213 4.135-4.539 2.809-8.027 6.949-10.086 11.972-.425 1.031-.015 2.233.954 2.791l11.051 6.37c.276.159.583.257.9.287s.636-.008.937-.112a2.23 2.23 0 0 0 .807-.49 2.22 2.22 0 0 0 .531-.78c1.949-4.821 5.099-7.161 9.632-7.161 3.131 0 6.863.887 6.863 5.113 0 2.862-2.775 6.791-7.425 10.509-4.216 3.375-8.772 9.258-8.914 15.65a2.24 2.24 0 0 0 .158.871c.109.277.273.529.481.743s.458.382.733.498.571.176.869.177H196.9c.576.001 1.13-.222 1.544-.623s.656-.947.674-1.523c.096-2.803 2.811-5.38 5.955-8.365 4.628-4.393 10.387-9.861 10.387-18.912 0-6.575-2.452-11.816-7.285-15.577-4.756-3.698-10.305-5.573-16.494-5.573z" fill="#414042"/><defs><radialGradient id="A" cx="0" cy="0" r="1" gradientUnits="userSpaceOnUse" gradientTransform="translate(142.814 200) scale(163.894 169.057)"><stop stop-color="#5bcd81"/><stop offset="1" stop-color="#3fa964"/></radialGradient><radialGradient id="B" cx="0" cy="0" r="1" gradientUnits="userSpaceOnUse" gradientTransform="translate(108.772 173.772) rotate(-16) scale(57.1028)"><stop offset=".181" stop-color="#fe404d"/><stop offset=".894" stop-color="#e52c2a"/></radialGradient><radialGradient id="C" cx="0" cy="0" r="1" gradientUnits="userSpaceOnUse" gradientTransform="translate(190.863 240.358) scale(55.8329)"><stop offset=".297" stop-color="#f6ffff"/><stop offset="1" stop-color="#cceffe"/></radialGradient></defs></svg>