<svg xmlns="http://www.w3.org/2000/svg" xmlns:xlink="http://www.w3.org/1999/xlink" height="406.205" width="291.969"><defs><path id="c" d="M42.975 96.287h209.437V288.86H42.975z"/></defs><symbol viewBox="-146 -203 292 407" id="b"><image xlink:href="../GAME%20ASSETS-2/cards/SVG/5F8F315.png" width="292" height="407" transform="matrix(1 0 0 -1 -146 204)" overflow="visible" opacity=".3"/><radialGradient gradientUnits="userSpaceOnUse" gradientTransform="matrix(0 1 -1.0315 0 .085 6.09)" r="163.894" cy="3.04" cx="-3.05" id="a"><stop stop-color="#c889ba" offset="0"/><stop stop-color="#bf83ba" offset=".207"/><stop stop-color="#a774ba" offset=".544"/><stop stop-color="#7f5cba" offset=".967"/><stop stop-color="#7c5aba" offset="1"/></radialGradient><path fill="url(#a)" d="M-129.63-186.96a6.177 6.177 0 00-6.17 6.17v367.661a6.177 6.177 0 006.17 6.169h253.16a6.176 6.176 0 006.169-6.169V-180.79a6.177 6.177 0 00-6.169-6.17h-253.16z"/><path fill="#c99ee8" d="M119.7 183.04v-360h-245.5v360h245.5m3.83 20h-253.16c-8.931 0-16.17-7.238-16.17-16.169V-180.79c0-8.93 7.239-16.17 16.17-16.17h253.16c8.93 0 16.169 7.24 16.169 16.17v367.661c.001 8.931-7.239 16.169-16.169 16.169z"/><path fill="#414042" d="M123.53 193.04a6.176 6.176 0 006.169-6.169V-180.79a6.177 6.177 0 00-6.169-6.17h-253.16a6.177 6.177 0 00-6.17 6.17v367.661a6.177 6.177 0 006.17 6.169h253.16m0 10h-253.16c-8.931 0-16.17-7.238-16.17-16.169V-180.79c0-8.93 7.239-16.17 16.17-16.17h253.16c8.93 0 16.169 7.24 16.169 16.17v367.661c.001 8.931-7.239 16.169-16.169 16.169z"/></symbol><use overflow="visible" transform="matrix(1 0 0 -1 145.969 203.205)" y="-203" x="-146" height="407" width="292" xlink:href="#b" fill="#918a6f"/><text x="96.787" style="line-height:1.25;white-space:pre;shape-inside:url(#c)" font-weight="400" font-size="40" font-family="sans-serif"><tspan x="72.498" y="132.78"><tspan style="text-align:center" text-anchor="middle">Sience: </tspan></tspan><tspan x="102.498" y="182.78"><tspan style="text-align:center" text-anchor="middle">road </tspan></tspan><tspan x="62.967" y="232.78"><tspan style="text-align:center" text-anchor="middle">buildling</tspan></tspan></text></svg>