<svg xmlns="http://www.w3.org/2000/svg" width="292" height="407" fill="none"  xmlns:v="https://vecta.io/nano"><style><![CDATA[.B{fill:#f2fff2}.C{fill:#283b28}.D{opacity:.3}.E{fill:#344e33}]]></style><path d="M16.233 390c-1.636-.002-3.204-.652-4.361-1.809a6.18 6.18 0 0 1-1.809-4.361V16.169c.002-1.636.653-3.204 1.81-4.36s2.725-1.807 4.36-1.809h253.162c1.635.002 3.203.653 4.359 1.809a6.18 6.18 0 0 1 1.81 4.36V383.83c-.002 1.636-.653 3.204-1.809 4.36s-2.725 1.808-4.36 1.81H16.233z" fill="url(#A)"/><path d="M265.562 20v360H20.063V20h245.5zm3.832-20H16.232C7.302 0 .063 7.239.063 16.169V383.83c0 8.931 7.239 16.17 16.17 16.17h253.162c8.929 0 16.168-7.239 16.168-16.17V16.169c0-8.93-7.24-16.169-16.168-16.169z" fill="#a1ecba"/><path d="M269.394 10c1.635.002 3.203.653 4.359 1.809s1.807 2.724 1.809 4.36V383.83a6.17 6.17 0 0 1-1.808 4.36c-1.157 1.157-2.725 1.808-4.36 1.81H16.232c-1.636-.002-3.204-.652-4.361-1.809s-1.807-2.725-1.809-4.361V16.169c.002-1.636.653-3.204 1.81-4.36A6.18 6.18 0 0 1 16.232 10h253.163zm0-10H16.232C7.302 0 .063 7.239.063 16.169V383.83c0 8.931 7.239 16.17 16.17 16.17h253.162c8.929 0 16.168-7.239 16.168-16.17V16.169c0-8.93-7.24-16.169-16.168-16.169z" fill="#414042"/><path d="M110.68 315.362a3.27 3.27 0 0 1-2.311-.957c-.613-.613-.958-1.444-.959-2.31v-6.401a3.27 3.27 0 0 1 .959-2.309c.613-.613 1.444-.957 2.311-.958h67.251c1.803 0 3.27 1.466 3.27 3.267v6.401c-.001.866-.346 1.697-.959 2.31a3.27 3.27 0 0 1-2.311.957H110.68z" class="B"/><path d="M177.931 304.356a1.34 1.34 0 0 1 1.34 1.339v6.4a1.34 1.34 0 0 1-1.34 1.339h-67.252a1.34 1.34 0 0 1-1.341-1.339v-6.4a1.34 1.34 0 0 1 1.341-1.339h67.252zm0-3.857h-67.252c-1.378.001-2.699.549-3.674 1.523s-1.523 2.295-1.525 3.673v6.4a5.21 5.21 0 0 0 1.525 3.674c.975.974 2.296 1.522 3.674 1.523h67.252a5.2 5.2 0 0 0 3.673-1.523c.975-.974 1.523-2.296 1.525-3.674v-6.4a5.2 5.2 0 0 0-5.198-5.196z" class="E"/><path d="M106.922 331.159c-1.325-.002-2.595-.529-3.531-1.465a5 5 0 0 1-1.465-3.531v-8.025a5 5 0 0 1 4.996-4.996h74.768c1.324.002 2.594.529 3.53 1.465s1.463 2.207 1.464 3.531v8.025c-.001 1.324-.528 2.594-1.464 3.531s-2.206 1.463-3.53 1.465h-74.768z" class="B"/><path d="M181.689 315.071c.813.001 1.593.324 2.167.899s.898 1.355.898 2.168v8.025c0 .813-.323 1.593-.898 2.168s-1.354.898-2.167.899h-74.768a3.05 3.05 0 0 1-1.174-.234 3.08 3.08 0 0 1-1.66-1.659c-.154-.373-.233-.771-.233-1.174v-8.025a3.07 3.07 0 0 1 .898-2.168c.285-.285.623-.511.995-.665a3.07 3.07 0 0 1 1.174-.234h74.768zm0-3.858h-74.768c-3.818 0-6.925 3.107-6.925 6.925v8.025c0 3.818 3.107 6.925 6.925 6.925h74.768c3.817 0 6.923-3.107 6.923-6.925v-8.025c-.001-3.818-3.106-6.925-6.923-6.925z" class="E"/><path d="M100.094 348.07a5.49 5.49 0 0 1-5.485-5.486v-.367l3.688-9.34a3.27 3.27 0 0 1 3.236-2.823h85.539a3.27 3.27 0 0 1 3.237 2.823l3.689 9.34v.367a5.49 5.49 0 0 1-1.608 3.877c-1.029 1.029-2.423 1.607-3.878 1.609h-88.418z" class="B"/><path d="M187.076 331.983a1.34 1.34 0 0 1 1.338 1.337l3.66 9.264a3.56 3.56 0 0 1-3.557 3.557h-88.421c-.944 0-1.848-.375-2.515-1.042a3.56 3.56 0 0 1-1.042-2.515l3.658-9.264c0-.739.598-1.337 1.338-1.337h85.54zm0-3.858h-85.539a5.21 5.21 0 0 0-3.317 1.199c-.932.773-1.565 1.847-1.791 3.037l-3.477 8.807-.269.683v.734c0 4.088 3.326 7.415 7.414 7.415h88.421c4.088 0 7.415-3.326 7.415-7.415v-.735l-.27-.683-3.478-8.806a5.21 5.21 0 0 0-1.793-3.036 5.22 5.22 0 0 0-3.317-1.2z" class="E"/><path d="M102.174 274.35c-1.462 0-2.855-.756-4.146-1.587L41.578 242.8c-4.219-2.409-6.877-6.869-6.989-11.668l-.659-28.275-.001-5.854a9.54 9.54 0 0 1 9.528-9.526h57.931a9.54 9.54 0 0 1 9.527 9.526v3.086c0 3.132-1.607 4.521-2.954 5.134-1.501.682-3.293.738-5.312.738l-47.615-.003c-.695 0-1.362.276-1.854.767s-.769 1.158-.771 1.853v18.21a.64.64 0 0 0 .232.494l47.608 23.602.092.06c.751.484 1.399 1.112 1.905 1.847a6.75 6.75 0 0 1 1.046 2.439c.314 1.439.148 2.942-.47 4.279l3.687 11.732-.494.761c-1.009 1.558-2.302 2.348-3.843 2.348z" class="B"/><path d="M101.389 189.406c4.179 0 7.598 3.418 7.598 7.597v3.085c0 3.751-2.753 3.944-6.337 3.944-.411 0-.831-.003-1.261-.003H55.035c-1.207 0-2.365.479-3.219 1.332a4.55 4.55 0 0 0-1.335 3.217v18.21a2.57 2.57 0 0 0 1.172 2.156l47.643 23.618c2.253 1.456 2.9 4.491 1.441 6.741l3.661 11.648c-.68 1.05-1.41 1.469-2.225 1.469-.93 0-1.969-.546-3.168-1.322l-56.523-30.003c-1.772-1.013-3.253-2.467-4.298-4.221s-1.62-3.747-1.667-5.788l-.659-28.275v-5.808c0-4.179 3.419-7.597 7.599-7.597h57.933zm0-3.858H43.457c-6.317 0-11.457 5.139-11.457 11.455v5.853l.001.045.659 28.275a15.79 15.79 0 0 0 7.908 13.269l.052.03.054.028 56.38 29.927c1.52.972 3.192 1.848 5.121 1.848 1.538 0 3.733-.561 5.463-3.231l.985-1.523-.543-1.73-3.206-10.204a8.68 8.68 0 0 0 .308-4.765 8.66 8.66 0 0 0-1.344-3.132c-.651-.945-1.482-1.751-2.447-2.372l-.183-.118-.197-.099-46.671-23.136v-17.39c.001-.184.075-.36.205-.489s.307-.202.491-.202h46.354l.632.001.628.002c2.165 0 4.26-.069 6.11-.911 1.526-.695 4.085-2.512 4.085-6.891v-3.085c0-6.316-5.139-11.455-11.456-11.455z" class="C"/><path d="M184.218 274.35c-1.542 0-2.834-.791-3.843-2.351l-.492-.761 3.685-11.731c-.619-1.336-.784-2.838-.471-4.276.184-.875.539-1.704 1.046-2.44s1.154-1.365 1.905-1.849l.093-.06 47.608-23.602c.073-.06.131-.135.171-.221s.061-.178.061-.272v-18.209a2.62 2.62 0 0 0-.77-1.852 2.63 2.63 0 0 0-1.853-.768l-47.615.003c-3.092 0-8.266 0-8.266-5.872v-3.086a9.54 9.54 0 0 1 9.528-9.526h57.93c5.254 0 9.529 4.274 9.529 9.526v5.808l-.662 28.321a13.83 13.83 0 0 1-1.946 6.726c-1.214 2.038-2.933 3.729-4.99 4.912l-56.502 29.994c-1.29.83-2.685 1.586-4.146 1.586z" class="B"/><path d="M242.931 189.406c4.18 0 7.6 3.418 7.6 7.597v5.808l-.661 28.275c-.047 2.041-.621 4.035-1.666 5.789a11.84 11.84 0 0 1-4.299 4.22l-56.523 30.003c-1.199.776-2.239 1.322-3.169 1.322-.814 0-1.544-.42-2.223-1.469l3.658-11.648a4.89 4.89 0 0 1 1.442-6.741l47.642-23.618c.36-.233.655-.552.86-.929s.313-.798.313-1.227v-18.21a4.56 4.56 0 0 0-.348-1.741 4.53 4.53 0 0 0-.987-1.476c-.422-.423-.924-.758-1.476-.986s-1.144-.346-1.742-.346h-46.354l-1.261.003c-3.585 0-6.338-.193-6.338-3.944v-3.085c0-4.179 3.419-7.597 7.599-7.597h57.933zm0-3.858H185c-6.317 0-11.457 5.139-11.457 11.455v3.085c0 4.378 2.559 6.196 4.085 6.891 1.849.842 3.946.911 6.111.911l.627-.002.633-.001h46.354c.184 0 .36.073.49.202s.204.305.205.489v17.391l-46.671 23.136-.198.099-.184.119a8.69 8.69 0 0 0-2.446 2.373c-.65.945-1.106 2.01-1.342 3.133-.344 1.585-.238 3.235.307 4.762l-3.205 10.205-.543 1.729.985 1.521c1.728 2.672 3.924 3.233 5.462 3.233 1.928 0 3.6-.876 5.121-1.848l56.379-29.927.053-.028.053-.029c4.751-2.714 7.782-7.799 7.908-13.27l.661-28.274.001-.046v-5.853c0-6.317-5.14-11.456-11.458-11.456z" class="C"/><path d="M112.84 306.286l.653-2.43 2.107-6.748c.724-2.024.724-2.024-.07-5.694l-.69-3.256c-24.769-12.764-40.719-41.115-40.719-72.529v-20.697c0-4.111 3.344-7.454 7.454-7.454h122.45c4.095.032 7.413 3.377 7.413 7.454v20.697c0 31.414-15.949 59.765-40.717 72.529l-.692 3.261c-.793 3.668-.793 3.668-.068 5.692.466 1.301 1.17 3.264 2.106 6.744l.653 2.431H112.84z" class="B"/><path d="M81.58 189.406h122.451c1.458.011 2.853.598 3.88 1.633s1.604 2.434 1.604 3.892v20.697c0 31.967-16.686 59.396-40.491 71.23-2.414 11.931-2.022 5.57 1.185 17.499h-54.848c3.205-11.93 3.599-5.568 1.185-17.499-23.806-11.834-40.492-39.263-40.492-71.23v-20.697a5.53 5.53 0 0 1 1.619-3.907c1.036-1.036 2.441-1.618 3.907-1.618zm0-3.858a9.32 9.32 0 0 0-3.592.71 9.31 9.31 0 0 0-3.042 2.038c-.875.869-1.568 1.903-2.04 3.042s-.714 2.361-.71 3.594v20.697c0 31.783 16.01 60.524 40.945 73.815l.507 2.378c.346 1.599.596 2.754.596 3.186 0 .166-.165.635-.457 1.451-.477 1.329-1.196 3.338-2.153 6.897l-1.306 4.859h64.913l-1.307-4.86c-.956-3.556-1.675-5.565-2.152-6.893-.265-.743-.458-1.277-.458-1.452 0-.43.25-1.586.595-3.183l.509-2.383c24.935-13.291 40.944-42.032 40.944-73.815v-20.697c0-5.133-4.176-9.343-9.31-9.383H81.58v-.001z" class="C"/><path d="M109.904 314.398c-.405 0-.792-.161-1.078-.447s-.447-.674-.447-1.078v-7.956c0-.841.684-1.525 1.525-1.525h68.81a1.53 1.53 0 0 1 1.526 1.525v7.956a1.53 1.53 0 0 1-1.526 1.525h-68.81z" class="B"/><path d="M178.71 304.357c.308 0 .561.252.561.56v7.956a.56.56 0 0 1-.561.56h-68.811a.56.56 0 0 1-.56-.56v-7.956a.56.56 0 0 1 .56-.56h68.811zm0-1.929h-68.811a2.49 2.49 0 0 0-2.489 2.489v7.956a2.49 2.49 0 0 0 .73 1.759c.467.467 1.099.73 1.759.73h68.811a2.49 2.49 0 0 0 1.76-.729 2.5 2.5 0 0 0 .73-1.76v-7.956a2.5 2.5 0 0 0-.73-1.76c-.467-.466-1.1-.729-1.76-.729z" class="C"/><path d="M105.138 330.194c-.596 0-1.167-.237-1.588-.658s-.659-.993-.659-1.588v-11.594a2.25 2.25 0 0 1 .658-1.589c.422-.421.993-.658 1.589-.659h78.334a2.25 2.25 0 0 1 2.247 2.248v11.594a2.25 2.25 0 0 1-2.247 2.246h-78.334z" class="B"/><path d="M183.472 315.071c.706 0 1.282.575 1.282 1.283v11.594c-.001.34-.136.666-.376.906s-.566.375-.906.376h-78.335a1.28 1.28 0 0 1-1.282-1.282v-11.594c0-.708.575-1.283 1.282-1.283h78.335zm0-1.929h-78.335c-.851.001-1.667.34-2.269.942a3.21 3.21 0 0 0-.942 2.27v11.594c.001.851.34 1.667.942 2.269s1.418.941 2.269.942h78.335c.851-.001 1.667-.34 2.269-.942s.941-1.418.942-2.269v-11.594c-.001-.852-.34-1.668-.942-2.27s-1.418-.941-2.269-.942z" class="C"/><path d="M100.095 347.105c-1.199-.001-2.348-.478-3.195-1.326s-1.324-1.997-1.325-3.195v-.184l3.668-9.288c.052-.572.317-1.103.741-1.491a2.3 2.3 0 0 1 1.552-.602h85.539c.574 0 1.128.215 1.552.602s.689.919.741 1.491l3.669 9.288v.184c-.001 1.198-.478 2.348-1.325 3.195s-1.997 1.325-3.196 1.326h-88.42z" class="B"/><path d="M187.073 331.984c.741 0 1.339.598 1.339 1.336l3.659 9.264c0 .944-.374 1.848-1.041 2.515s-1.572 1.042-2.516 1.042h-88.421c-.943 0-1.847-.375-2.514-1.042s-1.041-1.571-1.041-2.515l3.659-9.264c0-.738.598-1.336 1.337-1.336h85.54zm0-1.929h-85.539c-.789 0-1.551.287-2.146.806s-.982 1.235-1.09 2.017l-3.554 8.998-.135.342v.367a5.49 5.49 0 0 0 5.485 5.486h88.421c1.455-.002 2.849-.58 3.878-1.609a5.49 5.49 0 0 0 1.608-3.877v-.367l-.135-.342-3.555-8.998a3.27 3.27 0 0 0-3.238-2.823z" class="C"/><path d="M167.008 274.762a2.73 2.73 0 0 1-1.276-.319l-22.616-13.583c-.113-.048-.236-.071-.36-.066a.83.83 0 0 0-.354.093l-22.52 13.529a2.78 2.78 0 0 1-1.325.346c-.402-.001-.799-.09-1.164-.26s-.686-.419-.944-.727-.443-.663-.547-1.048-.121-.787-.052-1.18l4.311-25.131a.82.82 0 0 0-.029-.39c-.041-.126-.112-.241-.207-.333l-17.39-19.301c-.709-.689-.976-1.767-.652-2.767.156-.489.447-.924.838-1.255s.869-.545 1.377-.617l.069-.011h24.31c.12-.026.233-.079.329-.155a.82.82 0 0 0 .23-.282l11.27-25.038a2.74 2.74 0 0 1 2.476-1.561 2.73 2.73 0 0 1 2.463 1.53l11.3 25.102a.8.8 0 0 0 .226.262c.094.07.202.118.317.142h26.131l.07.011a2.73 2.73 0 0 1 1.376.617c.391.331.682.766.838 1.254s.18 1.008.057 1.506-.382.95-.75 1.307l-19.159 19.245a.84.84 0 0 0-.215.338c-.042.129-.053.266-.031.399l4.31 25.129a2.76 2.76 0 0 1-.607 2.235 2.75 2.75 0 0 1-.942.721c-.362.169-.758.257-1.158.258z" fill="#fff"/><path d="M142.783 195.67a1.76 1.76 0 0 1 1.598.992l11.284 25.071a1.78 1.78 0 0 0 1.341.973h26.143c1.459.215 2.043 2.009.987 3.04l-19.169 19.256c-.206.202-.361.451-.45.725s-.111.567-.063.852l4.311 25.132c.198 1.151-.719 2.086-1.757 2.086a1.76 1.76 0 0 1-.827-.209l-22.568-13.555c-.255-.135-.54-.206-.829-.206a1.77 1.77 0 0 0-.828.206l-22.568 13.555c-.255.136-.54.208-.829.209-1.038 0-1.954-.935-1.755-2.086l4.31-25.132c.049-.285.028-.577-.061-.852s-.244-.523-.451-.725l-17.347-19.256c-1.058-1.031-.473-2.826.987-3.04h24.322c.286-.042.557-.152.79-.321a1.78 1.78 0 0 0 .551-.652l11.284-25.071c.145-.299.371-.551.653-.727a1.75 1.75 0 0 1 .941-.265zm0-1.929a3.68 3.68 0 0 0-3.326 2.068l-.016.03-.015.031-11.21 24.907h-24.118l-.14.02a3.7 3.7 0 0 0-1.859.835 3.71 3.71 0 0 0-1.134 1.694c-.212.646-.241 1.338-.085 2s.493 1.267.973 1.749l17.312 19.219.032.034-4.298 25.057a3.71 3.71 0 0 0 .078 1.6c.141.521.395 1.006.743 1.419s.783.746 1.273.974a3.72 3.72 0 0 0 1.564.348c.593 0 1.189-.148 1.724-.428l.049-.027.049-.028 22.404-13.457 22.404 13.457.049.028.049.026c.532.28 1.123.427 1.724.429.543-.001 1.079-.12 1.571-.35a3.73 3.73 0 0 0 1.275-.981 3.68 3.68 0 0 0 .74-1.416c.14-.52.165-1.065.072-1.595l-4.297-25.056 19.134-19.221c.491-.481.838-1.091 1-1.76a3.68 3.68 0 0 0-.083-2.022 3.69 3.69 0 0 0-1.132-1.693 3.7 3.7 0 0 0-1.858-.835l-.14-.02h-25.94l-11.21-24.907-.015-.031-.015-.029a3.69 3.69 0 0 0-3.328-2.069z" class="C"/><g fill="#000" class="D"><path d="M176.797 148c-.256 0-.501-.101-.682-.282s-.282-.426-.282-.682V71.507l-17.542 4.975c-.246.07-.51.039-.733-.086a.97.97 0 0 1-.458-.578l-3.727-13.046c-.067-.236-.042-.489.071-.707s.304-.385.535-.467l24.493-8.65c.104-.036.213-.055.322-.055h13.311c.256 0 .502.102.682.282s.283.426.283.682v93.178c0 .256-.102.501-.283.682a.96.96 0 0 1-.682.282h-15.308V148z" class="D"/><path d="M192.105 53.858v93.177h-15.308V70.231l-18.769 5.324-3.728-13.046 24.493-8.65h13.312v-.001zm0-1.929h-13.312c-.219 0-.436.038-.642.11l-24.493 8.65a1.93 1.93 0 0 0-1.072.934c-.225.437-.276.943-.14 1.415l3.727 13.046a1.93 1.93 0 0 0 2.382 1.325l16.313-4.627v74.252c0 .512.203 1.003.565 1.364a1.93 1.93 0 0 0 1.364.565h15.307a1.93 1.93 0 0 0 1.364-.565c.362-.361.565-.852.565-1.364V53.858a1.93 1.93 0 0 0-.565-1.364c-.361-.362-.851-.565-1.363-.565z" class="D"/></g><path d="M174.863 146.072c-.255 0-.501-.102-.682-.283a.97.97 0 0 1-.282-.682V69.578l-17.542 4.975c-.246.07-.509.039-.732-.086a.96.96 0 0 1-.458-.578l-3.728-13.046c-.067-.236-.042-.489.071-.707s.304-.385.536-.467l24.493-8.651c.103-.036.212-.055.321-.055h13.312c.256 0 .501.102.682.282s.282.426.282.682v93.178c0 .256-.101.501-.282.682s-.426.283-.682.283h-15.309v.001z" class="B"/><path d="M190.175 51.929v93.178h-15.308V68.302l-18.769 5.324-3.727-13.046 24.493-8.65h13.311v-.001zm0-1.929h-13.311a1.95 1.95 0 0 0-.643.11l-24.493 8.65a1.93 1.93 0 0 0-1.212 2.35l3.728 13.046a1.93 1.93 0 0 0 2.381 1.325l16.313-4.627v74.253a1.93 1.93 0 0 0 1.929 1.929h15.307c.512 0 1.003-.203 1.364-.565a1.93 1.93 0 0 0 .565-1.364V51.929A1.93 1.93 0 0 0 190.175 50z" class="C"/><g fill="#000" class="D"><path d="M109.171 130.695c-.256 0-.501-.102-.682-.283s-.282-.426-.282-.682V108.2H86.675c-.256 0-.501-.102-.682-.283s-.282-.426-.282-.682V93.659c0-.256.102-.501.282-.682s.426-.282.682-.282h21.532V71.162c0-.256.101-.501.282-.682s.426-.282.682-.282h13.578c.256 0 .501.102.682.282s.282.426.282.682v21.533h21.532c.255 0 .501.102.682.282a.97.97 0 0 1 .282.682v13.576a.97.97 0 0 1-.282.682c-.181.181-.427.283-.682.283h-21.532v21.53c0 .256-.101.501-.282.682s-.426.283-.682.283h-13.578z" class="D"/><path d="M122.749 71.161v22.498h22.495v13.577h-22.495v22.494h-13.578v-22.494H86.675V93.659h22.496V71.161h13.578zm0-1.929h-13.578c-.512 0-1.003.203-1.364.565a1.93 1.93 0 0 0-.565 1.364V91.73H86.675a1.93 1.93 0 0 0-1.929 1.929v13.577c0 .511.203 1.002.565 1.363a1.93 1.93 0 0 0 1.364.565h20.567v20.566a1.93 1.93 0 0 0 .565 1.364c.361.362.852.565 1.364.565h13.578a1.93 1.93 0 0 0 1.929-1.929v-20.566h20.566a1.93 1.93 0 0 0 1.364-.565c.362-.361.565-.852.565-1.363V93.659a1.93 1.93 0 0 0-1.929-1.929h-20.566V71.161a1.93 1.93 0 0 0-1.929-1.929z" class="D"/></g><path d="M107.241 128.766c-.255 0-.501-.102-.682-.283s-.282-.426-.282-.682v-21.53H84.746c-.256 0-.501-.101-.682-.282s-.282-.427-.282-.682V91.731c0-.256.102-.501.282-.682s.426-.282.682-.282h21.531V69.233c0-.256.101-.501.282-.682s.427-.282.682-.282h13.578c.256 0 .501.102.682.282s.283.426.283.682v21.533h21.531c.256 0 .501.102.682.282s.282.426.282.682v13.576c0 .255-.101.501-.282.682s-.426.282-.682.282h-21.531v21.53c0 .256-.102.501-.283.682s-.426.283-.682.283h-13.578z" class="B"/><path d="M120.823 69.233V91.73h22.496v13.576h-22.496v22.495h-13.578v-22.495H84.749V91.73h22.496V69.233h13.578zm0-1.929h-13.578a1.93 1.93 0 0 0-1.929 1.929v20.569H84.749a1.93 1.93 0 0 0-1.929 1.929v13.576c0 .512.203 1.003.565 1.364a1.93 1.93 0 0 0 1.364.565h20.567v20.566a1.93 1.93 0 0 0 1.929 1.929h13.578a1.93 1.93 0 0 0 1.929-1.929v-20.566h20.567a1.93 1.93 0 0 0 1.929-1.929V91.73a1.93 1.93 0 0 0-1.929-1.929h-20.567V69.233a1.93 1.93 0 0 0-1.929-1.929z" class="C"/><defs><radialGradient id="A" cx="0" cy="0" r="1" gradientUnits="userSpaceOnUse" gradientTransform="translate(142.814 200) scale(163.894 169.057)"><stop stop-color="#5bcd81"/><stop offset="1" stop-color="#3fa964"/></radialGradient></defs></svg>