<svg xmlns="http://www.w3.org/2000/svg" xmlns:xlink="http://www.w3.org/1999/xlink" width="292" height="407" fill="none" xmlns:v="https://vecta.io/nano"><style><![CDATA[.B{fill:#223948}.C{opacity:.3}.D{fill:#414042}.E{fill:#66c2e2}.F{fill:#fbfbf9}.G{fill:#47412a}]]></style><path d="M16.201 390c-1.636-.002-3.204-.652-4.361-1.809a6.18 6.18 0 0 1-1.809-4.361V16.169c.002-1.636.653-3.204 1.81-4.36A6.18 6.18 0 0 1 16.201 10h253.161a6.18 6.18 0 0 1 6.169 6.169V383.83c-.002 1.636-.653 3.204-1.809 4.36s-2.725 1.808-4.36 1.81H16.201z" fill="url(#A)"/><path d="M265.531 20v360h-245.5V20h245.5zm3.831-20H16.201C7.271 0 .031 7.239.031 16.169V383.83c0 8.931 7.239 16.17 16.17 16.17h253.161c8.93 0 16.169-7.239 16.169-16.17V16.169c0-8.93-7.239-16.169-16.169-16.169z" fill="#fef3b8"/><path d="M269.362 10a6.18 6.18 0 0 1 6.169 6.169V383.83c-.002 1.636-.653 3.204-1.809 4.36s-2.725 1.808-4.36 1.81H16.201c-1.636-.002-3.204-.652-4.361-1.809s-1.807-2.725-1.809-4.361V16.169c.002-1.636.653-3.204 1.81-4.36A6.18 6.18 0 0 1 16.201 10h253.161zm0-10H16.201C7.271 0 .031 7.239.031 16.169V383.83c0 8.931 7.239 16.17 16.17 16.17h253.161c8.93 0 16.169-7.239 16.169-16.17V16.169c0-8.93-7.239-16.169-16.169-16.169z" class="D"/><path d="M53.546 256.434c-.405.124-.843.081-1.217-.118a1.6 1.6 0 0 1-.779-.943l-27.848-91.086a1.6 1.6 0 0 1 1.061-1.995l62.718-19.175a1.6 1.6 0 0 1 1.996 1.061l27.847 91.085a1.6 1.6 0 0 1-1.061 1.996l-62.718 19.175z" fill="url(#B)"/><path d="M87.289 145.884l27.268 89.188-60.821 18.594-27.267-89.187 60.821-18.595zm-.566-5.245l-62.718 19.175a4.19 4.19 0 0 0-2.781 5.231l27.848 91.085a4.19 4.19 0 0 0 5.231 2.781l62.718-19.175a4.19 4.19 0 0 0 2.782-5.23L91.954 143.42a4.19 4.19 0 0 0-5.231-2.781z" class="E"/><path d="M87.48 143.117c.405-.124.843-.081 1.217.118s.654.538.779.943l27.848 91.085a1.6 1.6 0 0 1-1.061 1.996l-62.719 19.175a1.6 1.6 0 0 1-1.996-1.061l-27.848-91.086a1.6 1.6 0 0 1 1.061-1.995l62.718-19.175zm-.757-2.478l-62.718 19.175a4.19 4.19 0 0 0-2.781 5.231l27.848 91.085a4.19 4.19 0 0 0 5.231 2.781l62.718-19.175a4.19 4.19 0 0 0 2.782-5.23L91.954 143.42a4.19 4.19 0 0 0-5.231-2.781z" class="D"/><path d="M76.392 221.559c-1.001.306-2.057.346-3.054.117-2.159-.497-3.829-2.042-4.468-4.133s-.118-4.305 1.394-5.924a5.92 5.92 0 0 1 2.597-1.611c1.001-.306 2.057-.346 3.054-.116 2.159.497 3.829 2.041 4.468 4.132s.118 4.305-1.394 5.924a5.92 5.92 0 0 1-2.597 1.611z" fill="url(#C)"/><path d="M73.049 210.627c.874-.267 1.816-.313 2.719-.105a5.4 5.4 0 0 1 2.746 8.984 5.27 5.27 0 0 1-2.313 1.433c-.874.267-1.816.313-2.719.105-4.111-.946-5.625-5.9-2.746-8.983a5.27 5.27 0 0 1 2.313-1.434zm-.379-1.238c-1.109.339-2.105.957-2.881 1.788-1.671 1.791-2.247 4.241-1.54 6.556s2.556 4.024 4.943 4.574a6.57 6.57 0 0 0 3.388-.129c1.109-.339 2.106-.957 2.881-1.788 1.671-1.791 2.247-4.241 1.54-6.556s-2.555-4.024-4.942-4.574a6.56 6.56 0 0 0-3.389.129z" class="B"/><path d="M67.098 205.547c-.103.032-.212.042-.32.031a.81.81 0 0 1-.307-.095c-.095-.051-.179-.121-.246-.206a.81.81 0 0 1-.147-.285c-1.069-3.795.582-8.123 2.484-10.908 2.299-3.363 3.311-6.548 2.709-8.517-1.012-3.311-4.231-2.868-6.059-2.309-3.105.95-4.771 3.192-5.093 6.856-.014.16-.075.313-.176.438s-.237.217-.391.264a.8.8 0 0 1-.413.014l-8.1-1.864c-.191-.044-.36-.157-.475-.316s-.168-.355-.15-.551c.63-6.8 5.206-12.144 12.239-14.294 3.715-1.136 7.389-1.03 10.918.316s5.927 4.006 7.118 7.902c1.643 5.373-.828 9.743-2.814 13.254-1.46 2.583-2.721 4.813-2.179 6.831a.8.8 0 0 1-.536.975l-8.062 2.464z" fill="url(#D)"/><path d="M62.842 174.424c3.636-1.112 7.122-.985 10.498.302s5.599 3.789 6.73 7.486c2.737 8.951-6.421 14.768-4.999 20.063.011.039.007.08-.012.115s-.05.061-.088.073l-8.063 2.465c-.042.013-.088.008-.127-.013s-.068-.056-.081-.099c-.998-3.543.592-7.726 2.395-10.367 1.832-2.681 3.609-6.405 2.794-9.071-.871-2.849-3.413-3.795-6.868-2.739-3.342 1.022-5.206 3.519-5.549 7.418-.003.031-.014.062-.034.086s-.046.044-.077.053-.052.009-.078.003l-8.1-1.864c-.038-.009-.072-.032-.096-.064s-.034-.072-.031-.111c.624-6.731 5.284-11.749 11.784-13.736zm-.379-1.239c-3.478 1.063-6.483 2.956-8.691 5.474-2.293 2.615-3.678 5.859-4.004 9.381-.068.723.416 1.394 1.126 1.557l8.099 1.864a1.45 1.45 0 0 0 .615.007 1.44 1.44 0 0 0 .563-.248c.168-.122.307-.278.409-.459a1.44 1.44 0 0 0 .182-.587c.296-3.375 1.813-5.433 4.637-6.297 1.951-.596 4.445-.754 5.251 1.879.545 1.783-.436 4.76-2.625 7.962-1.984 2.906-3.702 7.44-2.573 11.449a1.47 1.47 0 0 0 .705.884 1.47 1.47 0 0 0 1.127.116l8.063-2.465c.359-.11.662-.354.844-.683s.228-.715.13-1.077c-.474-1.765.727-3.888 2.117-6.347 2.046-3.618 4.593-8.122 2.869-13.761-1.253-4.098-3.778-6.896-7.507-8.319-3.667-1.398-7.482-1.509-11.338-.33z" class="B"/><path d="M102.456 256.021a1.6 1.6 0 0 1-1.996-1.061l-27.848-91.086a1.6 1.6 0 0 1 1.061-1.995l62.718-19.175c.405-.124.843-.081 1.217.118s.654.538.779.943l27.847 91.085a1.6 1.6 0 0 1-1.061 1.996l-62.718 19.175z" fill="url(#E)"/><path d="M136.203 145.471l27.268 89.188-60.821 18.594-27.268-89.187 60.821-18.595zm-.566-5.245l-62.718 19.175a4.19 4.19 0 0 0-2.781 5.23l27.848 91.086a4.19 4.19 0 0 0 5.231 2.781l62.718-19.175a4.19 4.19 0 0 0 2.782-5.23l-27.848-91.086a4.19 4.19 0 0 0-5.231-2.781z" class="E"/><path d="M136.395 142.704a1.6 1.6 0 0 1 1.217.117c.374.199.654.538.779.943l27.847 91.086c.124.405.081.843-.118 1.217s-.538.655-.943.779l-62.718 19.175c-.406.123-.843.081-1.218-.118a1.6 1.6 0 0 1-.778-.943l-27.848-91.086a1.6 1.6 0 0 1 1.061-1.995l62.719-19.175zm-.758-2.478l-62.718 19.175a4.19 4.19 0 0 0-2.781 5.23l27.848 91.086a4.19 4.19 0 0 0 5.231 2.781l62.718-19.175a4.19 4.19 0 0 0 2.782-5.23l-27.848-91.086a4.19 4.19 0 0 0-5.231-2.781z" class="D"/><path d="M125.301 221.146c-1.001.306-2.057.346-3.054.116-2.159-.497-3.829-2.041-4.468-4.132s-.118-4.305 1.394-5.924c.698-.748 1.596-1.305 2.597-1.611s2.056-.346 3.054-.116c2.158.497 3.829 2.041 4.468 4.132s.118 4.305-1.394 5.924c-.698.748-1.596 1.305-2.597 1.611z" fill="url(#F)"/><path d="M121.96 210.214c.874-.267 1.816-.313 2.719-.105a5.4 5.4 0 0 1 2.747 8.984 5.27 5.27 0 0 1-2.313 1.433c-.874.267-1.816.313-2.719.105-4.111-.946-5.626-5.9-2.747-8.983.633-.678 1.439-1.167 2.313-1.434zm-.379-1.239c-1.109.34-2.105.958-2.881 1.789-1.671 1.791-2.247 4.241-1.54 6.556s2.556 4.024 4.943 4.574c1.108.254 2.279.21 3.388-.129s2.106-.957 2.881-1.788c1.672-1.791 2.248-4.241 1.54-6.556s-2.555-4.024-4.942-4.574a6.57 6.57 0 0 0-3.389.128z" class="B"/><path d="M116.007 205.134a.8.8 0 0 1-.319.031.81.81 0 0 1-.307-.095.8.8 0 0 1-.246-.206.81.81 0 0 1-.148-.285c-1.068-3.795.583-8.123 2.484-10.908 2.299-3.364 3.312-6.548 2.71-8.517-1.013-3.311-4.231-2.868-6.06-2.309-3.105.95-4.771 3.192-5.093 6.856a.8.8 0 0 1-.175.438.81.81 0 0 1-.391.264c-.134.04-.277.045-.413.014l-8.1-1.864a.81.81 0 0 1-.475-.316c-.115-.16-.169-.355-.15-.551.63-6.8 5.205-12.144 12.239-14.294 3.715-1.136 7.389-1.03 10.918.316s5.927 4.006 7.118 7.902c1.643 5.373-.828 9.743-2.814 13.254-1.46 2.583-2.721 4.813-2.179 6.831a.8.8 0 0 1-.07.596c-.1.182-.268.318-.466.378l-8.063 2.465z" fill="url(#G)"/><path d="M111.752 174.011c3.635-1.112 7.122-.985 10.498.302s5.599 3.789 6.729 7.486c2.737 8.951-6.421 14.768-4.999 20.063.012.039.007.08-.011.115s-.051.061-.089.073l-8.063 2.465c-.042.013-.087.008-.126-.013s-.068-.056-.081-.099c-.998-3.543.592-7.726 2.396-10.367 1.832-2.681 3.609-6.405 2.793-9.072-.871-2.849-3.413-3.795-6.868-2.738-3.342 1.022-5.206 3.519-5.548 7.418-.003.031-.015.061-.035.086s-.046.043-.076.053-.052.009-.078.003l-8.1-1.864c-.039-.009-.072-.032-.095-.064s-.034-.072-.031-.111c.624-6.731 5.283-11.749 11.784-13.736zm-.379-1.239c-3.478 1.063-6.483 2.956-8.691 5.474-2.293 2.615-3.677 5.859-4.004 9.381-.068.723.416 1.394 1.126 1.557l8.099 1.864a1.45 1.45 0 0 0 .615.007c.204-.041.396-.126.563-.248s.308-.278.41-.459a1.45 1.45 0 0 0 .182-.587c.296-3.375 1.813-5.433 4.637-6.297 1.951-.596 4.446-.755 5.251 1.879.545 1.783-.436 4.76-2.625 7.962-1.984 2.906-3.702 7.44-2.573 11.449.053.187.143.361.264.513a1.47 1.47 0 0 0 .441.371c.171.093.359.151.552.171s.39.001.576-.056l8.063-2.465c.359-.109.661-.354.843-.682s.228-.715.13-1.077c-.474-1.765.727-3.888 2.117-6.347 2.046-3.618 4.593-8.122 2.869-13.762-1.253-4.097-3.778-6.895-7.507-8.318-3.667-1.398-7.482-1.509-11.338-.33z" class="B"/><path d="M149.295 256.02a1.6 1.6 0 0 1-1.217-.118c-.374-.199-.654-.539-.779-.944l-27.847-91.085c-.124-.406-.081-.843.118-1.217s.538-.654.943-.779l62.718-19.175a1.6 1.6 0 0 1 1.217.118c.375.199.655.538.779.943l27.848 91.086a1.6 1.6 0 0 1-.118 1.217c-.199.374-.538.654-.944.779l-62.718 19.175z" fill="url(#H)"/><path d="M183.039 145.47l27.267 89.187-60.82 18.595-27.268-89.187 60.821-18.595zm-.566-5.245L119.755 159.4a4.19 4.19 0 0 0-2.782 5.23l27.848 91.086a4.19 4.19 0 0 0 5.231 2.781l62.718-19.175a4.19 4.19 0 0 0 2.781-5.231l-27.848-91.085a4.19 4.19 0 0 0-5.23-2.781z" class="E"/><path d="M183.23 142.702a1.6 1.6 0 0 1 1.217.118c.375.199.655.538.779.943l27.848 91.086a1.6 1.6 0 0 1-1.062 1.995l-62.718 19.175c-.405.124-.843.081-1.217-.118s-.654-.538-.779-.943l-27.847-91.085a1.6 1.6 0 0 1 1.061-1.996l62.718-19.175zm-.757-2.477L119.755 159.4a4.19 4.19 0 0 0-2.782 5.23l27.848 91.086a4.19 4.19 0 0 0 5.231 2.781l62.718-19.175a4.19 4.19 0 0 0 2.781-5.231l-27.848-91.085a4.19 4.19 0 0 0-5.23-2.781z" class="D"/><path d="M172.137 221.144a5.91 5.91 0 0 1-3.053.117c-2.159-.497-3.83-2.042-4.469-4.132s-.118-4.305 1.394-5.924c.698-.748 1.596-1.306 2.597-1.611s2.057-.347 3.054-.117c2.159.497 3.829 2.042 4.468 4.132s.118 4.305-1.393 5.925c-.698.747-1.597 1.304-2.598 1.61z" fill="url(#I)"/><path d="M168.795 210.213a5.27 5.27 0 0 1 2.72-.105c4.11.946 5.624 5.9 2.746 8.983-.633.678-1.439 1.166-2.313 1.434s-1.816.313-2.719.105a5.4 5.4 0 0 1-2.747-8.984 5.28 5.28 0 0 1 2.313-1.433zm-.378-1.239c-1.11.339-2.106.958-2.881 1.789-1.672 1.79-2.248 4.241-1.54 6.555s2.555 4.024 4.942 4.574a6.57 6.57 0 0 0 6.27-1.917c1.671-1.79 2.247-4.241 1.539-6.555s-2.555-4.025-4.942-4.574c-1.107-.255-2.279-.211-3.388.128z" class="B"/><path d="M162.848 205.133c-.104.031-.212.042-.32.031a.83.83 0 0 1-.307-.095.84.84 0 0 1-.246-.206c-.067-.085-.117-.182-.147-.286-1.069-3.795.582-8.123 2.484-10.907 2.298-3.364 3.311-6.548 2.709-8.517-1.012-3.312-4.231-2.868-6.059-2.309-3.105.949-4.771 3.191-5.093 6.855-.014.161-.075.313-.176.438s-.237.217-.391.264c-.134.041-.276.046-.413.014l-8.099-1.863c-.192-.045-.361-.157-.476-.317s-.168-.355-.15-.551c.63-6.799 5.206-12.144 12.239-14.294 3.715-1.136 7.389-1.029 10.918.316s5.927 4.007 7.118 7.903c1.643 5.373-.828 9.743-2.813 13.254-1.46 2.582-2.722 4.812-2.18 6.83a.8.8 0 0 1-.07.596c-.1.183-.267.318-.466.379l-8.062 2.465z" fill="url(#J)"/><path d="M158.591 174.009c3.636-1.111 7.122-.985 10.498.303s5.6 3.789 6.73 7.486c2.736 8.951-6.421 14.767-4.999 20.063.011.038.007.079-.012.114s-.051.062-.088.073l-8.063 2.465c-.043.013-.088.008-.127-.013s-.068-.056-.081-.098c-.998-3.543.593-7.727 2.396-10.367 1.832-2.681 3.609-6.406 2.794-9.072-.871-2.849-3.413-3.795-6.868-2.739-3.342 1.022-5.206 3.52-5.549 7.418a.17.17 0 0 1-.034.087c-.02.025-.047.043-.077.053-.025.007-.052.008-.078.002l-8.1-1.863c-.038-.01-.072-.032-.095-.065s-.034-.071-.031-.111c.624-6.73 5.284-11.748 11.784-13.736zm-.379-1.238c-3.478 1.063-6.483 2.956-8.69 5.474-2.294 2.615-3.678 5.859-4.004 9.38-.069.724.415 1.395 1.126 1.558l8.099 1.863a1.45 1.45 0 0 0 .615.008 1.46 1.46 0 0 0 .563-.248c.167-.122.307-.279.409-.459s.164-.381.182-.588c.296-3.375 1.813-5.433 4.637-6.296 1.951-.597 4.446-.755 5.251 1.878.545 1.783-.436 4.76-2.625 7.962-1.984 2.907-3.702 7.44-2.572 11.45a1.46 1.46 0 0 0 .705.883 1.47 1.47 0 0 0 1.127.116l8.063-2.465a1.44 1.44 0 0 0 .973-1.76c-.474-1.764.727-3.888 2.117-6.346 2.047-3.619 4.593-8.123 2.869-13.762-1.252-4.097-3.778-6.896-7.506-8.318-3.668-1.398-7.483-1.509-11.339-.33z" class="B"/><path d="M198.206 256.02a1.6 1.6 0 0 1-1.217-.118c-.374-.199-.654-.538-.779-.944l-27.847-91.085c-.124-.406-.081-.843.118-1.217s.538-.654.943-.779l62.718-19.175c.406-.123.843-.081 1.218.118a1.6 1.6 0 0 1 .778.943l27.848 91.086a1.6 1.6 0 0 1-.118 1.217c-.199.374-.538.654-.943.779l-62.719 19.175z" fill="url(#K)"/><path d="M231.949 145.47l27.267 89.187-60.82 18.595-27.268-89.187 60.821-18.595zm-.566-5.245L168.665 159.4a4.19 4.19 0 0 0-2.782 5.23l27.848 91.086a4.19 4.19 0 0 0 5.231 2.781l62.718-19.175a4.19 4.19 0 0 0 2.781-5.231l-27.847-91.085a4.19 4.19 0 0 0-5.231-2.781z" class="E"/><path d="M232.14 142.702c.406-.123.843-.081 1.218.118a1.6 1.6 0 0 1 .778.943l27.848 91.086a1.6 1.6 0 0 1-1.061 1.995l-62.719 19.175c-.405.124-.843.081-1.217-.118a1.6 1.6 0 0 1-.779-.943l-27.847-91.085a1.6 1.6 0 0 1 1.061-1.996l62.718-19.175zm-.757-2.477L168.665 159.4a4.19 4.19 0 0 0-2.782 5.23l27.848 91.086a4.19 4.19 0 0 0 5.231 2.781l62.718-19.175a4.19 4.19 0 0 0 2.781-5.231l-27.847-91.085a4.19 4.19 0 0 0-5.231-2.781z" class="D"/><path d="M221.052 221.144c-1.001.306-2.057.347-3.054.117-2.159-.497-3.829-2.042-4.469-4.132s-.118-4.305 1.394-5.924c.699-.748 1.597-1.306 2.597-1.611s2.057-.347 3.054-.117c2.159.497 3.829 2.042 4.468 4.132s.118 4.305-1.393 5.925a5.93 5.93 0 0 1-2.597 1.61z" fill="url(#L)"/><path d="M217.709 210.213a5.27 5.27 0 0 1 2.72-.105c4.11.946 5.625 5.9 2.746 8.983-.633.678-1.439 1.166-2.313 1.434s-1.816.313-2.719.105a5.4 5.4 0 0 1-2.746-8.984 5.27 5.27 0 0 1 2.312-1.433zm-.378-1.239c-1.11.339-2.106.958-2.881 1.789-1.672 1.79-2.248 4.241-1.54 6.555s2.555 4.024 4.943 4.574c1.107.255 2.279.211 3.388-.128s2.106-.958 2.881-1.789c1.671-1.79 2.247-4.241 1.54-6.555s-2.556-4.025-4.943-4.574c-1.107-.255-2.279-.211-3.388.128z" class="B"/><path d="M211.758 205.133c-.104.031-.212.042-.32.031a.82.82 0 0 1-.306-.095.83.83 0 0 1-.247-.206c-.067-.085-.117-.182-.147-.286-1.069-3.795.582-8.123 2.484-10.907 2.298-3.364 3.311-6.548 2.709-8.517-1.012-3.312-4.231-2.868-6.059-2.309-3.105.949-4.771 3.191-5.093 6.855-.014.161-.075.313-.176.438s-.237.217-.391.264c-.134.041-.276.046-.413.014l-8.099-1.863c-.192-.045-.361-.157-.476-.317s-.168-.355-.15-.551c.63-6.799 5.206-12.144 12.239-14.294 3.716-1.136 7.389-1.029 10.919.316s5.926 4.007 7.118 7.903c1.642 5.373-.829 9.743-2.814 13.254-1.46 2.582-2.721 4.812-2.179 6.83a.8.8 0 0 1-.071.596c-.1.183-.267.318-.466.379l-8.062 2.465z" fill="url(#M)"/><path d="M207.501 174.009c3.636-1.111 7.122-.985 10.498.303s5.6 3.789 6.73 7.486c2.737 8.951-6.421 14.767-4.999 20.063.011.038.007.079-.012.114s-.05.062-.088.073l-8.063 2.465c-.042.013-.088.008-.127-.013a.16.16 0 0 1-.08-.098c-.999-3.543.592-7.727 2.395-10.367 1.832-2.681 3.609-6.406 2.794-9.072-.871-2.849-3.413-3.795-6.868-2.739-3.342 1.022-5.206 3.52-5.549 7.418-.002.032-.014.062-.034.087s-.047.043-.077.053c-.025.007-.052.008-.078.002l-8.099-1.863c-.039-.01-.073-.032-.096-.065s-.034-.071-.031-.111c.624-6.73 5.284-11.748 11.784-13.736zm-.379-1.238c-3.477 1.063-6.483 2.956-8.69 5.474-2.293 2.615-3.678 5.859-4.004 9.38-.069.724.415 1.395 1.126 1.558l8.099 1.863a1.45 1.45 0 0 0 .615.008 1.46 1.46 0 0 0 .563-.248c.167-.122.307-.279.409-.459s.164-.381.182-.588c.296-3.375 1.813-5.433 4.638-6.296 1.95-.597 4.445-.755 5.25 1.879.545 1.783-.436 4.759-2.624 7.962-1.985 2.906-3.703 7.439-2.573 11.449a1.46 1.46 0 0 0 .705.883 1.47 1.47 0 0 0 1.127.116l8.063-2.465c.359-.109.662-.354.844-.683s.228-.715.129-1.077c-.474-1.764.727-3.888 2.117-6.346 2.047-3.619 4.593-8.123 2.869-13.762-1.252-4.097-3.778-6.896-7.506-8.318-3.668-1.398-7.482-1.509-11.339-.33z" class="B"/><path d="M186.895 372.429c-19.575 0-28.276-2.444-29.094-8.171-.343-2.402-.233-6.355-.117-10.541l.119-6.273c0-6.284 7.433-19.014 18.025-20.614l.933-.141.373.502c.525.202 2.693.837 9.706 1.141 7.221-.312 9.377-.976 9.86-1.168l.392-.465.869.131c10.592 1.6 18.026 14.33 18.026 20.614 0 1.981.06 4.164.119 6.274.116 4.186.226 8.139-.116 10.54-.82 5.727-9.52 8.171-29.095 8.171z" class="F"/><path d="M197.726 328.383c9.643 1.456 16.689 13.23 16.689 19.061 0 5.826.512 13.135.018 16.592-.546 3.824-6.416 6.823-27.538 6.823s-26.993-2.998-27.539-6.823c-.494-3.457.018-10.766.018-16.592 0-5.831 7.047-17.604 16.689-19.061 0 0 .813 1.095 10.777 1.522 9.963-.428 10.886-1.522 10.886-1.522zm-20.266-3.389l-1.866.282c-11.048 1.669-19.362 14.598-19.362 22.167 0 1.959-.06 4.13-.118 6.23-.118 4.255-.23 8.273.132 10.807.966 6.761 9.846 9.52 30.649 9.52s29.684-2.759 30.65-9.52c.361-2.534.25-6.551.131-10.805l-.119-6.232c0-7.569-8.314-20.498-19.361-22.167l-1.739-.263-.669.794c-.796.217-3.14.698-8.948.952-5.564-.245-7.901-.695-8.75-.916l-.63-.849z" class="G"/><path d="M186.465 330.381c-1.213 0-4.165-.026-5.375-.269-5.438-1.085-18.09-6.045-18.09-28.625 0-16.436 8.31-25.487 23.398-25.487 15.25 0 23.996 9.289 23.996 25.487 0 21.111-10.268 27.247-18.881 28.675-.963.162-3.24.219-5.048.219z" class="F"/><path d="M186.595 277.142c16.743 0 22.424 11.102 22.424 23.916 0 18.046-7.517 25.458-17.566 27.126-.766.128-2.765.197-4.791.197-2.112 0-4.255-.076-5.067-.238-8.755-1.746-16.827-9.336-16.827-27.085 0-12.814 5.158-23.916 21.827-23.916zm0-3.142c-16.102 0-24.97 9.609-24.97 27.058 0 23.743 13.536 29.006 19.356 30.166 1.297.26 4.116.299 5.681.299 1.163 0 4.01-.023 5.308-.24 9.209-1.528 20.191-8.013 20.191-30.226 0-17.195-9.318-27.057-25.566-27.057z" class="G"/><path d="M140.591 325.867c-.003-3.825-3.106-6.941-6.922-6.941h-11.392v-33.133c-.001-1.602-.639-3.138-1.772-4.271a6.05 6.05 0 0 0-4.272-1.772h-31.68a6.05 6.05 0 0 0-6.044 6.043v33.133H67.118a6.94 6.94 0 0 0-6.923 6.941c0 1.667.592 3.23 1.712 4.513l33.275 38.151c.649.743 1.45 1.338 2.349 1.747a6.92 6.92 0 0 0 5.723 0c.899-.409 1.7-1.004 2.349-1.747l33.275-38.151a6.78 6.78 0 0 0 1.712-4.513z" fill="url(#N)"/><path d="M61.335 325.784c0 1.182.404 2.389 1.302 3.42l33.275 38.147a5.25 5.25 0 0 0 1.782 1.327 5.23 5.23 0 0 0 2.172.471c.749 0 1.49-.16 2.172-.471s1.289-.763 1.781-1.327l33.275-38.152a5.15 5.15 0 0 0 1.303-3.416c0-2.708-2.121-5.276-5.256-5.276h-13.058V285.71a4.38 4.38 0 0 0-1.282-3.094c-.821-.821-1.934-1.282-3.095-1.282h-31.68c-1.161 0-2.274.461-3.095 1.282s-1.282 1.934-1.282 3.094v34.8h-13.06c-3.134 0-5.254 2.569-5.254 5.274zm-3.335 0c0-4.746 3.855-8.608 8.588-8.608h9.726V285.71c.002-2.044.815-4.004 2.261-5.449s3.406-2.259 5.45-2.261h31.68a7.72 7.72 0 0 1 5.45 2.261c1.446 1.445 2.259 3.405 2.261 5.449v31.466h9.724c4.737 0 8.59 3.861 8.59 8.608a8.54 8.54 0 0 1-2.124 5.608l-33.275 38.149c-.805.923-1.799 1.663-2.915 2.17a8.58 8.58 0 0 1-7.102 0c-1.115-.507-2.109-1.247-2.915-2.17l-33.277-38.149c-1.361-1.551-2.115-3.543-2.123-5.608z" fill="#162f0d"/><g fill="#413c25" class="C"><path d="M149.943 127.645a.95.95 0 0 1-.671-.278c-.179-.178-.279-.42-.279-.671v-11.73a.95.95 0 0 1 .272-.665l31.799-32.451c7.518-7.519 11.326-14.046 11.326-19.407 0-8.096-5.028-13.125-13.124-13.125-7.317 0-12.579 3.534-16.088 10.802-.057.118-.138.223-.238.309s-.216.149-.341.187a.95.95 0 0 1-.388.034c-.131-.016-.256-.058-.369-.125l-12.643-7.429a.95.95 0 0 1-.427-.539c-.069-.227-.052-.471.049-.686 5.731-12.107 16.78-19.051 30.316-19.051 8.378 0 15.52 2.626 21.228 7.805 5.913 5.239 8.916 12.407 8.916 21.297 0 9.422-5.31 19.642-15.782 30.376l-18.975 18.978h35.501a.95.95 0 0 1 .949.95v14.468a.95.95 0 0 1-.949.949h-60.082v.002z" class="C"/><use xlink:href="#O" class="C"/><use xlink:href="#O" class="C"/><use xlink:href="#P" class="C"/><use xlink:href="#P" class="C"/></g><path d="M149.276 126.774c-.252 0-.494-.1-.672-.279a.95.95 0 0 1-.278-.671v-11.73a.95.95 0 0 1 .272-.664l31.799-32.452c7.517-7.519 11.326-14.046 11.326-19.407 0-8.096-5.029-13.126-13.124-13.126-7.317 0-12.579 3.534-16.089 10.802-.057.118-.137.223-.237.309a.95.95 0 0 1-.342.187c-.125.038-.257.05-.388.034a.95.95 0 0 1-.369-.125l-12.643-7.428c-.204-.12-.356-.313-.426-.539a.95.95 0 0 1 .049-.686c5.73-12.107 16.78-19.051 30.316-19.051 8.378 0 15.52 2.626 21.227 7.806 5.914 5.239 8.917 12.407 8.917 21.297 0 9.422-5.31 19.642-15.782 30.376l-18.976 18.979h35.501a.95.95 0 0 1 .95.95v14.467a.95.95 0 0 1-.95.95h-60.081v.002z" class="F"/><path d="M178.469 32.899c8.078 0 14.987 2.475 20.59 7.559 5.737 5.084 8.605 11.992 8.605 20.594 0 9.254-5.215 19.158-15.513 29.713l-20.589 20.591h37.794v14.468h-60.08v-11.73l31.799-32.451c7.689-7.69 11.598-14.466 11.598-20.072 0-8.86-5.733-14.075-14.074-14.075-7.69 0-13.295 3.781-16.944 11.338l-12.643-7.428c5.736-12.119 16.813-18.506 29.457-18.506zm0-1.899c-13.917 0-25.28 7.142-31.173 19.594-.203.429-.238.918-.099 1.372a1.9 1.9 0 0 0 .854 1.078l12.643 7.429c.227.133.478.217.739.248a1.9 1.9 0 0 0 .776-.069 1.89 1.89 0 0 0 1.158-.992c3.335-6.907 8.318-10.265 15.233-10.265 7.51 0 12.174 4.666 12.174 12.176 0 5.029-3.818 11.504-11.041 18.729l-31.813 32.466c-.348.355-.542.832-.542 1.328v11.73a1.9 1.9 0 0 0 1.899 1.899h60.08a1.9 1.9 0 0 0 1.899-1.899v-14.467c0-.504-.2-.987-.556-1.344a1.9 1.9 0 0 0-1.343-.556h-33.209l17.347-17.35c10.668-10.935 16.069-21.377 16.069-31.056 0-9.173-3.11-16.58-9.244-22.016C194.447 33.709 187.091 31 178.469 31z" class="G"/><path d="M92.925 109.83a.95.95 0 0 1-.95-.95V87.805H70.899a.95.95 0 0 1-.95-.95V73.563a.95.95 0 0 1 .95-.95h21.076V51.538a.95.95 0 0 1 .95-.95h13.295a.95.95 0 0 1 .95.95v21.074h21.075a.95.95 0 0 1 .95.95v13.293a.95.95 0 0 1-.95.95H107.17v21.075a.95.95 0 0 1-.95.95H92.925v.001z" class="F"/><path d="M106.22 51.538v22.024h22.025v13.293H106.22v22.024H92.925V86.856H70.899V73.563h22.026V51.538h13.295zm0-1.899H92.925a1.9 1.9 0 0 0-1.899 1.899v20.125H70.899A1.9 1.9 0 0 0 69 73.562v13.293a1.9 1.9 0 0 0 1.899 1.899h20.127v20.125a1.9 1.9 0 0 0 .556 1.343c.356.357.839.557 1.343.557h13.295c.504 0 .987-.2 1.343-.557a1.9 1.9 0 0 0 .556-1.343V88.755h20.126a1.9 1.9 0 0 0 1.899-1.899V73.563a1.9 1.9 0 0 0-1.899-1.899h-20.126V51.538a1.9 1.9 0 0 0-1.899-1.899z" class="G"/><defs><radialGradient id="A" cx="0" cy="0" r="1" gradientTransform="translate(142.781 200) scale(163.894 169.057)" xlink:href="#Q"><stop stop-color="#fbe678"/><stop offset="1" stop-color="#e3c62b"/></radialGradient><radialGradient id="B" cx="0" cy="0" r="1" gradientTransform="translate(70.5127 199.776) rotate(-107) scale(42.4588 43.7962)" xlink:href="#Q"><stop stop-color="#32b4ba"/><stop offset=".163" stop-color="#30abba"/><stop offset=".429" stop-color="#2b93ba"/><stop offset=".762" stop-color="#236bba"/><stop offset="1" stop-color="#1d4bba"/></radialGradient><linearGradient id="C" x1="76.391" y1="221.559" x2="72.86" y2="210.008" xlink:href="#Q"><stop stop-color="#70aefe"/><stop offset=".16" stop-color="#83bcfe"/><stop offset=".527" stop-color="#abd7fe"/><stop offset=".82" stop-color="#c3e9fe"/><stop offset="1" stop-color="#cceffe"/></linearGradient><linearGradient id="D" x1="71.383" y1="204.237" x2="62.128" y2="173.965" xlink:href="#Q"><stop stop-color="#70aefe"/><stop offset=".16" stop-color="#83bcfe"/><stop offset=".527" stop-color="#abd7fe"/><stop offset=".82" stop-color="#c3e9fe"/><stop offset="1" stop-color="#cceffe"/></linearGradient><radialGradient id="E" cx="0" cy="0" r="1" gradientTransform="translate(119.423 199.363) rotate(-107) scale(42.4588 43.7962)" xlink:href="#Q"><stop stop-color="#32b4ba"/><stop offset=".163" stop-color="#30abba"/><stop offset=".429" stop-color="#2b93ba"/><stop offset=".762" stop-color="#236bba"/><stop offset="1" stop-color="#1d4bba"/></radialGradient><linearGradient id="F" x1="125.301" y1="221.146" x2="121.769" y2="209.595" xlink:href="#Q"><stop stop-color="#70aefe"/><stop offset=".16" stop-color="#83bcfe"/><stop offset=".527" stop-color="#abd7fe"/><stop offset=".82" stop-color="#c3e9fe"/><stop offset="1" stop-color="#cceffe"/></linearGradient><linearGradient id="G" x1="120.293" y1="203.824" x2="111.037" y2="173.552" xlink:href="#Q"><stop stop-color="#70aefe"/><stop offset=".16" stop-color="#83bcfe"/><stop offset=".527" stop-color="#abd7fe"/><stop offset=".82" stop-color="#c3e9fe"/><stop offset="1" stop-color="#cceffe"/></linearGradient><radialGradient id="H" cx="0" cy="0" r="1" gradientTransform="translate(166.262 199.361) rotate(-107) scale(42.4588 43.7963)" xlink:href="#Q"><stop stop-color="#32b4ba"/><stop offset=".163" stop-color="#30abba"/><stop offset=".429" stop-color="#2b93ba"/><stop offset=".762" stop-color="#236bba"/><stop offset="1" stop-color="#1d4bba"/></radialGradient><linearGradient id="I" x1="172.137" y1="221.144" x2="168.606" y2="209.593" xlink:href="#Q"><stop stop-color="#70aefe"/><stop offset=".16" stop-color="#83bcfe"/><stop offset=".527" stop-color="#abd7fe"/><stop offset=".82" stop-color="#c3e9fe"/><stop offset="1" stop-color="#cceffe"/></linearGradient><linearGradient id="J" x1="167.133" y1="203.823" x2="157.878" y2="173.551" xlink:href="#Q"><stop stop-color="#70aefe"/><stop offset=".16" stop-color="#83bcfe"/><stop offset=".527" stop-color="#abd7fe"/><stop offset=".82" stop-color="#c3e9fe"/><stop offset="1" stop-color="#cceffe"/></linearGradient><radialGradient id="K" cx="0" cy="0" r="1" gradientTransform="translate(215.173 199.361) rotate(-107) scale(42.4588 43.7962)" xlink:href="#Q"><stop stop-color="#32b4ba"/><stop offset=".163" stop-color="#30abba"/><stop offset=".429" stop-color="#2b93ba"/><stop offset=".762" stop-color="#236bba"/><stop offset="1" stop-color="#1d4bba"/></radialGradient><linearGradient id="L" x1="221.051" y1="221.144" x2="217.52" y2="209.593" xlink:href="#Q"><stop stop-color="#70aefe"/><stop offset=".16" stop-color="#83bcfe"/><stop offset=".527" stop-color="#abd7fe"/><stop offset=".82" stop-color="#c3e9fe"/><stop offset="1" stop-color="#cceffe"/></linearGradient><linearGradient id="M" x1="216.043" y1="203.823" x2="206.788" y2="173.551" xlink:href="#Q"><stop stop-color="#70aefe"/><stop offset=".16" stop-color="#83bcfe"/><stop offset=".527" stop-color="#abd7fe"/><stop offset=".82" stop-color="#c3e9fe"/><stop offset="1" stop-color="#cceffe"/></linearGradient><linearGradient id="N" x1="67.272" y1="339.941" x2="132.671" y2="302.176" xlink:href="#Q"><stop stop-color="#4ce02d"/><stop offset=".094" stop-color="#52e733"/><stop offset=".17" stop-color="#44d626"/><stop offset=".341" stop-color="#3ac91d"/><stop offset=".525" stop-color="#37c41a"/><stop offset=".731" stop-color="#32bd15"/><stop offset="1" stop-color="#30bb13"/></linearGradient><path id="O" d="M179.212 34.72c8.078 0 14.987 2.475 20.589 7.558 5.737 5.084 8.605 11.992 8.605 20.594 0 9.254-5.215 19.158-15.512 29.713l-20.589 20.592h37.793v14.467h-60.08v-11.729l31.8-32.452c7.688-7.69 11.597-14.466 11.597-20.071 0-8.861-5.733-14.075-14.073-14.075-7.691 0-13.296 3.781-16.945 11.338l-12.643-7.428c5.736-12.119 16.814-18.506 29.458-18.506zm0-1.899c-13.918 0-25.281 7.142-31.174 19.594a1.9 1.9 0 0 0-.098 1.372c.139.453.444.838.853 1.078l12.643 7.429c.227.133.478.217.739.248s.525.007.776-.069.483-.204.683-.375.361-.381.475-.617c3.335-6.907 8.318-10.265 15.234-10.265 7.509 0 12.174 4.666 12.174 12.176 0 5.029-3.819 11.505-11.041 18.729l-31.814 32.466a1.9 1.9 0 0 0-.542 1.329v11.729a1.9 1.9 0 0 0 .556 1.343c.356.357.84.557 1.343.557h60.08c.504 0 .987-.2 1.343-.557a1.9 1.9 0 0 0 .556-1.343v-14.467a1.9 1.9 0 0 0-1.899-1.9h-33.208l17.347-17.349c10.667-10.935 16.068-21.377 16.068-31.056 0-9.173-3.11-16.58-9.244-22.015-5.873-5.326-13.229-8.035-21.85-8.035zm-85.545 78.831c-.252 0-.493-.1-.671-.279a.95.95 0 0 1-.278-.671V89.626H71.641a.95.95 0 0 1-.95-.95V75.383a.95.95 0 0 1 .95-.95h21.076V53.358a.95.95 0 0 1 .95-.95h13.295a.95.95 0 0 1 .949.95v21.074h21.076a.95.95 0 0 1 .949.95v13.293a.95.95 0 0 1-.949.95h-21.076V110.7a.95.95 0 0 1-.949.95H93.667v.001z"/><path id="P" d="M108.119 53.438v22.024h22.025v13.293h-22.025v22.025H94.824V88.755H72.798V75.463h22.026V53.438h13.295zm0-1.899H94.824a1.9 1.9 0 0 0-1.899 1.899v20.125H72.798a1.9 1.9 0 0 0-1.899 1.899v13.293a1.9 1.9 0 0 0 1.899 1.899h20.127v20.125a1.9 1.9 0 0 0 1.899 1.899h13.295a1.9 1.9 0 0 0 1.899-1.899V90.654h20.126a1.9 1.9 0 0 0 1.899-1.899V75.463a1.9 1.9 0 0 0-1.899-1.899h-20.126V53.438a1.9 1.9 0 0 0-1.899-1.899z"/><linearGradient id="Q" gradientUnits="userSpaceOnUse"/></defs></svg>