<svg xmlns="http://www.w3.org/2000/svg" xmlns:xlink="http://www.w3.org/1999/xlink" width="291.969" height="406.205"><style>.st19{fill:#c9c9c9}.st22{fill:#6d6d6d}</style><g id="card_x5F_coin"><g id="coin"><image width="292" height="406" xlink:href="BF12DD62.png" overflow="visible" opacity=".3"/><radialGradient id="SVGID_1_" cx="143" cy="200" r="163.995" gradientUnits="userSpaceOnUse"><stop offset="0" stop-color="#c5e2f9"/><stop offset=".175" stop-color="#bcdbf1"/><stop offset=".462" stop-color="#a4c7db"/><stop offset=".821" stop-color="#7ca8b8"/><stop offset="1" stop-color="#6696a4"/></radialGradient><path d="M276 383.83a6.17 6.17 0 01-6.169 6.17H16.169A6.17 6.17 0 0110 383.83V16.17A6.17 6.17 0 0116.169 10H269.83a6.17 6.17 0 016.169 6.17v367.66z" fill="url(#SVGID_1_)"/><path d="M265 20v360H20V20h245m4.331-20H16.169C7.239 0 0 7.239 0 16.169V383.83C0 392.761 7.239 400 16.169 400h253.162c8.93 0 15.669-7.239 15.669-16.17V16.169C285 7.239 278.011 0 269.081 0h.25z" fill="#b0dcea"/><path d="M268.916 10c3.401 0 6.084 2.768 6.084 6.169V383.83c0 3.402-2.268 6.17-5.669 6.17H16.169A6.176 6.176 0 0110 383.83V16.169A6.177 6.177 0 0116.169 10H269m.331-10H16.169C7.239 0 0 7.239 0 16.169V383.83C0 392.761 7.239 400 16.169 400h253.162c8.93 0 15.669-7.239 15.669-16.17V16.169C285 7.239 278.011 0 269.081 0h.25z" fill="#414042"/></g><path id="border_1_" fill="none" stroke="#e5e5e5" stroke-width="4" stroke-miterlimit="10" d="M23 23h239v354H23z"/><g id="Coins_1_"><image width="196" height="134" xlink:href="BF12DD66.png" transform="translate(47 140)" overflow="visible" opacity=".3"/><path class="st19" d="M111.273 265.724a57.54 57.54 0 01-5.299-.246 56.11 56.11 0 01-10.85-2.104 2.5 2.5 0 01-.686-.099c-.129-.038-3.218-.942-7.493-3.069l-.339-.168a73.346 73.346 0 01-1.081-.561 53.783 53.783 0 01-8.399-5.432 53.314 53.314 0 01-1.642-1.336l-.089-.077c-.222-.189-.44-.375-.658-.568-6.725-5.941-11.967-13.091-13.414-15.141-8.461-11.625-11.995-26.132-9.928-40.82 4.2-29.837 29.833-52.336 59.625-52.336 1.765 0 3.551.083 5.31.246a55.665 55.665 0 0114.27 3.246c.946.186 2.545.75 6.31 2.781.224.121.44.245.657.369l.425.243c.604.343 1.138.655 1.662.974.38.229.767.468 1.149.711.223.143 1.081.711 1.081.711.305.203.611.405.91.615a65.291 65.291 0 016.699 5.356 54.9 54.9 0 01.803-.148c7.607-1.656 15.572-2.496 23.673-2.496 9.629 0 18.846 1.18 27.395 3.507 19.607 5.337 31.968 15.814 33.141 28.063.56 2.084.62 6.821.625 8.309.009 3.144-.216 8.588-.226 8.818-.01.229-.051.453-.12.667-.575 4.358-2.598 8.563-6.023 12.514-.039 3.145-.209 7.275-.217 7.467-.01.23-.051.454-.12.667-.67 5.087-3.282 9.931-7.771 14.403-11.251 11.206-32.746 18.166-56.098 18.166-7.637 0-15.073-.751-22.122-2.234-9.5 5.892-20.252 9.002-31.16 9.002z"/><path d="M111.021 146.266c1.683 0 3.378.077 5.079.235a53.037 53.037 0 0113.847 3.182c.893.12 2.735.916 5.777 2.557.313.169.614.348.922.522.059.032.116.066.175.099a60.03 60.03 0 012.639 1.584c.275.176.543.356.814.535.363.242.729.48 1.085.73a63.038 63.038 0 017.373 6.014 55.507 55.507 0 012.047-.399c7.356-1.605 15.242-2.449 23.191-2.449 9.066 0 18.213 1.099 26.738 3.419 19.211 5.229 30.446 15.348 31.33 26.128.393 1.016.583 4.904.592 7.839.009 3.124-.224 8.707-.224 8.707l-.045-.024c-.434 4.158-2.424 8.351-6.092 12.348-.009 3.174-.223 8.325-.223 8.325l-.045-.025c-.474 4.533-2.78 9.111-7.112 13.427-11.108 11.063-32.486 17.437-54.333 17.437-7.611 0-15.283-.774-22.593-2.394-9.024 5.808-19.617 9.161-30.69 9.161-1.68 0-3.371-.078-5.068-.235a53.448 53.448 0 01-11.476-2.355c.255.153.405.24.405.24s-2.953-.855-7.075-2.906c-.115-.056-.228-.113-.342-.17a60.389 60.389 0 01-1.021-.531 51.157 51.157 0 01-8.021-5.185 51.044 51.044 0 01-1.573-1.28l-.089-.077a43.023 43.023 0 01-.62-.535c-6.544-5.781-11.639-12.742-13.027-14.709-7.782-10.692-11.546-24.455-9.495-39.031 4.036-28.659 29.062-50.185 57.15-50.184m0-5c-14.852 0-29.371 5.532-40.882 15.577-11.572 10.098-19.107 23.917-21.218 38.91-2.156 15.322 1.531 30.463 10.381 42.64 1.515 2.144 6.884 9.452 13.782 15.544.228.202.458.398.688.595l.087.075c.56.475 1.142.949 1.737 1.414a56.335 56.335 0 008.786 5.678c.347.184.716.377 1.075.559l.145.072.274.136c4.43 2.204 7.729 3.17 7.867 3.21.317.092.638.151.956.179a58.593 58.593 0 0011.043 2.112c1.833.17 3.693.256 5.531.256 11.048 0 21.937-3.056 31.622-8.854 6.926 1.386 14.202 2.087 21.661 2.087 23.989 0 46.16-7.24 57.862-18.895 4.841-4.823 7.686-10.093 8.462-15.675.092-.343.147-.699.162-1.062.007-.176.149-3.622.205-6.64 3.346-4.07 5.357-8.411 5.991-12.934.093-.347.148-.707.164-1.073.01-.232.237-5.731.228-8.929-.009-2.868-.136-6.515-.652-8.705-1.367-13.255-14.388-24.474-34.956-30.073-8.762-2.386-18.199-3.595-28.051-3.595-8.113 0-16.095.825-23.735 2.452a67.31 67.31 0 00-6.022-4.723c-.3-.21-.624-.425-.947-.64l-.222-.147-.211-.14c-.223-.148-.446-.296-.673-.441a54.41 54.41 0 00-1.223-.757 62.46 62.46 0 00-1.646-.965l-.055-.032-.133-.075-.291-.166c-.235-.135-.47-.27-.711-.4-3.644-1.966-5.494-2.7-6.807-2.992a58.203 58.203 0 00-14.732-3.326 59.999 59.999 0 00-5.542-.257z" fill="#444"/><g><path class="st22" d="M218.89 239.02c-15.724 15.66-52.04 21.938-81.116 14.022-19.127-5.207-30.356-15.259-31.327-25.985-.505-5.581 1.767-11.344 7.147-16.703 15.722-15.661 52.038-21.938 81.116-14.022 29.076 7.915 39.902 27.027 24.18 42.688z"/><path class="st22" d="M106.086 213.599c-.446.67-.14 4.652-.149 7.776-.01 3.124.669 7.032.669 7.032s1.228 1.005 2.679-3.014c1.452-4.018-2.443-12.928-3.199-11.794zM225.6 208.91c.447.669.66 4.876.671 8 .008 3.125-.224 8.708-.224 8.708s-1.449-.67-2.899-4.689c-1.452-4.019 1.696-13.153 2.452-12.019z"/><path class="st19" d="M218.527 225.629c-15.723 15.66-52.039 21.938-81.115 14.022-29.078-7.917-39.903-27.028-24.18-42.688 15.722-15.66 52.037-21.938 81.116-14.021 29.077 7.915 39.903 27.028 24.179 42.687z"/><path d="M210.203 221.266c-13.114 12.02-43.548 16.697-67.974 10.447-24.428-6.249-33.599-21.058-20.484-33.076 13.115-12.019 43.548-16.697 67.976-10.448 24.427 6.25 33.597 21.059 20.482 33.077z" fill="#c9c9c9" stroke="#6d6d6d" stroke-width="3.066" stroke-miterlimit="10"/><path d="M218.618 225.655c-15.749 15.687-52.129 21.975-81.254 14.046-29.128-7.93-39.972-27.075-24.222-42.762 15.749-15.688 52.127-21.976 81.256-14.046 29.126 7.929 39.97 27.074 24.22 42.762z" opacity=".8" fill="#6d6d6d"/><path class="st22" d="M225.248 218.373c-15.723 15.66-52.039 21.938-81.115 14.022-19.126-5.208-30.355-15.26-31.327-25.985-.505-5.581 1.767-11.345 7.147-16.703 15.722-15.661 52.038-21.938 81.116-14.022 29.077 7.914 39.903 27.026 24.179 42.688z"/><path class="st22" d="M112.446 192.951c-.446.67-.139 4.652-.149 7.776-.009 3.124.669 7.033.669 7.033s1.228 1.004 2.679-3.014c1.452-4.019-2.444-12.929-3.199-11.795zM231.959 188.262c.447.67.661 4.876.671 8 .009 3.124-.224 8.707-.224 8.707s-1.448-.67-2.899-4.688c-1.451-4.019 1.697-13.153 2.452-12.019z"/><path d="M224.887 204.982c-15.723 15.659-52.038 21.937-81.115 14.021-29.078-7.916-39.903-27.028-24.18-42.688 15.722-15.66 52.037-21.938 81.116-14.021 29.076 7.915 39.902 27.028 24.179 42.688z" fill="#a8a8a8"/><path d="M216.563 200.619c-13.114 12.019-43.548 16.696-67.975 10.447-24.427-6.25-33.598-21.058-20.483-33.076 13.116-12.019 43.55-16.696 67.977-10.447 24.426 6.249 33.595 21.057 20.481 33.076z" fill="#a8a8a8" stroke="#6d6d6d" stroke-width="3.066" stroke-miterlimit="10"/><path d="M149.198 255.261c.001 0 4.933-4.232 8.682-11.998 1.105-2.289 8.445-7.499 8.445-7.499s2.961-7.933 4.185-12.708c9.308-36.322-18.787-61.883-18.787-61.883s-15.943 2.131-28.493 11.899c0 0-5.743 4.263-8.88 10.656-1.315 2.68-1.552 5.607-1.904 9.222-.168 1.73-.05 9.781-.05 9.781s-5.684 27.291-4.736 29.363c0 .001 21.647 21.747 41.538 23.167z" opacity=".8" fill="#444"/></g><g id="front_coin_1_"><path class="st22" d="M168.431 213.041c-4.275 30.375-32.134 52.738-62.226 49.948-30.092-2.792-51.021-29.677-46.745-60.053 4.275-30.378 32.135-52.739 62.227-49.949 30.09 2.79 51.019 29.676 46.744 60.054z"/><path class="st22" d="M62.978 234.923s5.714 8.463 13.416 15.268c8.866 7.832 18.74 10.683 18.74 10.683s-21.004-12.236-32.156-25.951M165.899 186.962s-8.153-22.839-30.176-34.723c-22.023-11.881 18.609 20.372 30.176 34.723z"/><path class="st19" d="M162.846 206.555c-4.277 30.374-32.136 52.736-62.228 49.948-30.092-2.79-51.021-29.676-46.746-60.052 4.276-30.377 32.136-52.739 62.228-49.95 30.092 2.791 51.02 29.676 46.746 60.054z"/><path d="M152.702 205.613c-3.48 24.721-26.153 42.921-50.644 40.65s-41.521-24.152-38.042-48.872c3.479-24.723 26.152-42.921 50.642-40.649 24.49 2.27 41.521 24.152 38.044 48.871z" fill="#c9c9c9" stroke="#6d6d6d" stroke-width="3.166" stroke-miterlimit="10"/><path d="M90.846 180.776c22.057-5.17 45.099-6.321 67.983-3.777-7.377-16.605-23.101-28.68-42.729-30.5-28.866-2.676-55.665 17.797-61.576 46.285 11.711-5.152 24.069-9.135 36.322-12.008z" opacity=".4" fill="#efefef"/></g></g></g></svg>