<svg xmlns="http://www.w3.org/2000/svg" width="292" height="407" fill="none"  xmlns:v="https://vecta.io/nano"><path d="M16.201 390c-1.636-.002-3.204-.652-4.361-1.809a6.18 6.18 0 0 1-1.809-4.361V16.169c.002-1.636.653-3.204 1.81-4.36A6.18 6.18 0 0 1 16.201 10h253.161a6.18 6.18 0 0 1 6.169 6.169V383.83c-.002 1.636-.653 3.204-1.809 4.36s-2.725 1.808-4.36 1.81H16.201z" fill="url(#A)"/><path d="M265.531 20v360h-245.5V20h245.5zm3.831-20H16.201C7.271 0 .031 7.239.031 16.169V383.83c0 8.931 7.239 16.17 16.17 16.17h253.161c8.93 0 16.169-7.239 16.169-16.17V16.169c0-8.93-7.239-16.169-16.169-16.169z" fill="#fef3b8"/><path d="M269.362 10a6.18 6.18 0 0 1 6.169 6.169V383.83c-.002 1.636-.653 3.204-1.809 4.36s-2.725 1.808-4.36 1.81H16.201c-1.636-.002-3.204-.652-4.361-1.809s-1.807-2.725-1.809-4.361V16.169c.002-1.636.653-3.204 1.81-4.36A6.18 6.18 0 0 1 16.201 10h253.161zm0-10H16.201C7.271 0 .031 7.239.031 16.169V383.83c0 8.931 7.239 16.17 16.17 16.17h253.161c8.93 0 16.169-7.239 16.169-16.17V16.169c0-8.93-7.239-16.169-16.169-16.169z" fill="#414042"/><g clip-path="url(#B)"><path d="M139.339 111.907c17.111-.002 34.321 4.501 39.265 11.693 3.948 5.745 42.943 133.757 43.545 140.586.802 9.101-19.464 31.903-80.284 31.903-.916 0-1.839-.005-2.772-.016-66.369-.743-75.564-27.998-75.266-36.34.264-7.429 30.56-126.08 39.357-136.555 6.643-7.903 21.363-11.271 36.155-11.271h0zm-.129-7.127v7.127-7.016h.129c-9.021 0-31.136 1.291-41.61 13.76-1.691 2.015-6.831 8.108-24.297 72.102-6.885 25.222-16.525 63.135-16.727 68.743-.094 2.646.323 12.034 9.65 21.809 13.498 14.144 37.943 21.51 72.659 21.9l2.853.015c52.995 0 74.058-16.754 80.656-23.957 4.771-5.214 7.161-10.789 6.726-15.702-.538-6.089-18.733-65.423-20.805-72.168-20.541-66.848-23.185-70.597-24.032-71.83-7.504-10.911-29.166-14.783-45.202-14.783h0z" fill="#000"/><path d="M139.064 298.747c-41.69-.467-60.799-11.419-69.487-20.525-6.457-6.767-8.582-14.034-8.42-18.583.239-6.694 30.442-126.82 39.981-138.179 9.272-11.035 29.805-12.226 38.2-12.226 15.717 0 35.396 4.022 41.468 12.852 4.832 7.029 43.48 135.928 44.006 141.865.322 3.654-1.659 8.021-5.575 12.299-6.199 6.768-26.147 22.512-77.371 22.512a219.86 219.86 0 0 1-2.802-.015h0z" fill="#ccc6c6"/><path d="M139.338 111.907c17.112-.002 34.321 4.5 39.266 11.693 3.948 5.744 42.942 133.756 43.544 140.585.802 9.101-19.463 31.904-80.283 31.904-.916 0-1.839-.006-2.773-.016-66.368-.743-75.563-27.998-75.266-36.34.264-7.43 30.56-126.081 39.358-136.555 6.642-7.904 21.363-11.271 36.154-11.271h0zm-.128-5.345v5.345-5.235h.064c-8.771 0-30.219 1.228-40.215 13.126-4.365 5.199-12.404 29.211-23.927 71.421-7.742 28.361-16.481 63.395-16.655 68.339-.087 2.47.315 11.245 9.161 20.515 9.044 9.477 28.771 20.873 71.393 21.348l2.833.015c52.288 0 72.904-16.351 79.341-23.38 4.429-4.837 6.656-9.931 6.268-14.341-.531-6.008-19.909-69.118-20.734-71.801-9.334-30.376-21.095-67.412-23.796-71.343-6.657-9.678-25.917-14.009-43.734-14.009h0z" fill="#4f4f4f"/><path opacity=".6" d="M103.733 122.447c-2.255 3.038-.821 16.021 29.475 18.029 30.804 2.038 32.523-3.252 33.414-2.648l35.007 147.51s18.255-7.997 20.483-19.432c.511-2.635-2.377-10.521-7.427-28.51-5.254-18.723-14.654-47.305-21.972-71.857-9.207-30.877-14.257-41.964-14.257-41.964s-7.307-10.956-36.375-11.576c-26.756-.574-36.092 7.405-38.348 10.448h0z" fill="#5a5959"/></g><defs><radialGradient id="A" cx="0" cy="0" r="1" gradientUnits="userSpaceOnUse" gradientTransform="translate(142.781 200) scale(163.894 169.057)"><stop stop-color="#fbe678"/><stop offset="1" stop-color="#e3c62b"/></radialGradient><clipPath id="B"><path fill="#fff" transform="translate(43 104)" d="M0 0h200v199.996H0z"/></clipPath></defs></svg>