<svg xmlns="http://www.w3.org/2000/svg" xmlns:xlink="http://www.w3.org/1999/xlink" width="292" height="407" fill="none" xmlns:v="https://vecta.io/nano"><path d="M16.201 390c-1.636-.002-3.204-.652-4.361-1.809a6.18 6.18 0 0 1-1.809-4.361V16.169c.002-1.636.653-3.204 1.81-4.36A6.18 6.18 0 0 1 16.201 10h253.161a6.18 6.18 0 0 1 6.169 6.169V383.83c-.002 1.636-.653 3.204-1.809 4.36s-2.725 1.808-4.36 1.81H16.201z" fill="url(#A)"/><path d="M265.531 20v360h-245.5V20h245.5zm3.831-20H16.201C7.271 0 .031 7.239.031 16.169V383.83c0 8.931 7.239 16.17 16.17 16.17h253.161c8.93 0 16.169-7.239 16.169-16.17V16.169c0-8.93-7.239-16.169-16.169-16.169z" fill="#fef3b8"/><path d="M269.362 10a6.18 6.18 0 0 1 6.169 6.169V383.83c-.002 1.636-.653 3.204-1.809 4.36s-2.725 1.808-4.36 1.81H16.201c-1.636-.002-3.204-.652-4.361-1.809s-1.807-2.725-1.809-4.361V16.169c.002-1.636.653-3.204 1.81-4.36A6.18 6.18 0 0 1 16.201 10h253.161zm0-10H16.201C7.271 0 .031 7.239.031 16.169V383.83c0 8.931 7.239 16.17 16.17 16.17h253.161c8.93 0 16.169-7.239 16.169-16.17V16.169c0-8.93-7.239-16.169-16.169-16.169z" fill="#414042"/><path d="M96.027 151.066c-.27 0-.533-.086-.752-.244s-.382-.382-.466-.639l-30.494-92.5a1.27 1.27 0 0 1 .073-.979c.089-.178.305-.496.744-.641l63.693-20.997c.323-.107.675-.08.979.073s.534.421.641.744l30.494 92.5c.145.438.017.802-.073.979-.076.151-.18.285-.308.395s-.276.194-.436.246L96.43 151.001c-.13.042-.266.064-.403.065z" fill="url(#B)"/><path d="M128.132 38.453l29.419 89.237-60.431 19.923-29.418-89.239 60.43-19.921zM129.226 32a4.27 4.27 0 0 0-1.341.216L64.193 53.213a4.28 4.28 0 0 0-2.484 2.139c-.253.502-.405 1.05-.447 1.611a4.28 4.28 0 0 0 .204 1.659l30.494 92.499a4.28 4.28 0 0 0 2.14 2.483c1.014.512 2.19.599 3.269.244l63.692-20.998a4.28 4.28 0 0 0 1.454-.822 4.27 4.27 0 0 0 1.029-1.317 4.25 4.25 0 0 0 .447-1.61 4.28 4.28 0 0 0-.203-1.659l-30.494-92.499a4.29 4.29 0 0 0-1.558-2.13c-.73-.528-1.609-.813-2.51-.813z" fill="#66c2e2"/><path d="M129.227 34.999c.27 0 .533.086.752.245s.381.382.466.639l30.494 92.499c.145.438.017.802-.073.979a1.28 1.28 0 0 1-.309.395c-.127.11-.276.194-.436.246L96.429 151a1.27 1.27 0 0 1-.498.061 1.29 1.29 0 0 1-.483-.134 1.28 1.28 0 0 1-.395-.309c-.11-.128-.194-.277-.246-.437L64.315 57.683c-.053-.16-.074-.329-.062-.497s.058-.332.135-.482c.089-.178.305-.496.745-.641l63.691-20.997c.13-.044.266-.066.403-.067zM129.226 32a4.27 4.27 0 0 0-1.341.216L64.193 53.213a4.28 4.28 0 0 0-2.484 2.139c-.253.502-.405 1.05-.447 1.611a4.28 4.28 0 0 0 .204 1.659l30.494 92.499a4.28 4.28 0 0 0 2.14 2.483c1.014.512 2.19.599 3.269.244l63.692-20.998a4.28 4.28 0 0 0 1.454-.822 4.27 4.27 0 0 0 1.029-1.317 4.25 4.25 0 0 0 .447-1.61 4.28 4.28 0 0 0-.203-1.659l-30.494-92.499a4.29 4.29 0 0 0-1.558-2.13c-.73-.528-1.609-.813-2.51-.813z" fill="#414042"/><path d="M117.198 115.818a6.27 6.27 0 0 1-1.27-.129c-2.337-.484-4.173-2.11-4.912-4.349s-.229-4.64 1.362-6.42c.748-.832 1.701-1.455 2.764-1.805s2.199-.417 3.295-.192c2.337.484 4.173 2.11 4.912 4.349s.229 4.64-1.362 6.42c-.604.671-1.343 1.207-2.168 1.574a6.43 6.43 0 0 1-2.621.552z" fill="url(#C)"/><path d="M117.169 103.794c.357 0 .714.035 1.067.108a5.52 5.52 0 0 1 3.007 9.123 5.46 5.46 0 0 1-4.044 1.792c-.356 0-.714-.035-1.066-.108a5.52 5.52 0 0 1-3.007-9.123c1.023-1.145 2.523-1.792 4.043-1.792zm0-2a7.42 7.42 0 0 0-3.03.64 7.4 7.4 0 0 0-2.505 1.82c-1.833 2.05-2.418 4.816-1.566 7.399s2.967 4.456 5.659 5.014c1.267.259 2.581.183 3.81-.222s2.331-1.125 3.197-2.087c1.833-2.051 2.418-4.817 1.566-7.4s-2.967-4.456-5.658-5.014c-.481-.1-.976-.15-1.473-.15z" fill="#413c25"/><path d="M109.005 99.388c-.519 0-.969-.332-1.12-.827-1.21-3.967.414-8.535 2.337-11.488 2.22-3.405 3.17-6.574 2.542-8.477-.535-1.625-1.679-2.448-3.399-2.448-.726 0-1.541.146-2.42.437-3.007.991-4.585 3.224-4.822 6.823-.02.294-.149.569-.364.771a1.16 1.16 0 0 1-.791.316h-.106l-8.451-1.748c-.276-.061-.521-.218-.691-.443s-.254-.504-.237-.785c.503-7.107 5.148-12.783 12.426-15.183 1.882-.621 3.773-.936 5.623-.936 1.931 0 3.871.343 5.766 1.02 3.745 1.336 6.322 4.072 7.659 8.133 1.845 5.593-.622 10.186-2.604 13.876-1.4 2.607-2.609 4.859-2.049 6.777a1.15 1.15 0 0 1-.751 1.426l-8.334 2.748-.214.008z" fill="url(#D)"/><path d="M109.53 66.401c1.836 0 3.645.324 5.43.961 3.479 1.241 5.808 3.748 7.045 7.504 2.998 9.088-6.236 15.239-4.664 20.621.012.039.009.081-.01.117s-.051.064-.089.077l-8.187 2.699c-.022.007-.044.01-.067.008a.17.17 0 0 1-.064-.018c-.02-.01-.037-.024-.052-.041s-.026-.037-.032-.058c-1.099-3.601.434-7.911 2.219-10.651 1.813-2.782 3.547-6.629 2.654-9.336-.686-2.08-2.231-3.135-4.349-3.135-.829 0-1.746.161-2.733.486-3.394 1.119-5.244 3.715-5.508 7.708-.002.041-.02.079-.049.107a.16.16 0 0 1-.108.045c-.011 0-.021-.002-.033-.004l-8.322-1.724c-.04-.009-.075-.032-.099-.064s-.036-.072-.034-.113c.488-6.896 5.14-12.128 11.741-14.305 1.799-.591 3.567-.883 5.311-.883zm0-2c-1.956 0-3.954.331-5.937.985-7.676 2.531-12.577 8.536-13.11 16.063a2.16 2.16 0 0 0 1.684 2.269l8.36 1.731.201.042.238.004c.548-.002 1.075-.212 1.474-.587s.642-.888.679-1.434c.211-3.19 1.526-5.078 4.139-5.939.777-.256 1.486-.386 2.106-.386 1.293 0 2.048.543 2.45 1.761.525 1.593-.406 4.512-2.43 7.618-2.047 3.142-3.768 8.03-2.457 12.327.134.445.409.835.783 1.112s.828.424 1.293.422c.225 0 .448-.034.662-.104l8.204-2.704a2.14 2.14 0 0 0 1.237-1.043 2.15 2.15 0 0 0 .156-1.611c-.446-1.525.674-3.609 1.97-6.023 2.073-3.859 4.653-8.662 2.673-14.664-1.439-4.368-4.223-7.315-8.273-8.761a18.1 18.1 0 0 0-6.102-1.078z" fill="#413c25"/><path d="M156.164 151.066c-.27 0-.533-.086-.752-.244a1.28 1.28 0 0 1-.466-.639l-30.494-92.5a1.29 1.29 0 0 1-.062-.497 1.29 1.29 0 0 1 .135-.482c.089-.178.305-.496.744-.641l63.693-20.997c.323-.107.675-.08.979.073a1.28 1.28 0 0 1 .641.744l30.494 92.5c.145.439.017.802-.073.979a1.26 1.26 0 0 1-.308.395c-.127.11-.276.194-.436.246l-63.692 20.998c-.13.042-.266.064-.403.065z" fill="url(#E)"/><path d="M188.269 38.453l29.418 89.237-60.431 19.923-29.419-89.239 60.432-19.921zM189.362 32a4.27 4.27 0 0 0-1.341.216l-63.692 20.997a4.29 4.29 0 0 0-1.455.822 4.28 4.28 0 0 0-1.029 1.317c-.253.502-.405 1.05-.447 1.611a4.3 4.3 0 0 0 .204 1.659l30.494 92.499c.356 1.079 1.126 1.972 2.14 2.483s2.19.599 3.269.244l63.691-20.998c.534-.176 1.028-.455 1.455-.822a4.3 4.3 0 0 0 1.029-1.317 4.27 4.27 0 0 0 .447-1.61 4.28 4.28 0 0 0-.203-1.659l-30.495-92.499c-.282-.856-.827-1.601-1.557-2.13s-1.609-.813-2.51-.813z" fill="#66c2e2"/><path d="M189.362 34.999c.27 0 .533.086.752.245a1.28 1.28 0 0 1 .466.639l30.495 92.5c.053.16.073.329.061.496s-.058.332-.134.482a1.28 1.28 0 0 1-.746.641l-63.691 20.999a1.27 1.27 0 0 1-.498.061c-.168-.013-.332-.058-.482-.134a1.28 1.28 0 0 1-.641-.746l-30.493-92.499a1.27 1.27 0 0 1 .073-.979c.089-.178.305-.496.745-.641l63.692-20.997c.131-.044.266-.066.401-.067zm0-2.999a4.27 4.27 0 0 0-1.341.216l-63.692 20.997a4.29 4.29 0 0 0-1.455.822 4.28 4.28 0 0 0-1.029 1.317c-.253.502-.405 1.05-.447 1.611a4.3 4.3 0 0 0 .204 1.659l30.494 92.499c.356 1.079 1.126 1.972 2.14 2.483s2.19.599 3.269.244l63.691-20.998c.534-.176 1.028-.455 1.455-.822a4.3 4.3 0 0 0 1.029-1.317 4.27 4.27 0 0 0 .447-1.61 4.28 4.28 0 0 0-.203-1.659l-30.495-92.499c-.282-.856-.827-1.601-1.557-2.13s-1.609-.813-2.51-.813z" fill="#414042"/><path d="M177.335 115.818a6.27 6.27 0 0 1-1.27-.129c-2.337-.484-4.173-2.11-4.912-4.349s-.229-4.64 1.362-6.42a6.42 6.42 0 0 1 2.763-1.805c1.063-.35 2.199-.417 3.296-.192 2.337.484 4.173 2.11 4.912 4.349s.229 4.64-1.362 6.42c-.604.671-1.343 1.208-2.168 1.574a6.43 6.43 0 0 1-2.621.552z" fill="url(#F)"/><path d="M177.305 103.794c.357 0 .714.035 1.067.108a5.52 5.52 0 0 1 3.007 9.123 5.46 5.46 0 0 1-4.044 1.792c-.356 0-.714-.035-1.066-.108a5.52 5.52 0 0 1-3.007-9.123c1.023-1.145 2.523-1.792 4.043-1.792zm0-2c-1.044-.002-2.076.216-3.03.64a7.4 7.4 0 0 0-2.505 1.82c-1.833 2.05-2.418 4.816-1.566 7.399s2.967 4.456 5.659 5.014c1.268.259 2.581.183 3.81-.222s2.331-1.125 3.197-2.087c1.833-2.051 2.418-4.817 1.566-7.4s-2.967-4.456-5.658-5.014c-.481-.1-.977-.15-1.473-.15z" fill="#413c25"/><path d="M169.137 99.388c-.519 0-.969-.332-1.12-.827-1.21-3.967.414-8.535 2.337-11.488 2.22-3.405 3.17-6.574 2.542-8.477-.536-1.625-1.679-2.448-3.399-2.448-.727 0-1.541.146-2.42.437-3.007.991-4.585 3.224-4.822 6.823a1.17 1.17 0 0 1-.364.771c-.214.202-.497.315-.791.316h-.106l-8.451-1.748c-.276-.061-.521-.218-.691-.443s-.254-.504-.237-.785c.503-7.107 5.148-12.783 12.426-15.183 1.882-.621 3.773-.936 5.623-.936 1.931 0 3.871.343 5.766 1.02 3.745 1.336 6.322 4.072 7.659 8.133 1.845 5.593-.622 10.186-2.604 13.876-1.4 2.607-2.609 4.859-2.049 6.777.086.289.056.6-.084.866s-.38.468-.667.56l-8.334 2.748-.214.008z" fill="url(#G)"/><path d="M169.666 66.401c1.836 0 3.645.324 5.43.961 3.479 1.241 5.808 3.748 7.045 7.504 2.997 9.088-6.236 15.239-4.664 20.621.012.039.009.081-.01.117s-.05.064-.089.077l-8.187 2.699c-.021.007-.044.01-.066.008a.17.17 0 0 1-.065-.018c-.02-.01-.037-.024-.052-.041s-.025-.037-.032-.058c-1.099-3.601.434-7.911 2.219-10.651 1.813-2.782 3.547-6.629 2.654-9.336-.686-2.08-2.231-3.135-4.349-3.135-.829 0-1.746.161-2.733.486-3.394 1.119-5.244 3.715-5.508 7.708-.002.041-.019.079-.049.107a.16.16 0 0 1-.108.045c-.011 0-.021-.002-.033-.004l-8.322-1.724c-.04-.009-.075-.032-.099-.064a.17.17 0 0 1-.034-.113c.488-6.896 5.14-12.128 11.741-14.305 1.799-.591 3.567-.883 5.311-.883zm0-2c-1.956 0-3.954.331-5.937.985-7.676 2.531-12.577 8.536-13.11 16.063a2.16 2.16 0 0 0 .419 1.448c.309.417.758.708 1.265.821l8.36 1.731.201.042.238.004c.548-.002 1.075-.212 1.474-.587s.642-.888.679-1.434c.211-3.19 1.526-5.078 4.139-5.939.777-.256 1.486-.386 2.106-.386 1.292 0 2.048.543 2.45 1.761.525 1.593-.406 4.512-2.43 7.618-2.047 3.142-3.768 8.03-2.457 12.327.134.445.409.835.783 1.112s.828.424 1.293.422c.225 0 .448-.034.662-.104l8.204-2.704a2.14 2.14 0 0 0 1.393-2.653c-.446-1.526.674-3.611 1.97-6.024 2.073-3.859 4.652-8.662 2.673-14.663-1.439-4.369-4.223-7.316-8.273-8.762a18.1 18.1 0 0 0-6.102-1.078z" fill="#413c25"/><path d="M201.57 339.942c-24.919 0-35.996-3.111-37.038-10.403-.437-3.058-.297-8.091-.149-13.42l.152-7.986c0-7.999 9.463-24.204 22.947-26.242l1.188-.18.474.639c.669.257 3.428 1.066 12.355 1.453 9.192-.397 11.937-1.243 12.553-1.487l.499-.592 1.106.167c13.484 2.038 22.947 18.243 22.947 26.242 0 2.522.077 5.302.152 7.988.148 5.328.288 10.361-.148 13.417-1.041 7.292-12.118 10.404-37.038 10.404z" fill="#fbfbf9"/><path d="M215.36 283.868c12.276 1.855 21.246 16.842 21.246 24.265s.652 16.722.023 21.123c-.695 4.87-8.168 8.687-35.058 8.687s-34.362-3.816-35.058-8.687c-.628-4.401.023-13.705.023-21.123s8.97-22.409 21.246-24.265c0 0 1.035 1.394 13.718 1.937 12.686-.544 13.86-1.937 13.86-1.937zm-25.798-4.315l-2.376.359c-14.064 2.126-24.648 18.585-24.648 28.22 0 2.494-.077 5.258-.151 7.931-.15 5.417-.292 10.533.168 13.758 1.23 8.609 12.534 12.121 39.018 12.121s37.789-3.512 39.018-12.121c.46-3.225.318-8.34.167-13.755l-.151-7.934c0-9.635-10.584-26.094-24.648-28.22l-2.213-.335-.852 1.011c-1.014.277-3.999.889-11.392 1.212-7.083-.311-10.057-.884-11.137-1.166l-.803-1.081z" fill="#47412a"/><path d="M201.275 285.866c-1.544 0-5.302-.033-6.843-.342-6.923-1.381-23.03-7.696-23.03-36.442 0-20.923 10.579-32.446 29.787-32.446 19.413 0 30.547 11.826 30.547 32.446 0 26.876-13.071 34.687-24.036 36.506-1.225.204-4.123.278-6.425.278z" fill="#fbfbf9"/><path d="M201.189 218.635c21.314 0 28.547 14.134 28.547 30.446 0 22.975-9.57 32.41-22.363 34.533-.975.163-3.519.251-6.099.251-2.688 0-5.416-.096-6.45-.303-11.145-2.223-21.423-11.884-21.423-34.481.001-16.312 6.568-30.446 27.788-30.446zm0-4c-20.498 0-31.787 12.233-31.787 34.446 0 30.227 17.232 36.927 24.641 38.404 1.65.331 5.24.38 7.232.38 1.481 0 5.106-.029 6.759-.306 11.723-1.945 25.703-10.201 25.703-38.479 0-21.89-11.863-34.445-32.548-34.445z" fill="#47412a"/><path d="M84.886 339.942c-24.92 0-35.997-3.111-37.038-10.404-.437-3.056-.296-8.089-.148-13.417l.152-7.988c0-7.999 9.463-24.204 22.947-26.242l1.188-.18.474.639c.668.258 3.427 1.066 12.355 1.453 9.192-.397 11.936-1.243 12.552-1.487l.499-.592 1.106.167c13.484 2.038 22.947 18.243 22.947 26.242 0 2.522.077 5.3.152 7.986.148 5.329.288 10.362-.149 13.419-1.042 7.292-12.118 10.404-37.037 10.404z" fill="#fbfbf9"/><path d="M98.674 283.868c12.276 1.855 21.246 16.842 21.246 24.265s.651 16.722.023 21.123c-.696 4.87-8.168 8.687-35.058 8.687s-34.363-3.816-35.058-8.687c-.628-4.401.023-13.705.023-21.123s8.97-22.409 21.246-24.265c0 0 1.034 1.394 13.719 1.937 12.685-.544 13.859-1.937 13.859-1.937zm-25.798-4.315l-2.377.359c-14.064 2.126-24.648 18.585-24.648 28.22 0 2.495-.077 5.26-.151 7.934-.151 5.415-.293 10.53.167 13.755 1.229 8.609 12.534 12.121 39.018 12.121s37.788-3.512 39.018-12.121c.46-3.225.318-8.341.168-13.758l-.151-7.931c0-9.635-10.584-26.094-24.648-28.22l-2.213-.335-.852 1.011c-1.014.277-3.998.889-11.392 1.212-7.082-.31-10.057-.884-11.137-1.166l-.802-1.081z" fill="#47412a"/><path d="M84.587 285.866c-1.544 0-5.302-.033-6.843-.342-6.923-1.381-23.029-7.696-23.029-36.442 0-20.923 10.579-32.446 29.787-32.446 19.414 0 30.548 11.826 30.548 32.446 0 26.876-13.071 34.687-24.036 36.506-1.227.204-4.124.278-6.427.278z" fill="#fbfbf9"/><path d="M84.502 218.635c21.314 0 28.548 14.134 28.548 30.446 0 22.975-9.571 32.41-22.363 34.533-.975.163-3.519.251-6.099.251-2.688 0-5.416-.096-6.45-.303-11.145-2.223-21.422-11.884-21.422-34.481-.001-16.312 6.566-30.446 27.786-30.446zm0-4c-20.498 0-31.787 12.233-31.787 34.446 0 30.227 17.231 36.927 24.64 38.404 1.651.331 5.24.38 7.232.38 1.481 0 5.106-.029 6.759-.306 11.723-1.945 25.704-10.201 25.704-38.479 0-21.89-11.864-34.445-32.548-34.445z" fill="#47412a"/><path d="M143.132 369.472c-24.919 0-35.996-3.111-37.038-10.402-.436-3.058-.296-8.091-.148-13.42l.151-7.986c0-8 9.463-24.205 22.947-26.242l1.188-.18.474.639c.669.257 3.428 1.066 12.356 1.453 9.193-.397 11.937-1.243 12.553-1.487l.499-.592 1.106.167c13.484 2.037 22.947 18.242 22.947 26.242 0 2.522.077 5.302.152 7.988.148 5.328.288 10.361-.148 13.417-1.043 7.292-12.119 10.403-37.039 10.403z" fill="#fbfbf9"/><path d="M156.924 313.399c12.276 1.854 21.246 16.842 21.246 24.265s.652 16.722.023 21.123c-.696 4.869-8.168 8.686-35.058 8.686s-34.362-3.816-35.058-8.686c-.628-4.401.023-13.705.023-21.123s8.971-22.41 21.246-24.265c0 0 1.035 1.394 13.719 1.937 12.684-.544 13.859-1.937 13.859-1.937zm-25.799-4.315l-2.376.359c-14.064 2.125-24.648 18.584-24.648 28.22 0 2.494-.077 5.258-.151 7.931-.15 5.417-.292 10.532.168 13.758 1.23 8.608 12.535 12.12 39.018 12.12s37.788-3.512 39.018-12.12c.46-3.225.318-8.34.167-13.755l-.151-7.934c0-9.636-10.584-26.095-24.648-28.22l-2.213-.334-.852 1.01c-1.013.277-3.998.889-11.392 1.212-7.083-.311-10.058-.884-11.138-1.166l-.802-1.081z" fill="#47412a"/><path d="M142.837 315.397c-1.544 0-5.302-.033-6.843-.342-6.923-1.381-23.029-7.696-23.029-36.442 0-20.923 10.579-32.446 29.787-32.446 19.413 0 30.547 11.826 30.547 32.446 0 26.876-13.071 34.687-24.036 36.506-1.226.205-4.124.278-6.426.278z" fill="#fbfbf9"/><path d="M142.752 248.166c21.314 0 28.547 14.133 28.547 30.446 0 22.974-9.57 32.41-22.363 34.533-.975.163-3.519.251-6.099.251-2.688 0-5.416-.096-6.45-.303-11.145-2.223-21.422-11.885-21.422-34.481 0-16.313 6.567-30.446 27.787-30.446zm0-4c-20.498 0-31.787 12.233-31.787 34.446 0 30.227 17.231 36.927 24.64 38.404 1.651.331 5.24.38 7.232.38 1.481 0 5.105-.029 6.758-.306 11.723-1.945 25.704-10.201 25.704-38.479 0-21.89-11.863-34.445-32.547-34.445z" fill="#47412a"/><path d="M62.598 182.495a3.65 3.65 0 0 0 3.638 3.648h5.986v17.411c.001.842.336 1.649.931 2.244s1.403.931 2.245.931h16.647c.842 0 1.649-.335 2.245-.931s.93-1.402.931-2.244v-17.411h5.986a3.65 3.65 0 0 0 2.574-1.072c.682-.684 1.065-1.61 1.064-2.576 0-.876-.311-1.697-.9-2.372L86.46 160.075c-.341-.39-.762-.703-1.234-.917a3.63 3.63 0 0 0-3.007 0c-.472.214-.893.527-1.234.917l-17.486 20.048a3.57 3.57 0 0 0-.9 2.372z" fill="url(#H)"/><path d="M104.248 182.538c0-.621-.212-1.255-.685-1.796l-17.486-20.047c-.259-.296-.578-.534-.936-.697s-.748-.248-1.141-.248-.783.085-1.141.248-.678.401-.936.697l-17.486 20.049c-.44.495-.684 1.133-.684 1.795 0 1.423 1.114 2.773 2.762 2.773h6.862v18.285a2.3 2.3 0 0 0 .674 1.626c.431.432 1.016.674 1.626.674h16.647c.61 0 1.195-.242 1.626-.674a2.3 2.3 0 0 0 .674-1.626V185.31h6.863c1.647 0 2.761-1.35 2.761-2.772zm1.752 0c0 2.494-2.026 4.524-4.513 4.524h-5.111v16.535c-.001 1.074-.428 2.104-1.188 2.864s-1.79 1.187-2.864 1.188H75.676c-1.074-.001-2.105-.428-2.864-1.188s-1.187-1.79-1.188-2.864v-16.535h-5.11c-2.489 0-4.514-2.029-4.514-4.524a4.49 4.49 0 0 1 1.116-2.947l17.486-20.047c.423-.485.946-.874 1.532-1.14S83.356 158 84 158s1.28.138 1.866.404 1.108.655 1.532 1.14l17.487 20.047a4.5 4.5 0 0 1 1.115 2.947z" fill="#162f0d"/><use xlink:href="#J" fill="url(#I)"/><path d="M162.748 182.538c0-.621-.212-1.255-.685-1.796l-17.486-20.047a2.75 2.75 0 0 0-.936-.697c-.358-.163-.747-.248-1.141-.248s-.783.085-1.141.248a2.75 2.75 0 0 0-.936.697l-17.486 20.049a2.71 2.71 0 0 0-.685 1.795c0 1.423 1.115 2.773 2.762 2.773h6.862v18.285a2.3 2.3 0 0 0 .674 1.626c.431.432 1.016.674 1.626.674h16.648c.61 0 1.195-.242 1.626-.674a2.3 2.3 0 0 0 .674-1.626V185.31h6.863c1.647 0 2.761-1.35 2.761-2.772zm1.752 0c0 2.494-2.026 4.524-4.513 4.524h-5.111v16.535c-.001 1.074-.428 2.104-1.188 2.864s-1.79 1.187-2.864 1.188h-16.648c-1.074-.001-2.104-.428-2.864-1.188s-1.187-1.79-1.188-2.864v-16.535h-5.11c-2.489 0-4.514-2.029-4.514-4.524a4.49 4.49 0 0 1 1.116-2.947l17.486-20.047c.423-.485.946-.874 1.532-1.14s1.222-.404 1.866-.404 1.28.138 1.866.404 1.109.655 1.532 1.14l17.487 20.047a4.5 4.5 0 0 1 1.115 2.947z" fill="#162f0d"/><use xlink:href="#J" x="58.5" fill="url(#I)"/><path d="M221.248 182.538c0-.621-.212-1.255-.685-1.796l-17.486-20.047a2.75 2.75 0 0 0-.936-.697c-.358-.163-.747-.248-1.141-.248s-.783.085-1.141.248a2.75 2.75 0 0 0-.936.697l-17.486 20.049a2.71 2.71 0 0 0-.685 1.795c0 1.423 1.115 2.773 2.762 2.773h6.862v18.285a2.3 2.3 0 0 0 .674 1.626c.431.432 1.016.674 1.626.674h16.648c.61 0 1.195-.242 1.626-.674a2.3 2.3 0 0 0 .674-1.626V185.31h6.863c1.647 0 2.761-1.35 2.761-2.772zm1.752 0c0 2.494-2.026 4.524-4.513 4.524h-5.111v16.535c-.001 1.074-.428 2.104-1.188 2.864s-1.79 1.187-2.864 1.188h-16.648c-1.074-.001-2.104-.428-2.864-1.188s-1.187-1.79-1.188-2.864v-16.535h-5.11c-2.489 0-4.514-2.029-4.514-4.524a4.49 4.49 0 0 1 1.116-2.947l17.486-20.047c.423-.485.946-.874 1.532-1.14S200.356 158 201 158s1.28.138 1.866.404 1.109.655 1.532 1.14l17.487 20.047a4.5 4.5 0 0 1 1.115 2.947z" fill="#162f0d"/><defs><radialGradient id="A" cx="0" cy="0" r="1" gradientTransform="translate(142.781 200) scale(163.894 169.057)" xlink:href="#K"><stop stop-color="#fbe678"/><stop offset="1" stop-color="#e3c62b"/></radialGradient><radialGradient id="B" cx="0" cy="0" r="1" gradientTransform="translate(112.624 93.0334) rotate(-90) scale(53.424 50.2132)" xlink:href="#K"><stop stop-color="#32b4ba"/><stop offset=".163" stop-color="#30abba"/><stop offset=".429" stop-color="#2b93ba"/><stop offset=".762" stop-color="#236bba"/><stop offset="1" stop-color="#1d4bba"/></radialGradient><linearGradient id="C" x1="117.183" y1="115.818" x2="117.183" y2="102.794" xlink:href="#K"><stop stop-color="#70aefe"/><stop offset=".16" stop-color="#83bcfe"/><stop offset=".527" stop-color="#abd7fe"/><stop offset=".82" stop-color="#c3e9fe"/><stop offset="1" stop-color="#cceffe"/></linearGradient><linearGradient id="D" x1="107.543" y1="99.388" x2="107.543" y2="65.401" xlink:href="#K"><stop stop-color="#70aefe"/><stop offset=".16" stop-color="#83bcfe"/><stop offset=".527" stop-color="#abd7fe"/><stop offset=".82" stop-color="#c3e9fe"/><stop offset="1" stop-color="#cceffe"/></linearGradient><radialGradient id="E" cx="0" cy="0" r="1" gradientTransform="translate(172.761 93.0334) rotate(-90) scale(53.424 50.2132)" xlink:href="#K"><stop stop-color="#32b4ba"/><stop offset=".163" stop-color="#30abba"/><stop offset=".429" stop-color="#2b93ba"/><stop offset=".762" stop-color="#236bba"/><stop offset="1" stop-color="#1d4bba"/></radialGradient><linearGradient id="F" x1="177.32" y1="115.818" x2="177.32" y2="102.794" xlink:href="#K"><stop stop-color="#70aefe"/><stop offset=".16" stop-color="#83bcfe"/><stop offset=".527" stop-color="#abd7fe"/><stop offset=".82" stop-color="#c3e9fe"/><stop offset="1" stop-color="#cceffe"/></linearGradient><linearGradient id="G" x1="167.675" y1="99.388" x2="167.675" y2="65.401" xlink:href="#K"><stop stop-color="#70aefe"/><stop offset=".16" stop-color="#83bcfe"/><stop offset=".527" stop-color="#abd7fe"/><stop offset=".82" stop-color="#c3e9fe"/><stop offset="1" stop-color="#cceffe"/></linearGradient><linearGradient id="H" x1="101.127" y1="175.099" x2="66.76" y2="194.945" xlink:href="#K"><stop stop-color="#4ce02d"/><stop offset=".094" stop-color="#52e733"/><stop offset=".17" stop-color="#44d626"/><stop offset=".341" stop-color="#3ac91d"/><stop offset=".525" stop-color="#37c41a"/><stop offset=".731" stop-color="#32bd15"/><stop offset="1" stop-color="#30bb13"/></linearGradient><linearGradient id="I" x1="159.627" y1="175.099" x2="125.26" y2="194.945" xlink:href="#K"><stop stop-color="#4ce02d"/><stop offset=".094" stop-color="#52e733"/><stop offset=".17" stop-color="#44d626"/><stop offset=".341" stop-color="#3ac91d"/><stop offset=".525" stop-color="#37c41a"/><stop offset=".731" stop-color="#32bd15"/><stop offset="1" stop-color="#30bb13"/></linearGradient><path id="J" d="M121.098 182.495a3.65 3.65 0 0 0 3.637 3.648h5.987v17.411a3.17 3.17 0 0 0 .931 2.244c.595.596 1.403.931 2.245.931h16.647c.842 0 1.649-.335 2.245-.931a3.18 3.18 0 0 0 .931-2.244v-17.411h5.986a3.65 3.65 0 0 0 2.574-1.072c.682-.684 1.065-1.61 1.064-2.576 0-.876-.311-1.697-.9-2.372l-17.486-20.048a3.63 3.63 0 0 0-2.738-1.243c-.518 0-1.031.111-1.503.326s-.893.527-1.235.917l-17.486 20.048a3.57 3.57 0 0 0-.899 2.372z"/><linearGradient id="K" gradientUnits="userSpaceOnUse"/></defs></svg>