<svg xmlns="http://www.w3.org/2000/svg" width="292" height="407" fill="none"  xmlns:v="https://vecta.io/nano"><path d="M16.233 390c-1.636-.002-3.204-.652-4.361-1.809a6.18 6.18 0 0 1-1.809-4.361V16.169c.002-1.636.653-3.204 1.81-4.36s2.725-1.807 4.36-1.809h253.162c1.635.002 3.203.653 4.359 1.809a6.18 6.18 0 0 1 1.81 4.36V383.83c-.002 1.636-.653 3.204-1.809 4.36s-2.725 1.808-4.36 1.81H16.233z" fill="url(#A)"/><path d="M265.562 20v360H20.063V20h245.5zm3.832-20H16.232C7.302 0 .063 7.239.063 16.169V383.83c0 8.931 7.239 16.17 16.17 16.17h253.162c8.929 0 16.168-7.239 16.168-16.17V16.169c0-8.93-7.24-16.169-16.168-16.169z" fill="#a1ecba"/><path d="M269.394 10c1.635.002 3.203.653 4.359 1.809s1.807 2.724 1.809 4.36V383.83a6.17 6.17 0 0 1-1.808 4.36c-1.157 1.157-2.725 1.808-4.36 1.81H16.232c-1.636-.002-3.204-.652-4.361-1.809s-1.807-2.725-1.809-4.361V16.169c.002-1.636.653-3.204 1.81-4.36A6.18 6.18 0 0 1 16.232 10h253.163zm0-10H16.232C7.302 0 .063 7.239.063 16.169V383.83c0 8.931 7.239 16.17 16.17 16.17h253.162c8.929 0 16.168-7.239 16.168-16.17V16.169c0-8.93-7.24-16.169-16.168-16.169z" fill="#414042"/><g opacity=".3" fill="#000"><path opacity=".3" d="M176.797 148c-.256 0-.501-.101-.682-.282s-.282-.426-.282-.682V71.507l-17.542 4.975c-.246.07-.51.039-.733-.086a.97.97 0 0 1-.458-.578l-3.727-13.046c-.067-.236-.042-.489.071-.707s.304-.385.535-.467l24.493-8.65c.104-.036.213-.055.322-.055h13.311c.256 0 .502.102.682.282s.283.426.283.682v93.178c0 .256-.102.501-.283.682a.96.96 0 0 1-.682.282h-15.308V148z"/><path opacity=".3" d="M192.105 53.858v93.177h-15.308V70.231l-18.769 5.324-3.728-13.046 24.493-8.65h13.312v-.001zm0-1.929h-13.312c-.219 0-.436.038-.642.11l-24.493 8.65a1.93 1.93 0 0 0-1.072.934c-.225.437-.276.943-.14 1.415l3.727 13.046a1.93 1.93 0 0 0 2.382 1.325l16.313-4.627v74.252c0 .512.203 1.003.565 1.364a1.93 1.93 0 0 0 1.364.565h15.307a1.93 1.93 0 0 0 1.364-.565c.362-.361.565-.852.565-1.364V53.858a1.93 1.93 0 0 0-.565-1.364c-.361-.362-.851-.565-1.363-.565z"/></g><path d="M174.863 146.072c-.255 0-.501-.102-.682-.283a.97.97 0 0 1-.282-.682V69.578l-17.542 4.975c-.246.07-.509.039-.732-.086a.96.96 0 0 1-.458-.578l-3.728-13.046c-.067-.236-.042-.489.071-.707s.304-.385.536-.467l24.493-8.651c.103-.036.212-.055.321-.055h13.312c.256 0 .501.102.682.282s.282.426.282.682v93.178c0 .256-.101.501-.282.682s-.426.283-.682.283h-15.309v.001z" fill="#f2fff2"/><path d="M190.175 51.929v93.178h-15.308V68.302l-18.769 5.324-3.727-13.046 24.493-8.65h13.311v-.001zm0-1.929h-13.311a1.95 1.95 0 0 0-.643.11l-24.493 8.65a1.93 1.93 0 0 0-1.212 2.35l3.728 13.046a1.93 1.93 0 0 0 2.381 1.325l16.313-4.627v74.253a1.93 1.93 0 0 0 1.929 1.929h15.307c.512 0 1.003-.203 1.364-.565a1.93 1.93 0 0 0 .565-1.364V51.929A1.93 1.93 0 0 0 190.175 50z" fill="#283b28"/><g opacity=".3" fill="#000"><path opacity=".3" d="M109.171 130.695c-.256 0-.501-.102-.682-.283s-.282-.426-.282-.682V108.2H86.675c-.256 0-.501-.102-.682-.283s-.282-.426-.282-.682V93.659c0-.256.102-.501.282-.682s.426-.282.682-.282h21.532V71.162c0-.256.101-.501.282-.682s.426-.282.682-.282h13.578c.256 0 .501.102.682.282s.282.426.282.682v21.533h21.532c.255 0 .501.102.682.282a.97.97 0 0 1 .282.682v13.576a.97.97 0 0 1-.282.682c-.181.181-.427.283-.682.283h-21.532v21.53c0 .256-.101.501-.282.682s-.426.283-.682.283h-13.578z"/><path opacity=".3" d="M122.749 71.161v22.498h22.495v13.577h-22.495v22.494h-13.578v-22.494H86.675V93.659h22.496V71.161h13.578zm0-1.929h-13.578c-.512 0-1.003.203-1.364.565a1.93 1.93 0 0 0-.565 1.364V91.73H86.675a1.93 1.93 0 0 0-1.929 1.929v13.577c0 .511.203 1.002.565 1.363a1.93 1.93 0 0 0 1.364.565h20.567v20.566a1.93 1.93 0 0 0 .565 1.364c.361.362.852.565 1.364.565h13.578a1.93 1.93 0 0 0 1.929-1.929v-20.566h20.566a1.93 1.93 0 0 0 1.364-.565c.362-.361.565-.852.565-1.363V93.659a1.93 1.93 0 0 0-1.929-1.929h-20.566V71.161a1.93 1.93 0 0 0-1.929-1.929z"/></g><path d="M107.241 128.766c-.255 0-.501-.102-.682-.283s-.282-.426-.282-.682v-21.53H84.746c-.256 0-.501-.101-.682-.282s-.282-.427-.282-.682V91.731c0-.256.102-.501.282-.682s.426-.282.682-.282h21.531V69.233c0-.256.101-.501.282-.682s.427-.282.682-.282h13.578c.256 0 .501.102.682.282s.283.426.283.682v21.533h21.531c.256 0 .501.102.682.282s.282.426.282.682v13.576c0 .255-.101.501-.282.682s-.426.282-.682.282h-21.531v21.53c0 .256-.102.501-.283.682s-.426.283-.682.283h-13.578z" fill="#f2fff2"/><path d="M120.823 69.233V91.73h22.496v13.576h-22.496v22.495h-13.578v-22.495H84.749V91.73h22.496V69.233h13.578zm0-1.929h-13.578a1.93 1.93 0 0 0-1.929 1.929v20.569H84.749a1.93 1.93 0 0 0-1.929 1.929v13.576c0 .512.203 1.003.565 1.364a1.93 1.93 0 0 0 1.364.565h20.567v20.566a1.93 1.93 0 0 0 1.929 1.929h13.578a1.93 1.93 0 0 0 1.929-1.929v-20.566h20.567a1.93 1.93 0 0 0 1.929-1.929V91.73a1.93 1.93 0 0 0-1.929-1.929h-20.567V69.233a1.93 1.93 0 0 0-1.929-1.929z" fill="#283b28"/><path d="M65.923 200.107c-9.143.421-10.718 7.777-10.718 7.777l-12.189 59.16c-.21 3.468 1.787 8.196 1.787 8.196a389.23 389.23 0 0 0 6.411 12.399c3.152 5.779 9.247 5.045 9.247 5.045l166.552-.106c4.833-.106 7.356-3.89 7.356-3.89l6.304-12.505c1.365-2.732 2.208-5.464 2.522-6.935s-12.399-61.473-12.399-61.473-2.26-7.565-10.824-7.775l-154.048.107z" fill="url(#B)" stroke="#344e33" stroke-width="2.5" stroke-miterlimit="10" stroke-linejoin="round"/><path d="M61.93 290.193l-.753.008c-2.688 0-5.711-.247-7.603-3.202-.676-1.058-6.449-11.714-7.263-15.136-.472-1.982.15-3.311.755-4.076 1.59-2.016 4.585-2.185 7.512-2.185l72.766-.056a2.45 2.45 0 0 1 .342-.025l15.329.012 15.327-.012c.116 0 .234.009.348.025l72.762.056c2.926 0 5.92.169 7.51 2.185.606.766 1.227 2.096.755 4.076-.814 3.424-6.587 14.078-7.263 15.136-1.891 2.955-4.916 3.202-7.6 3.202l-.808-.008-79.87.07-82.246-.07z" fill="url(#C)"/><path d="M158.356 268.042v.024l73.108.057c3.309 0 6.515.213 5.814 3.156s-6.274 13.328-6.935 14.361c-1.035 1.618-2.549 2.039-5.48 2.039-.241 0-.494-.001-.754-.007l-79.922.07-82.241-.072-.755.008c-2.929 0-4.443-.422-5.479-2.039-.661-1.033-6.234-11.42-6.935-14.362s2.505-3.156 5.814-3.156l73.108-.057v-.024l15.328.012 15.33-.01zm-30.658-5.043a5.39 5.39 0 0 0-.493.023l-72.618.057c-2.619 0-7.006 0-9.489 3.144-1.343 1.701-1.781 3.912-1.227 6.226.945 3.967 7.061 15.08 7.593 15.91 2.794 4.366 7.477 4.366 9.728 4.366l.804-.009 82.189.071 79.88-.071.804.009c2.251 0 6.934 0 9.726-4.365.532-.83 6.65-11.943 7.595-15.909.551-2.313.114-4.523-1.227-6.226-2.484-3.144-6.871-3.144-9.494-3.144l-72.62-.057c-.162-.015-.325-.024-.487-.024h-.004l-15.328.012-15.321-.012-.009-.001z" fill="#414042"/><path d="M52.233 275.094c-4.627 0-6.698-3.497-6.698-6.963 0-.169.017-.337.05-.502l12.009-59.066c.795-3.588 4.331-5.969 8.806-5.969h153.167c4.215 0 7.131 1.848 8.665 5.492.065.153.113.312.147.475l11.809 57.819c.642 1.624.386 3.734-.697 5.499a6.6 6.6 0 0 1-5.745 3.213H52.233v.002z" fill="url(#D)"/><path d="M219.584 205.115c3.526 0 5.325 1.535 6.34 3.949l11.865 58.081c.836 1.641-.503 5.425-4.026 5.425H52.249c-3.524 0-4.176-2.787-4.176-4.44l12.009-59.066c.486-2.191 2.811-3.949 6.337-3.949h153.165zm0-5.044H66.417c-5.686 0-10.21 3.174-11.259 7.9l-.019.088-12.009 59.066a5.05 5.05 0 0 0-.103 1.005c0 5.584 3.791 9.484 9.22 9.484h181.514c3.297 0 6.175-1.61 7.895-4.416 1.435-2.348 1.789-5.196.982-7.504l-11.775-57.639c-.066-.324-.165-.641-.294-.946-1.935-4.605-5.735-7.038-10.985-7.038z" fill="#414042"/><defs><radialGradient id="A" cx="0" cy="0" r="1" gradientUnits="userSpaceOnUse" gradientTransform="translate(142.814 200) scale(163.894 169.057)"><stop stop-color="#5bcd81"/><stop offset="1" stop-color="#3fa964"/></radialGradient><linearGradient id="B" x1="143.1" y1="292.713" x2="143.1" y2="200.003" gradientUnits="userSpaceOnUse"><stop stop-color="#fcee21"/><stop offset=".148" stop-color="#fce921"/><stop offset=".315" stop-color="#fbdc21"/><stop offset=".491" stop-color="#f9c522"/><stop offset=".674" stop-color="#f7a622"/><stop offset=".86" stop-color="#f47d23"/><stop offset="1" stop-color="#f15a24"/></linearGradient><linearGradient id="C" x1="143.014" y1="265.521" x2="143.014" y2="290.263" gradientUnits="userSpaceOnUse"><stop stop-color="#d5d5d5"/><stop offset=".167" stop-color="#d0d0d0"/><stop offset=".355" stop-color="#c3c3c3"/><stop offset=".554" stop-color="#acacac"/><stop offset=".76" stop-color="#8d8d8d"/><stop offset=".97" stop-color="#646464"/><stop offset="1" stop-color="#5e5e5e"/></linearGradient><linearGradient id="D" x1="143.036" y1="275.092" x2="143.036" y2="202.594" gradientUnits="userSpaceOnUse"><stop stop-color="#d5d5d5"/><stop offset=".167" stop-color="#d0d0d0"/><stop offset=".355" stop-color="#c3c3c3"/><stop offset=".554" stop-color="#acacac"/><stop offset=".76" stop-color="#8d8d8d"/><stop offset=".97" stop-color="#646464"/><stop offset="1" stop-color="#5e5e5e"/></linearGradient></defs></svg>