<svg xmlns="http://www.w3.org/2000/svg" xmlns:xlink="http://www.w3.org/1999/xlink" width="292" height="407" fill="none" xmlns:v="https://vecta.io/nano"><style><![CDATA[.B{fill:#414342}.C{opacity:.063}.D{fill:#cecece}.E{fill:#81635e}.F{opacity:.3}.G{fill:#595959}.H{fill:#414042}.I{fill:#f6faf6}.J{fill:#223948}.K{fill:#c99ee8}.L{stroke:#414342}.M{stroke-width:.5}.N{stroke-miterlimit:10}.O{stroke-linejoin:round}]]></style><path d="M16.264 390c-1.636-.002-3.204-.652-4.361-1.809s-1.807-2.725-1.809-4.361V16.169c.002-1.636.653-3.204 1.81-4.36A6.18 6.18 0 0 1 16.264 10h253.161a6.18 6.18 0 0 1 6.169 6.169V383.83c-.002 1.636-.653 3.204-1.809 4.36s-2.725 1.808-4.36 1.81H16.264z" fill="url(#A)"/><path d="M265.594 20v360h-245.5V20h245.5zm3.831-20H16.264C7.333 0 .094 7.239.094 16.169V383.83c0 8.931 7.239 16.17 16.17 16.17h253.161c8.93 0 16.169-7.239 16.169-16.17V16.169c0-8.93-7.24-16.169-16.169-16.169z" fill="#afbff4"/><path d="M269.425 10a6.18 6.18 0 0 1 6.169 6.169V383.83c-.002 1.636-.653 3.204-1.809 4.36s-2.725 1.808-4.36 1.81H16.264c-1.636-.002-3.204-.652-4.361-1.809s-1.807-2.725-1.809-4.361V16.169c.002-1.636.653-3.204 1.81-4.36A6.18 6.18 0 0 1 16.264 10h253.161zm0-10H16.264C7.333 0 .094 7.239.094 16.169V383.83c0 8.931 7.239 16.17 16.17 16.17h253.161c8.93 0 16.169-7.239 16.169-16.17V16.169c0-8.93-7.24-16.169-16.169-16.169z" class="H"/><path d="M186.895 367.429c-19.575 0-28.276-2.444-29.094-8.171-.343-2.402-.233-6.355-.117-10.541l.119-6.273c0-6.284 7.433-19.014 18.025-20.614l.933-.141.373.502c.525.202 2.693.837 9.706 1.141 7.221-.312 9.377-.976 9.86-1.168l.392-.465.869.131c10.592 1.6 18.026 14.33 18.026 20.614 0 1.981.06 4.164.119 6.274.116 4.186.226 8.139-.116 10.54-.82 5.727-9.52 8.171-29.095 8.171z" class="I"/><path d="M197.726 323.383c9.643 1.456 16.689 13.23 16.689 19.061 0 5.826.512 13.135.018 16.592-.546 3.824-6.416 6.823-27.538 6.823s-26.993-2.998-27.539-6.823c-.494-3.457.018-10.766.018-16.592 0-5.831 7.047-17.604 16.689-19.061 0 0 .813 1.095 10.777 1.522 9.963-.428 10.886-1.522 10.886-1.522zm-20.266-3.389l-1.866.282c-11.048 1.669-19.362 14.598-19.362 22.167 0 1.959-.06 4.13-.118 6.23-.118 4.255-.23 8.273.132 10.807.966 6.761 9.846 9.52 30.649 9.52s29.684-2.759 30.65-9.52c.361-2.534.25-6.551.131-10.805l-.119-6.232c0-7.569-8.314-20.498-19.361-22.167l-1.739-.263-.669.794c-.796.217-3.14.698-8.948.952-5.564-.245-7.901-.695-8.75-.916l-.63-.849z" class="J"/><path d="M186.465 325.381c-1.213 0-4.165-.026-5.375-.269-5.438-1.085-18.09-6.045-18.09-28.625 0-16.436 8.31-25.487 23.398-25.487 15.25 0 23.996 9.289 23.996 25.487 0 21.111-10.268 27.247-18.881 28.675-.963.162-3.24.219-5.048.219z" class="I"/><path d="M186.594 272.142c16.743 0 22.425 11.102 22.425 23.916 0 18.046-7.518 25.458-17.567 27.126-.766.128-2.764.197-4.791.197-2.111 0-4.254-.076-5.066-.238-8.755-1.746-16.828-9.336-16.828-27.085 0-12.814 5.159-23.916 21.827-23.916zm0-3.142c-16.101 0-24.969 9.609-24.969 27.058 0 23.743 13.535 29.006 19.355 30.166 1.297.26 4.116.299 5.681.299 1.164 0 4.01-.023 5.309-.24 9.208-1.528 20.191-8.013 20.191-30.226 0-17.195-9.319-27.057-25.567-27.057z" class="J"/><path d="M140.591 319.867c-.003-3.825-3.106-6.941-6.923-6.941h-11.391v-33.133a6.05 6.05 0 0 0-1.772-4.271c-1.133-1.133-2.67-1.77-4.272-1.772h-31.68a6.05 6.05 0 0 0-6.044 6.043v33.133H67.118a6.94 6.94 0 0 0-6.923 6.941c0 1.667.592 3.23 1.712 4.513l33.275 38.151c.649.743 1.45 1.338 2.349 1.747a6.92 6.92 0 0 0 5.722 0 6.94 6.94 0 0 0 2.35-1.747l33.275-38.151a6.79 6.79 0 0 0 1.712-4.513z" fill="url(#B)"/><path d="M61.335 319.784c0 1.182.404 2.389 1.302 3.42l33.275 38.147a5.25 5.25 0 0 0 1.782 1.327 5.23 5.23 0 0 0 2.172.471c.749 0 1.49-.16 2.172-.471s1.289-.763 1.781-1.327l33.275-38.152a5.15 5.15 0 0 0 1.303-3.416c0-2.708-2.121-5.276-5.256-5.276h-13.058V279.71a4.38 4.38 0 0 0-1.282-3.094c-.821-.821-1.934-1.282-3.095-1.282h-31.68c-1.161 0-2.274.461-3.095 1.282s-1.282 1.934-1.282 3.094v34.8h-13.06c-3.134 0-5.254 2.569-5.254 5.274zm-3.335 0c0-4.746 3.855-8.608 8.588-8.608h9.726V279.71c.002-2.044.815-4.004 2.261-5.449s3.406-2.259 5.45-2.261h31.68a7.72 7.72 0 0 1 5.45 2.261c1.446 1.445 2.259 3.405 2.261 5.449v31.466h9.724c4.737 0 8.59 3.861 8.59 8.608a8.54 8.54 0 0 1-2.124 5.608l-33.275 38.149c-.805.923-1.799 1.663-2.915 2.17a8.58 8.58 0 0 1-7.102 0c-1.115-.507-2.109-1.247-2.915-2.17l-33.277-38.149c-1.361-1.551-2.115-3.543-2.123-5.608z" fill="#162f0d"/><g fill="#413c25" class="F"><use xlink:href="#F" class="F"/><use xlink:href="#F" class="F"/></g><g fill="#000" class="F"><use xlink:href="#G" class="F"/><use xlink:href="#G" class="F"/><path d="M191.664 35.858v93.177h-15.309V52.231l-18.768 5.324-3.728-13.046 24.493-8.65h13.312v-.001zm0-1.929h-13.312c-.219 0-.436.038-.642.11l-24.494 8.65a1.93 1.93 0 0 0-1.212 2.349l3.728 13.046a1.93 1.93 0 0 0 2.381 1.325l16.313-4.627v74.252a1.93 1.93 0 0 0 1.929 1.929h15.308a1.93 1.93 0 0 0 1.929-1.929V35.858a1.93 1.93 0 0 0-1.928-1.929z" class="F"/></g><path d="M174.426 128.072c-.256 0-.501-.102-.682-.283s-.282-.426-.282-.682V51.578l-17.543 4.975c-.245.07-.509.039-.732-.086s-.388-.332-.458-.578l-3.727-13.046c-.067-.236-.042-.489.071-.707s.304-.385.535-.467l24.493-8.651a.99.99 0 0 1 .321-.055h13.312c.256 0 .501.102.682.282s.283.426.283.682v93.178c0 .256-.102.501-.283.682s-.426.283-.682.283h-15.308v.001z" class="I"/><path d="M189.734 33.929v93.178h-15.308V50.302l-18.769 5.324-3.728-13.046 24.493-8.65h13.312v-.001zm0-1.929h-13.312a1.94 1.94 0 0 0-.642.11l-24.493 8.65c-.464.164-.847.498-1.072.934s-.276.943-.141 1.415l3.728 13.046a1.93 1.93 0 0 0 2.381 1.325l16.314-4.627v74.253a1.93 1.93 0 0 0 .565 1.364c.361.362.852.565 1.364.565h15.307a1.93 1.93 0 0 0 1.929-1.929V33.929c0-.512-.203-1.002-.565-1.364a1.93 1.93 0 0 0-1.363-.565z" class="J"/><path d="M92.925 109.83a.95.95 0 0 1-.95-.95V87.805H70.899a.95.95 0 0 1-.95-.95V73.563a.95.95 0 0 1 .95-.95h21.076V51.538a.95.95 0 0 1 .95-.95h13.294a.95.95 0 0 1 .95.95v21.074h21.076a.95.95 0 0 1 .949.95v13.293a.95.95 0 0 1-.949.95h-21.076v21.075a.95.95 0 0 1-.95.95H92.925v.001z" class="I"/><path d="M106.22 51.538v22.024h22.025v13.293H106.22v22.024H92.925V86.856H70.899V73.563h22.026V51.538h13.295zm0-1.899H92.925a1.9 1.9 0 0 0-1.899 1.899v20.125H70.899A1.9 1.9 0 0 0 69 73.562v13.293a1.9 1.9 0 0 0 1.899 1.899h20.127v20.125a1.9 1.9 0 0 0 .556 1.343c.356.357.839.557 1.343.557h13.295c.504 0 .987-.2 1.343-.557a1.9 1.9 0 0 0 .556-1.343V88.755h20.126a1.9 1.9 0 0 0 1.899-1.899V73.563a1.9 1.9 0 0 0-1.899-1.899h-20.126V51.538a1.9 1.9 0 0 0-1.899-1.899z" class="J"/><path d="M69.612 255.423a1.64 1.64 0 0 1-1.227-.127 1.59 1.59 0 0 1-.778-.941l-27.864-91.14c-.258-.843.209-1.745 1.065-2.006l63.724-19.483c.856-.261 1.772.217 2.03 1.06l27.864 91.141c.258.843-.234 1.752-1.09 2.014l-63.723 19.482z" fill="url(#C)"/><path d="M104.286 144.512l27.288 89.256-61.711 18.867-27.288-89.256 61.711-18.867zm-.56-5.251l-63.674 19.467c-2.264.693-3.505 3.024-2.822 5.255l27.864 91.141c.682 2.231 3.039 3.462 5.278 2.778l63.724-19.483c2.264-.692 3.522-3.056 2.847-5.262l-27.864-91.14c-.682-2.232-3.064-3.455-5.304-2.771l-.05.015z" class="K"/><path d="M104.509 141.733c.856-.261 1.772.217 2.03 1.06l27.864 91.141c.258.843-.234 1.752-1.089 2.014l-63.699 19.474a1.64 1.64 0 0 1-1.227-.126c-.375-.2-.654-.538-.778-.942l-27.864-91.14c-.258-.843.209-1.745 1.065-2.006l63.724-19.483-.025.008zm-.733-2.487l-63.724 19.482c-2.264.693-3.505 3.024-2.822 5.255l27.864 91.141c.682 2.231 3.039 3.462 5.278 2.778l63.724-19.483c2.264-.692 3.522-3.056 2.847-5.262l-27.864-91.14c-.682-2.232-3.064-3.455-5.304-2.771z" class="H"/><path d="M61.173 199.212c-.074.017-.151.008-.218-.027s-.118-.093-.145-.163l-.616-1.615c-.027-.075-.024-.158.009-.231l3.52-8.199a.3.3 0 0 1 .077-.106c.033-.029.072-.051.115-.064s.088-.017.132-.011.087.02.125.043l7.506 4.832a.31.31 0 0 1 .097.104c.024.042.038.088.041.136l.105 1.771a.31.31 0 0 1-.054.188c-.038.056-.093.098-.157.12l-10.537 3.222z" class="E"/><path d="M63.99 189.098l7.507 4.832.105 1.771-10.52 3.216-.613-1.616 3.521-8.205v.002zm-.169-.552c-.084.026-.161.07-.226.128s-.117.13-.152.21l-3.521 8.206a.61.61 0 0 0-.012.439l.616 1.615a.59.59 0 0 0 .288.319.61.61 0 0 0 .432.041l10.52-3.216c.128-.041.24-.123.317-.233a.6.6 0 0 0 .108-.375l-.105-1.771c-.007-.092-.035-.18-.081-.26a.62.62 0 0 0-.187-.199l-7.507-4.834a.63.63 0 0 0-.245-.088.62.62 0 0 0-.261.02l.017-.002z" class="B"/><path d="M77.84 187.662a.32.32 0 0 1-.225-.02c-.07-.034-.124-.093-.152-.165l-.613-1.616a.31.31 0 0 1 .004-.217l3.522-8.212c.018-.041.045-.077.079-.107a.32.32 0 0 1 .116-.064.33.33 0 0 1 .132-.012.31.31 0 0 1 .125.045l7.504 4.834a.32.32 0 0 1 .096.102c.024.04.038.086.042.133l.105 1.771c.002.066-.017.132-.055.187a.32.32 0 0 1-.156.121l-10.525 3.22z" class="E"/><path d="M80.656 177.541l7.504 4.835.105 1.771-10.517 3.215-.616-1.615 3.521-8.206h.003zm-.171-.549a.61.61 0 0 0-.228.13c-.066.059-.118.131-.153.211l-3.51 8.191a.6.6 0 0 0-.011.442l.613 1.616a.59.59 0 0 0 .296.32.6.6 0 0 0 .439.032l10.52-3.216a.62.62 0 0 0 .316-.232.6.6 0 0 0 .109-.373l-.105-1.771a.59.59 0 0 0-.08-.261c-.047-.08-.111-.147-.189-.198l-7.515-4.829a.59.59 0 0 0-.243-.091.59.59 0 0 0-.26.02v.009z" class="B"/><path d="M98.153 187.906c-.074.018-.151.008-.218-.026s-.118-.093-.145-.163l-.616-1.615c-.025-.072-.024-.149.003-.221l3.522-8.209c.019-.04.046-.076.079-.105s.073-.052.116-.066.088-.016.132-.011.087.021.125.044l7.504 4.832a.32.32 0 0 1 .097.104c.024.042.038.089.04.137l.108 1.77c.003.067-.016.133-.054.188s-.093.097-.157.12l-10.536 3.221z" class="E"/><g class="B"><path d="M100.969 177.793l7.506 4.831.109 1.791-10.518 3.216-.616-1.615 3.521-8.206-.002-.017zm-.166-.533c-.084.027-.161.07-.226.129s-.117.13-.152.209l-3.521 8.206c-.06.14-.064.297-.012.44l.613 1.616c.054.14.16.255.296.321s.294.078.44.033l10.52-3.216a.62.62 0 0 0 .317-.231c.077-.11.115-.241.108-.374l-.102-1.772c-.008-.091-.036-.18-.082-.26s-.11-.147-.187-.199l-7.507-4.834c-.074-.046-.158-.076-.245-.088s-.176-.005-.261.02z"/><path d="M63.984 189.1l6.457 7.343.494-.16-.378-.828-.521-2.173.652-.221-6.704-3.961z" style="mix-blend-mode:darken" class="C"/></g><path d="M90.433 187.506l-12.286 3.757c-.156.047-.244.21-.197.363l3.614 11.822c.047.154.211.239.367.192l12.286-3.756c.156-.048.244-.211.197-.364l-3.614-11.822c-.047-.153-.211-.239-.367-.192z" class="D"/><path d="M90.521 187.786l3.614 11.819-12.286 3.757-3.614-11.82 12.286-3.756zm-.168-.55l-12.286 3.757c-.148.045-.272.146-.345.281a.57.57 0 0 0-.044.439l3.614 11.819a.57.57 0 0 0 .282.339.59.59 0 0 0 .444.04l12.286-3.756c.148-.045.272-.146.345-.281a.57.57 0 0 0 .045-.439l-3.613-11.819a.57.57 0 0 0-.282-.339.59.59 0 0 0-.444-.041z" class="B"/><path d="M82.635 223.234a.29.29 0 0 1-.222-.02c-.068-.035-.119-.096-.141-.169l-6.862-20.201a.28.28 0 0 1-.015-.113c.003-.039.014-.077.031-.111a.29.29 0 0 1 .073-.092c.031-.025.066-.044.104-.056l3.316-1.013a.29.29 0 0 1 .222.02c.068.035.119.096.141.169l.756 2.474 2.753-.842-.756-2.473c-.022-.073-.014-.152.022-.22s.099-.118.173-.141l3.319-1.014a.29.29 0 0 1 .222.02c.068.035.119.096.141.169l.756 2.474 2.753-.842-.756-2.473c-.022-.073-.014-.152.022-.22s.099-.118.173-.14l3.319-1.015c.074-.023.154-.015.222.02a.29.29 0 0 1 .141.169l.756 2.474 2.753-.841-.756-2.474c-.022-.073-.014-.152.022-.22s.099-.118.173-.14l3.33-1.018c.038-.012.078-.016.117-.012s.078.015.112.035a.27.27 0 0 1 .088.074.28.28 0 0 1 .051.102l5.601 20.593c.022.072.014.151-.023.219s-.098.118-.172.141l-21.96 6.707z" class="D"/><path d="M98.905 195.657l5.598 20.593-21.958 6.714-6.862-20.201 3.316-1.014.84 2.749 3.319-1.015-.84-2.748 3.319-1.015.84 2.749 3.316-1.014-.84-2.749 3.319-1.015.84 2.749 3.316-1.014-.84-2.748 3.319-1.015-.002-.006zm-.166-.544l-3.319 1.015c-.148.045-.272.146-.345.281a.57.57 0 0 0-.045.439l.672 2.199-2.189.669-.672-2.199a.57.57 0 0 0-.282-.338.59.59 0 0 0-.444-.041l-3.319 1.015c-.148.045-.272.146-.345.282a.57.57 0 0 0-.044.438l.672 2.199-2.189.67-.672-2.199a.57.57 0 0 0-.282-.339.59.59 0 0 0-.444-.041l-3.319 1.015a.59.59 0 0 0-.345.282.57.57 0 0 0-.044.438l.672 2.199-2.189.67-.672-2.199a.57.57 0 0 0-.282-.339c-.136-.071-.296-.086-.444-.04l-3.35 1.024a.58.58 0 0 0-.207.11.59.59 0 0 0-.147.181.57.57 0 0 0-.035.453l6.867 20.187a.57.57 0 0 0 .282.338.59.59 0 0 0 .444.041l21.958-6.714c.148-.045.272-.146.345-.281s.089-.293.045-.439l-5.591-20.562-.014-.047a.57.57 0 0 0-.282-.338.59.59 0 0 0-.444-.041l.001.012z" class="B"/><path d="M67.673 227.815c-.04.013-.081.017-.122.012s-.081-.018-.116-.039-.066-.05-.089-.083-.039-.072-.046-.112l-6.228-24.143-1.434-1.079c-.049-.038-.085-.09-.103-.149l-.634-2.075-.895-2.927c-.022-.073-.014-.152.022-.22s.099-.118.173-.14l2.99-.915c.074-.022.154-.015.222.021s.119.096.141.169l.807 2.639 2.429-.743-.807-2.639c-.022-.073-.014-.151.022-.219s.099-.118.173-.141l2.993-.915a.32.32 0 0 1 .115-.012c.039.004.076.015.111.033s.064.042.088.072.042.063.053.099l.807 2.638 2.432-.743-.807-2.639c-.022-.073-.014-.152.022-.219s.099-.118.173-.141l3.012-.921a.3.3 0 0 1 .222.02c.068.036.119.097.141.17l1.527 4.994c.018.06.016.123-.005.182l-.581 1.701 8.349 23.507a.28.28 0 0 1 .02.116c-.002.04-.012.079-.029.115s-.043.068-.073.094a.3.3 0 0 1-.105.057l-14.966 4.575z" class="D"/><path d="M58.293 197.131l2.99-.914.892 2.916 2.995-.916-.892-2.916 2.993-.915.892 2.916 2.995-.916-.89-2.91 2.99-.914.893 2.921.633 2.073-.62 1.792 8.386 23.608-14.966 4.576-6.248-24.257-1.516-1.138-.635-2.078-.895-2.927.003-.001zm-.171-.549c-.148.045-.272.146-.345.282a.57.57 0 0 0-.045.438l.895 2.928.634 2.075c.037.118.11.222.21.296l1.354 1.017 6.197 24.062a.57.57 0 0 0 .275.36c.071.04.15.065.231.074a.6.6 0 0 0 .242-.023l14.952-4.571c.078-.024.151-.064.213-.117s.114-.117.15-.19.055-.146.06-.224a.57.57 0 0 0-.034-.229l-8.317-23.413.553-1.603a.57.57 0 0 0 .009-.36l-1.528-4.997a.57.57 0 0 0-.282-.339c-.136-.071-.296-.086-.444-.04l-3.004.918c-.148.045-.272.146-.345.282a.57.57 0 0 0-.045.438l.721 2.359-1.866.57-.72-2.356a.57.57 0 0 0-.109-.201c-.049-.059-.111-.108-.18-.143a.58.58 0 0 0-.22-.065.57.57 0 0 0-.229.025l-2.998.916a.59.59 0 0 0-.345.282.57.57 0 0 0-.045.438l.721 2.359-1.866.57-.72-2.355a.57.57 0 0 0-.282-.339.59.59 0 0 0-.444-.041l-2.987.914-.02.003z" class="B"/><path d="M104.601 216.519a.33.33 0 0 1-.125.011c-.042-.005-.082-.018-.119-.038s-.066-.049-.09-.082-.04-.071-.048-.111l-6.218-24.139-1.437-1.078-.008-.025c-.038-.035-.067-.079-.082-.128l-.634-2.073-.895-2.927c-.022-.073-.014-.152.022-.22s.099-.118.173-.14l2.99-.914a.29.29 0 0 1 .222.02c.068.035.119.096.141.169l.806 2.636 2.433-.743-.806-2.636a.29.29 0 0 1 .022-.22.3.3 0 0 1 .173-.141l3.012-.92a.3.3 0 0 1 .115-.013c.039.004.077.015.111.034s.064.042.088.071.042.063.053.099l.805 2.636 2.43-.743-.806-2.636c-.022-.073-.014-.152.022-.219s.099-.118.173-.141l2.99-.914a.28.28 0 0 1 .115-.012.31.31 0 0 1 .111.033c.033.018.063.042.087.071s.042.063.053.1l1.527 4.994a.31.31 0 0 1 .007.151l-.009.03-.6 1.701 8.352 23.508c.015.037.022.077.02.116s-.011.079-.029.115-.043.068-.074.094a.29.29 0 0 1-.105.057l-14.968 4.567z" class="D"/><path d="M95.219 185.835l2.987-.913.892 2.916 2.993-.915-.89-2.911 3.012-.921.891 2.917 2.993-.915-.892-2.917 2.99-.914 1.527 4.995-.62 1.791 8.383 23.601-14.977 4.579-6.244-24.255-1.513-1.139-.634-2.073-.895-2.927-.003.001zm-.168-.55a.59.59 0 0 0-.345.282.57.57 0 0 0-.044.438l.895 2.928.634 2.075c.037.118.11.222.21.297l1.351 1.017 6.197 24.062c.018.076.052.148.099.211s.108.116.177.155.146.063.225.072.159 0 .236-.023l14.955-4.573a.59.59 0 0 0 .208-.112c.061-.052.111-.115.146-.186a.58.58 0 0 0 .061-.227.57.57 0 0 0-.037-.231l-8.317-23.413.553-1.603c.041-.116.043-.242.006-.359l-.633-2.073-.885-2.894-.009-.028a.57.57 0 0 0-.282-.338.59.59 0 0 0-.443-.041l-2.982.912c-.148.045-.272.146-.345.281s-.089.293-.045.439l.721 2.358-1.866.571-.721-2.359a.57.57 0 0 0-.282-.338.59.59 0 0 0-.443-.041l-3.01.92a.59.59 0 0 0-.345.282c-.073.135-.089.293-.045.439l.721 2.358-1.865.57-.721-2.358a.57.57 0 0 0-.282-.339.59.59 0 0 0-.444-.04l-2.99.914-.014-.005z" class="B"/><g class="L M"><path d="M74.658 199.471l-13.404 4.098m36.918-11.243l13.069-3.996" class="N"/><path d="M69.327 206.565a1.54 1.54 0 0 0-.862.766 1.5 1.5 0 0 0-.081 1.139l.965 3.155 2.837-.867-.977-3.194a1.47 1.47 0 0 0-.27-.52 1.48 1.48 0 0 0-1.021-.542c-.199-.018-.4.003-.591.063zm36.921-11.289c-.376.136-.685.411-.861.767a1.5 1.5 0 0 0-.081 1.138l.965 3.156 2.839-.868-.977-3.194c-.054-.19-.146-.367-.271-.52a1.48 1.48 0 0 0-.455-.373c-.176-.093-.369-.151-.568-.169s-.4.004-.591.063zm-21.192-3.024a1.37 1.37 0 0 0-.761.678 1.33 1.33 0 0 0-.072 1.007l.849 2.776 2.51-.767-.863-2.823a1.3 1.3 0 0 0-.242-.456 1.31 1.31 0 0 0-.402-.326 1.32 1.32 0 0 0-.5-.146c-.175-.015-.352.004-.52.057z" class="G O"/></g><g class="B"><path d="M66.813 225.698l.536 2.142 15.638-4.781-8.425-23.507-2.3.655 7.01 21.123a.51.51 0 0 1 .025.205.52.52 0 0 1-.058.2.53.53 0 0 1-.131.162.54.54 0 0 1-.184.099l-12.11 3.702zm36.886-11.278l.536 2.142 15.638-4.781-8.425-23.507-2.3.655 7.034 21.194c.019.057.026.117.021.177a.43.43 0 0 1-.049.171.44.44 0 0 1-.114.139.45.45 0 0 1-.158.086l-12.183 3.724z" style="mix-blend-mode:darken" class="C"/><path d="M94.446 199.705l-1.156.359-.885-2.783-.817.25-2.706-8.851 2.014-.615 3.55 11.64zm1.739-3.505l4.93 18.498a.51.51 0 0 1-.052.378c-.066.115-.174.202-.301.241l-18.618 5.692.657 2.149 21.651-6.619-.657-2.15-.108.034-4.871-19.061-2.632.838z" style="mix-blend-mode:darken" class="C"/></g><path d="M90.097 220.959l-.084-.275-2.336-7.641c-.642-2.1.374-4.304 2.263-4.918l.056-.017c1.93-.59 4.016.606 4.646 2.667l2.46 8.046-.293.089-6.711 2.049z" class="G"/><g class="B"><path d="M90.068 208.374c1.779-.544 3.692.566 4.277 2.477l2.375 7.767-6.415 1.962-2.336-7.642c-.588-1.924.307-3.983 2.076-4.542l.05-.015-.026-.007zm-.142-.543l-.061.019c-2.042.663-3.145 3.03-2.457 5.281l2.336 7.641a.59.59 0 0 0 .291.349.61.61 0 0 0 .457.042l6.415-1.962c.152-.046.28-.151.356-.29a.59.59 0 0 0 .046-.452l-2.381-7.786c-.677-2.216-2.926-3.497-5.013-2.859l.011.017z"/><path d="M87.961 182.32l2.279-.925 1.558 4.597-.9 2.073-2.153.658.523-2.071-1.306-4.332zm-16.875 10.674l2.281-.749 1.796 5.327-.9 2.073-2.15.657.521-2.068-1.547-5.24z" style="mix-blend-mode:darken" class="C"/></g><path d="M78.039 191.987c-.045.014-.092.017-.138.009a.29.29 0 0 1-.126-.054l-1.516-1.139c-.049-.038-.085-.09-.103-.149l-.635-2.075-.895-2.927c-.022-.073-.014-.152.022-.22s.099-.118.173-.14l2.987-.914c.074-.022.154-.015.222.021s.119.096.141.169l.806 2.636 2.429-.743-.803-2.627c-.022-.073-.014-.152.022-.22s.099-.118.173-.141l2.993-.914a.29.29 0 0 1 .222.02c.068.035.119.096.141.169l.806 2.636 2.432-.743-.806-2.636c-.022-.073-.014-.152.022-.22s.099-.118.173-.141l2.993-.915a.31.31 0 0 1 .113-.012c.038.003.075.014.109.032s.065.042.09.071.043.064.054.101l1.527 4.994c.015.05.016.102.004.152l-.009.03-.618 1.791c-.015.044-.041.084-.075.117s-.076.056-.121.069l-12.808 3.913z" class="D"/><g class="B"><path d="M74.914 185.566l2.99-.914.891 2.914 2.993-.915-.891-2.914 2.993-.915.891 2.914 2.995-.916-.889-2.908 2.993-.915.892 2.919.634 2.076-.62 1.791-12.83 3.923-1.516-1.139-.634-2.075-.894-2.925.003-.001zm-.175-.562c-.148.045-.272.146-.345.281a.57.57 0 0 0-.044.439l.895 2.927.635 2.076a.58.58 0 0 0 .209.293l1.513 1.14c.074.056.161.094.254.109a.59.59 0 0 0 .277-.019l12.83-3.922c.09-.027.173-.075.241-.139s.119-.145.149-.233l.618-1.791c.041-.116.044-.242.009-.36l-1.523-4.983a.57.57 0 0 0-.282-.339.59.59 0 0 0-.444-.041l-3.007.92c-.148.045-.272.146-.345.281a.57.57 0 0 0-.044.439l.721 2.358-1.866.571-.721-2.359c-.045-.146-.146-.267-.282-.339a.59.59 0 0 0-.444-.04l-3.007.919a.59.59 0 0 0-.345.282.57.57 0 0 0-.044.439l.721 2.358-1.866.57-.721-2.358a.57.57 0 0 0-.282-.339.59.59 0 0 0-.444-.04l-2.987.913-.026-.013z"/><path d="M108.012 181.699l2.281-.748 1.799 5.326-.9 2.072-2.153.659.521-2.068-1.548-5.241zm-20.301-.335l2.284-.75 1.797 5.33-.901 2.07-2.153.658.523-2.068-1.55-5.24zm-7.059-3.828l6.458 7.346.493-.163-.375-.829-.521-2.173.653-.217-6.707-3.964zm20.313.252l6.457 7.346.494-.163-.379-.828-.521-2.173.653-.218-6.704-3.964z" style="mix-blend-mode:darken" class="C"/></g><path d="M126.65 255.423a1.64 1.64 0 0 1-1.227-.127 1.59 1.59 0 0 1-.777-.941l-27.864-91.14c-.258-.843.209-1.745 1.065-2.006l63.724-19.483c.856-.261 1.772.217 2.03 1.06l27.864 91.141c.258.843-.234 1.752-1.089 2.014l-63.725 19.482z" fill="url(#D)"/><path d="M161.321 144.512l27.289 89.256-61.712 18.867-27.288-89.256 61.711-18.867zm-.56-5.251l-63.674 19.467c-2.264.693-3.505 3.024-2.822 5.255l27.864 91.141c.683 2.231 3.04 3.462 5.279 2.778l63.724-19.483c2.264-.692 3.522-3.056 2.847-5.262l-27.864-91.14c-.682-2.232-3.064-3.455-5.303-2.771l-.051.015z" class="K"/><path d="M161.544 141.733c.856-.261 1.772.217 2.03 1.06l27.865 91.141a1.63 1.63 0 0 1-1.09 2.014l-63.699 19.474a1.64 1.64 0 0 1-1.227-.126c-.375-.2-.655-.538-.778-.942l-27.864-91.14c-.258-.843.209-1.745 1.065-2.006l63.725-19.483-.026.008zm-.732-2.487l-63.725 19.482c-2.264.693-3.505 3.024-2.822 5.255l27.864 91.141c.683 2.231 3.04 3.462 5.279 2.778l63.724-19.483c2.264-.692 3.522-3.056 2.847-5.262l-27.864-91.14c-.682-2.232-3.064-3.455-5.303-2.771z" class="H"/><use xlink:href="#H" class="E"/><use xlink:href="#I" class="B"/><use xlink:href="#J" class="E"/><use xlink:href="#K" class="B"/><use xlink:href="#L" class="E"/><g class="B"><path d="M158.008 177.793l7.507 4.832.108 1.791-10.517 3.215-.616-1.615 3.52-8.205-.002-.018zm-.166-.532a.61.61 0 0 0-.226.128.62.62 0 0 0-.152.21l-3.521 8.206c-.06.14-.064.297-.012.439l.613 1.616a.59.59 0 0 0 .297.321.61.61 0 0 0 .44.034l10.52-3.217a.61.61 0 0 0 .317-.231c.077-.109.115-.241.108-.373l-.102-1.772a.61.61 0 0 0-.082-.26c-.046-.08-.11-.148-.187-.199l-7.507-4.834c-.074-.047-.158-.077-.245-.088s-.176-.005-.261.02z"/><path d="M121.023 189.1l6.457 7.343.494-.16-.378-.828-.521-2.173.652-.22-6.704-3.962z" style="mix-blend-mode:darken" class="C"/></g><use xlink:href="#M" class="D"/><path d="M147.557 187.787l3.613 11.819-12.286 3.756-3.613-11.819 12.286-3.756zm-.169-.55l-12.285 3.756c-.148.045-.272.147-.345.282s-.09.293-.045.438l3.613 11.82c.045.145.147.267.283.338a.59.59 0 0 0 .443.041l12.286-3.756a.59.59 0 0 0 .345-.282c.073-.135.089-.293.045-.439l-3.614-11.819a.57.57 0 0 0-.282-.339.59.59 0 0 0-.444-.04z" class="B"/><path d="M139.674 223.235c-.074.023-.154.015-.222-.02s-.119-.097-.141-.17l-6.862-20.2c-.013-.037-.018-.075-.015-.114s.014-.076.032-.111.043-.066.073-.091.066-.045.104-.056l3.316-1.014c.074-.023.154-.015.222.02s.119.097.141.17l.757 2.473 2.752-.841-.756-2.474c-.022-.073-.014-.152.022-.219s.099-.118.173-.141l3.319-1.015a.3.3 0 0 1 .222.02c.068.036.119.097.141.17l.756 2.474 2.753-.842-.756-2.474a.28.28 0 0 1 .022-.219c.036-.068.099-.118.173-.141l3.319-1.015c.073-.022.153-.015.221.021s.119.096.141.169l.757 2.474 2.753-.842-.757-2.474c-.022-.073-.014-.151.023-.219a.29.29 0 0 1 .172-.141l3.33-1.018c.038-.012.078-.016.118-.012a.3.3 0 0 1 .2.109c.024.031.041.065.051.103l5.601 20.592c.022.073.014.152-.023.219s-.098.119-.172.141l-21.96 6.708z" class="D"/><use xlink:href="#N" class="B"/><path d="M124.708 227.816c-.039.012-.081.016-.122.011a.28.28 0 0 1-.116-.039c-.035-.021-.066-.049-.089-.083s-.039-.072-.046-.112l-6.228-24.142-1.434-1.08c-.049-.038-.085-.089-.103-.148l-.635-2.075-.895-2.928c-.022-.073-.014-.152.022-.219s.099-.118.173-.141l2.99-.914c.074-.023.154-.015.222.02a.29.29 0 0 1 .141.17l.806 2.638 2.43-.742-.807-2.639c-.022-.073-.014-.152.022-.219s.099-.119.173-.141l2.993-.915a.28.28 0 0 1 .115-.012.29.29 0 0 1 .111.033c.033.018.063.042.087.071s.042.063.053.099l.807 2.639 2.432-.744-.807-2.638a.29.29 0 0 1 .022-.22c.037-.067.099-.118.173-.14l3.012-.921a.29.29 0 0 1 .222.02c.068.035.119.096.141.169l1.527 4.995a.29.29 0 0 1-.005.182l-.581 1.701 8.348 23.506c.015.037.022.077.02.116s-.012.079-.029.115-.043.068-.074.094a.29.29 0 0 1-.105.057l-14.966 4.576z" class="D"/><path d="M115.331 197.131l2.99-.914.892 2.917 2.995-.916-.891-2.917 2.992-.915.892 2.917 2.995-.916-.89-2.911 2.99-.914.893 2.922.634 2.072-.62 1.792 8.386 23.609-14.966 4.575-6.248-24.256-1.516-1.139-.636-2.078-.895-2.927.003-.001zm-.171-.549a.59.59 0 0 0-.345.282.57.57 0 0 0-.044.439l.895 2.927.634 2.075c.037.118.11.222.21.297l1.354 1.017 6.197 24.061a.58.58 0 0 0 .275.361c.071.04.149.065.231.073a.62.62 0 0 0 .242-.022l14.952-4.572a.63.63 0 0 0 .364-.306.59.59 0 0 0 .06-.224c.004-.078-.007-.156-.034-.229l-8.317-23.414.553-1.602a.57.57 0 0 0 .009-.361l-1.528-4.997c-.045-.146-.146-.267-.282-.339a.59.59 0 0 0-.444-.04l-3.004.918a.59.59 0 0 0-.345.282c-.073.135-.089.293-.045.439l.722 2.358-1.866.57-.721-2.355a.58.58 0 0 0-.288-.345c-.068-.036-.143-.058-.22-.064s-.154.001-.228.024l-2.999.917a.59.59 0 0 0-.345.281.57.57 0 0 0-.044.439l.721 2.358-1.866.571-.72-2.356a.57.57 0 0 0-.283-.339c-.136-.071-.295-.085-.443-.04l-2.987.913-.021.003z" class="B"/><use xlink:href="#O" class="D"/><path d="M152.258 185.835l2.987-.913.892 2.916 2.993-.914-.89-2.911 3.012-.921.891 2.916 2.993-.915-.892-2.916 2.99-.914 1.527 4.994-.62 1.792 8.383 23.6-14.977 4.579-6.244-24.254-1.513-1.14-.634-2.072-.895-2.927h-.003zm-.168-.549c-.148.045-.272.146-.345.281s-.089.293-.045.439l.895 2.927.635 2.075a.59.59 0 0 0 .21.297l1.351 1.018 6.197 24.061c.018.077.052.149.099.212a.58.58 0 0 0 .177.154c.069.039.146.064.225.072a.59.59 0 0 0 .236-.023l14.955-4.572c.076-.023.147-.062.208-.113a.57.57 0 0 0 .146-.185.58.58 0 0 0 .061-.227c.004-.079-.009-.157-.036-.231l-8.318-23.414.553-1.602a.57.57 0 0 0 .006-.36l-.633-2.072-.885-2.895-.009-.027a.57.57 0 0 0-.282-.339c-.136-.071-.295-.086-.443-.04l-2.982.911c-.148.045-.272.147-.345.282s-.089.293-.045.439l.721 2.358-1.865.57-.722-2.358a.57.57 0 0 0-.282-.339c-.136-.071-.295-.085-.443-.04l-3.01.92c-.148.045-.272.146-.345.281a.57.57 0 0 0-.044.439l.721 2.358-1.866.571-.721-2.358a.57.57 0 0 0-.283-.339.59.59 0 0 0-.443-.041l-2.99.914-.014-.004z" class="B"/><g class="L M"><path d="M131.693 199.471l-13.404 4.098m36.922-11.242l13.069-3.996" class="N"/><g class="G O"><use xlink:href="#P"/><use xlink:href="#Q"/><use xlink:href="#R"/></g></g><g class="B"><use xlink:href="#S" style="mix-blend-mode:darken" class="C"/><use xlink:href="#T" style="mix-blend-mode:darken" class="C"/><path d="M151.485 199.705l-1.156.36-.884-2.783-.817.249-2.706-8.85 2.014-.616 3.549 11.64z" style="mix-blend-mode:darken" class="C"/><use xlink:href="#U" style="mix-blend-mode:darken" class="C"/></g><use xlink:href="#V" class="G"/><g class="B"><path d="M147.107 208.375c1.779-.544 3.692.566 4.277 2.476l2.374 7.768-6.414 1.961-2.337-7.641c-.588-1.924.308-3.983 2.076-4.542l.05-.015-.026-.007zm-.142-.543l-.061.019c-2.042.663-3.145 3.029-2.457 5.28l2.336 7.641c.046.151.151.276.291.349a.6.6 0 0 0 .457.042l6.415-1.961c.152-.047.28-.151.355-.29s.092-.302.046-.452l-2.381-7.787c-.677-2.215-2.926-3.496-5.012-2.859l.011.018z"/><path d="M145 182.321l2.279-.926 1.558 4.597-.9 2.073-2.154.658.523-2.071-1.306-4.331zm-16.875 10.673l2.281-.749 1.796 5.327-.9 2.073-2.151.657.521-2.068-1.547-5.24z" style="mix-blend-mode:darken" class="C"/></g><path d="M135.078 191.987c-.045.014-.092.017-.138.009a.29.29 0 0 1-.126-.054l-1.516-1.139a.3.3 0 0 1-.103-.149l-.635-2.075-.895-2.927a.29.29 0 0 1 .022-.22c.037-.067.099-.118.173-.14l2.987-.914c.074-.022.154-.015.222.021s.119.096.141.169l.806 2.636 2.429-.743-.803-2.627a.29.29 0 0 1 .022-.22.3.3 0 0 1 .173-.141l2.992-.914a.29.29 0 0 1 .222.02c.068.035.119.096.141.169l.806 2.636 2.432-.743-.806-2.636c-.022-.073-.014-.152.023-.22s.098-.118.172-.141l2.993-.915c.036-.011.075-.015.113-.012a.28.28 0 0 1 .109.032c.035.017.065.042.09.071s.043.064.054.101l1.527 4.994a.28.28 0 0 1 .004.152l-.009.03-.618 1.791c-.015.044-.04.084-.075.117s-.075.056-.121.069l-12.808 3.913z" class="D"/><g class="B"><use xlink:href="#W"/><path d="M165.051 181.7l2.281-.749 1.8 5.326-.901 2.073-2.153.658.521-2.068-1.548-5.24zm-20.305-.336l2.284-.749 1.797 5.329-.902 2.07-2.153.659.524-2.069-1.55-5.24zm-7.055-3.827l6.458 7.346.493-.163-.375-.829-.521-2.173.653-.218-6.708-3.963zm20.313.252l6.458 7.346.493-.163-.379-.828-.521-2.173.654-.218-6.705-3.964z" style="mix-blend-mode:darken" class="C"/></g><path d="M181.693 255.423a1.64 1.64 0 0 1-1.227-.127 1.59 1.59 0 0 1-.777-.941l-27.865-91.14c-.257-.843.21-1.745 1.065-2.006l63.724-19.483c.856-.261 1.772.217 2.03 1.06l27.864 91.141c.258.843-.234 1.752-1.089 2.014l-63.725 19.482z" fill="url(#E)"/><path d="M216.364 144.512l27.289 89.256-61.712 18.867-27.288-89.256 61.711-18.867zm-.56-5.251l-63.674 19.467c-2.264.693-3.504 3.024-2.822 5.255l27.864 91.141c.683 2.231 3.04 3.462 5.279 2.778l63.724-19.483c2.264-.692 3.522-3.056 2.847-5.262l-27.864-91.14c-.682-2.232-3.064-3.455-5.303-2.771l-.051.015z" class="K"/><path d="M216.587 141.733c.856-.261 1.772.217 2.03 1.06l27.864 91.141c.258.843-.234 1.752-1.089 2.014l-63.699 19.474a1.64 1.64 0 0 1-1.227-.126c-.375-.2-.655-.538-.778-.942l-27.864-91.14c-.258-.843.209-1.745 1.064-2.006l63.725-19.483-.026.008zm-.732-2.487l-63.725 19.482c-2.264.693-3.504 3.024-2.822 5.255l27.864 91.141c.683 2.231 3.04 3.462 5.279 2.778l63.724-19.483c2.264-.692 3.522-3.056 2.847-5.262l-27.864-91.14c-.682-2.232-3.064-3.455-5.303-2.771z" class="H"/><use xlink:href="#H" x="55.043" class="E"/><use xlink:href="#I" x="55.043" class="B"/><use xlink:href="#J" x="55.043" class="E"/><use xlink:href="#K" x="55.043" class="B"/><use xlink:href="#L" x="55.043" class="E"/><g class="B"><path d="M213.051 177.793l7.507 4.832.108 1.791-10.518 3.215-.615-1.615 3.52-8.205-.002-.018zm-.166-.532a.61.61 0 0 0-.226.128.62.62 0 0 0-.152.21l-3.521 8.206c-.06.14-.064.297-.012.439l.613 1.616a.59.59 0 0 0 .297.321.61.61 0 0 0 .44.034l10.52-3.217a.61.61 0 0 0 .317-.231c.077-.109.115-.241.108-.373l-.102-1.772a.61.61 0 0 0-.082-.26c-.046-.08-.11-.148-.187-.199l-7.507-4.834c-.074-.047-.158-.077-.245-.088s-.176-.005-.261.02z"/><path d="M176.066 189.1l6.457 7.343.494-.16-.378-.828-.521-2.173.652-.22-6.704-3.962z" style="mix-blend-mode:darken" class="C"/></g><use xlink:href="#M" x="55.043" class="D"/><path d="M202.6 187.787l3.613 11.819-12.286 3.756-3.613-11.819 12.286-3.756zm-.169-.55l-12.285 3.756a.59.59 0 0 0-.346.282.57.57 0 0 0-.044.438l3.613 11.82c.045.145.147.267.283.338a.59.59 0 0 0 .443.041l12.286-3.756a.59.59 0 0 0 .345-.282c.073-.135.089-.293.045-.439l-3.614-11.819a.57.57 0 0 0-.282-.339.59.59 0 0 0-.444-.04z" class="B"/><path d="M194.713 223.235c-.074.023-.154.015-.222-.02s-.119-.097-.141-.17l-6.862-20.2c-.013-.037-.017-.075-.014-.114s.013-.076.031-.111.043-.066.073-.091.066-.045.104-.056l3.316-1.014c.074-.023.154-.015.222.02s.12.097.142.17l.756 2.473 2.752-.841-.756-2.474c-.022-.073-.014-.152.022-.219s.099-.118.173-.141l3.319-1.015a.3.3 0 0 1 .222.02c.068.036.119.097.141.17l.756 2.474 2.753-.842-.756-2.474a.28.28 0 0 1 .022-.219c.036-.068.099-.118.173-.141l3.319-1.015c.073-.022.153-.015.221.021s.119.096.141.169l.757 2.474 2.753-.842-.757-2.474c-.022-.073-.014-.151.023-.219s.099-.118.173-.141l3.329-1.018c.038-.012.078-.016.118-.012a.3.3 0 0 1 .2.109c.024.031.041.065.051.103l5.601 20.592c.022.073.014.152-.023.219s-.098.119-.172.141l-21.96 6.708z" class="D"/><use xlink:href="#N" x="55.043" class="B"/><path d="M179.751 227.816c-.039.012-.081.016-.122.011a.28.28 0 0 1-.116-.039c-.035-.021-.066-.049-.089-.083s-.039-.072-.046-.112l-6.228-24.142-1.434-1.08c-.049-.038-.085-.089-.104-.148l-.634-2.075-.895-2.928c-.022-.073-.014-.152.022-.219s.099-.118.173-.141l2.99-.914c.074-.023.154-.015.222.02a.29.29 0 0 1 .141.17l.806 2.638 2.43-.742-.807-2.639c-.022-.073-.014-.152.022-.219s.099-.119.173-.141l2.993-.915a.28.28 0 0 1 .115-.012.29.29 0 0 1 .111.033c.033.018.063.042.087.071s.042.063.053.099l.807 2.639 2.432-.744-.807-2.638a.29.29 0 0 1 .022-.22c.037-.067.099-.118.173-.14l3.012-.921a.29.29 0 0 1 .222.02c.068.035.119.096.141.169l1.527 4.995a.29.29 0 0 1-.005.182l-.581 1.701 8.348 23.506c.015.037.022.077.02.116s-.012.079-.029.115-.043.068-.074.094a.29.29 0 0 1-.105.057l-14.966 4.576z" class="D"/><path d="M170.37 197.131l2.99-.914.892 2.917 2.995-.916-.891-2.917 2.992-.915.892 2.917 2.995-.916-.89-2.911 2.99-.914.893 2.922.634 2.072-.62 1.792 8.386 23.609-14.966 4.575-6.248-24.256-1.516-1.139-.636-2.078-.895-2.927.003-.001zm-.171-.549a.59.59 0 0 0-.345.282.57.57 0 0 0-.044.439l.895 2.927.634 2.075c.037.118.11.222.21.297l1.354 1.017 6.197 24.061a.56.56 0 0 0 .1.209.58.58 0 0 0 .175.152c.071.04.149.065.231.073a.62.62 0 0 0 .242-.022l14.952-4.572a.63.63 0 0 0 .364-.306.59.59 0 0 0 .06-.224c.004-.078-.007-.156-.034-.229l-8.317-23.414.553-1.602a.57.57 0 0 0 .009-.361l-1.528-4.997c-.045-.146-.146-.267-.282-.339a.59.59 0 0 0-.444-.04l-3.004.918a.59.59 0 0 0-.345.282c-.073.135-.089.293-.045.439l.721 2.358-1.865.57-.721-2.355a.58.58 0 0 0-.288-.345c-.068-.036-.143-.058-.22-.064s-.154.001-.228.024l-2.999.917a.59.59 0 0 0-.345.281.57.57 0 0 0-.044.439l.721 2.358-1.866.571-.72-2.356a.57.57 0 0 0-.283-.339c-.136-.071-.295-.085-.443-.04l-2.987.913-.021.003z" class="B"/><use xlink:href="#O" x="55.039" class="D"/><path d="M207.301 185.835l2.987-.913.892 2.916 2.993-.914-.89-2.911 3.012-.921.891 2.916 2.993-.915-.892-2.916 2.99-.914 1.527 4.994-.62 1.792 8.383 23.6-14.977 4.579-6.244-24.254-1.513-1.14-.634-2.072-.895-2.927h-.003zm-.168-.549c-.148.045-.272.146-.345.281s-.089.293-.045.439l.895 2.927.635 2.075a.59.59 0 0 0 .21.297l1.351 1.018 6.197 24.061c.018.077.052.149.099.212a.58.58 0 0 0 .177.154c.069.039.146.064.225.072a.59.59 0 0 0 .236-.023l14.955-4.572c.076-.023.147-.062.208-.113a.57.57 0 0 0 .146-.185.58.58 0 0 0 .061-.227c.004-.079-.009-.157-.036-.231l-8.318-23.414.553-1.602a.57.57 0 0 0 .006-.36l-.633-2.072-.885-2.895-.009-.027a.57.57 0 0 0-.282-.339c-.136-.071-.295-.086-.443-.04l-2.982.911c-.148.045-.272.147-.345.282s-.089.293-.045.439l.721 2.358-1.865.57-.722-2.358a.57.57 0 0 0-.282-.339c-.136-.071-.295-.085-.443-.04l-3.01.92c-.148.045-.272.146-.345.281s-.089.293-.045.439l.722 2.358-1.866.571-.721-2.358a.57.57 0 0 0-.283-.339.59.59 0 0 0-.443-.041l-2.99.914-.014-.004z" class="B"/><g class="L M"><path d="M186.736 199.471l-13.404 4.098m36.922-11.242l13.069-3.996" class="N"/><g class="G O"><use xlink:href="#P" x="55.039"/><use xlink:href="#Q" x="55.043"/><use xlink:href="#R" x="55.042"/></g></g><g class="B"><use xlink:href="#S" x="55.043" style="mix-blend-mode:darken" class="C"/><use xlink:href="#T" x="55.043" style="mix-blend-mode:darken" class="C"/><path d="M206.528 199.705l-1.156.36-.884-2.783-.817.249-2.706-8.85 2.014-.616 3.549 11.64z" style="mix-blend-mode:darken" class="C"/><use xlink:href="#U" x="55.039" style="mix-blend-mode:darken" class="C"/></g><use xlink:href="#V" x="55.043" class="G"/><g class="B"><path d="M202.15 208.375c1.779-.544 3.692.566 4.277 2.476l2.374 7.768-6.414 1.961-2.337-7.641c-.588-1.924.307-3.983 2.076-4.542l.05-.015-.026-.007zm-.142-.543l-.061.019c-2.042.663-3.145 3.029-2.457 5.28l2.336 7.641c.046.151.151.276.291.349a.6.6 0 0 0 .457.042l6.415-1.961c.152-.047.28-.151.355-.29s.092-.302.046-.452l-2.381-7.787c-.677-2.215-2.926-3.496-5.012-2.859l.011.018z"/><path d="M200.039 182.321l2.279-.926 1.558 4.597-.9 2.073-2.154.658.523-2.071-1.306-4.331zm-16.871 10.673l2.281-.749 1.796 5.327-.9 2.073-2.151.657.521-2.068-1.547-5.24z" style="mix-blend-mode:darken" class="C"/></g><path d="M190.117 191.987c-.045.014-.092.017-.138.009a.29.29 0 0 1-.126-.054l-1.516-1.139a.3.3 0 0 1-.103-.149l-.635-2.075-.895-2.927a.29.29 0 0 1 .022-.22c.037-.067.099-.118.173-.14l2.987-.914c.074-.022.154-.015.222.021s.119.096.141.169l.806 2.636 2.429-.743-.803-2.627c-.023-.073-.014-.152.022-.22a.3.3 0 0 1 .173-.141l2.992-.914a.29.29 0 0 1 .222.02c.068.035.119.096.141.169l.806 2.636 2.432-.743-.806-2.636c-.022-.073-.014-.152.023-.22s.098-.118.172-.141l2.993-.915c.036-.011.075-.015.113-.012a.28.28 0 0 1 .109.032c.035.017.065.042.09.071s.043.064.054.101l1.527 4.994a.28.28 0 0 1 .004.152l-.009.03-.618 1.791c-.015.044-.04.084-.075.117s-.075.056-.121.069l-12.808 3.913z" class="D"/><g class="B"><use xlink:href="#W" x="55.043"/><path d="M220.094 181.7l2.281-.749 1.8 5.326-.901 2.073-2.153.658.521-2.068-1.548-5.24zm-20.305-.336l2.284-.749 1.797 5.329-.902 2.07-2.153.659.524-2.069-1.55-5.24zm-7.055-3.827l6.458 7.346.493-.163-.375-.829-.521-2.173.653-.218-6.708-3.963zm20.313.252l6.458 7.346.493-.163-.379-.828-.521-2.173.654-.218-6.705-3.964z" style="mix-blend-mode:darken" class="C"/></g><defs><radialGradient id="A" cx="0" cy="0" r="1" gradientTransform="translate(142.844 200) scale(163.894)" xlink:href="#X"><stop stop-color="#6a97ee"/><stop offset="1" stop-color="#396ed4"/></radialGradient><linearGradient id="B" x1="67.272" y1="333.941" x2="132.671" y2="296.176" xlink:href="#X"><stop stop-color="#4ce02d"/><stop offset=".094" stop-color="#52e733"/><stop offset=".17" stop-color="#44d626"/><stop offset=".341" stop-color="#3ac91d"/><stop offset=".525" stop-color="#37c41a"/><stop offset=".731" stop-color="#32bd15"/><stop offset="1" stop-color="#30bb13"/></linearGradient><radialGradient id="C" cx="0" cy="0" r="1" gradientTransform="translate(87.1862 198.54) rotate(-107) scale(42.493 44.4755)" xlink:href="#X"><stop stop-color="#c889ba"/><stop offset=".2" stop-color="#bf83ba"/><stop offset=".5" stop-color="#a774ba"/><stop offset="1" stop-color="#7c5aba"/></radialGradient><radialGradient id="D" cx="0" cy="0" r="1" gradientTransform="translate(144.225 198.54) rotate(-107) scale(42.493 44.4755)" xlink:href="#X"><stop stop-color="#c889ba"/><stop offset=".2" stop-color="#bf83ba"/><stop offset=".5" stop-color="#a774ba"/><stop offset="1" stop-color="#7c5aba"/></radialGradient><radialGradient id="E" cx="0" cy="0" r="1" gradientTransform="translate(199.268 198.54) rotate(-107) scale(42.493 44.4755)" xlink:href="#X"><stop stop-color="#c889ba"/><stop offset=".2" stop-color="#bf83ba"/><stop offset=".5" stop-color="#a774ba"/><stop offset="1" stop-color="#7c5aba"/></radialGradient><path id="F" d="M108.118 53.438v22.024h22.025v13.293h-22.025v22.025H94.824V88.755H72.798V75.463h22.026V53.438h13.294zm0-1.899H94.824a1.9 1.9 0 0 0-1.899 1.899v20.125H72.798a1.9 1.9 0 0 0-1.899 1.899v13.293a1.9 1.9 0 0 0 1.899 1.899h20.127v20.125a1.9 1.9 0 0 0 1.899 1.899h13.294a1.9 1.9 0 0 0 1.343-.556c.357-.356.557-.839.557-1.343V90.654h20.125c.504 0 .987-.2 1.344-.556a1.9 1.9 0 0 0 .556-1.343V75.463a1.9 1.9 0 0 0-.556-1.343c-.357-.356-.84-.556-1.344-.556h-20.125V53.438c0-.504-.2-.987-.557-1.343a1.9 1.9 0 0 0-1.343-.556z"/><path id="G" d="M176.356 130c-.256 0-.501-.101-.682-.282s-.283-.426-.283-.682V53.507l-17.542 4.975c-.246.07-.509.039-.732-.086s-.388-.332-.458-.578l-3.728-13.046a.97.97 0 0 1 .071-.707c.113-.218.304-.385.536-.467l24.493-8.65c.103-.036.212-.055.321-.055h13.312c.256 0 .501.102.682.282s.282.426.282.682v93.178c0 .256-.101.501-.282.682s-.426.282-.682.282h-15.308V130z"/><path id="H" d="M118.211 199.212c-.074.017-.151.008-.218-.027s-.118-.093-.145-.163l-.616-1.615c-.026-.075-.023-.158.009-.231l3.52-8.199a.29.29 0 0 1 .077-.106.31.31 0 0 1 .247-.075.31.31 0 0 1 .125.043l7.506 4.832a.31.31 0 0 1 .097.104c.024.042.037.088.041.136l.105 1.771c.003.067-.016.133-.054.188s-.093.098-.157.12l-10.537 3.222z"/><path id="I" d="M121.029 189.098l7.507 4.832.105 1.771-10.52 3.216-.613-1.616 3.52-8.205.001.002zm-.169-.552a.62.62 0 0 0-.378.338l-3.521 8.206a.61.61 0 0 0-.012.439l.616 1.615a.59.59 0 0 0 .288.319.61.61 0 0 0 .432.041l10.52-3.216c.129-.041.24-.123.317-.233s.114-.242.108-.375l-.106-1.771c-.007-.092-.035-.18-.081-.26s-.111-.147-.187-.199l-7.508-4.834c-.074-.046-.157-.076-.244-.088a.62.62 0 0 0-.261.02l.017-.002z"/><path id="J" d="M134.879 187.662a.32.32 0 0 1-.226-.02.31.31 0 0 1-.151-.165l-.613-1.616c-.025-.07-.024-.147.003-.217l3.522-8.212c.018-.041.045-.077.079-.107s.073-.051.116-.064a.33.33 0 0 1 .132-.012c.045.006.087.021.125.045l7.504 4.834c.04.027.073.061.097.102a.31.31 0 0 1 .042.133l.105 1.771c.003.066-.016.132-.054.187s-.093.098-.156.121l-10.525 3.22z"/><path id="K" d="M137.695 177.541l7.504 4.835.106 1.771-10.518 3.216-.615-1.615 3.52-8.206.003-.001zm-.171-.549a.63.63 0 0 0-.228.13c-.065.059-.117.131-.152.212l-3.51 8.19c-.06.141-.064.299-.012.443l.613 1.615a.59.59 0 0 0 .297.321.61.61 0 0 0 .439.032l10.521-3.217c.128-.041.239-.122.316-.232a.6.6 0 0 0 .109-.373l-.106-1.771a.6.6 0 0 0-.079-.261c-.047-.079-.112-.147-.189-.198l-7.515-4.828c-.073-.048-.156-.079-.243-.092s-.176-.005-.261.02v.009z"/><path id="L" d="M155.188 187.907c-.074.018-.152.008-.219-.027s-.118-.093-.144-.163l-.616-1.615a.32.32 0 0 1 .003-.22l3.522-8.209a.33.33 0 0 1 .08-.106c.033-.029.072-.051.115-.065a.31.31 0 0 1 .132-.011c.045.005.087.02.125.044l7.504 4.832c.04.026.073.062.097.104s.038.088.04.136l.108 1.77c.003.067-.016.133-.054.188s-.093.098-.156.12l-10.537 3.222z"/><path id="M" d="M147.468 187.507l-12.286 3.756c-.156.048-.244.21-.197.364l3.615 11.822c.046.153.211.239.366.191l12.286-3.756c.155-.047.244-.21.197-.364l-3.615-11.822c-.047-.153-.211-.239-.366-.191z"/><path id="N" d="M155.944 195.658l5.598 20.593-21.958 6.713-6.862-20.2 3.316-1.014.84 2.749 3.319-1.015-.84-2.749 3.319-1.015.84 2.749 3.316-1.014-.84-2.748 3.319-1.015.84 2.749 3.316-1.014-.84-2.749 3.319-1.015-.002-.005zm-.166-.544l-3.319 1.014a.59.59 0 0 0-.345.282c-.073.135-.089.293-.045.439l.673 2.199-2.19.669-.672-2.199a.57.57 0 0 0-.282-.339.59.59 0 0 0-.444-.04l-3.319 1.014a.59.59 0 0 0-.345.282c-.073.135-.089.293-.045.439l.673 2.199-2.19.669-.672-2.199a.57.57 0 0 0-.282-.339.59.59 0 0 0-.444-.04l-3.319 1.015c-.148.045-.272.146-.345.281s-.089.293-.045.439l.673 2.199-2.19.669-.672-2.199c-.045-.146-.146-.267-.282-.339a.59.59 0 0 0-.444-.04l-3.35 1.024c-.075.023-.145.06-.206.11s-.111.112-.147.181a.61.61 0 0 0-.065.224.56.56 0 0 0 .03.229l6.867 20.187a.57.57 0 0 0 .282.339.59.59 0 0 0 .444.04l21.958-6.713c.148-.045.272-.147.345-.282s.089-.293.045-.438l-5.591-20.562-.015-.047a.57.57 0 0 0-.282-.339.59.59 0 0 0-.444-.04l.001.012z"/><path id="O" d="M161.64 216.52a.33.33 0 0 1-.125.01c-.042-.005-.082-.018-.119-.038a.29.29 0 0 1-.09-.081c-.023-.033-.04-.071-.048-.111l-6.218-24.139-1.437-1.079-.007-.025c-.039-.034-.067-.079-.082-.128l-.634-2.072-.895-2.928c-.022-.073-.014-.152.023-.219a.29.29 0 0 1 .172-.141l2.99-.914c.074-.023.154-.015.222.02s.119.097.141.17l.806 2.636 2.432-.744-.806-2.636c-.022-.073-.014-.152.022-.219s.099-.118.173-.141l3.012-.921a.28.28 0 0 1 .115-.012c.039.003.077.015.111.033a.29.29 0 0 1 .088.071c.024.03.042.063.053.099l.806 2.636 2.429-.742-.806-2.636a.29.29 0 0 1 .022-.22c.037-.067.099-.118.173-.14l2.99-.914c.037-.012.076-.016.115-.013s.076.015.111.034.063.042.087.071.042.063.053.099l1.527 4.994c.015.049.017.101.007.152l-.009.029-.6 1.702 8.352 23.507c.015.037.022.077.02.117s-.011.079-.029.115a.3.3 0 0 1-.073.093c-.031.026-.067.046-.106.058l-14.968 4.567z"/><path id="P" d="M126.366 206.565c-.377.136-.686.411-.862.767a1.5 1.5 0 0 0-.081 1.138l.965 3.156 2.836-.867-.976-3.194a1.46 1.46 0 0 0-.27-.52 1.47 1.47 0 0 0-.455-.374c-.175-.093-.368-.15-.567-.169a1.53 1.53 0 0 0-.59.063z"/><path id="Q" d="M163.287 195.277c-.376.136-.684.411-.86.766s-.206.765-.082 1.139l.965 3.155 2.839-.868-.976-3.194a1.48 1.48 0 0 0-.727-.893c-.176-.093-.369-.15-.568-.168a1.52 1.52 0 0 0-.591.063z"/><path id="R" d="M142.095 192.252c-.332.121-.605.364-.761.679a1.33 1.33 0 0 0-.071 1.007l.848 2.776 2.511-.768-.863-2.822a1.28 1.28 0 0 0-.242-.456 1.3 1.3 0 0 0-.402-.327c-.155-.081-.325-.13-.5-.146s-.352.004-.52.057z"/><path id="S" d="M123.848 225.699l.536 2.141 15.638-4.781-8.425-23.507-2.3.656 7.01 21.123a.51.51 0 0 1 .025.205.52.52 0 0 1-.058.199c-.032.062-.077.117-.131.162a.52.52 0 0 1-.185.099l-12.11 3.703z"/><path id="T" d="M160.734 214.421l.536 2.141 15.638-4.781-8.425-23.506-2.3.655 7.034 21.194c.019.056.026.116.022.176s-.022.118-.05.172a.46.46 0 0 1-.114.139c-.046.039-.1.068-.158.085l-12.183 3.725z"/><path id="U" d="M153.225 196.2l4.929 18.498a.51.51 0 0 1-.052.378c-.066.115-.174.202-.301.241l-18.617 5.692.657 2.149 21.652-6.619-.658-2.15-.108.034-4.87-19.061-2.632.838z"/><path id="V" d="M147.136 220.959l-.084-.274-2.336-7.642c-.642-2.1.373-4.304 2.263-4.917l.055-.017c1.93-.59 4.016.605 4.646 2.667l2.46 8.045-.293.09-6.711 2.048z"/><path id="W" d="M131.953 185.567l2.989-.914.891 2.913 2.993-.915-.891-2.913 2.993-.915.89 2.913 2.996-.915-.889-2.908 2.992-.915.893 2.919.634 2.075-.62 1.792-12.83 3.922-1.516-1.138-.634-2.076-.894-2.924.003-.001zm-.175-.563a.59.59 0 0 0-.346.282.57.57 0 0 0-.044.439l.895 2.927.634 2.075a.59.59 0 0 0 .209.294l1.513 1.139c.075.056.162.094.254.11a.59.59 0 0 0 .277-.02l12.83-3.922a.59.59 0 0 0 .24-.139c.068-.065.119-.144.149-.233l.618-1.79c.041-.117.044-.243.009-.361l-1.524-4.983a.57.57 0 0 0-.282-.339.59.59 0 0 0-.444-.04l-3.006.919a.59.59 0 0 0-.346.282.57.57 0 0 0-.044.438l.721 2.359-1.866.57-.721-2.358a.57.57 0 0 0-.282-.339c-.136-.071-.296-.086-.444-.04l-3.007.919a.59.59 0 0 0-.345.281.57.57 0 0 0-.044.439l.721 2.358-1.866.571-.721-2.359c-.045-.145-.146-.267-.282-.338a.59.59 0 0 0-.444-.041l-2.987.914-.025-.014z"/><linearGradient id="X" gradientUnits="userSpaceOnUse"/></defs></svg>