<svg xmlns="http://www.w3.org/2000/svg" width="292" height="407" fill="none"  xmlns:v="https://vecta.io/nano"><style><![CDATA[.B{fill:#ffc55e}.C{fill:#965f0f}.D{fill:#414042}]]></style><path d="M16.233 390c-1.636-.002-3.204-.652-4.361-1.809a6.18 6.18 0 0 1-1.809-4.361V16.169c.002-1.636.653-3.204 1.81-4.36s2.725-1.807 4.36-1.809h253.162c1.635.002 3.203.653 4.359 1.809a6.18 6.18 0 0 1 1.81 4.36V383.83c-.002 1.636-.653 3.204-1.809 4.36s-2.725 1.808-4.36 1.81H16.233z" fill="url(#A)"/><path d="M265.562 20v360H20.063V20h245.5zm3.832-20H16.232C7.302 0 .063 7.239.063 16.169V383.83c0 8.931 7.239 16.17 16.17 16.17h253.162c8.929 0 16.168-7.239 16.168-16.17V16.169c0-8.93-7.24-16.169-16.168-16.169z" fill="#a1ecba"/><path d="M269.394 10c1.635.002 3.203.653 4.359 1.809s1.807 2.724 1.809 4.36V383.83a6.17 6.17 0 0 1-1.808 4.36c-1.157 1.157-2.725 1.808-4.36 1.81H16.232c-1.636-.002-3.204-.652-4.361-1.809s-1.807-2.725-1.809-4.361V16.169c.002-1.636.653-3.204 1.81-4.36A6.18 6.18 0 0 1 16.232 10h253.163zm0-10H16.232C7.302 0 .063 7.239.063 16.169V383.83c0 8.931 7.239 16.17 16.17 16.17h253.162c8.929 0 16.168-7.239 16.168-16.17V16.169c0-8.93-7.24-16.169-16.168-16.169z" class="D"/><path opacity=".3" d="M152.023 147.207a.45.45 0 0 1-.408-.448v-11.734a.45.45 0 0 1 .128-.315h.001l31.807-32.46c7.534-7.536 11.476-14.191 11.476-19.768 0-4.154-1.292-7.574-3.674-9.956s-5.8-3.675-9.954-3.675c-3.744 0-6.991.906-9.755 2.761s-5.006 4.633-6.79 8.327h0a.44.44 0 0 1-.113.146.45.45 0 0 1-.345.105.45.45 0 0 1-.175-.059h0l-12.647-7.431a.45.45 0 0 1-.179-.581c5.648-11.934 16.524-18.772 29.875-18.772 8.268 0 15.289 2.588 20.899 7.679l.004.004c5.795 5.134 8.752 12.16 8.752 20.93 0 9.235-5.209 19.34-15.644 30.036l-18.98 18.984-.854.853h1.207 35.514c.12 0 .234.048.319.132a.45.45 0 0 1 .132.318v14.473a.45.45 0 0 1-.451.45h-60.103-.042z" fill="#000" stroke="#413c25"/><path d="M179.368 51.9c8.081 0 14.992 2.476 20.596 7.561 5.739 5.085 8.609 11.996 8.609 20.601 0 9.257-5.217 19.165-15.518 29.723l-20.597 20.6h37.808v14.473h-60.102v-11.734l31.811-32.464c7.691-7.692 11.601-14.471 11.601-20.079 0-8.864-5.735-14.08-14.078-14.08-7.694 0-13.301 3.782-16.951 11.342L149.9 70.413C155.638 58.29 166.719 51.9 179.368 51.9zm0-1.9c-13.923 0-25.29 7.144-31.185 19.601a1.9 1.9 0 0 0 .755 2.451l12.648 7.431c.226.133.478.218.739.248a1.9 1.9 0 0 0 1.459-.444c.199-.171.361-.381.475-.618 3.337-6.91 8.322-10.269 15.24-10.269 7.512 0 12.178 4.668 12.178 12.18 0 5.03-3.82 11.509-11.045 18.736l-31.825 32.478c-.348.355-.543.832-.542 1.329v11.734a1.9 1.9 0 0 0 1.9 1.9h60.102c.503 0 .987-.2 1.343-.557a1.9 1.9 0 0 0 .557-1.343v-14.473a1.9 1.9 0 0 0-.557-1.343c-.356-.357-.84-.557-1.343-.557h-33.221l17.353-17.356c10.672-10.939 16.075-21.385 16.075-31.067 0-9.176-3.112-16.587-9.248-22.024C195.351 52.71 187.992 50 179.368 50z" fill="#344e33"/><path d="M150.121 145.307a.45.45 0 0 1-.409-.448v-11.734a.45.45 0 0 1 .129-.315l31.807-32.46c7.535-7.536 11.477-14.191 11.477-19.767 0-4.154-1.292-7.574-3.674-9.956s-5.801-3.675-9.955-3.675c-3.744 0-6.99.906-9.754 2.761s-5.007 4.633-6.79 8.327h0c-.027.056-.066.106-.113.146s-.102.071-.162.089-.122.023-.183.016a.45.45 0 0 1-.175-.059h0l-12.648-7.431a.45.45 0 0 1-.179-.581c5.649-11.934 16.525-18.772 29.875-18.772 8.269 0 15.29 2.588 20.899 7.679l.005.004c5.795 5.134 8.751 12.16 8.751 20.93 0 9.235-5.208 19.339-15.643 30.035l-18.981 18.984-.853.853h1.207 35.514a.45.45 0 0 1 .318.132c.085.084.132.199.132.318v14.473c0 .119-.047.234-.132.318s-.199.132-.318.132h-60.104-.041z" fill="#f2fff2" stroke="#283b28"/><g opacity=".3" fill="#000"><path opacity=".3" d="M121.782 128.385c-.312 0-.605-.149-.789-.402l-12.733-17.56-12.84 17.563c-.09.124-.209.225-.346.294s-.288.106-.441.105H80.896c-.18 0-.356-.049-.51-.143s-.278-.229-.359-.39-.117-.34-.102-.52.079-.351.185-.496l20.077-27.445-18.986-25.918c-.106-.145-.171-.317-.185-.496s.021-.359.102-.52.206-.295.359-.389.33-.144.51-.144h13.629a.98.98 0 0 1 .788.4l11.75 16.144 11.751-16.144c.183-.251.476-.4.788-.4h13.738a.97.97 0 0 1 .509.144.98.98 0 0 1 .359.389.97.97 0 0 1-.081 1.015L116.231 99.5l19.969 27.338a.97.97 0 0 1 .184.496c.015.179-.021.359-.102.52s-.206.295-.36.389a.96.96 0 0 1-.509.143h-13.631z"/><path opacity=".3" d="M135.167 73.742l-19.406 26.601 20.388 27.912H122.52l-13.519-18.645-13.628 18.645H81.635l20.498-28.02-19.408-26.493h13.629l12.538 17.226 12.537-17.226h13.738zm0-1.948h-13.738a1.95 1.95 0 0 0-.884.212c-.273.139-.51.341-.691.59l-10.961 15.062L97.93 72.596a1.95 1.95 0 0 0-1.575-.802h-13.63a1.95 1.95 0 0 0-1.737 1.067 1.95 1.95 0 0 0 .166 2.032l18.566 25.344-19.657 26.869c-.212.29-.34.634-.369.992a1.95 1.95 0 0 0 .205 1.039c.163.321.411.59.718.779a1.95 1.95 0 0 0 1.019.288h13.738c.306 0 .608-.072.882-.211s.51-.339.691-.587l12.049-16.484 11.949 16.478c.181.249.418.451.692.591s.577.213.885.213h13.629a1.94 1.94 0 0 0 1.019-.288c.307-.188.555-.457.718-.778s.234-.68.205-1.039a1.95 1.95 0 0 0-.369-.992l-19.548-26.765 18.567-25.452a1.95 1.95 0 0 0 .369-.993c.028-.359-.043-.718-.206-1.039s-.411-.59-.718-.778-.659-.287-1.019-.287z"/></g><path d="M119.832 126.436c-.311 0-.605-.149-.789-.403l-12.733-17.56-12.839 17.563a.97.97 0 0 1-.787.4H78.947c-.18 0-.356-.05-.51-.144a.97.97 0 0 1-.461-.91c.015-.179.079-.351.185-.496l20.076-27.445-18.985-25.918c-.106-.145-.17-.317-.185-.496s.021-.359.102-.52.206-.295.359-.39.33-.144.51-.144h13.629a.98.98 0 0 1 .788.4l11.75 16.144 11.75-16.144c.183-.251.477-.4.788-.4h13.739c.179 0 .356.05.509.144a.97.97 0 0 1 .358.389c.082.16.117.34.103.519a.98.98 0 0 1-.183.496l-18.987 26.027 19.968 27.338a.97.97 0 0 1 .185.496c.014.18-.021.36-.103.52a.97.97 0 0 1-.359.389c-.153.094-.33.144-.51.144h-13.631z" fill="#f2fff2"/><path d="M132.48 70.948L113.073 97.55l20.389 27.912h-13.63l-13.519-18.645-13.628 18.645H78.947l20.498-28.02-19.408-26.494h13.629l12.538 17.226 12.537-17.226h13.739zm0-1.948h-13.739c-.307 0-.609.073-.883.212a1.95 1.95 0 0 0-.692.59l-10.961 15.062-10.963-15.062A1.95 1.95 0 0 0 93.667 69h-13.63a1.95 1.95 0 0 0-1.737 1.067 1.95 1.95 0 0 0 .166 2.032l18.566 25.344-19.657 26.868a1.95 1.95 0 0 0-.164 2.032 1.95 1.95 0 0 0 .718.778 1.96 1.96 0 0 0 1.019.289h13.738c.306 0 .608-.073.882-.211s.51-.34.691-.587l12.05-16.484 11.948 16.477c.181.249.418.452.692.592s.578.213.885.213h13.63c.359 0 .712-.1 1.019-.288s.555-.458.718-.778a1.96 1.96 0 0 0 .205-1.039c-.029-.359-.157-.702-.369-.993l-19.549-26.764 18.568-25.452a1.95 1.95 0 0 0 .368-.993c.029-.359-.042-.718-.205-1.039s-.412-.59-.718-.778A1.95 1.95 0 0 0 132.48 69z" fill="#283b28"/><path d="M93.749 345.19c-.607.191-1.264.134-1.829-.159a2.4 2.4 0 0 1-1.182-1.404l-43.135-136.31c-.191-.607-.134-1.264.159-1.829s.798-.989 1.404-1.182l93.86-29.702a2.4 2.4 0 0 1 3.011 1.563l43.135 136.31c.191.607.134 1.265-.159 1.829a2.4 2.4 0 0 1-1.404 1.183l-93.86 29.701z" fill="url(#B)"/><path d="M142.779 178.761l42.236 133.47-91.018 28.802-42.236-133.469 91.018-28.803zm-.927-7.864l-93.858 29.702a6.29 6.29 0 0 0-4.097 7.891L87.032 344.8a6.29 6.29 0 0 0 7.891 4.098l93.859-29.702a6.29 6.29 0 0 0 4.097-7.892l-43.135-136.31a6.29 6.29 0 0 0-7.892-4.097z" fill="#f9e141"/><path d="M143.025 174.604c.607-.191 1.265-.134 1.829.159a2.4 2.4 0 0 1 1.183 1.404l43.135 136.31c.191.607.134 1.265-.159 1.829a2.4 2.4 0 0 1-1.405 1.183L93.75 345.191c-.607.191-1.264.133-1.829-.16a2.4 2.4 0 0 1-1.182-1.404l-43.135-136.31c-.191-.607-.134-1.264.159-1.829s.798-.989 1.404-1.182l93.858-29.702zm-1.173-3.707l-93.858 29.702a6.29 6.29 0 0 0-4.097 7.891L87.032 344.8a6.29 6.29 0 0 0 7.891 4.098l93.859-29.702a6.29 6.29 0 0 0 4.097-7.892l-43.135-136.31a6.29 6.29 0 0 0-7.892-4.097z" class="D"/><path d="M133.839 297.672c-.369.119-.757.171-1.144.154-1.257-.062-2.405-.932-2.924-2.215-.417-1.033-.403-2.108-.35-3.211.028-.556.088-1.282.308-1.986 1.029-4.864 3.826-9.256 6.696-13.277 1.972-2.765 3.581-4.818 5.213-6.656 2.342-2.639 14.05-9.86 16.412-10.608.213-.067.778-.246 1.178.168.67.693-.114 1.57-1.301 2.897-.929 1.039-2.278 2.453-3.706 3.95-3.453 3.618-7.748 8.12-9.237 10.556-1.932 3.16-3.395 6.615-4.81 9.956-.981 2.314-1.995 4.708-3.163 7.008-.388.764-.823 1.565-1.489 2.225-.491.486-1.073.846-1.683 1.039z" class="B"/><path d="M158.285 260.614c.208-.066.341-.079.385-.033.546.565-11.545 11.868-14.35 16.457-3.3 5.401-5.154 11.41-8.002 17.016-.365.719-.756 1.443-1.343 2.025-.379.376-.856.688-1.37.851a2.5 2.5 0 0 1-.871.119c-1.042-.052-1.878-.831-2.241-1.73s-.342-1.904-.294-2.881c.03-.611.095-1.24.284-1.826.978-4.669 3.693-8.986 6.576-13.024 1.616-2.265 3.298-4.493 5.162-6.592 2.172-2.448 13.752-9.651 16.064-10.382zm-.469-1.483c-2.538.803-14.322 8.086-16.759 10.833-1.652 1.86-3.275 3.933-5.265 6.721-2.912 4.08-5.752 8.542-6.816 13.533-.237.775-.301 1.55-.331 2.144-.056 1.145-.07 2.361.406 3.541.632 1.562 2.047 2.622 3.606 2.7.469.023.946-.041 1.417-.19.727-.23 1.417-.655 1.996-1.229.747-.74 1.217-1.603 1.634-2.424 1.181-2.324 2.2-4.731 3.186-7.057 1.404-3.315 2.857-6.743 4.758-9.853 1.445-2.365 5.709-6.835 9.135-10.426l3.724-3.967c.523-.585.899-1.034 1.147-1.374.939-1.278.592-2.11.135-2.583-.337-.347-.951-.692-1.973-.369z" class="C"/><path d="M124.034 299.565c-.718.227-1.475.183-1.984.107-2.229-.333-4.151-1.382-6.008-2.396l-.314-.171c-4.152-2.254-8.429-4.27-12.81-6.038-2.162-.872-4.5-1.747-6.943-2.241-1.323-.267-3.59.233-5.09.565-1.712.378-2.572.568-2.786-.348-.115-.499-.259-1.118 4.035-2.477 1.339-.423 3.868-1.129 5.772-1.091 2.807.055 5.811.505 9.456 1.418 1.598.4 2.905.782 4.112 1.202 2.916 1.015 5.655 2.408 8.304 3.755l1.879.956c1.303.662 3.728 1.895 4.013 4.173.077.62-.038 1.187-.334 1.641-.29.446-.728.764-1.301.945z" class="B"/><path d="M92.365 287.308c1.832-.58 4.002-1.085 5.521-1.055 3.162.061 6.261.638 9.282 1.394l4.045 1.183c2.86.995 5.539 2.356 8.207 3.713l1.879.956c1.603.815 3.379 1.86 3.594 3.576.047.379.004.786-.214 1.121-.205.315-.52.513-.884.628-.507.161-1.108.159-1.635.08-2.214-.332-4.153-1.441-6.065-2.481-4.178-2.27-8.482-4.298-12.891-6.076-2.29-.924-4.624-1.786-7.079-2.282s-7.174 1.226-7.273.802c-.051-.22 1.534-.933 3.513-1.559zm-.469-1.483c-1.003.318-1.955.671-2.681.994-.771.344-2.206.983-1.877 2.399.084.358.495 1.497 2.299 1.22a25.03 25.03 0 0 0 1.413-.287c1.349-.298 3.607-.797 4.768-.562 2.381.481 4.679 1.342 6.806 2.2 4.354 1.756 8.604 3.759 12.73 6l.312.17c1.918 1.046 3.901 2.128 6.267 2.482.59.089 1.474.137 2.333-.135.738-.233 1.333-.67 1.718-1.262.398-.61.555-1.358.454-2.163-.335-2.687-3-4.042-4.431-4.77l-1.88-.955c-2.671-1.359-5.434-2.764-8.401-3.796-1.229-.428-2.557-.816-4.178-1.222-3.703-.927-6.763-1.385-9.629-1.441-2.014-.039-4.638.69-6.022 1.128z" class="C"/><path d="M118.799 285.669l-.132.01c-.812.04-1.827-.702-3.551-2.017l-1.728-1.262-2.927-1.767c-1.248-.631-2.573-1.09-3.975-1.576l-3.191-1.199c-3.052-1.33-5.067-3.193-5.825-5.387-.421-1.216-.23-2.348.51-3.029.253-.234.564-.41.924-.524.438-.138.938-.186 1.531-.145 2.815.194 5.167 1.78 6.692 2.956.65.502 1.397 1.118 1.997 1.87.364.456.659.94.943 1.408l.274.447c1.233 1.963 4.412 4.727 6.516 6.556 2.313 2.011 2.731 2.374 2.598 3.011a.84.84 0 0 1-.197.385c-.099.108-.224.189-.364.232l-.096.031h.001z" class="B"/><path d="M99.14 269.661c.391-.124.832-.139 1.243-.111 2.381.164 4.466 1.403 6.27 2.795.679.524 1.338 1.079 1.865 1.739.446.558.789 1.182 1.167 1.783 2.168 3.456 9.582 8.839 8.976 9.03-.01.003-.02.005-.031.005-.851.042-3.21-2.102-4.814-3.153-.975-.638-1.953-1.278-3.002-1.81-2.282-1.154-4.851-1.767-7.206-2.793s-4.6-2.61-5.401-4.929c-.252-.729-.306-1.643.302-2.202a1.66 1.66 0 0 1 .632-.354zm-.469-1.483c-.469.148-.879.382-1.217.693-.974.897-1.242 2.339-.718 3.855.832 2.406 2.992 4.427 6.25 5.847 1.074.467 2.178.85 3.247 1.22 1.377.477 2.678.928 3.879 1.535.976.494 1.929 1.119 2.851 1.723.489.32 1.095.783 1.682 1.23 1.869 1.425 2.979 2.229 4.062 2.175a1.67 1.67 0 0 0 .423-.075c.272-.086.516-.242.707-.453a1.61 1.61 0 0 0 .381-.748c.205-.984-.489-1.634-1.101-2.208-.441-.413-1.047-.939-1.748-1.549-2.069-1.799-5.196-4.518-6.366-6.383l-.269-.437c-.297-.489-.604-.994-1-1.49-.651-.815-1.442-1.468-2.13-1.999-1.605-1.238-4.088-2.908-7.113-3.116-.693-.048-1.288.011-1.82.18z" class="C"/><path d="M105.267 270.059l-.105-.095c-1.386-1.258-3.215-2.137-5.149-2.474l-1.017-.145-1.735-.291c-.882-.217-1.686-.571-2.356-.89-.792-.377-1.814-.902-2.692-1.62-1.27-1.038-2.208-2.462-2.641-4.01-.379-1.359-.242-2.55.397-3.446.436-.611 1.076-1.054 1.901-1.315.788-.249 1.747-.319 2.7-.198 2.534.323 4.999 1.567 7.539 3.802.752.661 1.318 1.237 1.784 1.813 1.977 2.45 2.662 5.566 3.266 8.315l.314 1.43-2.206-.876z" class="B"/><path d="M92.106 256.514c.745-.236 1.598-.266 2.368-.168 2.755.352 5.135 1.863 7.124 3.614.607.534 1.189 1.096 1.692 1.719 1.828 2.265 2.492 5.176 3.111 7.993l-.714-.284c-1.503-1.364-3.447-2.3-5.539-2.664l-2.699-.426c-.773-.189-1.5-.501-2.207-.837-.898-.427-1.778-.901-2.534-1.519-1.154-.943-1.992-2.215-2.384-3.618-.255-.915-.301-1.969.281-2.784.36-.506.895-.834 1.502-1.026zm-.469-1.483c-.975.309-1.77.864-2.299 1.606-.78 1.093-.957 2.513-.513 4.106.476 1.701 1.505 3.264 2.898 4.403.942.771 2.018 1.324 2.85 1.72.706.336 1.555.71 2.505.943.624.153 1.233.231 1.822.307l.982.14c1.791.312 3.482 1.123 4.76 2.284l.209.189.262.105.715.283 2.722 1.082-.629-2.861c-.622-2.833-1.328-6.044-3.42-8.636-.494-.612-1.09-1.218-1.875-1.909-2.66-2.341-5.262-3.646-7.954-3.989-.752-.097-1.889-.135-3.034.227z" class="C"/><path d="M103.846 258.937c-1.047-1.57-2.67-2.764-4.571-3.362-.68-.214-1.4-.359-2.163-.512-1.658-.332-3.371-.676-4.693-1.792-.748-.632-1.258-1.438-1.619-2.07-.482-.844-.953-1.86-.792-2.996.176-1.249 1.161-2.364 2.452-2.772.143-.046.29-.082.436-.108 1.413-.25 2.738.369 3.735.935 1.478.84 2.55 1.664 3.374 2.592.818.921 1.404 1.967 1.971 2.979l3.595 6.42-1.057 1.686-.668-1z" class="B"/><path d="M92.695 246.175c.111-.035.223-.063.338-.084 1.144-.202 2.25.297 3.214.845 1.177.67 2.3 1.444 3.177 2.433.76.856 1.319 1.853 1.874 2.842l3.369 6.018-.174.277c-1.141-1.711-2.924-3.025-4.984-3.673-2.228-.701-4.859-.697-6.587-2.156-.611-.516-1.056-1.181-1.446-1.862-.438-.766-.823-1.617-.698-2.501.136-.959.933-1.828 1.917-2.139zm-.469-1.483c-1.57.496-2.771 1.865-2.987 3.405-.195 1.376.372 2.588.887 3.49.393.688.952 1.568 1.792 2.278 1.475 1.246 3.37 1.626 5.042 1.961l2.082.491c1.731.545 3.208 1.629 4.157 3.052l1.334 2 1.278-2.036.174-.277.49-.782-.45-.805-3.37-6.017c-.587-1.049-1.194-2.132-2.067-3.116-.882-.993-2.017-1.868-3.572-2.752-1.109-.631-2.596-1.318-4.254-1.025a4.35 4.35 0 0 0-.536.133z" class="C"/><path d="M103.199 243.565l.798-.417.126-.075 1.292-.697-.172 1.695-.209 2.023-1.835-2.529z" class="B"/><path d="M104.495 243.757l-.024.234-.111-.154c.046-.024.089-.054.135-.08zm1.844-2.763l-2.583 1.395-.143.083-1.57.82 1.057 1.459.112.154 2.389 3.292.418-4.046.024-.237.296-2.92z" class="C"/><path d="M102.409 238.931c-.176-.594-.658-1.158-1.473-1.724l-1.022-.645-1.438-.941a7.73 7.73 0 0 1-2.015-2.287c-.631-1.097-.756-2.135-.362-3.001.314-.687.941-1.21 1.768-1.471.68-.216 1.418-.23 2.078-.04 1.068.306 2.01 1.061 2.882 2.306 1.744 2.491 2.251 5.271 1.39 7.625l-.087.236-1.419.958-.302-1.016z" class="B"/><path d="M98.105 229.603c.524-.166 1.114-.181 1.628-.034 1.071.308 1.852 1.136 2.46 2.004 1.399 1.999 2.153 4.568 1.296 6.912l-.331.224c-.265-.894-.986-1.594-1.775-2.142l-2.431-1.565a6.99 6.99 0 0 1-1.814-2.057c-.398-.693-.669-1.539-.327-2.29.235-.517.726-.872 1.294-1.052zm-.469-1.483c-1.039.329-1.834 1-2.24 1.889-.351.771-.568 2.04.394 3.712.564.978 1.317 1.833 2.216 2.517.499.382 1.013.691 1.51.99l.979.617c.655.455 1.049.895 1.172 1.307l.603 2.032 1.757-1.185.332-.224.418-.282.173-.474c.949-2.596.408-5.635-1.483-8.338-.978-1.396-2.059-2.249-3.305-2.607a4.42 4.42 0 0 0-2.526.046z" class="C"/><path d="M104.195 232.278l-.059-.19c-.341-1.1-1.012-2.084-1.723-3.126l-.595-.888c-.854-1.314-1.805-3.076-1.577-5.047.095-.82.389-1.48.874-1.962.276-.272.613-.475.983-.592.512-.162 1.036-.14 1.476.062.476.217.779.606.965.879.936 1.374 1.176 3.011 1.295 4.575a37.57 37.57 0 0 1-.036 6.075l-.142 1.626-1.461-1.412z" class="B"/><path d="M102.333 221.216c.307-.097.637-.102.917.027s.479.366.646.61c.831 1.219 1.05 2.729 1.162 4.197a36.57 36.57 0 0 1-.035 5.948l-.145-.14c-.479-1.542-1.523-2.845-2.408-4.207s-1.645-2.907-1.457-4.533c.062-.54.243-1.097.649-1.5a1.69 1.69 0 0 1 .671-.402zm-.47-1.483c-.487.154-.932.422-1.296.781-.605.601-.984 1.439-1.099 2.425-.259 2.242.845 4.247 1.698 5.56l.605.901c.676.993 1.315 1.931 1.623 2.92l.118.38.285.277.145.139 2.347 2.27.284-3.253a38.21 38.21 0 0 0 .036-6.201c-.127-1.672-.388-3.43-1.428-4.955-.238-.35-.63-.85-1.284-1.149-.615-.281-1.338-.315-2.034-.095z" class="C"/><path d="M106.167 225.129l-.012-.041c-.43-1.56-.582-3.183-.448-4.795.041-.508.124-1.045.446-1.534a2.02 2.02 0 0 1 1.058-.808c.285-.09.581-.105.856-.043.628.141 1.086.619 1.365 1.42.409 1.177.475 2.413.192 3.574-.305 1.243-1 2.357-1.982 3.177l-.822.681-.653-1.631z" class="B"/><path d="M107.443 218.692c.147-.047.301-.06.451-.026.433.098.663.522.801.917.345.995.425 2.088.17 3.134a5.23 5.23 0 0 1-1.723 2.762l-.24-.6c-.405-1.471-.548-3.003-.423-4.524.033-.402.09-.82.32-1.17a1.25 1.25 0 0 1 .644-.493zm-.469-1.483a2.81 2.81 0 0 0-1.474 1.122c-.419.636-.524 1.316-.571 1.897-.142 1.703.019 3.418.474 5.066l.023.083.032.08.24.599.793 1.983 1.643-1.363a6.78 6.78 0 0 0 2.242-3.591c.319-1.307.245-2.694-.212-4.012-.466-1.337-1.305-1.784-1.927-1.925a2.44 2.44 0 0 0-1.263.061z" class="C"/><path d="M107.6 231.25l-.662-.203-.122-.392c-.4-1.284-.138-2.724.703-3.85a8.21 8.21 0 0 1 .651-.75l.506-.572c.326-.423.555-.917.819-1.517.196-.444.417-.945.827-1.371.276-.288.618-.503.997-.627.322-.102.656-.122.964-.057.678.143 1.234.69 1.485 1.463.387 1.181.067 2.627-.856 3.867-.767 1.027-1.785 1.783-2.769 2.515l-2.157 1.602-.386-.108z" class="B"/><path d="M111.553 222.71a1.13 1.13 0 0 1 .57-.038c.466.099.767.516.906.943.341 1.044-.049 2.232-.741 3.162s-1.66 1.65-2.609 2.355l-1.851 1.375-.269-.082c-.324-1.039-.103-2.235.583-3.155.345-.464.796-.853 1.15-1.312.395-.513.659-1.098.914-1.678.179-.404.362-.818.676-1.146a1.64 1.64 0 0 1 .671-.424zm-.469-1.483c-.502.162-.957.446-1.322.827-.506.527-.768 1.12-.978 1.596-.244.554-.451 1.004-.724 1.357-.123.161-.285.333-.456.515l-.709.818c-.988 1.326-1.295 3.026-.821 4.547l.244.784.785.241.269.082.752.231.631-.469 1.851-1.375c.983-.73 2.095-1.556 2.929-2.675 1.09-1.464 1.444-3.131.972-4.574-.338-1.039-1.11-1.78-2.063-1.981a2.68 2.68 0 0 0-1.36.076z" class="C"/><path d="M126.363 287.306l-.397.071-.303-.227c-.814-.642-1.765-7.221-1.857-8.834-.155-2.713-.438-5.541-2.006-7.683-.525-.717-1.185-1.349-1.884-2.017-.983-.939-1.998-1.91-2.651-3.17-.594-1.149-.836-2.447-.695-3.732.106-.982.436-1.768.981-2.335.363-.378.839-.668 1.377-.839a4.1 4.1 0 0 1 2.547.046c1.056.374 1.984 1.158 2.758 2.331 1.087 1.646 1.597 3.523 1.99 5.154.514 2.13.945 4.422.622 6.749l-.295 1.567-.303 1.67c-.085.756-.064 1.544-.044 2.305.033 1.335.29 3.342.496 4.954.423 3.305.478 3.733-.286 3.974l-.05.016z" class="B"/><path d="M119.16 259.282a3.31 3.31 0 0 1 2.053.038c1.026.363 1.796 1.158 2.368 2.026.975 1.477 1.471 3.196 1.883 4.907.508 2.108.91 4.283.608 6.461l-.6 3.256c-.091.804-.071 1.61-.05 2.413.07 2.78 1.04 8.076.753 8.167l-.004.001c-.297.053-1.429-5.442-1.591-8.278s-.471-5.799-2.155-8.099c-1.331-1.818-3.441-3.096-4.472-5.085a5.82 5.82 0 0 1-.612-3.291c.072-.672.277-1.368.769-1.88.286-.3.652-.51 1.05-.636zm-.469-1.483c-.663.209-1.252.57-1.705 1.042-.666.694-1.067 1.633-1.192 2.789a7.33 7.33 0 0 0 .777 4.173c.713 1.375 1.776 2.392 2.804 3.375.674.645 1.31 1.253 1.794 1.914 1.443 1.971 1.708 4.672 1.857 7.269.075 1.304.352 3.276.741 5.275.693 3.558 1.01 3.808 1.411 4.125.177.14.381.241.599.296s.445.064.667.025l.1-.018.1-.032c1.295-.409 1.167-1.763 1.091-2.571l-.267-2.243-.491-4.874.041-2.2c.057-.509.171-1.036.29-1.594l.305-1.623c.34-2.455-.104-4.834-.636-7.039-.409-1.694-.941-3.648-2.097-5.399-.869-1.318-1.929-2.205-3.148-2.636-.965-.34-2.074-.36-3.041-.054z" class="C"/><path d="M127.422 272.358l.018-.11c.375-2.296.841-5.153 2.22-7.64.341-.616.836-1.392 1.634-1.935a3.47 3.47 0 0 1 .917-.443c1.686-.534 3.599.149 4.353 1.554.537 1 .529 2.27-.021 3.483-.511 1.128-1.405 2.031-2.033 2.612-1.702 1.575-3.76 2.868-5.95 3.738l-.936.372-.202-1.631z" class="B"/><path d="M132.446 262.97c1.278-.405 2.838.073 3.433 1.182.453.842.365 1.893-.044 2.792s-1.104 1.67-1.852 2.363c-1.643 1.52-3.596 2.747-5.71 3.586l-.064-.521c.411-2.521.86-5.094 2.131-7.388.35-.63.776-1.25 1.392-1.67.22-.149.46-.265.714-.344zm-.47-1.483c-.403.128-.78.31-1.12.542-.944.642-1.522 1.564-1.876 2.2-1.444 2.606-1.923 5.537-2.307 7.893l-.036.22.028.221.065.522.247 1.997 1.87-.743a20.15 20.15 0 0 0 6.192-3.891c.678-.626 1.643-1.604 2.213-2.862.652-1.435.651-2.955-.002-4.17-.926-1.724-3.242-2.572-5.274-1.929z" class="C"/><path d="M126.55 264.883c-.269-1.392-1.087-2.62-1.953-3.921l-.987-1.543c-1.612-2.73-2.07-5.538-1.288-7.905.094-.286.382-1.158 1.23-1.483l.096-.034c.47-.149 1.007-.092 1.555.164 1.735.809 2.359 2.645 2.809 4.302.445 1.646.906 3.348 1.042 5.117.158 2.058-.159 3.888-.943 5.442l-.097.193-1.249.781-.215-1.113z" class="B"/><path d="M123.883 250.739c.328-.104.689-.014.99.127 1.453.678 1.987 2.32 2.389 3.802.442 1.634.887 3.278 1.016 4.973s-.069 3.46-.861 5.031l-.103.065c-.411-2.126-1.931-3.843-3.034-5.713-1.286-2.177-2.031-4.808-1.219-7.265.133-.404.35-.84.77-1.001l.052-.019zm-.469-1.483l-.142.05c-.79.303-1.358.965-1.688 1.966-.853 2.582-.371 5.617 1.357 8.543l1.009 1.579c.822 1.234 1.598 2.399 1.836 3.637l.431 2.227 1.922-1.203.103-.064.368-.231.196-.387c.848-1.682 1.192-3.651 1.024-5.851-.142-1.843-.612-3.58-1.067-5.261-.358-1.319-1.024-3.774-3.232-4.805-.726-.339-1.458-.409-2.117-.2z" class="C"/><path d="M129.975 258.694l-.041-.228c-.22-1.339-.763-2.582-1.338-3.898l-.605-1.423c-.629-1.567-1.381-3.918-.652-6.235.238-.756.6-1.372 1.077-1.833.354-.344.782-.601 1.251-.752.328-.104.659-.146.983-.126.864.054 1.687.565 2.201 1.368.419.655.583 1.374.715 2.054.255 1.3.468 2.835.119 4.35-.23.994-.682 1.923-1.119 2.822-.621 1.277-1.208 2.482-1.055 3.66l-1.536.241z" class="B"/><path d="M129.903 245.067a1.94 1.94 0 0 1 .7-.092c.677.042 1.251.476 1.593 1.011s.487 1.163.607 1.784c.259 1.32.433 2.69.125 4.027-.536 2.317-2.488 4.441-2.187 6.757l-.042-.227c-.314-1.922-1.262-3.666-1.986-5.471s-1.231-3.808-.632-5.712c.174-.55.444-1.09.876-1.508.268-.259.591-.454.946-.569zm-.469-1.483c-.575.182-1.113.504-1.557.933-.572.553-1.002 1.279-1.279 2.16-.803 2.554-.001 5.08.671 6.758l.615 1.446c.555 1.269 1.079 2.469 1.28 3.697l.003.015.002.015.042.227 3.072-.481c-.123-.947.414-2.051.982-3.22.457-.938.928-1.908 1.178-2.987.382-1.658.157-3.294-.113-4.676-.14-.719-.331-1.552-.824-2.323-.647-1.011-1.696-1.656-2.808-1.725a3.45 3.45 0 0 0-1.264.161z" class="C"/><path d="M112.952 277.494l.017-.503c.017-.529-.388-1.071-.818-1.644l-.097-.131c-.875-1.173-1.611-2.443-2.194-3.785-.362-.833-.778-1.945-.782-3.159-.004-1.309.499-2.521 1.378-3.325.528-.483 1.221-.856 2.12-1.14l.058-.019c.384-.118.896-.254 1.447-.248 1.463.017 2.776 1.003 3.697 2.775.414.798.667 1.492.793 2.185.285 1.558-.067 3.309-1.017 5.064-.81 1.497-1.926 2.802-3.004 4.063l-.392.458-1.206-.591z" class="B"/><path d="M112.812 264.548l.053-.017c.393-.121.8-.218 1.208-.213 1.408.016 2.412 1.193 3.015 2.355.324.623.593 1.277.719 1.966.278 1.525-.168 3.135-.936 4.554s-1.844 2.68-2.911 3.928l-.213-.104c.028-.856-.558-1.579-1.069-2.266a18.2 18.2 0 0 1-2.104-3.63c-.393-.905-.714-1.859-.718-2.852s.347-2.037 1.126-2.749c.508-.464 1.162-.761 1.83-.972zm-.469-1.483c-1.01.319-1.797.747-2.411 1.308-1.041.952-1.635 2.374-1.631 3.901.005 1.357.455 2.566.847 3.467a19.79 19.79 0 0 0 2.283 3.94l.098.132c.3.399.672.897.664 1.153l-.033 1.005.902.442.213.105 1.084.532.784-.917c1.104-1.293 2.247-2.629 3.096-4.199 1.035-1.912 1.415-3.84 1.099-5.574-.139-.76-.423-1.547-.869-2.404-1.059-2.038-2.613-3.173-4.377-3.193-.66-.007-1.248.147-1.687.283l-.062.019z" class="C"/><path d="M107.472 266.361l-.055-.376c-.108-.728-.428-1.431-.765-2.175l-.367-.832c-.643-1.549-.873-2.939-.705-4.247.215-1.654 1.129-3.133 2.447-3.958.326-.203.676-.364 1.042-.479 1.382-.437 2.843-.216 3.813.576.742.605 1.128 1.436 1.437 2.243.126.328.264.716.315 1.146.154 1.318-.56 2.478-1.187 3.219-.423.5-.9.936-1.361 1.358l-.818.775a9.99 9.99 0 0 0-1.964 2.821l-.354.766-1.478-.837z" class="B"/><path d="M109.301 255.036c1.065-.337 2.277-.225 3.086.436.602.491.932 1.209 1.202 1.918.119.311.231.628.27.96.108.929-.369 1.869-1.009 2.626s-1.439 1.379-2.139 2.089c-.882.896-1.603 1.93-2.116 3.041l-.412-.234c-.167-1.128-.747-2.14-1.182-3.192-.503-1.213-.822-2.529-.652-3.849s.885-2.645 2.088-3.398c.27-.169.561-.302.864-.397zm-.469-1.483c-.434.137-.845.326-1.221.561-1.512.947-2.561 2.635-2.805 4.516-.187 1.449.061 2.968.758 4.647l.377.855c.314.693.611 1.348.703 1.968l.111.751.661.375.413.233 1.469.832.709-1.532a9.2 9.2 0 0 1 1.812-2.602l.79-.747 1.429-1.429c1.041-1.232 1.513-2.55 1.365-3.812-.058-.495-.208-.934-.361-1.335-.33-.863-.786-1.844-1.671-2.566-1.171-.957-2.91-1.231-4.539-.715z" class="C"/><path d="M106.159 255.501c-.527.167-1.138-.005-1.52-.427-.348-.386-.44-.844-.499-1.243a18.95 18.95 0 0 1-.181-3.656c.076-1.622.356-2.901.878-4.024.678-1.456 1.777-2.596 3.097-3.209.172-.08.34-.146.501-.197.432-.137.842-.173 1.219-.109.426.073.835.275 1.246.619 1.598 1.339 2.075 3.82 1.16 6.036-.684 1.654-2.036 3.181-4.133 4.67l-.183.13-.579.421.218.16-.84.631c-.116.087-.245.154-.384.198z" class="B"/><path d="M108.666 243.486c.281-.089.572-.132.854-.084.336.057.628.239.879.449 1.448 1.214 1.668 3.377.938 5.142s-2.239 3.18-3.863 4.333c-.543.385-1.114.758-1.514 1.272l.113.083c-.047.035-.098.06-.152.077-.244.078-.542-.022-.709-.207-.204-.226-.263-.537-.306-.834a18.2 18.2 0 0 1-.174-3.506c.06-1.267.257-2.552.807-3.733s1.483-2.257 2.719-2.832c.132-.061.269-.116.408-.16zm-.469-1.483c-.192.06-.392.139-.594.232-1.486.691-2.72 1.965-3.475 3.586-.566 1.219-.868 2.59-.95 4.317a19.69 19.69 0 0 0 .189 3.805c.05.344.156 1.058.69 1.65.585.645 1.521.905 2.333.648a2.07 2.07 0 0 0 .618-.318l1.679-1.263-.2-.146c2.156-1.551 3.56-3.165 4.288-4.928 1.06-2.565.507-5.349-1.378-6.928-.522-.436-1.051-.694-1.617-.79-.499-.085-1.032-.04-1.583.135z" class="C"/><path d="M102.191 248.249c-.578-.96-1.855-1.403-3.207-1.872l-.848-.301c-2.856-1.067-4.826-2.917-5.404-5.076-.292-1.093-.153-2.109.393-2.861.364-.502.906-.878 1.567-1.087.627-.198 1.33-.233 1.979-.098 1.192.249 2.127.951 2.884 1.604 1.476 1.274 2.54 2.572 3.253 3.968.863 1.687 1.168 3.47.884 5.156l-.5 2.227-.999-1.66z" class="B"/><path d="M94.926 237.794c.508-.161 1.073-.185 1.585-.078.984.206 1.804.8 2.535 1.431 1.239 1.07 2.337 2.304 3.068 3.733s1.08 3.068.81 4.674l-.067.294c-.866-1.438-2.801-1.885-4.449-2.5-2.236-.836-4.338-2.356-4.925-4.549-.194-.728-.195-1.561.271-2.203.281-.388.701-.654 1.171-.802zm-.469-1.483c-.82.259-1.498.733-1.961 1.371-.686.946-.868 2.195-.515 3.518.882 3.294 4.065 4.925 5.883 5.604l.865.308c1.215.422 2.363.819 2.796 1.538l1.999 3.32.851-3.781.066-.294.01-.042.007-.042c.311-1.852-.02-3.802-.959-5.639-.76-1.488-1.884-2.862-3.437-4.203-.784-.676-1.859-1.49-3.233-1.776a4.77 4.77 0 0 0-2.373.118z" class="C"/><path d="M133.9 248.714a4.34 4.34 0 0 1 .079-.439l.771-3.76.915 4.319-.399.474-1.668 1.969.302-2.563z" class="B"/><path d="M134.763 248.328l.063.297-.153.181c.019-.161.057-.32.09-.478zm-.024-7.625l-1.5 7.312-.02.097-.091.511-.605 5.125 3.336-3.936.154-.181.493-.582-.158-.747-.064-.296-1.545-7.303z" class="C"/><path d="M135.016 251.454l.101-.491c.231-1.118.917-2.052 1.599-2.913l2.325-2.754c.305-.339.722-.802 1.297-1.095a2.46 2.46 0 0 1 .369-.15c.979-.31 2.273-.02 2.745 1.002.241.524.345 1.404-.528 2.63-1.131 1.59-2.803 2.821-4.708 3.465l-.215.07-.415.127-.393.12c-.282.089-.61.202-.903.363l-.433.238-.841-.612z" class="B"/><path d="M140.941 244.792c.688-.217 1.528-.013 1.804.587.273.591-.057 1.295-.455 1.852-1.032 1.452-2.581 2.591-4.324 3.18l-.2.065-.809.247c-.36.114-.713.243-1.043.424l-.036-.027c.197-.954.819-1.796 1.447-2.588l2.294-2.717c.314-.349.643-.704 1.071-.921a1.78 1.78 0 0 1 .251-.102zm-.469-1.483c-.168.053-.331.12-.488.199-.704.359-1.196.906-1.522 1.267l-2.356 2.791c-.741.935-1.486 1.954-1.752 3.24l-.202.982.81.59.036.026.799.582.866-.476c.234-.129.517-.226.763-.304l.381-.116.427-.13.229-.075c2.059-.696 3.868-2.029 5.094-3.751 1.088-1.529.927-2.696.6-3.405-.593-1.287-2.178-1.897-3.685-1.42z" class="C"/><path d="M138.566 243.13l.348-.628c.853-1.544 2.044-2.86 3.204-4.053.93-.957 2.044-2.017 3.49-2.474l.377-.104c1.07-.248 2.382-.031 2.901 1.013.432.869.089 1.977-.895 2.892-.874.812-1.916 1.37-2.909 1.871l-4.827 2.194-.38.155-1.309-.866z" class="B"/><path d="M145.845 236.717l.318-.088c.764-.177 1.707-.045 2.029.602.325.653-.159 1.445-.729 1.976-.786.731-1.758 1.256-2.73 1.746l-4.769 2.168-.368-.243c.792-1.431 1.916-2.688 3.081-3.886.907-.933 1.917-1.88 3.168-2.275zm-.469-1.483c-1.619.512-2.818 1.648-3.815 2.674-1.197 1.231-2.428 2.594-3.326 4.217l-.696 1.258 1.199.793.368.243.684.451.759-.308 4.884-2.22c.998-.504 2.141-1.115 3.089-1.996 1.246-1.159 1.653-2.618 1.062-3.807-.709-1.425-2.406-1.742-3.773-1.425l-.435.12z" class="C"/><path d="M104.922 239.061c.155-1.494.314-3.038.816-4.544.236-.708.658-1.722 1.594-2.347a3.06 3.06 0 0 1 .769-.368c1.161-.367 2.529-.059 3.404.766.948.895 1.347 2.297 1.065 3.749-.207 1.073-.742 2.131-1.682 3.331-1.387 1.768-3.206 3.281-5.258 4.375l-1.29.688.582-5.65z" class="B"/><path d="M108.337 232.544c.904-.286 1.975-.033 2.635.59.807.761 1.047 1.946.836 3.035s-.821 2.093-1.531 2.999c-1.332 1.698-3.059 3.128-5.012 4.169l.432-4.196c.152-1.471.306-2.954.78-4.378.246-.737.61-1.493 1.288-1.946a2.23 2.23 0 0 1 .572-.273zm-.469-1.483c-.346.109-.672.265-.967.462-1.134.758-1.627 1.931-1.899 2.747-.529 1.588-.693 3.175-.852 4.71l-.432 4.197-.3 2.907 2.58-1.375c2.147-1.144 4.05-2.729 5.504-4.581 1.005-1.283 1.605-2.481 1.834-3.664.332-1.715-.152-3.383-1.295-4.462-1.075-1.013-2.752-1.391-4.173-.941z" class="C"/><path d="M137.708 241.255c-.48-2.669-.257-5.47.647-8.1.097-.282.391-1.139 1.214-1.4l.079-.022c.649-.168 1.368.136 1.747.74.289.461.329.977.356 1.318.086 1.075.104 1.982-.086 2.912-.36 1.765-1.44 3.299-2.393 4.652l-1.253 1.622-.311-1.722z" class="B"/><path d="M139.803 232.496l.039-.011c.352-.091.715.116.893.401s.214.631.24.966c.071.895.109 1.803-.073 2.695-.322 1.582-1.305 2.996-2.266 4.36l-.162.21c-.457-2.537-.244-5.205.616-7.71.127-.369.325-.788.713-.911zm-.469-1.483c-.794.251-1.371.887-1.715 1.889-.947 2.755-1.181 5.691-.676 8.49l.62 3.445 2.141-2.769.162-.21.021-.027.02-.029c.997-1.416 2.127-3.02 2.519-4.945.22-1.079.178-2.141.1-3.128-.031-.391-.083-1.047-.473-1.669-.556-.889-1.626-1.333-2.601-1.081l-.118.034z" class="C"/><path d="M143.475 236.47a.47.47 0 0 0-.002-.062l-1.546.168-.064-.497.31-.301.013-.01 1.205-1.17.087 1.714c.003.053.001.106-.003.158z" class="B"/><path d="M142.703 236.352c.003.042-.007.083-.003.125l-.014-.11c.005-.006.012-.01.017-.015zm1.38-3.507l-2.404 2.333-.006.004-.071.068-.559.542.099.772.014.111 3.093-.335c.006.065.007.13.002.194a1.94 1.94 0 0 0 .005-.261l-.173-3.428z" class="C"/><path d="M132.699 242.372c-.129-.605-.29-1.359-.147-2.134.157-.846.692-1.529 1.396-1.784l.074-.025c.909-.288 1.792.153 2.315.661.877.852 1.285 2.166 1.119 3.605-.139 1.194-.63 2.324-1.063 3.322-.365.839-.706 1.658-.871 2.467l-.745 3.665-2.078-9.777z" class="B"/><path d="M134.257 239.17c.551-.174 1.148.098 1.539.478.775.753 1.012 1.89.888 2.958s-.566 2.093-1.004 3.101c-.372.855-.737 1.725-.919 2.621l-1.3-6.117c-.128-.601-.256-1.218-.143-1.832.092-.495.389-1.011.895-1.194l.044-.015zm-.469-1.483l-.104.036c-.977.353-1.685 1.24-1.895 2.373-.172.929.007 1.766.15 2.439l.651 3.058.65 3.059 1.556 7.317 1.491-7.331c.149-.735.46-1.481.821-2.31.455-1.048.971-2.235 1.123-3.542.193-1.682-.299-3.232-1.35-4.254-.874-.848-2.059-1.172-3.093-.845z" class="C"/><path d="M132.951 261.954l-1.234.334-1.362.306.73-2.108c.324-1.865 1.055-3.714 2.115-5.349.408-.632.988-1.432 1.848-2.015a4.24 4.24 0 0 1 1.109-.54c.645-.204 1.295-.232 1.879-.08 1.213.315 2.129 1.441 2.228 2.739.08 1.065-.34 2.187-1.184 3.159-.772.888-1.766 1.513-2.546 1.959-1.2.686-2.405 1.222-3.583 1.595z" class="B"/><path d="M136.389 253.324c.476-.151.981-.191 1.449-.069.944.245 1.577 1.124 1.647 2.045s-.355 1.853-.995 2.589-1.48 1.3-2.345 1.795c-1.086.62-2.235 1.15-3.431 1.528l-1.17.317.294-.849c.303-1.793.991-3.545 2.012-5.121.437-.674.947-1.329 1.632-1.794a3.53 3.53 0 0 1 .907-.441zm-.469-1.483c-.462.146-.903.36-1.311.637-.987.669-1.651 1.597-2.065 2.236-1.103 1.704-1.868 3.629-2.217 5.576l-.253.73-.914 2.639 2.725-.612 1.298-.351c1.23-.39 2.487-.949 3.734-1.661.834-.477 1.899-1.149 2.747-2.125.982-1.13 1.469-2.454 1.372-3.727-.123-1.625-1.278-3.036-2.808-3.434-.724-.188-1.523-.157-2.308.092z" class="C"/><path d="M141.925 236.387c-.042-.958.325-1.862.729-2.696.656-1.358 1.542-2.832 3.128-3.471l.222-.08c.286-.09.547-.121.799-.091.583.066 1.103.464 1.359 1.039.414.933.091 2.1-.822 2.973-.518.497-1.122.834-1.707 1.159l-.488.277a11.06 11.06 0 0 0-1.914 1.426l-1.232 1.144-.074-1.68z" class="B"/><path d="M146.24 230.881c.156-.049.318-.079.476-.06.34.038.607.291.737.582.307.692-.065 1.537-.649 2.096s-1.347.912-2.052 1.328a11.83 11.83 0 0 0-2.049 1.525c-.035-.792.293-1.58.652-2.322.6-1.24 1.381-2.55 2.718-3.089l.167-.06zm-.469-1.483l-.278.1c-1.832.738-2.817 2.362-3.538 3.854-.448.927-.856 1.939-.806 3.069l.148 3.36 2.465-2.289a10.28 10.28 0 0 1 1.779-1.325l.473-.268c.598-.334 1.275-.711 1.866-1.277 1.153-1.104 1.543-2.615.994-3.85-.368-.826-1.127-1.399-1.982-1.497-.363-.041-.73-.001-1.121.123z" class="C"/><g fill="#bf812e"><path d="M96.765 266.127c1.856.485 3.683.625 5.489 1.238 1.512.512 3.304 2.093 4.218 2.336-.549-2.219-.582-3.905-1.79-5.859-.507-.82-1.431-2.852-2.371-3.217-1.302 1.601-4.104 3.394-6.206 3.383s-4.33-1.043-5.448-2.656l.634 1.191c1.301 2.113 2.94 2.921 5.474 3.584zm-4.655-14.491l-.142.035c.061-.007.118.006.178.01-.011-.016-.026-.03-.036-.045z"/><path d="M100.801 255.725c.685.293 1.322.669 1.945 1.059.992.623 1.208.943 1.965 1.806-.191-1.006-.724-1.605-1.315-2.67-.717-1.289-1.22-2.71-2.208-3.824-.067-.076-.14-.152-.236-.194-.151-.065-.332-.034-.5-.002l-3.021.46c-1.407.19-2.918.366-4.144-.234-.369-.181-.735-.419-1.144-.445a6.7 6.7 0 0 0 2.309 2.021c1.935 1.032 4.32 1.153 6.35 2.023zm-.305-9.259c1.071.453 2.11 1.13 2.525 2.16l.144.123c.163-1.974.035-4.213-1.135-5.802-.961.728-2.623 1.388-3.831 1.382s-2.387-.428-3.262-1.166c.7.736 1.432 1.462 2.331 1.98.997.576 2.157.87 3.228 1.323zm2.924-7.432c.202-.707.353-1.428.453-2.156.137-1.004.115-2.156-.68-2.801-.419.849-1.497 1.319-2.476 1.267s-1.856-.539-2.562-1.146c.589 1.055 1.762 1.674 2.836 2.307 1.052.621 2.121 1.398 2.429 2.529zm.025.072c-.006-.025-.018-.047-.024-.072l-.038.15.062-.078zm1.44-7.291l.046.172c.437-2.267.388-4.592-.144-6.797-.125.494-.338.961-.628 1.381-.217.314-.489.613-.848.774s-.822.151-1.093-.101c.575 1.676 2.405 2.815 2.667 4.571zm3.734-8.342c.31-.763.431-1.604.221-2.374-.022-.08-.091-.178-.173-.14-.048.022-.062.079-.071.128-.2 1.043-1.065 1.877-1.886 2.637l.502 1.711.067.15c.538-.652 1.029-1.347 1.34-2.112zm2.15 3.883c-.929.535-2.003.882-3.066.834-.201.709-.202 1.461-.002 2.171l.037.286c2.39-1.077 4.009-3.231 5.509-5.285-.75.744-1.549 1.459-2.478 1.994zm-5.558 16.061l.263.261 2.794-2.481c.828-.748 1.657-1.509 2.312-2.393s1.133-1.907 1.173-2.959c.028-.699-.138-1.383-.177-2.078-.117 1.39-.888 2.679-1.641 3.912-.251.411-.505.826-.849 1.175-.791.802-1.949 1.159-3.021 1.573-.153.06-.319.132-.394.271a.63.63 0 0 0-.056.199l-.404 2.52zm6.453 2.956c-.105 0-.183.092-.245.173-1.536 2.034-3.713 3.572-5.456 5.459-.404.439-.796.917-.938 1.472s.036 1.206.558 1.468l.513.039c.432-.184.355-.27.72-.558 1.28-1.014 2.522-2.098 3.474-3.387s1.602-2.808 1.583-4.337c-.003-.144-.054-.33-.209-.329zm-1.733 17.506c.669-.738 1.447-1.384 2.187-2.06.825-.755 1.664-1.695 1.576-2.739-.593 1.31-1.572 2.531-2.921 3.203s-3.09.696-4.235-.156a16.54 16.54 0 0 1 1.804 4.327l.133-.058c.224-.931.787-1.779 1.456-2.517zm.415 13.142c-.164-.067-.356-.038-.537-.01-3.479.524-7.092-.195-9.933-1.976l.079.049c.959 1.031 2.376 1.574 3.741 2.092 3.244 1.234 6.489 2.527 9.36 4.371 1.751 1.124 3.354 2.449 5.217 3.411.217.112.464.223.712.164-1.141-1.125-2.323-2.209-3.543-3.247-1.666-1.422-3.352-3.004-4.805-4.616-.084-.092-.172-.188-.292-.238zm5.126-5.531c-1.397.835-3.323.832-4.55-.106.488 2.176 2.655 3.732 3.004 5.936l-.093.217c1.584-1.169 2.814-2.761 3.491-4.52s.797-3.678.344-5.448c.031 1.513-.799 3.086-2.196 3.921zm19.8-5.8c-1.45 1.897-3.989 2.713-6.014 4.076-.206.138-.413.29-.534.497-.105.179-.135.383-.163.582l-.292 2.065.42-.25c1.157-.436 2.099-1.07 3.094-1.641s1.938-1.506 2.753-2.293 1.443-1.574 1.419-2.64c-.004-.159-.334-.58-.501-.545-.08.017-.134.086-.182.149zm-9.181 6.478c.016-.631.046-1.735-.037-2.357-.275-2.08-.852-3.759-1.32-5.801-1.581 1.255-4.276 2.05-6.162 1.441.353.419.622.902.79 1.418.073.227.13.465.27.661.128.18.319.311.498.447 1.203.906 2.07 2.138 2.836 3.396.491.808.732 2.105 1.05 2.991.759 2.112.568 3.836.576 6.095s.658 4.523 1.735 6.499l-.28-2.103c-.057-1.403-.034-1.943-.513-3.864-.514-2.059-.066-4.383.192-6.516.079-.652.35-1.655.365-2.307zm1.367-7.014c.628-1.232.918-2.609.842-3.989-.09-1.546-.237-3.129-.605-4.626.097 1.002-.41 2.097-.85 3.04-.179.383-.419.77-.808.979s-.856-.1-1.058-.455l.347.62c1.177 1.272 1.819 2.751 2.132 4.431zm4.935-6.087c-.076.842-.32 1.661-.716 2.408l.212.141c1.215-.613 2.602-.998 3.816-1.61 1.08-.545 2.02-1.343 2.792-2.239s1.109-2.217.472-3.14c-.279 1.043-1.178 1.866-2.122 2.504a13.42 13.42 0 0 1-4.454 1.936zm-1.68-1.37c.025-.173.023-.344.016-.515l-.22.606.204-.091zm.579-2.075c.311-.86.846-1.279.987-2.172.066-.418.164-1.545.216-1.963.121-.96.083-1.652.147-2.614s-.081-1.969-.682-2.723c.517 2.21-.478 4.73-2.44 6.185-.136.101-.284.207-.335.36-.037.107-.019.221.005.329.175.811.613 1.535.98 2.28.29.59.531 1.226.559 1.879l.563-1.561zm9.44-8.938c-.617 1.067-1.697 1.842-2.801 2.487-.394.229-.801.452-1.123.766s-.552.744-.494 1.162l.016-.071c.429-.281.959-.361 1.455-.505 1.444-.42 2.64-1.411 3.673-2.464.355-.362.708-.753.844-1.221.065-.228.075-.476-.025-.686s-.322-.373-.573-.37c-.472.004-.744.506-.972.902zm-4.577-1.872c.35-1.062.659-2.198.346-3.24-.241 1.14-.96 2.207-1.966 2.919-.058.041-.119.084-.149.145s-.021.132-.012.198l.42 3.064.092-.034c.539-.975.925-2.011 1.269-3.052zm4.105-6.443c.19-.33.311-.879.376-1.243s-.018-.767-.311-.999a9.27 9.27 0 0 1-1.489 2.01c-.062.065-.127.13-.165.208s-.047.158-.057.24c-.092.784-.132 1.573-.119 2.362l.068.05c.542-.946 1.155-1.681 1.697-2.628zm7.592.076c.146-.349.182-.794-.109-1.031-.358.917-1.252 1.566-2.132 2.105-1.237.758-2.535 1.41-3.881 1.952-.398.16-.809.316-1.141.582s-.572.673-.5 1.062l-.193.116c2.043-1.199 4.437-1.794 6.397-3.112.651-.439 1.267-.981 1.559-1.674zm-3.84-3.185c.5-.312 1.046-.555 1.528-.891.674-.471 1.603-1.044 1.913-1.77.185-.433.159-1.216-.167-1.545-.075.843-.87 1.807-1.564 2.38s-1.551.941-2.426 1.191c-.081.023-.166.048-.224.106s-.075.124-.094.193c-.107.384-.179.776-.216 1.173l.072.399c.209-.522.68-.925 1.178-1.236zm-13.33 60.186c0-.059.008-.112.01-.169-.015-.069-.036-.138-.048-.208l.038.377zm13.372-21.343c-3.249 3.56-5.848 6.882-7.915 9.73-1.471 2.027-2.418 4.437-3.613 6.631-.91 1.672-1.784 3.006-1.834 4.813.133.617.385 1.228.921 1.583.719.475 1.77.354 2.552-.1s1.338-1.182 1.805-1.923c1.036-1.644 1.65-3.184 2.384-4.954 1.854-4.466 3.368-8.394 5.978-12.591 1.651-2.654 11.763-11.954 13.951-16.101-3.549 3.492-9.752 8.006-14.229 12.912zm-41.3 14.601c-1.578-.401-3.171-.799-4.819-.884s-2.381-.263-4.165-.134c0 0-1.64.519-1.684.652s3.885-.069 5.374.26c5.239 1.159 10.477 3.62 15.074 6.14 2.838 1.555 5.325 2.783 8.432 3.845.856.292 1.773.528 2.695.395.186-.027.389-.08.499-.225.064-.084.087-.188.096-.289.066-.78-.625-1.383-1.277-1.84-5.848-4.097-13.096-6.105-20.225-7.92z"/></g><path d="M139.211 355.111a2.4 2.4 0 0 1-2.399-2.399V209.74c0-.636.254-1.246.704-1.695a2.4 2.4 0 0 1 1.695-.704h98.446c.637.001 1.246.254 1.696.703s.703 1.06.704 1.696v142.972c-.001.636-.254 1.246-.704 1.696s-1.059.703-1.696.703h-98.446z" fill="url(#C)"/><path d="M236.166 211.23v139.992h-95.467V211.23h95.467zm1.49-7.778h-98.447a6.29 6.29 0 0 0-6.287 6.287v142.973a6.29 6.29 0 0 0 6.287 6.288h98.447a6.29 6.29 0 0 0 6.288-6.288V209.739a6.29 6.29 0 0 0-6.288-6.287z" fill="#f9e141"/><path d="M237.656 207.341c.636 0 1.245.253 1.695.703a2.4 2.4 0 0 1 .704 1.695v142.973a2.4 2.4 0 0 1-2.399 2.399h-98.447a2.4 2.4 0 0 1-1.695-.704c-.45-.45-.703-1.059-.703-1.695V209.739c0-.636.253-1.245.703-1.695s1.059-.702 1.695-.703h98.447zm0-3.889h-98.447a6.29 6.29 0 0 0-6.287 6.287v142.973a6.29 6.29 0 0 0 6.287 6.288h98.447a6.29 6.29 0 0 0 6.288-6.288V209.739a6.29 6.29 0 0 0-6.288-6.287z" class="D"/><path d="M191.77 321.902c-.388.002-.773-.065-1.137-.198-1.18-.439-2.012-1.614-2.119-2.994-.087-1.111.251-2.132.635-3.167.194-.522.47-1.196.893-1.8 2.447-4.328 6.439-7.671 10.389-10.639 2.715-2.041 4.867-3.513 6.978-4.773 3.029-1.81 16.37-5.162 18.848-5.162.223 0 .816 0 1.073.516.429.862-.583 1.462-2.116 2.369-1.199.711-2.911 1.652-4.724 2.647-4.383 2.408-9.837 5.405-11.992 7.279-2.794 2.429-5.232 5.282-7.59 8.04-1.633 1.911-3.322 3.887-5.129 5.727-.601.611-1.257 1.244-2.091 1.672-.615.316-1.279.483-1.918.483z" class="B"/><path d="M226.257 293.946c.218 0 .348.027.377.085.35.703-14.588 7.832-18.646 11.361-4.777 4.154-8.357 9.323-12.764 13.809-.565.575-1.156 1.147-1.891 1.525-.475.244-1.023.397-1.563.397a2.46 2.46 0 0 1-.866-.149c-.978-.364-1.539-1.358-1.614-2.325s.248-1.919.588-2.836c.213-.572.465-1.153.822-1.655 2.341-4.156 6.232-7.453 10.198-10.433 2.224-1.671 4.501-3.289 6.911-4.727 2.809-1.678 16.023-5.052 18.448-5.052zm0-1.555c-2.662 0-16.094 3.388-19.247 5.272-2.135 1.275-4.308 2.761-7.046 4.819-4.008 3.012-8.062 6.409-10.582 10.846-.46.668-.755 1.387-.962 1.944-.399 1.075-.78 2.23-.682 3.498.131 1.681 1.161 3.119 2.623 3.663a4.05 4.05 0 0 0 1.409.246c.762 0 1.548-.197 2.273-.569.936-.481 1.645-1.162 2.29-1.818 1.827-1.86 3.525-3.847 5.167-5.767 2.339-2.737 4.757-5.567 7.508-7.959 2.092-1.819 7.506-4.793 11.856-7.183l4.747-2.66c.675-.399 1.169-.714 1.508-.963 1.281-.935 1.201-1.833.908-2.422-.216-.433-.698-.947-1.77-.947z" class="C"/><path d="M181.845 320.747c-.753 0-1.462-.271-1.924-.497-2.025-.99-3.54-2.569-5.006-4.097l-.247-.257a124.1 124.1 0 0 0-10.392-9.623c-1.798-1.484-3.762-3.022-5.943-4.23-1.18-.655-3.493-.861-5.023-.998-1.747-.155-2.624-.235-2.552-1.173.04-.51.09-1.143 4.594-1.143 1.405 0 4.029.091 5.832.701 2.66.899 5.388 2.235 8.588 4.205l3.557 2.386c2.475 1.848 4.666 4.002 6.785 6.086l1.503 1.478c1.043 1.024 2.983 2.931 2.567 5.188-.114.614-.395 1.122-.814 1.466-.411.337-.925.508-1.525.508z" class="B"/><path d="M155.351 299.507c1.922 0 4.143.173 5.583.66 2.995 1.012 5.777 2.498 8.429 4.13l3.5 2.347c2.426 1.812 4.57 3.918 6.704 6.017l1.503 1.478c1.282 1.26 2.661 2.793 2.347 4.494-.069.376-.232.75-.541 1.004-.291.238-.651.332-1.033.332-.532 0-1.104-.183-1.582-.417-2.011-.984-3.526-2.626-5.035-4.195a124.34 124.34 0 0 0-10.457-9.682c-1.904-1.571-3.87-3.098-6.061-4.312s-7.21-.996-7.176-1.429c.017-.225 1.744-.427 3.819-.427zm0-1.555l-2.856.138c-.839.095-2.4.272-2.514 1.721-.028.367.02 1.577 1.824 1.856l1.434.153c1.375.123 3.679.329 4.715.903 2.126 1.178 4.056 2.691 5.825 4.151 3.622 2.988 7.069 6.18 10.327 9.561l.246.257c1.513 1.576 3.077 3.205 5.226 4.257.536.262 1.364.575 2.265.575.775 0 1.473-.237 2.019-.685.564-.462.938-1.127 1.085-1.925.492-2.663-1.641-4.759-2.785-5.885l-1.504-1.478c-2.137-2.101-4.347-4.275-6.865-6.154-1.042-.779-2.191-1.549-3.614-2.425-3.251-2.001-6.03-3.361-8.747-4.279-1.908-.645-4.629-.741-6.081-.741z" class="C"/><path d="M181.05 305.92l-.129-.03c-.786-.207-1.53-1.221-2.777-2.995l-1.267-1.724-2.257-2.568c-.999-.978-2.124-1.815-3.314-2.701l-2.681-2.106c-2.508-2.189-3.867-4.573-3.928-6.894-.034-1.286.489-2.308 1.4-2.734.312-.146.662-.22 1.039-.22.46 0 .951.106 1.504.323 2.625 1.034 4.389 3.256 5.487 4.837.469.676.996 1.487 1.341 2.385.209.545.344 1.095.474 1.627l.127.509c.582 2.243 2.779 5.838 4.234 8.217 1.598 2.615 1.887 3.087 1.568 3.654a.83.83 0 0 1-.304.308.84.84 0 0 1-.417.112h-.1z" class="B"/><path d="M167.137 284.726c.41 0 .835.119 1.218.269 2.221.875 3.834 2.686 5.134 4.557.489.705.95 1.433 1.253 2.221.257.666.396 1.365.575 2.052 1.025 3.948 6.469 11.317 5.834 11.317-.011 0-.021-.001-.031-.004-.824-.217-2.426-2.973-3.639-4.459-.737-.903-1.476-1.808-2.316-2.631-1.827-1.789-4.092-3.149-6.027-4.838s-3.598-3.876-3.663-6.328c-.02-.771.204-1.659.953-2.009.222-.104.463-.147.709-.147zm0-1.555c-.493 0-.954.099-1.37.294-1.199.561-1.89 1.854-1.847 3.459.067 2.544 1.517 5.123 4.195 7.459.882.77 1.819 1.468 2.727 2.143 1.169.871 2.273 1.693 3.235 2.634.781.765 1.501 1.648 2.198 2.503.369.452.808 1.077 1.233 1.68 1.352 1.923 2.167 3.024 3.216 3.299.14.037.284.056.427.056.284 0 .564-.075.81-.219a1.6 1.6 0 0 0 .589-.598c.492-.876.026-1.705-.384-2.437-.296-.526-.714-1.211-1.199-2.004-1.43-2.339-3.591-5.875-4.144-8.006l-.124-.498c-.136-.556-.276-1.13-.504-1.722-.375-.974-.932-1.835-1.428-2.549-1.156-1.665-3.02-4.006-5.841-5.117-.646-.254-1.231-.377-1.789-.377z" class="C"/><path d="M172.859 286.955l-.071-.122c-.942-1.618-2.42-3.008-4.163-3.913l-.925-.445-1.566-.801c-.776-.472-1.435-1.053-1.978-1.559-.641-.598-1.458-1.407-2.078-2.357a8.03 8.03 0 0 1-1.308-4.62c.049-1.409.539-2.504 1.418-3.165.6-.451 1.343-.681 2.209-.681.826 0 1.762.223 2.634.627 2.318 1.072 4.294 3.001 6.041 5.898.517.857.883 1.578 1.153 2.268 1.146 2.932.858 6.109.605 8.912l-.132 1.459-1.839-1.501z" class="B"/><path d="M164.397 270.07c.782 0 1.604.228 2.308.554 2.521 1.166 4.333 3.325 5.701 5.594.418.693.804 1.405 1.096 2.15 1.059 2.711.814 5.687.554 8.559l-.595-.486c-1.021-1.754-2.592-3.233-4.477-4.211l-2.446-1.221c-.679-.413-1.279-.929-1.851-1.463-.728-.679-1.424-1.396-1.958-2.213-.815-1.248-1.231-2.714-1.181-4.169.032-.95.307-1.968 1.108-2.57.496-.373 1.105-.524 1.741-.524zm0-1.556c-1.023 0-1.949.29-2.677.837-1.073.807-1.67 2.107-1.727 3.76-.059 1.765.45 3.566 1.435 5.073.665 1.019 1.524 1.871 2.197 2.499.572.533 1.269 1.146 2.104 1.655.549.334 1.106.592 1.644.842l.894.43c1.613.838 2.981 2.121 3.849 3.613l.142.244.219.179.595.486 2.269 1.852.264-2.917c.261-2.889.558-6.163-.655-9.265-.287-.733-.672-1.491-1.212-2.387-1.83-3.034-3.917-5.063-6.38-6.202-.688-.319-1.761-.699-2.961-.699z" class="C"/><path d="M174.858 275.922c-.525-1.813-1.712-3.441-3.344-4.585-.584-.409-1.227-.764-1.907-1.14-1.48-.817-3.01-1.662-3.933-3.125-.522-.827-.766-1.75-.919-2.462-.205-.95-.348-2.06.148-3.095.545-1.138 1.821-1.903 3.174-1.903.151 0 .302.01.449.029 1.423.188 2.499 1.177 3.278 2.018 1.156 1.247 1.929 2.356 2.435 3.489.502 1.125.745 2.299.98 3.435l1.491 7.205-1.517 1.288-.335-1.154z" class="B"/><path d="M168.08 260.39a2.52 2.52 0 0 1 .347.023c1.151.152 2.056.962 2.809 1.775.921.993 1.757 2.07 2.295 3.277.467 1.046.699 2.165.929 3.276l1.397 6.753-.249.212c-.572-1.976-1.876-3.766-3.644-5.005-1.913-1.341-4.423-2.131-5.63-4.044-.427-.676-.651-1.444-.816-2.21-.187-.863-.297-1.791.089-2.596.418-.873 1.441-1.461 2.473-1.461zm0-1.556c-1.647 0-3.204.943-3.876 2.346-.6 1.253-.426 2.579-.207 3.595.167.774.434 1.782 1.022 2.713 1.03 1.632 2.722 2.566 4.215 3.391l1.837 1.096c1.486 1.042 2.567 2.521 3.043 4.164l.668 2.309 1.833-1.556.249-.212.703-.597-.186-.903-1.397-6.754c-.244-1.176-.496-2.392-1.031-3.594-.542-1.213-1.36-2.39-2.575-3.701-.868-.937-2.078-2.04-3.747-2.261-.182-.023-.367-.036-.551-.036z" class="C"/><path d="M178.883 261.072l.887-.157.142-.033 1.442-.276-.675 1.565-.81 1.866-.986-2.965z" class="B"/><path d="M180.057 261.646l-.093.216-.06-.181c.051-.009.102-.025.153-.035zm2.592-2.079l-2.884.551-.161.036-1.745.308.569 1.71.06.18 1.284 3.86 1.619-3.732.095-.218 1.163-2.695z" class="C"/><path d="M179.526 256.414c.011-.619-.278-1.302-.884-2.088l-.78-.923-1.087-1.331c-.591-.838-1.009-1.786-1.23-2.788-.271-1.237-.077-2.264.56-2.971.507-.56 1.263-.869 2.129-.869.714 0 1.421.21 1.993.589.925.614 1.596 1.618 2.051 3.068.911 2.902.556 5.704-.975 7.689l-.154.199-1.642.485.019-1.06z" class="B"/><path d="M178.232 246.222c.55 0 1.117.163 1.562.459.929.616 1.423 1.642 1.741 2.653.73 2.327.675 5.005-.85 6.981l-.383.113c.017-.933-.46-1.817-1.046-2.577l-1.845-2.226c-.531-.755-.908-1.607-1.109-2.508-.17-.781-.173-1.67.38-2.282.38-.422.955-.613 1.55-.613zm0-1.555c-1.089 0-2.05.4-2.705 1.125-.568.629-1.157 1.774-.744 3.658a8.51 8.51 0 0 0 1.353 3.068c.361.515.757.964 1.141 1.399l.747.884c.487.631.73 1.17.722 1.599l-.038 2.12 2.034-.6.383-.113.484-.143.308-.399c1.688-2.189 2.089-5.25 1.101-8.397-.51-1.627-1.284-2.766-2.364-3.483-.696-.463-1.557-.718-2.422-.718z" class="C"/><path d="M183.232 250.611l.001-.199c.007-1.152-.336-2.293-.699-3.5l-.3-1.026c-.417-1.511-.793-3.477.019-5.288.338-.753.818-1.294 1.425-1.607.346-.176.728-.268 1.116-.267.537 0 1.03.179 1.389.503.388.352.559.813.655 1.13.478 1.593.212 3.226-.146 4.753a37.61 37.61 0 0 1-1.867 5.781l-.626 1.507-.967-1.787z" class="B"/><path d="M184.793 239.501c.322 0 .638.096.867.303s.346.493.431.776c.425 1.414.178 2.919-.158 4.352-.455 1.933-1.066 3.826-1.828 5.661l-.096-.177c.009-1.616-.593-3.172-1.027-4.738s-.691-3.268-.021-4.762c.222-.496.563-.972 1.072-1.234.236-.119.496-.181.76-.181zm0-1.555c-.512-.001-1.016.121-1.471.353-.758.391-1.373 1.076-1.78 1.98-.924 2.06-.476 4.304-.058 5.814l.304 1.042c.345 1.15.672 2.237.666 3.273l-.002.398.189.35.096.177 1.553 2.871 1.252-3.015a38.3 38.3 0 0 0 1.905-5.901c.384-1.633.665-3.387.134-5.155-.122-.405-.345-1.001-.878-1.483-.501-.454-1.18-.704-1.91-.704z" class="C"/><path d="M187.27 244.389l.001-.043c.06-1.617.405-3.21 1.019-4.707.193-.472.434-.959.888-1.328.355-.287.796-.446 1.253-.451.299 0 .585.075.829.218.555.324.849.917.873 1.765.034 1.246-.276 2.444-.896 3.466a6 6 0 0 1-2.848 2.43l-.989.402-.13-1.752z" class="B"/><path d="M190.433 238.638c.154 0 .305.034.437.112.384.224.475.698.487 1.115.029 1.053-.224 2.119-.783 3.039-.579.951-1.447 1.691-2.476 2.114l-.048-.644c.058-1.525.383-3.028.962-4.441.153-.373.333-.754.658-1.018a1.25 1.25 0 0 1 .763-.277zm0-1.555c-.62 0-1.256.227-1.744.624-.591.481-.896 1.097-1.117 1.637a14.51 14.51 0 0 0-1.076 4.973l-.004.086.007.086.048.644.158 2.129 1.978-.803c1.34-.549 2.468-1.511 3.221-2.748.698-1.149 1.046-2.494 1.008-3.888-.041-1.415-.706-2.095-1.257-2.417-.372-.214-.793-.325-1.222-.323z" class="C"/><path d="M186.792 250.657l-.569-.392.002-.411c.005-1.345.689-2.638 1.831-3.459a8.28 8.28 0 0 1 .848-.518l.654-.393c.439-.305.805-.706 1.239-1.199.32-.364.682-.775 1.202-1.058.349-.191.741-.292 1.139-.296.339 0 .663.081.937.236.603.341.968 1.03.975 1.843.012 1.243-.73 2.525-1.984 3.428-1.04.748-2.239 1.162-3.398 1.563l-2.54.877-.336-.221z" class="B"/><path d="M193.136 243.707c.195 0 .386.042.554.136.415.235.576.724.579 1.173.011 1.098-.72 2.113-1.66 2.79s-2.08 1.073-3.198 1.459l-2.179.752-.232-.16c.005-1.087.576-2.161 1.508-2.831.469-.338 1.017-.574 1.492-.904.532-.37.96-.848 1.378-1.324.292-.332.591-.671.99-.888.235-.13.499-.199.768-.203zm0-1.555c-.528.003-1.047.136-1.51.39-.642.349-1.07.836-1.414 1.226-.399.455-.733.821-1.099 1.076-.167.116-.372.231-.591.353l-.923.566c-1.342.966-2.147 2.494-2.154 4.088l-.004.82.675.466.232.16.648.447.743-.257 2.179-.752c1.157-.399 2.467-.852 3.599-1.666 1.482-1.067 2.323-2.55 2.308-4.068-.009-1.093-.522-2.032-1.37-2.512a2.69 2.69 0 0 0-1.319-.337z" class="C"/><path d="M187.764 309.763l-.399-.053-.221-.308c-.582-.858.496-7.417.894-8.982.671-2.634 1.255-5.416.406-7.931-.284-.842-.723-1.643-1.188-2.491-.653-1.192-1.328-2.424-1.571-3.822-.219-1.275-.058-2.585.464-3.768.397-.904.949-1.554 1.64-1.93.46-.251 1.001-.384 1.566-.384.85 0 1.729.296 2.414.812.894.674 1.543 1.702 1.926 3.054.54 1.898.46 3.841.343 5.514-.153 2.186-.434 4.502-1.443 6.622l-.754 1.405-.793 1.501c-.31.696-.527 1.453-.738 2.185-.371 1.282-.732 3.273-1.022 4.873-.593 3.278-.67 3.702-1.471 3.702l-.053.001z" class="B"/><path d="M189.356 280.871a3.31 3.31 0 0 1 1.946.656c.868.656 1.362 1.646 1.646 2.646.484 1.702.438 3.491.315 5.247-.152 2.162-.425 4.358-1.37 6.343l-1.555 2.923c-.329.739-.553 1.514-.775 2.286-.772 2.672-1.445 8.013-1.746 8.013h-.004c-.299-.039.279-5.619.98-8.373s1.3-5.67.389-8.37c-.72-2.136-2.346-3.99-2.729-6.198a5.82 5.82 0 0 1 .409-3.323c.272-.618.677-1.22 1.301-1.56.363-.199.775-.29 1.193-.29zm0-1.555a4.06 4.06 0 0 0-1.94.479c-.844.461-1.51 1.235-1.978 2.299-.584 1.323-.765 2.789-.518 4.214.265 1.526.971 2.816 1.655 4.064.447.817.871 1.589 1.133 2.366.781 2.314.219 4.969-.423 7.49-.322 1.266-.653 3.229-.885 5.253-.413 3.601-.186 3.935.101 4.358.126.187.29.344.481.463s.406.195.629.225l.101.013h.105c1.358 0 1.644-1.329 1.816-2.123l.421-2.218 1.003-4.795.703-2.086c.208-.467.475-.935.757-1.432l.781-1.455c1.065-2.238 1.359-4.64 1.517-6.903.121-1.738.203-3.762-.37-5.78-.431-1.519-1.174-2.684-2.206-3.463a4.89 4.89 0 0 0-2.883-.969z" class="C"/><path d="M193.284 295.83l.05-.099c1.05-2.076 2.357-4.66 4.421-6.615.511-.484 1.217-1.075 2.142-1.352.327-.098.667-.147 1.008-.146 1.769 0 3.386 1.228 3.682 2.796.21 1.115-.181 2.323-1.071 3.314-.828.921-1.953 1.512-2.727 1.877-2.098.988-4.45 1.6-6.801 1.769l-1.004.072.3-1.616z" class="B"/><path d="M200.907 288.396c1.341 0 2.685.926 2.918 2.162.176.939-.224 1.915-.885 2.65s-1.556 1.258-2.479 1.693c-2.025.954-4.257 1.534-6.526 1.697l.096-.517c1.153-2.279 2.357-4.596 4.261-6.4.524-.495 1.117-.959 1.831-1.173.254-.075.519-.113.784-.112zm0-1.556c-.423 0-.837.06-1.231.179-1.094.328-1.924 1.031-2.453 1.532-2.163 2.048-3.504 4.699-4.58 6.829l-.101.199-.041.219-.095.517-.367 1.979 2.007-.145c2.446-.175 4.894-.812 7.078-1.841.834-.393 2.05-1.034 2.973-2.061 1.054-1.172 1.512-2.621 1.256-3.977-.362-1.923-2.315-3.43-4.446-3.43z" class="C"/><path d="M194.707 288.442c.164-1.409-.245-2.826-.678-4.328l-.476-1.769c-.714-3.089-.302-5.904 1.157-7.925.176-.244.713-.989 1.62-1.043l.102-.003c.493 0 .988.216 1.432.625 1.41 1.295 1.452 3.234 1.381 4.949-.072 1.704-.146 3.466-.551 5.193-.47 2.009-1.324 3.659-2.54 4.904l-.151.155-1.426.368.13-1.126z" class="B"/><path d="M196.436 274.151c.344 0 .661.194.906.42 1.181 1.085 1.193 2.811 1.13 4.345-.072 1.691-.144 3.393-.531 5.048s-1.11 3.278-2.34 4.537l-.117.03c.25-2.15-.682-4.246-1.169-6.361-.569-2.464-.486-5.197 1.029-7.295.249-.345.588-.696 1.036-.722.019-.002.038-.002.056-.002zm0-1.556l-.151.005c-.844.05-1.585.51-2.202 1.365-1.592 2.205-2.048 5.243-1.284 8.555l.486 1.809c.411 1.424.799 2.769.654 4.022l-.262 2.253 2.196-.567.117-.03.421-.109.304-.31c1.315-1.348 2.238-3.121 2.741-5.27.421-1.799.497-3.597.57-5.337.057-1.366.163-3.908-1.632-5.556-.589-.542-1.267-.83-1.958-.83z" class="C"/><path d="M199.841 283.573l.029-.229c.195-1.343.052-2.692-.099-4.12l-.148-1.539c-.127-1.684-.134-4.153 1.26-6.141.455-.649.986-1.128 1.58-1.424.441-.22.927-.336 1.42-.339.344 0 .672.06.975.177.807.312 1.437 1.047 1.685 1.967.202.752.142 1.487.063 2.175-.15 1.316-.41 2.844-1.2 4.183-.519.879-1.23 1.628-1.918 2.353-.977 1.03-1.901 2.002-2.11 3.172l-1.537-.235z" class="B"/><path d="M203.884 270.558c.238 0 .474.04.694.124.633.245 1.05.832 1.215 1.445s.113 1.255.041 1.883c-.152 1.337-.4 2.696-1.097 3.877-1.21 2.048-3.712 3.484-4.124 5.783l.029-.229c.281-1.927-.097-3.876-.243-5.815s-.024-4.002 1.121-5.637c.332-.472.752-.905 1.29-1.173.334-.167.701-.255 1.074-.258zm0-1.555c-.603 0-1.213.145-1.766.42-.712.355-1.341.917-1.871 1.674-1.537 2.192-1.534 4.843-1.399 6.645l.15 1.564c.146 1.378.284 2.679.105 3.911l-.002.015-.002.015-.029.229 3.074.468c.169-.94 1.013-1.83 1.908-2.773.718-.756 1.46-1.539 2.024-2.492.865-1.466 1.144-3.094 1.303-4.493.084-.727.153-1.579-.085-2.463-.311-1.159-1.117-2.09-2.156-2.491-.4-.154-.826-.231-1.254-.229z" class="C"/><path d="M177.941 296.361l.167-.474c.176-.5-.047-1.139-.283-1.815l-.054-.153a19.01 19.01 0 0 1-.949-4.271c-.094-.903-.155-2.089.207-3.248.392-1.249 1.236-2.253 2.318-2.755.648-.301 1.422-.447 2.365-.447h.06c.402.003.931.028 1.455.2 1.39.458 2.344 1.794 2.687 3.761.154.886.186 1.624.097 2.323-.198 1.571-1.062 3.134-2.497 4.521-1.225 1.183-2.681 2.09-4.09 2.967l-.512.319-.971-.928z" class="B"/><path d="M181.713 283.976h.055c.412.003.829.034 1.217.161 1.337.441 1.939 1.866 2.164 3.156.121.691.18 1.396.091 2.091-.194 1.538-1.106 2.938-2.266 4.059s-2.566 1.999-3.96 2.867l-.172-.164c.285-.807-.055-1.673-.335-2.482-.461-1.326-.766-2.7-.911-4.096-.102-.982-.12-1.988.176-2.936s.945-1.837 1.903-2.281c.624-.289 1.337-.375 2.038-.375zm0-1.555c-1.059 0-1.939.17-2.693.519-1.28.594-2.276 1.771-2.732 3.228-.405 1.295-.34 2.583-.239 3.561.157 1.515.489 3.006.988 4.445l.054.155c.165.472.37 1.058.285 1.3l-.335.948.727.694.171.164.873.834 1.025-.638c1.442-.899 2.934-1.828 4.218-3.068 1.564-1.512 2.508-3.235 2.729-4.983.097-.767.064-1.603-.103-2.555-.395-2.262-1.534-3.813-3.21-4.365-.627-.206-1.234-.236-1.693-.239h-.065z" class="C"/><path d="M176.075 284.094l.06-.375c.117-.727.025-1.493-.073-2.305l-.098-.904c-.146-1.671.054-3.065.609-4.262.703-1.511 2.021-2.646 3.527-3.034.372-.096.754-.144 1.138-.143 1.45 0 2.776.651 3.462 1.7.524.8.642 1.709.693 2.571.021.351.036.763-.046 1.188-.251 1.303-1.282 2.193-2.103 2.711-.553.349-1.14.621-1.707.884l-1.013.492c-1.023.537-1.944 1.246-2.724 2.097l-.569.624-1.156-1.244z" class="B"/><path d="M181.239 273.848c1.117 0 2.239.473 2.811 1.348.425.65.523 1.434.567 2.191.02.332.031.668-.032.996-.177.919-.916 1.671-1.754 2.199s-1.789.882-2.67 1.347c-1.112.588-2.111 1.357-2.935 2.261l-.322-.348c.181-1.125-.066-2.265-.164-3.399-.114-1.308-.021-2.66.54-3.867s1.641-2.254 3.016-2.609a3.75 3.75 0 0 1 .943-.119zm0-1.555c-.455 0-.904.056-1.333.167-1.728.446-3.237 1.74-4.037 3.46-.615 1.324-.837 2.847-.679 4.658l.101.929c.09.756.176 1.469.077 2.089l-.121.75.517.556.323.347 1.15 1.237 1.138-1.248a9.21 9.21 0 0 1 2.513-1.933l.978-.474 1.794-.932c1.364-.86 2.212-1.974 2.452-3.222.094-.49.083-.953.058-1.382-.054-.922-.193-1.995-.819-2.951-.828-1.265-2.403-2.051-4.112-2.051z" class="C"/><path d="M178.098 273.342c-.553 0-1.084-.347-1.32-.865-.216-.473-.166-.938-.102-1.336.196-1.207.508-2.393.931-3.54.562-1.523 1.214-2.658 2.051-3.572 1.086-1.183 2.478-1.938 3.921-2.125a4.27 4.27 0 0 1 .537-.036c.453 0 .855.089 1.195.263.385.198.713.514 1.002.966 1.12 1.759.825 4.269-.716 6.105-1.151 1.371-2.9 2.419-5.349 3.206l-.214.068-.679.228.16.217-.991.349c-.137.048-.281.073-.426.072z" class="B"/><path d="M184.117 262.645c.294 0 .585.046.838.178.304.155.527.417.703.693 1.015 1.594.571 3.723-.656 5.185s-3.094 2.357-4.991 2.966c-.633.203-1.29.387-1.827.756l.083.113a.52.52 0 0 1-.168.028c-.257 0-.51-.185-.614-.411-.126-.277-.088-.592-.041-.889.188-1.157.486-2.294.893-3.394.439-1.189 1.014-2.355 1.895-3.316s2.095-1.704 3.447-1.879c.144-.019.291-.03.438-.03zm0-1.556a5.1 5.1 0 0 0-.637.043c-1.625.211-3.186 1.052-4.394 2.371-.909.991-1.61 2.207-2.208 3.828-.442 1.194-.766 2.429-.969 3.685-.055.343-.17 1.056.16 1.781.363.792 1.178 1.322 2.03 1.322.234 0 .464-.039.684-.116l1.982-.698-.147-.2c2.524-.828 4.349-1.943 5.575-3.404 1.785-2.126 2.097-4.948.777-7.021-.366-.573-.792-.979-1.304-1.241-.45-.232-.971-.35-1.549-.35z" class="C"/><path d="M176.505 265.234c-.262-1.091-1.346-1.898-2.493-2.753l-.718-.543c-2.401-1.879-3.721-4.237-3.621-6.47.052-1.13.491-2.057 1.238-2.609.499-.369 1.128-.564 1.821-.564.658 0 1.338.179 1.916.504 1.062.597 1.741 1.548 2.266 2.399 1.022 1.66 1.645 3.218 1.904 4.765.313 1.868.066 3.661-.713 5.183l-1.148 1.971-.452-1.883z" class="B"/><path d="M172.733 253.073a3.19 3.19 0 0 1 1.534.404c.877.494 1.479 1.307 1.985 2.13.859 1.394 1.534 2.901 1.8 4.485s.104 3.25-.639 4.7l-.152.261c-.392-1.633-2.102-2.643-3.487-3.727-1.88-1.471-3.425-3.555-3.323-5.823.034-.752.284-1.546.923-2.018.385-.285.866-.412 1.359-.412zm0-1.555c-.861 0-1.65.247-2.284.716-.939.694-1.49 1.83-1.552 3.198-.153 3.406 2.39 5.922 3.918 7.119l.733.554c1.031.768 2.005 1.494 2.201 2.31l.904 3.768 1.952-3.348.152-.26.022-.037.02-.038c.855-1.672 1.128-3.632.787-5.666-.276-1.647-.933-3.297-2.009-5.044-.543-.881-1.323-1.981-2.547-2.669a4.77 4.77 0 0 0-2.297-.603z" class="C"/><path d="M206.596 275.244c.061-.136.134-.266.208-.395l1.87-3.352-.431 4.394-.524.332-2.184 1.373 1.061-2.352z" class="B"/><path d="M207.536 275.135l-.029.302-.201.126c.067-.147.151-.287.23-.428zm2.277-7.277l-3.635 6.519-.049.087-.241.46-2.122 4.703 4.368-2.747.2-.126.646-.406.075-.759.029-.302.729-7.429z" class="C"/><path d="M206.828 278.191l.245-.438c.558-.996 1.493-1.68 2.404-2.295l3.047-1.924c.393-.231.93-.547 1.567-.652a2.4 2.4 0 0 1 .397-.032c1.027 0 2.173.667 2.315 1.784.072.571-.095 1.442-1.297 2.347-1.559 1.175-3.524 1.844-5.534 1.884l-.227.002c-.144 0-.289-.003-.434-.005l-.411-.004c-.296 0-.642.009-.97.074l-.485.096-.617-.837z" class="B"/><path d="M214.49 273.628c.721 0 1.46.448 1.543 1.104.081.645-.445 1.217-.993 1.628-1.422 1.073-3.242 1.691-5.081 1.727l-.212.002c-.281 0-.563-.009-.845-.009a5.76 5.76 0 0 0-1.122.089l-.026-.036c.475-.85 1.322-1.465 2.16-2.03l3.007-1.899c.404-.238.825-.477 1.298-.555.09-.014.18-.021.271-.021zm0-1.556a3.29 3.29 0 0 0-.525.043c-.78.129-1.414.502-1.833.749l-3.089 1.949c-.988.668-2.006 1.415-2.647 2.561l-.49.875.595.807.027.036.586.795.969-.192c.261-.052.56-.059.819-.059l.398.004.446.005.241-.002c2.174-.043 4.301-.767 5.989-2.04 1.498-1.13 1.697-2.29 1.599-3.065-.177-1.406-1.504-2.466-3.085-2.466z" class="C"/><path d="M212.73 271.328l.522-.494c1.279-1.214 2.811-2.11 4.277-2.897 1.176-.632 2.558-1.306 4.075-1.306l.39.015c1.095.086 2.28.689 2.46 1.841.15.958-.511 1.911-1.726 2.487-1.077.51-2.24.728-3.338.906l-5.263.636-.409.032-.988-1.22z" class="B"/><path d="M221.606 267.408l.329.013c.782.061 1.642.472 1.753 1.186.113.72-.587 1.33-1.291 1.663-.97.461-2.055.667-3.13.842l-5.2.628-.277-.343c1.186-1.126 2.637-1.985 4.109-2.776 1.146-.615 2.395-1.213 3.707-1.213zm0-1.555c-1.697 0-3.184.721-4.443 1.398-1.513.813-3.098 1.741-4.444 3.018l-1.043.989.904 1.117.277.343.516.637.817-.065 5.326-.643c1.103-.179 2.378-.417 3.547-.971 1.538-.729 2.366-1.997 2.162-3.309-.246-1.572-1.768-2.387-3.168-2.497l-.451-.017z" class="C"/><path d="M181.88 257.297c.598-1.378 1.216-2.802 2.149-4.086.439-.604 1.147-1.443 2.228-1.757a3.05 3.05 0 0 1 .844-.119c1.218 0 2.429.707 3.014 1.757.634 1.14.591 2.596-.115 3.896-.522.961-1.351 1.808-2.609 2.668-1.856 1.267-4.046 2.161-6.333 2.585l-1.437.267 2.259-5.211z" class="B"/><path d="M187.103 252.113c.948 0 1.893.564 2.334 1.357.54.969.411 2.172-.119 3.146s-1.414 1.748-2.364 2.397c-1.782 1.217-3.86 2.06-6.036 2.463l1.678-3.87c.588-1.356 1.182-2.724 2.064-3.939.457-.628 1.032-1.239 1.815-1.467a2.26 2.26 0 0 1 .628-.087zm0-1.556c-.363 0-.72.05-1.061.149-1.31.381-2.134 1.351-2.64 2.047-.983 1.353-1.618 2.817-2.233 4.233l-1.678 3.871-1.163 2.681 2.874-.532c2.392-.444 4.685-1.38 6.63-2.708 1.345-.92 2.278-1.881 2.854-2.94.834-1.534.876-3.271.111-4.644-.719-1.29-2.203-2.157-3.694-2.157z" class="C"/><path d="M212.478 269.28c.347-2.69 1.405-5.293 3.06-7.528.177-.239.717-.968 1.58-.968l.082.003c.67.035 1.263.542 1.442 1.232.136.527.019 1.031-.058 1.365-.243 1.05-.499 1.92-.961 2.749-.875 1.575-2.368 2.711-3.685 3.714l-1.684 1.169.224-1.736z" class="B"/><path d="M217.12 261.562l.04.001c.364.02.648.326.732.652s.013.666-.063.994c-.202.874-.44 1.751-.883 2.547-.785 1.411-2.148 2.462-3.476 3.473l-.218.152c.33-2.557 1.338-5.037 2.914-7.165.232-.314.548-.654.954-.654zm0-1.555c-.833 0-1.574.431-2.204 1.283-1.734 2.341-2.843 5.07-3.207 7.891l-.447 3.472 2.876-1.995.218-.151.029-.02.027-.021c1.378-1.049 2.939-2.238 3.894-3.954.535-.963.816-1.988 1.038-2.953.089-.382.238-1.023.054-1.734-.263-1.015-1.149-1.761-2.155-1.815l-.123-.003z" class="C"/><path d="M219.422 266.459c.006-.014.011-.037.016-.06l-1.524-.307.089-.492.387-.194.015-.006 1.502-.752-.434 1.661a1.47 1.47 0 0 1-.051.15z" class="B"/><path d="M218.717 266.113c-.011.04-.032.077-.041.118l.02-.109c.006-.004.014-.006.021-.009zm2.373-2.927l-2.996 1.498-.007.003-.088.042-.696.349-.139.766-.019.11 3.049.614c-.014.063-.033.125-.056.185l.083-.247.869-3.32z" class="C"/><path d="M207.364 268.834c.059-.616.134-1.383.504-2.079.405-.76 1.121-1.25 1.869-1.28l.078-.002c.953 0 1.662.687 2.008 1.329.579 1.077.572 2.453-.021 3.775-.492 1.096-1.302 2.026-2.016 2.846-.601.69-1.174 1.368-1.574 2.089l-1.817 3.27.969-9.948z" class="B"/><path d="M209.817 266.251c.577 0 1.064.439 1.322.919.512.952.395 2.107-.045 3.089s-1.171 1.824-1.893 2.653c-.612.704-1.223 1.422-1.667 2.222l.606-6.225c.059-.611.123-1.238.417-1.789.236-.445.675-.847 1.213-.868l.047-.001zm0-1.556l-.11.003c-1.038.042-1.981.674-2.523 1.69-.444.835-.526 1.687-.592 2.371l-.303 3.112-.302 3.113-.725 7.445 3.633-6.539c.364-.656.885-1.273 1.48-1.955.75-.862 1.6-1.838 2.139-3.038.692-1.546.691-3.172-.004-4.463-.577-1.073-1.609-1.739-2.693-1.739z" class="C"/><path d="M201.696 287.579c-.431 0-.862-.018-1.278-.054l-1.391-.119 1.332-1.79c.873-1.681 2.127-3.222 3.631-4.462.58-.479 1.374-1.067 2.369-1.364.397-.118.808-.179 1.221-.179.677 0 1.304.169 1.815.491 1.062.665 1.596 2.015 1.298 3.283-.245 1.039-.983 1.982-2.082 2.654-1.003.614-2.14.91-3.018 1.1-1.351.292-2.662.44-3.897.44z" class="B"/><path d="M207.581 280.388c.499 0 .992.114 1.401.372.827.518 1.166 1.548.954 2.447s-.898 1.659-1.73 2.168-1.803.793-2.777 1.004c-1.222.264-2.477.422-3.732.422a14.37 14.37 0 0 1-1.211-.051l.536-.721c.83-1.618 2.015-3.081 3.463-4.275.62-.512 1.304-.982 2.097-1.219a3.6 3.6 0 0 1 .999-.147zm0-1.555c-.485 0-.969.072-1.442.212-1.143.34-2.056 1.024-2.643 1.509a15.33 15.33 0 0 0-3.797 4.647l-.461.62-1.668 2.24 2.783.239 1.344.056c1.29 0 2.656-.154 4.061-.457.938-.202 2.157-.521 3.259-1.196 1.278-.782 2.141-1.897 2.433-3.14.373-1.586-.302-3.28-1.641-4.121-.634-.398-1.405-.609-2.228-.609z" class="C"/><path d="M217.968 265.91c.249-.925.871-1.676 1.508-2.35 1.036-1.096 2.325-2.234 4.029-2.365l.237-.009a1.89 1.89 0 0 1 .789.154c.535.239.912.775.982 1.401.113 1.013-.546 2.029-1.68 2.586-.644.317-1.322.456-1.978.59l-.549.117a11.07 11.07 0 0 0-2.255.782l-1.52.719.437-1.625z" class="B"/><path d="M223.742 261.963c.163 0 .326.021.472.086.312.139.49.461.526.778.085.752-.526 1.445-1.251 1.802s-1.559.463-2.357.646a11.91 11.91 0 0 0-2.413.837c.205-.766.756-1.419 1.322-2.018.945-1 2.086-2.014 3.523-2.124l.178-.007zm0-1.556l-.296.012c-1.969.151-3.397 1.402-4.536 2.607-.706.748-1.4 1.591-1.694 2.682l-.872 3.249 3.04-1.439a10.22 10.22 0 0 1 2.096-.726l.532-.113c.67-.138 1.43-.294 2.164-.655 1.432-.704 2.26-2.027 2.11-3.371-.102-.898-.653-1.674-1.438-2.025-.334-.148-.696-.221-1.106-.221z" class="C"/><g fill="#bf812e"><path d="M165.934 280.639c1.623 1.023 3.322 1.707 4.859 2.836 1.288.945 2.519 2.992 3.317 3.501.147-2.282.624-3.9.062-6.127-.237-.935-.504-3.151-1.29-3.783-1.725 1.134-4.937 1.998-6.938 1.354s-3.814-2.302-4.393-4.177l.245 1.327c.603 2.407 1.922 3.673 4.138 5.069zm-.066-15.22l-.145-.009c.059.012.11.041.166.063-.006-.019-.016-.036-.021-.054z"/><path d="M172.923 271.94c.564.486 1.058 1.037 1.534 1.597.758.893.868 1.263 1.329 2.315.122-1.017-.206-1.749-.448-2.943-.294-1.445-.346-2.951-.951-4.312-.042-.092-.088-.187-.167-.256-.125-.107-.306-.132-.476-.153l-3.019-.473c-1.398-.243-2.892-.531-3.881-1.473-.297-.283-.574-.622-.956-.77a6.7 6.7 0 0 0 1.591 2.624c1.534 1.568 3.771 2.402 5.444 3.844zm2.502-8.919c.885.755 1.671 1.714 1.756 2.821l.101.161c.75-1.834 1.304-4.006.667-5.875-1.135.405-2.919.533-4.068.162s-2.147-1.127-2.759-2.096c.445.913.924 1.827 1.625 2.592.777.849 1.794 1.48 2.678 2.235zm5.031-6.204c.405-.613.767-1.254 1.082-1.918.433-.917.76-2.021.196-2.876-.655.683-1.824.805-2.742.46s-1.607-1.073-2.098-1.865c.243 1.183 1.175 2.127 2.008 3.056.816.909 1.601 1.973 1.554 3.143zm.002.077c.001-.026-.003-.051-.002-.076l-.081.131.083-.055zm3.572-6.517l-.008.178a16.06 16.06 0 0 0 1.914-6.524 4.3 4.3 0 0 1-1.016 1.127c-.301.234-.651.437-1.042.482s-.829-.104-1.011-.426c.042 1.772 1.443 3.41 1.163 5.163zm6.077-6.827c.526-.634.895-1.399.927-2.196.003-.084-.033-.198-.122-.186-.053.006-.083.056-.107.1-.506.935-1.582 1.469-2.594 1.945l-.037 1.783.018.163c.71-.459 1.388-.974 1.915-1.609zm.878 4.351c-1.046.229-2.175.237-3.175-.131-.405.616-.632 1.332-.657 2.07l-.05.283c2.603-.305 4.796-1.87 6.847-3.376-.94.483-1.917.924-2.965 1.154zm-10.144 13.635l.172.329 3.412-1.522c1.016-.464 2.035-.94 2.926-1.585s1.656-1.476 2.012-2.466c.236-.659.285-1.361.458-2.036-.531 1.291-1.655 2.286-2.745 3.235-.363.316-.731.635-1.164.864-.997.527-2.208.517-3.355.589-.164.01-.344.029-.458.139-.05.049-.082.111-.113.173l-1.145 2.28zm5.26 4.765c-.1-.031-.202.033-.286.092-2.078 1.475-4.617 2.285-6.848 3.558-.518.296-1.036.634-1.339 1.121s-.33 1.16.09 1.567l.477.193c.467-.046.42-.151.854-.316 1.527-.579 3.038-1.239 4.334-2.18s2.375-2.194 2.818-3.657c.041-.138.048-.332-.1-.378zm-6.934 16.168c.861-.502 1.797-.883 2.707-1.305 1.014-.47 2.097-1.113 2.329-2.136-.961 1.071-2.263 1.94-3.751 2.173s-3.157-.268-3.991-1.426a16.55 16.55 0 0 1 .415 4.669l.144-.015c.494-.82 1.287-1.458 2.147-1.96zm-3.57 12.655c-.135-.113-.327-.143-.508-.172-3.475-.55-6.703-2.326-8.874-4.881l.061.072c.604 1.272 1.791 2.217 2.935 3.123 2.722 2.155 5.426 4.366 7.606 6.99 1.33 1.601 2.459 3.347 3.945 4.827.173.172.375.352.629.371a65.64 65.64 0 0 0-2.398-4.165c-1.159-1.857-2.29-3.874-3.189-5.85-.052-.113-.107-.231-.207-.315zm6.556-3.727c-1.583.375-3.418-.209-4.305-1.473-.191 2.221 1.405 4.358 1.073 6.565l-.154.179c1.863-.637 3.516-1.784 4.691-3.256s1.871-3.266 1.972-5.091c-.427 1.452-1.692 2.701-3.277 3.076zm20.628.444c-1.954 1.371-4.622 1.383-6.964 2.071-.237.07-.481.152-.659.313-.153.139-.243.325-.33.506l-.902 1.881.476-.112c1.234-.067 2.324-.387 3.445-.631s2.302-.851 3.317-1.355 1.85-1.066 2.149-2.089c.044-.153-.144-.654-.314-.671-.081-.008-.153.041-.218.087zm-10.707 3.406c.206-.597.566-1.64.676-2.258.365-2.066.321-3.841.491-5.928-1.886.719-4.695.663-6.31-.487.211.507.322 1.048.326 1.591.001.239-.017.483.057.712.069.21.21.393.341.576.873 1.227 1.329 2.663 1.678 4.094.225.918.063 2.227.099 3.168.087 2.242-.615 3.829-1.289 5.985s-.738 4.511-.307 6.719l.368-2.089c.368-1.355.553-1.863.676-3.839.132-2.118 1.26-4.198 2.15-6.155.272-.597.832-1.471 1.044-2.089zm3.419-6.274c.97-.986 1.662-2.211 2.006-3.55.381-1.501.719-3.054.819-4.592-.21.984-1.024 1.875-1.727 2.641-.287.311-.632.608-1.066.69s-.786-.354-.872-.753l.144.696c.738 1.567.904 3.171.696 4.868zm6.542-4.315a6.39 6.39 0 0 1-1.41 2.08l.16.198c1.343-.217 2.781-.166 4.124-.383 1.194-.194 2.331-.671 3.338-1.293s1.726-1.779 1.396-2.851c-.581.91-1.686 1.424-2.779 1.747a13.4 13.4 0 0 1-4.829.502zm-1.189-1.813c.076-.157.126-.321.17-.486l-.392.511.222-.025zm1.178-1.803c.556-.727 1.192-.965 1.596-1.774.189-.378.622-1.423.798-1.806.405-.879.578-1.55.929-2.447s.517-1.902.172-2.802c-.175 2.262-1.883 4.365-4.193 5.16-.16.055-.333.112-.428.242-.067.091-.084.205-.094.315-.078.826.122 1.649.246 2.47.099.65.136 1.329-.033 1.959l1.007-1.317zm11.697-5.674c-.91.831-2.174 1.244-3.421 1.526-.445.1-.9.189-1.302.392s-.751.542-.821.958l.036-.063c.494-.138 1.024-.055 1.54-.042 1.504.035 2.943-.549 4.246-1.241.447-.238.901-.505 1.172-.909.131-.198.215-.432.183-.662s-.195-.452-.434-.526c-.452-.138-.862.258-1.199.567zm-3.799-3.165c.654-.907 1.291-1.897 1.308-2.985-.575 1.014-1.582 1.815-2.756 2.19-.068.022-.139.043-.185.093s-.06.12-.072.185l-.524 3.048.099-.005c.807-.766 1.488-1.637 2.13-2.526zm5.858-4.904c.28-.258.561-.745.733-1.073s.214-.736.005-1.046a9.29 9.29 0 0 1-2.026 1.468c-.079.042-.16.085-.22.148s-.093.137-.127.211a17.83 17.83 0 0 0-.826 2.217l.05.068c.802-.739 1.608-1.255 2.411-1.993zm7.214 2.362c.246-.289.414-.702.208-1.016-.618.767-1.666 1.116-2.668 1.364-1.408.349-2.842.58-4.288.69-.429.033-.868.057-1.264.211s-.748.469-.797.862l-.219.051c2.309-.526 4.771-.371 7.037-1.037.753-.221 1.505-.552 1.991-1.125zm-2.699-4.195c.57-.146 1.164-.214 1.725-.389.785-.245 1.843-.511 2.358-1.109.308-.358.519-1.113.307-1.525-.326.782-1.375 1.461-2.209 1.798s-1.763.429-2.673.404c-.083-.002-.172-.005-.245.033-.066.034-.109.096-.148.156-.218.333-.405.686-.56 1.053l-.052.402c.357-.434.928-.677 1.497-.823zm-30.867 53.359c.017-.055.041-.104.059-.157.007-.071.009-.143.018-.213l-.077.37zm19.187-16.313c-4.171 2.414-7.651 4.796-10.481 6.889-2.014 1.488-3.644 3.5-5.446 5.231-1.372 1.32-2.607 2.328-3.201 4.036-.059.628-.003 1.286.401 1.787.542.67 1.581.871 2.464.674s1.632-.723 2.3-1.288c1.484-1.255 2.534-2.539 3.768-4.004 3.115-3.699 5.744-6.987 9.499-10.201 2.375-2.033 14.821-7.848 18.158-11.141-4.437 2.258-11.712 4.69-17.462 8.017zm-43.781 1.46c-1.383-.859-2.782-1.719-4.327-2.297s-2.191-.969-3.931-1.384c0 0-1.719 0-1.801.113s3.724 1.106 5.045 1.869c4.645 2.686 8.896 6.613 12.519 10.402 2.236 2.339 4.237 4.26 6.878 6.21.729.537 1.532 1.039 2.451 1.19.185.03.395.041.543-.064.087-.061.14-.153.179-.247.299-.723-.179-1.506-.662-2.139-4.339-5.671-10.644-9.772-16.894-13.653z"/></g><defs><radialGradient id="A" cx="0" cy="0" r="1" gradientUnits="userSpaceOnUse" gradientTransform="translate(142.814 200) scale(163.894 169.057)"><stop stop-color="#5bcd81"/><stop offset="1" stop-color="#3fa964"/></radialGradient><radialGradient id="B" cx="0" cy="0" r="1" gradientUnits="userSpaceOnUse" gradientTransform="translate(118.386 259.898) rotate(-107.56) scale(63.7333 65.7409)"><stop stop-color="#f9e141"/><stop offset=".201" stop-color="#f6d83f"/><stop offset=".529" stop-color="#edc03b"/><stop offset=".94" stop-color="#de9834"/><stop offset="1" stop-color="#dc9233"/></radialGradient><radialGradient id="C" cx="0" cy="0" r="1" gradientUnits="userSpaceOnUse" gradientTransform="translate(188.433 281.226) rotate(-90) scale(63.7333 65.7409)"><stop stop-color="#f9e141"/><stop offset=".201" stop-color="#f6d83f"/><stop offset=".529" stop-color="#edc03b"/><stop offset=".94" stop-color="#de9834"/><stop offset="1" stop-color="#dc9233"/></radialGradient></defs></svg>