<svg xmlns="http://www.w3.org/2000/svg" width="292" height="407" fill="none"  xmlns:v="https://vecta.io/nano"><path d="M16.264 390c-1.636-.002-3.204-.652-4.361-1.809s-1.807-2.725-1.809-4.361V16.169c.002-1.636.653-3.204 1.81-4.36A6.18 6.18 0 0 1 16.264 10h253.161a6.18 6.18 0 0 1 6.169 6.169V383.83c-.002 1.636-.653 3.204-1.809 4.36s-2.725 1.808-4.36 1.81H16.264z" fill="url(#A)"/><path d="M265.594 20v360h-245.5V20h245.5zm3.831-20H16.264C7.333 0 .094 7.239.094 16.169V383.83c0 8.931 7.239 16.17 16.17 16.17h253.161c8.93 0 16.169-7.239 16.169-16.17V16.169c0-8.93-7.24-16.169-16.169-16.169z" fill="#afbff4"/><path d="M269.425 10a6.18 6.18 0 0 1 6.169 6.169V383.83c-.002 1.636-.653 3.204-1.809 4.36s-2.725 1.808-4.36 1.81H16.264c-1.636-.002-3.204-.652-4.361-1.809s-1.807-2.725-1.809-4.361V16.169c.002-1.636.653-3.204 1.81-4.36A6.18 6.18 0 0 1 16.264 10h253.161zm0-10H16.264C7.333 0 .094 7.239.094 16.169V383.83c0 8.931 7.239 16.17 16.17 16.17h253.161c8.93 0 16.169-7.239 16.169-16.17V16.169c0-8.93-7.24-16.169-16.169-16.169z" fill="#414042"/><path d="M200.793 243.063c-3.827-.004-6.943-3.106-6.943-6.923v-11.391h-33.138c-1.602-.002-3.139-.639-4.272-1.772s-1.77-2.67-1.772-4.272v-31.679a6.05 6.05 0 0 1 1.772-4.272c1.133-1.133 2.67-1.771 4.272-1.773h33.138V169.59a6.94 6.94 0 0 1 6.943-6.923c1.667 0 3.23.592 4.513 1.713l38.157 33.275a6.9 6.9 0 0 1 1.747 2.349c.409.899.62 1.874.62 2.861s-.211 1.963-.62 2.861-1.003 1.7-1.747 2.35l-38.157 33.274c-1.243 1.105-2.85 1.714-4.513 1.713z" fill="url(#B)"/><path d="M200.792 164.335c1.182 0 2.39.403 3.42 1.302l38.154 33.275c.564.492 1.017 1.099 1.327 1.781s.471 1.423.471 2.172-.16 1.49-.471 2.172-.763 1.289-1.327 1.781l-38.159 33.275a5.15 5.15 0 0 1-3.416 1.302c-2.708 0-5.277-2.12-5.277-5.255v-13.059h-34.803c-1.16 0-2.274-.461-3.094-1.282s-1.282-1.934-1.282-3.094v-31.68c0-1.16.461-2.274 1.282-3.094s1.934-1.282 3.094-1.282h34.806v-13.061c0-3.134 2.569-5.253 5.275-5.253zm0-3.335c-4.747 0-8.61 3.855-8.61 8.588v9.726h-31.471a7.72 7.72 0 0 0-7.711 7.711v31.68a7.72 7.72 0 0 0 7.711 7.711h31.471v9.724c0 4.737 3.862 8.59 8.61 8.59 2.065-.007 4.058-.762 5.609-2.124l38.155-33.275a8.58 8.58 0 0 0 2.94-6.466 8.58 8.58 0 0 0-2.94-6.466l-38.155-33.276c-1.552-1.362-3.544-2.116-5.609-2.123z" fill="#4f0c16"/><path d="M107.406 83.106c-.602.608-1.321 1.091-2.113 1.419s-1.64.496-2.497.494l-23.043.005c-1.729-.001-3.387-.687-4.61-1.91s-1.91-2.88-1.912-4.609l-.005-14.102a6.49 6.49 0 0 1 1.915-4.613c.603-.608 1.32-1.09 2.111-1.418a6.47 6.47 0 0 1 2.495-.495h23.043c1.73 0 3.388.686 4.612 1.909a6.53 6.53 0 0 1 1.914 4.61l.005 14.105c0 1.736-.681 3.371-1.916 4.606z" fill="#919191"/><path d="M76.558 61.317a4.13 4.13 0 0 1 1.338-.896c.501-.208 1.037-.315 1.579-.316l23.596-.007c2.268 0 4.126 1.859 4.126 4.131l.006 14.442a4.15 4.15 0 0 1-1.217 2.914c-.773.773-1.821 1.209-2.915 1.212l-23.591.003a4.15 4.15 0 0 1-4.136-4.126V64.234a4.12 4.12 0 0 1 1.215-2.916zm-3.607-3.605c-.861.853-1.543 1.87-2.007 2.989s-.701 2.32-.698 3.532l.005 14.439a9.24 9.24 0 0 0 9.226 9.226l23.592-.002c2.459 0 4.778-.966 6.521-2.715a9.13 9.13 0 0 0 2.007-2.986c.464-1.118.701-2.318.698-3.528l-.005-14.442c-.002-2.446-.975-4.792-2.704-6.522s-4.076-2.702-6.522-2.704l-23.592.005a9.16 9.16 0 0 0-6.521 2.707z" fill="#515151"/><path d="M132.969 154.479a5.85 5.85 0 0 1-1.907 1.279c-.713.296-1.479.448-2.251.447l-75.049.01c-.773.003-1.539-.147-2.253-.443s-1.364-.729-1.91-1.276-.98-1.194-1.275-1.907a5.85 5.85 0 0 1-.444-2.251l-.005-16.886c.005-1.679.686-2.717 1.264-3.293 1.793-1.789 5.053-1.659 7.94.31l6.167 4.215c.148.103.324.158.504.158l55.065-.011c.181.002.358-.052.508-.154l6.163-4.219c1.884-1.285 4.692-2.239 6.944-1.045 1.436.754 2.262 2.219 2.262 4.024v16.881a5.88 5.88 0 0 1-.447 2.252c-.296.715-.729 1.363-1.276 1.909z" fill="#919191"/><path d="M49.678 131.608c1.003-1.001 3.189-.556 4.918.627l6.349 4.348c.58.392 1.274.609 1.974.609l56.729-.012c.707 0 1.392-.216 1.975-.613l6.349-4.345c2.314-1.588 5.467-1.856 5.467.954l.005 17.391a3.48 3.48 0 0 1-1.028 2.471c-.324.325-.708.583-1.132.759a3.47 3.47 0 0 1-1.338.263l-77.317.018c-.926 0-1.814-.368-2.469-1.022s-1.023-1.543-1.023-2.469l-.005-17.4c-.002-.718.204-1.23.546-1.579zm-3.627-3.627c-.942.942-2.051 2.602-2.051 5.208v17.398c.003 2.286.914 4.479 2.532 6.096s3.812 2.524 6.099 2.525l77.319-.013c1.132.002 2.253-.22 3.299-.654s1.997-1.069 2.797-1.871a8.62 8.62 0 0 0 1.871-2.798c.433-1.047.656-2.17.654-3.303l-.005-17.39c0-2.801-1.38-5.198-3.699-6.42-3.329-1.757-7.242-.515-9.792 1.234l-5.93 4.058-55.721.005-5.931-4.051c-4.072-2.788-8.67-2.795-11.442-.024z" fill="#515151"/><path d="M78.188 73.106h26.183v69.064H78.188V73.106z" fill="#a4a4a4"/><path d="M80.618 75.29l21.309-.002.015 64.696-21.314.003-.01-64.696zm-5.196-5.193v5.193l.015 64.698v5.198h5.191l21.314-.002 5.196-.002v-5.199l-.015-64.698v-5.196h-5.196l-21.309.007h-5.196z" fill="#676767"/><path d="M94.627 339.225c-1.003 1.013-2.493 1.485-3.981 1.274-.688-.092-1.346-.342-1.919-.734a4.44 4.44 0 0 1-1.386-1.516l-16.866-31.185-.029-160.6 41.752-.007.029 160.602-16.861 31.187c-.195.361-.444.692-.738.979z" fill="#898989"/><path d="M72.61 147.454l37.429-.007.03 160.284-16.862 31.18c-.079.153-.181.292-.303.414-.917.919-2.747.779-3.396-.411l-16.866-31.176-.032-160.284zm-5.07-5.068v5.073l.029 160.279.005 1.285.61 1.131 16.866 31.173c1.057 1.949 2.963 3.258 5.225 3.589a7.29 7.29 0 0 0 3.344-.27c1.078-.348 2.061-.942 2.87-1.736.465-.47.866-1.001 1.18-1.586l16.855-31.181.609-1.131v-1.283l-.024-160.282v-5.068h-5.073l-37.429.007h-5.068z" fill="#676767"/><g fill="#e4e4e4"><path d="M80.75 83.98h15.868v55.62H80.75V83.98z"/><path d="M106.908 82.605c-.539.542-1.18.971-1.885 1.264s-1.463.443-2.227.442l-23.043.005c-1.541-.002-3.018-.615-4.107-1.705s-1.702-2.567-1.703-4.108l-.005-14.1c0-1.552.605-3.007 1.704-4.107.537-.543 1.177-.973 1.882-1.265a5.75 5.75 0 0 1 2.225-.439l23.043-.005a5.8 5.8 0 0 1 4.114 1.696 5.79 5.79 0 0 1 1.261 1.886 5.8 5.8 0 0 1 .441 2.226l.005 14.105a5.77 5.77 0 0 1-1.704 4.104z"/></g><path d="M76.899 61.55c.373-.375.817-.673 1.306-.876a4.02 4.02 0 0 1 1.542-.309l23.048-.005a4.05 4.05 0 0 1 4.031 4.035l.005 14.105a4.05 4.05 0 0 1-1.186 2.847c-.756.755-1.779 1.181-2.847 1.184l-23.043.002a4.05 4.05 0 0 1-4.04-4.033V64.398c0-1.111.457-2.117 1.185-2.847zm-2.516-2.513c-.707.702-1.268 1.538-1.65 2.46s-.576 1.909-.573 2.906v14.102c0 2.024.792 3.927 2.228 5.363a7.54 7.54 0 0 0 5.366 2.225l23.043-.005a7.53 7.53 0 0 0 5.365-2.225 7.54 7.54 0 0 0 1.649-2.459c.381-.921.577-1.908.575-2.904V64.395c.002-.997-.194-1.985-.575-2.906s-.942-1.758-1.649-2.462-1.541-1.265-2.463-1.646a7.57 7.57 0 0 0-2.907-.574l-23.043.002c-.997-.001-1.985.195-2.905.577a7.55 7.55 0 0 0-2.46 1.651z" fill="#515151"/><path d="M132.47 153.974c-.478.482-1.048.864-1.675 1.124s-1.299.393-1.979.392l-75.051.013c-1.38 0-2.68-.539-3.654-1.514a5.15 5.15 0 0 1-1.122-1.675c-.26-.627-.392-1.299-.391-1.977l-.005-16.887c0-1.43.575-2.308 1.057-2.79 1.8-1.8 4.908-1.055 7.03.394l6.167 4.216c.269.185.587.283.912.283l55.064-.012a1.58 1.58 0 0 0 .908-.28l6.161-4.218c1.634-1.111 4.238-2.045 6.21-1.003.701.369 1.878 1.304 1.878 3.396v16.881a5.13 5.13 0 0 1-1.512 3.657z" fill="#e4e4e4"/><path d="M50.904 131.914c.971-.973 3.093-.538 4.768.61l6.167 4.215c.563.386 1.23.595 1.911.595l55.069-.014a3.37 3.37 0 0 0 1.911-.594l6.167-4.214c2.247-1.542 5.302-1.802 5.302.925l.005 16.878c0 .939-.379 1.79-.993 2.4a3.37 3.37 0 0 1-2.398.994l-75.051.016a3.39 3.39 0 0 1-2.397-.993c-.636-.636-.993-1.499-.994-2.398l-.005-16.885c0-.699.202-1.195.539-1.535zm-2.516-2.515c-.721.72-1.576 2.009-1.576 4.05l.005 16.885c.001 1.843.734 3.609 2.037 4.912a6.95 6.95 0 0 0 4.912 2.033l75.048-.013a6.9 6.9 0 0 0 4.913-2.033 6.91 6.91 0 0 0 2.037-4.918l-.006-16.878c0-2.214-1.032-4.023-2.827-4.975-2.676-1.406-5.907-.349-8.043 1.114l-6.119 4.185-54.963.01-6.123-4.183c-3.322-2.272-7.138-2.346-9.295-.189z" fill="#515151"/><path d="M102.911 127.143v-2.516s-4.606-1.436-11.629-1.434-11.555 1.439-11.555 1.439l.005 2.516s6.393-1.442 11.55-1.442c5.149 0 11.629 1.437 11.629 1.437zm0-14.985v-2.519s-4.611-1.435-11.631-1.433c-7.025 0-11.55 1.438-11.55 1.438l-.005 2.516s6.403-1.441 11.555-1.441 11.631 1.439 11.631 1.439zm-.005-13.615v-2.516s-4.606-1.434-11.629-1.434-11.555 1.441-11.555 1.441v2.513s6.403-1.436 11.555-1.439 11.629 1.435 11.629 1.435z" fill="#676767"/><path d="M89.54 338.331l-16.574-30.629-.025-137.881 36.775-.006.024 137.877-16.564 30.639c-.716 1.326-2.921 1.32-3.637 0z" fill="#bbb"/><path d="M91.354 339.322c-.73 0-1.456-.332-1.815-.991l-16.574-30.629-.025-137.882 18.391-.002.022 169.504z" fill="#e4e4e4"/><path d="M71.18 168.562l39.983-.104" stroke="#676767" stroke-width="3" stroke-miterlimit="10"/><path d="M126.662 133.941a2.36 2.36 0 0 0-.236-1.104l-5.694 3.892c-.563.387-1.23.594-1.911.594l-3.775.004a3.4 3.4 0 0 1-1.763.502l-55.069.01c-.682-.001-1.348-.207-1.911-.593l-5.911-4.042c-.005.081-.025.159-.025.248l.005 16.886a3.39 3.39 0 0 0 .996 2.398 3.41 3.41 0 0 0 1.102.736c.412.17.853.258 1.299.257l71.266-.017c.975-.596 1.634-1.66 1.634-2.888l-.006-16.883zM77.842 60.87a4.03 4.03 0 0 0-2.127 3.533l.005 14.103a4.04 4.04 0 0 0 4.035 4.028h19.414c1.264-.683 2.127-2.002 2.127-3.529l-.004-14.105c0-2.218-1.815-4.035-4.036-4.033l-19.414.003z" fill="#e4e4e4"/><path d="M79.122 62.933l11.916-.002c1.072 0 1.955.878 1.955 1.955-.002.518-.209 1.014-.575 1.38s-.862.573-1.38.575l-11.916.002a1.96 1.96 0 0 1-1.955-1.957 1.96 1.96 0 0 1 1.955-1.952zm-15.433 80.675l30.354-.005c.519-.001 1.016-.208 1.383-.576a1.96 1.96 0 0 0-.003-2.763 1.96 1.96 0 0 0-1.38-.573l-30.354.002c-1.077 0-1.955.883-1.955 1.958s.88 1.957 1.955 1.957z" fill="#f7f7f7"/><defs><radialGradient id="A" cx="0" cy="0" r="1" gradientUnits="userSpaceOnUse" gradientTransform="translate(142.844 200) scale(163.894)"><stop stop-color="#6a97ee"/><stop offset="1" stop-color="#396ed4"/></radialGradient><linearGradient id="B" x1="214.869" y1="169.744" x2="177.107" y2="235.148" gradientUnits="userSpaceOnUse"><stop stop-color="#ec6f66"/><stop offset=".008" stop-color="#ec6d65"/><stop offset=".17" stop-color="#ec504d"/><stop offset=".341" stop-color="#ec393b"/><stop offset=".525" stop-color="#ec292e"/><stop offset=".731" stop-color="#ec1f26"/><stop offset="1" stop-color="#ec1c24"/></linearGradient></defs></svg>