<svg xmlns="http://www.w3.org/2000/svg" width="292" height="407" fill="none"  xmlns:v="https://vecta.io/nano"><path d="M16.233 390c-1.636-.002-3.204-.652-4.361-1.809a6.18 6.18 0 0 1-1.809-4.361V16.169c.002-1.636.653-3.204 1.81-4.36s2.725-1.807 4.36-1.809h253.162c1.635.002 3.203.653 4.359 1.809a6.18 6.18 0 0 1 1.81 4.36V383.83c-.002 1.636-.653 3.204-1.809 4.36s-2.725 1.808-4.36 1.81H16.233z" fill="url(#A)"/><path d="M265.562 20v360H20.063V20h245.5zm3.832-20H16.232C7.302 0 .063 7.239.063 16.169V383.83c0 8.931 7.239 16.17 16.17 16.17h253.162c8.929 0 16.168-7.239 16.168-16.17V16.169c0-8.93-7.24-16.169-16.168-16.169z" fill="#a1ecba"/><path d="M269.394 10c1.635.002 3.203.653 4.359 1.809s1.807 2.724 1.809 4.36V383.83a6.17 6.17 0 0 1-1.808 4.36c-1.157 1.157-2.725 1.808-4.36 1.81H16.232c-1.636-.002-3.204-.652-4.361-1.809s-1.807-2.725-1.809-4.361V16.169c.002-1.636.653-3.204 1.81-4.36A6.18 6.18 0 0 1 16.232 10h253.163zm0-10H16.232C7.302 0 .063 7.239.063 16.169V383.83c0 8.931 7.239 16.17 16.17 16.17h253.162c8.929 0 16.168-7.239 16.168-16.17V16.169c0-8.93-7.24-16.169-16.168-16.169z" fill="#414042"/><path opacity=".5" d="M176.895 127.49h-66.714a12.17 12.17 0 0 1-12.169-12.097V48.607a12.17 12.17 0 0 1 3.564-8.533c2.264-2.265 5.33-3.545 8.533-3.564h66.786c3.203.019 6.269 1.299 8.533 3.564s3.546 5.331 3.564 8.533v66.786a12.17 12.17 0 0 1-12.097 12.169v-.072z" fill="#000"/><path d="M173.387 124.555h-66.786a12.17 12.17 0 0 1-12.097-12.169V45.6a12.17 12.17 0 0 1 12.097-12.026h66.786a12.17 12.17 0 0 1 8.555 3.513c2.278 2.251 3.577 5.31 3.614 8.512v66.858a12.17 12.17 0 0 1-12.169 12.097z" fill="#eae9e4"/><path d="M133.801 102.723c3.078-.143 5.011 4.151 2.577 6.299-2.147 2.362-6.585.573-6.37-2.577-.021-.494.062-.987.242-1.448s.453-.879.803-1.229.768-.623 1.229-.803a3.58 3.58 0 0 1 1.448-.242h.071zm12.527 0c3.078-.143 5.011 4.151 2.649 6.299-2.148 2.362-6.586.573-6.371-2.577a3.58 3.58 0 0 1 .242-1.448c.18-.461.453-.879.803-1.229s.768-.623 1.229-.803a3.58 3.58 0 0 1 1.448-.242zm9.879-21.905c0 2.792-.501 5.226-1.432 7.23-.859 2.076-2.076 3.794-3.651 5.082a15.53 15.53 0 0 1-5.726 3.078 25.34 25.34 0 0 1-21.546-3.507l1.216-12.67a22.84 22.84 0 0 0 5.727 2.863 23.59 23.59 0 0 0 6.299 1.288c.573 0 1.217 0 1.861-.143.573 0 1.146-.215 1.647-.501s.93-.573 1.217-1.074c.358-.429.501-1.002.501-1.789 0-.43-.215-.859-.645-1.288-.357-.358-.859-.716-1.431-1.002a9.45 9.45 0 0 0-3.436-.931c-1.21.007-2.414.175-3.579.501-.358.072-.644.215-.859.43l.215-9.019a19.63 19.63 0 0 0 2.004.143l2.434-.215c.93-.143 1.646-.358 2.362-.716a6.15 6.15 0 0 0 1.861-1.432c.501-.644.716-1.432.716-2.362 0-.716-.215-1.289-.573-1.718s-.859-.716-1.431-.931a7.19 7.19 0 0 0-1.79-.501c-1.977-.281-3.992-.133-5.907.435a13.89 13.89 0 0 0-5.188 2.857l-2.649-11.453c1.933-1.575 4.08-2.863 6.586-3.579s4.939-1.288 7.444-1.288c2.291 0 4.438.286 6.514 1.002 2.148.644 3.937 1.646 5.512 2.863 2.007 1.569 3.539 3.665 4.423 6.054a13.74 13.74 0 0 1 .588 7.475c-.651 2.213-1.947 4.182-3.722 5.655.859.358 1.574.931 2.147 1.575.573.716 1.074 1.432 1.432 2.219s.501 1.718.644 2.577l.215 2.72v.072z" fill="#414042"/><path opacity=".5" d="M178.895 363.49h-66.714a12.17 12.17 0 0 1-12.169-12.097v-66.786c.019-3.203 1.299-6.269 3.564-8.533s5.33-3.545 8.533-3.564h66.786c3.203.019 6.269 1.299 8.533 3.564a12.16 12.16 0 0 1 3.564 8.533v66.786a12.17 12.17 0 0 1-12.097 12.169v-.072z" fill="#000"/><path d="M175.387 360.555h-66.786c-3.215-.019-6.292-1.309-8.558-3.589a12.17 12.17 0 0 1-3.539-8.58V281.6a12.17 12.17 0 0 1 3.589-8.487c2.262-2.249 5.318-3.52 8.508-3.538h66.786c3.203-.001 6.277 1.262 8.555 3.513s3.577 5.31 3.614 8.512v66.858a12.17 12.17 0 0 1-12.169 12.097z" fill="#eae9e4"/><path d="M123.132 338.723c3.15-.143 5.011 4.151 2.649 6.299-2.148 2.362-6.586.573-6.371-2.577a3.58 3.58 0 0 1 .242-1.448c.18-.461.453-.879.803-1.229s.768-.623 1.229-.803a3.58 3.58 0 0 1 1.448-.242zm12.67 0c3.078-.143 5.011 4.151 2.577 6.299-2.147 2.362-6.585.573-6.371-2.577a3.6 3.6 0 0 1 .242-1.448 3.58 3.58 0 0 1 .804-1.229c.349-.35.768-.623 1.229-.803a3.58 3.58 0 0 1 1.448-.242h.071zm12.527 0c3.078-.143 5.011 4.151 2.649 6.299-2.148 2.362-6.586.573-6.371-2.577a3.58 3.58 0 0 1 .242-1.448c.18-.461.453-.879.803-1.229s.768-.623 1.229-.803a3.58 3.58 0 0 1 1.448-.242zm12.598 0c3.078-.143 5.011 4.151 2.649 6.299-2.147 2.362-6.586.573-6.371-2.577a3.58 3.58 0 0 1 .242-1.448 3.59 3.59 0 0 1 .803-1.229c.35-.35.769-.623 1.229-.803a3.58 3.58 0 0 1 1.448-.242zm-2.577-21.904c0 2.72-.501 5.011-1.432 7.086s-2.291 3.651-4.009 5.011c-1.747 1.35-3.741 2.347-5.869 2.936a26.21 26.21 0 0 1-14.46 0c-2.375-.595-4.698-1.385-6.943-2.362l1.217-12.528c3.254 1.78 6.885 2.763 10.594 2.864l1.861-.072c.716-.143 1.503-.287 2.147-.573.716-.286 1.36-.644 1.79-1.074.501-.429.716-1.002.716-1.789.036-.636-.14-1.265-.501-1.789a4.52 4.52 0 0 0-1.504-1.218c-2.696-1.018-5.565-1.504-8.446-1.431-1.924.05-3.84.266-5.727.644l1.289-25.412 25.483-.716.716 13.172-15.892-.931-.357 5.655a24.67 24.67 0 0 1 5.726-.716c1.861 0 3.579.286 5.297.931a12.79 12.79 0 0 1 4.261 2.683 12.81 12.81 0 0 1 2.897 4.117 13.6 13.6 0 0 1 1.074 5.512h.072z" fill="#414042"/><path d="M131.157 197.269c-.004 4.455-3.617 8.082-8.06 8.082h-13.263v38.576a7.04 7.04 0 0 1-2.063 4.972c-1.319 1.319-3.108 2.061-4.974 2.063H65.914c-1.866-.002-3.654-.744-4.974-2.063a7.04 7.04 0 0 1-2.063-4.972v-38.576H45.615a8.08 8.08 0 0 1-5.702-2.374c-1.511-1.515-2.359-3.568-2.358-5.708 0-1.941.689-3.759 1.994-5.254l38.741-44.417c.756-.865 1.689-1.559 2.735-2.034a8.06 8.06 0 0 1 6.663 0c1.046.475 1.979 1.169 2.735 2.034l38.741 44.417c1.286 1.448 1.995 3.318 1.994 5.254z" fill="#f2fff2"/><path d="M38.882 197.366c0-1.376.47-2.781 1.516-3.981l38.741-44.413c.573-.658 1.28-1.185 2.074-1.546a6.11 6.11 0 0 1 5.057 0c.794.361 1.501.888 2.074 1.546l38.741 44.419c.975 1.096 1.514 2.511 1.516 3.977 0 3.152-2.469 6.143-6.119 6.143H107.28v40.512c0 1.352-.537 2.647-1.493 3.603a5.1 5.1 0 0 1-3.603 1.492H65.301a5.1 5.1 0 0 1-3.603-1.492c-.956-.956-1.492-2.251-1.492-3.603v-40.516H44.999c-3.65 0-6.117-2.991-6.117-6.141zm-3.882 0c0 5.526 4.488 10.023 9.999 10.023h11.323v36.634c.003 2.38.949 4.662 2.633 6.345A8.99 8.99 0 0 0 65.301 253h36.883a8.99 8.99 0 0 0 6.345-2.632c1.684-1.683 2.63-3.965 2.633-6.345v-36.634h11.321c5.515 0 10.001-4.495 10.001-10.023a9.94 9.94 0 0 0-2.473-6.529L91.27 146.421a10.01 10.01 0 0 0-3.393-2.526c-1.299-.59-2.708-.895-4.135-.895s-2.836.305-4.135.895a10.01 10.01 0 0 0-3.393 2.526l-38.743 44.416c-1.585 1.807-2.463 4.126-2.471 6.529z" fill="#283b28"/><path d="M243.856 198.731c-.004-4.455-3.617-8.082-8.06-8.082h-13.263v-38.576a7.04 7.04 0 0 0-2.063-4.972c-1.319-1.319-3.108-2.061-4.974-2.063h-36.883c-1.865.002-3.654.744-4.973 2.063a7.04 7.04 0 0 0-2.064 4.972v38.576h-13.262a8.08 8.08 0 0 0-8.06 8.082c0 1.941.689 3.759 1.994 5.254l38.741 44.417a8.05 8.05 0 0 0 2.735 2.034c1.046.475 2.182.721 3.331.721s2.285-.246 3.331-.721a8.05 8.05 0 0 0 2.735-2.034l38.741-44.417a7.9 7.9 0 0 0 1.994-5.254z" fill="#f2fff2"/><path d="M151.578 198.634c0 1.376.469 2.781 1.516 3.981l38.741 44.413c.573.658 1.28 1.185 2.074 1.546a6.11 6.11 0 0 0 5.057 0c.794-.361 1.501-.888 2.074-1.546l38.741-44.419c.975-1.096 1.514-2.511 1.516-3.977 0-3.152-2.469-6.143-6.119-6.143h-15.203v-40.512c0-1.352-.537-2.647-1.493-3.603s-2.251-1.492-3.603-1.492h-36.883c-1.352 0-2.648.537-3.603 1.492s-1.493 2.251-1.493 3.603v40.516h-15.205c-3.65 0-6.117 2.991-6.117 6.141zm-3.883 0c0-5.526 4.488-10.023 10-10.023h11.323v-36.634c.002-2.38.949-4.662 2.632-6.345a8.99 8.99 0 0 1 6.346-2.632h36.883a8.99 8.99 0 0 1 6.346 2.632c1.683 1.683 2.63 3.965 2.632 6.345v36.634h11.321c5.515 0 10.002 4.495 10.002 10.023-.008 2.404-.887 4.723-2.473 6.529l-38.741 44.416a10.01 10.01 0 0 1-3.394 2.526c-1.298.59-2.708.895-4.135.895a9.99 9.99 0 0 1-4.134-.895 10.01 10.01 0 0 1-3.394-2.526l-38.743-44.416c-1.585-1.807-2.462-4.126-2.471-6.529z" fill="#283b28"/><defs><radialGradient id="A" cx="0" cy="0" r="1" gradientUnits="userSpaceOnUse" gradientTransform="translate(142.814 200) scale(163.894 169.057)"><stop stop-color="#5bcd81"/><stop offset="1" stop-color="#3fa964"/></radialGradient></defs></svg>