<svg xmlns="http://www.w3.org/2000/svg" width="292" height="407" fill="none"  xmlns:v="https://vecta.io/nano"><path d="M16.233 390a6.18 6.18 0 0 1-6.17-6.17V16.169c.002-1.636.653-3.204 1.81-4.36s2.725-1.807 4.36-1.809h253.162c1.635.002 3.203.653 4.359 1.809a6.18 6.18 0 0 1 1.81 4.36V383.83c-.002 1.636-.653 3.204-1.809 4.36s-2.725 1.808-4.36 1.81H16.233z" fill="url(#A)"/><path d="M145.157 254.269c-.004 4.455-3.617 8.082-8.06 8.082h-13.263v38.576a7.04 7.04 0 0 1-2.063 4.972c-1.319 1.319-3.108 2.061-4.974 2.063H79.914c-1.866-.002-3.654-.744-4.974-2.063a7.04 7.04 0 0 1-2.063-4.972v-38.576H59.615a8.08 8.08 0 0 1-5.702-2.374c-1.511-1.515-2.359-3.568-2.358-5.708 0-1.941.689-3.759 1.994-5.254l38.741-44.417c.756-.865 1.689-1.559 2.735-2.034a8.06 8.06 0 0 1 6.663 0 8.06 8.06 0 0 1 2.735 2.034l38.741 44.417c1.286 1.448 1.995 3.318 1.994 5.254z" fill="#f2fff2"/><path d="M52.882 254.366c0-1.376.47-2.781 1.516-3.981l38.741-44.413c.573-.658 1.28-1.185 2.074-1.546a6.11 6.11 0 0 1 2.528-.548c.872 0 1.734.187 2.528.548a6.1 6.1 0 0 1 2.075 1.546l38.741 44.419c.975 1.096 1.514 2.511 1.516 3.977 0 3.152-2.469 6.143-6.119 6.143H121.28v40.512c0 1.352-.537 2.647-1.493 3.603a5.1 5.1 0 0 1-3.603 1.492H79.301a5.1 5.1 0 0 1-3.603-1.492c-.956-.956-1.492-2.251-1.492-3.603v-40.516H58.999c-3.65 0-6.117-2.991-6.117-6.141zm-3.882 0c0 5.526 4.488 10.023 9.999 10.023h11.323v36.634c.003 2.38.949 4.662 2.632 6.345A8.99 8.99 0 0 0 79.301 310h36.883a8.99 8.99 0 0 0 6.345-2.632c1.684-1.683 2.63-3.965 2.633-6.345v-36.634h11.321c5.515 0 10.001-4.495 10.001-10.023a9.94 9.94 0 0 0-2.473-6.529l-38.741-44.416c-.938-1.074-2.095-1.935-3.393-2.526S99.169 200 97.742 200s-2.836.305-4.135.895a10.01 10.01 0 0 0-3.393 2.526l-38.743 44.416c-1.585 1.807-2.463 4.126-2.471 6.529z" fill="#283b28"/><path d="M265.562 20v360H20.063V20h245.5zm3.832-20H16.232C7.302 0 .063 7.239.063 16.169V383.83c0 8.931 7.239 16.17 16.17 16.17h253.162c8.93 0 16.168-7.239 16.168-16.17V16.169c0-8.93-7.239-16.169-16.168-16.169z" fill="#a1ecba"/><path d="M269.394 10c1.635.002 3.203.653 4.359 1.809s1.807 2.724 1.809 4.36V383.83a6.17 6.17 0 0 1-1.808 4.36c-1.157 1.157-2.725 1.808-4.36 1.81H16.232a6.18 6.18 0 0 1-4.361-1.809c-1.157-1.157-1.807-2.725-1.809-4.361V16.169c.002-1.636.653-3.204 1.81-4.36A6.18 6.18 0 0 1 16.232 10h253.163zm0-10H16.232C7.302 0 .063 7.239.063 16.169V383.83c0 8.931 7.239 16.17 16.17 16.17h253.162c8.93 0 16.168-7.239 16.168-16.17V16.169c0-8.93-7.239-16.169-16.168-16.169z" fill="#414042"/><path opacity=".3" d="M152.063 147.207h-.042a.45.45 0 0 1-.408-.448v-11.734a.45.45 0 0 1 .128-.315h.001l31.807-32.46c7.534-7.537 11.476-14.191 11.476-19.768 0-4.154-1.292-7.574-3.674-9.956s-5.8-3.675-9.954-3.675c-3.744 0-6.991.906-9.755 2.761s-5.006 4.633-6.79 8.327h0a.44.44 0 0 1-.113.146.45.45 0 0 1-.345.105.45.45 0 0 1-.175-.059h0l-12.647-7.431a.45.45 0 0 1-.202-.256c-.034-.108-.025-.224.023-.325l-.452-.213.452.214c5.648-11.934 16.524-18.772 29.875-18.772 8.268 0 15.289 2.588 20.899 7.679l.004.004c5.795 5.134 8.752 12.16 8.752 20.93 0 9.235-5.209 19.34-15.644 30.036l-18.98 18.984-.854.853h1.207 35.514c.12 0 .234.048.319.132a.45.45 0 0 1 .132.318v14.473a.45.45 0 0 1-.451.45h-60.103z" fill="#000" stroke="#413c25"/><path d="M179.368 51.9c8.081 0 14.992 2.476 20.596 7.561 5.739 5.085 8.609 11.996 8.609 20.601 0 9.257-5.217 19.165-15.518 29.723l-20.597 20.6h37.808v14.473h-60.102v-11.734l31.811-32.464c7.691-7.692 11.601-14.471 11.601-20.079 0-8.864-5.735-14.08-14.078-14.08-7.694 0-13.301 3.782-16.951 11.342L149.9 70.413C155.638 58.29 166.719 51.9 179.368 51.9zm0-1.9c-13.923 0-25.29 7.144-31.185 19.601a1.9 1.9 0 0 0 .755 2.451l12.648 7.431c.226.133.478.218.739.248a1.9 1.9 0 0 0 1.459-.444c.199-.171.361-.381.475-.618 3.337-6.91 8.322-10.269 15.24-10.269 7.512 0 12.178 4.668 12.178 12.18 0 5.03-3.82 11.509-11.045 18.736l-31.825 32.478c-.348.355-.543.832-.542 1.329v11.734a1.9 1.9 0 0 0 1.9 1.9h60.102c.503 0 .987-.2 1.343-.557a1.9 1.9 0 0 0 .557-1.343v-14.473a1.9 1.9 0 0 0-.557-1.343c-.356-.357-.84-.557-1.343-.557h-33.221l17.353-17.356c10.672-10.939 16.075-21.385 16.075-31.067 0-9.176-3.112-16.587-9.248-22.024C195.351 52.71 187.992 50 179.368 50z" fill="#344e33"/><path d="M150.161 145.307h-.041a.45.45 0 0 1-.409-.448v-11.734a.45.45 0 0 1 .129-.315l31.807-32.46c7.535-7.536 11.477-14.191 11.477-19.767 0-4.154-1.292-7.574-3.674-9.956s-5.801-3.675-9.955-3.675c-3.744 0-6.99.906-9.754 2.761s-5.007 4.633-6.79 8.327h0c-.027.056-.066.106-.113.146s-.102.071-.162.089-.122.023-.183.016a.45.45 0 0 1-.175-.059h0l-12.648-7.431a.45.45 0 0 1-.179-.581l-.452-.213.452.214c5.649-11.934 16.525-18.772 29.875-18.772 8.269 0 15.29 2.588 20.899 7.679l.005.004c5.795 5.134 8.751 12.16 8.751 20.93 0 9.235-5.208 19.339-15.643 30.035l-18.981 18.984-.853.853h1.207 35.514a.45.45 0 0 1 .318.132c.085.084.132.199.132.318v14.473c0 .119-.047.234-.132.318s-.199.132-.318.132h-60.104z" fill="#f2fff2" stroke="#283b28"/><g opacity=".3" fill="#000"><path opacity=".3" d="M121.782 128.385c-.312 0-.605-.149-.789-.402l-12.733-17.56-12.84 17.563c-.09.124-.209.225-.346.294s-.288.106-.441.105H80.896c-.18 0-.356-.049-.51-.143s-.278-.229-.359-.39-.117-.34-.102-.52.079-.351.185-.496l20.077-27.445-18.986-25.918c-.106-.145-.171-.317-.185-.496s.021-.359.102-.52.206-.295.359-.389.33-.144.51-.144h13.629a.98.98 0 0 1 .788.4l11.75 16.144 11.751-16.144c.183-.251.476-.4.788-.4h13.738a.97.97 0 0 1 .509.144.98.98 0 0 1 .359.389.97.97 0 0 1-.081 1.015L116.231 99.5l19.969 27.338a.97.97 0 0 1 .184.496c.015.179-.021.359-.102.52s-.206.295-.36.389a.96.96 0 0 1-.509.143h-13.631z"/><path opacity=".3" d="M135.167 73.742l-19.406 26.601 20.388 27.912H122.52l-13.519-18.645-13.628 18.645H81.635l20.498-28.02-19.408-26.493h13.629l12.538 17.226 12.537-17.226h13.738zm0-1.948h-13.738a1.95 1.95 0 0 0-.884.212c-.273.139-.51.341-.691.59l-10.961 15.062L97.93 72.596a1.95 1.95 0 0 0-1.575-.802h-13.63a1.95 1.95 0 0 0-1.737 1.067 1.95 1.95 0 0 0 .166 2.032l18.566 25.344-19.657 26.869c-.212.29-.34.634-.369.992a1.95 1.95 0 0 0 .205 1.039c.163.321.411.59.718.779a1.95 1.95 0 0 0 1.019.288h13.738c.306 0 .608-.072.882-.211s.51-.339.691-.587l12.049-16.484 11.949 16.478c.181.249.418.451.692.591s.577.213.885.213h13.629a1.94 1.94 0 0 0 1.019-.288c.307-.188.555-.457.718-.778s.234-.68.205-1.039a1.95 1.95 0 0 0-.369-.992l-19.548-26.765 18.567-25.452a1.95 1.95 0 0 0 .369-.993c.028-.359-.043-.718-.206-1.039s-.411-.59-.718-.778-.659-.287-1.019-.287z"/></g><path d="M119.832 126.436c-.311 0-.605-.149-.789-.403l-12.733-17.56-12.839 17.563a.97.97 0 0 1-.787.4H78.947c-.18 0-.356-.05-.51-.144a.97.97 0 0 1-.461-.91c.015-.179.079-.351.185-.496l20.076-27.445-18.985-25.918c-.106-.145-.17-.317-.185-.496s.021-.359.102-.52.206-.295.359-.39.33-.144.51-.144h13.629a.98.98 0 0 1 .788.4l11.75 16.144 11.75-16.144c.183-.251.477-.4.788-.4h13.739c.179 0 .356.05.509.144a.97.97 0 0 1 .358.389c.082.16.117.34.103.519a.98.98 0 0 1-.183.496l-18.987 26.027 19.968 27.338a.97.97 0 0 1 .185.496c.014.18-.021.36-.103.52a.97.97 0 0 1-.359.389c-.153.094-.33.144-.51.144h-13.631z" fill="#f2fff2"/><path d="M132.48 70.948L113.073 97.55l20.389 27.912h-13.63l-13.519-18.645-13.628 18.645H78.947l20.498-28.02-19.408-26.494h13.629l12.538 17.226 12.537-17.226h13.739zm0-1.948h-13.739c-.307 0-.609.073-.883.212a1.95 1.95 0 0 0-.692.59l-10.961 15.062-10.963-15.062A1.95 1.95 0 0 0 93.667 69h-13.63a1.95 1.95 0 0 0-1.737 1.067 1.95 1.95 0 0 0 .166 2.032l18.566 25.344-19.657 26.868a1.95 1.95 0 0 0-.164 2.032 1.95 1.95 0 0 0 .718.778 1.96 1.96 0 0 0 1.019.289h13.738c.306 0 .608-.073.882-.211s.51-.34.691-.587l12.05-16.484 11.948 16.477c.181.249.418.452.692.592s.578.213.885.213h13.63c.359 0 .712-.1 1.019-.288s.555-.458.718-.778a1.96 1.96 0 0 0 .205-1.039c-.029-.359-.157-.702-.369-.993l-19.549-26.764 18.568-25.452a1.95 1.95 0 0 0 .368-.993c.029-.359-.042-.718-.205-1.039s-.412-.59-.718-.778A1.95 1.95 0 0 0 132.48 69z" fill="#283b28"/><path d="M219.356 191.446c-.375.377-.821.677-1.312.88a4.03 4.03 0 0 1-1.551.307l-14.304.003c-1.073-.002-2.102-.428-2.861-1.187a4.05 4.05 0 0 1-1.187-2.86v-8.753c0-1.08.419-2.096 1.185-2.864a4 4 0 0 1 1.311-.879 4.02 4.02 0 0 1 1.549-.307h14.304c1.074 0 2.103.426 2.863 1.184s1.187 1.788 1.189 2.861v8.755a4 4 0 0 1-1.186 2.86z" fill="#916136"/><path d="M200.209 177.919a2.57 2.57 0 0 1 1.812-.752l14.647-.005c1.407 0 2.563 1.155 2.563 2.564l.003 8.964c0 .705-.288 1.344-.757 1.811-.479.48-1.13.75-1.809.752l-14.644.001c-1.406 0-2.563-1.151-2.566-2.562v-8.962c0-.707.289-1.346.751-1.811zm-2.235-2.236c-.534.53-.958 1.16-1.246 1.855s-.437 1.441-.435 2.193l.003 8.962c.002 1.518.606 2.974 1.679 4.047s2.529 1.678 4.048 1.68l14.644-.002c.752.001 1.498-.147 2.193-.436s1.325-.714 1.855-1.248.957-1.159 1.245-1.854.435-1.438.433-2.19v-8.964c-.002-1.518-.607-2.974-1.681-4.047s-2.53-1.677-4.048-1.679l-14.645.003a5.68 5.68 0 0 0-4.045 1.68z" fill="#42250d"/><path d="M235.222 235.747a3.62 3.62 0 0 1-1.184.793 3.63 3.63 0 0 1-1.398.278l-46.583.006c-.479.002-.955-.091-1.398-.275a3.61 3.61 0 0 1-1.184-.793c-.34-.338-.61-.74-.793-1.183s-.278-.918-.277-1.398l-.003-10.48c.003-1.043.429-1.687.787-2.045 1.112-1.111 3.135-1.03 4.926.194l3.829 2.616a.55.55 0 0 0 .316.097l34.176-.007a.56.56 0 0 0 .315-.096l3.826-2.62c1.169-.797 2.911-1.388 4.311-.649.891.468 1.403 1.379 1.403 2.498v10.48c.001.48-.094.955-.277 1.398s-.453.847-.792 1.186z" fill="#916136"/><path d="M183.524 221.551c.622-.621 1.981-.345 3.054.39l3.938 2.697a2.19 2.19 0 0 0 1.225.379l35.217-.008a2.18 2.18 0 0 0 1.221-.378l3.942-2.697c1.439-.986 3.391-1.154 3.391.59l.003 10.796c0 .599-.241 1.141-.634 1.533a2.17 2.17 0 0 1-.703.47 2.14 2.14 0 0 1-.829.166l-47.995.009c-1.197 0-2.166-.972-2.169-2.169v-10.8c0-.444.125-.763.339-.978zm-2.252-2.252c-.581.583-1.272 1.613-1.272 3.231v10.799a5.36 5.36 0 0 0 1.571 3.784c1.005 1.004 2.366 1.568 3.786 1.568l47.992-.007a5.33 5.33 0 0 0 2.048-.406 5.32 5.32 0 0 0 1.735-1.162 5.34 5.34 0 0 0 1.162-1.737 5.32 5.32 0 0 0 .405-2.049l-.003-10.796c0-1.737-.856-3.225-2.294-3.984-2.066-1.091-4.496-.321-6.081.765l-3.679 2.519-34.588.004-3.682-2.515c-2.527-1.73-5.381-1.734-7.1-.014z" fill="#42250d"/><path d="M201.219 185.24h16.252v42.868h-16.252V185.24z" fill="#9b7753"/><path d="M202.727 186.594l13.229-.001.009 40.157-13.229.001-.009-40.157zm-3.223-3.225v3.225l.009 40.159v3.225h3.223l13.229-.002 3.226-.001v-3.225l-.009-40.159v-3.226h-3.226l-13.229.004h-3.223z" fill="#603913"/><path d="M211.427 350.42c-.625.628-1.549.921-2.472.79-.428-.056-.836-.212-1.193-.455s-.651-.565-.861-.942l-10.469-19.355-.018-99.684 25.914-.005.022 99.686-10.467 19.356c-.125.224-.274.432-.456.609z" fill="#636362"/><path d="M197.755 231.385l23.232-.005.019 99.489-10.466 19.354a.98.98 0 0 1-.191.256c-.566.572-1.701.485-2.104-.255l-10.472-19.35-.018-99.489zm-3.146-3.144v3.147l.019 99.486v.798l.381.7 10.469 19.35c.656 1.211 1.838 2.023 3.245 2.229 1.424.209 2.869-.258 3.854-1.246.289-.292.541-.621.733-.984l10.463-19.355.375-.702v-.796l-.015-99.488v-3.145h-3.147l-23.231.006h-3.146z" fill="#414042"/><path d="M202.812 191.987h9.849v34.525h-9.849v-34.525z" fill="#c49a6c"/><path d="M219.044 191.133a3.6 3.6 0 0 1-1.169.784c-.438.181-.907.274-1.381.273l-14.304.003c-.957 0-1.874-.381-2.55-1.057a3.61 3.61 0 0 1-1.058-2.55v-8.752a3.58 3.58 0 0 1 1.057-2.549c.333-.336.73-.603 1.168-.785s.906-.274 1.38-.272l14.304-.003c.474-.001.943.092 1.381.273a3.6 3.6 0 0 1 1.171.781c.336.335.602.732.783 1.17s.275.907.275 1.381l.003 8.754c.001.474-.092.944-.274 1.381s-.449.835-.786 1.168z" fill="#633b1a"/><path d="M200.419 178.066c.468-.469 1.104-.734 1.767-.735l14.307-.003c1.376 0 2.503 1.127 2.503 2.505l.003 8.754a2.5 2.5 0 0 1-2.505 2.503l-14.304.002c-.664-.002-1.3-.267-1.769-.736a2.51 2.51 0 0 1-.737-1.769v-8.753c0-.689.284-1.313.735-1.768zm-1.56-1.559a4.66 4.66 0 0 0-1.025 1.527c-.238.571-.359 1.184-.357 1.803l.003 8.753a4.67 4.67 0 0 0 1.382 3.33c.435.439.954.787 1.525 1.024a4.69 4.69 0 0 0 1.803.357l14.304-.003a4.68 4.68 0 0 0 3.332-1.381c.438-.436.786-.955 1.022-1.527s.358-1.184.357-1.803v-8.754c0-1.257-.488-2.438-1.382-3.332a4.69 4.69 0 0 0-3.332-1.379l-14.304.002c-1.255 0-2.438.492-3.328 1.383z" fill="#42250d"/><path d="M234.912 235.435c-.297.299-.65.535-1.039.697a3.21 3.21 0 0 1-1.227.244l-46.59.008c-.856 0-1.663-.333-2.267-.938-.299-.297-.537-.651-.698-1.04a3.16 3.16 0 0 1-.243-1.229v-10.479c0-.89.354-1.434.656-1.735 1.116-1.116 3.044-.653 4.364.246l3.826 2.617a1.01 1.01 0 0 0 .566.176l34.179-.008c.202 0 .396-.058.562-.174l3.826-2.617c1.013-.69 2.629-1.271 3.855-.623.435.228 1.166.809 1.166 2.107v10.48c.002.421-.08.838-.24 1.228a3.18 3.18 0 0 1-.696 1.04z" fill="#633b1a"/><path d="M184.281 221.742c.604-.604 1.922-.334 2.963.378l3.826 2.618c.35.239.763.367 1.189.367l34.179-.007c.422 0 .837-.13 1.188-.368l3.826-2.618c1.394-.956 3.292-1.118 3.292.574l.003 10.478a2.08 2.08 0 0 1-.62 1.489c-.194.196-.426.352-.681.458s-.53.159-.806.158l-46.584.012a2.1 2.1 0 0 1-.805-.16c-.256-.106-.488-.262-.683-.457s-.35-.428-.456-.683-.16-.53-.159-.806l-.004-10.48c.002-.435.127-.743.332-.953zm-1.558-1.562c-.447.447-.981 1.246-.981 2.514l.003 10.479c.001 1.144.456 2.24 1.265 3.048a4.31 4.31 0 0 0 3.049 1.263l46.582-.007a4.29 4.29 0 0 0 1.652-.326c.524-.216.999-.534 1.399-.936s.721-.876.937-1.4.328-1.085.326-1.652l-.003-10.479c0-1.372-.64-2.497-1.754-3.086-1.663-.874-3.667-.218-4.993.69l-3.798 2.598-34.116.007-3.799-2.597c-2.059-1.407-4.431-1.456-5.769-.116z" fill="#42250d"/><path d="M216.564 218.778v-1.561s-2.86-.892-7.215-.891c-4.361.002-7.174.894-7.174.894l.003 1.562s3.969-.895 7.171-.895 7.215.891 7.215.891zm0-9.301v-1.562s-2.86-.891-7.221-.889-7.168.892-7.168.892l-.003 1.561s3.974-.894 7.174-.894 7.218.892 7.218.892zm-.001-8.451v-1.56s-2.86-.891-7.219-.891-7.171.895-7.171.895v1.561s3.974-.893 7.171-.894 7.219.889 7.219.889z" fill="#603913"/><path d="M208.268 349.863l-10.288-19.012-.015-85.583 22.828-.001.012 85.58-10.278 19.017c-.444.821-1.815.82-2.259-.001z" fill="#939598"/><path d="M209.397 350.478c-.454 0-.904-.206-1.126-.615l-10.291-19.012-.015-85.583 11.413-.003c.002.002.472 105.213.019 105.213z" fill="#bcbec0"/><path d="M196.867 244.488l24.819-.064" stroke="#414042" stroke-width="3" stroke-miterlimit="10"/><path d="M231.309 222.998c.006-.237-.046-.472-.15-.686l-3.533 2.418c-.349.239-.762.367-1.185.367l-2.344.002c-.329.203-.708.31-1.094.311l-34.179.006a2.1 2.1 0 0 1-1.188-.367l-3.671-2.508-.012.154.003 10.48c0 .276.054.55.16.806s.261.488.457.684a2.1 2.1 0 0 0 .683.456 2.11 2.11 0 0 0 .807.16l44.234-.012c.309-.186.565-.448.743-.762s.27-.668.27-1.029v-10.48h-.001zm-30.305-45.354c-.397.213-.729.528-.961.914s-.356.828-.358 1.278l.003 8.753a2.51 2.51 0 0 0 2.503 2.502h12.051a2.5 2.5 0 0 0 1.32-2.192l-.003-8.755a2.51 2.51 0 0 0-2.504-2.501l-12.051.001z" fill="#916136"/><path d="M201.799 178.923l7.395-.001c.315.011.612.144.831.37s.34.529.34.843a1.22 1.22 0 0 1-.34.844c-.219.226-.516.359-.831.37l-7.392.001c-.322 0-.631-.128-.859-.356s-.357-.537-.357-.859c0-.665.545-1.212 1.213-1.212zm-9.577 50.076l18.839-.003c.312-.016.605-.15.82-.376s.335-.526.335-.838-.12-.612-.335-.838-.508-.361-.82-.377l-18.84.002c-.322.002-.63.131-.857.358a1.22 1.22 0 0 0-.356.858 1.22 1.22 0 0 0 .357.857c.228.227.536.355.857.357z" fill="#b78358"/><defs><radialGradient id="A" cx="0" cy="0" r="1" gradientUnits="userSpaceOnUse" gradientTransform="translate(142.814 200) scale(163.894 169.057)"><stop stop-color="#5bcd81"/><stop offset="1" stop-color="#3fa964"/></radialGradient></defs></svg>