<svg xmlns="http://www.w3.org/2000/svg" xmlns:xlink="http://www.w3.org/1999/xlink" width="291.969" height="406.205"><style>.st0{fill:#e5dcc7}.st23{fill:#a09680}</style><g id="card_x5F_paper"><g id="paper_1_"><image width="292" height="406" xlink:href="4EF4854F.png" transform="translate(-.016)" overflow="visible" opacity=".3"/><radialGradient id="SVGID_1_" cx="142.75" cy="200" r="163.894" gradientUnits="userSpaceOnUse"><stop offset="0" stop-color="#a3db6e"/><stop offset=".172" stop-color="#9ad66b"/><stop offset=".451" stop-color="#82c964"/><stop offset=".802" stop-color="#5ab458"/><stop offset="1" stop-color="#41a750"/></radialGradient><path d="M16.17 390a6.177 6.177 0 01-6.17-6.17V16.169A6.177 6.177 0 0116.17 10h253.161a6.177 6.177 0 016.169 6.169V383.83a6.177 6.177 0 01-6.169 6.17H16.17z" fill="url(#SVGID_1_)"/><path d="M265.5 20v360H20V20h245.5m3.831-20H16.17C7.239 0 0 7.239 0 16.169V383.83C0 392.761 7.239 400 16.17 400h253.161c8.93 0 16.169-7.239 16.169-16.17V16.169C285.5 7.239 278.261 0 269.331 0z" fill="#57c565"/><path d="M269.331 10a6.177 6.177 0 016.169 6.169V383.83a6.177 6.177 0 01-6.169 6.17H16.17a6.177 6.177 0 01-6.17-6.17V16.169A6.177 6.177 0 0116.17 10h253.161m0-10H16.17C7.239 0 0 7.239 0 16.169V383.83C0 392.761 7.239 400 16.17 400h253.161c8.93 0 16.169-7.239 16.169-16.17V16.169C285.5 7.239 278.261 0 269.331 0z" fill="#414042"/></g><path id="border_4_" fill="none" stroke="#e5e5e5" stroke-width="4" stroke-miterlimit="10" d="M23.031 23h239v354h-239z"/><g><image width="192" height="174" xlink:href="4EF4854D.png" transform="translate(48.031 111)" overflow="visible" opacity=".3"/><path class="st0" d="M113.377 115.25l102.039.933s13.857-.002 16.252 7.979c2.773 9.235-3.343 12.879-3.343 12.879l-26.355.604s-6.362 17.942 2.617 59.018c3.87 17.7-.17 45.286-6.89 58.967-8.875 18.067-22.408 20.565-22.408 20.565s-4.632 2.161-16.574.355c-11.943-1.801-94.745-12.204-94.745-12.204s-19.107-3.632-8.81-24.765c6.88-14.123 24.249-10.956 24.249-10.956l9.777.533s4.955-23.002.816-43.396c-3.691-18.178-12.835-58.505 23.375-70.512z"/><path d="M113.377 115.25l102.039.933s13.857-.002 16.252 7.979c2.773 9.235-3.343 12.879-3.343 12.879l-26.355.604s-6.362 17.942 2.617 59.018c3.87 17.7-.17 45.286-6.89 58.967-8.875 18.067-22.408 20.565-22.408 20.565s-4.632 2.161-16.574.355c-11.943-1.801-94.745-12.204-94.745-12.204s-19.107-3.632-8.81-24.765c6.88-14.123 24.249-10.956 24.249-10.956l9.777.533s4.955-23.002.816-43.396c-3.691-18.178-12.835-58.505 23.375-70.512z" fill="none" stroke="#605745" stroke-width="5" stroke-miterlimit="10"/><path class="st0" d="M77.226 230.208l98.486 7.309s-17.432.648-22.179 13.275c-4.236 11.27 3.333 17.362 3.333 17.362L55.329 255.891s-4.128-6.153 2.645-17.457c6.406-10.689 18.883-7.486 19.252-8.226z"/><path class="st23" d="M90.99 231l88.753 8.687s-.99-1.112-3.968-2.257c-2.147-.304-84.314-8.137-84.314-8.137L90.99 231zM200.088 135.549s6.354-17.801 15.725-17.475c4.55.159 12.22.73 14.349 7.838 1.686 5.625-2.095 9.349-2.095 9.349l-27.979.288zM55.329 255.891l101.538 12.263s2.729 3.203 6.494 4.333c5.604 1.684 10.307 2.278 10.307 2.278s-4.721 2-19.92-.5c-15.198-2.5-90.853-11.764-90.853-11.764s-7.227-2.855-7.566-6.61z"/><path class="st23" d="M152.594 256.099l30.411 2.752s3.57-20.514-8.019-21.068c-11.589-.555-21.243 7.797-22.392 18.316z"/><path class="st23" d="M156.866 268.153s-1.852-.917-3.322-5.22c-1.466-4.305-.95-6.835-.95-6.835l3.907.082s1.661 10.462 8.042 12.981c3.055 1.21 7.487 3.259 13.326.594 8.376-3.823 15.215-12.773 17.913-21.351 4.365-18.119 5.028-20.035 5.407-31.632.492-15.114-12.232-60.532-3.271-83.13 6.424-16.193 14.806-15.101 14.806-15.101s-18.487 9.296-14.898 48.449c0 0 1.619 19.878 3.735 27.362 1.574 5.57 5.125 26.901-2.623 51.884-8.368 26.971-24.893 28.375-24.893 28.375-7.194-.147-10.832.442-17.179-6.458z"/></g></g></svg>