<svg xmlns="http://www.w3.org/2000/svg" width="292" height="407" fill="none"  xmlns:v="https://vecta.io/nano"><path d="M16.264 390c-1.636-.002-3.204-.652-4.361-1.809s-1.807-2.725-1.809-4.361V16.169c.002-1.636.653-3.204 1.81-4.36A6.18 6.18 0 0 1 16.264 10h253.161a6.18 6.18 0 0 1 6.169 6.169V383.83c-.002 1.636-.653 3.204-1.809 4.36s-2.725 1.808-4.36 1.81H16.264z" fill="url(#A)"/><path d="M265.594 20v360h-245.5V20h245.5zm3.831-20H16.264C7.333 0 .094 7.239.094 16.169V383.83c0 8.931 7.239 16.17 16.17 16.17h253.161c8.93 0 16.169-7.239 16.169-16.17V16.169c0-8.93-7.24-16.169-16.169-16.169z" fill="#afbff4"/><path d="M269.425 10a6.18 6.18 0 0 1 6.169 6.169V383.83c-.002 1.636-.653 3.204-1.809 4.36s-2.725 1.808-4.36 1.81H16.264c-1.636-.002-3.204-.652-4.361-1.809s-1.807-2.725-1.809-4.361V16.169c.002-1.636.653-3.204 1.81-4.36A6.18 6.18 0 0 1 16.264 10h253.161zm0-10H16.264C7.333 0 .094 7.239.094 16.169V383.83c0 8.931 7.239 16.17 16.17 16.17h253.161c8.93 0 16.169-7.239 16.169-16.17V16.169c0-8.93-7.24-16.169-16.169-16.169z" fill="#414042"/><g fill-rule="evenodd"><path d="M142.898 165.782c-8.512.203-16.916-1.913-24.285-6.117-6.108-3.749-9.613-8.88-9.613-14.108 0-14.503 14.571-25.405 33.898-25.405 9.613 0 18.275 2.467 24.485 7.104 2.948 2.082 5.354 4.819 7.025 7.991a22.41 22.41 0 0 1 2.588 10.26c0 9.768-13.018 20.275-34.048 20.275h-.05z" fill="#bababa"/><path d="M142.9 121.091c19.528 0 33.097 10.359 33.097 24.467 0 9.766-13.62 19.237-33.048 19.237-19.527 0-32.946-9.471-32.946-19.237 0-13.418 13.419-24.418 32.897-24.418v-.049zm0-1.924c-19.878 0-34.9 11.345-34.9 26.391 0 5.524 3.706 11 10.115 14.946a47.77 47.77 0 0 0 24.785 6.265c9.513 0 18.375-2.22 24.936-6.265 6.508-3.946 10.164-9.422 10.164-14.946 0-7.498-3.556-14.305-10.015-19.091-7.337-5.01-16.112-7.57-25.036-7.3h-.049z" fill="#414042"/><path d="M175.447 141.315c.7 5.278 2.202 11.444-11.868 19.238-.751.444 4.307-1.579 3.807-7.4-.251-3.057-2.104-5.622-3.005-5.425-3.004.592-10.014 4.834-21.48 4.686-15.272-.148-27.639-6.413-27.639-14.305 0-7.844 12.367-14.256 27.639-14.256 15.322 0 31.144 6.265 32.546 17.462z" fill="#7a7a7a"/><path d="M142.898 146.198c-9.664 0-21.731-3.058-26.188-8.83-5.157-6.758-7.71-17.166-7.71-31.718 0-12.579 4.006-22.839 11.516-29.598 6.008-5.426 14.221-8.534 22.532-8.534 6.259 0 15.472.691 22.683 6.561 7.509 6.068 11.265 16.722 11.265 31.571 0 15.292-3.354 27.327-9.213 32.853-5.007 4.736-14.521 7.695-24.885 7.695z" fill="#bababa"/><path d="M143 68.506c14.871 0 33.047 4.44 33.047 37.145 0 14.306-3.005 26.539-8.963 32.162-4.857 4.638-14.27 7.4-24.184 7.4-9.564 0-21.181-2.96-25.386-8.436-5.108-6.709-7.511-17.166-7.511-31.126 0-27.525 18.876-37.145 33.047-37.145H143zm.05-1.973c-8.562 0-17.024 3.206-23.183 8.781C112.106 82.269 108 92.776 108 105.651c0 14.798 2.604 25.355 7.911 32.311 3.114 3.393 7.171 5.81 11.667 6.954 4.757 1.48 10.164 2.27 15.322 2.27 10.615 0 20.429-3.058 25.586-7.942 6.059-5.771 9.514-18.005 9.514-33.593 0-15.193-3.905-26.046-11.667-32.36-7.461-6.067-16.874-6.758-23.333-6.758h.05z" fill="#414042"/><path d="M175.999 105.651c.7 22.691-8.913 32.163-8.913 32.163s4.556-16.673 4.556-26.145c0-11.444-5.107-24.418-8.512-21.852-10.015 7.399-21.881 5.525-29.542 4.637-8.461-.937-17.024-12.431-15.822-14.157 8.161-12.332 11.115-11.79 25.236-11.79 14.87 0 31.944 2.022 33.046 37.144h-.049z" fill="#7a7a7a"/><path d="M142.902 88.929c-20.879 0-28.64-17.364-28.64-28.266 0-14.207 5.007-31.176 28.741-31.176 8.862 0 15.471 2.121 20.228 6.561 5.508 5.13 8.363 13.417 8.363 24.615 0 10.507-6.009 28.266-28.692 28.266z" fill="#bababa"/><path d="M142.996 30.473c15.272 0 27.59 6.709 27.59 30.189 0 11.444-6.81 27.279-27.69 27.279-20.83 0-27.639-17.561-27.639-27.279 0-22.987 12.467-30.189 27.739-30.189zm0-1.973c-13.569 0-29.742 5.574-29.742 32.163 0 11.346 8.012 29.252 29.642 29.252 9.914 0 17.975-3.502 23.233-10.113 4.251-5.499 6.539-12.228 6.509-19.14 0-21.36-10.014-32.162-29.642-32.162z" fill="#414042"/><path d="M170.585 60.661c0 6.413-2.153 14.256-7.761 19.88-4.357 4.341 12.017-18.844-2.403-35.171-15.172-17.019-37.804-7.646-37.804-7.646s5.909-7.251 20.379-7.251c15.272 0 27.589 6.709 27.589 30.189z" fill="#7a7a7a"/></g><path d="M89.252 348.504c-22.971 0-33.182-2.869-34.141-9.59-.403-2.818-.273-7.456-.137-12.368l.14-7.363c0-7.373 8.723-22.311 21.152-24.189l1.095-.166.437.589c.616.238 3.159.982 11.389 1.339 8.473-.366 11.002-1.146 11.57-1.37l.46-.546 1.02.154c12.429 1.878 21.152 16.816 21.152 24.189 0 2.325.071 4.886.14 7.361.137 4.913.266 9.551-.137 12.37-.961 6.721-11.17 9.59-34.14 9.59z" fill="#f6faf6"/><path d="M101.965 296.818c11.316 1.709 19.584 15.524 19.584 22.366s.6 15.414.022 19.471c-.642 4.489-7.529 8.007-32.316 8.007s-31.675-3.517-32.316-8.007c-.579-4.057.021-12.633.021-19.471s8.269-20.656 19.584-22.366c0 0 .953 1.284 12.646 1.784 11.693-.501 12.775-1.784 12.775-1.784zm-23.78-3.978l-2.191.331c-12.964 1.96-22.72 17.131-22.72 26.012 0 2.3-.071 4.849-.139 7.314-.139 4.991-.27 9.706.154 12.679 1.133 7.935 11.554 11.172 35.966 11.172s34.832-3.237 35.966-11.172c.424-2.973.293-7.689.155-12.682l-.139-7.311c0-8.881-9.756-24.052-22.721-26.012l-2.04-.309-.785.932c-.935.255-3.685.82-10.501 1.117-6.528-.285-9.27-.815-10.266-1.075l-.739-.996z" fill="#223948"/><path d="M88.981 298.659c-1.423 0-4.887-.031-6.308-.315-6.381-1.274-21.228-7.094-21.228-33.592 0-19.286 9.752-29.908 27.457-29.908 17.895 0 28.159 10.901 28.159 29.908 0 24.774-12.049 31.974-22.157 33.651-1.131.188-3.802.256-5.924.256z" fill="#f6faf6"/><path d="M88.903 236.688c19.647 0 26.316 13.028 26.316 28.063 0 21.178-8.823 29.875-20.614 31.832-.899.15-3.244.231-5.622.231-2.478 0-4.992-.088-5.946-.279-10.273-2.049-19.746-10.954-19.746-31.784-.001-15.035 6.052-28.063 25.613-28.063zm0-3.688c-18.895 0-29.301 11.276-29.301 31.751 0 27.862 15.883 34.039 22.713 35.401 1.522.305 4.83.35 6.666.35 1.365 0 4.707-.027 6.23-.282 10.806-1.793 23.693-9.403 23.693-35.47 0-20.177-10.935-31.75-30.001-31.75z" fill="#223948"/><path d="M196.747 348.504c-22.971 0-33.182-2.869-34.141-9.59-.402-2.818-.272-7.456-.136-12.368l.14-7.363c0-7.373 8.722-22.311 21.152-24.189l1.095-.166.437.589c.616.238 3.159.982 11.388 1.339 8.474-.366 11.003-1.146 11.571-1.37l.459-.546 1.021.154c12.429 1.878 21.152 16.816 21.152 24.189 0 2.325.071 4.886.14 7.361.136 4.913.265 9.551-.138 12.37-.96 6.721-11.17 9.59-34.14 9.59z" fill="#f6faf6"/><path d="M209.453 296.818c11.316 1.709 19.584 15.524 19.584 22.366s.601 15.414.022 19.471c-.642 4.489-7.529 8.007-32.316 8.007s-31.675-3.517-32.316-8.007c-.579-4.057.021-12.633.021-19.471s8.268-20.656 19.584-22.366c0 0 .953 1.284 12.646 1.784 11.693-.501 12.775-1.784 12.775-1.784zm-23.78-3.978l-2.191.331c-12.964 1.96-22.72 17.131-22.72 26.012 0 2.3-.071 4.849-.139 7.314-.14 4.991-.27 9.706.153 12.679 1.134 7.935 11.554 11.172 35.967 11.172s34.832-3.237 35.966-11.172c.424-2.973.293-7.689.155-12.682l-.139-7.311c0-8.881-9.756-24.052-22.721-26.012l-2.04-.309-.785.932c-.934.255-3.685.82-10.501 1.117-6.527-.285-9.271-.815-10.266-1.075l-.739-.996z" fill="#223948"/><path d="M196.469 298.659c-1.423 0-4.887-.031-6.308-.315-6.38-1.274-21.227-7.094-21.227-33.592 0-19.286 9.751-29.908 27.457-29.908 17.896 0 28.159 10.901 28.159 29.908 0 24.774-12.049 31.974-22.156 33.651-1.131.188-3.802.256-5.925.256z" fill="#f6faf6"/><path d="M196.395 236.688c19.647 0 26.315 13.028 26.315 28.063 0 21.178-8.823 29.875-20.614 31.832-.898.15-3.244.231-5.622.231-2.477 0-4.992-.088-5.946-.279-10.273-2.049-19.746-10.954-19.746-31.784-.001-15.035 6.052-28.063 25.613-28.063zm0-3.688c-18.895 0-29.301 11.276-29.301 31.751 0 27.862 15.883 34.039 22.713 35.401 1.522.305 4.83.35 6.666.35 1.365 0 4.707-.027 6.23-.282 10.807-1.793 23.695-9.403 23.695-35.47 0-20.177-10.937-31.75-30.003-31.75z" fill="#223948"/><path d="M143.236 373.383c-22.97 0-33.181-2.869-34.142-9.589-.402-2.819-.273-7.459-.136-12.371l.139-7.361c0-7.374 8.723-22.311 21.152-24.189l1.096-.166.437.589c.616.237 3.159.983 11.389 1.34 8.475-.366 11.004-1.147 11.571-1.372l.46-.545 1.02.154c12.429 1.878 21.153 16.815 21.153 24.189 0 2.325.07 4.887.14 7.363.136 4.911.265 9.551-.137 12.368-.961 6.721-11.171 9.59-34.142 9.59z" fill="#f6faf6"/><path d="M155.945 321.697c11.316 1.709 19.585 15.525 19.585 22.366s.6 15.415.021 19.472c-.641 4.487-7.529 8.006-32.316 8.006s-31.675-3.518-32.316-8.006c-.58-4.057.021-12.634.021-19.472s8.269-20.656 19.584-22.366c0 0 .954 1.285 12.646 1.785 11.692-.501 12.775-1.785 12.775-1.785zm-23.781-3.978l-2.19.331c-12.965 1.959-22.721 17.131-22.721 26.012 0 2.299-.071 4.847-.139 7.311-.138 4.994-.269 9.709.155 12.682 1.133 7.935 11.554 11.172 35.967 11.172s34.832-3.237 35.966-11.172c.424-2.972.294-7.687.154-12.679l-.14-7.314c0-8.881-9.756-24.053-22.719-26.012l-2.04-.308-.786.931c-.934.256-3.685.82-10.501 1.117-6.529-.286-9.271-.814-10.267-1.074l-.739-.997z" fill="#223948"/><path d="M142.962 323.536c-1.424 0-4.888-.031-6.308-.315-6.381-1.273-21.228-7.094-21.228-33.592 0-19.286 9.751-29.908 27.457-29.908 17.895 0 28.158 10.901 28.158 29.908 0 24.774-12.048 31.974-22.156 33.651-1.13.189-3.801.256-5.923.256z" fill="#f6faf6"/><path d="M142.879 261.565c19.647 0 26.314 13.027 26.314 28.063 0 21.177-8.82 29.876-20.614 31.833-.898.15-3.243.231-5.621.231-2.478 0-4.993-.088-5.946-.279-10.273-2.049-19.746-10.956-19.746-31.785 0-15.036 6.053-28.063 25.613-28.063zm0-3.688c-18.894 0-29.301 11.276-29.301 31.751 0 27.863 15.884 34.04 22.713 35.401 1.522.305 4.83.35 6.667.35 1.365 0 4.705-.027 6.229-.282 10.806-1.793 23.694-9.403 23.694-35.47 0-20.177-10.935-31.75-30.002-31.75z" fill="#223948"/><path d="M164.325 199.774c-.002 2.029-1.648 3.682-3.672 3.682h-6.043v17.578a3.21 3.21 0 0 1-3.206 3.206H134.6a3.21 3.21 0 0 1-3.206-3.206v-17.578h-6.042a3.68 3.68 0 0 1-3.672-3.682 3.6 3.6 0 0 1 .908-2.395l17.65-20.24a3.67 3.67 0 0 1 1.247-.926 3.66 3.66 0 0 1 1.517-.329c.524 0 1.041.112 1.518.329s.902.532 1.246.926l17.651 20.24c.585.66.909 1.512.908 2.395z" fill="url(#B)"/><path d="M122.562 199.773c0-.627.214-1.267.691-1.814l17.65-20.238c.261-.299.583-.54.945-.704a2.78 2.78 0 0 1 2.304 0c.362.164.684.405.945.704l17.65 20.241a2.73 2.73 0 0 1 .691 1.812c0 1.437-1.125 2.799-2.788 2.799h-6.926v18.461c0 .616-.245 1.206-.68 1.642s-1.026.68-1.642.68h-16.804c-.616 0-1.206-.245-1.642-.68s-.68-1.026-.68-1.642v-18.462h-6.927c-1.663 0-2.787-1.363-2.787-2.799zm-1.769 0a4.57 4.57 0 0 0 4.556 4.568h5.158v16.693c.002 1.085.433 2.124 1.2 2.891s1.806 1.198 2.891 1.2h16.804a4.1 4.1 0 0 0 2.891-1.2 4.09 4.09 0 0 0 1.199-2.891v-16.693h5.158a4.57 4.57 0 0 0 4.557-4.568c-.004-1.095-.404-2.152-1.127-2.975l-17.65-20.239a4.56 4.56 0 0 0-1.546-1.151c-.592-.269-1.234-.408-1.884-.408s-1.292.139-1.884.408a4.55 4.55 0 0 0-1.546 1.151l-17.651 20.239a4.54 4.54 0 0 0-1.126 2.975z" fill="#4f0c16"/><path d="M222.618 199.774c-.002 2.029-1.648 3.682-3.672 3.682h-6.043v17.578a3.21 3.21 0 0 1-3.206 3.206h-16.804a3.21 3.21 0 0 1-3.206-3.206v-17.578h-6.042a3.68 3.68 0 0 1-3.672-3.682 3.6 3.6 0 0 1 .908-2.395l17.65-20.24a3.67 3.67 0 0 1 1.247-.926 3.66 3.66 0 0 1 1.517-.329c.524 0 1.041.112 1.518.329s.902.532 1.246.926l17.651 20.24c.585.66.909 1.512.908 2.395z" fill="url(#C)"/><path d="M180.855 199.773c0-.627.214-1.267.691-1.814l17.65-20.238c.261-.299.583-.54.945-.704a2.78 2.78 0 0 1 2.304 0c.362.164.684.405.945.704l17.65 20.241c.444.499.69 1.144.691 1.812 0 1.437-1.125 2.799-2.788 2.799h-6.926v18.461c0 .616-.245 1.206-.68 1.642s-1.026.68-1.642.68h-16.804c-.616 0-1.206-.245-1.642-.68s-.68-1.026-.68-1.642v-18.462h-6.927c-1.663 0-2.787-1.363-2.787-2.799zm-1.769 0a4.57 4.57 0 0 0 4.556 4.568h5.158v16.693c.002 1.085.433 2.124 1.2 2.891s1.806 1.198 2.891 1.2h16.804a4.1 4.1 0 0 0 2.891-1.2 4.09 4.09 0 0 0 1.199-2.891v-16.693h5.158a4.57 4.57 0 0 0 4.557-4.568c-.004-1.095-.404-2.152-1.127-2.975l-17.65-20.239a4.56 4.56 0 0 0-1.546-1.151c-.592-.269-1.234-.408-1.884-.408s-1.292.139-1.884.408a4.55 4.55 0 0 0-1.546 1.151l-17.651 20.239a4.54 4.54 0 0 0-1.126 2.975z" fill="#4f0c16"/><path d="M106.032 199.774c-.002 2.029-1.648 3.682-3.672 3.682h-6.043v17.578a3.21 3.21 0 0 1-3.206 3.206H76.307a3.21 3.21 0 0 1-3.206-3.206v-17.578h-6.042a3.68 3.68 0 0 1-3.672-3.682 3.6 3.6 0 0 1 .908-2.395l17.65-20.24c.344-.394.769-.71 1.246-.926s.994-.329 1.518-.329 1.041.112 1.518.329.902.532 1.246.926l17.651 20.24a3.6 3.6 0 0 1 .908 2.395z" fill="url(#D)"/><path d="M64.269 199.773c0-.627.214-1.267.691-1.814l17.65-20.238a2.78 2.78 0 0 1 .945-.704c.362-.165.755-.25 1.152-.25s.79.085 1.152.25a2.78 2.78 0 0 1 .945.704l17.65 20.241a2.73 2.73 0 0 1 .691 1.812c0 1.437-1.125 2.799-2.788 2.799h-6.926v18.461c0 .616-.245 1.206-.68 1.642s-1.026.68-1.642.68H76.305c-.616 0-1.206-.245-1.642-.68s-.68-1.026-.68-1.642v-18.462h-6.928c-1.663 0-2.787-1.363-2.787-2.799zm-1.769 0a4.57 4.57 0 0 0 4.556 4.568h5.159v16.693c.001 1.085.433 2.124 1.199 2.891a4.1 4.1 0 0 0 2.891 1.2h16.804a4.1 4.1 0 0 0 2.891-1.2c.767-.767 1.198-1.806 1.199-2.891v-16.693h5.157a4.57 4.57 0 0 0 4.557-4.568c-.004-1.095-.404-2.152-1.127-2.975l-17.65-20.239a4.55 4.55 0 0 0-3.43-1.559 4.55 4.55 0 0 0-3.43 1.559l-17.651 20.239c-.722.824-1.122 1.88-1.126 2.975z" fill="#4f0c16"/><defs><radialGradient id="A" cx="0" cy="0" r="1" gradientUnits="userSpaceOnUse" gradientTransform="translate(142.844 200) scale(163.894)"><stop stop-color="#6a97ee"/><stop offset="1" stop-color="#396ed4"/></radialGradient><linearGradient id="B" x1="125.433" y1="192.307" x2="160.127" y2="212.338" gradientUnits="userSpaceOnUse"><stop stop-color="#ec6f66"/><stop offset=".008" stop-color="#ec6d65"/><stop offset=".17" stop-color="#ec504d"/><stop offset=".341" stop-color="#ec393b"/><stop offset=".525" stop-color="#ec292e"/><stop offset=".731" stop-color="#ec1f26"/><stop offset="1" stop-color="#ec1c24"/></linearGradient><linearGradient id="C" x1="183.726" y1="192.307" x2="218.419" y2="212.338" gradientUnits="userSpaceOnUse"><stop stop-color="#ec6f66"/><stop offset=".008" stop-color="#ec6d65"/><stop offset=".17" stop-color="#ec504d"/><stop offset=".341" stop-color="#ec393b"/><stop offset=".525" stop-color="#ec292e"/><stop offset=".731" stop-color="#ec1f26"/><stop offset="1" stop-color="#ec1c24"/></linearGradient><linearGradient id="D" x1="67.14" y1="192.307" x2="101.834" y2="212.338" gradientUnits="userSpaceOnUse"><stop stop-color="#ec6f66"/><stop offset=".008" stop-color="#ec6d65"/><stop offset=".17" stop-color="#ec504d"/><stop offset=".341" stop-color="#ec393b"/><stop offset=".525" stop-color="#ec292e"/><stop offset=".731" stop-color="#ec1f26"/><stop offset="1" stop-color="#ec1c24"/></linearGradient></defs></svg>