<svg xmlns="http://www.w3.org/2000/svg" width="680.535" height="125"><g><path fill="#05BF00" d="M2.502 115.032V4h670.071c-1.885 23.86-47.584 53.952-48.055 54.26l-1.99 1.298 2.027 1.238c.471.288 46.271 28.559 48.025 54.236H2.502z"/><path fill="#11350A" d="M670.876 5.5c-1.484 8.97-9.396 20.184-23.104 32.677-11.883 10.83-23.955 18.748-24.074 18.827l-3.977 2.598 4.053 2.475c.455.278 43.734 26.977 47.146 51.455H4.002V5.5h666.874m3.258-3H1.002v114.031h673.131c0-27.219-48.797-57.016-48.797-57.016S674.134 27.669 674.134 2.5z"/><g><path fill="#05BF00" d="M1.5 1.5h44.72v116.032H1.5z"/><path fill="#11350A" d="M44.72 3v113.032H3V3h41.72m3-3H0v119.032h47.72V0z"/></g></g></svg>