<svg xmlns="http://www.w3.org/2000/svg" width="680.535" height="125"><g><path fill="#ED1C24" d="M2.85 115.899V4.867h670.071c-1.885 23.86-47.584 53.952-48.055 54.26l-1.99 1.298 2.027 1.238c.471.288 46.271 28.559 48.025 54.236H2.85z"/><path fill="#770B20" d="M671.224 6.367c-1.484 8.97-9.396 20.184-23.104 32.677-11.883 10.83-23.955 18.748-24.074 18.827l-3.977 2.598 4.053 2.475c.455.278 43.734 26.977 47.146 51.455H4.35V6.367h666.874m3.257-3H1.35v114.031h673.131c0-27.219-48.797-57.016-48.797-57.016s48.797-31.846 48.797-57.015z"/><g><path fill="#ED1C24" d="M1.5 1.5h45.416v117.767H1.5z"/><path fill="#770B20" d="M45.416 3v114.767H3V3h42.416m3-3H0v120.767h48.416V0z"/></g></g></svg>