<svg xmlns="http://www.w3.org/2000/svg" width="680.535" height="125"><g><path fill="#0072BC" d="M2.85 115.899V4.868h670.071c-1.885 23.852-47.585 53.952-48.057 54.26l-1.988 1.298 2.026 1.238c.472.288 46.272 28.559 48.027 54.235H2.85z"/><path fill="#03274F" d="M671.226 6.368c-1.485 8.97-9.397 20.184-23.106 32.677-11.883 10.83-23.954 18.748-24.074 18.827l-3.976 2.596 4.052 2.476c.12.074 12.171 7.478 24.032 18.04 13.802 12.291 21.719 23.765 23.107 33.416H4.35V6.368h666.876m3.255-3H1.35v114.031h673.131c0-27.219-48.797-57.016-48.797-57.016s48.797-31.846 48.797-57.015z"/><g><path fill="#0072BC" d="M1.5 1.5h45.416v117.767H1.5z"/><path fill="#03274F" d="M45.416 3v114.767H3V3h42.416m3-3H0v120.767h48.416V0z"/></g></g></svg>