<svg xmlns="http://www.w3.org/2000/svg" width="680.535" height="125"><g><path fill="#FFF200" d="M2.85 115.899V4.867h670.071c-1.886 23.86-47.585 53.952-48.056 54.26l-1.989 1.298 2.026 1.238c.472.288 46.271 28.559 48.026 54.236H2.85z"/><path fill="#A06D08" d="M671.224 6.367c-1.484 8.97-9.396 20.184-23.104 32.677-11.883 10.83-23.954 18.748-24.074 18.827l-3.978 2.598 4.054 2.475c.455.278 43.734 26.977 47.146 51.455H4.35V6.367h666.874m3.256-3H1.35v114.031h673.13c0-27.219-48.796-57.016-48.796-57.016S674.48 28.536 674.48 3.367z"/><path fill="#FFF200" d="M2.85 4.867h42.716v111.032H2.85z"/><path fill="#A06D08" d="M44.065 6.367v108.031H4.35V6.367h39.715m3-3H1.35v114.031h45.716V3.367h-.001z"/><g><path fill="#FFF200" d="M1.5 1.5h45.415v117.767H1.5z"/><path fill="#A06D08" d="M45.415 3v114.767H3V3h42.415m3-3H0v120.767h48.415V0z"/></g></g></svg>