<svg xmlns="http://www.w3.org/2000/svg" width="680.535" height="125" viewBox="0 0 681.2 122"><path fill="#F3F9FD" d="M2 113V2h670c-2 23-48 53-48 54l-2 1 2 1c0 1 46 29 48 55H2z"/><path fill="#494949" d="M670 3c-2 9-10 20-23 33-12 11-24 18-24 19l-4 2 4 3s12 7 24 18c14 12 22 23 23 33H3V3h667m3-3H0v114h673c0-27-49-57-49-57s49-32 49-57z"/><path fill="#58595B" d="M2 2h42v111H2z"/><path fill="#231F20" d="M43 3v108H3V3h40m3-3H0v114h46V0z"/><g><path fill="#F3F9FD" d="M0-2h46v118H0z"/><path fill="#494949" d="M44 0v114H2V0h42m3-3H-1v120h48V-3z"/></g></svg>