<svg xmlns="http://www.w3.org/2000/svg" width="680.535" height="125"><g><path fill="#58595B" d="M2.85 115.899V4.867h670.07c-1.885 23.853-47.584 53.953-48.056 54.261l-1.988 1.298 2.026 1.238c.472.288 46.271 28.559 48.026 54.235H2.85z"/><path fill="#231F20" d="M671.224 6.368c-1.484 8.969-9.396 20.183-23.104 32.677-11.883 10.829-23.954 18.748-24.074 18.827l-3.978 2.597 4.054 2.476c.455.277 43.734 26.977 47.146 51.455H4.35V6.368h666.874m3.256-3H1.35v114.031h673.13c0-27.219-48.796-57.016-48.796-57.016S674.48 28.537 674.48 3.368z"/><path fill="#58595B" d="M2.85 4.867h42.716v111.032H2.85z"/><path fill="#231F20" d="M44.065 6.368v108.031H4.35V6.368h39.715m3-3H1.35v114.031h45.716V3.368h-.001z"/><g><path fill="#58595B" d="M1.5 1.5h45.415v117.767H1.5z"/><path fill="#231F20" d="M45.415 3v114.767H3V3h42.415m3-3H0v120.767h48.415V0z"/></g></g></svg>