<svg xmlns="http://www.w3.org/2000/svg" width="74.997" height="74.996"><linearGradient id="a" gradientUnits="userSpaceOnUse" x1="143.898" y1="-172.637" x2="121.25" y2="-211.864" gradientTransform="matrix(1 0 0 -1 -96 -155.004)"><stop offset="0" stop-color="#ec6f66"/><stop offset=".008" stop-color="#ec6d65"/><stop offset=".17" stop-color="#ec504d"/><stop offset=".341" stop-color="#ec393b"/><stop offset=".525" stop-color="#ec292e"/><stop offset=".731" stop-color="#ec1f26"/><stop offset="1" stop-color="#ec1c24"/></linearGradient><path d="M39.456 61.607c-2.295-.002-4.164-1.863-4.164-4.152v-6.832H15.417a3.629 3.629 0 01-3.625-3.625v-19a3.629 3.629 0 013.625-3.625h19.875v-6.832a4.162 4.162 0 014.164-4.152c1 0 1.937.355 2.707 1.027l22.885 19.957a4.15 4.15 0 010 6.25L42.163 60.58a4.071 4.071 0 01-2.707 1.027z" fill="url(#a)"/><path d="M39.456 14.389c.709 0 1.433.242 2.051.781L64.39 35.127a3.145 3.145 0 010 4.742L41.504 59.826a3.089 3.089 0 01-2.049.781c-1.624 0-3.165-1.272-3.165-3.152v-7.832H15.417a2.625 2.625 0 01-2.625-2.625v-19a2.625 2.625 0 012.625-2.625h20.875V17.54c0-1.88 1.541-3.151 3.164-3.151m0-2c-2.847 0-5.164 2.312-5.164 5.151v5.833H15.417a4.63 4.63 0 00-4.625 4.625v19a4.63 4.63 0 004.625 4.625h18.875v5.832c0 2.841 2.316 5.152 5.164 5.152a5.124 5.124 0 003.364-1.274l22.884-19.957a5.147 5.147 0 000-7.756L42.82 13.662a5.129 5.129 0 00-3.364-1.273z" fill="#4f0c16"/></svg>