<svg xmlns="http://www.w3.org/2000/svg" width="400" height="400" viewBox="0 0 400 400"><defs><style>.\30 2a98d39-6d7f-4f7e-bc05-5cb8f94458af{fill:#fff;}.bb2b6f0f-43d9-4f68-baf2-8398bae0fb89{fill:#231f20;}.\30 9f11b98-3cda-47ea-aee6-37a215aeadba{fill:#8fbac9;}.\34 c1e596d-8a25-4979-8eb5-4690d9f1c942{fill:#203d4c;}.\37 3711f3f-88ed-42f7-936e-d66a526d2b8b{fill:#6497a0;}.d94eaca8-ecc3-4592-944d-33f66782594b{fill:#ed2b59;}.\31 53c56fb-e5ac-4ce5-8c56-6ad18a444540{fill:#5b0627;}.\33 61f4c3b-19f8-44dc-a112-57caade2ab9d{fill:#ad1c45;}</style></defs><title>User_Tie</title><g id="fd7ae179-7e63-4b0a-8b62-6c32d3f9eb2c" data-name="User_1"><path class="02a98d39-6d7f-4f7e-bc05-5cb8f94458af" d="M198.41,375c-30.71,0-52.77-2-67.44-6.17-16-4.52-24.4-11.88-25.73-22.5-1-7-1.2-18.31-.58-33.41V294.42c0-20.1,23.06-62,59.22-67.43l5.77-1,1.5,2.26,1.46.26a190.05,190.05,0,0,0,25.79,2.78c17.16-.89,24-2.1,27.08-2.8l1.42-2.12h5.76l.33.05c15.62,2.6,30.71,12.62,42.48,28.21,9.76,12.93,16.08,28.46,16.13,39.63l1.09,18.61v33.26l0,.31C291,357,282.43,364.36,266.46,368.86,251.72,373,229.65,375,199,375Z"/><path class="bb2b6f0f-43d9-4f68-baf2-8398bae0fb89" d="M232.34,230.4c32.83,5.47,55.27,44.32,55.27,64L288.7,313v32.83C286,363.37,259.15,371,199,371h-.55c-60.19,0-87-7.66-89.19-25.17-1.09-7.66-1.09-19.7-.55-32.83v-18.6c0-19.7,23-58.55,55.81-63.47l3.28-.55,1.09,1.64c2.19,0,8.76,2.19,29.55,3.28,21.34-1.09,27.36-2.74,29.55-3.28l1.09-1.64h3.28m-60.78-8.74-5.1.85-3.22.54c-16.65,2.52-32.73,12.89-45.3,29.22-10.64,13.82-17.26,30-17.26,42.16v18.44c-.63,15.26-.42,26.72.62,34.06,1.56,12.18,11.18,20.85,28.6,25.78,15,4.25,37.44,6.32,68.53,6.32H199c31.06,0,53.49-2.07,68.58-6.32,8.4-2.37,14.79-5.43,19.55-9.37a25.88,25.88,0,0,0,9.51-16.25l.1-.61V312.55l-1.08-18.39C295.52,282,289,266,278.67,252.25c-12.39-16.41-28.38-27-45-29.74l-.65-.11h-8.23l-1.69,2.54c-3.52.67-10.5,1.64-24.66,2.38a186.68,186.68,0,0,1-24.87-2.67l-2-3Z"/><g id="14ce7bc6-0b33-40a6-916c-26aa7b9ea5ab" data-name="Shirt"><path class="09f11b98-3cda-47ea-aee6-37a215aeadba" d="M198.41,374c-30.71,0-52.77-2-67.44-6.17-16-4.52-24.4-11.88-25.73-22.5-1-7-1.2-18.31-.58-33.41V293.42c0-20.1,23.06-62,59.22-67.43l2.86-.43,1.3,2.58c7.78,15.44,22.84,37.19,31.94,37.19,6.66,0,20.09-20,28.71-38.63L230,224l3,.5c35.71,6,58.52,48.47,58.61,68.84l1.09,18.61v33.26l0,.31C291,356,282.43,363.36,266.46,367.86,251.72,372,229.65,374,199,374Z"/><path class="4c1e596d-8a25-4979-8eb5-4690d9f1c942" d="M232.34,228.4c32.83,5.47,55.27,45.32,55.27,65L288.7,312v32.83C286,362.37,259.15,370,199,370h-.55c-60.19,0-87-7.66-89.19-25.17-1.09-7.66-1.09-19.7-.55-32.83v-18.6c0-19.7,23-58.55,55.81-63.47,0,0,19.83,39.39,35.51,39.39,13.33,0,32.34-40.94,32.34-40.94m-4.69-8.89L225.08,225h0a205.65,205.65,0,0,1-10.15,18.72c-9.56,15.48-14.45,17.41-15,17.59-.83-.08-6.33-1.16-16.89-16.15a171.51,171.51,0,0,1-11.37-18.83L169,221.18l-5.72.86c-16.67,2.5-32.78,12.88-45.37,29.23-10.64,13.82-17.26,30-17.26,42.16v18.44c-.63,15.26-.42,26.72.62,34.06,1.56,12.18,11.18,20.85,28.6,25.78,15,4.25,37.44,6.32,68.53,6.32H199c31.06,0,53.49-2.07,68.58-6.32,8.4-2.37,14.79-5.43,19.55-9.37a25.88,25.88,0,0,0,9.51-16.25l.1-.61V311.55l-1.08-18.39c-.09-12-6.7-28.6-16.89-42.36-12.43-16.77-28.43-27.53-45.06-30.3l-6-1Z"/><path class="73711f3f-88ed-42f7-936e-d66a526d2b8b" d="M198.41,370c-60.19,0-87-7.66-89.19-25.17,28.53,24.65,156.28,21.4,162-1.6,8-32.47,2-54.27,2-54.27-5.1-28.72-21.42-50.34-56-57.54-4.2-.87-13.86,29.9-18.5,29.49-4.24-.37-12.79-32.78-17.39-32.74-7.09.06-8.81.63-16.76,1.75,0,0,19.83,27.39,35.51,27.39,13.33,0,32.34-28.93,32.34-28.93,32.83,5.47,55.27,45.32,55.27,65L288.7,312v32.83C286,362.37,259.15,370,199,370Z"/><path class="73711f3f-88ed-42f7-936e-d66a526d2b8b" d="M213.32,284c1.15,0,3.3-1.1,3.3-2.25V268.88c0-.3,12.69-6.47,12.69-6.47l2.68,3.22s6.63,2.38,9-3.89c.58-1.52.66-12.38.65-19.23,0-.32,8.87-5.31,8.62-5.49-2.46-1.69-7.22-4.18-7.22-4.18S207,264,204.51,264s-21-10.33-21-10.33L165.66,261l19.71,9.06c.09,0,4.13,3.34,4.13,3.44l5.57,8.41a2.1,2.1,0,0,0,2.1,2.1h.67l-4.76,74c-.06,1.13-2.79,2-1.88,2.63l13.13,8.71a4.25,4.25,0,0,0,2.13-.06l12.93-8.76a3.41,3.41,0,0,0,1.21-2.9L213.16,284Z"/><path class="d94eaca8-ecc3-4592-944d-33f66782594b" d="M170.12,256.91l5.74-11,1.79,1c8.4,4.69,18.08,9.68,20,10.07,1.9-.4,11.24-5.47,19-10l1.5-.89,8.5,10.69-29.09,13.47Z"/><path class="153c56fb-e5ac-4ce5-8c56-6ad18a444540" d="M217.68,248.67l5.83,7.33-25.92,12-24.75-12,3.83-7.33s18.5,10.33,21,10.33,20-10.33,20-10.33M175,243.17l-1.91,3.64-3.83,7.33-1.91,3.65,3.71,1.8,24.75,12,1.71.83,1.72-.8,25.92-12,4.62-2.14-3.17-4-5.83-7.33-2.17-2.73-3,1.77c-6.89,4.07-15.33,8.7-18,9.67-2.73-1-11.68-5.61-19-9.72l-3.59-2Z"/><path class="361f4c3b-19f8-44dc-a112-57caade2ab9d" d="M199.91,366.46a2.61,2.61,0,0,1-1.57-.52l-11.88-8.35a5.42,5.42,0,0,1-2.22-4.63l5.72-89,17-.32,7.74,88.91a5.41,5.41,0,0,1-1.91,4.61l-11.29,8.78a2.58,2.58,0,0,1-1.63.57Z"/><path class="153c56fb-e5ac-4ce5-8c56-6ad18a444540" d="M205.17,265.63l7.58,87a3.41,3.41,0,0,1-1.21,2.9l-11.23,8.74a.63.63,0,0,1-.78,0L187.61,356a3.41,3.41,0,0,1-1.37-2.9l5.6-87.18,13.33-.25m3.66-4.07-3.74.07-13.33.25-3.68.07-.24,3.67-5.6,87.18v.06a7.39,7.39,0,0,0,3,6.3l0,0,0,0,11.91,8.37a4.63,4.63,0,0,0,5.59-.15l11.2-8.72.06,0,.06,0a7.41,7.41,0,0,0,2.62-6.31l-7.58-87-.32-3.72Z"/><path class="d94eaca8-ecc3-4592-944d-33f66782594b" d="M201.14,265.7l-9.29.18-5.42,84.32a3.21,3.21,0,0,0,.89,1.24l10,8a.48.48,0,0,0,.65,0l9.4-8.28a3.44,3.44,0,0,0,1-2.76l-6.54-82.69Z"/><rect class="361f4c3b-19f8-44dc-a112-57caade2ab9d" x="186.24" y="259.74" width="24.35" height="21.27" rx="4.1" ry="4.1"/><path class="153c56fb-e5ac-4ce5-8c56-6ad18a444540" d="M206.49,261.74a2.1,2.1,0,0,1,2.1,2.1v13.08a2.1,2.1,0,0,1-2.1,2.1H190.33a2.1,2.1,0,0,1-2.1-2.1V263.83a2.1,2.1,0,0,1,2.1-2.1h16.16m0-4H190.33a6.1,6.1,0,0,0-6.1,6.1v13.08a6.1,6.1,0,0,0,6.1,6.1h16.16a6.1,6.1,0,0,0,6.1-6.1V263.83a6.1,6.1,0,0,0-6.1-6.1Z"/><path class="d94eaca8-ecc3-4592-944d-33f66782594b" d="M204.58,275.51H190.33a2.1,2.1,0,0,1-2.1-2.1v-9.58a2.1,2.1,0,0,1,2.1-2.1s3.39,5.83,7.84,6,7.56-6,7.56-6c1.15,0,.94.94.94,2.1v9.58A2.1,2.1,0,0,1,204.58,275.51Z"/><path class="09f11b98-3cda-47ea-aee6-37a215aeadba" d="M233.93,263.74a2.44,2.44,0,0,1-1.82-.82l-12.93-14.44-18.27,14.36a2.35,2.35,0,0,1-1.54.58h0a2.37,2.37,0,0,0-1.91,0,2.35,2.35,0,0,1-1.55-.58l-18.28-14.37-12.93,14.44a2.44,2.44,0,0,1-1.82.81,2.47,2.47,0,0,1-1.77-.75,2.42,2.42,0,0,1-.68-1.78l2-56.21h71.88l2,56.2a2.42,2.42,0,0,1-.68,1.78A2.47,2.47,0,0,1,233.93,263.74Zm-35.53-5.51L225.71,217H170.44Z"/><path class="4c1e596d-8a25-4979-8eb5-4690d9f1c942" d="M232.43,207l2,54.28a.44.44,0,0,1-.45.46.43.43,0,0,1-.33-.15l-14.18-15.84-19.79,15.56a.36.36,0,0,1-.26.11.37.37,0,0,1-.35-.51L229.43,215H166.67l31.15,45.93a.37.37,0,0,1-.35.5.36.36,0,0,1-.26-.11L177.4,245.75l-14.18,15.84a.43.43,0,0,1-.33.15.44.44,0,0,1-.45-.46l2-54.28h68m3.86-4H160.54l-.14,3.86-2,54.28a4.44,4.44,0,0,0,7.75,3.12l11.68-13,16.77,13.18a7.06,7.06,0,0,0,7.54,0l16.76-13.17,11.68,13a4.44,4.44,0,0,0,7.75-3.12l-2-54.28-.14-3.86Zm-62.07,16H222l-23.6,35.64L174.22,219Z"/></g><path class="02a98d39-6d7f-4f7e-bc05-5cb8f94458af" d="M198.36,246.57c-7.08,0-15.17-1.1-17.88-1.88a67.38,67.38,0,0,1-36.24-20.33c-15-16.3-22.6-40.22-22.6-71.11,0-53.39,26.88-82.8,75.68-82.8,24.21,0,44.09,7.51,57.49,21.71s20.38,34.7,20.38,60.54c0,68.23-33.36,88-61.34,92.56a102.27,102.27,0,0,1-15.44,1.31Z"/><path class="bb2b6f0f-43d9-4f68-baf2-8398bae0fb89" d="M197.32,74.45c47.06,0,73.87,28.45,73.87,78.25,0,65.12-31.17,84.24-58,88.61a98.92,98.92,0,0,1-14.79,1.26h-.06c-7.47,0-15.28-1.23-16.91-1.77-17-3.28-55.81-18.6-55.81-87.55,0-50.89,25.17-78.8,71.68-78.8m0-8c-25.47,0-45.39,7.72-59.21,22.94-13.59,15-20.48,36.45-20.48,63.86,0,31.92,8,56.76,23.66,73.82a71.41,71.41,0,0,0,38.28,21.52,88.18,88.18,0,0,0,18.78,2h.06a106.85,106.85,0,0,0,16.11-1.37c18.24-3,33-11.17,43.89-24.32,13.78-16.66,20.77-40.94,20.77-72.18,0-26.9-7.22-48.19-21.47-63.29s-35.06-23-60.4-23Z"/></g></svg>