<svg xmlns="http://www.w3.org/2000/svg" width="400" height="400" viewBox="0 0 400 400"><defs><style>.bd8382b6-cdec-4c3c-a20b-deca1de23a4e{fill:#fff;}.\30 181bf36-45a7-4027-a51b-5edb9ef4e1b2{fill:#231f20;}.\32 681a007-0d32-42cc-9d07-e9550900f9e6{fill:#ce5300;}.d1d47acc-3921-4e97-92b2-aa7aece0b29b{fill:#7c2101;}.\35 327b90f-0726-4511-a0f4-91a77a54342c{fill:#fc7315;}.a595de53-4724-425c-8d68-c21663fe785d{fill:#fff200;}.\33 daa443e-dc6f-4270-9403-6cc9801b1be5{fill:#ffb000;}.fc2028b3-52fd-4e49-95d1-ea74cbe8911e{fill:#cecece;}.\36 94913cb-4600-467f-9ff8-72700f275b46{fill:#d36a0b;}</style></defs><title>User_Worker</title><g id="0d66e107-2793-4ebd-bfc7-1a2010c68d40" data-name="User_1"><path class="bd8382b6-cdec-4c3c-a20b-deca1de23a4e" d="M198.41,375c-30.71,0-52.77-2-67.44-6.17-16-4.52-24.4-11.88-25.73-22.5-1-7-1.2-18.31-.58-33.41V294.42c0-20.1,23.06-62,59.22-67.43l5.77-1,1.5,2.26,1.46.26a190.05,190.05,0,0,0,25.79,2.78c17.16-.89,24-2.1,27.08-2.8l1.42-2.12h5.76l.33.05c15.62,2.6,30.71,12.62,42.48,28.21,9.76,12.93,16.08,28.46,16.13,39.63l1.09,18.61v33.26l0,.31C291,357,282.43,364.36,266.46,368.86,251.72,373,229.65,375,199,375Z"/><path class="0181bf36-45a7-4027-a51b-5edb9ef4e1b2" d="M232.34,230.4c32.83,5.47,55.27,44.32,55.27,64L288.7,313v32.83C286,363.37,259.15,371,199,371h-.55c-60.19,0-87-7.66-89.19-25.17-1.09-7.66-1.09-19.7-.55-32.83v-18.6c0-19.7,23-58.55,55.81-63.47l3.28-.55,1.09,1.64c2.19,0,8.76,2.19,29.55,3.28,21.34-1.09,27.36-2.74,29.55-3.28l1.09-1.64h3.28m-60.78-8.74-5.1.85-3.22.54c-16.65,2.52-32.73,12.89-45.3,29.22-10.64,13.82-17.26,30-17.26,42.16v18.44c-.63,15.26-.42,26.72.62,34.06,1.56,12.18,11.18,20.85,28.6,25.78,15,4.25,37.44,6.32,68.53,6.32H199c31.06,0,53.49-2.07,68.58-6.32,8.4-2.37,14.79-5.43,19.55-9.37a25.88,25.88,0,0,0,9.51-16.25l.1-.61V312.55l-1.08-18.39C295.52,282,289,266,278.67,252.25c-12.39-16.41-28.38-27-45-29.74l-.65-.11h-8.23l-1.69,2.54c-3.52.67-10.5,1.64-24.66,2.38a186.68,186.68,0,0,1-24.87-2.67l-2-3Z"/><g id="01f949be-c8fd-460c-8195-381a74c4b085" data-name="Gilet"><path class="2681a007-0d32-42cc-9d07-e9550900f9e6" d="M193.4,375v0c-59.27-.64-85.7-9.26-88.14-28.62-1-7-1.24-15.89-.76-28.84a6.56,6.56,0,0,1,6.22-6.34c9.86-.54,18.15-2.52,22.18-5.29,10.95-7.53,14.85-25.28,14.85-39.37,0-7.52-3.77-15.84-6.8-22.53-.38-.84-.75-1.66-1.11-2.45a5.18,5.18,0,0,1,1.89-6.46c4.62-3,9-4.44,14.12-6.07l1.17-.38,1.18.35c6.29,1.85,10.56,15,12.71,23.52,6.61,5.7,21.3,18,27.93,22,6.63-4,21.31-16.3,27.93-22,2.14-8.52,6.42-21.67,12.71-23.52l1.18-.35,1.17.38c5.1,1.64,9.51,3,14.12,6.07a5.18,5.18,0,0,1,1.9,6.46L256.73,244c-3,6.68-6.8,15-6.8,22.52,0,14.09,3.9,31.84,14.85,39.37,4,2.77,12.32,4.75,22.18,5.29a6.56,6.56,0,0,1,6.22,6.34c.48,13,.24,21.87-.77,28.92C290,365.72,263.57,374.34,204.28,375v0l-5,0Z"/><path class="d1d47acc-3921-4e97-92b2-aa7aece0b29b" d="M240.6,232.8c5,1.6,9,2.89,13.15,5.61a1.2,1.2,0,0,1,.44,1.49c-3.28,7.38-8.25,17.23-8.25,26.6,0,15.26,4.27,34.2,16.58,42.67,6.63,4.56,19.06,5.71,24.23,6a2.59,2.59,0,0,1,2.45,2.5c.44,11.94.3,21-.73,28.2-2.16,17.19-29.8,24.88-88.17,25.15H197.4c-58.37-.28-86-8-88.17-25.15-1-7.19-1.18-16.26-.73-28.2a2.59,2.59,0,0,1,2.45-2.5c5.17-.28,17.6-1.43,24.23-6,12.31-8.47,16.58-27.4,16.58-42.67,0-9.38-5-19.23-8.25-26.6a1.2,1.2,0,0,1,.44-1.49c4.15-2.72,8.16-4,13.15-5.61,5.38,1.58,10.25,21.87,10.25,21.87s24.11,20.92,31.51,24.35c7.4-3.44,31.51-24.35,31.51-24.35s4.88-20.29,10.25-21.87m.1-8.37-2.36.69c-5.09,1.49-8.8,6.43-12.42,16.5-1.18,3.29-2.11,6.49-2.69,8.62-7.82,6.71-18.43,15.37-24.4,19.47-6-4.09-16.57-12.75-24.39-19.47-.58-2.13-1.51-5.32-2.69-8.62-3.61-10.07-7.33-15-12.42-16.5l-2.36-.69-2.34.75c-5.16,1.65-10,3.22-15.09,6.54a9.16,9.16,0,0,0-3.36,11.44l1.12,2.47c2.87,6.34,6.45,14.22,6.45,20.88,0,12.48-3.44,29.42-13.12,36.08-3.4,2.34-11.11,4.1-20.13,4.59a10.54,10.54,0,0,0-10,10.19c-.49,13.16-.24,22.29.8,29.57,1.54,12,11.22,20.57,28.75,25.54,13.64,3.87,33.07,6,59.23,6.45V379l8.11,0h11v-.09c26.17-.46,45.6-2.58,59.24-6.45,17.54-5,27.21-13.57,28.75-25.54,1-7.28,1.29-16.4.8-29.57a10.54,10.54,0,0,0-10-10.19c-9-.5-16.73-2.26-20.13-4.59-9.68-6.66-13.12-23.6-13.12-36.08,0-6.65,3.57-14.54,6.45-20.88l1.12-2.47a9.16,9.16,0,0,0-3.36-11.44c-5.07-3.32-9.94-4.88-15.09-6.54l-2.34-.75Z"/><path class="2681a007-0d32-42cc-9d07-e9550900f9e6" d="M194.9,373.52v0c-59.4-.5-85.81-8.71-88.15-27.33-1-7-1.2-18.2-.57-33.25l.06-1.44,1.27-.67c.37-.2,37-19.81,37-43.81a64,64,0,0,0-5-25.54l-.83-1.89,1.7-1.17a61,61,0,0,1,16-8l.73-.23.74.22c5.39,1.58,9.11,2.71,9.11,2.71l.79.24.49.66c10,13.55,25.56,32.93,30.89,36.65,5.66-4,21.55-24.06,30.83-36.59l.49-.66.79-.24s3.72-1.13,9.11-2.71l.74-.22.73.23c1.47.47,3,1,4.55,1.69a64.4,64.4,0,0,1,11.32,6.73l1.59,1.18-.78,1.82a64.21,64.21,0,0,0-4.9,25.17c0,24,36,43.57,36.34,43.76l1.32.71V346l0,.19c-1.28,8.18-7,14.26-17.51,18.58-11.63,4.67-29.35,7.4-54.21,8.36-6.33.23-13.22.34-20.49.34Z"/><path class="d1d47acc-3921-4e97-92b2-aa7aece0b29b" d="M157.08,232.8c5.38,1.58,9.08,2.71,9.08,2.71s26.22,35.41,32.93,38c6.87-2.93,32.81-38,32.81-38s3.71-1.13,9.08-2.71c1.47.47,2.92,1,4.35,1.61a61.67,61.67,0,0,1,10.8,6.44,66.67,66.67,0,0,0-5.1,26.15c0,25.82,37.66,46,37.66,46v32.83c-1.12,7.14-6.24,12.64-16,16.66-11.41,4.58-29,7.23-53.36,8.17-6.32.23-13.11.34-20.39.34H197.4c-58.37-.28-86-8-88.17-25.15-1.1-7.66-1.1-19.7-.55-32.83,0,0,38.35-20.2,38.35-46a66.52,66.52,0,0,0-5.26-26.54,58.41,58.41,0,0,1,15.31-7.66m-.06-5.23-1.46.47a63.44,63.44,0,0,0-16.62,8.31l-3.4,2.35,1.66,3.78A61.49,61.49,0,0,1,142,267c0,22.48-35.33,41.41-35.69,41.6l-2.54,1.34-.12,2.87c-.64,15.18-.44,26.52.59,33.71,1.39,10.83,10.09,18.38,26.6,23.06,13.91,3.94,34.05,6,61.48,6.38v0l5,0H199c7.29,0,14.21-.12,20.57-.35,25.16-1,43.16-3.76,55-8.53,11.26-4.63,17.67-11.53,19.07-20.52l.06-.38V310l-2.64-1.41c-.35-.19-35-19.06-35-41.56a61.7,61.7,0,0,1,4.69-24.18l1.57-3.64-3.19-2.36a66.84,66.84,0,0,0-11.68-7l-.08,0-.08,0c-1.61-.68-3.21-1.27-4.76-1.77l-1.46-.47-1.47.43c-5.34,1.57-9.09,2.71-9.13,2.72l-1.58.48-1,1.33c-10.35,14-23.21,29.82-28.82,34.87-5.59-5-18.49-20.9-28.88-34.92l-1-1.33-1.58-.48s-3.79-1.15-9.13-2.72l-1.47-.43Z"/><path class="5327b90f-0726-4511-a0f4-91a77a54342c" d="M245.67,265.67c0-9.69,5.21-19.42,8.42-26.89-2.53-1.87-9.32-5.31-12.09-6.78a76.08,76.08,0,0,0-9.1,3.55S204.33,277,199.41,277.17c-6.7-2.6-41.58-44.07-41.58-44.07l-.34-.1a58.7,58.7,0,0,0-14.72,7.46A66.52,66.52,0,0,1,148,267c0,25.82-38.35,46-38.35,46-.55,13.13-.55,25.17.55,32.83,1,8.12,7.74,14.12,20.68,18.22,14.11,3,33.35,4.42,58.16,4.54h1.56c7.28,0,14.07-.11,20.39-.34,24.34-.94,41.94-3.59,53.36-8.17,9.75-4,14.88-9.51,16-16.66l2-28.78S245.67,291.49,245.67,265.67Z"/><path class="a595de53-4724-425c-8d68-c21663fe785d" d="M163,317.67V235.34H150.67v82.34H108.51c-.15,4.82-.22,9.44-.17,13.67h90.08V317.67Z"/><path class="a595de53-4724-425c-8d68-c21663fe785d" d="M109.23,345.86c.56,4.46,2.85,8.27,6.93,11.48h82.26V343.67H109C109,344.43,109.13,345.17,109.23,345.86Z"/><path class="a595de53-4724-425c-8d68-c21663fe785d" d="M234.79,317.67V235.34h12.33v82.34l41.58,0c.15,4.82,0,9.42,0,13.65H199.37V317.67Z"/><path class="a595de53-4724-425c-8d68-c21663fe785d" d="M288.56,345.86c-.56,4.46-2.85,8.27-6.93,11.48H199.37V343.67H288.7C288.62,344.43,288.66,345.17,288.56,345.86Z"/><rect class="d1d47acc-3921-4e97-92b2-aa7aece0b29b" x="195.83" y="270.67" width="6.04" height="103"/><path class="3daa443e-dc6f-4270-9403-6cc9801b1be5" d="M247.12,252.94a32.74,32.74,0,0,0-2.45,12.73c0,7.5,2.45,11.95,2.45,11.95Z"/><polygon class="3daa443e-dc6f-4270-9403-6cc9801b1be5" points="281.13 317.69 288.7 317.69 288.7 331.34 280.19 331.34 281.13 317.69"/><path class="3daa443e-dc6f-4270-9403-6cc9801b1be5" d="M279.33,343.67a12,12,0,0,1-2.61,6.4c-2.37,2.72-7.59,7.27-7.59,7.27h12.66s3.83-3.28,4.95-5.84a22.48,22.48,0,0,0,1.83-4.91c.09-.87.13-2.92.13-2.92Z"/></g><path class="bd8382b6-cdec-4c3c-a20b-deca1de23a4e" d="M198.36,246.57c-7.08,0-15.17-1.1-17.88-1.88a67.38,67.38,0,0,1-36.24-20.33c-15-16.3-22.6-40.22-22.6-71.11,0-53.39,26.88-82.8,75.68-82.8,24.21,0,44.09,7.51,57.49,21.71s20.38,34.7,20.38,60.54c0,68.23-33.36,88-61.34,92.56a102.27,102.27,0,0,1-15.44,1.31Z"/><path class="0181bf36-45a7-4027-a51b-5edb9ef4e1b2" d="M197.32,74.45c47.06,0,73.87,28.45,73.87,78.25,0,65.12-31.17,84.24-58,88.61a98.92,98.92,0,0,1-14.79,1.26h-.06c-7.47,0-15.28-1.23-16.91-1.77-17-3.28-55.81-18.6-55.81-87.55,0-50.89,25.17-78.8,71.68-78.8m0-8c-25.47,0-45.39,7.72-59.21,22.94-13.59,15-20.48,36.45-20.48,63.86,0,31.92,8,56.76,23.66,73.82a71.41,71.41,0,0,0,38.28,21.52,88.18,88.18,0,0,0,18.78,2h.06a106.85,106.85,0,0,0,16.11-1.37c18.24-3,33-11.17,43.89-24.32,13.78-16.66,20.77-40.94,20.77-72.18,0-26.9-7.22-48.19-21.47-63.29s-35.06-23-60.4-23Z"/><g id="821cf1f5-1c54-466b-bdd4-7f7191594cf7" data-name="Helmet"><path class="fc2028b3-52fd-4e49-95d1-ea74cbe8911e" d="M271.19,151.7c0-49.79-26.81-77.25-73.87-77.25-46.51,0-71.68,26.91-71.68,77.79,0,1,37.2,16.47,73.73,16.47C237,168.71,271.19,153,271.19,151.7Z"/><path class="3daa443e-dc6f-4270-9403-6cc9801b1be5" d="M199.37,148.2c-23,0-44.67-1.61-61-4.52-19.82-3.54-28.65-8.22-28.65-15.18,0-16.41,19.71-16.41,28.12-16.41,7,0,15.08.53,24.38,1.15,11.19.74,23.87,1.58,37.16,1.58s25.76-.8,36.86-1.51c8.89-.57,17.29-1.1,24.32-1.1,8.52,0,28.48,0,28.48,16.28,0,7-8.84,11.64-28.65,15.18C244,146.59,222.38,148.2,199.37,148.2Z"/><path class="694913cb-4600-467f-9ff8-72700f275b46" d="M137.83,116.59c15.5,0,37.34,2.73,61.54,2.73,24,0,45.71-2.61,61.19-2.61,14.85,0,24,2.4,24,11.78,0,8.4-38.13,15.2-85.17,15.2s-85.17-6.81-85.17-15.2c0-9.47,9-11.91,23.63-11.91m0-9c-9.49,0-15.95,1-20.92,3.16-7.55,3.32-11.7,9.62-11.7,17.74,0,12.19,16.36,16.75,32.36,19.61,16.59,3,38.54,4.59,61.8,4.59s45.21-1.63,61.8-4.59c16-2.86,32.36-7.42,32.36-19.61,0-8.12-4.22-14.4-11.88-17.68-5-2.14-11.51-3.1-21.1-3.1-7.18,0-15.65.54-24.61,1.11-11,.7-23.55,1.5-36.58,1.5s-25.74-.84-36.86-1.57c-9-.6-17.49-1.16-24.68-1.16Z"/><path class="3daa443e-dc6f-4270-9403-6cc9801b1be5" d="M199.37,147.2c-22.95,0-44.55-1.6-60.84-4.51-24.94-4.45-27.83-10.23-27.83-14.2a12.84,12.84,0,0,1,4.16-10v-8.19c0-31,10.05-55,29.09-69.61V39.22l0-.19c.27-2.45,2.4-4,5.35-6.26.59-.44,1.21-.91,1.82-1.39l.11-.09L156.21,28l.11-.06a8.86,8.86,0,0,1,10.3,1.17,96.69,96.69,0,0,1,15.15-3.42v-.33a9.14,9.14,0,0,1,9.13-9.12h20.21a9.14,9.14,0,0,1,9.13,9.13V26a97.24,97.24,0,0,1,13.53,3.12A8.86,8.86,0,0,1,244,28l.11.06,5,3.27.11.09c.62.48,1.23.95,1.82,1.39C254,35,256.1,36.58,256.37,39l0,.19v1.33c18.86,14.39,28.41,37.85,28.41,69.77,0,2.88,0,6.34,0,9.25A12.83,12.83,0,0,1,288,128.5c0,4-2.88,9.74-27.83,14.2C243.92,145.6,222.32,147.2,199.37,147.2Z"/><path class="694913cb-4600-467f-9ff8-72700f275b46" d="M211.11,19.76a5.64,5.64,0,0,1,5.63,5.63V29A93.41,93.41,0,0,1,235,33.18a5.17,5.17,0,0,1,4.69-2.86,5.33,5.33,0,0,1,2.62.68L247,34.13c2.84,2.22,5.72,4.07,5.85,5.28V42.3c20.58,14.84,28.41,39.76,28.41,68,0,3.38,0,7.58,0,10.73a9.21,9.21,0,0,1,3.22,7.45c0,8.4-38.13,15.2-85.17,15.2s-85.17-6.81-85.17-15.2a9.34,9.34,0,0,1,4.16-8.3v-9.88c0-28.15,8.55-53,29.09-67.85V39.41c.13-1.21,3-3.06,5.85-5.28L158,31a5.33,5.33,0,0,1,2.62-.68,5.16,5.16,0,0,1,4.71,2.91,92.86,92.86,0,0,1,19.9-4.45v-3.4a5.64,5.64,0,0,1,5.63-5.62h20.21m0-7H190.9a12.65,12.65,0,0,0-12.33,9.92,99.67,99.67,0,0,0-11.25,2.59,12.37,12.37,0,0,0-12.7-.36l-.22.12-.21.14-4.73,3.13-.24.16-.22.17c-.6.47-1.2.92-1.77,1.35-3.37,2.54-6.29,4.73-6.73,8.67l0,.36c-19,15.34-29.09,39.91-29.09,71.31v6.74a16.56,16.56,0,0,0-4.16,11.44c0,5.13,3.69,9.29,11,12.37,4.77,2,11.41,3.79,19.74,5.27,16.48,2.94,38.3,4.56,61.45,4.56s45-1.62,61.45-4.56c8.33-1.49,15-3.26,19.74-5.27,7.28-3.07,11-7.23,11-12.37a16.63,16.63,0,0,0-3.22-10.18c0-2.62,0-5.53,0-8,0-15.73-2.34-29.72-7-41.58a70.65,70.65,0,0,0-21.47-29.91l0-.18c-.44-3.95-3.35-6.14-6.73-8.67-.57-.43-1.17-.88-1.77-1.35l-.22-.17-.24-.16-4.73-3.13L246,25l-.22-.12a12.36,12.36,0,0,0-12.66.33c-3.07-.89-6.27-1.64-9.58-2.25a12.65,12.65,0,0,0-12.4-10.23Z"/><rect class="3daa443e-dc6f-4270-9403-6cc9801b1be5" x="180.77" y="15.26" width="40.46" height="124.5" rx="10.13" ry="10.13"/><path class="694913cb-4600-467f-9ff8-72700f275b46" d="M211.11,19.76a5.64,5.64,0,0,1,5.63,5.63V129.63a5.64,5.64,0,0,1-5.62,5.63H190.9a5.64,5.64,0,0,1-5.62-5.62V25.38a5.64,5.64,0,0,1,5.63-5.62h20.21m0-9H190.9a14.64,14.64,0,0,0-14.62,14.63V129.63a14.64,14.64,0,0,0,14.63,14.63h20.21a14.64,14.64,0,0,0,14.63-14.62V25.38a14.64,14.64,0,0,0-14.62-14.63Z"/><path class="3daa443e-dc6f-4270-9403-6cc9801b1be5" d="M153.08,101.75A10.14,10.14,0,0,1,143,91.63V39.16l0-.25c.32-2.87,2.71-4.67,5.74-7,.58-.44,1.2-.9,1.81-1.38l.14-.11,5-3.32.14-.08a9.87,9.87,0,0,1,4.83-1.26,9.62,9.62,0,0,1,9.47,7.55,10.13,10.13,0,0,1,.21,2V91.63a10.14,10.14,0,0,1-10.12,10.12Z"/><path class="694913cb-4600-467f-9ff8-72700f275b46" d="M160.66,30.32a5.07,5.07,0,0,1,5.06,4,5.6,5.6,0,0,1,.11,1.13V91.63a5.64,5.64,0,0,1-5.62,5.63h-7.13a5.64,5.64,0,0,1-5.62-5.62V39.41c.13-1.21,3-3.06,5.85-5.28L158,31a5.34,5.34,0,0,1,2.62-.68m0-9h0a14.39,14.39,0,0,0-7,1.84l-.28.16-.27.18-4.73,3.13-.3.2-.29.22c-.59.46-1.17.9-1.73,1.32-3.43,2.58-7,5.24-7.51,10.05l-.05.49V91.63a14.64,14.64,0,0,0,14.63,14.63h7.13a14.64,14.64,0,0,0,14.63-14.63V35.41a14.63,14.63,0,0,0-.3-2.95,14.14,14.14,0,0,0-13.88-11.14Z"/><path class="3daa443e-dc6f-4270-9403-6cc9801b1be5" d="M240.14,101.75A10.14,10.14,0,0,1,230,91.63V35.41a10.08,10.08,0,0,1,.21-2,9.62,9.62,0,0,1,9.47-7.55,9.88,9.88,0,0,1,4.83,1.26l.14.08,5,3.32.14.11c.61.48,1.22.94,1.81,1.38,3,2.28,5.42,4.08,5.74,6.95l0,.25V91.63a10.14,10.14,0,0,1-10.13,10.12Z"/><path class="694913cb-4600-467f-9ff8-72700f275b46" d="M239.69,30.32a5.34,5.34,0,0,1,2.62.68L247,34.13c2.84,2.22,5.72,4.07,5.85,5.28V91.63a5.64,5.64,0,0,1-5.62,5.63h-7.13a5.64,5.64,0,0,1-5.62-5.62V35.41a5.6,5.6,0,0,1,.11-1.13,5.07,5.07,0,0,1,5.06-4m0-9a14.14,14.14,0,0,0-13.88,11.14,14.63,14.63,0,0,0-.3,2.95V91.63a14.64,14.64,0,0,0,14.63,14.63h7.13a14.64,14.64,0,0,0,14.62-14.63V38.91l-.05-.49c-.53-4.81-4.08-7.47-7.51-10.05-.56-.42-1.15-.86-1.73-1.32l-.29-.22-.3-.2-4.73-3.13-.27-.18-.28-.16a14.38,14.38,0,0,0-7-1.84Z"/><path class="3daa443e-dc6f-4270-9403-6cc9801b1be5" d="M281.3,110.31c0,6.26,0,15.36,0,15.36S233.1,130,200,130c-35.22,0-81.63-6.33-81.63-6.33V110.31c0-45.49,22.3-82.36,81.47-82.36C261,27.95,281.3,64.82,281.3,110.31Z"/><path class="a595de53-4724-425c-8d68-c21663fe785d" d="M118.47,105.4c2.14.27,40.44,9.11,69.72,9.11,28.31,0,80.57-7.51,80.57-7.51s0-7.36,0-12.43c0-35.4-27.1-64.34-74.9-66.49C141.22,30.43,120,63.75,118.47,105.4Z"/><rect class="3daa443e-dc6f-4270-9403-6cc9801b1be5" x="183.27" y="17.76" width="35.46" height="119.5" rx="7.63" ry="7.63"/><path class="3daa443e-dc6f-4270-9403-6cc9801b1be5" d="M211.11,19.76a5.64,5.64,0,0,1,5.63,5.63V129.63a5.64,5.64,0,0,1-5.62,5.63H190.9a5.64,5.64,0,0,1-5.62-5.62V25.38a5.64,5.64,0,0,1,5.63-5.62h20.21m0-4H190.9a9.64,9.64,0,0,0-9.62,9.62V129.63a9.64,9.64,0,0,0,9.63,9.63h20.21a9.64,9.64,0,0,0,9.63-9.62V25.38a9.64,9.64,0,0,0-9.62-9.62Z"/><path class="3daa443e-dc6f-4270-9403-6cc9801b1be5" d="M153.08,99.25a7.63,7.63,0,0,1-7.62-7.62V39.19c.2-1.8,2-3.16,4.76-5.23.6-.45,1.22-.92,1.85-1.41l.06,0L157,29.3l.06,0a7.37,7.37,0,0,1,3.6-.94,7,7,0,0,1,7,5.56,7.61,7.61,0,0,1,.16,1.53V91.63a7.63,7.63,0,0,1-7.62,7.63Z"/><path class="3daa443e-dc6f-4270-9403-6cc9801b1be5" d="M160.66,30.32a5.07,5.07,0,0,1,5.06,4,5.6,5.6,0,0,1,.11,1.13V91.63a5.64,5.64,0,0,1-5.62,5.63h-7.13a5.64,5.64,0,0,1-5.62-5.62V39.41c.13-1.21,3-3.06,5.85-5.28L158,31a5.34,5.34,0,0,1,2.62-.68m0-4h0a9.38,9.38,0,0,0-4.58,1.2l-.13.07-.12.08-4.73,3.13-.13.09-.13.1c-.61.48-1.23.94-1.82,1.38-3,2.29-5.25,3.95-5.55,6.61l0,.22V91.63a9.64,9.64,0,0,0,9.63,9.63h7.13a9.64,9.64,0,0,0,9.63-9.63V35.41a9.62,9.62,0,0,0-.2-1.94,9.12,9.12,0,0,0-9-7.15Z"/><path class="3daa443e-dc6f-4270-9403-6cc9801b1be5" d="M240.14,99.25a7.63,7.63,0,0,1-7.62-7.62V35.41a7.66,7.66,0,0,1,.16-1.53,7,7,0,0,1,7-5.56,7.37,7.37,0,0,1,3.6.94l.12.08,4.79,3.17.06,0c.62.49,1.25,1,1.85,1.41,2.75,2.06,4.56,3.43,4.76,5.23V91.63a7.63,7.63,0,0,1-7.62,7.63Z"/><path class="3daa443e-dc6f-4270-9403-6cc9801b1be5" d="M239.69,30.32a5.34,5.34,0,0,1,2.62.68L247,34.13c2.84,2.22,5.72,4.07,5.85,5.28V91.63a5.64,5.64,0,0,1-5.62,5.63h-7.13a5.64,5.64,0,0,1-5.62-5.62V35.41a5.6,5.6,0,0,1,.11-1.13,5.07,5.07,0,0,1,5.06-4m0-4a9.12,9.12,0,0,0-9,7.15,9.62,9.62,0,0,0-.2,1.94V91.63a9.64,9.64,0,0,0,9.63,9.63h7.13a9.64,9.64,0,0,0,9.62-9.63V39.19l0-.22c-.3-2.66-2.5-4.31-5.55-6.61-.59-.44-1.2-.9-1.82-1.38l-.13-.1-.13-.09-4.73-3.13-.12-.08-.13-.07a9.37,9.37,0,0,0-4.58-1.2Z"/><path class="3daa443e-dc6f-4270-9403-6cc9801b1be5" d="M199.37,145.7c-35,0-87.17-4.58-87.17-17.2,0-12.26,13-13.91,25.62-13.91,7,0,15,.53,24.22,1.14,11.23.75,23.95,1.59,37.32,1.59s25.88-.8,37-1.51c9.23-.59,17.21-1.09,24.16-1.09,12.85,0,26,1.64,26,13.78C286.54,141.12,234.41,145.7,199.37,145.7Z"/><path class="3daa443e-dc6f-4270-9403-6cc9801b1be5" d="M137.83,116.59c15.5,0,37.34,2.73,61.54,2.73,24,0,45.71-2.61,61.19-2.61,14.85,0,24,2.4,24,11.78,0,8.4-38.13,15.2-85.17,15.2s-85.17-6.81-85.17-15.2c0-9.47,9-11.91,23.63-11.91m0-4c-8.27,0-27.63,0-27.63,15.91,0,5.75,6.88,8.65,9.14,9.6,4.56,1.93,11,3.64,19.1,5.08,16.31,2.91,37.95,4.52,60.92,4.52s44.61-1.6,60.92-4.52c8.11-1.45,14.54-3.16,19.1-5.08,2.26-1,9.14-3.86,9.14-9.6,0-15.78-19.6-15.78-28-15.78-7,0-15.41.53-24.29,1.1-11.11.71-23.71,1.51-36.9,1.51s-26-.84-37.19-1.58c-9.3-.62-17.32-1.15-24.35-1.15Z"/><path class="a595de53-4724-425c-8d68-c21663fe785d" d="M199.37,119.32c-47,0-85.16-10.33-85.17,9.17,9.18,6.63,42.7,11.54,82.67,11.54,47,0,85.17-6.81,85.17-15.2a11,11,0,0,0-.61-3.69C271.46,112.41,238.51,119.32,199.37,119.32Z"/><path class="a595de53-4724-425c-8d68-c21663fe785d" d="M162.72,31.27a5.37,5.37,0,0,0-2.57-.92A5.32,5.32,0,0,0,158,31l-4.73,3.13c-2.84,2.22-5.72,4.07-5.85,5.28V91.63a5.57,5.57,0,0,0,.43,2.15,5.51,5.51,0,0,0,2.19.47h7.13a5.64,5.64,0,0,0,5.63-5.62V32.41a5.6,5.6,0,0,0-.11-1.13Z"/><path class="a595de53-4724-425c-8d68-c21663fe785d" d="M185.27,25.38v86a5.79,5.79,0,0,0,2.62.63H208.1a5.5,5.5,0,0,0,5.63-5.32V22.24a5,5,0,0,0-.2-1.37,5.79,5.79,0,0,0-3.43-1.12H190.9A5.64,5.64,0,0,0,185.27,25.38Z"/><path class="a595de53-4724-425c-8d68-c21663fe785d" d="M241.31,31a5.32,5.32,0,0,0-2.13-.65,5,5,0,0,0-4.55,3.93,5.6,5.6,0,0,0-.11,1.13V91.63a5.57,5.57,0,0,0,.43,2.15,5.51,5.51,0,0,0,2.19.47h7.13a5.64,5.64,0,0,0,5.63-5.62V37.08c-1.08-.87-2.47-1.87-3.85-3Z"/></g></g></svg>