<svg xmlns="http://www.w3.org/2000/svg" xmlns:xlink="http://www.w3.org/1999/xlink" width="400" height="400" fill="none" xmlns:v="https://vecta.io/nano"><style><![CDATA[.I{stroke-width:2}.J{stroke-linejoin:round}.K{stroke-linecap:round}]]></style><g clip-path="url(#K)"><path d="M198.409 375c-30.71 0-52.77-2-67.44-6.17-16-4.52-24.4-11.88-25.73-22.5-1-7-1.2-18.31-.58-33.41v-18.5c0-20.1 23.06-62 59.22-67.43l5.77-1 1.5 2.26 1.46.26c8.524 1.513 17.14 2.442 25.79 2.78 17.16-.89 24-2.1 27.08-2.8l1.42-2.12h5.76l.33.05c15.62 2.6 30.71 12.62 42.48 28.21 9.76 12.93 16.08 28.46 16.13 39.63l1.09 18.61v33.26.31c-1.69 10.56-10.26 17.92-26.23 22.42-14.74 4.14-36.81 6.14-67.46 6.14h-.59z" fill="#fff"/><path d="M232.34 230.4c32.83 5.47 55.27 44.32 55.27 64l1.09 18.6v32.83C286 363.37 259.15 371 199 371h-.55c-60.19 0-87-7.66-89.19-25.17-1.09-7.66-1.09-19.7-.55-32.83v-18.6c0-19.7 23-58.55 55.81-63.47l3.28-.55 1.09 1.64c2.19 0 8.76 2.19 29.55 3.28 21.34-1.09 27.36-2.74 29.55-3.28l1.09-1.64h3.28l-.02.02zm-60.76-8.76l-5.1.85-3.22.54c-16.65 2.52-32.73 12.89-45.3 29.22-10.64 13.82-17.26 30-17.26 42.16v18.44c-.63 15.26-.42 26.72.62 34.06 1.56 12.18 11.18 20.85 28.6 25.78 15 4.25 37.44 6.32 68.53 6.32h.55c31.06 0 53.49-2.07 68.58-6.32 8.4-2.37 14.79-5.43 19.55-9.37a25.89 25.89 0 0 0 9.51-16.25l.1-.61v-33.91l-1.08-18.39C295.52 282 289 266 278.67 252.25c-12.39-16.41-28.38-27-45-29.74l-.65-.11h-8.23l-1.69 2.54c-3.52.67-10.5 1.64-24.66 2.38a186.67 186.67 0 0 1-24.87-2.67l-2-3 .01-.01z" fill="#000"/><path d="M198.36 246.57c-7.08 0-15.17-1.1-17.88-1.88-13.92-2.79-26.604-9.905-36.24-20.33-15-16.3-22.6-40.22-22.6-71.11 0-53.39 26.88-82.8 75.68-82.8 24.21 0 44.09 7.51 57.49 21.71s20.38 34.7 20.38 60.54c0 68.23-33.36 88-61.34 92.56a102.39 102.39 0 0 1-15.44 1.31h-.05z" fill="#fff"/><path d="M275 156c0-49.79-31.144-84.75-78.204-84.75-46.51 0-75.296 35.87-75.296 86.75 0 1 18.5-1 61.5-7 37.63 0 72 9 92 5z" fill="#cecece"/><path d="M197.319 74.45c47.06 0 73.87 28.45 73.87 78.25 0 65.12-31.17 84.24-58 88.61-4.891.79-9.835 1.211-14.79 1.26h-.06c-7.47 0-15.28-1.23-16.91-1.77-17-3.28-55.81-18.6-55.81-87.55 0-50.89 25.17-78.8 71.68-78.8h.02zm-.02-8c-25.47 0-45.39 7.72-59.21 22.94-13.59 15-20.48 36.45-20.48 63.86 0 31.92 8 56.76 23.66 73.82a71.41 71.41 0 0 0 38.28 21.52c6.171 1.337 12.467 2.008 18.78 2h.06c5.397-.049 10.783-.507 16.11-1.37 18.24-3 33-11.17 43.89-24.32 13.78-16.66 20.77-40.94 20.77-72.18 0-26.9-7.22-48.19-21.47-63.29s-35.06-23-60.4-23l.01.02z" fill="#000"/><g class="J"><path d="M175.89 179.259c15.087-5.398 18.859 0 21.553 4.499 0 0 1.253 3.924 0 11.248-2.155 12.597-21.553 20.995-32.329 24.744 0 0-13.598 2.25-18.858 2.25s-18.859-4.499-18.859-4.499c-8.082-4.499-4.849-1.8-13.47-8.998s-11.674-19.496-10.776-24.745c3.592 3.749 13.438 12.359 16.164 13.497 5.388 2.25 10.776 2.25 16.165 0 7.184-3.749 25.324-12.597 40.41-17.996z" fill="#442c12" stroke="#2c1200" stroke-width=".5"/><g stroke="#624d38" class="I K"><path d="M192.055 186.008c-1.796-2.999-7.543-7.648-16.164-2.249s-21.553 12.747-26.941 15.746c-5.388 2.25-17.242 6.299-21.553 4.499m61.964-15.747c-1.796-1.499-7.005-3.149-13.47 2.25s-15.266 9.748-18.859 11.247c-4.49 1.5-14.548 4.499-18.858 4.499m53.062-13.497s-3.592 5.999-10.776 11.248-26.402 14.397-45.799 8.998c-5.388-1.5-17.242-6.299-21.553-13.497"/></g><path d="M220.11 179.259c-15.087-5.398-18.859 0-21.553 4.499 0 0-1.253 3.924 0 11.248 2.155 12.597 21.553 20.995 32.329 24.744 0 0 13.598 2.25 18.858 2.25s18.859-4.499 18.859-4.499c8.082-4.499 4.849-1.8 13.47-8.998s11.674-19.496 10.776-24.745c-3.592 3.749-13.438 12.359-16.164 13.497-5.388 2.25-10.776 2.25-16.164 0-7.184-3.749-25.325-12.597-40.411-17.996z" fill="#442c12" stroke="#2c1200" stroke-width=".5"/><g stroke="#624d38" class="I K"><path d="M203.945 186.008c1.796-2.999 7.544-7.648 16.165-2.249s21.552 12.747 26.94 15.746c5.388 2.25 17.242 6.299 21.553 4.499m-61.963-15.747c1.796-1.499 7.004-3.149 13.47 2.25s15.266 9.748 18.858 11.247c4.49 1.5 14.548 4.499 18.859 4.499m-53.882-13.497s3.592 5.999 10.777 11.248 26.401 14.397 45.799 8.998c5.388-1.5 17.242-6.299 21.552-13.497"/></g></g><path d="M105 145c-19.131-4.167-33.65-26.279-38.795-39.086l6.614 7.684 17.638 5.764h17.638l28.662-5.764 28.661-9.606c7.349-1.921 24.252-3.842 44.095 0 22.47 4.351 97.008 10.726 110.236 1.12-15.433 21.133-30.866 37.304-50.708 41.147C254 148 235.587 146.074 224.5 145c-16.536-3.759-40.007-2.281-52.5-1l-27 2.259c-6.614.96-22.362 2.583-40-1.259z" fill="#ffb52d"/><path d="M141.166 130.889c-13.732-4.786-2.94-16.01-6.614-21.133l-26.457-1.921c4.409 9.606 3.086 9.221 6.614 15.369s19.843 16.01 30.866 15.37c7.349-.64 15.433 3.842 46.3-1.921 8.888-1.66 26.654-3.822 39.685-1.838 12.077 1.838 46.299 9.522 50.709 5.68s11.023-4.968 11.023-7.685c0-1.921-4.409 0-22.047 3.843s-34.643-6.861-44.095-7.685c-22.047-1.921-24.252 3.842-44.094 3.842s-30.867 1.921-41.89-1.921z" fill="#f3a701"/><path d="M136.756 132.81c-14.502-2.527-16.168-12.167-19.842-17.29l-26.457-1.922c4.41 9.606 3.087 9.222 6.614 15.37s19.843 16.01 30.867 15.369c7.349-.64 18.788 2.005 49.655-3.759 8.888-1.659 23.298-1.983 36.329 0 12.078 1.838 35.276 7.602 50.709 5.681s30.401-11.528 26.457-11.528c-4.41 0-17.638 3.843-30.866 3.843s-28.112-4.403-37.481-5.764c-13.228-1.921-33.071 0-52.914 0s-22.047 1.921-33.071 0z" fill="#de8805"/><path d="M112.504 136.653c-13.228-5.764-16.168-12.168-19.842-17.291l-22.047-5.764c4.409 9.606 11.906 14.986 15.433 21.133S106.476 147.641 117.5 147c7.349-.64 39.787-1.5 45.5-1.5 8.889-1.66 24.272-2 37.5-2 10.729 0 46.772 4.5 60 4.5 13.228-1.921 25.296-9.042 21.769-7.505s-24.252 5.123-33.071 3.842l-37.481-5.763c-13.228-1.921-30.866-1.921-52.913 0s-36.244 2.46-46.3-1.921z" fill="#c97703"/><path d="M77.229 121.652l-6.614-8.054L99.5 121l25.529-2.821c.243-.29.475-.539.704-.738.961-.559 2.675-.223 4.409-.441h.358l1-.5c1.486-.719 3.063-1.431 4.415-1.071l26.266-9.155a5.1 5.1 0 0 1 1.032-.36l15.433-3.843 17.638 1.966c.471.039.946.106 1.415.203l25.042 3.595c.321.016.568.045.765.095L253.5 111c.107-.5.5-.586.5 0l37.088.677L317 106c-1.764 7.685-14.882 12.823-21.503 9.52-2.113-1.055.199-3.908-4.409-3.843-2.224.032-3.262.289-4.41 2.29-3.527 6.148-13.637 6.042-22.047 3.843-4.892-1.279-4.676-5.903-10.631-6.81h-.5c-1.601-.154-2.408 2.307-4.302 2.967-11.024 3.843-19.843 3.474-24.252-4.211-.657-1.144-.686-1.634-1.44-1.826l-.765-.095c-2.622-.127-7.433 4.958-8.819 5.763-3.674 1.922-10.922 0-12.422-5.598-.9-2.351-1.585-3.301-3.801-3.76l-1.415-.203c-1.668-.141-3.286.08-4.409.324-2.205 5.395-14.993 11.927-22.048 7.316-2.414-1.577-3.939-6.383-6.614-5.763l-1.032.36c-4.283 2.025-5.54 9.658-9.992 11.536-6.201 2.617-11.905 1.152-15.433-1.922-.27-.235-.552-.382-.841-.459L131.5 116.5c-.476.23-.541.425-1 .5-.055.009-.303-.007-.358 0l-5.113 1.179c-1.315 1.573-2.932 4.351-5.911 6.947-3.527 3.073-11.023-.272-13.228-1.553-1.198-.696-7.39-6.108-6.39-2.573 3-2-5.822 4.643-9.043 6.047-7.055 3.074-11.759-3.474-13.228-5.395z" fill="url(#B)"/><path d="M77.225 121.651l-6.614-8.054 28.886 7.402L125 116.5c.243-.29.5 1.139.729.94.961-.559 2.537-.222 4.271-.44l1.5-.5c1.486-.719 3.06-1.432 4.411-1.072l26.266-9.156c.326-.154.669-.275 1.032-.36l15.433-3.842 17.638 1.965c.471.04.946.106 1.415.203l25.042 3.596c.321.015.568.045.765.095l29.994 3.07c.107-.5.5-.586.5 0l37.088.677L307 109.5c-2.113-1.054-11.308 2.111-15.916 2.176-2.224.031-3.261.289-4.41 2.29-3.527 6.148-13.637 6.041-22.047 3.842-4.892-1.278-4.675-5.902-10.631-6.809h-.5c-1.601-.154-2.101-1.069-3.996-.409-5.694-4.466-8.5-1.09-13.5-.59-.657-1.144-11.743-1.88-12.498-2.071l-.765-.095c-2.621-.127-7.433 4.958-8.819 5.763-3.674 1.921-10.922 0-12.422-5.598-.899-2.351-1.585-3.301-3.801-3.761l-1.415-.203c-1.668-.141-3.286.08-4.409.325C187 102.5 183 100.5 175.5 102.5c-2.414-1.578-9.616 2.793-12.291 3.412l-1.032.36c-4.283 2.026-5.54 9.658-9.991 11.536-6.202 2.617-11.906 1.153-15.434-1.921a2.08 2.08 0 0 0-.841-.459L131.5 116.5c-.476.23-1.041.425-1.5.5l-5-.5c-1.316 1.573-4.521-.596-7.5 2-3.5.5-8.295 1.781-10.5.5-1.198-.696-8.504-1.537-7.504 1.999 3-2-5.822 4.643-9.043 6.046-7.055 3.074-11.759-3.473-13.228-5.394z" fill="url(#C)"/><path d="M98.84 82.91s15.997-1.197 44.53.386 100.997 5.105 145.513-.437c25.433-3.166 37.48-9.169 41.89-.802 3.477 6.598-.508 15.847-11.024 23.054-16.243 11.132-92.561 4.49-123.465-1.12-33.018-5.993-39.756 9.376-83.78 15.37S64 102.592 64 94.354c0-5.994 23.1-11.444 34.84-11.444z" fill="#de1514" stroke="#000" class="I J"/><path d="M104.87 88.457h42.21c28.762.888 97.228 5.06 137.015 0 40.535-8.466 36.201 4.585 19.765 10.801-14.254 5.391-69.345-.876-110.55-6.13-31.49 0-36.695 7.957-76.38 13.721-40.519 7.356-38.478-7.401-37.496-12.461s14.48-5.93 25.436-5.93z" fill="url(#D)"/><path d="M146.818 88.366l-1.242-.545-41.94.544c-5.557 0-11.69.606-16.456 1.555-2.376.473-3.842.644-5.988 1.687-.787.383-1.447 1.519-1.447 1.519s-.596.493-1.005 1.752c0 0 0-.292-.335 2.919.335 2.919-.41 3.557 3.816 6.672 2.366 1.744 6.016 3.071 11.571 3.602s13.086.273 23.303-1.211c16.422-2.385 27.301-5.861 36.466-8.789l5.726-1.801c10.397-3.161 26.369-5.554 41.407-3.37 19.865 2.885 37.099 6.189 57.956 7.586 10.427.698 20.081 1.049 28.035.885 7.901-.162 13.85-.594 17.631-2.025 4.143-1.567 3.988-2.171 6.615-3.842 1.303-.83 3.745-2.992 4.409-3.842.659-.844.657-2.82 0-3.842-.591-.92-2.865-1.58-4.409-1.921-1.604-.354-5.965.029-8.819 0-5.719-.058-7.66.919-19.9 2.475-32.747 4.165-84.055 2.053-117.191.688l-18.203-.697z" fill="url(#E)" stroke="#000" class="I J"/><path d="M178.646 9.052L147.78 85.217l-8.819 17.291 4.409-1.921c7.35-1.922 17.639-3.843 30.867-7.685s37.48 1.484 52.913 3.406l30.867 3.843-19.843-75.728C227.15 3.289 183.056 2.648 178.646 9.052z" fill="#ffb52d"/><mask id="A" mask-type="alpha" maskUnits="userSpaceOnUse" x="138" y="2" width="115" height="101"><path d="M198.874 9.18l-60.253 78.241 37.257-3.099c14.019-1.384 28.344 6.456 52.269 12.192l23.925 5.736-24.829-90.779c-9.328-16.199-22.681-7.48-28.369-2.292z" fill="#c4c4c4"/></mask><g mask="url(#A)"><path d="M219.194 92.229c20.69.552 38.09-16.861 38.865-38.893s-15.371-40.341-36.061-40.893-38.091 16.861-38.865 38.893 15.371 40.341 36.061 40.893z" fill="url(#F)"/></g><path d="M207.307 19.46c1.764-6.148 0-11.731-2.204-13.011-1.827-1.537-9.58-1.189-11.024.092l2.205 3.842-6.615 20.604-15.433 23.054c.735 16.01 3.051 38.424 22.048 38.424 24.252 0 61.732 7.685 61.732 5.764s-9.855-5.254-15.433-7.685c-8.819-3.842-26.506-1.717-37.48-3.842-19.843-3.842-13.229-3.842-24.252-17.291-8.819-10.759 9.554-26.256 17.637-34.582 2.94-2.562 7.056-9.222 8.819-15.369z" fill="#f9b41e"/><path d="M200.693 16.146c1.764-6.148 2.205-9.655 0-10.936-1.826-1.537-9.58.049-11.023 1.33l2.204 3.842-6.614 20.604-15.433 23.054c.735 16.01-3.563 38.861 15.433 38.861 24.252 1.921 70.552 7.685 72.757 7.685 0-1.921-11.024-7.685-19.843-10.043-24.252-5.327-26.506.641-37.481-1.484-14.06-2.723-15.433-8.923-17.637-18.529-2.976-12.965.735-29.297 8.818-37.622 2.94-2.562 7.056-10.614 8.819-16.762z" fill="#de8805"/><path d="M191.875 14.225c.773-3.37 1.469-7.734 0-9.015l-13.229 3.159-15.433 37.186-17.638 41.583-6.614 15.37 35.276-8.122 15.433-1.921c-8.819-1.921-19.843-26.897-17.638-36.503 1.323-5.764 5.879-12.167 8.819-15.37 2.94-4.483 8.819-16.762 11.024-26.368z" fill="#c97703"/><path d="M238.174 24.422l-6.614-7.685h-28.662-28.661l-2.205 7.685h33.071 33.071z" fill="url(#G)"/><path d="M165.418 42.514l3.111-7.685h72.814l1.241 7.685h-77.166z" fill="url(#H)"/><path d="M147.418 84.781l3.269-7.685h101.255l1.665 7.685H147.418z" fill="url(#I)"/><path d="M161.5 51.5c-.578-.934-.467 1.466-1.538 1.97s-1.473 1.669-.895 2.603L161.5 51.5zm8.327 17.911l-1.941.912c.373.602 1.086.987 1.87 1.009s1.524-.322 1.941-.902l-1.87-1.018zm11.024-15.37l1.869-1.018c-.403-.562-1.109-.903-1.869-.903s-1.467.341-1.87.903l1.87 1.018zm11.023 15.37l-2.35 1.459c.403.562 1.59.463 2.35.463s2.199.099 2.602-.463l-2.602-1.459zm11.024-15.37l2.078-1.411c-.403-.562-1.318-.51-2.078-.51s-1.467.341-1.87.903l1.87 1.018zm11.024 15.37l-1.87 1.018c.403.562 1.109.903 1.87.903s1.675.099 2.078-.463l-2.078-1.459zm11.023-15.37l2.531-1.411c-.403-.562-1.771-.51-2.531-.51s-1.466.341-1.869.903l1.869 1.018zm11.024 15.37l-1.87 1.018c.396.552 1.086.891 1.832.903s2.151-.307 2.569-.847l-2.531-1.074zm11.727-11.091c.68-.88.306-1.328-.703-1.921S245.681 53.62 245 54.5l2.696 3.82zm-88.629-2.248l8.819 14.25 1.941-.912 1.941-1.691L161.5 51.5l-2.433 4.573zm12.63 14.356L182.72 55.06l-3.739-2.037-11.024 15.369 3.74 2.037zM178.5 55.5l11.024 15.37 4.22-2.477-11.024-15.369-4.22 2.477zm15.976 15.37L205.5 55.5l-4.472-2.477-11.023 15.369 4.471 2.477zm6.552-15.81l11.024 15.369L216 68l-11.024-15.37-3.948 2.429zM216 70.87l11.024-15.37-3.948-2.477-11.024 15.369L216 70.87zm7.076-15.81l11.023 15.369L238.5 68l-11.024-15.37-4.4 2.429zM238.5 70.485l9.196-12.164L245 54.5l-10.859 13.837 4.359 2.148z" fill="url(#J)"/><g stroke="#000" class="J"><path d="M178.646 9.052l-33.071 78.086-6.614 15.37c7.35-1.921 17.639-3.843 30.866-7.685 17.638-3.842 37.481 0 52.914 1.921s35.559 3.681 35.559 3.681l-20.126-76.003C227.15 3.289 183.056 2.648 178.646 9.052z" class="I"/><path d="M263.609 146.351l.149-.018c28.054-4.907 42.738-23.539 51.805-35.044 1.83-2.322 3.432-4.355 4.868-5.925 4.94-5.398 8.375-9.384 10.266-12.787.96-1.728 1.563-3.374 1.745-5.039.183-1.679-.071-3.288-.694-4.923-1.824-4.784-6.558-5.998-10.743-6.091-3.545-.079-7.233.625-9.565 1.071l-1.191.222c-7.133 1.247-18.121 3.169-28.973 4.539-10.385 1.311-20.46 2.09-26.911 1.36l-16.62-57.963c-.012-.041-.026-.081-.041-.121-1.241-3.257-3.93-6.31-7.528-8.953-3.614-2.656-8.244-4.972-13.534-6.719-10.579-3.494-23.949-4.765-37.455-1.813a1.5 1.5 0 0 0-1.054.865l-31.738 72.661-45.612 1.055c-22.309.003-33.408 6.714-35.944 8.931-.59.516-.905 1.23-1.082 1.89-.182.682-.258 1.461-.258 2.281 0 1.643.304 3.646.878 5.78 1.143 4.247 3.42 9.249 6.87 13.295l2.584 3.868c5.678 8.605 11.972 18.143 24.459 23.602 4.618 2.02 12.881 3.807 21.386 4.696 8.466.885 17.474.914 23.627-.749 10.96-1.905 38.259-3.821 49.196-3.821 12.835 0 23.049 1.155 32.862 2.264l3.355.377c10.867 1.208 21.526 2.184 34.892 1.21z" stroke-width="3"/></g></g><defs><linearGradient id="B" x1="114.709" y1="123.204" x2="310.899" y2="118.145" xlink:href="#L"><stop stop-color="#024492"/><stop offset="1" stop-color="#2e5fbd"/></linearGradient><linearGradient id="C" x1="114.705" y1="123.203" x2="310.895" y2="118.144" xlink:href="#L"><stop stop-color="#00640b"/><stop offset="1" stop-color="#248b2f"/></linearGradient><linearGradient id="D" x1="200.016" y1="87.463" x2="200.016" y2="107.365" xlink:href="#L"><stop stop-color="#a91715"/><stop offset="1" stop-color="#771104"/></linearGradient><radialGradient id="E" cx="0" cy="0" r="1" gradientTransform="translate(207.308 102.071) rotate(-70.2711) scale(32.6559 1024.6)" xlink:href="#L"><stop stop-color="#771104"/><stop offset="1" stop-color="#771104" stop-opacity="0"/></radialGradient><radialGradient id="F" cx="0" cy="0" r="1" gradientTransform="translate(220.596 52.3354) rotate(92.013) scale(39.9178 37.4749)" xlink:href="#L"><stop stop-color="#ffdb60"/><stop offset="1" stop-color="#ffb52d"/></radialGradient><linearGradient id="G" x1="189.67" y1="19.46" x2="227.11" y2="21.988" xlink:href="#L"><stop stop-color="#0437ba"/><stop offset="1" stop-color="#1667c6"/></linearGradient><linearGradient id="H" x1="213.922" y1="36.751" x2="176.442" y2="36.751" xlink:href="#L"><stop stop-color="#ee2924"/><stop offset="1" stop-color="#8e1404"/></linearGradient><linearGradient id="I" x1="229.355" y1="80.938" x2="163.236" y2="83.467" xlink:href="#L"><stop stop-color="#e50007"/><stop offset="1" stop-color="#8e1404"/></linearGradient><linearGradient id="J" x1="172.032" y1="61.726" x2="264.631" y2="61.726" xlink:href="#L"><stop stop-color="#00640b"/><stop offset="1" stop-color="#52be5e"/></linearGradient><clipPath id="K"><path fill="#fff" d="M0 0h400v400H0z"/></clipPath><linearGradient id="L" gradientUnits="userSpaceOnUse"/></defs></svg>