<svg version="1.1" id="Merchant-Icon" xmlns="http://www.w3.org/2000/svg" x="0" y="0" width="112.252" height="112.25" xml:space="preserve"><style><![CDATA[.st0{fill:#482402}.st1{fill:#7C7D80}.st2{opacity:0.6;fill:#3333FF}.st3{fill:#4F0066}.st5{fill:#B35800}.st6{opacity:0.7;fill:#4DA45F}.st7{fill:#B85739}.st8{opacity:0.6;fill:#7003A3}.st9{opacity:0.6;fill:#70ABF1}.st10{fill:#8C0039}.st11{fill:#231F20}.st12{opacity:0.6;fill:#414042}.st13{clip-path:url(#SVGID_2_)}.st14{fill:#C1C1C1}.st15{fill:#FCD001}.st16{fill:#FF0000}.st17{fill:#FF963B}.st18{fill:#FFFBF2}.st19{opacity:0.6;fill:#B30000}.st20{fill:none;stroke:#58595B;stroke-width:3;stroke-miterlimit:10}.st21{opacity:0.6;fill:#B8CCCC}.st22{fill:#6BB2B0}.st23{fill:#0000B2}.st24{fill:#0071BC}.st25{fill:#00AAFF}.st26{opacity:0.6;clip-path:url(#SVGID_2_);fill:#58595B}.st27{fill:#D04DF7}.st28{fill:#D1EBFF}.st30{fill:#086800}.st31{opacity:0.6;fill:#F27202}.st32{opacity:0.6;fill:#F77C00}.st33{fill:#753802}.st35{fill:#A7A9AC}.st36{opacity:0.6;fill:#93320F}.st37{fill:#0EDD1D}.st38{fill:#414042}]]></style><g id="Silver"><path d="M54.072 4.438c9.604-.001 19.263 2.526 22.038 6.563 2.216 3.224 24.102 75.072 24.44 78.905.45 5.108-10.924 17.906-45.06 17.906-.514 0-1.032-.003-1.556-.009-37.25-.417-42.411-15.714-42.244-20.396.148-4.17 17.152-70.764 22.09-76.643 3.728-4.436 11.99-6.326 20.292-6.326m-.072-4v4V.5h.072c-5.063 0-17.475.725-23.354 7.723-.949 1.131-3.834 4.551-13.637 40.468-3.864 14.156-9.275 35.435-9.388 38.583-.053 1.485.181 6.754 5.416 12.24 7.576 7.939 21.296 12.073 40.781 12.292.54.006 1.072.008 1.601.008 29.744 0 41.566-9.403 45.269-13.446 2.678-2.926 4.019-6.055 3.775-8.813-.302-3.417-10.514-36.719-11.677-40.505C81.329 11.531 79.845 9.427 79.37 8.735 75.158 2.611 63 .438 54 .438z"/><path d="M53.918 109.304c-23.399-.262-34.124-6.409-39-11.52-3.624-3.798-4.817-7.877-4.726-10.43.134-3.757 17.086-71.179 22.44-77.554 5.204-6.194 16.728-6.862 21.44-6.862 8.821 0 19.866 2.257 23.274 7.213 2.712 3.945 24.404 76.291 24.699 79.623.181 2.051-.931 4.502-3.129 6.903-3.479 3.799-14.675 12.635-43.425 12.635-.52.001-1.043-.002-1.573-.008z" fill="#d5d5d5"/><path d="M54.072 4.438c9.604-.001 19.263 2.526 22.038 6.563 2.216 3.224 24.102 75.072 24.44 78.905.45 5.108-10.924 17.906-45.06 17.906-.514 0-1.032-.003-1.556-.009-37.25-.417-42.411-15.714-42.244-20.396.148-4.17 17.152-70.764 22.09-76.643 3.728-4.436 11.99-6.326 20.292-6.326m-.072-3v3V1.5h.036c-4.923 0-16.961.689-22.571 7.367-2.45 2.918-6.962 16.395-13.429 40.086-4.345 15.918-9.25 35.581-9.348 38.356-.049 1.386.177 6.311 5.142 11.514 5.076 5.319 16.148 11.715 40.07 11.982.536.006 1.065.008 1.59.008 29.347 0 40.918-9.177 44.531-13.122 2.486-2.715 3.736-5.574 3.518-8.049-.298-3.372-11.174-38.793-11.637-40.299-5.239-17.049-11.84-37.836-13.356-40.042C74.81 3.869 64 1.438 54 1.438z" fill="#4f4f4f"/><path id="head_11_" d="M34.088 10.354c-1.266 1.705-.461 8.992 16.543 10.119 17.289 1.144 18.254-1.825 18.754-1.486l19.648 82.791s10.246-4.488 11.496-10.906c.287-1.479-1.334-5.905-4.168-16.002-2.949-10.508-8.225-26.55-12.332-40.33-5.168-17.33-8.002-23.553-8.002-23.553S71.926 4.838 55.611 4.49c-15.017-.322-20.257 4.156-21.523 5.864z" opacity=".6" fill="#5e5e5e"/></g></svg>