<svg xmlns="http://www.w3.org/2000/svg" width="400" height="400" viewBox="0 0 400 400"><defs><style>.\35 9b9de7e-d6e9-4f62-85d4-4f8bf31d1cfc{fill:#a7a9ac;}.a7a4ced4-7db8-496c-a7ac-9a1b818df136{fill:#414042;}.b26b44aa-3160-4ce7-acdb-419995f49de3{fill:#808285;}.c0b3421d-03fa-4138-aafa-d60d851ea404{fill:#d1d3d4;}</style></defs><title>Elephant_2</title><g id="a382d01f-040b-42c3-9f9d-912f1a299d44" data-name="Elephant"><path class="59b9de7e-d6e9-4f62-85d4-4f8bf31d1cfc" d="M77.64,187.81c-2.91,0-6-.16-9.31-.48C54.53,186,38.27,177.85,20,163.15c-.61-.49-1-.83-1.24-1a3.13,3.13,0,0,1-1.35-3.45l.59-2.23,2.37-.06a3.07,3.07,0,0,1,1.18.24c.27.11,31.53,11.83,47,13,1.29.1,2.74.14,4.3.14a126.59,126.59,0,0,0,14.39-1,12.32,12.32,0,0,1,2.72-.3,8.94,8.94,0,0,1,9.13,6.73c1.63,5.62-2.59,9.19-6,10.3C92,186.06,87.3,187.81,77.64,187.81Z"/><path class="a7a4ced4-7db8-496c-a7ac-9a1b818df136" d="M20.39,159.42h0c1.39.57,32.41,12,48,13.19,1.45.11,3,.15,4.53.15a129.2,129.2,0,0,0,14.94-1A9,9,0,0,1,90,171.5a6,6,0,0,1,6.25,4.57c1.45,5-4.16,6.66-4.16,6.66s-4.16,2.08-14.45,2.08c-2.6,0-5.6-.13-9-.47-22.75-2.22-46.89-24-48.25-24.72-.09-.05-.07-.21,0-.21m0-6h0a6.11,6.11,0,0,0-3.32,11.21l1.07.86c18.72,15.07,35.51,23.43,49.9,24.83,3.37.33,6.6.5,9.6.5,9.76,0,14.87-1.74,16.6-2.47,5.29-1.8,9.74-7.18,7.77-13.94a11.92,11.92,0,0,0-12-8.9,15.48,15.48,0,0,0-3.24.34,123.54,123.54,0,0,1-13.87.93c-1.49,0-2.87,0-4.09-.14-13.76-1-42.73-11.4-46.14-12.77a6,6,0,0,0-2.29-.45Z"/><path class="59b9de7e-d6e9-4f62-85d4-4f8bf31d1cfc" d="M157.57,307.51c-14.32,0-15.43-9.51-15.43-12.43V216.57a37.58,37.58,0,0,1-4-8.28,37.72,37.72,0,0,1-15,2.95,47.12,47.12,0,0,1-13.67-2.07c-4.23-1.28-9.38-5.55-15.67-11-1.26-1.09-2.48-2.15-3.51-3l-.76.19c-.56.16-14.7,4.29-16.62,26.28-1.35,15.49.36,22.95,6.53,28.52a12.38,12.38,0,0,0,8.55,3.5c6.18,0,12.81-4.3,18.13-7.76,1.41-.92,2.74-1.78,4-2.51a8.58,8.58,0,0,1,12.16,3.82l3.38,5.84.12.29a9.47,9.47,0,0,1-2.71,10.87l-.54.46C116.05,270.14,100.74,283,82.81,283a36.87,36.87,0,0,1-4.34-.26C47.51,279,36.26,233,36.25,203c0-61.71,23.9-87.06,26.5-89.64l1.7-2c.43-1.73.84-3.23,1.28-4.67C76.41,71.52,105,46.94,135.31,46.94A53.85,53.85,0,0,1,151,49.25a55.82,55.82,0,0,1,14.16,6.63c7.86-2.93,14.68-4.94,24.89-4.94,20.15,0,40.49,15.7,52.44,40.23H255c26.56,0,51.65,8.27,70.64,23.29C346,130.53,357.18,153.09,357.25,178c.39,3.91,4.71,46.93,5.31,60.59a5,5,0,0,1-1.4,3.74,5.13,5.13,0,0,1-3.69,1.57h0a5.05,5.05,0,0,1-3-1v50.11c0,2.92-1.11,12.43-15.43,12.43h-31.5c-14,0-15.38-9.16-15.43-12.26l-2.58-38A118.4,118.4,0,0,1,249,262.51c-13.2,0-28.15-3.24-44.5-9.63v42.2c0,2.92-1.11,12.43-15.43,12.43Z"/><path class="a7a4ced4-7db8-496c-a7ac-9a1b818df136" d="M135.31,51.44a49.24,49.24,0,0,1,14.33,2.12,51.92,51.92,0,0,1,14.87,7.36c8.79-3.37,15.15-5.47,25.48-5.47,20.12,0,39.2,17.21,49.58,40.23H255c50.6,0,97.75,32,97.75,82.58,0,0,4.7,46.52,5.32,60.56a.57.57,0,0,1-.59.61.56.56,0,0,1-.55-.42L350,214.76v78.32c0,6-4.89,7.93-10.93,7.93h-31.5c-6,0-10.93-1.89-10.93-7.93l-3-44.27A115.22,115.22,0,0,1,249,258c-16.19,0-33.4-5.13-49-11.84v48.91c0,6-4.89,7.93-10.93,7.93h-31.5c-6,0-10.93-1.89-10.93-7.93V215c-1.91-2-4-7.05-5.9-13.21a31.23,31.23,0,0,1-17.52,4.93,42.88,42.88,0,0,1-12.36-1.87c-5.33-1.62-15.07-11.43-19.46-14.59h0L88.5,191s-17.75,4.5-20,30.25c-1.28,14.65-.27,24.79,8,32.25a16.78,16.78,0,0,0,11.56,4.66c9.34,0,18.47-7.4,24.4-10.9a4.08,4.08,0,0,1,5.86,2l3.35,5.8a5,5,0,0,1-1.42,5.72c-5.91,4.94-20.65,17.72-37.44,17.72a32.17,32.17,0,0,1-3.81-.22C51.75,275,40.76,232.34,40.75,203c0-62.67,25.29-86.55,25.29-86.55l2.54-2.95c.44-1.83.91-3.66,1.47-5.48,10.27-33.87,37.66-56.58,65.27-56.58m0-9v0c-32.26,0-62.64,25.89-73.89,63-.37,1.22-.72,2.47-1.07,3.85l-.92,1.06C55.79,114,31.72,140.87,31.75,203c0,17.73,3.51,36.27,9.61,50.87,8.32,19.93,21,31.45,36.58,33.31a41.33,41.33,0,0,0,4.88.29c19.56,0,35.76-13.57,42.67-19.37l.54-.45a14,14,0,0,0,4-16l-.23-.58-.31-.54-3.12-5.4a13.08,13.08,0,0,0-18.44-5.61c-1.33.78-2.7,1.67-4.15,2.62-4.83,3.13-10.83,7-15.68,7a7.75,7.75,0,0,1-5.53-2.35c-5-4.52-6.29-10.77-5.06-24.78,1.31-15,8.68-20.18,12-21.77l1.51,1.3c6.92,6,12.22,10.36,17.31,11.9a51.58,51.58,0,0,0,15,2.26A43.69,43.69,0,0,0,135.64,214a36.83,36.83,0,0,0,2,3.9v77.2c0,8.18,5.24,16.93,19.93,16.93h31.5c14.69,0,19.93-8.74,19.93-16.93V259.35c14.51,5.09,27.92,7.66,40,7.66a121.89,121.89,0,0,0,36.47-5.65l2.17,32.07c.15,8.08,5.44,16.58,19.93,16.58h31.5c14.69,0,19.93-8.74,19.93-16.93V248.3a9.56,9.56,0,0,0,8.06-9.88c-.59-13.56-4.8-55.56-5.31-60.63-.14-26.24-12-50-33.32-66.86C308.65,95.29,282.57,86.67,255,86.67h-9.79C232.35,62.05,211.16,46.44,190,46.44a66.45,66.45,0,0,0-24.38,4.46,59.8,59.8,0,0,0-13.36-6,58.33,58.33,0,0,0-16.94-2.51Z"/><path class="b26b44aa-3160-4ce7-acdb-419995f49de3" d="M352.75,178.26c0-50.6-47.15-82.58-97.75-82.58,0,0,89.79,26.87,62.83,103.67A57.34,57.34,0,0,1,304.74,221a51.14,51.14,0,0,1-10.85,8.38c-25.43,14.74-57.65,19.89-93.9.89-4.39-2.3-15.3-5.44-14.42-.93C189.5,249.5,191.25,271,189,286s-42.36,9.05-42.36,9.05c0,6,4.89,7.93,10.93,7.93h31.5c6,0,10.93-1.89,10.93-7.93V246.17c15.6,6.71,32.81,11.84,49,11.84a115.22,115.22,0,0,0,44.64-9.2l3,44.27c0,6,4.89,7.93,10.93,7.93h31.5c6,0,10.93-1.89,10.93-7.93V214.76L356.93,239a.58.58,0,0,0,1.14-.19C357.45,224.77,352.75,178.26,352.75,178.26Z"/><path class="b26b44aa-3160-4ce7-acdb-419995f49de3" d="M146.64,215s6.69.83,14.69-3.67,6-11.33,6-11.33a47.92,47.92,0,0,0,36,14.5c19.64-.55,30.95-10.27,38.67-20.25,8.08-10.45,11.46-16.25,13.33-32.29C260,122,246,94.67,246,94.67l-60.42,11.88L132.5,158l9.25,47.44,2.65,6a4.47,4.47,0,0,0,.33.62Z"/><path class="b26b44aa-3160-4ce7-acdb-419995f49de3" d="M82.81,281a34.73,34.73,0,0,1-4.11-.24C49,277.19,38.26,232.31,38.25,203c0-61.66,23.94-86.3,26-88.27l2.07-2.4c.46-1.89.9-3.5,1.36-5,10.42-34.36,38.25-58.35,67.67-58.35a51.84,51.84,0,0,1,15.06,2.23,54,54,0,0,1,14.49,6.95c8.3-3.14,14.82-5.17,25.14-5.17,30.92,0,60.16,38.57,60.16,79.37,0,27.1-8.64,44.31-15.89,54-8.75,11.67-20.19,18.63-30.58,18.63h-.32a51.64,51.64,0,0,1-42.44-22.27c-1.91,7.12-5.56,14.31-13.87,19.48A47,47,0,0,1,122.55,209a42.76,42.76,0,0,1-12.42-1.8C106,206,100.24,201,95.19,196.65c-1.6-1.39-3.13-2.71-4.34-3.67l-1.73.44c-.64.17-16.07,4.52-18.12,28-1.21,13.91-.43,23.31,7.18,30.18a14.3,14.3,0,0,0,9.89,4c6.78,0,13.68-4.48,19.22-8.08,1.39-.9,2.71-1.76,3.91-2.47a6.58,6.58,0,0,1,9.37,3l3.36,5.81.07.16a7.48,7.48,0,0,1-2.14,8.58l-.55.46C114.93,268.47,100,281,82.81,281Z"/><path class="a7a4ced4-7db8-496c-a7ac-9a1b818df136" d="M135.31,51.44a49.24,49.24,0,0,1,14.33,2.12,51.93,51.93,0,0,1,14.87,7.36c8.79-3.37,15.15-5.47,25.48-5.47,30,0,57.66,38.16,57.66,76.87,0,46.44-26.38,70.1-44,70.1h-.28c-17.9-.26-33.77-9-43.65-26.23-1.76,10.48-5.16,18.32-14,23.82a44.45,44.45,0,0,1-23.2,6.54,40.35,40.35,0,0,1-11.69-1.69c-5.33-1.62-15.07-11.43-19.46-14.59h0L88.5,191s-17.75,4.5-20,30.25c-1.28,14.65-.27,24.79,8,32.25a16.78,16.78,0,0,0,11.56,4.66c9.34,0,18.47-7.4,24.4-10.9a4.08,4.08,0,0,1,5.86,2l3.35,5.8a5,5,0,0,1-1.42,5.72c-5.91,4.94-20.65,17.72-37.44,17.72a32.17,32.17,0,0,1-3.81-.22C51.75,275,40.76,232.34,40.75,203c0-62.67,25.29-86.55,25.29-86.55l2.54-2.95c.44-1.83.91-3.66,1.47-5.48,10.27-33.87,37.66-56.58,65.27-56.58m0-5h0c-30.51,0-59.32,24.72-70.06,60.13-.43,1.42-.84,2.9-1.25,4.58L62.39,113c-2.73,2.71-26.66,28.23-26.64,90,0,30.2,11.38,76.48,42.66,80.21a37.33,37.33,0,0,0,4.4.26c18.11,0,33.52-12.92,40.1-18.43l.55-.46a10,10,0,0,0,2.85-11.44l-.13-.32-.17-.3L122.79,247a9.08,9.08,0,0,0-12.86-4c-1.25.74-2.59,1.61-4,2.53-5.27,3.42-11.83,7.68-17.86,7.68a11.91,11.91,0,0,1-8.21-3.37c-6-5.45-7.7-12.8-6.37-28.1,1.87-21.45,15.51-25.63,16.29-25.85l.48-.12c1,.82,2.13,1.81,3.31,2.83,6.34,5.49,11.53,9.78,15.85,11.1a45.25,45.25,0,0,0,13.14,1.9,49.57,49.57,0,0,0,25.84-7.3,32.24,32.24,0,0,0,13.48-16.33c10.43,12.41,24.82,19.25,41.47,19.49h.36c20.53,0,49-26.1,49-75.1a95.85,95.85,0,0,0-18.58-55.93C221.85,59.9,205.79,50.44,190,50.44c-10.19,0-17,2-24.83,4.88a56.25,56.25,0,0,0-14.07-6.55,54.34,54.34,0,0,0-15.78-2.33Z"/><path class="59b9de7e-d6e9-4f62-85d4-4f8bf31d1cfc" d="M190,55.44c-10.33,0-16.69,2.11-25.48,5.47a51.92,51.92,0,0,0-14.87-7.36C117.74,43.88,82.1,68.26,70,108c-.55,1.83-1,3.66-1.47,5.48L66,116.45S40.72,140.33,40.75,203c0,11.77,1.36,22.32,6,32.58,1.35,3,14.72-5.67,15.75-20.34,1.25-17.87,3.94-16.82,6.5-20.5-10.62.25-27.77-6.4-27.77-6.4l.89-9.68,46.28-2.43c1.74,1.25,3.19-7.89,11.61-4.88,1,.35,7,16.29,14.67,19.63,11.83,5.17,18.07,4.18,28.67-1.5,9.33-5,9.51-20.52,11.27-31,9.88,17.18,23.56,36.89,49.47,36.5,17.59-.27,43.59-16,43.59-62.69C247.67,93.6,220,55.44,190,55.44Z"/><path class="b26b44aa-3160-4ce7-acdb-419995f49de3" d="M106.4,110.25c0,7-5.26,12.75-9.41,12.75s-7.5-5.71-7.5-12.75,3-12.88,7.5-12.75S106.4,103.21,106.4,110.25Z"/><ellipse class="a7a4ced4-7db8-496c-a7ac-9a1b818df136" cx="99" cy="112.25" rx="7.5" ry="12.75"/><path class="a7a4ced4-7db8-496c-a7ac-9a1b818df136" d="M164.49,188.81a38.15,38.15,0,0,1-3.61-4.55,43.64,43.64,0,0,1-2.91-4.89,34.29,34.29,0,0,1-3.53-10.76,56.55,56.55,0,0,1-.32-11.11,95.86,95.86,0,0,1,1.27-10.92,95.37,95.37,0,0,0-.27,10.93,55.11,55.11,0,0,0,1.29,10.72,31.82,31.82,0,0,0,4.18,9.65,40.4,40.4,0,0,0,3.09,4.27,34.94,34.94,0,0,0,3.55,3.73Z"/><path class="59b9de7e-d6e9-4f62-85d4-4f8bf31d1cfc" d="M77.65,187.31c-2.89,0-6-.16-9.26-.48-13.71-1.34-29.87-9.44-48.05-24.08-.53-.43-1.09-.87-1.27-1a2.63,2.63,0,0,1-1.16-2.91l.49-1.87,2-.06a2.56,2.56,0,0,1,1,.19c.29.12,31.62,11.87,47.2,13,1.3.1,2.77.15,4.35.15a127.44,127.44,0,0,0,14.47-1A12,12,0,0,1,90,169a8.47,8.47,0,0,1,8.65,6.37c1.54,5.29-2.47,8.66-5.66,9.69C91.92,185.55,87.31,187.31,77.65,187.31Z"/><path class="a7a4ced4-7db8-496c-a7ac-9a1b818df136" d="M20.39,159.42h0c1.39.57,32.41,12,48,13.19,1.45.11,3,.15,4.53.15a129.2,129.2,0,0,0,14.94-1A9,9,0,0,1,90,171.5a6,6,0,0,1,6.25,4.57c1.45,5-4.16,6.66-4.16,6.66s-4.16,2.08-14.45,2.08c-2.6,0-5.6-.13-9-.47-22.75-2.22-46.89-24-48.25-24.72-.09-.05-.07-.21,0-.21m0-5h0a5.11,5.11,0,0,0-2.74,9.39l1.12.89c18.56,14.95,35.17,23.23,49.37,24.62,3.34.33,6.54.49,9.51.49,9.71,0,14.66-1.72,16.25-2.41,5-1.66,9-6.49,7.16-12.73A11,11,0,0,0,90,166.5a14.59,14.59,0,0,0-3.06.33,124.66,124.66,0,0,1-14,.94c-1.52,0-2.92,0-4.16-.14-14-1-43-11.47-46.44-12.84a5,5,0,0,0-1.92-.38Z"/><path class="c0b3421d-03fa-4138-aafa-d60d851ea404" d="M165.72,305l-.22-1.75a19.56,19.56,0,0,1-.17-2.49c0-8.14,5-14.77,11.13-14.77s11.13,6.62,11.13,14.77a19.9,19.9,0,0,1-.13,2.19l-.17,1.49-1.47.26a21.61,21.61,0,0,1-3.74.3Z"/><path class="a7a4ced4-7db8-496c-a7ac-9a1b818df136" d="M176.46,288c5,0,9.13,5.72,9.13,12.77a17.78,17.78,0,0,1-.12,2,19.64,19.64,0,0,1-3.39.27H167.48a17.78,17.78,0,0,1-.15-2.24c0-7.05,4.09-12.77,9.13-12.77m0-4c-7.36,0-13.12,7.36-13.12,16.77a21.63,21.63,0,0,0,.18,2.74L164,307h18.12a23.66,23.66,0,0,0,4.08-.33l3-.52.33-3a21.74,21.74,0,0,0,.14-2.41c0-9.4-5.77-16.77-13.12-16.77Z"/><path class="c0b3421d-03fa-4138-aafa-d60d851ea404" d="M157.26,305c-11-.11-12.62-6-12.62-9.52V285.22l1.44-.42a10.27,10.27,0,0,1,2.86-.42c6.38,0,11.56,5.91,11.56,13.17a14.69,14.69,0,0,1-1.42,6.31l-.55,1.15Z"/><path class="a7a4ced4-7db8-496c-a7ac-9a1b818df136" d="M148.94,286.38c5.28,0,9.56,5,9.56,11.17a12.59,12.59,0,0,1-1.22,5.45c-5.9-.06-10.64-1.88-10.64-7.52v-8.76a8.21,8.21,0,0,1,2.3-.34m0-4a12.25,12.25,0,0,0-3.41.5l-2.88.84v11.76c0,3.42,1.42,11.39,14.6,11.52l2.54,0,1.1-2.29a16.69,16.69,0,0,0,1.61-7.18c0-8.36-6.08-15.17-13.56-15.17Z"/><path class="c0b3421d-03fa-4138-aafa-d60d851ea404" d="M316.22,303l-.22-1.75a19.56,19.56,0,0,1-.17-2.49c0-8.14,5-14.77,11.13-14.77s11.13,6.63,11.13,14.77A19.94,19.94,0,0,1,338,301l-.17,1.49-1.48.26a21.67,21.67,0,0,1-3.73.3Z"/><path class="a7a4ced4-7db8-496c-a7ac-9a1b818df136" d="M327,286c5,0,9.13,5.72,9.13,12.77a17.78,17.78,0,0,1-.12,2,19.65,19.65,0,0,1-3.39.27H318a17.78,17.78,0,0,1-.15-2.24c0-7.05,4.09-12.77,9.13-12.77m0-4c-7.36,0-13.12,7.36-13.12,16.77a21.63,21.63,0,0,0,.18,2.74l.44,3.5h18.12a23.67,23.67,0,0,0,4.08-.33l3-.52.33-3a21.74,21.74,0,0,0,.14-2.41c0-9.4-5.77-16.77-13.12-16.77Z"/><path class="c0b3421d-03fa-4138-aafa-d60d851ea404" d="M307.76,303c-11-.11-12.62-6-12.62-9.52V283.24l1.44-.42a10.27,10.27,0,0,1,2.86-.42c6.38,0,11.56,5.91,11.56,13.17a14.68,14.68,0,0,1-1.42,6.31L309,303Z"/><path class="a7a4ced4-7db8-496c-a7ac-9a1b818df136" d="M299.44,284.41c5.28,0,9.56,5,9.56,11.17a12.59,12.59,0,0,1-1.22,5.45c-5.9-.06-10.64-1.88-10.64-7.52v-8.76a8.21,8.21,0,0,1,2.3-.34m0-4a12.25,12.25,0,0,0-3.41.5l-2.88.84V293.5c0,3.42,1.42,11.39,14.6,11.52l2.54,0,1.1-2.29a16.69,16.69,0,0,0,1.61-7.18c0-8.36-6.08-15.17-13.56-15.17Z"/><path class="a7a4ced4-7db8-496c-a7ac-9a1b818df136" d="M200,246.17V230.25s7,7.38,8,15.75c.52,4.5-.21,6.63-.21,6.63Z"/><path class="a7a4ced4-7db8-496c-a7ac-9a1b818df136" d="M293.89,252.09V236.17s-7,7.38-8,15.75c-.52,4.5.21,6.63.21,6.63Z"/><path class="c0b3421d-03fa-4138-aafa-d60d851ea404" d="M20.38,159.62c-.1-.06-.06-.24,0-.2,1.39.57,39,12.76,49.46,13.28a109.3,109.3,0,0,0,18-1s4.91-1.25,7.6,2.47c1,1.36-1.28,2.78-6.11,3.86s-13.75,1.33-24.25-.75C45.32,173.41,21.74,160.39,20.38,159.62Z"/></g></svg>