<svg xmlns="http://www.w3.org/2000/svg" width="400" height="400" viewBox="0 0 400 400"><defs><style>.bab96205-a1c0-4d4a-966e-e3c2047109e0{fill:#fff;}.d49b3345-6d8e-428f-bafc-d56794caed43{fill:#231f20;}.\37 1322c55-b70a-41b1-9c60-12c69ee0a172{fill:#126e84;}.\39 d41b830-69f8-4811-9a02-45e157305008{fill:#062c56;}.\32 54cd871-6f7e-4e6c-810a-4b8e89888a7f{fill:#a7a9ac;}.\34 48d6061-efe7-41c6-aa1e-98c16571546a{fill:#58595b;}.ec2ad763-4e4e-474b-94ae-eab976a41e81{fill:#d1d3d4;}.\35 593ae2a-7ce1-461e-afcc-ce8456549b91{fill:#3a9bc1;}.a639a6a3-2c74-4c34-961b-0423af071fc0{fill:#2e5c93;}.a8f9e5cf-9d30-4fd7-af53-2fda900db87f{fill:#08395b;}.f45cb5df-8d69-4a60-9d62-3dc463acf1e2{fill:#7fabc9;}.\32 e38ea67-18bb-4041-9d5a-9637ae0f24bc{fill:#0d4c7f;}.\38 2e9a239-e48a-4be1-a457-2a1f6b91a37b{fill:#a6cadd;}.\31 7ed2981-df38-4f0e-ad75-56d2b39964a2{fill:#efefef;}.e429e955-47f1-4be7-aae6-ce4b07585b55{fill:#41af19;}.da53192a-e427-42d6-b0c2-2d55818bcff4{fill:#58ef26;}.\34 7c1d5a9-5622-4c7c-90e4-c5d405ed66ef{fill:none;stroke:#062c56;stroke-miterlimit:10;stroke-width:2px;}</style></defs><title>User_Scuba</title><g id="3f0fca09-e0e9-48e3-91b1-2cfe7c44ae9d" data-name="User_1"><path class="bab96205-a1c0-4d4a-966e-e3c2047109e0" d="M198.41,375c-30.71,0-52.77-2-67.44-6.17-16-4.52-24.4-11.88-25.73-22.5-1-7-1.2-18.31-.58-33.41V294.42c0-20.1,23.06-62,59.22-67.43l5.77-1,1.5,2.26,1.46.26a190.05,190.05,0,0,0,25.79,2.78c17.16-.89,24-2.1,27.08-2.8l1.42-2.12h5.76l.33.05c15.62,2.6,30.71,12.62,42.48,28.21,9.76,12.93,16.08,28.46,16.13,39.63l1.09,18.61v33.26l0,.31C291,357,282.43,364.36,266.46,368.86,251.72,373,229.65,375,199,375Z"/><path class="d49b3345-6d8e-428f-bafc-d56794caed43" d="M232.34,230.4c32.83,5.47,55.27,44.32,55.27,64L288.7,313v32.83C286,363.37,259.15,371,199,371h-.55c-60.19,0-87-7.66-89.19-25.17-1.09-7.66-1.09-19.7-.55-32.83v-18.6c0-19.7,23-58.55,55.81-63.47l3.28-.55,1.09,1.64c2.19,0,8.76,2.19,29.55,3.28,21.34-1.09,27.36-2.74,29.55-3.28l1.09-1.64h3.28m-60.78-8.74-5.1.85-3.22.54c-16.65,2.52-32.73,12.89-45.3,29.22-10.64,13.82-17.26,30-17.26,42.16v18.44c-.63,15.26-.42,26.72.62,34.06,1.56,12.18,11.18,20.85,28.6,25.78,15,4.25,37.44,6.32,68.53,6.32H199c31.06,0,53.49-2.07,68.58-6.32,8.4-2.37,14.79-5.43,19.55-9.37a25.88,25.88,0,0,0,9.51-16.25l.1-.61V312.55l-1.08-18.39C295.52,282,289,266,278.67,252.25c-12.39-16.41-28.38-27-45-29.74l-.65-.11h-8.23l-1.69,2.54c-3.52.67-10.5,1.64-24.66,2.38a186.68,186.68,0,0,1-24.87-2.67l-2-3Z"/><path class="bab96205-a1c0-4d4a-966e-e3c2047109e0" d="M198.36,246.57c-7.08,0-15.17-1.1-17.88-1.88a67.38,67.38,0,0,1-36.24-20.33c-15-16.3-22.6-40.22-22.6-71.11,0-53.39,26.88-82.8,75.68-82.8,24.21,0,44.09,7.51,57.49,21.71s20.38,34.7,20.38,60.54c0,68.23-33.36,88-61.34,92.56a102.27,102.27,0,0,1-15.44,1.31Z"/><path class="d49b3345-6d8e-428f-bafc-d56794caed43" d="M197.32,74.45c47.06,0,73.87,28.45,73.87,78.25,0,65.12-31.17,84.24-58,88.61a98.92,98.92,0,0,1-14.79,1.26h-.06c-7.47,0-15.28-1.23-16.91-1.77-17-3.28-55.81-18.6-55.81-87.55,0-50.89,25.17-78.8,71.68-78.8m0-8c-25.47,0-45.39,7.72-59.21,22.94-13.59,15-20.48,36.45-20.48,63.86,0,31.92,8,56.76,23.66,73.82a71.41,71.41,0,0,0,38.28,21.52,88.18,88.18,0,0,0,18.78,2h.06a106.85,106.85,0,0,0,16.11-1.37c18.24-3,33-11.17,43.89-24.32,13.78-16.66,20.77-40.94,20.77-72.18,0-26.9-7.22-48.19-21.47-63.29s-35.06-23-60.4-23Z"/></g><g id="0269842b-af0f-4b22-9e03-46520bbb3cfe" data-name="Scuba"><path class="71322c55-b70a-41b1-9c60-12c69ee0a172" d="M266.89,230.09a4.08,4.08,0,0,1-4.07-4.05l0-9.27a4.08,4.08,0,0,1,3.57-4.06V26.44a6.15,6.15,0,0,1,3.78-5.68,21.14,21.14,0,0,1,16.33,0,6.15,6.15,0,0,1,3.78,5.68V212.58h.53a4.08,4.08,0,0,1,4.09,4.05l0,9.27a4.08,4.08,0,0,1-4.06,4.09Z"/><path class="9d41b830-69f8-4811-9a02-45e157305008" d="M278.3,21.12a19.13,19.13,0,0,1,7.39,1.49h0a4.16,4.16,0,0,1,2.55,3.84V214.59h2.55a2.08,2.08,0,0,1,2.07,2.06l0,9.27a2.08,2.08,0,0,1-2.06,2.08l-23.94.1h0a2.08,2.08,0,0,1-2.07-2.06l0-9.27a2.08,2.08,0,0,1,2.06-2.08h1.5V26.44a4.16,4.16,0,0,1,2.55-3.84h0a19.13,19.13,0,0,1,7.39-1.49m0-4a23,23,0,0,0-8.94,1.8,8.14,8.14,0,0,0-5,7.53V211.21a6.1,6.1,0,0,0-3.57,5.56l0,9.27a6.08,6.08,0,0,0,6.07,6l24-.1a6.08,6.08,0,0,0,6-6.1l0-9.27a6.09,6.09,0,0,0-4.62-5.87V26.44a8.14,8.14,0,0,0-5-7.53,23,23,0,0,0-8.94-1.8Z"/><path class="254cd871-6f7e-4e6c-810a-4b8e89888a7f" d="M247.8,277.82a18.4,18.4,0,0,1-11.46-3.9,37.12,37.12,0,0,1-8.19-8.32c-1.76-.7-5.71-2.46-7.88-4.8-1.65-1.79-3-3.33-3.39-5.56a2.8,2.8,0,0,1,.66-2.33A5,5,0,0,1,221,251.2a2.77,2.77,0,0,1,1.76.59,14.15,14.15,0,0,0,8.56,3.43,12.51,12.51,0,0,0,8-3.23c7.44-6.15,5.1-11.68,3.71-15l-.18-.43a5.15,5.15,0,0,1,1-5.49l.64-.68a4,4,0,0,1,3-1.18c1.51,0,6.72.81,10.56,11.24,1.23,3.35.78,6.91.46,9.51-.09.69-.2,1.55-.22,2.17,2.41-1.19,8-8.33,9.52-18.87a15.65,15.65,0,0,0-.62-8.26,3.47,3.47,0,0,1,.24-3.15,3.53,3.53,0,0,1,2.69-1.68l16.36-1.5.33,0a3.51,3.51,0,0,1,3.49,3.89l-1.91,17.83a45.38,45.38,0,0,1-22.88,31.86C258.67,276,252.87,277.82,247.8,277.82Z"/><path class="448d6061-efe7-41c6-aa1e-98c16571546a" d="M286.81,220.68a1.52,1.52,0,0,1,1.5,1.68l-1.91,17.83a43.74,43.74,0,0,1-21.85,30.32c-7,3.8-12.37,5.31-16.76,5.31a16.4,16.4,0,0,1-10.26-3.49,34.92,34.92,0,0,1-7.83-8,1.48,1.48,0,0,0-.69-.56c-1.33-.52-5.3-2.21-7.29-4.36-1.7-1.84-2.58-3-2.9-4.58-.14-.73,1.29-1.66,2.2-1.66a.79.79,0,0,1,.51.15,16,16,0,0,0,9.81,3.87,14.35,14.35,0,0,0,9.25-3.69c9-7.41,5.4-14.6,4.1-17.72a3.13,3.13,0,0,1,.62-3.35l.64-.68a2.07,2.07,0,0,1,1.53-.55c2.17,0,5.83,2.19,8.68,9.93,2.18,5.92-1.78,13,1.41,13.16h.1c3.7,0,10.42-9.26,12.1-20.76a17.61,17.61,0,0,0-.75-9.31,1.51,1.51,0,0,1,1.26-2.08l16.36-1.5h.14m0-4-.51,0-16.36,1.5a5.51,5.51,0,0,0-4.6,7.58,13.8,13.8,0,0,1,.49,7.21,34.67,34.67,0,0,1-5,13.56,17.26,17.26,0,0,0-.92-6.77c-4.17-11.33-10.08-12.55-12.43-12.55a6,6,0,0,0-4.44,1.81l-.64.68a7.15,7.15,0,0,0-1.41,7.62l.18.44c1.33,3.15,3.15,7.47-3.14,12.67a10.45,10.45,0,0,1-6.7,2.77,12.19,12.19,0,0,1-7.31-3,4.74,4.74,0,0,0-3-1,6.92,6.92,0,0,0-5.05,2.44,4.77,4.77,0,0,0-1.08,4c.54,2.74,2.08,4.58,3.88,6.53,2.18,2.36,5.73,4.11,8,5.07a40.09,40.09,0,0,0,8.29,8.28,20.33,20.33,0,0,0,12.67,4.3c5.42,0,11.53-1.9,18.68-5.8a47.51,47.51,0,0,0,23.9-33.31v-.09l1.91-17.83a5.52,5.52,0,0,0-5.48-6.1Z"/><path class="ec2ad763-4e4e-474b-94ae-eab976a41e81" d="M219.2,254.06l.08.08c2.41,2.61,7.73,4.53,7.73,4.53a33.09,33.09,0,0,0,8.08,8.35c5.65,4.27,13.35,5.65,27-1.82,19.28-10.54,18.31-31.37,18.31-31.37s-9.22.17-10.61-.27c-2.64,11.43-8.52,20.93-12.2,20.76-1.86-.09-6.28-.46-6.67-3.58-.23-7.48.81-7.54-.57-12.39a27.32,27.32,0,0,0-2.08-4.37c-1.17-2.21-2-2.42-2-2.42-1.63,1.35-2,3.1-1.52,4.24,1.3,3.12,4.87,10.31-4.1,17.72-8.1,6.7-15.36,2.79-19.06-.19C221,252.95,219.81,253.43,219.2,254.06Z"/><path class="71322c55-b70a-41b1-9c60-12c69ee0a172" d="M267.35,221.68V26.44a5.15,5.15,0,0,1,3.17-4.76,20.14,20.14,0,0,1,15.56,0,5.15,5.15,0,0,1,3.17,4.76V221.68Z"/><path class="9d41b830-69f8-4811-9a02-45e157305008" d="M278.3,21.12a19.14,19.14,0,0,1,7.39,1.49,4.16,4.16,0,0,1,2.55,3.84V220.68h-19.9V26.44a4.16,4.16,0,0,1,2.55-3.84,19.14,19.14,0,0,1,7.39-1.49m0-2a21,21,0,0,0-8.17,1.64,6.15,6.15,0,0,0-3.78,5.68V222.68h23.9V26.44a6.15,6.15,0,0,0-3.78-5.68,21,21,0,0,0-8.17-1.64Z"/><path class="5593ae2a-7ce1-461e-afcc-ce8456549b91" d="M281.41,25.28a4.53,4.53,0,0,0-1.55-3.72c-.23-.15-.46-.27-.69-.4a19.11,19.11,0,0,0-8.27,1.44h0a4.14,4.14,0,0,0-1.28.85,6.06,6.06,0,0,0-.28,1.82V169.67l12.06-2.91Z"/><path class="5593ae2a-7ce1-461e-afcc-ce8456549b91" d="M281.41,202.76V213.6H269.35V210a25.43,25.43,0,0,0,6.65-2.17C278.75,206.34,281.41,202.76,281.41,202.76Z"/><path class="a639a6a3-2c74-4c34-961b-0423af071fc0" d="M159.1,208.26c-1.47,0-2.76-.07-3.8-.12l-.38,0c-4.28-.21-26.18-2.13-37-19-5.27-8.22-5.39-11.87-5.66-19.88l-.06-1.88c-.46-12.6.17-28.09,9.14-36.1,13.47-12,25.44-12,38.11-12,2.61,0,6.36.71,11.1,1.62,7.3,1.39,16.39,3.13,25.66,3.13,10.29,0,20.66-1.74,29-3.14a89.91,89.91,0,0,1,12.4-1.61c13.39,0,27.29,1.47,38.21,12.1,6.73,6.55,9.69,18.33,9,36l-.06,1.87c-.26,8-.39,11.67-5.66,19.89-10.64,16.58-33.55,18.53-38,18.75l-1,.06c-1.05.06-2.36.14-3.76.14h0c-5.17,0-9-1.16-11.85-3.53-4.58-3.88-8.93-12.34-12.42-19.14a73.69,73.69,0,0,0-4.36-7.85c-3.11-4.17-5.74-6.84-9.17-7.24-3.43.4-6.07,3.07-9.17,7.24A73.57,73.57,0,0,0,185,185.4c-3.49,6.8-7.84,15.27-12.43,19.15C169.6,207,165.2,208.26,159.1,208.26Z"/><path class="a8f9e5cf-9d30-4fd7-af53-2fda900db87f" d="M237.59,122.25c12.75,0,25.85,1.25,36.11,11.25,7.34,7.15,8.61,20.76,8.14,33.75-.33,9.17,0,12.15-5.25,20.25-9.25,14.42-28.89,17-35.65,17.38-1.24.06-2.85.2-4.61.2-3.32,0-7.15-.48-9.91-2.82-6.37-5.39-12.9-21.92-16.32-26.5-3.22-4.32-6.59-8-11.58-8.46-5,.41-8.36,4.14-11.58,8.46-3.42,4.58-10,21.11-16.32,26.5-3,2.53-7.73,3-11.52,3-1.57,0-3-.08-4-.13-6.76-.34-25.37-3.21-34.62-17.62-5.2-8.1-4.92-11.08-5.25-20.25-.47-13,.49-26.93,8.14-33.75,12.61-11.25,23.36-11.25,36.11-11.25,6.06,0,21.23,4.75,36.76,4.75,17.13,0,34.71-4.75,41.4-4.75m0-6c-3.07,0-7.41.73-12.9,1.65-8.22,1.38-18.46,3.1-28.5,3.1-9,0-17.92-1.7-25.1-3.07-4.9-.93-8.76-1.67-11.66-1.67-13.26,0-25.79,0-40.11,12.77-9.91,8.84-10.62,25.19-10.14,38.45,0,.65,0,1.27.06,1.87.27,8.06.41,12.49,6.13,21.41,11.62,18.11,34.84,20.15,39.38,20.38l.38,0c1,.05,2.41.12,4,.12,6.84,0,11.87-1.45,15.4-4.43,5-4.27,9.35-12.66,13.16-20.06a75.88,75.88,0,0,1,4.1-7.43c2.92-3.92,4.82-5.62,6.77-6,1.95.38,3.85,2.08,6.77,6a75.88,75.88,0,0,1,4.1,7.43c3.8,7.4,8.12,15.8,13.16,20.06,3.37,2.85,7.88,4.24,13.79,4.24,1.48,0,2.84-.08,3.94-.15l1-.06c4.74-.24,29-2.31,40.41-20.13,5.72-8.91,5.87-13.35,6.13-21.41,0-.59,0-1.21.06-1.87.68-18.83-2.48-31-9.95-38.27-11.69-11.38-26.27-13-40.3-13Z"/><path class="f45cb5df-8d69-4a60-9d62-3dc463acf1e2" d="M234.27,200.34c-5.71,0-8-4.8-11.55-12.08a125.83,125.83,0,0,0-7.25-13.39c-8.42-13.24-11.9-14.71-17.31-14.75H198c-5.16,0-9.23,2.28-17.16,14.75a125.78,125.78,0,0,0-7.25,13.39c-3.52,7.27-5.85,12.08-11.55,12.08-36.72-.18-41.93-19.38-42.38-36.08v-.33c-.16-6-.5-18.54,6-26.19,6.88-8.1,19.82-11.73,29.59-11.73a33.82,33.82,0,0,1,3.53.18c2.73.29,6,.85,9.86,1.51,7.87,1.35,17.67,3,27.54,3.06h.26c11,0,22.09-1.74,31-3.14,3.92-.62,7.3-1.15,10.08-1.44a30.87,30.87,0,0,1,3.22-.16c10,0,23.75,4.2,30.56,12.21,6,7.11,5.63,17.87,5.38,24.3,0,.62,0,1.2-.06,1.72-.44,16.71-5.66,35.9-42.33,36.08Z"/><path class="2e38ea67-18bb-4041-9d5a-9637ae0f24bc" d="M155.26,127a33,33,0,0,1,3.43.17c8.38.88,22.81,4.55,37.51,4.58h.27c15.92,0,32.11-3.63,41.18-4.58a30,30,0,0,1,3.12-.15c9.55,0,23,3.9,29.8,11.86,6.37,7.5,5.23,19.6,5.08,25.35-.33,12.56-2.58,34.92-41.33,35.11h0c-7.79,0-8.64-10.36-18-25-8.27-13-12-15.17-18.14-15.21H198c-5.41,0-9.8,2.33-18,15.21-9.32,14.64-10.16,25-18,25h0c-38.76-.19-41-22.55-41.33-35.11-.15-5.75-.62-18.35,5.75-25.85,6.69-7.87,19.41-11.38,28.82-11.38m0-2h0c-10,0-23.26,3.74-30.35,12.08-6.74,7.94-6.4,20.72-6.23,26.86v.34c.27,10.08,1,36.85,43.32,37.06h.05c6.33,0,8.9-5.3,12.45-12.64a125.08,125.08,0,0,1,7.19-13.29c8.42-13.23,12.22-14.29,16.31-14.29h.13c5.16,0,8.27,1.4,16.47,14.29a125.11,125.11,0,0,1,7.19,13.29c3.55,7.34,6.12,12.64,12.45,12.64h.05c42.34-.21,43.06-27,43.32-37.06,0-.52,0-1.09.06-1.71.25-6.58.67-17.58-5.61-25-7.33-8.63-21.38-12.57-31.33-12.57a32.1,32.1,0,0,0-3.32.16c-2.8.29-6.2.83-10.12,1.44-8.87,1.39-19.92,3.13-30.85,3.13h-.26c-9.79,0-19.54-1.7-27.38-3.05-3.84-.66-7.16-1.23-9.93-1.52a35.09,35.09,0,0,0-3.63-.18Z"/><path class="82e9a239-e48a-4be1-a457-2a1f6b91a37b" d="M270.56,138.88c-7.54-8.88-23.43-12.7-32.92-11.71-9.12,1-25.44,4.62-41.45,4.58-14.7,0-29.13-3.71-37.51-4.58-9.49-1-24.71,2.33-32.25,11.21-6.37,7.5-5.9,20.1-5.75,25.85.33,12.56,5.5,30,68-11.22,47.33-27.67,86.62,23.78,87,11.22C275.8,158.48,276.93,146.38,270.56,138.88Z"/><path class="71322c55-b70a-41b1-9c60-12c69ee0a172" d="M266.89,229.09a3.08,3.08,0,0,1-3.07-3.06l0-9.27a3.08,3.08,0,0,1,3.06-3.08l23.94-.1a3.08,3.08,0,0,1,3.08,3.06l0,9.27a3.08,3.08,0,0,1-3.06,3.08Z"/><path class="9d41b830-69f8-4811-9a02-45e157305008" d="M290.79,214.58a2.08,2.08,0,0,1,2.07,2.06l0,9.27a2.08,2.08,0,0,1-2.06,2.08l-23.94.1h0a2.08,2.08,0,0,1-2.07-2.06l0-9.27a2.08,2.08,0,0,1,2.06-2.08l23.94-.1h0m0-2h0l-23.94.1a4.08,4.08,0,0,0-4.06,4.09l0,9.27a4.08,4.08,0,0,0,4.07,4.06l24-.1a4.08,4.08,0,0,0,4.06-4.09l0-9.27a4.08,4.08,0,0,0-4.07-4.06Z"/><rect class="5593ae2a-7ce1-461e-afcc-ce8456549b91" x="264.79" y="214.63" width="24.86" height="9.8" rx="2.07" ry="2.07" transform="translate(-0.9 1.14) rotate(-0.23)"/><ellipse class="17ed2981-df38-4f0e-ad75-56d2b39964a2" cx="264.4" cy="253.95" rx="7.93" ry="2.54" transform="translate(-101 283.64) rotate(-48.49)"/><ellipse class="17ed2981-df38-4f0e-ad75-56d2b39964a2" cx="271.35" cy="253.18" rx="3.99" ry="1.49" transform="translate(-93.87 319.11) rotate(-53.25)"/><rect class="e429e955-47f1-4be7-aae6-ce4b07585b55" x="268.35" y="33.63" width="19.9" height="29.13"/><rect class="da53192a-e427-42d6-b0c2-2d55818bcff4" x="269.35" y="33.63" width="12.06" height="29.13"/><path class="47c1d5a9-5622-4c7c-90e4-c5d405ed66ef" d="M267.35,33.63a60.55,60.55,0,0,0,10.95,1,60.55,60.55,0,0,0,10.95-1"/><path class="47c1d5a9-5622-4c7c-90e4-c5d405ed66ef" d="M289.24,62.76a66.6,66.6,0,0,1-10.95,1,66.6,66.6,0,0,1-10.95-1"/></g></svg>