<svg xmlns="http://www.w3.org/2000/svg" width="400" height="400" viewBox="0 0 400 400"><defs><style>.\39 9cebb50-5627-4856-ba41-79024eb3615b{fill:#808285;}.\35 91b7bc4-9dea-4da4-8885-06f796e0ee19{fill:#414042;}.\36 4f5005d-7c89-4c48-a60a-642496a1e2ce{fill:#fff;}.\37 aca3513-3110-4754-8ca1-58535f5e6cc7{fill:#231f20;}.\30 e2091f7-fcdc-4fc5-be42-f0f68148861b{fill:#a7a9ac;}.\30 e9b4eda-b0c2-4465-bad7-71121192d9f7,.\33 632bba8-e8c1-473f-a8c4-e3860e055366{fill:#bcbec0;}.\30 e9b4eda-b0c2-4465-bad7-71121192d9f7{opacity:0.49;}.\39 601d522-4cf6-4f18-8452-18460e121687,.b83b06ad-9bf5-41e6-be82-a3b0f3af5699{fill:none;stroke-miterlimit:10;}.\39 601d522-4cf6-4f18-8452-18460e121687{stroke:#58595b;stroke-width:3px;}.b83b06ad-9bf5-41e6-be82-a3b0f3af5699{stroke:#414042;stroke-width:4px;}</style></defs><title>User_Helmet_1</title><g id="088513cf-0f33-44ab-84a0-bde9978e6e97" data-name="User_1"><path class="99cebb50-5627-4856-ba41-79024eb3615b" d="M222.88,269.79a5.13,5.13,0,0,1-3.62-1.5,5,5,0,0,1-1.46-3.58L218.59,158l3.34-.87c14.1-3.67,28-9.6,30.57-12.94-2.61-3-12.62-9.56-21.55-9.65h-.42c-6.89,0-14.82,1.63-19.12,2.65-.2,11.05.21,23.32,1.31,26.09,1.84,4.6.91,10.7-2.37,15.53a16.76,16.76,0,0,1-14,7.54c-4.75,0-9.59-3-13-8-2.7-4-4.85-10-2.83-15.12,1.1-2.77,1.51-15,1.31-26.08-4.31-1-12.25-2.66-19.12-2.66h-.42c-8.93.09-18.94,6.66-21.55,9.65,2.59,3.34,16.47,9.27,30.57,12.94l3.34.87.79,106.71a5,5,0,0,1-1.46,3.57,5.13,5.13,0,0,1-3.62,1.5,5,5,0,0,1-3.56-1.46l-.83-.81c-23.9-23.36-52.52-55.56-53.13-76.28-.56-18.84.07-49.2.49-69.29.16-7.72.29-13.82.29-16.64,0-12.38,5.66-32.51,18.31-49.58C143,40.81,163.4,23,197.71,23s54.1,18,64.75,33.18C274.32,73,279.63,93,279.63,105.32c0,2.81.13,8.91.29,16.63.42,20.09,1,50.46.49,69.3-.61,20.72-29.23,52.92-53.13,76.28l-.83.81A5,5,0,0,1,222.88,269.79Z"/><path class="591b7bc4-9dea-4da4-8885-06f796e0ee19" d="M197.71,27.51c59.63,0,77.41,57.44,77.41,77.8,0,10.06,1.55,59.62.77,85.8-.71,24-45.36,66.89-52.62,74a.57.57,0,0,1-.41.17.56.56,0,0,1-.58-.54l.76-103.26s34.26-8.91,34.26-17.63c0-3.39-14.06-13.69-26.32-13.82h-.46c-10.75,0-23.54,3.64-23.54,3.64s-.77,25.45,1.55,31.27-2.15,16.9-12.22,16.9c-7.35,0-13.93-11.08-11.61-16.9s1.55-31.27,1.55-31.27S173.48,130,162.73,130h-.46C150,130.16,136,140.46,136,143.85c0,8.73,34.26,17.63,34.26,17.63L171,264.75a.56.56,0,0,1-.58.54.57.57,0,0,1-.41-.17c-7.26-7.12-51.91-50-52.62-74-.77-26.18.77-75.74.77-85.8,0-21.33,19.93-77.8,79.57-77.8m0-9c-36.18,0-57.7,18.79-69.38,34.54-13.26,17.89-19.19,39.14-19.19,52.26,0,2.77-.13,8.85-.28,16.55-.42,20.14-1,50.57-.49,69.52.36,12,8.43,27.53,24.69,47.34a406.85,406.85,0,0,0,29.79,32l.83.81a9.53,9.53,0,0,0,6.71,2.74,9.66,9.66,0,0,0,6.81-2.83,9.45,9.45,0,0,0,2.76-6.78l-.62-84.21.3.44c4.27,6.31,10.36,9.93,16.69,9.93a21.18,21.18,0,0,0,17.58-9.27l-.62,83.1a9.45,9.45,0,0,0,2.76,6.78,9.66,9.66,0,0,0,6.81,2.83,9.53,9.53,0,0,0,6.71-2.74l.83-.81a406.84,406.84,0,0,0,29.79-32c16.26-19.81,24.33-35.3,24.69-47.34.56-19-.07-49.38-.49-69.52-.16-7.7-.28-13.78-.28-16.55,0-13-5.56-34.07-18-51.72-11.27-16-32.28-35.09-68.43-35.09Zm18.16,122.29A77,77,0,0,1,230.54,139h.37c4.74,0,10.29,2.54,14.1,4.93-5.43,2.85-15.08,6.44-24.21,8.81L216.11,154c-.19-3.81-.26-8.51-.23-13.19ZM148.26,144c3.81-2.39,9.36-4.88,14.1-4.92h.37a78.29,78.29,0,0,1,14.66,1.77c0,4.68,0,9.38-.23,13.19l-4.69-1.22c-9.13-2.38-18.78-6-24.21-8.81Z"/><path class="64f5005d-7c89-4c48-a60a-642496a1e2ce" d="M198.41,375c-30.71,0-52.77-2-67.44-6.17-16-4.52-24.4-11.88-25.73-22.5-1-7-1.2-18.31-.58-33.41V294.42c0-20.1,23.06-62,59.22-67.43l5.77-1,1.5,2.26,1.46.26a190.05,190.05,0,0,0,25.79,2.78c17.16-.89,24-2.1,27.08-2.8l1.42-2.12h5.76l.33.05c15.62,2.6,30.71,12.62,42.48,28.21,9.76,12.93,16.08,28.46,16.13,39.63l1.09,18.61v33.26l0,.31C291,357,282.43,364.36,266.46,368.86,251.72,373,229.65,375,199,375Z"/><path class="7aca3513-3110-4754-8ca1-58535f5e6cc7" d="M232.34,230.4c32.83,5.47,55.27,44.32,55.27,64L288.7,313v32.83C286,363.37,259.15,371,199,371h-.55c-60.19,0-87-7.66-89.19-25.17-1.09-7.66-1.09-19.7-.55-32.83v-18.6c0-19.7,23-58.55,55.81-63.47l3.28-.55,1.09,1.64c2.19,0,8.76,2.19,29.55,3.28,21.34-1.09,27.36-2.74,29.55-3.28l1.09-1.64h3.28m-60.78-8.74-5.1.85-3.22.54c-16.65,2.52-32.73,12.89-45.3,29.22-10.64,13.82-17.26,30-17.26,42.16v18.44c-.63,15.26-.42,26.72.62,34.06,1.56,12.18,11.18,20.85,28.6,25.78,15,4.25,37.44,6.32,68.53,6.32H199c31.06,0,53.49-2.07,68.58-6.32,8.4-2.37,14.79-5.43,19.55-9.37a25.88,25.88,0,0,0,9.51-16.25l.1-.61V312.55l-1.08-18.39C295.52,282,289,266,278.67,252.25c-12.39-16.41-28.38-27-45-29.74l-.65-.11h-8.23l-1.69,2.54c-3.52.67-10.5,1.64-24.66,2.38a186.68,186.68,0,0,1-24.87-2.67l-2-3Z"/><path class="64f5005d-7c89-4c48-a60a-642496a1e2ce" d="M198.36,246.57c-7.08,0-15.17-1.1-17.88-1.88a67.38,67.38,0,0,1-36.24-20.33c-15-16.3-22.6-40.22-22.6-71.11,0-53.39,26.88-82.8,75.68-82.8,24.21,0,44.09,7.51,57.49,21.71s20.38,34.7,20.38,60.54c0,68.23-33.36,88-61.34,92.56a102.27,102.27,0,0,1-15.44,1.31Z"/><path class="7aca3513-3110-4754-8ca1-58535f5e6cc7" d="M197.32,74.45c47.06,0,73.87,28.45,73.87,78.25,0,65.12-31.17,84.24-58,88.61a98.92,98.92,0,0,1-14.79,1.26h-.06c-7.47,0-15.28-1.23-16.91-1.77-17-3.28-55.81-18.6-55.81-87.55,0-50.89,25.17-78.8,71.68-78.8m0-8c-25.47,0-45.39,7.72-59.21,22.94-13.59,15-20.48,36.45-20.48,63.86,0,31.92,8,56.76,23.66,73.82a71.41,71.41,0,0,0,38.28,21.52,88.18,88.18,0,0,0,18.78,2h.06a106.85,106.85,0,0,0,16.11-1.37c18.24-3,33-11.17,43.89-24.32,13.78-16.66,20.77-40.94,20.77-72.18,0-26.9-7.22-48.19-21.47-63.29s-35.06-23-60.4-23Z"/></g><g id="d4d9a1cd-3dae-4e58-bf51-f24355b0f7fd" data-name="Helmet"><path class="99cebb50-5627-4856-ba41-79024eb3615b" d="M223.4,270.66a1.62,1.62,0,0,1-1.14-.47,1.52,1.52,0,0,1-.44-1.09l.79-106,.67-.23c9.53-3.31,34.27-13.39,34.27-20.1,0-2.45-13.44-9.91-25.86-10h-.46c-9.25,0-20.18,2.72-23,3.48-.1,4.26-.52,25.63,1.53,30.75,1.42,3.56.6,8.58-2.05,12.49a13.38,13.38,0,0,1-11.34,6.12c-3.65,0-7.48-2.44-10.25-6.53s-3.8-8.88-2.52-12.08c2-5.13,1.63-26.49,1.53-30.75-2.85-.76-13.77-3.48-23-3.48h-.46c-12.41.12-25.86,7.58-25.86,10,0,6.72,24.74,16.79,34.27,20.1l.67.23.78,106a1.52,1.52,0,0,1-.44,1.09,1.62,1.62,0,0,1-1.14.47,1.58,1.58,0,0,1-1.11-.45l-.86-.84c-34.28-33.51-52.64-59.56-53.11-75.34-.57-19.13.07-50,.5-70.5.16-7.9.29-14.14.29-17,0-11.65,5.62-31.77,18-48.43,10.79-14.56,30.69-31.92,64.19-31.92,61,0,80,58.9,80,80.35,0,2.91.13,9.15.29,17,.42,20.46,1.06,51.37.5,70.5-.47,15.78-18.83,41.83-53.11,75.34l-.85.84A1.58,1.58,0,0,1,223.4,270.66Z"/><path class="591b7bc4-9dea-4da4-8885-06f796e0ee19" d="M197.73,27.14c60.82,0,79,58.59,79,79.35,0,10.26,1.58,60.81.79,87.51-.73,24.53-46.26,68.22-53.67,75.49a.59.59,0,0,1-.41.17.57.57,0,0,1-.59-.55l.78-105.32s34.94-12.15,34.94-21c0-3.46-14.34-10.91-26.85-11h-.47c-11,0-24,3.71-24,3.71s-.79,26,1.58,31.89-2.2,17.24-12.46,17.24c-7.5,0-14.21-11.31-11.84-17.24s1.58-31.89,1.58-31.89-13-3.71-24-3.71h-.47c-12.5.12-26.85,7.57-26.85,11,0,8.9,34.94,21,34.94,21l.78,105.32a.57.57,0,0,1-.59.55.59.59,0,0,1-.41-.17c-7.4-7.27-52.94-51-53.67-75.49-.79-26.7.79-77.25.79-87.51,0-21.75,20.33-79.35,81.16-79.35m0-2c-33.92,0-54.06,17.58-65,32.33-12.48,16.84-18.16,37.22-18.16,49,0,2.9-.13,9.13-.29,17-.42,20.47-1.06,51.39-.5,70.55.47,16,18.94,42.33,53.41,76l.85.83a2.58,2.58,0,0,0,1.82.74,2.63,2.63,0,0,0,1.85-.77,2.51,2.51,0,0,0,.73-1.8l-.78-105.32v-1.41l-1.33-.46c-16.05-5.58-33.37-14.43-33.59-19.07.87-2.25,12.86-9,24.86-9.12h.45c8.49,0,18.42,2.33,22,3.26.19,8,.22,25.34-1.48,29.6-1.39,3.49-.37,8.6,2.62,13s7.1,7,11.08,7A14.36,14.36,0,0,0,208.49,180c2.83-4.17,3.69-9.57,2.15-13.42-1.7-4.26-1.67-21.59-1.48-29.6,3.63-.93,13.56-3.26,22-3.26h.45c12,.12,24,6.87,24.86,9.12-.22,4.64-17.54,13.49-33.59,19.07l-1.33.46v1.41l-.78,105.32a2.51,2.51,0,0,0,.73,1.8,2.63,2.63,0,0,0,1.85.77,2.58,2.58,0,0,0,1.82-.74l.85-.83c34.47-33.69,52.94-60,53.41-76,.57-19.15-.07-50.08-.5-70.55-.16-7.89-.29-14.13-.29-17,0-11.76-5.33-32-17-48.61-10.51-14.94-30.14-32.74-63.92-32.74Z"/><path class="0e2091f7-fcdc-4fc5-be42-f0f68148861b" d="M270.37,103.4c0-19.56-17.38-74.74-75.69-74.74s-77.8,54.25-77.8,74.74c0,9.66-1.51,57.28-.76,82.42.68,22.45,41.91,61.69,50.75,70.28l-.71-93.84S130,153,130,144c0-.1-2.08-6.68,5.76-10.47s15-6.28,24.24-6.37c10.6-.1,23.46,3.49,23.46,3.49s.51,16.54-.57,25.52q0,.69-.09,1.35v.09q0,.61-.1,1.19l0,.18q0,.54-.1,1.05l0,.23c0,.32-.07.63-.11.93l0,.26c0,.28-.08.55-.12.82l0,.28c0,.25-.08.5-.13.73l0,.26c0,.24-.1.47-.15.69l0,.2c-.07.28-.14.54-.21.77,1,5.44,6.1,11.71,11.62,11.71,9.84,0,14.22-10.65,11.95-16.24s-1.51-30-1.51-30,12.87-3.6,23.46-3.49c7.84.08,16.42,4.33,21.43,8.18a42.05,42.05,0,0,1,5.41,3.66h0l.7.58,0,0,.61.54.05,0,.52.51.07.07.44.46.09.09.35.41.1.11.28.37.1.13.21.33.09.14c.06.1.1.2.15.29l.07.14a2.56,2.56,0,0,1,.09.28s0,.08,0,.12a1.57,1.57,0,0,1,0,.36c0,9-36.14,18.28-36.14,18.28l-.7,93c10.38-10.17,49.23-47.65,49.88-69.43C271.88,160.68,270.37,113.07,270.37,103.4Z"/><ellipse class="0e9b4eda-b0c2-4465-bad7-71121192d9f7" cx="183.62" cy="48.26" rx="23.88" ry="13.32"/><ellipse class="3632bba8-e8c1-473f-a8c4-e3860e055366" cx="183.62" cy="50.8" rx="14.94" ry="8.33"/><ellipse class="0e9b4eda-b0c2-4465-bad7-71121192d9f7" cx="184.67" cy="90.74" rx="49.55" ry="27.63"/><ellipse class="3632bba8-e8c1-473f-a8c4-e3860e055366" cx="184.67" cy="79.61" rx="30.99" ry="17.28"/><path class="9601d522-4cf6-4f18-8452-18460e121687" d="M116.58,103.53s27.64-47.46,79.22-47.46c53,0,80.87,51.17,80.87,51.17"/><path class="b83b06ad-9bf5-41e6-be82-a3b0f3af5699" d="M115,106.5S143.26,59,196,59c54.23,0,82.69,51.17,82.69,51.17"/><path class="591b7bc4-9dea-4da4-8885-06f796e0ee19" d="M197.73,27.14c60.82,0,79,58.59,79,79.35,0,10.26,1.58,60.81.79,87.51-.73,24.53-46.26,68.22-53.67,75.49a.59.59,0,0,1-.41.17.57.57,0,0,1-.59-.55l.78-105.32s34.94-10.11,34.94-19c0-3.46-14.34-12.95-26.85-13.07h-.47c-11,0-24,3.71-24,3.71s-.79,26,1.58,31.89-2.2,17.24-12.46,17.24c-7.5,0-14.21-11.31-11.84-17.24s1.58-31.89,1.58-31.89-13-3.71-24-3.71h-.47c-12.5.12-26.85,9.61-26.85,13.07,0,8.9,34.94,19,34.94,19l.78,105.32a.57.57,0,0,1-.59.55.59.59,0,0,1-.41-.17c-7.4-7.27-52.94-51-53.67-75.49-.79-26.7.79-77.25.79-87.51,0-21.75,20.33-79.35,81.16-79.35m0-5c-35.17,0-56.06,18.24-67.4,33.54-13,17.48-18.75,38.12-18.75,50.81,0,2.87-.13,9.09-.29,17-.42,20.5-1.06,51.47-.5,70.7.5,17.08,18.78,43.34,54.31,78.08l.85.83a5.56,5.56,0,0,0,3.92,1.6,5.65,5.65,0,0,0,4-1.65,5.49,5.49,0,0,0,1.61-3.94l-.78-105.32,0-3.73-3.58-1c-.08,0-7.69-2.24-15.58-5.42-10.27-4.14-13.94-7.06-15.19-8.38,3.07-2.87,12.63-8.38,21.34-8.47h.42a91,91,0,0,1,19.1,2.62c.19,11.14-.22,23.38-1.31,26.13-2.13,5.33.12,11.66,2.92,15.8,3.57,5.27,8.51,8.29,13.56,8.29A17.5,17.5,0,0,0,211,181.68c3.41-5,4.38-11.4,2.45-16.22-1.1-2.75-1.51-15-1.31-26.13a91,91,0,0,1,19.1-2.62h.42c8.71.09,18.27,5.6,21.34,8.47-1.25,1.32-4.92,4.24-15.19,8.38-7.89,3.19-15.51,5.4-15.58,5.42l-3.58,1,0,3.73-.78,105.32a5.49,5.49,0,0,0,1.61,3.94,5.65,5.65,0,0,0,4,1.65,5.56,5.56,0,0,0,3.92-1.6l.85-.83c35.53-34.73,53.81-61,54.31-78.08.57-19.23-.07-50.2-.5-70.7-.16-7.87-.29-14.09-.29-17,0-12.62-5.44-33.09-17.58-50.34-10.92-15.52-31.3-34-66.38-34Z"/></g></svg>