<svg width="400" height="400" viewBox="0 0 400 400" fill="none" xmlns="http://www.w3.org/2000/svg">
<path d="M200 344.533C141.333 344.533 115.2 337.067 113.067 320C112 312.533 112 300.8 112.533 288V269.867C112.533 250.667 134.933 212.8 166.933 208L170.133 207.467L171.2 209.067C173.333 209.067 179.733 211.2 200 212.267C220.8 211.2 226.667 209.6 228.8 209.067L229.867 207.467H233.067C265.067 212.8 286.933 250.667 286.933 269.867L288 288V320C285.333 337.067 259.2 344.533 200.533 344.533H200Z" fill="white"/>
<path d="M232 213.333C260.8 217.6 281.6 252.267 281.6 269.867C281.6 286.933 283.2 308.8 281.6 318.933C280 330.133 262.933 339.2 200 339.2C137.067 339.2 120 330.133 117.867 318.933C116.8 308.267 117.867 286.933 117.867 269.867C117.867 252.267 139.2 217.6 168 212.8C168 212.8 170.133 216 200 217.6C229.333 216.533 232 212.8 232 212.8V213.333ZM172.8 201.6L166.4 202.667C132.8 208 107.733 246.933 107.733 269.867L106.667 288V320.533C109.867 341.867 137.067 349.867 199.467 349.867C261.867 349.867 289.067 341.333 291.733 320.533C292.8 313.067 292.8 300.8 292.267 288.533V269.867C292.267 246.933 266.667 207.467 233.6 202.667L227.2 201.6L225.067 204.267C208.143 207.396 190.79 207.396 173.867 204.267L171.733 201.6H172.8Z" fill="#223948"/>
<path d="M199.467 218.667C195.733 218.667 186.667 218.667 183.467 217.6C166.933 214.4 129.067 199.467 129.067 132.267C129.067 82.6667 153.6 55.4667 198.933 55.4667C244.8 55.4667 270.933 83.2 270.933 131.733C270.933 195.2 240.533 213.333 214.4 217.6L199.467 218.133V218.667Z" fill="white"/>
<path d="M198.933 60.8C249.067 60.8 265.6 93.8666 265.6 131.733C265.6 185.067 243.2 207.467 213.333 212.267C203.591 213.44 193.743 213.44 184 212.267C158.4 206.933 134.4 184.533 134.4 132.267C134.4 93.8666 149.333 60.8 198.933 60.8V60.8ZM198.933 50.1333C150.4 50.1333 123.733 78.9333 123.733 131.733C123.733 203.2 164.267 219.2 182.4 222.4C186.133 223.467 193.067 223.467 199.467 223.467L215.467 222.933C243.2 218.133 276.267 198.933 276.267 132.267C276.267 80 248 50.1333 198.933 50.1333Z" fill="#223948"/>
</svg>
