<svg xmlns="http://www.w3.org/2000/svg" width="400" height="400" viewBox="0 0 400 400"><defs><style>.\36 d93f480-1c41-4c16-b113-61e34973f5f4{fill:#668c1c;}.\39 b1423db-2e21-4184-b303-603833a0f5b8{fill:#27510c;}.\36 60fde43-a3f0-44ef-81b6-02702869a074{fill:#99b249;}.\34 e95fd4b-90aa-4db9-932a-0ec0840332e5,.\36 a4a49d2-c5da-4650-8a71-53b28c288401,.d35a836e-3ba5-41e2-9072-c0ba4f3b5813{fill:none;stroke:#27510c;stroke-miterlimit:10;}.\36 a4a49d2-c5da-4650-8a71-53b28c288401{stroke-width:5px;}.\36 a4a49d2-c5da-4650-8a71-53b28c288401,.d35a836e-3ba5-41e2-9072-c0ba4f3b5813{opacity:0.5;}.\34 e95fd4b-90aa-4db9-932a-0ec0840332e5,.d35a836e-3ba5-41e2-9072-c0ba4f3b5813{stroke-width:4px;}.\34 e95fd4b-90aa-4db9-932a-0ec0840332e5{opacity:0.52;}.e41faa4c-93c8-411c-8e08-1861c528d11f{fill:#1d3d09;}</style></defs><title>Cactus</title><g id="e8992549-406e-40c1-8687-31365d20655a" data-name="Cactus"><path class="6d93f480-1c41-4c16-b113-61e34973f5f4" d="M250.87,333.84c-17.09,0-28.76-6.13-29.25-6.39l-1.85-1v-35l4.23.9a41.12,41.12,0,0,0,7.51.61c10.34,0,29.57-3.15,42.23-24.28,15.39-25.69,8.46-60.65,6-70.75a37.79,37.79,0,0,1,.13-19.1c2.55-9.19,9.34-20.5,27.24-22.17,1.18-.11,2.36-.17,3.49-.17,23.79,0,31.51,24.21,32.29,37.16a161.78,161.78,0,0,1-1.47,46.54c-5.94,34.19-22.3,61.62-47.31,79.33C280.68,329,266.14,333.84,250.87,333.84Z"/><path class="9b1423db-2e21-4184-b303-603833a0f5b8" d="M310.57,160c26.89,0,28.8,34,28.8,34s12,80.7-47.32,122.66c-14.95,10.58-29.41,13.66-41.19,13.66-16.41,0-27.6-6-27.6-6V295.79a43.67,43.67,0,0,0,8.24.68c11.3,0,31.74-3.46,45.24-26,15.85-26.45,9.34-61.3,6.36-73.39a34.21,34.21,0,0,1,.11-17.33c2.34-8.45,8.48-18.16,24.19-19.62,1.09-.1,2.15-.15,3.17-.15m0-7c-1.24,0-2.53.06-3.82.18-15.51,1.44-26.27,10.22-30.28,24.72a41.3,41.3,0,0,0-.16,20.87c2.41,9.77,9.14,43.58-5.57,68.12-11.18,18.66-27.51,22.58-39.23,22.58a38.22,38.22,0,0,1-6.82-.54l-8.46-1.8,0,8.65v32.77l3.7,2c.52.28,12.94,6.81,30.9,6.81,16,0,31.22-5,45.23-14.95a113,113,0,0,0,34.53-39.28,140.21,140.21,0,0,0,14.21-42.3,166.16,166.16,0,0,0,1.5-47.53,61.27,61.27,0,0,0-4.9-19.15C335.29,160.51,324.32,153,310.57,153Z"/><path class="660fde43-a3f0-44ef-81b6-02702869a074" d="M224.89,304.17c6.13,2.88,32,12.65,56.93-5.5,58.55-42.67,36.85-109.33,36.85-109.33s-3.92-21.88-18.14-27.85c-.58.18-1.13.37-1.68.57l-.3.11c-.51.2-1,.41-1.47.62l-.36.16c-.46.22-.9.45-1.33.68l-.35.19q-.64.36-1.23.75l-.31.2c-.4.27-.78.54-1.16.83l-.24.19c-.38.3-.75.61-1.11.92l-.14.13a25.21,25.21,0,0,0-6.12,8.64l0,.06c-.18.41-.35.82-.5,1.23l-.05.14q-.23.6-.43,1.19l-.06.17q-.19.59-.36,1.18l0,.15c-.06.2-.1.39-.16.59q-.17.65-.31,1.3l-.13.62a34.67,34.67,0,0,0,.44,15c3,12.09,9.49,46.94-6.36,73.39-16.22,27.07-42.48,26.6-50.83,25.69a21.31,21.31,0,0,1-2.64-.39v8.36C224.36,304.43,225.18,304.41,224.89,304.17Z"/><path class="6d93f480-1c41-4c16-b113-61e34973f5f4" d="M201.4,377.84c-20.89,0-31.69-4.71-38.77-8.82A13.34,13.34,0,0,1,156,357.66L141.18,104.09c-.45-3.56-5.37-46.51,16.8-71.84,10.38-11.86,24.94-17.87,43.26-17.87,16.59,0,29.91,5.5,39.57,16.35,21.13,23.72,17.17,64.58,16.8,68L245.79,357.63A13.34,13.34,0,0,1,239.17,369C233.85,372.1,224,377.84,201.4,377.84Z"/><path class="9b1423db-2e21-4184-b303-603833a0f5b8" d="M201.25,18.88c61.08,0,51.88,79.46,51.88,79.46L241.29,357.51a8.79,8.79,0,0,1-4.39,7.61c-5.78,3.36-14.74,8.21-35.51,8.21s-30.73-4.86-36.51-8.21a8.79,8.79,0,0,1-4.39-7.61L145.67,103.67s-11.33-84.79,55.58-84.79m0-9c-19.68,0-35.38,6.53-46.65,19.41-23.14,26.44-18.49,70.42-17.9,75.21l14.8,253.33a17.86,17.86,0,0,0,8.87,15.09c7.57,4.39,19.07,9.43,41,9.43,23.78,0,34.35-6.13,40-9.43a17.86,17.86,0,0,0,8.87-15.16L262.11,99c.48-4.54,4.19-46.46-17.93-71.29-10.56-11.85-25-17.86-42.93-17.86Z"/><path class="6d93f480-1c41-4c16-b113-61e34973f5f4" d="M160.82,257c-2.14,0-52.65-.48-78.33-42.19-24.9-40.44-29.9-90.47-30.16-93.32-.14-1.19-1.36-13.12,6.09-22.11,4.8-5.8,12-9,21.37-9.54.67,0,1.33-.06,2-.06,22,0,29,21.77,29.69,33.28v.26c0,.16-.12,17,7.5,46.3,10,38.24,41.54,39.35,45.11,39.35h.32l2.43-.08.94,2.24a84.24,84.24,0,0,1,5.51,24.12c1.16,18.88-11.2,21.58-11.73,21.69l-.34.07Z"/><path class="9b1423db-2e21-4184-b303-603833a0f5b8" d="M81.76,93.32c24.45,0,26.2,30,26.2,30s-.25,17,7.61,47.24c10.58,40.67,44.25,42,48.49,42h.44a81.32,81.32,0,0,1,5.25,23c1,16.05-8.93,18-8.93,18s-50.4,0-75.35-40.52-29.66-91.86-29.66-91.86S52.35,94.94,80,93.37c.6,0,1.19-.05,1.77-.05m0-7c-.71,0-1.44,0-2.17.06C69.2,87,61.17,90.61,55.72,97.19c-8.21,9.91-7.08,22.91-6.88,24.7.3,3.18,5.42,53.81,30.67,94.8,11.09,18,28.67,31.3,50.85,38.45a109,109,0,0,0,30.47,5.4h.7l.68-.14c.65-.13,15.88-3.44,14.54-25.34A88.19,88.19,0,0,0,171,209.83l-1.86-4.51-4.88.19h-.17c-3.29,0-32.43-1-41.72-36.73-7.47-28.72-7.39-45.22-7.39-45.39v-.5a53.43,53.43,0,0,0-4.57-17.54c-5.72-12.27-15.88-19-28.61-19Z"/><path class="660fde43-a3f0-44ef-81b6-02702869a074" d="M195.44,19.1c-42,3.33-49.68,43-50.43,66.76.15,4.77.52,7.76.52,7.76l2.65,42.27,5.62,71.88s17.29,3.51,15.95,27.73c-1,18-15,24.88-15,24.88l5.73,96.92c4.59,2.95,13.79,7.07,30.34,7.07,16.88,0,19.28-4.28,24-7.24a7.9,7.9,0,0,0,3.56-6.71l14.5-261.49S225.48,24.33,195.44,19.1Z"/><path class="660fde43-a3f0-44ef-81b6-02702869a074" d="M160.82,253.54l8.46-7.29.47-10.75s-7,.66-26.75-7c-20-7.75-38.15-14.52-49.45-58-7.86-30.21-7.61-47.24-7.61-47.24S96,101.25,80,93.37c-27.63,1.57-24.18,27.79-24.18,27.79S60.52,172.5,85.47,213,160.82,253.54,160.82,253.54Z"/><path class="9b1423db-2e21-4184-b303-603833a0f5b8" d="M150.21,200.65c1.62.9,3,1.77,4.4,2.71s2.76,1.92,4.09,2.95,2.61,2.11,3.86,3.24c.6.55,1.29,1.17,1.89,1.85a18.48,18.48,0,0,1,1.67,2.12,23.32,23.32,0,0,1,3.64,9.56,32.07,32.07,0,0,1,0,9.76,31.08,31.08,0,0,0-1.95-9.25,20.3,20.3,0,0,0-4.78-7.52,14.21,14.21,0,0,0-1.63-1.35c-.56-.41-1.15-.75-1.84-1.16q-2-1.16-4.07-2.17t-4.21-1.86c-1.4-.56-2.91-1.13-4.21-1.52Z"/><path class="9b1423db-2e21-4184-b303-603833a0f5b8" d="M156,253.5a1.39,1.39,0,0,0,.37.07l.49,0c.33,0,.67,0,1,0a11.21,11.21,0,0,0,2.05-.33,9.83,9.83,0,0,0,3.8-1.94,9.06,9.06,0,0,0,2.56-3.67,20.58,20.58,0,0,0,1.33-4.64,21.13,21.13,0,0,1-.26,5,11.49,11.49,0,0,1-1.95,4.86,12.79,12.79,0,0,1-4,3.75,15.2,15.2,0,0,1-2.56,1.22c-.45.16-.91.31-1.38.43l-.73.16a6.63,6.63,0,0,1-.85.12Z"/><path class="6a4a49d2-c5da-4650-8a71-53b28c288401" d="M162.48,253.42c0,.67,1.24,2.81,1.3,3.45,1.47,16.63,2.63,22.26,3.83,49.84,1.54,35.23,5.72,65.28,5.72,65.28"/><path class="6a4a49d2-c5da-4650-8a71-53b28c288401" d="M170.47,23.5S155,45.59,157.33,117.33c1,29.33,8.43,70.21,7.63,97.93"/><path class="6a4a49d2-c5da-4650-8a71-53b28c288401" d="M218.29,21.33s28,0,23.38,100.33c-2.2,47.27-7.68,107.78-8.79,131.76C229.7,322.45,229.5,372,229.5,372"/><path class="6a4a49d2-c5da-4650-8a71-53b28c288401" d="M195.44,19.1s4.23,12.56,4.56,54.56-4.56,144.92-4.56,144.92l2.29,111.76L200,377.67"/><path class="d35a836e-3ba5-41e2-9072-c0ba4f3b5813" d="M68.5,93.32s-6.72,7.57-6.72,24c0,9.72,2.89,21,5.39,29.67S79.3,202,99,221c9.18,8.84,26.62,16.48,31.42,18.49a16.75,16.75,0,0,0,2.46.81l33.68,8.29"/><path class="d35a836e-3ba5-41e2-9072-c0ba4f3b5813" d="M84,92s11.61,9.36,12.5,22.5,7.63,61.45,12,73c5.67,15,23.25,26.75,23.25,26.75S142.9,220.75,151,223a90.54,90.54,0,0,0,18.28,2.54"/><path class="4e95fd4b-90aa-4db9-932a-0ec0840332e5" d="M309.67,158.77c6,1.24,22.56,11.47,22.67,56.49.08,33.33-8.18,50.91-14,62.74-4.71,9.58-21.85,26.85-40.67,36.33-17.23,8.68-32.33,7-32.33,7"/><path class="4e95fd4b-90aa-4db9-932a-0ec0840332e5" d="M301.67,160s-17,10.95-10.49,36.1c5.59,21.59,15.16,57.44-7.84,88.23-15.22,20.37-35.33,18-35.33,18"/><path class="e41faa4c-93c8-411c-8e08-1861c528d11f" d="M157.19,61.89,139.13,46a.34.34,0,0,1,.35-.56l21.23,8.36.4.18c1.07.53,2.17,2.59.86,5.5-1,2.12-2.17,2.89-4,2.75A2,2,0,0,1,157.19,61.89Z"/><path class="e41faa4c-93c8-411c-8e08-1861c528d11f" d="M157.09,69.66,139.2,64a.26.26,0,0,1,.08-.51l17.79-.71h.34c.93,0,2.36,1.17,2.35,3.66,0,1.81-.64,2.75-2,3.24A1.59,1.59,0,0,1,157.09,69.66Z"/><path class="e41faa4c-93c8-411c-8e08-1861c528d11f" d="M165.4,184.9,147.34,169a.34.34,0,0,1,.35-.56l21.23,8.36.4.18c1.07.53,2.17,2.59.86,5.5-1,2.12-2.17,2.89-4,2.75A2,2,0,0,1,165.4,184.9Z"/><path class="e41faa4c-93c8-411c-8e08-1861c528d11f" d="M165.3,192.66,147.41,187a.26.26,0,0,1,.08-.51l17.79-.71h.34c.93,0,2.36,1.17,2.35,3.66,0,1.81-.64,2.75-2,3.24A1.59,1.59,0,0,1,165.3,192.66Z"/><path class="e41faa4c-93c8-411c-8e08-1861c528d11f" d="M56.67,113.75,38.61,97.87a.34.34,0,0,1,.35-.56l21.23,8.36.4.18c1.07.53,2.17,2.59.86,5.5-1,2.12-2.17,2.89-4,2.75A2,2,0,0,1,56.67,113.75Z"/><path class="e41faa4c-93c8-411c-8e08-1861c528d11f" d="M56.56,121.52l-17.89-5.65a.26.26,0,0,1,.08-.51l17.79-.71h.34c.93,0,2.36,1.17,2.35,3.66,0,1.81-.64,2.75-2,3.24A1.59,1.59,0,0,1,56.56,121.52Z"/><path class="e41faa4c-93c8-411c-8e08-1861c528d11f" d="M244.9,125.89,263,110a.34.34,0,0,0-.35-.56l-21.23,8.36-.4.18c-1.07.53-2.17,2.59-.86,5.5,1,2.12,2.17,2.89,4,2.75A2,2,0,0,0,244.9,125.89Z"/><path class="e41faa4c-93c8-411c-8e08-1861c528d11f" d="M245,133.66,262.89,128a.26.26,0,0,0-.08-.51L245,126.78h-.34c-.93,0-2.36,1.17-2.35,3.66,0,1.81.64,2.75,2,3.24A1.59,1.59,0,0,0,245,133.66Z"/><path class="e41faa4c-93c8-411c-8e08-1861c528d11f" d="M104.68,158.22l14-13.47c.22-.21,0-.59-.27-.48L102,151.36l-.31.15c-.83.45-1.68,2.2-.67,4.67.74,1.8,1.68,2.45,3.13,2.33A1.53,1.53,0,0,0,104.68,158.22Z"/><path class="e41faa4c-93c8-411c-8e08-1861c528d11f" d="M104.76,164.8,118.61,160a.23.23,0,0,0-.06-.43L104.78,159h-.26c-.72,0-1.83,1-1.82,3.1,0,1.54.49,2.33,1.57,2.75A1.13,1.13,0,0,0,104.76,164.8Z"/><path class="e41faa4c-93c8-411c-8e08-1861c528d11f" d="M234.57,286.22l14-13.47c.22-.21,0-.59-.27-.48l-16.43,7.09-.31.15c-.83.45-1.68,2.2-.67,4.67.74,1.8,1.68,2.45,3.13,2.33A1.53,1.53,0,0,0,234.57,286.22Z"/><path class="e41faa4c-93c8-411c-8e08-1861c528d11f" d="M234.65,292.8,248.49,288a.23.23,0,0,0-.06-.43L234.67,287h-.26c-.72,0-1.83,1-1.82,3.1,0,1.54.49,2.33,1.57,2.75A1.13,1.13,0,0,0,234.65,292.8Z"/><path class="e41faa4c-93c8-411c-8e08-1861c528d11f" d="M230,30.69l17.19-16.56c.27-.26,0-.73-.34-.59l-20.21,8.72-.38.19c-1,.55-2.06,2.7-.82,5.74.9,2.21,2.06,3,3.85,2.87A1.88,1.88,0,0,0,230,30.69Z"/><path class="e41faa4c-93c8-411c-8e08-1861c528d11f" d="M232.23,35l13.85-4.79a.23.23,0,0,0-.06-.43l-13.77-.61H232c-.72,0-1.83,1-1.82,3.1,0,1.54.49,2.33,1.57,2.75A1.13,1.13,0,0,0,232.23,35Z"/><path class="e41faa4c-93c8-411c-8e08-1861c528d11f" d="M164.54,319.72l-14-13.47c-.22-.21,0-.59.27-.48l16.43,7.09.31.15c.83.45,1.68,2.2.67,4.67-.74,1.8-1.68,2.45-3.13,2.33A1.53,1.53,0,0,1,164.54,319.72Z"/><path class="e41faa4c-93c8-411c-8e08-1861c528d11f" d="M164.46,326.3l-13.85-4.79a.23.23,0,0,1,.06-.43l13.77-.61h.26c.72,0,1.83,1,1.82,3.1,0,1.54-.49,2.33-1.57,2.75A1.13,1.13,0,0,1,164.46,326.3Z"/><path class="e41faa4c-93c8-411c-8e08-1861c528d11f" d="M334,194,352,178.08a.34.34,0,0,0-.35-.56l-21.23,8.36-.4.18c-1.07.53-2.17,2.59-.86,5.5,1,2.12,2.17,2.89,4,2.75A2,2,0,0,0,334,194Z"/><path class="e41faa4c-93c8-411c-8e08-1861c528d11f" d="M334.07,201.73,352,196.08a.26.26,0,0,0-.08-.51l-17.79-.71h-.34c-.93,0-2.36,1.17-2.35,3.66,0,1.81.64,2.75,2,3.24A1.59,1.59,0,0,0,334.07,201.73Z"/></g></svg>