<svg xmlns="http://www.w3.org/2000/svg" width="400" height="400" viewBox="0 0 400 400"><defs><style>.\35 087e214-1bf8-4ea8-9d34-488ff8cc3d94{fill:#fff;}.\31 51405ce-7ef9-403e-b77c-8968e1c5bff3{fill:#231f20;}.\36 fbd478f-f1a0-4e79-a115-9a1c652bd1bf{fill:#414042;}.a23c7781-9949-4a28-b7f4-e8377388702f{fill:#808285;}.\35 45a54ff-bd84-4159-9740-7341fcf96eb6{fill:#b72036;}.\34 b55acb4-e4f1-402e-9c51-9e9ee26a46e2{fill:#3a050d;}.\30 d753694-3bb3-4974-a11d-db0bb199ba99{fill:#770e29;}.b1d22b00-8ebb-40f4-b564-01428706f104{fill:none;stroke:#3a050d;stroke-miterlimit:10;stroke-width:5px;}</style></defs><title>User_Scarf</title><g id="bde1f79c-d4f7-4744-bef1-0a0916a1998b" data-name="User_1"><path class="5087e214-1bf8-4ea8-9d34-488ff8cc3d94" d="M198.41,375c-30.71,0-52.77-2-67.44-6.17-16-4.52-24.4-11.88-25.73-22.5-1-7-1.2-18.31-.58-33.41V294.42c0-20.1,23.06-62,59.22-67.43l5.77-1,1.5,2.26,1.46.26a190.05,190.05,0,0,0,25.79,2.78c17.16-.89,24-2.1,27.08-2.8l1.42-2.12h5.76l.33.05c15.62,2.6,30.71,12.62,42.48,28.21,9.76,12.93,16.08,28.46,16.13,39.63l1.09,18.61v33.26l0,.31C291,357,282.43,364.36,266.46,368.86,251.72,373,229.65,375,199,375Z"/><path class="151405ce-7ef9-403e-b77c-8968e1c5bff3" d="M232.34,230.4c32.83,5.47,55.27,44.32,55.27,64L288.7,313v32.83C286,363.37,259.15,371,199,371h-.55c-60.19,0-87-7.66-89.19-25.17-1.09-7.66-1.09-19.7-.55-32.83v-18.6c0-19.7,23-58.55,55.81-63.47l3.28-.55,1.09,1.64c2.19,0,8.76,2.19,29.55,3.28,21.34-1.09,27.36-2.74,29.55-3.28l1.09-1.64h3.28m-60.78-8.74-5.1.85-3.22.54c-16.65,2.52-32.73,12.89-45.3,29.22-10.64,13.82-17.26,30-17.26,42.16v18.44c-.63,15.26-.42,26.72.62,34.06,1.56,12.18,11.18,20.85,28.6,25.78,15,4.25,37.44,6.32,68.53,6.32H199c31.06,0,53.49-2.07,68.58-6.32,8.4-2.37,14.79-5.43,19.55-9.37a25.88,25.88,0,0,0,9.51-16.25l.1-.61V312.55l-1.08-18.39C295.52,282,289,266,278.67,252.25c-12.39-16.41-28.38-27-45-29.74l-.65-.11h-8.23l-1.69,2.54c-3.52.67-10.5,1.64-24.66,2.38a186.68,186.68,0,0,1-24.87-2.67l-2-3Z"/><path class="5087e214-1bf8-4ea8-9d34-488ff8cc3d94" d="M198.36,246.57c-7.08,0-15.17-1.1-17.88-1.88a67.38,67.38,0,0,1-36.24-20.33c-15-16.3-22.6-40.22-22.6-71.11,0-53.39,26.88-82.8,75.68-82.8,24.21,0,44.09,7.51,57.49,21.71s20.38,34.7,20.38,60.54c0,68.23-33.36,88-61.34,92.56a102.27,102.27,0,0,1-15.44,1.31Z"/><path class="151405ce-7ef9-403e-b77c-8968e1c5bff3" d="M197.32,74.45c47.06,0,73.87,28.45,73.87,78.25,0,65.12-31.17,84.24-58,88.61a98.92,98.92,0,0,1-14.79,1.26h-.06c-7.47,0-15.28-1.23-16.91-1.77-17-3.28-55.81-18.6-55.81-87.55,0-50.89,25.17-78.8,71.68-78.8m0-8c-25.47,0-45.39,7.72-59.21,22.94-13.59,15-20.48,36.45-20.48,63.86,0,31.92,8,56.76,23.66,73.82a71.41,71.41,0,0,0,38.28,21.52,88.18,88.18,0,0,0,18.78,2h.06a106.85,106.85,0,0,0,16.11-1.37c18.24-3,33-11.17,43.89-24.32,13.78-16.66,20.77-40.94,20.77-72.18,0-26.9-7.22-48.19-21.47-63.29s-35.06-23-60.4-23Z"/></g><g id="0a14235f-2bea-43cf-bb76-de35303d7b42" data-name="Sunglasses"><path class="151405ce-7ef9-403e-b77c-8968e1c5bff3" d="M247.76,191c-15.27,0-23-5.95-28.08-11.13-2.84-2.92-7.17-11.83-13.63-28.06-.31-.78-.51-1.29-.58-1.45l-.1-.22c-1.08-2.37-1.62-3.56-5.39-3.56-3.47,0-3.9.82-4.84,2.63-.24.45-.48.92-.77,1.39-.11.21-.72,1.72-1.36,3.31-4.66,11.49-9.43,22.59-12.73,26-5.05,5.18-12.81,11.13-28.08,11.13l-1.4,0c-11.28-.26-26.93-2.32-32.54-17.12-2.7-7.13-3-14.36-3.27-19.64-.13-2.87-.29-6.44-.91-7.08a10.91,10.91,0,0,0-4.89-2.86l-1.44-.33-.12-1.48-1.08-14.44,1.78-.32c.21,0,21.11-3.73,39.71-3.73,1.08,0,2.16,0,3.22,0,10.92.27,20.26,2.92,28.51,5.26,6.57,1.87,12.24,3.48,17.28,3.48A21.79,21.79,0,0,1,200,133a21.8,21.8,0,0,1,2.94-.19c5,0,10.71-1.61,17.28-3.48,8.25-2.34,17.59-5,28.51-5.26q1.6,0,3.22,0c18.6,0,39.5,3.69,39.7,3.73l1.78.32L292.22,144l-1.46.31a10.9,10.9,0,0,0-4.88,2.85c-.62.65-.78,4.22-.91,7.08-.24,5.28-.57,12.52-3.27,19.64-5.6,14.8-21.25,16.86-32.54,17.12l-1.4,0Z"/><path d="M251.92,126c18.64,0,39.35,3.7,39.35,3.7l-.95,12.64a12.78,12.78,0,0,0-5.91,3.43c-2.6,2.72,0,15.24-4.61,27.4S263,188.68,249.11,189l-1.35,0c-14.12,0-21.52-5.28-26.64-10.53-4.49-4.61-13.32-27.83-13.82-28.94-1.17-2.57-2.1-5-7.31-5-5.64,0-5.78,2.48-7.31,5-.64,1-9.33,24.33-13.82,28.94-5.12,5.25-12.52,10.53-26.64,10.53l-1.35,0c-13.84-.32-26.11-3.66-30.71-15.83s-2-24.69-4.61-27.4a12.78,12.78,0,0,0-5.91-3.43l-.95-12.64S129.4,126,148,126c1.06,0,2.12,0,3.17,0,19.37.47,34,8.74,45.83,8.74A19.36,19.36,0,0,1,200,135a19.36,19.36,0,0,1,2.94-.21c11.81,0,26.46-8.27,45.83-8.74q1.57,0,3.17,0m0-4c-1.11,0-2.21,0-3.27,0-11.17.27-20.65,3-29,5.34-6.43,1.83-12,3.4-16.73,3.4A24.19,24.19,0,0,0,200,131a24.19,24.19,0,0,0-2.94-.17c-4.75,0-10.3-1.58-16.73-3.4-8.36-2.37-17.83-5.07-29-5.34-1.05,0-2.15,0-3.27,0-18.78,0-39.2,3.61-40.06,3.76l-3.55.63.27,3.6.95,12.64.22,3,2.93.63h0a9,9,0,0,1,3.66,2.09,34.59,34.59,0,0,1,.55,6c.25,5.42.58,12.84,3.4,20.26,6.73,17.77,27.53,18.25,34.36,18.41l1.45,0c16,0,24.18-6.27,29.51-11.74,3.34-3.43,7.67-13.12,13.15-26.62.54-1.34,1.11-2.73,1.3-3.17s.53-.95.75-1.36c.77-1.47.81-1.55,3.07-1.55,2.48,0,2.61.27,3.57,2.39l.1.23c.07.15.26.64.55,1.36,6.64,16.7,11,25.56,14,28.71,5.32,5.46,13.49,11.74,29.51,11.74l1.45,0c6.83-.16,27.63-.64,34.36-18.41,2.81-7.43,3.15-14.85,3.4-20.26a34.59,34.59,0,0,1,.55-6,9,9,0,0,1,3.7-2.1l2.93-.63.18-3,.95-12.64.27-3.6-3.55-.63c-.86-.15-21.28-3.76-40.06-3.76Z"/><path class="6fbd478f-f1a0-4e79-a115-9a1c652bd1bf" d="M248.75,126c-19.37.47-34,8.74-45.83,8.74A19.36,19.36,0,0,0,200,135a19.36,19.36,0,0,0-2.94-.21c-11.81,0-26.46-8.27-45.83-8.74s-42.52,3.66-42.52,3.66l.95,12.64a12.78,12.78,0,0,1,5.91,3.43c2.6,2.72-5.37-11.1,5-13.94,15.94-4.39,31.44-3.59,43.25-2.32,32.5,3.5,27.28,19.1,27.92,18.07,1.54-2.48,2.69-5.57,8.33-5.57,5.21,0,6.83,3,8,5.57.5,1.11-2.8-8.33,6.78-12.16,14.39-5.75,23.72-7.4,38.72-7.75,13.84-.32,22.56,1,27.33,2.33,3.09.89,3.17,1.82,5.33,3.67,2.86,2.44,4.17,8.67,4.17,8.67l.95-12.64S268.13,125.57,248.75,126Z"/><path class="151405ce-7ef9-403e-b77c-8968e1c5bff3" d="M151,185.1c-10.13,0-29.73-6.35-31.4-30.35-.48-6.9,1.2-12.48,5-16.59C131,131.22,141,131,141.39,131c.06,0,3-.21,7.33-.21,11.66,0,31.7,1.52,34.92,11.72,1.65,5.22,1.44,19.45-6.47,30.24-5.92,8.07-15,12.34-26.19,12.34Z"/><path d="M148.72,131.79c11,0,30.92,1.37,34,11,2.84,9-.66,41.28-31.71,41.28h0c-11.21,0-28.85-7-30.4-29.42S141.41,132,141.41,132s3-.21,7.32-.21m0-2v0c-4.1,0-7,.18-7.41.21-1,0-11,.43-17.48,7.47-4,4.32-5.75,10.16-5.25,17.34.73,10.48,5,19,12.36,24.56a33.93,33.93,0,0,0,20,6.72c11.56,0,20.9-4.41,27-12.75,7.5-10.23,8.66-24.66,6.62-31.14-3.24-10.26-21.3-12.42-35.87-12.42Z"/><path class="151405ce-7ef9-403e-b77c-8968e1c5bff3" d="M248,185.1c-11.22,0-20.28-4.27-26.19-12.34-7.91-10.79-8.12-25-6.47-30.24,3.22-10.2,23.26-11.72,34.92-11.72,4.34,0,7.27.21,7.39.22.36,0,10.37.21,16.77,7.14,3.79,4.11,5.47,9.69,5,16.59-1.66,24-21.26,30.35-31.4,30.35Z"/><path d="M250.29,131.79c4.35,0,7.32.21,7.32.21s22.38.28,20.83,22.67S259.25,184.09,248,184.1h0c-31,0-34.55-32.28-31.71-41.28,3-9.66,22.95-11,34-11m0-2c-14.58,0-32.63,2.15-35.87,12.42-2,6.48-.89,20.9,6.62,31.14,6.11,8.34,15.45,12.75,27,12.75a33.94,33.94,0,0,0,20-6.72c7.36-5.59,11.64-14.08,12.36-24.56.5-7.18-1.27-13-5.25-17.34-6.48-7-16.5-7.44-17.48-7.47-.44,0-3.3-.21-7.4-.21Z"/><path class="6fbd478f-f1a0-4e79-a115-9a1c652bd1bf" d="M182.69,142.81c5.31,14.69-13.49,0-40.52,4-15.83,2.33-20,30.23-21.59,7.84S141.41,132,141.41,132,177.89,129.53,182.69,142.81Z"/><path class="6fbd478f-f1a0-4e79-a115-9a1c652bd1bf" d="M216.32,142.81c-2.84,9,2.13,21.68,17.34,4.76,14-14.32,44.77,7.1,44.77,7.1C280,132.29,257.61,132,257.61,132S220.58,129.35,216.32,142.81Z"/><ellipse class="a23c7781-9949-4a28-b7f4-e8377388702f" cx="115.56" cy="135.6" rx="4.78" ry="3.06" transform="translate(-38.83 224.5) rotate(-79.49)"/><ellipse class="a23c7781-9949-4a28-b7f4-e8377388702f" cx="283.66" cy="135.6" rx="3.06" ry="4.78" transform="translate(-27.55 90.91) rotate(-17.38)"/></g><g id="04ac2b4e-c183-48b4-923c-92b3aafa49bb" data-name="Scarf"><path class="545a54ff-bd84-4159-9740-7341fcf96eb6" d="M156.31,352.72a6.66,6.66,0,0,1-5.56-3,6.66,6.66,0,0,1-10.18-.83,6.65,6.65,0,0,1-10.22-1.33,6.61,6.61,0,0,1-1.36.14,6.67,6.67,0,0,1-6.67-6.67V322.81l.75-76.24a6.61,6.61,0,0,1,8.07-6.38l32.7,6.43L163,329.15v16.91A6.67,6.67,0,0,1,156.31,352.72Z"/><path class="4b55acb4-e4f1-402e-9c51-9e9ee26a46e2" d="M129.69,242.52a4.15,4.15,0,0,1,.92.1l30.73,6-.83,79.5,0,0v17.86a4.17,4.17,0,1,1-8.33,0V331.52q-.92.17-2,.32v13.21a4.17,4.17,0,0,1-8.33,0V332.3c-.57,0-1.14,0-1.67-.08v11.83a4.17,4.17,0,0,1-8.33,0,4.15,4.15,0,0,1-7-3v-18s0,0,0-.07l.75-76.39a4.11,4.11,0,0,1,4.1-4.07m0-5a9.14,9.14,0,0,0-9.1,9l-.75,76.2c0,.1,0,.2,0,.3v18a9.18,9.18,0,0,0,9.17,9.17h.23a9.14,9.14,0,0,0,11,2,9.15,9.15,0,0,0,10.18.91,9.16,9.16,0,0,0,15-7V330.17h0l0-1.95.83-79.5,0-4.16-4.08-.8-30.67-6a9.16,9.16,0,0,0-1.94-.21Z"/><path class="545a54ff-bd84-4159-9740-7341fcf96eb6" d="M129,346.22a5.17,5.17,0,0,1-5.17-5.17v-18a5.17,5.17,0,0,1,10.33,0v18A5.17,5.17,0,0,1,129,346.22Z"/><path class="4b55acb4-e4f1-402e-9c51-9e9ee26a46e2" d="M129,318.88a4.18,4.18,0,0,1,4.17,4.17v18a4.18,4.18,0,0,1-4.17,4.17h0a4.18,4.18,0,0,1-4.17-4.17v-18a4.18,4.18,0,0,1,4.17-4.17h0m0-2a6.17,6.17,0,0,0-6.17,6.17v18a6.17,6.17,0,0,0,12.33,0v-18a6.17,6.17,0,0,0-6.17-6.17Z"/><path class="0d753694-3bb3-4974-a11d-db0bb199ba99" d="M129,345.22h0c-2.29,0-.25,0-.34-3.47,0,0,.38-6.92.17-8.75-2.37-1-4-4-4-4,0-2.29,0-10.16,4.17-10.16h0a4.18,4.18,0,0,1,4.17,4.17v18A4.18,4.18,0,0,1,129,345.22Z"/><path class="545a54ff-bd84-4159-9740-7341fcf96eb6" d="M136,349.22a5.17,5.17,0,0,1-5.17-5.17v-18a5.17,5.17,0,0,1,10.33,0v18A5.17,5.17,0,0,1,136,349.22Z"/><path class="4b55acb4-e4f1-402e-9c51-9e9ee26a46e2" d="M136,321.89a4.18,4.18,0,0,1,4.17,4.17v18a4.17,4.17,0,1,1-8.33,0v-18a4.18,4.18,0,0,1,4.17-4.17m0-2a6.17,6.17,0,0,0-6.17,6.17v18a6.17,6.17,0,1,0,12.33,0v-18a6.17,6.17,0,0,0-6.17-6.17Z"/><path class="0d753694-3bb3-4974-a11d-db0bb199ba99" d="M136,348.22h0c-2.29,0,1.75,0,1.66-3.47,0,0,.37-6.87.16-8.7a62.13,62.13,0,0,0-6-2c0-2.29,0-12.16,4.17-12.16h0a4.18,4.18,0,0,1,4.17,4.17v18A4.18,4.18,0,0,1,136,348.22Z"/><path class="545a54ff-bd84-4159-9740-7341fcf96eb6" d="M146,350.22a5.17,5.17,0,0,1-5.17-5.17v-18a5.17,5.17,0,1,1,10.33,0v18A5.17,5.17,0,0,1,146,350.22Z"/><path class="4b55acb4-e4f1-402e-9c51-9e9ee26a46e2" d="M146,322.89a4.18,4.18,0,0,1,4.17,4.17v18a4.18,4.18,0,0,1-4.17,4.17h0a4.18,4.18,0,0,1-4.17-4.17v-18a4.18,4.18,0,0,1,4.17-4.17h0m0-2a6.17,6.17,0,0,0-6.17,6.17v18a6.17,6.17,0,0,0,12.33,0v-18a6.17,6.17,0,0,0-6.17-6.17Z"/><path class="0d753694-3bb3-4974-a11d-db0bb199ba99" d="M146,349.22h0c-2.29,0,1.75,0,1.66-3.47,0,0,.53-7.87.32-9.7a19.66,19.66,0,0,0-6.15-1c0-2.29,0-12.16,4.17-12.16h0a4.18,4.18,0,0,1,4.17,4.17v18A4.18,4.18,0,0,1,146,349.22Z"/><path class="545a54ff-bd84-4159-9740-7341fcf96eb6" d="M156.31,351.22a5.17,5.17,0,0,1-5.17-5.17v-18a5.17,5.17,0,0,1,10.33,0v18A5.17,5.17,0,0,1,156.31,351.22Z"/><path class="4b55acb4-e4f1-402e-9c51-9e9ee26a46e2" d="M156.31,323.89a4.18,4.18,0,0,1,4.17,4.17v18a4.17,4.17,0,0,1-8.33,0v-18a4.18,4.18,0,0,1,4.17-4.17m0-2a6.17,6.17,0,0,0-6.17,6.17v18a6.17,6.17,0,0,0,12.33,0v-18a6.17,6.17,0,0,0-6.17-6.17Z"/><path class="0d753694-3bb3-4974-a11d-db0bb199ba99" d="M156.31,350.22h0c-2.29,0,1.75,0,1.66-3.47,0,0,.4-9.34.19-11.17-2.37-1-6,.46-6,.46,0-2.29,0-12.16,4.17-12.16h0a4.18,4.18,0,0,1,4.17,4.17v18A4.18,4.18,0,0,1,156.31,350.22Z"/><path class="545a54ff-bd84-4159-9740-7341fcf96eb6" d="M142.7,333.84c-14.29,0-19-9.11-19.21-9.5l-.16-.32.76-77.44a5.61,5.61,0,0,1,6.85-5.42l31.91,6.28L162,328.75l-.38.42c-.41.46-4.43,4.5-18.52,4.67Z"/><path class="4b55acb4-e4f1-402e-9c51-9e9ee26a46e2" d="M129.69,242.52a4.15,4.15,0,0,1,.92.1l30.73,6-.83,79.5s-3.58,4-17.42,4.17h-.39c-13.53,0-17.87-8.67-17.87-8.67l.75-77.07a4.11,4.11,0,0,1,4.1-4.07m0-3a7.13,7.13,0,0,0-7.1,7l-.75,77.07v.72l.32.65c.21.42,5.34,10.33,20.55,10.33h.42c14.42-.17,18.87-4.33,19.62-5.16l.75-.84V328.2l.83-79.5,0-2.49-2.45-.48-30.69-6a7.16,7.16,0,0,0-1.53-.17Z"/><path class="0d753694-3bb3-4974-a11d-db0bb199ba99" d="M130.61,242.63a4.1,4.1,0,0,0-4,1.29l-1,2.68-.1,10.45c5.28,16,32.64,29.58,32.64,29.58s3.67,31.67-3.5,40a17.71,17.71,0,0,1-8,5.42,39.34,39.34,0,0,0,9.75-1.64,10.55,10.55,0,0,0,4.1-2.24l.83-79.5Z"/><path class="0d753694-3bb3-4974-a11d-db0bb199ba99" d="M142.45,332.33h.64c1,0,2,0,2.95-.1l.61-.18c-.82.05-1.69.09-2.61.12A8.29,8.29,0,0,0,142.45,332.33Z"/><path class="545a54ff-bd84-4159-9740-7341fcf96eb6" d="M198.56,287.29c-.26,0-6.45-.11-9.32-.31-41.37-2.94-62.43-25.71-66.49-40.29l-.11-.4v-.41c0-10.47,9.5-21.95,17-23.64l.84-.19.81.29a12.17,12.17,0,0,1,3.56,2.4c4.85,4.05,16.21,13.54,51.86,14.64h3.51c35.56-1.1,46.91-10.59,51.76-14.64a12.16,12.16,0,0,1,3.56-2.4l.81-.29.84.19c7.49,1.7,17,13.17,17,23.64v.41l-.11.4c-3.7,13.29-22.68,34.8-59.79,39.62a122.14,122.14,0,0,1-15.68,1Z"/><path class="4b55acb4-e4f1-402e-9c51-9e9ee26a46e2" d="M256.53,225.17c5.72,1.3,14.66,11.2,14.66,20.72-3.62,13-22.06,32.87-57.29,37.45a118.72,118.72,0,0,1-15.29,1s-6.34-.11-9.16-.31c-39.48-2.81-60-24.34-63.82-38.1,0-9.52,8.94-19.42,14.66-20.72,3.7,1.3,11.45,15.82,56.32,17.21h3.6c44.87-1.38,52.62-15.91,56.32-17.21m-.36-6.23-1.63.57a14.62,14.62,0,0,0-4.49,2.93c-4.61,3.85-15.39,12.86-49.93,13.94h-3.41c-34.54-1.08-45.33-10.09-49.93-13.94a14.62,14.62,0,0,0-4.49-2.93l-1.63-.57-1.68.38c-8.7,2-19.33,14.62-19.33,26.57v.82l.22.79c4.29,15.4,26.26,39.42,69.17,42.47,3,.21,9.22.32,9.49.32h.1a125.28,125.28,0,0,0,16.06-1c16.77-2.18,31.76-8,43.34-16.74,9.64-7.3,16.55-16.43,19-25.05l.22-.79v-.82c0-12-10.63-24.6-19.33-26.57l-1.68-.38Z"/><path class="0d753694-3bb3-4974-a11d-db0bb199ba99" d="M189.46,284a40.2,40.2,0,0,0-5.63-.55C185.66,283.65,187.53,283.85,189.46,284Z"/><path class="0d753694-3bb3-4974-a11d-db0bb199ba99" d="M256.53,225.17l-.33.15-.14.08-.08,0c-2.32,1.45-5.68,6.81-19.11,11.19-8.13,2.84-19.76,5.22-36.65,5.74,0,0,15.35,1.63,4.12,10.16-3.4,2.58,17.33,2.19,16.67,16.47-.46,9.93-6.06,12.14-12.21,14.86,1.74-.15,3.45-.31,5.11-.53,35.22-4.57,53.67-24.46,57.29-37.45C271.19,236.37,262.25,226.46,256.53,225.17Z"/><path class="b1d22b00-8ebb-40f4-b564-01428706f104" d="M140.3,223.17s13.7,21.5,36.7,27.17,45.67-.67,56.33-7,20.73-14.67,23.2-20.17"/></g></svg>