<svg xmlns="http://www.w3.org/2000/svg" width="142.453" height="142.453"><path fill="#CCEFFE" d="M106.79 114.676c-.718 0-1.39-.249-1.947-.722l-10.122-8.593a3.687 3.687 0 01-1.296-2.82c0-1.095.472-2.122 1.292-2.821l10.118-8.593a2.956 2.956 0 011.945-.725c1.686 0 3.061 1.398 3.061 3.113v2.764c8.616-2.457 14.698-10.628 14.698-20.101 0-11.115-8.342-20.26-18.989-20.819-1.418-.079-2.529-1.282-2.529-2.74V45.91c0-1.514 1.201-2.747 2.678-2.747 16.971.712 30.69 15.52 30.69 33.015 0 16.108-11.321 29.872-26.543 32.561l.004 2.818c0 .856-.331 1.653-.929 2.241a3.068 3.068 0 01-2.131.878z"/><path fill="#4F6A7F" d="M105.698 44.665l.047.002c16.1.675 29.142 14.637 29.142 31.512 0 15.957-11.661 29.295-26.541 31.276v4.104c0 .959-.756 1.614-1.56 1.614a1.48 1.48 0 01-.973-.367l-10.123-8.591c-1.02-.865-1.022-2.485 0-3.354l10.115-8.592a1.49 1.49 0 01.975-.367c.803 0 1.56.655 1.56 1.614l.003 4.654c10.062-1.874 17.696-11.004 17.696-21.989 0-11.959-9.04-21.723-20.408-22.321-.627-.033-1.107-.591-1.107-1.241V45.91c-.001-.679.525-1.245 1.174-1.245m0-3.001c-2.303 0-4.178 1.906-4.178 4.247v6.709c0 2.26 1.734 4.121 3.95 4.237 9.851.52 17.567 9.006 17.567 19.322 0 8.078-4.745 15.133-11.697 17.992v-.655c0-2.544-2.046-4.613-4.561-4.613a4.522 4.522 0 00-2.917 1.079l-10.118 8.595a5.183 5.183 0 00-1.823 3.965c0 1.534.667 2.979 1.826 3.964l10.125 8.593a4.513 4.513 0 002.917 1.081 4.571 4.571 0 003.18-1.306 4.597 4.597 0 001.38-3.313v-1.583c15.305-3.322 26.541-17.397 26.541-33.794 0-18.292-14.363-33.772-32.019-34.513l-.062-.003-.111-.004z"/><path fill="#CCEFFE" d="M36.643 111.859c-16.86-.708-30.578-15.517-30.578-33.012 0-16.108 11.32-29.873 26.54-32.562l-.001-2.818c0-.856.331-1.654.929-2.24a3.074 3.074 0 012.131-.877c.716 0 1.388.25 1.945.722l10.125 8.594a3.692 3.692 0 011.295 2.822 3.692 3.692 0 01-1.295 2.821L37.62 63.9a2.977 2.977 0 01-1.947.725c-1.686 0-3.06-1.399-3.06-3.114l-.001-2.761c-8.617 2.454-14.697 10.626-14.697 20.097 0 11.114 8.341 20.261 18.988 20.821 1.417.074 2.529 1.277 2.529 2.738v6.709c0 .716-.268 1.39-.75 1.907a2.66 2.66 0 01-1.924.842l-.115-.005z"/><path fill="#4F6A7F" d="M35.664 41.85c.335 0 .677.113.974.366l10.125 8.594c1.022.866 1.022 2.487 0 3.352l-10.115 8.593a1.5 1.5 0 01-.974.368 1.584 1.584 0 01-1.56-1.613l-.001-4.654C24.052 58.73 16.415 67.858 16.415 78.848c0 11.956 9.041 21.72 20.411 22.319.625.031 1.107.591 1.107 1.24v6.709c0 .681-.526 1.245-1.176 1.245-.015 0-.032 0-.046-.002-16.1-.675-29.143-14.636-29.143-31.512 0-15.958 11.661-29.295 26.542-31.277l-.002-4.104a1.577 1.577 0 011.556-1.616m0-3.001a4.586 4.586 0 00-3.181 1.306 4.588 4.588 0 00-1.379 3.312v1.584C15.801 48.373 4.562 62.447 4.562 78.847c0 18.287 14.364 33.769 32.019 34.51l.063.002.109.002c2.304 0 4.178-1.904 4.178-4.247v-6.709c0-2.26-1.735-4.121-3.951-4.237-9.85-.519-17.568-9.005-17.568-19.32 0-8.08 4.747-15.133 11.698-17.994v.656c.002 2.544 2.047 4.615 4.562 4.615a4.505 4.505 0 002.917-1.083l10.115-8.593a5.186 5.186 0 001.824-3.965 5.198 5.198 0 00-1.825-3.965l-10.124-8.592a4.512 4.512 0 00-2.915-1.078z"/><g><path fill="#5B2A2A" d="M62.574 36.267c-.118-.084-.887.308-1.034.301a15.93 15.93 0 00-2.342.055c-.059.006-.122.016-.159.059-.033.039-.034.094-.034.147-.003 1.171-.122 2.149-.045 3.283.04.57.137 1.206.596 1.55.258.192.589.257.91.294a7.38 7.38 0 001.18.041c.253-.013.517-.041.735-.167.452-.268.572-.859.578-1.381.011-1.169.166-2.808-.266-3.897-.055-.14.006-.201-.119-.285zM90.812 34.143a.646.646 0 00-.472 0c-.48.224-1.053.895-1.534 1.118-.206.096-1.149.553-1.259.782-.082.17-.085 1.314-.085 1.509 0 1.394 0 2.787-.003 4.181 0 .405-.294.969-.093 1.297.146.236.674.25.908.364.257.068 1.322.132 1.589.103a.903.903 0 00.718-.474c.104-.21.12-.463.135-.707.067-1.195.138-2.393.206-3.591.046-.796.093-1.599.018-2.396-.022-.2.031-2.108-.128-2.186z"/><path fill="#5B2A2A" d="M107.372 12.539c-.158-1.139-.815-2.156-1.552-3.056-.719-.884-1.305-1.759-2.217-2.457-.334-.255-.906-.767-1.328-.782-.335-.013-.56.222-.894.255-.87.084-1.268-.529-2.221-.652-.227-.03-2.1.468-2.1.468s-.712 1.182-.956 2.029c-.008-.252-.258-1.146-.219-1.396.19-.386.771-1.232.826-1.273.311-.221 1.489-.339 1.87-.316.864.051 1.814.305 2.679.219.418-.041 1.144.011 1.439-.267.316-.293.405-.528.58-.939.334-.786-.325-1.7-.913-2.318-.588-.618-1.402-.97-2.211-1.244-3.044-1.039-6.744-.535-9.283 1.441-1.423 1.111-2.596 2.569-4.102 3.572-2.776 1.849-6.185.517-9.481 1.039-.871.138-1.734.382-2.618.37-1.258-.016-2.091-.393-3.344-.503-3.492-.302-3.181-.628-4.698-.156-.777.242-1.966.303-2.743.539-2.444.738-5.197.364-7.47 1.528-1.599.82-2.873 1.908-4.292 3.007-1.09.844-2.215 1.604-3.19 2.576-1.444 1.436-1.97 4.509-1.258 6.415.167.447.87.675 1.285.44.215-.122.52-.581.594-.815.329-1.028.578-2.23 1.5-2.787l.31.133c-1.417 2.917-1.363 6.639-.62 9.796.742 3.157 2.147 6.032 2.069 9.273-.034 1.465-.684 4.114.364 5.137.878.855 3.381 1.039 4.239-.146.352-.488.102-1.675.125-2.276.055-1.428.197-2.29.25-3.719 2.91.481 5.594-.329 7.695-2.271a8.862 8.862 0 001.032-.199c.249-.064.492-.15.733-.246 4.159 1.047 12.862 1.284 12.895 1.304l.106-.01c.23.441.552.833.945 1.138.224.473.355.928.408 1.469l.01.099c.007.096.011.201.014.307l.009.165c0 .176 0 .361-.009.561-.044 1.063-.217 1.783-.129 2.772v.018c-.022.554-.022 1.121.144 1.65.022.064.053.126.079.189.061.282.146.547.284.761.337.525 1.303.764 1.847.751.616-.014 1.514-.066 1.816-.501.434-.625.396-2.188.344-3.071-.024-.427-.062-.958-.084-1.526.002-.03 0-.058.002-.088.029-.89.125-1.778.287-2.653.083-.452.193-.915.47-1.281.342-.454.893-.69 1.391-.966.077-.041.147-.09.221-.135.413-.142.943-.172 1.395-.548 3.383-2.832 6.193-5.636 7.47-10.19.381-1.366.529-2.549 1.328-4.112.511-.424.446-.241.687-.869.023-.059.354-.386.366-.449.074-.116.3-.501.3-.501s-.684-.175-.833-.176c-.665-.404-1.061.11-1.657-.388-.18-.15-.94-.943-1.098-1.117-.489-.54-.17-1.51-.761-1.937-.185-.134-.369-.281-.471-.483-.002-.005-.002-.01-.005-.015a8.859 8.859 0 01-.114-.454v-.015c-.067-.503.478-1.005.885-1.51.003.079.008.155.015.219.202 1.86 1.667 2.987 2.804 3.76.391.267 1.083.479 1.52.672 1.364.601 3.391.277 4.868.031.36-.059.718-.155 1.037-.324 1.039-.544 1.49-1.826 1.334-2.966zm-14.303-2.408c-.349.753-1.224 2.136-2.051 2.088-.77-.043-1.313-.85-1.347-1.619-.034-.769.562-2.087.893-2.782.213-.452-.26 2.532.135 2.66l.863.344c.719-.487 1.115-1.721 1.472-1.468.109.076.133.233.142.365.009.144-.048.282-.107.412z"/></g><g><path fill="#5B2A2A" d="M52.408 120.383h14.11a1.864 1.864 0 001.859-1.859v-5.277a1.864 1.864 0 00-1.859-1.858h-14.11a1.865 1.865 0 00-1.859 1.858v5.277c0 1.022.835 1.859 1.859 1.859zM71.972 120.383h14.11a1.866 1.866 0 001.861-1.859v-5.277a1.865 1.865 0 00-1.861-1.858h-14.11c-1.022 0-1.86.838-1.86 1.858v5.277c0 1.022.838 1.859 1.86 1.859zM66.518 133.175h-14.11a1.865 1.865 0 00-1.859 1.859v5.278c0 1.023.837 1.857 1.859 1.857h14.11a1.865 1.865 0 001.859-1.857v-5.278a1.862 1.862 0 00-1.859-1.859zM86.083 133.175h-14.11c-1.022 0-1.86.838-1.86 1.859v5.278c0 1.023.838 1.857 1.86 1.857h14.11a1.866 1.866 0 001.861-1.857v-5.278a1.865 1.865 0 00-1.861-1.859zM57.44 129.558v-5.276a1.866 1.866 0 00-1.86-1.859H41.47a1.864 1.864 0 00-1.859 1.859v5.276c0 1.023.837 1.859 1.859 1.859h14.11c1.022 0 1.86-.837 1.86-1.859zM61.218 122.422a1.864 1.864 0 00-1.859 1.859v5.276c0 1.023.837 1.859 1.859 1.859h14.11a1.864 1.864 0 001.858-1.859v-5.276a1.864 1.864 0 00-1.858-1.859h-14.11zM94.987 122.422h-14.11a1.865 1.865 0 00-1.861 1.859v5.276c0 1.023.839 1.859 1.861 1.859h14.109a1.864 1.864 0 001.857-1.859v-5.276a1.862 1.862 0 00-1.856-1.859z"/></g></svg>