<svg width="752" height="748" viewBox="0 0 752 748" fill="none" xmlns="http://www.w3.org/2000/svg">
<path d="M185.879 439.996L12.0033 439.997C7.58512 439.997 4.00344 443.579 4.00336 447.997L4.00016 611.992C4.00007 616.41 7.58181 619.992 12.0001 619.992H185.879C190.297 619.992 193.879 616.41 193.879 611.992L193.879 447.996C193.879 443.578 190.298 439.996 185.879 439.996Z" fill="url(#paint0_radial)" stroke="#414042" stroke-width="8"/>
<path d="M185.879 259.969L12.0033 259.97C7.58512 259.97 4.00344 263.551 4.00336 267.969L4.00016 431.964C4.00007 436.383 7.58181 439.965 12.0001 439.965H185.879C190.297 439.965 193.879 436.383 193.879 431.965L193.879 267.969C193.879 263.551 190.298 259.969 185.879 259.969Z" fill="url(#paint1_radial)" stroke="#414042" stroke-width="8"/>
<path d="M185.879 80L12.0033 80.0008C7.58512 80.0009 4.00344 83.5825 4.00336 88.0007L4.00016 251.996C4.00007 256.414 7.58181 259.996 12.0001 259.996H185.879C190.297 259.996 193.879 256.414 193.879 251.996L193.879 88.0001C193.879 83.5818 190.298 80 185.879 80Z" fill="url(#paint2_radial)" stroke="#414042" stroke-width="8"/>
<path d="M169.153 340.82C168.314 340.767 167.525 340.415 166.931 339.83C166.337 339.244 165.98 338.465 165.927 337.639L164.636 318.551C164.597 317.67 164.896 316.807 165.475 316.134L229.22 240.74C229.539 240.372 229.935 240.077 230.38 239.874C230.826 239.671 231.31 239.565 231.801 239.562C232.296 239.564 232.785 239.67 233.236 239.873C233.686 240.076 234.088 240.371 234.414 240.74L298.191 316.166C298.524 316.582 298.758 317.067 298.875 317.584C298.993 318.102 298.99 318.639 298.868 319.156L294.255 338.243C294.069 338.957 293.655 339.593 293.074 340.057C292.493 340.521 291.776 340.788 291.029 340.82H169.153Z" fill="#81635E"/>
<path d="M231.687 242.871L295.464 318.297L290.851 337.384H169.168L167.91 318.297L231.687 242.839V242.871ZM231.687 236.477C230.716 236.484 229.758 236.698 228.878 237.105C227.998 237.511 227.218 238.1 226.59 238.831L162.813 314.289C161.739 315.586 161.188 317.229 161.265 318.902L162.555 337.989C162.659 339.622 163.379 341.157 164.573 342.293C165.767 343.43 167.349 344.084 169.007 344.129H290.69C292.181 344.108 293.624 343.6 294.791 342.685C295.958 341.77 296.785 340.499 297.142 339.07L301.755 319.983C301.975 318.99 301.968 317.96 301.733 316.969C301.499 315.979 301.044 315.052 300.4 314.257L236.623 238.799C235.988 238.069 235.202 237.481 234.317 237.075C233.432 236.669 232.47 236.454 231.494 236.445L231.687 236.477Z" fill="#414342"/>
<path d="M382.774 272.475C381.91 272.454 381.084 272.116 380.458 271.528C379.832 270.94 379.45 270.144 379.387 269.294L378.129 250.207C378.091 249.38 378.354 248.568 378.871 247.916L442.68 172.395C443.004 172.024 443.405 171.727 443.856 171.524C444.307 171.32 444.797 171.215 445.293 171.215C445.789 171.215 446.279 171.32 446.73 171.524C447.181 171.727 447.582 172.024 447.906 172.395L511.651 247.853C511.982 248.258 512.218 248.731 512.341 249.237C512.464 249.743 512.47 250.27 512.36 250.779L507.747 269.866C507.556 270.578 507.141 271.211 506.561 271.674C505.981 272.138 505.267 272.407 504.521 272.443L382.774 272.475Z" fill="#81635E"/>
<path d="M445.345 174.489L509.09 249.947L504.476 269.034H382.826L381.535 249.947L445.312 174.489H445.345ZM445.312 168.127C444.333 168.135 443.368 168.353 442.482 168.765C441.597 169.177 440.812 169.773 440.183 170.513L376.567 245.843C375.475 247.143 374.921 248.802 375.019 250.488L376.277 269.575C376.392 271.235 377.142 272.789 378.376 273.923C379.61 275.058 381.235 275.687 382.922 275.683H504.605C506.092 275.664 507.531 275.161 508.698 274.252C509.865 273.343 510.695 272.079 511.057 270.656L515.67 251.569C515.905 250.576 515.905 249.543 515.67 248.55C515.435 247.558 514.971 246.631 514.316 245.843L450.442 170.417C449.822 169.675 449.044 169.077 448.163 168.664C447.282 168.252 446.32 168.036 445.345 168.031L445.312 168.127Z" fill="#414342"/>
<path d="M596.847 340.82C596.009 340.767 595.219 340.415 594.625 339.83C594.031 339.244 593.674 338.465 593.621 337.639L592.331 318.551C592.299 317.716 592.561 316.896 593.073 316.229L656.882 240.74C657.21 240.375 657.612 240.081 658.062 239.879C658.512 239.676 659 239.568 659.495 239.562C659.99 239.564 660.48 239.67 660.93 239.873C661.381 240.076 661.782 240.371 662.108 240.74L725.853 316.166C726.193 316.578 726.431 317.063 726.548 317.582C726.666 318.101 726.66 318.64 726.53 319.156L721.949 338.243C721.763 338.957 721.349 339.593 720.768 340.057C720.187 340.521 719.47 340.788 718.723 340.82H596.847Z" fill="#81635E"/>
<path d="M659.351 242.875L723.129 318.301L718.483 337.61H596.832L595.542 318.523L659.319 243.066L659.351 242.875ZM659.319 236.703C658.348 236.71 657.389 236.924 656.51 237.331C655.63 237.737 654.85 238.326 654.222 239.057L590.445 314.515C589.357 315.805 588.804 317.453 588.897 319.128L590.155 338.215C590.269 339.878 591.018 341.436 592.252 342.575C593.485 343.714 595.11 344.35 596.8 344.355H718.483C719.972 344.341 721.413 343.84 722.581 342.93C723.749 342.02 724.577 340.753 724.935 339.328L729.58 320.241C729.801 319.247 729.793 318.218 729.559 317.227C729.324 316.237 728.869 315.31 728.226 314.515L664.448 239.057C663.813 238.327 663.027 237.739 662.142 237.333C661.257 236.927 660.295 236.712 659.319 236.703V236.703Z" fill="#414342"/>
<g style="mix-blend-mode:darken" opacity="0.25">
<path d="M231.574 242.875L276.125 341.492L281.867 341.396L280.544 331.408L282.06 306.721L289.674 306.499L231.574 242.875Z" fill="#414342"/>
</g>
<path d="M516.471 311.613H374.368C372.568 311.613 371.109 313.052 371.109 314.826V451.649C371.109 453.424 372.568 454.862 374.368 454.862H516.471C518.27 454.862 519.729 453.424 519.729 451.649V314.826C519.729 313.052 518.27 311.613 516.471 311.613Z" fill="#CECECE"/>
<path d="M516.547 314.858V451.65H374.444V314.858H516.547ZM516.547 308.496H374.444C372.733 308.496 371.092 309.166 369.882 310.36C368.672 311.553 367.992 313.171 367.992 314.858V451.65C367.992 453.337 368.672 454.955 369.882 456.149C371.092 457.342 372.733 458.012 374.444 458.012H516.547C518.258 458.012 519.899 457.342 521.109 456.149C522.319 454.955 522.999 453.337 522.999 451.65V314.858C522.999 313.171 522.319 311.553 521.109 310.36C519.899 309.166 518.258 308.496 516.547 308.496Z" fill="#414342"/>
<path d="M318.482 664.498C317.627 664.498 316.806 664.163 316.201 663.567C315.596 662.97 315.257 662.161 315.257 661.317L307.998 425.305C307.983 424.878 308.055 424.452 308.21 424.053C308.365 423.654 308.6 423.29 308.901 422.982C309.205 422.668 309.57 422.419 309.975 422.249C310.38 422.08 310.816 421.993 311.256 421.996H349.613C350.468 421.996 351.289 422.331 351.894 422.928C352.499 423.525 352.839 424.334 352.839 425.177V453.808H384.679V425.177C384.679 424.334 385.019 423.525 385.624 422.928C386.229 422.331 387.049 421.996 387.905 421.996H426.294C427.149 421.996 427.97 422.331 428.575 422.928C429.18 423.525 429.52 424.334 429.52 425.177V453.808H461.36V425.177C461.36 424.334 461.7 423.525 462.305 422.928C462.91 422.331 463.73 421.996 464.586 421.996H502.975C503.83 421.996 504.651 422.331 505.256 422.928C505.861 423.525 506.201 424.334 506.201 425.177V453.808H538.041V425.177C538.041 424.334 538.381 423.525 538.986 422.928C539.591 422.331 540.411 421.996 541.267 421.996H579.785C580.225 421.993 580.66 422.08 581.065 422.249C581.47 422.419 581.836 422.668 582.139 422.982C582.44 423.29 582.676 423.654 582.831 424.053C582.986 424.452 583.058 424.878 583.043 425.305L575.688 661.381C575.688 662.225 575.348 663.034 574.743 663.63C574.138 664.227 573.317 664.562 572.462 664.562L318.482 664.498Z" fill="#CECECE"/>
<path d="M579.801 425.305L572.413 661.381H318.434L311.176 425.368H349.532V457.18H387.921V425.368H426.31V457.18H464.666V425.368H503.055V457.18H541.412V425.368H579.801V425.305ZM579.801 419.006H541.412C539.701 419.006 538.06 419.676 536.85 420.87C535.64 422.063 534.96 423.681 534.96 425.368V450.818H509.636V425.368C509.636 423.681 508.956 422.063 507.746 420.87C506.536 419.676 504.895 419.006 503.184 419.006H464.796C463.084 419.006 461.443 419.676 460.233 420.87C459.023 422.063 458.344 423.681 458.344 425.368V450.818H433.02V425.368C433.02 423.681 432.34 422.063 431.13 420.87C429.92 419.676 428.279 419.006 426.568 419.006H388.179C386.468 419.006 384.827 419.676 383.617 420.87C382.407 422.063 381.727 423.681 381.727 425.368V450.818H356.404V425.368C356.404 423.681 355.724 422.063 354.514 420.87C353.304 419.676 351.663 419.006 349.952 419.006H311.208C310.336 419.001 309.472 419.17 308.668 419.504C307.864 419.837 307.137 420.328 306.53 420.947C305.919 421.563 305.44 422.295 305.124 423.099C304.808 423.902 304.661 424.761 304.692 425.623L312.047 661.508C312.047 663.196 312.726 664.814 313.936 666.007C315.146 667.2 316.787 667.871 318.499 667.871H572.478C574.189 667.871 575.83 667.2 577.04 666.007C578.25 664.814 578.93 663.196 578.93 661.508L586.285 425.782C586.285 425.591 586.285 425.432 586.285 425.241C586.285 423.554 585.605 421.936 584.395 420.742C583.185 419.549 581.544 418.879 579.833 418.879L579.801 419.006Z" fill="#414342"/>
<path d="M145.362 664.583C144.904 664.586 144.45 664.493 144.031 664.31C143.612 664.127 143.237 663.857 142.932 663.52C142.627 663.183 142.398 662.786 142.261 662.355C142.123 661.924 142.081 661.468 142.136 661.02L154.33 385.338L142.652 369.273C142.258 368.712 142.045 368.047 142.039 367.364V343.346V309.466C142.039 308.623 142.379 307.814 142.984 307.217C143.589 306.62 144.409 306.285 145.265 306.285H179.847C180.703 306.285 181.523 306.62 182.128 307.217C182.733 307.814 183.073 308.623 183.073 309.466V340.006H211.171V309.466C211.171 308.623 211.511 307.814 212.116 307.217C212.721 306.62 213.542 306.285 214.397 306.285H249.012C249.444 306.283 249.872 306.366 250.271 306.53C250.67 306.694 251.032 306.935 251.334 307.24C251.633 307.537 251.87 307.889 252.03 308.277C252.191 308.665 252.272 309.08 252.27 309.498V340.038H280.4V309.498C280.4 308.655 280.74 307.845 281.345 307.249C281.95 306.652 282.771 306.317 283.626 306.317H318.466C319.322 306.317 320.142 306.652 320.747 307.249C321.352 307.845 321.692 308.655 321.692 309.498V367.3C321.692 367.989 321.466 368.659 321.047 369.209L309.401 385.338L321.692 661.147C321.728 661.586 321.671 662.027 321.525 662.443C321.379 662.859 321.147 663.24 320.844 663.563C320.541 663.886 320.173 664.143 319.764 664.319C319.354 664.494 318.913 664.584 318.466 664.583H145.362Z" fill="#CECECE"/>
<path d="M145.406 309.464H179.988V343.217H214.635V309.464H249.249V343.217H283.896V309.528H318.478V343.344V367.33L306.123 384.286L318.478 661.304H145.374L157.729 384.349L145.374 367.394V343.344V309.464H145.406ZM145.374 303.102C143.663 303.102 142.022 303.772 140.812 304.965C139.602 306.158 138.922 307.777 138.922 309.464V343.344V367.362C138.928 368.732 139.368 370.067 140.18 371.179L151.213 386.322L138.954 661.049C138.906 661.909 139.036 662.77 139.335 663.58C139.635 664.389 140.098 665.13 140.696 665.758C141.318 666.408 142.068 666.927 142.9 667.282C143.732 667.638 144.628 667.823 145.535 667.825H318.478C319.385 667.823 320.282 667.638 321.114 667.282C321.946 666.927 322.695 666.408 323.317 665.758C323.916 665.13 324.379 664.389 324.678 663.58C324.978 662.77 325.107 661.909 325.059 661.049L312.801 386.322L323.834 371.147C324.653 370.051 325.094 368.724 325.092 367.362V309.528C325.092 307.84 324.412 306.222 323.202 305.029C321.992 303.836 320.351 303.165 318.64 303.165H283.896C282.185 303.165 280.544 303.836 279.334 305.029C278.124 306.222 277.444 307.84 277.444 309.528V336.822H255.863V309.559C255.868 308.707 255.699 307.862 255.366 307.075C255.034 306.288 254.544 305.575 253.927 304.979C253.323 304.379 252.604 303.905 251.812 303.583C251.02 303.26 250.171 303.097 249.314 303.102H214.635C212.924 303.102 211.283 303.772 210.073 304.965C208.863 306.158 208.183 307.777 208.183 309.464V336.759H186.601V309.496C186.601 307.808 185.922 306.19 184.712 304.997C183.502 303.804 181.861 303.134 180.15 303.134H145.6L145.374 303.102Z" fill="#414342"/>
<path d="M572.554 664.487C572.088 664.478 571.629 664.378 571.202 664.192C570.776 664.007 570.391 663.739 570.07 663.406C569.76 663.074 569.525 662.682 569.38 662.254C569.236 661.826 569.185 661.373 569.232 660.924L581.523 385.306L569.812 369.241V368.955C569.517 368.464 569.361 367.903 569.361 367.332V343.346V309.466C569.361 308.623 569.701 307.813 570.306 307.217C570.911 306.62 571.731 306.285 572.587 306.285H607.169C608.024 306.285 608.845 306.62 609.45 307.217C610.055 307.813 610.395 308.623 610.395 309.466V339.974H638.525V309.466C638.525 308.623 638.865 307.813 639.47 307.217C640.075 306.62 640.896 306.285 641.751 306.285H676.591C677.024 306.283 677.452 306.366 677.851 306.53C678.25 306.694 678.611 306.935 678.914 307.24C679.213 307.537 679.45 307.889 679.61 308.277C679.771 308.665 679.852 309.08 679.85 309.498V340.006H707.947V309.498C707.947 308.655 708.287 307.845 708.892 307.249C709.497 306.652 710.318 306.317 711.173 306.317H745.756C746.188 306.315 746.616 306.398 747.015 306.562C747.414 306.726 747.776 306.967 748.078 307.271C748.377 307.569 748.614 307.921 748.775 308.309C748.935 308.696 749.016 309.111 749.014 309.53V367.332C749.009 367.899 748.865 368.455 748.595 368.955L748.401 369.241L736.562 385.306L748.885 661.147C748.921 661.586 748.864 662.027 748.718 662.443C748.572 662.859 748.34 663.24 748.036 663.563C747.733 663.886 747.365 664.143 746.956 664.319C746.547 664.494 746.105 664.584 745.659 664.583L572.554 664.487Z" fill="#CECECE"/>
<path d="M572.559 309.401H607.109V343.154H641.724V309.465H676.564V343.218H711.178V309.465H745.761V367.267L733.405 384.223L745.761 661.146H572.527L584.915 384.223L572.592 367.267V343.281V309.401H572.559ZM572.559 303.039C570.848 303.039 569.207 303.709 567.997 304.903C566.787 306.096 566.107 307.714 566.107 309.401V343.281V367.299C566.114 368.67 566.554 370.004 567.366 371.117L578.366 386.259L566.107 660.987C566.05 661.856 566.174 662.728 566.473 663.549C566.771 664.369 567.237 665.12 567.842 665.755C568.447 666.391 569.178 666.897 569.989 667.242C570.801 667.587 571.676 667.765 572.559 667.763H745.535C746.419 667.765 747.293 667.587 748.105 667.242C748.916 666.897 749.647 666.391 750.252 665.755C750.857 665.12 751.323 664.369 751.622 663.549C751.92 662.728 752.044 661.856 751.987 660.987L739.728 386.259L750.761 371.085C751.569 369.984 751.999 368.658 751.987 367.299V343.313V309.815V309.497C751.987 307.809 751.307 306.191 750.097 304.998C748.887 303.805 747.246 303.134 745.535 303.134H711.049C709.338 303.134 707.697 303.805 706.487 304.998C705.277 306.191 704.598 307.809 704.598 309.497V336.791H683.016V309.497C683.016 307.809 682.336 306.191 681.126 304.998C679.916 303.805 678.275 303.134 676.564 303.134H641.756C640.045 303.134 638.404 303.805 637.194 304.998C635.984 306.191 635.304 307.809 635.304 309.497V336.791H613.722V309.497C613.722 307.809 613.043 306.191 611.833 304.998C610.623 303.805 608.982 303.134 607.271 303.134H572.688L572.559 303.039Z" fill="#414342"/>
<path d="M310.906 387.172H155.867" stroke="#414342" stroke-width="5" stroke-miterlimit="10"/>
<path d="M582.781 387.691H733.949" stroke="#414342" stroke-width="5" stroke-miterlimit="10"/>
<path d="M231.607 444.996C227.186 445.211 223.025 447.121 220.012 450.318C216.998 453.515 215.371 457.747 215.478 462.111V498.631H248.285V461.666C248.329 459.484 247.928 457.315 247.108 455.288C246.288 453.261 245.065 451.417 243.511 449.863C241.956 448.31 240.102 447.079 238.058 446.243C236.014 445.407 233.82 444.983 231.607 444.996Z" fill="#595959" stroke="#414342" stroke-width="2" stroke-linejoin="round"/>
<path d="M658.716 444.996C654.298 445.219 650.141 447.131 647.13 450.326C644.118 453.522 642.488 457.75 642.586 462.111V498.631H675.426V461.666C675.465 459.482 675.061 457.313 674.237 455.286C673.414 453.259 672.187 451.415 670.63 449.861C669.074 448.308 667.217 447.078 665.171 446.242C663.125 445.407 660.931 444.983 658.716 444.996V444.996Z" fill="#595959" stroke="#414342" stroke-width="2" stroke-linejoin="round"/>
<path d="M444.263 344.422C440.355 344.62 436.679 346.313 434.017 349.14C431.354 351.968 429.915 355.707 430.004 359.565V391.695H459.038V359.024C459.059 357.103 458.692 355.198 457.957 353.419C457.223 351.64 456.136 350.023 454.76 348.663C453.384 347.303 451.747 346.228 449.945 345.5C448.142 344.772 446.21 344.405 444.263 344.422V344.422Z" fill="#595959" stroke="#414342" stroke-width="2" stroke-linejoin="round"/>
<g style="mix-blend-mode:darken" opacity="0.25">
<path d="M143.168 639.411L141.91 663.811H322.789L309.692 387.747L283.239 387.238L289.078 633.494C289.1 634.264 288.965 635.03 288.681 635.747C288.397 636.464 287.97 637.117 287.426 637.669C286.882 638.221 286.231 638.659 285.512 638.958C284.792 639.257 284.02 639.412 283.239 639.411H143.168Z" fill="#414342"/>
</g>
<g style="mix-blend-mode:darken" opacity="0.25">
<path d="M569.758 639.411L568.5 663.811H749.379L736.282 387.747L709.829 387.238L715.7 634.321C715.717 634.984 715.6 635.643 715.355 636.26C715.11 636.876 714.742 637.439 714.273 637.913C713.804 638.387 713.243 638.764 712.624 639.022C712.005 639.279 711.34 639.411 710.668 639.411H569.758Z" fill="#414342"/>
</g>
<g style="mix-blend-mode:darken" opacity="0.25">
<path d="M519.554 453.711L506.166 453.775L505.811 421.454H496.359V319.02H519.651L519.554 453.711Z" fill="#414342"/>
</g>
<g style="mix-blend-mode:darken" opacity="0.25">
<path d="M549.221 422.217L541.543 633.957C541.469 635.412 540.832 636.783 539.764 637.789C538.696 638.795 537.278 639.359 535.801 639.365H320.469V664.242H570.899V639.365H569.641L579.771 421.867L549.221 422.217Z" fill="#414342"/>
</g>
<path d="M404.746 664.569V661.387V572.95C404.746 548.646 422.618 528.604 444.587 528.223H445.232C467.555 528.223 485.75 547.628 485.75 571.487V664.6H482.362L404.746 664.569Z" fill="#595959"/>
<path d="M445.147 531.27C465.729 531.27 482.374 549.212 482.374 571.321V661.221H408.178V572.784C408.178 550.516 424.307 531.62 444.824 531.429H445.405L445.147 531.27ZM445.405 525.066H444.695C420.952 525.48 401.629 546.953 401.629 573.007V661.444C401.629 663.182 402.329 664.849 403.575 666.078C404.822 667.307 406.512 667.997 408.274 667.997H482.471C484.234 667.997 485.924 667.307 487.17 666.078C488.417 664.849 489.117 663.182 489.117 661.444V571.321C489.117 545.68 469.471 524.844 445.341 524.844L445.405 525.066Z" fill="#414342"/>
<g style="mix-blend-mode:darken" opacity="0.25">
<path d="M507.154 248.672L534.252 246.254L535.865 299.952L519.639 318.976H494.734L506.961 298.744L507.154 248.672Z" fill="#414342"/>
</g>
<g style="mix-blend-mode:darken" opacity="0.25">
<path d="M294.154 307.088L320.703 306.547L322.478 368.739L306.251 387.763H281.379L293.573 367.562L294.154 307.088Z" fill="#414342"/>
</g>
<path d="M370.883 318.893C370.366 318.895 369.856 318.775 369.395 318.543C368.935 318.31 368.538 317.972 368.238 317.557L355.882 300.601C355.489 300.04 355.275 299.375 355.27 298.692V274.674V240.794C355.27 239.951 355.609 239.142 356.214 238.545C356.819 237.948 357.64 237.613 358.495 237.613H393.045C393.901 237.613 394.722 237.948 395.327 238.545C395.932 239.142 396.271 239.951 396.271 240.794V271.302H424.369V240.89C424.369 240.046 424.709 239.237 425.314 238.64C425.919 238.044 426.74 237.709 427.595 237.709H462.21C463.065 237.709 463.886 238.044 464.491 238.64C465.096 239.237 465.436 240.046 465.436 240.89V271.398H493.566V240.89C493.566 240.046 493.906 239.237 494.511 238.64C495.116 238.044 495.937 237.709 496.792 237.709H531.407C531.831 237.706 532.252 237.787 532.645 237.945C533.038 238.103 533.395 238.336 533.697 238.631C534.006 238.93 534.25 239.286 534.417 239.68C534.583 240.073 534.667 240.495 534.665 240.922V298.724C534.665 299.295 534.509 299.855 534.213 300.346L534.02 300.633L521.696 317.588C521.393 318.008 520.991 318.349 520.525 318.582C520.058 318.815 519.542 318.932 519.019 318.924L370.883 318.893Z" fill="#CECECE"/>
<path d="M358.637 240.822H393.219V274.543H427.833V240.822H462.448V274.543H497.094V240.886H531.709V274.67V298.688L519.354 315.644H370.96L358.604 298.688V274.67V240.822H358.637ZM358.604 234.301C356.893 234.301 355.252 234.971 354.042 236.164C352.832 237.357 352.152 238.976 352.152 240.663V274.543V298.561C352.163 299.921 352.603 301.244 353.41 302.346L365.734 319.302C366.337 320.138 367.136 320.817 368.063 321.282C368.989 321.748 370.016 321.985 371.056 321.974H519.45C520.49 321.985 521.517 321.748 522.444 321.282C523.371 320.817 524.17 320.138 524.773 319.302L537.096 302.346C537.904 301.244 538.343 299.921 538.354 298.561V240.886C538.354 239.198 537.675 237.58 536.465 236.387C535.255 235.194 533.613 234.523 531.902 234.523H497.127C495.416 234.523 493.774 235.194 492.564 236.387C491.354 237.58 490.675 239.198 490.675 240.886V268.18H469.093V240.886C469.093 239.198 468.413 237.58 467.203 236.387C465.993 235.194 464.352 234.523 462.641 234.523H427.865C426.154 234.523 424.513 235.194 423.303 236.387C422.093 237.58 421.414 239.198 421.414 240.886V268.18H399.832V240.886C399.832 239.198 399.152 237.58 397.942 236.387C396.732 235.194 395.091 234.523 393.38 234.523H358.83L358.604 234.301Z" fill="#414342"/>
<g style="mix-blend-mode:darken" opacity="0.25">
<path d="M721.263 307.021L747.813 306.48L749.619 368.673L733.393 387.696H708.488L720.682 367.496L721.263 307.021Z" fill="#414342"/>
</g>
<g style="mix-blend-mode:darken" opacity="0.25">
<path d="M507.576 237.763L534.157 237.223L535.932 299.447L519.705 318.438H494.801L507.027 298.238L507.576 237.763Z" fill="#414342"/>
</g>
<g style="mix-blend-mode:darken" opacity="0.25">
<path d="M445.324 174.398L489.875 273.047L495.617 272.92L494.326 262.931L495.843 238.245L503.456 238.054L445.324 174.398Z" fill="#414342"/>
</g>
<g style="mix-blend-mode:darken" opacity="0.25">
<path d="M659.332 242.812L703.882 341.461L709.625 341.334L708.302 331.345L709.818 306.659L717.431 306.468L659.332 242.812Z" fill="#414342"/>
</g>
<defs>
<radialGradient id="paint0_radial" cx="0" cy="0" r="1" gradientUnits="userSpaceOnUse" gradientTransform="translate(98.9376 529.994) rotate(90.0245) scale(89.9253 94.8617)">
<stop stop-color="#5BCD81"/>
<stop offset="1" stop-color="#3FA964"/>
</radialGradient>
<radialGradient id="paint1_radial" cx="0" cy="0" r="1" gradientUnits="userSpaceOnUse" gradientTransform="translate(98.9376 349.967) rotate(90.0245) scale(89.9254 94.8617)">
<stop stop-color="#5BCD81"/>
<stop offset="1" stop-color="#3FA964"/>
</radialGradient>
<radialGradient id="paint2_radial" cx="0" cy="0" r="1" gradientUnits="userSpaceOnUse" gradientTransform="translate(98.9376 169.998) rotate(90.0245) scale(89.9254 94.8617)">
<stop stop-color="#5BCD81"/>
<stop offset="1" stop-color="#3FA964"/>
</radialGradient>
</defs>
</svg>
