<svg xmlns="http://www.w3.org/2000/svg" xmlns:xlink="http://www.w3.org/1999/xlink" width="400" height="400" fill="none" xmlns:v="https://vecta.io/nano"><path d="M199.24 372.39c-30.44 0-52.3-2-66.84-6.11-15.85-4.48-24.18-11.78-25.5-22.3-1-6.94-1.19-18.15-.57-33.11v-18.34c0-19.92 22.85-61.44 58.69-66.82l5.72-1 1.48 2.24 1.45.26c8.446 1.509 16.986 2.441 25.56 2.79 17-.88 23.78-2.08 26.84-2.77l1.4-2.1h5.71.33c15.48 2.58 30.43 12.51 42.1 28 9.67 12.82 15.94 28.21 16 39.28l1.08 18.44v33.27c-1.68 10.46-10.17 17.76-26 22.22-14.61 4.1-36.48 6.08-66.86 6.08h-.58" fill="#fff"/><g fill="#2e76ad"><path d="M291.39 292.45h-17.5c-3.53 0-4.64-1.1-4.64-4.63V246.3a61.97 61.97 0 0 0-10.08-9.07 99.95 99.95 0 0 0-13-7.95v56.83c0 1.692-.672 3.315-1.869 4.511s-2.819 1.869-4.511 1.869l-84.3.07c-3.53 0-4.28-2.85-4.28-6.38v-56.72c-4.335 2.364-8.541 4.958-12.6 7.77a86.35 86.35 0 0 0-10.45 9.25v39.73a6.38 6.38 0 0 1-1.865 4.508c-1.194 1.196-2.815 1.869-4.505 1.872h-15.71v18.33c-.61 15-.41 26.17.58 33.11 1.32 10.53 9.64 17.82 25.5 22.3 14.54 4.13 36.4 6.11 66.84 6.11h.58c30.38 0 52.25-2 66.86-6.08 15.82-4.46 24.32-11.75 26-22.22v-33.25l-1.05-18.44z"/><path d="M164 354.49c-.582.001-1.146-.204-1.59-.58a2.46 2.46 0 0 1-.84-1.47l-5.26-32c-.058-.351-.039-.711.056-1.053s.263-.662.494-.933.517-.489.84-.638.674-.226 1.03-.226h80.45a2.44 2.44 0 0 1 1.03.223c.323.149.61.366.84.637s.403.593.5.939.117.707.06 1.061l-5.27 32a2.45 2.45 0 0 1-2.42 2.05l-69.92-.01z"/></g><path d="M239.17 320l-5.26 32H164l-5.27-32h80.45-.01zm.01-4.91h-80.46a4.91 4.91 0 0 0-2.061.456 4.9 4.9 0 0 0-1.68 1.279c-.46.543-.797 1.18-.987 1.867s-.228 1.405-.112 2.108l5.26 32c.171 1.167.756 2.234 1.648 3.005S162.821 357 164 357h69.92c1.165-.001 2.293-.416 3.181-1.17a4.92 4.92 0 0 0 1.669-2.95l5.26-32c.116-.703.078-1.424-.113-2.111s-.528-1.324-.989-1.868a4.92 4.92 0 0 0-1.683-1.278 4.91 4.91 0 0 0-2.065-.453v-.08z" fill="#2a5e85"/><path d="M139.29 310.35c1.69-.39 8.53-1.76 8.6-10v-71.1l5.91-3.06v64.6l-.65 8.13-2.21 5.84-2.73 2.86-3.21 1.75-3.31 1-2.4-.02zm118.37 0c1.69-.39 8.54-1.76 8.6-10v-59.87l5.91 4v46.35l-.65 8.13-2.21 5.84-2.72 2.86-3.25 1.76-3.32 1-2.36-.07zm20.61-19.66v49.12c-.21 2.17 1.24 12.34-21.06 18.23-20.18 5.33-34.13 6.47-68.45 7a437.81 437.81 0 0 1-74.76-5.58l26.68 10.86 59.22.53 38.21-.65 21.71-3 14.54-5.2 11.51-7.38 5.42-8.68.44-12.81-.22-42.22-13.24-.22z" fill="#1f5f8f"/><path d="M172 220l-5.11.85-3.22.54c-16.66 2.52-32.76 12.9-45.34 29.25-10.65 13.83-17.28 30-17.28 42.19v18.46c-.63 15.28-.42 26.75.62 34.09 1.57 12.19 11.19 20.87 28.63 25.81 15 4.25 37.48 6.32 68.59 6.32h.56c31.08 0 53.54-2.07 68.64-6.32 8.41-2.38 14.8-5.44 19.57-9.38 5.101-4.038 8.499-9.845 9.52-16.27l.1-.61v-33.99l-1.08-18.41c-.14-12.17-6.67-28.18-17-41.94-12.4-16.43-28.41-27-45-29.77l-.65-.11h-8.24l-1.69 2.54c-3.53.67-10.51 1.64-24.68 2.38A185.87 185.87 0 0 1 174 223l-2-3zm60.82 8.77c32.86 5.47 55.32 44.36 55.32 64l1.09 18.62v32.86c-2.7 17.56-29.58 25.19-89.78 25.19h-.56c-60.24 0-87.08-7.66-89.27-25.19-1.09-7.67-1.09-19.72-.55-32.86v-18.62c0-19.71 23-58.6 55.86-63.52l3.29-.55 1.09 1.64c2.19 0 8.76 2.19 29.58 3.28 21.35-1.09 27.38-2.74 29.57-3.28l1.09-1.64h3.29" fill="#231f20"/><path d="M297.38 310.6l-1.08-18.44-.28-4.63h-21.85V244.5l-1.17-1.37a66.4 66.4 0 0 0-10.95-9.88 103.46 103.46 0 0 0-13.68-8.38l-7.07-3.46v64.7a1.48 1.48 0 0 1-.111.562 1.47 1.47 0 0 1-.319.477c-.137.137-.299.245-.477.319a1.47 1.47 0 0 1-.563.112l-83.59.07c-.061-.488-.087-.979-.08-1.47v-65l-7.28 4a141.38 141.38 0 0 0-13.21 8.17c-3.96 2.973-7.673 6.264-11.1 9.84l-1.28 1.41v41.63c0 .39-.154.764-.43 1.039a1.47 1.47 0 0 1-1.04.431h-20.61l-.17 4.91v18.63c-.63 15.28-.42 26.75.62 34.09 1.57 12.19 11.19 20.87 28.63 25.81 15 4.25 37.48 6.32 68.59 6.32h.56c31.08 0 53.54-2.07 68.64-6.32 8.41-2.38 14.8-5.44 19.57-9.38a25.67 25.67 0 0 0 6.29-7.24 25.23 25.23 0 0 0 2.14-4.68 26.48 26.48 0 0 0 1.27-4.9l.06-.39V310.6h-.03zm-175.55-18a6.38 6.38 0 0 0 6.37-6.38v-35a60.89 60.89 0 0 1 10.45-10c7.6-5.78 12.6-7.77 12.6-7.77v52.69.88l.08 7.81v.17l-.14 3.81v.63a9.67 9.67 0 0 1-.42 2.67c-.359 1.145-.891 2.227-1.58 3.21-.18.24-.36.48-.56.72a10.8 10.8 0 0 1-2.06 1.87l-.51.32c-.654.396-1.343.731-2.06 1a14.63 14.63 0 0 1-.93.33c-.686.208-1.384.375-2.09.5-.63.1-1.26.19-1.89.24v.35c1.407.083 2.818.016 4.21-.2.89-.139 1.764-.364 2.61-.67.34-.12.67-.26 1-.4l.49-.24c.39-.19.77-.39 1.14-.61.896-.488 1.714-1.104 2.43-1.83h0a16.75 16.75 0 0 0 2.44-3c.09-.16.18-.31.26-.47s.15-.33.23-.49a19.7 19.7 0 0 0 1.32-3.63h0a35.25 35.25 0 0 0 .19-.88v-.06l.14-.83v-.1c0-.26.08-.53.11-.78v-.13c0-.25.05-.49.07-.74v-.15c0-.23 0-.45.05-.67v-.22-.51c0-.56.07-1.08.1-1.55l83.85-.07a6.38 6.38 0 0 0 6.38-6.38V234s4.36 1.48 13 7.59c3.888 2.668 7.296 5.974 10.08 9.78v36.44c0 .38 0 .72.05 1.05l.06 6v.14l-.14 3.81v.63a9.67 9.67 0 0 1-.42 2.67c-.225.691-.512 1.361-.86 2a10.91 10.91 0 0 1-.72 1.19 17.57 17.57 0 0 1-.56.72 10.8 10.8 0 0 1-2.06 1.87l-.51.32c-.654.396-1.343.731-2.06 1a14.63 14.63 0 0 1-.93.33c-.693.208-1.397.375-2.11.5-.58.1-1.17.17-1.77.23h-.1v.34c1.407.083 2.818.016 4.21-.2.53-.09 1.06-.2 1.58-.34.684-.195 1.352-.439 2-.73l.49-.24a21.52 21.52 0 0 0 1.25-.67c.22-.13.44-.26.65-.4.458-.296.889-.631 1.29-1 .138-.119.268-.246.39-.38a18.3 18.3 0 0 0 2.15-2.51c.1-.15.2-.3.29-.45a4.23 4.23 0 0 0 .25-.47l.24-.49a19.7 19.7 0 0 0 1.32-3.63h0c.07-.31.14-.61.19-.91.06-.29.1-.59.15-.88v-.06c0-.28.07-.56.1-.83a.28.28 0 0 0 0-.1c0-.26.06-.51.08-.76v-.14-.68-.22-.48c0-.59.07-1.14.11-1.62h14l1.17 18.94v32.86c-2.7 17.56-29.58 25.19-89.78 25.19h-.56c-60.24 0-87.08-7.66-89.27-25.19-1.09-7.67-1.09-19.72-.55-32.86V292.6h13.02z" fill="#1d415c"/><path d="M198.76 244.9c-6.014.001-12.011-.635-17.89-1.9a67.36 67.36 0 0 1-28.52-13.18c-2.77-2.184-5.365-4.581-7.76-7.17-15-16.31-22.62-40.26-22.62-71.17 0-53.44 26.91-82.88 75.75-82.88 24.23 0 44.13 7.52 57.55 21.73s20.39 34.73 20.39 60.6c0 68.29-33.39 88.07-61.39 92.64a101.37 101.37 0 0 1-15.46 1.31h-.05" fill="#fff"/><path d="M124.864 145.47c6.61 2.4 39.87 12.7 77.14 12.53s72-13 72-13l-.24-12.47h-148.9v12.94z" fill="#cecece"/><path d="M197.7 64.62c-25.49 0-45.43 7.73-59.26 23-13.6 15-20.5 36.48-20.5 63.92 0 31.95 8 56.81 23.68 73.88 10.196 11.025 23.603 18.561 38.32 21.54 6.177 1.34 12.48 2.011 18.8 2h.06a107.46 107.46 0 0 0 16.12-1.37c18.26-3 33-11.19 43.93-24.35 13.79-16.67 20.79-41 20.79-72.24 0-26.93-7.23-48.24-21.49-63.35s-35.09-23-60.46-23l.01-.03zm-.01 8.03c47.11 0 73.94 28.47 73.94 78.32 0 65.18-31.2 84.31-58.05 88.69a99.15 99.15 0 0 1-14.8 1.26h-.06c-7.48 0-15.3-1.23-16.93-1.77-17-3.29-55.86-18.62-55.86-87.63 0-50.94 25.19-78.87 71.74-78.87" fill="#231f20"/><path d="M139.94 300.65c-1.222-.002-2.416-.366-3.431-1.046a6.18 6.18 0 0 1-2.619-6.346 6.17 6.17 0 0 1 1.693-3.161 6.18 6.18 0 0 1 3.165-1.689c1.198-.238 2.44-.115 3.569.353a6.19 6.19 0 0 1 2.772 2.277c.678 1.016 1.041 2.21 1.041 3.432a6.19 6.19 0 0 1-1.817 4.371c-1.161 1.158-2.734 1.809-4.373 1.809h0z" fill="#e2a22c"/><path d="M139.94 290c.877-.002 1.734.256 2.464.742s1.299 1.176 1.636 1.986.426 1.7.256 2.56-.591 1.65-1.21 2.271-1.408 1.043-2.268 1.215a4.43 4.43 0 0 1-2.561-.25c-.81-.335-1.502-.903-1.99-1.632a4.43 4.43 0 0 1 .547-5.591c.829-.83 1.953-1.298 3.126-1.301h0zm0-3.51c-1.57 0-3.105.466-4.411 1.338s-2.324 2.113-2.925 3.563-.758 3.048-.451 4.588a7.93 7.93 0 0 0 6.238 6.238c1.54.307 3.137.15 4.588-.451s2.69-1.619 3.563-2.925 1.338-2.841 1.338-4.411a7.94 7.94 0 0 0-7.94-7.94h0z" fill="#1d415c"/><path d="M258.26 300.65c-1.222-.002-2.416-.366-3.431-1.046s-1.805-1.646-2.272-2.776a6.18 6.18 0 0 1-.347-3.57c.239-1.198.829-2.298 1.693-3.161a6.18 6.18 0 0 1 3.165-1.689c1.198-.238 2.44-.115 3.569.353s2.093 1.261 2.772 2.277 1.041 2.21 1.041 3.432a6.19 6.19 0 0 1-6.19 6.18z" fill="#e2a22c"/><path d="M258.26 290c.877-.002 1.734.256 2.464.742s1.299 1.176 1.636 1.986.426 1.7.256 2.56-.591 1.65-1.21 2.271-1.408 1.043-2.268 1.215a4.43 4.43 0 0 1-2.561-.25c-.81-.335-1.502-.903-1.989-1.632s-.748-1.585-.748-2.462c0-1.173.466-2.298 1.294-3.129s1.953-1.298 3.126-1.301h0zm0-3.51c-1.57 0-3.105.466-4.411 1.338s-2.323 2.113-2.924 3.563-.758 3.048-.452 4.588a7.93 7.93 0 0 0 6.238 6.238c1.54.307 3.137.15 4.588-.451s2.691-1.619 3.563-2.925S266.2 296 266.2 294.43a7.94 7.94 0 0 0-7.94-7.94h0z" fill="#1d415c"/><path d="M317.92 93c-15-3.81-42.07-5.66-51.32-6.2a97.6 97.6 0 0 0 2.92 11.25l-3.35 1.28c-2.11-5.49-7.79-30.75-9.05-57.47-3.113 2.127-8.347 3.953-15.7 5.48-11.51 2.37-26.79 3.68-43 3.68s-31.51-1.31-43-3.68c-7.333-1.52-12.563-3.343-15.69-5.47-1.25 26.71-6.94 52-9 57.46l-3.34-1.28a102.63 102.63 0 0 0 2.81-11.25c-8.62.59-38 2.79-51.42 6.51-5 1.39-11.92 3.75-14.29 8.13a8.12 8.12 0 0 0-.31 6.62c2.72 8.49 21 18 50.21 26.05 26.49 7.32 52.5 10.26 87 9.81 43.3-.56 67-5.89 86.26-11.57 27.75-8.2 46.61-15.55 48.45-24.75 1.5-7.72-1.89-10.45-18.18-14.6zM156.09 43.85c11.28 2.33 26.3 3.61 42.3 3.61s31-1.28 42.31-3.61c12.85-2.65 16.3-5.78 16.3-7.06s-3.4-4.4-16.25-7.06c-11.28-2.33-26.31-3.61-42.31-3.61s-31 1.28-42.3 3.61c-12.85 2.66-16.25 5.78-16.25 7.06s3.35 4.41 16.2 7.06z" fill="#f5b642"/><g fill="#dd9c26"><path d="M241.33 46.12s1 36.49 4.35 48.87 19.42-9.37 19.42-9.37l-5.36-25.78-1-22.09-8 5.35-9.41 3.02zm-20.2-21.95a35.37 35.37 0 0 1-6.52 11.34c-4.53 5.1-16.16 11.34-22.39 12.47s18.71-.28 18.71-.28l23.81-2.27 16.72-3.12 7.09-6-.85-4-13-4-16.2-3.01-7.37-1.13z"/><path d="M130.62 99.35c5 2.35 34.51 21.69 89.77 23.07 46.52 1.16 77.85-10 87.9-14.37s22.43-10.71 20.08-13.39-32.47-7.37-32.47-7.37l-30.4-2.8-8.77 14.19-50.89 5-75.22-4.33zm165.45 25.11s-1.42 6.8-2.27 7.94 28.71-9.83 28.71-9.83l12.47-8.5 3.69-10.77-9.67 9.35-32.93 11.81z"/><path d="M145.35 43.23c-1.067 16.232-2.999 32.395-5.79 48.42-4.36 23.77-6.7-5.7-6.7-5.7l2.68-20.42 2.34-26.78 7.47 4.48z"/></g><path d="M163.36 47.18l30.59 2s-3.06 46.93-2.45 52.11c.69 5.88-34 1.38-33.17-2.81 2.41-12.76 5.03-50.18 5.03-51.3z" fill="#ffd48a"/><path d="M62.72 100.61l3.75 6.01 9.26 5.75 12.76 7.01 19.27 6.76 26.77 6.5 25.53 4.01 34.28 2.25-10.29-.25.25 6.75-10.98-.25-32.78-3.75-26.28-5L93 128.89l-18.27-8.26-11.01-8.76-1.75-6.5.75-4.76z" fill="#ffdb9c"/><path d="M318.8 89.55c-16.11-4.09-44.66-5.9-52.95-6.36a279.24 279.24 0 0 1-5.32-45.89 4.34 4.34 0 0 0 0-.51c0-4.39-6.43-7.95-19.11-10.56-11.51-2.38-26.79-3.69-43-3.69s-31.51 1.31-43 3.69c-12.67 2.61-19.1 6.17-19.1 10.56a4.34 4.34 0 0 0 0 .51A279.21 279.21 0 0 1 131 83.16c-7.22.47-38.63 2.67-53.14 6.7-5.63 1.57-13.46 4.29-16.48 9.88a11.7 11.7 0 0 0-.57 9.41c4 12.57 30.88 22.83 52.69 28.85 25.09 6.94 49.71 10 81.26 10h6.74c43.74-.56 68.05-5.79 87.5-11.5 29.83-8.82 48.8-17.24 51-28.23 2.4-12.01-7.11-15.15-21.2-18.72zM155.42 30.5c11.28-2.33 27-3.5 43-3.5s31.02 1.17 42.33 3.5C253.6 33.16 257 35.51 257 36.79s-3.65 4.06-16.5 6.71c-11.28 2.33-26.19 3-42.19 3S167.8 45.33 156.5 43c-12.85-2.65-16.61-4.93-16.61-6.21s2.68-3.63 15.53-6.29zM78.638 94.01c13.41-3.72 42.8-5.92 51.42-6.51-.759 3.809-1.592 6.872-2.778 10.57l4.22 1.837c2.11-5.49 7.8-30.75 9-57.46 3.12 2.12 7.47 3.386 14.81 4.913 11.52 2.37 26.8 3.68 43 3.68s31.52-1.31 43-3.68c7.333-1.52 11.945-2.944 15.078-5.077 1.26 26.72 6.94 52 9.05 57.47l3.972-1.683c-1.196-3.689-2.171-7.445-2.92-11.25 9.25.54 36.29 2.87 51.32 6.68 12.67 3.21 17.29 4.97 18.1 9.5-.18 2.18-5.79 6.23-18.1 11.5-9.73 4.17-21.34 8.68-49.31 14.5-17.68 3.68-34.83 6.51-69.43 7-20.702.202-40.679-1.418-61.07-5-28.06-4.77-46.7-12.23-51.5-14.5-5.081-2.301-9.814-5.455-14.5-8.48-6-4.07-6.7-5.51-6.5-7.02 2.85-3.88 8.438-5.68 13.138-6.99zm208.962 38.3c-19.21 5.68-43 11-86.26 11.57-34.45.45-60.46-2.49-86.95-9.81-29.19-8.06-47.49-17.56-50.21-26.05a11.05 11.05 0 0 1-.54-2.84c3.52 5 12.32 10.04 21.36 14.32 4.89 2.32 23.03 9.75 51.5 14.57 19.153 3.354 38.816 5.427 58.26 5.5h4.31c34.85-.49 52.44-3.6 70.26-7.31 28.23-5.87 40.22-10.49 50.09-14.71 7.82-3.333 13.317-6.427 16.49-9.28-2.63 8.89-21.24 16.08-48.31 24.08v-.04z" fill="#7d4f21"/><use xlink:href="#B" fill="#c23131" stroke="#940d0d" stroke-width="2.81" stroke-miterlimit="10"/><path d="M137.39 87.38c-.57 1.13-3.1 10.7-3.1 12.39s-7.6-2.54-7.6-2.54l4.48-12.74 6.22 2.89zm111.76 2.25c.84 2.25 2.25 11.83 2.25 14.36s16.88-6.09 16.88-6.09l-2.78-13.41-16.35 5.14z" fill="#a41f1f"/><path d="M156.93 92.45l-1.69 13.23c0 1.13 18.49 3.38 18.49 3.38s19.88 2 20.16.84-.28-14.07-.28-14.07l-19.32-1.13-17.36-2.25z" fill="#d74646"/><use xlink:href="#B" stroke="#970808" stroke-width="2.81" stroke-miterlimit="10"/><g fill="#7d4f21"><path d="M216.44 69.31a16.28 16.28 0 0 0 3-.47 29.99 29.99 0 0 0 3-.8 53.05 53.05 0 0 0 5.72-2.26l5.42-2.91 5.14-3.48a.34.34 0 0 1 .123-.056c.044-.011.089-.012.134-.005s.088.024.126.048.071.056.097.093c.051.062.078.14.078.22s-.027.158-.078.22c-1.433 1.576-3.025 3-4.75 4.25a34.74 34.74 0 0 1-5.54 3.22 32.15 32.15 0 0 1-6.05 2.13 18.87 18.87 0 0 1-6.41.63.41.41 0 0 1-.153-.046.4.4 0 0 1-.195-.244.39.39 0 0 1-.012-.159.4.4 0 0 1 .38-.37l-.03-.01zm3.191 7.69l6-1.66 5.77-2.1a50.75 50.75 0 0 0 5.46-2.75 53.62 53.62 0 0 0 5.07-3.49h0c.045-.035.096-.061.152-.077a.43.43 0 0 1 .331.043.43.43 0 0 1 .127.113.44.44 0 0 1 0 .56 29.85 29.85 0 0 1-4.87 4.09 34.03 34.03 0 0 1-5.62 3 38.92 38.92 0 0 1-6 2 56.03 56.03 0 0 1-6.19 1.12h0a.44.44 0 0 1-.49-.37c-.016-.097.002-.197.049-.284a.45.45 0 0 1 .211-.196z"/><path d="M229.67 58.29l2.22 5.81 2.5 5.6a49.4 49.4 0 0 0 3.13 5.3 51.81 51.81 0 0 0 3.84 4.81.3.3 0 0 1 0 .41.32.32 0 0 1-.38 0 31.67 31.67 0 0 1-4.49-4.47 35.26 35.26 0 0 1-3.49-5.31c-1.008-1.864-1.854-3.811-2.53-5.82-.657-1.994-1.171-4.033-1.54-6.1h0c-.017-.103.007-.209.066-.295a.4.4 0 0 1 .254-.165.39.39 0 0 1 .25.043c.076.042.136.107.17.187h0zm-7.46 3.95l2.28 5.76 2.55 5.59c.936 1.815 1.982 3.571 3.13 5.26a55.13 55.13 0 0 0 3.83 4.88h0c.025.024.044.053.057.085s.02.066.02.1-.006.069-.02.1a.27.27 0 0 1-.057.085.27.27 0 0 1-.34 0 29.57 29.57 0 0 1-4.52-4.43 33.32 33.32 0 0 1-3.48-5.32 35.69 35.69 0 0 1-2.49-5.84 45.28 45.28 0 0 1-1.48-6.11h0a.29.29 0 0 1 .049-.211c.042-.062.108-.104.181-.119.06-.007.121.006.173.037a.28.28 0 0 1 .117.133h0z"/></g><defs ><path id="B" d="M131.171 84.49c2.49-1.34 4.84 4.57 37.7 8.79 22.47 2.88 42.39 3.08 64.83-.89 24.55-4.35 30.29-9.08 31.8-7.9 1.73 1.35 3.89 11.79 2.78 13.41-1.37 2-16.23 6.83-36.6 9.6-18.07 2.46-41.22 3.74-65.37.33-23.13-3.27-38.37-9.39-38.91-11s2.34-11.57 3.77-12.34z"/></defs></svg>