<svg xmlns="http://www.w3.org/2000/svg" width="400" height="400" fill="none" xmlns:v="https://vecta.io/nano"><g fill="#f8f5e6"><path d="M162.967 57.105l-24.604 15.885-4.797 17.424-5.983 21.445-2.011 34.104 7.994 27.451 13.978 22.041 18.466 13.9 44.203 8.091 27.698-11.368 18.569-17.622 13.101-18.864 4.333-25.565v-33.707l-12.225-35.444-18.414-15.538-23.468-8.141-33.784-1.886-23.056 7.794z"/><path d="M159.614 211.59l-21.251 16.232-18.723 13.056-3.92 9.829-8.201 23.48-.464 24.424 1.238 24.721 5.003 15.389 17.588 7.298 28.73 2.581 34.971 3.127 52.92-3.127 30.535-5.907 15.886-12.907v-34.799l-6.292-32.366-6.757-21.743-22.489-20.502-21.199-8.786-19.548 2.829h-42.502l-15.525-2.829z"/></g><path d="M194.585 110.321l13.204-3.028 19.703-3.475 24.913-.894 13.101 1.142 6.293.099 3.713 37.033-1.598 11.219-11.812-2.383-13.514-1.886-14.7-4.369-14.081-7.198-11.812-8.886-9.645-11.07-3.765-6.304z" fill="#fff"/><g stroke="#000" stroke-width="5" stroke-miterlimit="10"><path d="M138.363 225.042s29.762 14.347 112.443-4.666m-138.284 45.621s92.43 9.779 175.112-9.234"/><path d="M119.64 245.544s50.135 14.347 132.817-4.666m-146.176 50.138s105.015 6.95 187.645-12.063m-103.261 13.304s28.936 36.586 71.024 56.343m-97.123-48.003s23.004 33.657 65.093 53.414m.051-64.336s11.451 24.722 53.539 44.479"/><path d="M256.48 284.562s-1.341 6.553 40.747 26.31m-188.934 12.46s-13.153 11.219 69.477-7.843m19.187 16.63c-82.63 19.013-83.661 6.652-83.661 6.652m12.276-211.721s54.209-50.982 136.581-42.096m-134.57 15.588s48.278-47.904 123.223-32.615m-123.223 84.49s49.31-62.747 146.331-46.961m-80.103 4.865s18.465 38.671 80.103 42.096m-103.881-32.416s44.41 59.123 99.548 51.18m-118.426-39.812s10.883 48.748 105.325 61.059m-122.914-46.464s10.987 48.946 92.637 63.392"/><path d="M108.293 323.332c94.957-31.621 169.747-82.504 169.747-82.504l-15.938-15.835s-60.09 41.996-155.047 73.618l1.238 24.721z" fill="#f8f5e6"/></g><g fill="#000"><path d="M234.455 217.993c30.432 4.319 52.456 39.614 52.456 57.535 0 17.374 1.703 39.614 0 49.939-1.702 11.417-19.754 20.601-86.292 20.601s-84.589-9.233-86.807-20.651c-1.135-10.871 0-32.564 0-49.939 0-17.921 22.54-53.166 53.023-58.08 0 0 2.27 3.276 33.836 4.864 30.999-1.092 33.836-4.864 33.836-4.864l-.052.595zm-62.565-11.914l-6.757 1.092c-35.538 5.411-61.998 45.025-61.998 68.357L102 293.994v33.061c3.404 21.694 32.134 29.835 98.104 29.835s94.699-8.687 97.536-29.835c1.135-7.595 1.135-20.055.567-32.564v-19.013c0-23.331-27.079-63.491-61.998-68.356l-6.757-1.092-2.269 2.73c-17.898 3.177-36.26 3.177-54.107 0l-2.269-2.73 1.083.049z"/><path d="M199.124 54.872c53.023 0 70.457 33.657 70.457 72.179 0 54.258-23.675 77.044-55.241 81.958-10.316 1.192-20.735 1.192-31 0-27.079-5.411-52.456-28.196-52.456-81.412 0-39.068 15.784-72.724 68.24-72.724zm0-10.871c-51.322 0-79.484 29.288-79.484 83.05 0 72.725 42.862 89.007 61.998 92.234 3.972 1.092 11.296 1.092 18.053 1.092l16.918-.546c29.297-4.865 64.268-24.424 64.268-92.234C280.877 74.43 251.012 44 199.124 44z"/></g></svg>