<svg id="9a134e12-985c-4386-80d4-6327b30e004b" data-name="Crown" xmlns="http://www.w3.org/2000/svg" width="400" height="400" viewBox="0 0 400 400"><defs><style>.\31 1c54388-9f1b-4cf9-a835-db5aa9aa847d{fill:#99681a;stroke:#4c290c;stroke-miterlimit:10;stroke-width:7px;}.\32 e1ac905-dca0-415e-8882-4507e0f875a6{fill:#e0b62f;}.\33 8be0bb4-963d-4548-ab19-c651a4125335{fill:#4c290c;}.b9e3c238-0ad3-4950-b050-994ff0954444{fill:#aa8126;}.\37 45cd9f9-0966-4d5d-b176-d15b0f25df7e,.\38 e8521bc-ec43-44fd-8e67-2be632d06772{fill:#efd956;}.\37 45cd9f9-0966-4d5d-b176-d15b0f25df7e{opacity:0.73;}.de4684b1-bbbf-4af3-9f80-8abc9effea41{fill:#f4ea71;}.\37 e9633e3-bcbe-4c87-8907-0ef9be7fa00b{fill:#77152c;}.\35 03ee0bc-1204-4917-8147-db1bb19ebc2e{fill:#4c0b19;}.\33 12ccd02-fe43-423a-8cbb-0ff9945a078b{fill:#c9233b;}.b1f921a5-ba30-4d00-9205-184a0b783ae0{fill:#f95877;}.\32 94bfac4-a9fd-43b7-8759-a11877bcf5e4{fill:#c6b65c;}.ac939cb3-b9b9-4b24-bc13-098912065dbb{fill:#6d4d15;}.\35 cf3c885-631f-487b-a2c9-749da9d71d9e{fill:#efe17b;}.\30 56b909b-4a0f-4b61-93db-3a2ec014fe09{opacity:0.5;}.\36 ba66d3d-0bc6-49f2-a10e-aaa53ed80895{fill:#aa5917;}.ec957fdf-c6fd-4663-8630-8b8bc80acb84{fill:#4f250e;}.\32 1012f24-505c-4d72-acdd-4ae12dc48b33{fill:#6d3108;}.f25b1509-1696-4366-a1c0-495a5817d372{fill:#d88235;}.\30 e56035b-3dad-4de9-b92a-6b6a40cc52ec{fill:#49320d;}.\31 5650cee-71aa-49ea-bfbd-dc35e2d5071f{fill:#ff8faa;}</style></defs><title>Crown</title><g id="5d98e636-c29e-4952-86ba-c16255449713" data-name="Layer 3"><path class="11c54388-9f1b-4cf9-a835-db5aa9aa847d" d="M173.58,260.69c-17.59,2.51-25.37-27.53-25.37-27.53s12.3-21.43,5.38-37C145.52,181,131,185.94,131,185.94s-12.51-22.5-22.63-19.54c-8.43,2.47-5.74,26.62-5.74,26.62s-15.24,4.23-11.54,22.13,22,26.9,22,26.9l14.49,41.32"/><path class="11c54388-9f1b-4cf9-a835-db5aa9aa847d" d="M220.58,260.69c17.59,2.51,25.37-27.53,25.37-27.53s-12.3-21.43-5.38-37c8.07-15.19,22.61-10.23,22.61-10.23s12.51-22.5,22.63-19.54c8.43,2.47,5.74,26.62,5.74,26.62s15.24,4.23,11.54,22.13-22,26.9-22,26.9l-14.49,41.32"/><path class="2e1ac905-dca0-415e-8882-4507e0f875a6" d="M69.26,335.68a8.51,8.51,0,0,1-8.5-8.5V298a6.34,6.34,0,0,1-4.67-6.11V270.41A6.34,6.34,0,0,1,59.15,265l-36.4-131.8a5.72,5.72,0,0,1,3.64-7.12,22.43,22.43,0,0,1,7.23-1.18c6.11,0,12.12,2.3,17.87,6.84,8.8,6.94,13,12.26,15,15.38A35.39,35.39,0,0,1,75.11,146c7.15,0,17,2.42,23.1,13.94l.06.11,0,.11c6.85,15.41-.13,27.6-5.91,33.11,2.76,13.13,11.89,43.36,25.18,43.36h0a9.52,9.52,0,0,0,1.33-.1c31.82-4.54,30.79-27.93,30.24-40.5-.06-1.3-.11-2.42-.11-3.38,0-17.21-8.43-26.38-29.1-31.66-7.09-1.81-11.74-7.53-11.83-14.56-.11-7.91,5.84-18.87,23-23.73,4-1.15,9.77-1.73,17-1.73,1.53,0,2.91,0,4,.06a94,94,0,0,1,7.1-23c8.33-17.86,21.36-27.77,37.68-28.63h2.56c16.32.87,29.35,10.77,37.68,28.63A94,94,0,0,1,244.27,121c1.51-.08,3.44-.15,5.58-.15,6.67,0,12,.66,15.71,2,17,5.87,23.88,17.65,23.09,26.12-.6,6.47-5.4,11.14-12.51,12.19-10.74,1.59-28.75,7.81-28.75,31.58,0,.75,0,1.63,0,2.61-.3,11.07-.93,34.12,30.47,41.33a8.43,8.43,0,0,0,1.91.22h0c12.61,0,21.57-30.37,24.32-43.54-5.78-5.51-12.76-17.7-5.91-33.11l0-.11.06-.11c6.13-11.52,15.94-13.94,23.1-13.94a35.37,35.37,0,0,1,8.63,1.11c2-3.12,6.19-8.43,15-15.38,5.75-4.54,11.76-6.84,17.87-6.84a22.43,22.43,0,0,1,7.23,1.18,5.72,5.72,0,0,1,3.64,7.12L337.55,264.08h.52a6.34,6.34,0,0,1,6.33,6.33v21.44a6.34,6.34,0,0,1-5.94,6.32v29a8.51,8.51,0,0,1-8.5,8.5Z"/><path class="38be0bb4-963d-4548-ab19-c651a4125335" d="M199.32,72.89c36.55,1.94,42,51.78,42,51.78s3.77-.36,8.56-.36,10.49.35,14.57,1.76c23.92,8.26,26.58,29.26,11.21,31.54-18.67,2.77-31.73,14.06-31.73,35,0,9.46-3.9,38.84,33.14,47.35a12,12,0,0,0,2.69.31c19.18,0,28.15-48.36,28.15-48.36s-15-11.45-6.54-30.37c5.2-9.79,13.43-12.09,20-12.09a31,31,0,0,1,10.37,1.8s2.1-6.31,15.42-16.82c6.05-4.78,11.53-6.08,15.7-6.08a18.8,18.8,0,0,1,6.09,1,2.25,2.25,0,0,1,1.42,2.82L332.95,267.58h5.12a2.83,2.83,0,0,1,2.83,2.83v21.44a2.83,2.83,0,0,1-2.83,2.83H335v32.5a5,5,0,0,1-5,5H69.26a5,5,0,0,1-5-5v-32.5H62.43a2.83,2.83,0,0,1-2.83-2.83V270.41a2.83,2.83,0,0,1,2.83-2.83H63.5L26.11,132.21a2.25,2.25,0,0,1,1.42-2.82,18.8,18.8,0,0,1,6.09-1c4.17,0,9.65,1.3,15.7,6.08C62.64,145,64.74,151.3,64.74,151.3a31,31,0,0,1,10.37-1.8c6.58,0,14.8,2.3,20,12.09,8.41,18.93-6.54,30.37-6.54,30.37s8.92,48.18,29,48.18a13,13,0,0,0,1.83-.13c38.59-5.51,33.14-37.89,33.14-47.35,0-22-13.45-30.38-31.73-35C106.67,154,107.67,133,132,126.07c4.59-1.3,11.13-1.6,16.08-1.6,4.05,0,7,.2,7,.2s5.41-49.83,42-51.78h2.19m.19-7h-2.75c-17.69.94-31.75,11.54-40.66,30.65a96.74,96.74,0,0,0-6.82,20.93h-1.17c-7.59,0-13.65.63-18,1.87-19,5.41-25.62,18-25.5,27.15.12,8.67,5.8,15.69,14.47,17.91,19.29,4.92,26.47,12.58,26.47,28.26,0,1,.05,2.2.11,3.54.7,15.86-.77,33.1-27.24,36.88a6,6,0,0,1-.84.06c-4.88,0-10.68-7.35-15.53-19.65a139.73,139.73,0,0,1-5.82-19.14c6.13-6.76,12.35-19.68,5.28-35.6l-.1-.23-.12-.22c-5.42-10.19-14.72-15.8-26.19-15.8a38.19,38.19,0,0,0-7.09.68c-2.55-3.49-6.93-8.33-14.36-14.19-6.29-5-13.22-7.59-20-7.59a25.67,25.67,0,0,0-8.37,1.37,9.2,9.2,0,0,0-5.86,11.4l35.8,129.6a9.8,9.8,0,0,0-2.59,6.64v21.44a9.84,9.84,0,0,0,4.67,8.36v27a12,12,0,0,0,12,12H330a12,12,0,0,0,12-12V300.88a9.85,9.85,0,0,0,5.94-9V270.41a9.85,9.85,0,0,0-6-9l35.13-127.2a9.2,9.2,0,0,0-5.86-11.4,26,26,0,0,0-8.37-1.37c-6.82,0-13.75,2.62-20,7.59-7.43,5.87-11.81,10.71-14.36,14.19a38.2,38.2,0,0,0-7.09-.68c-11.47,0-20.77,5.61-26.19,15.8l-.12.22-.1.23c-7.08,15.93-.86,28.84,5.28,35.6a147.32,147.32,0,0,1-5.81,19.44c-5.55,14.4-11.22,19.53-14.67,19.53a5,5,0,0,1-1.13-.13c-26.39-6.06-28.17-22.7-27.75-37.82,0-1,.05-1.88.05-2.7,0-20.09,14-26.38,25.76-28.12,8.79-1.3,14.72-7.18,15.48-15.33.54-5.77-1.66-11.9-6.2-17.27s-11.2-9.7-19.24-12.48c-4.12-1.42-9.79-2.15-16.85-2.15-.95,0-1.85,0-2.71,0a96.68,96.68,0,0,0-6.79-20.79c-8.91-19.11-23-29.71-40.66-30.65Z"/></g><rect class="b9e3c238-0ad3-4950-b050-994ff0954444" x="62.26" y="283.22" width="274.7" height="50.96" rx="7" ry="7"/><path class="38be0bb4-963d-4548-ab19-c651a4125335" d="M330,285.22a5,5,0,0,1,5,5v37a5,5,0,0,1-5,5H69.26a5,5,0,0,1-5-5v-37a5,5,0,0,1,5-5H330m0-4H69.26a9,9,0,0,0-9,9v37a9,9,0,0,0,9,9H330a9,9,0,0,0,9-9v-37a9,9,0,0,0-9-9Z"/><rect class="2e1ac905-dca0-415e-8882-4507e0f875a6" x="64.26" y="285.22" width="235.06" height="40.78" rx="5" ry="5"/><path class="b9e3c238-0ad3-4950-b050-994ff0954444" d="M198.2,277.78,64.62,279.17,24.18,132.74a4.21,4.21,0,0,1,2.7-5.25,20.91,20.91,0,0,1,6.74-1.1c5.77,0,11.46,2.19,16.94,6.51,9.67,7.64,13.67,13.24,15.21,15.95a33.92,33.92,0,0,1,9.34-1.36c6.74,0,16,2.28,21.77,13.15l.06.13c7.63,17.18-2.85,28.81-6.19,31.93,2.71,13.65,12.14,45.43,26.83,45.43h0a11,11,0,0,0,1.55-.11c33.17-4.73,32.06-29.94,31.52-42-.06-1.28-.1-2.39-.1-3.32,0-18-8.76-27.63-30.23-33.11-6.52-1.66-10.62-6.69-10.71-13.13-.1-7.38,5.57-17.63,21.87-22.27,4.87-1.38,11.73-1.67,16.63-1.67,2.17,0,4,.05,5.32.11a92.35,92.35,0,0,1,7.2-23.92c8.08-17.33,20.67-26.93,36.4-27.77h2.4c15.73.83,28.32,10.44,36.4,27.77A92.33,92.33,0,0,1,243,122.53c1.59-.1,4-.22,6.84-.22,6.5,0,11.63.63,15.22,1.87,16.23,5.61,22.83,16.66,22.09,24.56-.54,5.83-4.74,9.89-11.24,10.85-19.36,2.87-30,14.61-30,33.07,0,.74,0,1.6,0,2.57-.31,11.47-1,35.35,31.63,42.83a10.06,10.06,0,0,0,2.24.26h0c14,0,23.25-31.91,26-45.61-3.34-3.12-13.82-14.76-6.19-31.93l.06-.13c5.78-10.87,15-13.15,21.77-13.15a33.92,33.92,0,0,1,9.34,1.36c1.54-2.71,5.53-8.31,15.21-15.95,5.47-4.32,11.17-6.51,16.94-6.51a20.9,20.9,0,0,1,6.74,1.1,4.23,4.23,0,0,1,2.67,5.32L331.82,279.17Z"/><path class="38be0bb4-963d-4548-ab19-c651a4125335" d="M199.32,72.89c36.55,1.94,42,51.78,42,51.78s3.77-.36,8.56-.36,10.49.35,14.57,1.76c23.92,8.26,26.58,29.26,11.21,31.54-18.67,2.77-31.73,14.06-31.73,35,0,9.46-3.9,38.84,33.14,47.35a12,12,0,0,0,2.69.31c19.18,0,28.15-48.36,28.15-48.36s-15-11.45-6.54-30.37c5.2-9.79,13.43-12.09,20-12.09a31,31,0,0,1,10.37,1.8s2.1-6.31,15.42-16.82c6.05-4.78,11.53-6.08,15.7-6.08a18.8,18.8,0,0,1,6.09,1,2.25,2.25,0,0,1,1.42,2.82l-40,144.95-132.08-1.38L66.14,277.16l-40-144.95a2.25,2.25,0,0,1,1.42-2.82,18.8,18.8,0,0,1,6.09-1c4.17,0,9.65,1.3,15.7,6.08C62.64,145,64.74,151.3,64.74,151.3a31,31,0,0,1,10.37-1.8c6.58,0,14.8,2.3,20,12.09,8.41,18.93-6.54,30.37-6.54,30.37s8.92,48.18,29,48.18a13,13,0,0,0,1.83-.13c38.59-5.51,33.14-37.89,33.14-47.35,0-22-13.45-30.38-31.73-35C106.67,154,107.67,133,132,126.07c4.59-1.3,11.13-1.6,16.08-1.6,4.05,0,7,.2,7,.2s5.41-49.83,42-51.78h2.19m.11-4h-2.51c-16.51.88-29.69,10.88-38.1,28.92a94.42,94.42,0,0,0-7.07,22.7c-1.05,0-2.28,0-3.63,0-7.31,0-13.09.59-17.18,1.75-17.39,4.95-23.43,16.14-23.32,24.22.1,7.27,4.89,13.17,12.21,15,20.4,5.21,28.72,14.24,28.72,31.17,0,1,0,2.1.11,3.41.55,12.41,1.56,35.51-29.81,40a9,9,0,0,1-1.26.09c-12.9,0-21.85-29.55-24.64-42.7,5.84-5.7,12.7-18,5.82-33.48l-.06-.13-.07-.12C92.4,148,82.4,145.5,75.11,145.5a35.79,35.79,0,0,0-8.41,1c-2.08-3.21-6.36-8.45-14.9-15.2-5.84-4.61-12-6.94-18.18-6.94a23,23,0,0,0-7.39,1.21,6.22,6.22,0,0,0-4,7.73l40,144.89.82,3,3.08,0,132-1.38,132,1.38,3.08,0,.82-3,40-144.89a6.22,6.22,0,0,0-4-7.73,22.94,22.94,0,0,0-7.39-1.21c-6.23,0-12.34,2.34-18.18,6.94-8.54,6.74-12.82,12-14.9,15.2a35.81,35.81,0,0,0-8.41-1C314,145.5,304,148,297.8,159.71l-.07.12-.06.13c-6.88,15.47,0,27.76,5.81,33.47a152.52,152.52,0,0,1-6.26,21.37c-5.34,13.88-11.55,21.52-17.5,21.52a8,8,0,0,1-1.8-.21c-31-7.12-30.38-29.89-30.08-40.83,0-.95.05-1.84.05-2.62,0-23.4,17.74-29.52,28.32-31.09,7.35-1.09,12.31-5.93,12.93-12.64.8-8.65-6.18-20.68-23.43-26.64-3.81-1.32-9.15-2-15.88-2-1.94,0-3.71.06-5.16.13a94.41,94.41,0,0,0-7.05-22.62c-8.41-18-21.59-28-38.1-28.92Z"/><path class="2e1ac905-dca0-415e-8882-4507e0f875a6" d="M350.27,134.19a2,2,0,0,0,.09-.75,32.77,32.77,0,0,0-4.37,2.92c-8,6.31-11.95,11.11-13.83,13.93a8.06,8.06,0,0,0-.47,1l-.14-.05a11.31,11.31,0,0,0-1,1.93s-18.88-7.5-29.09,8.13l-.16.27c-8.41,18.93,6.54,30.37,6.54,30.37s-5.07,27.37-15.75,40.93c-4.28,5.62-9.63,9.41-16.21,9-3.51-.22-12.2-2.84-17.41-5-19.42-8.23-22.17-37.74-22.17-46.5,0-19.43,12.5-30.67,24.86-32.63,14.43-2.29,13.68-22.93-8.82-30.58-7.71-2.62-16.49-.92-16.49-.92s-12.1-49.14-46.48-50.94h-2.06A10.53,10.53,0,0,0,184,76q-1.32.6-2.56,1.3a37.15,37.15,0,0,0-4.58,3.41A39.51,39.51,0,0,0,171,86c-13.26,15.36-15.79,38.62-15.79,38.62l-.86,0c-.19,1.22-.26,1.92-.26,1.92s-17.61-.45-23.13,1.4c-8.54,2.86-14.17,6.87-17.37,11.1-4.25,7.91-1.24,16.39,7.28,18.56,18.29,4.67,31.73,13.06,31.73,35,0,5,1.49,16.19-2.62,26.56-3.09,10.78-11.12,21.3-31.18,24.16a38,38,0,0,1-5.08.13c-16.75-.12-28.43-54-28.43-54s14.07-10.6,6.15-28.12a21.82,21.82,0,0,0-5.87-7.06c-10-5.86-21.91-1.14-21.91-1.14a9.38,9.38,0,0,0-.66-1.37l-.14.05a9.76,9.76,0,0,0-.82-1.61c-1.89-2.83-5.84-7.61-13.8-13.89a31,31,0,0,0-6.51-4,19.5,19.5,0,0,0-13.87-.78,2.09,2.09,0,0,0-1.41,1.7l11.21,40.57,26.53,94.53,124.24-1.27,124.24,1.27s5.26-4,21.76-53.67S350.27,134.19,350.27,134.19Z"/><polygon class="745cd9f9-0966-4d5d-b176-d15b0f25df7e" points="91.29 326 153.32 326 152.1 285.22 90.07 285.22 91.29 326"/><polygon class="de4684b1-bbbf-4af3-9f80-8abc9effea41" points="103.75 326 133.67 326 133.08 285.22 103.17 285.22 103.75 326"/><path class="8e8521bc-ec43-44fd-8e67-2be632d06772" d="M312.62,268.38l-2-4L188.42,263.1h-.08L67.16,264.35,30.84,134.91a14.55,14.55,0,0,1,2.71-.25l8.14-2.31a21.06,21.06,0,0,0-8.14-1.69,17.93,17.93,0,0,0-5.73.92,2.09,2.09,0,0,0-1.41,1.7l11.21,40.57,26.53,94.53,124.24-1.27Z"/><path class="8e8521bc-ec43-44fd-8e67-2be632d06772" d="M113.6,247.5h0a25.68,25.68,0,0,0,6.62-.75c6-2,17.39-9.2,17.5-9.25l-17.62,6c-.88.13-3.49,0-4.52,0s-1.88,0-1.93,0c-16.75-.12-28.43-54-28.43-54l6.93,33.33C99.55,242.69,104.71,247.41,113.6,247.5Z"/><path class="8e8521bc-ec43-44fd-8e67-2be632d06772" d="M335.67,150c.22-.51.83-1.83,8.33-10.17l6.27-5.65a2,2,0,0,0,.09-.75,32.77,32.77,0,0,0-4.37,2.92c-8,6.31-11.95,11.11-13.83,13.93a8.06,8.06,0,0,0-.47,1l-.14-.05a11.31,11.31,0,0,0-1,1.93,31,31,0,0,0-10.37-1.8c-6.06,0-13.52,2-18.72,9.93l-.16.28c-8.41,18.93,6.54,30.37,6.54,30.37s-5,27-15.52,40.63l-.16.22-.05.06c-4.07,5.35-9.1,9-15.25,9q-.49,0-1,0c-3.51-.22-12.2-2.84-17.41-5L273.83,244c.41,0,4.42.5,4.83.5,11,0,18.31-7.53,25.19-25.17a135.27,135.27,0,0,0,6.84-24.86l.38-2.36-1.9-1.45a22.11,22.11,0,0,1-5.3-6.74c-3-5.77-3-12.06-.08-18.7,3.52-6.53,7.66-11,15-11a81.83,81.83,0,0,1,10.5.83l2.5.5Z"/><path class="8e8521bc-ec43-44fd-8e67-2be632d06772" d="M116.55,155.71l.77-1.69a7.41,7.41,0,0,1-3-7.05c.78-6.05,7.46-11.75,17.88-15.23,2.32-.78,8.78-1.24,17.28-1.24,2.62,0,4.46,0,4.48,0l3.69.09L158,127c0-.3,3.4-30.15,21.2-43l.13-.09,13-10.45-1.27.26-7.11,2.37-.4.18-6.65,4.49A39.51,39.51,0,0,0,171,86c-13.26,15.36-15.79,38.62-15.79,38.62l-.86,0c-.19,1.22-.26,1.92-.26,1.92s-1.87,0-4.58,0c-5.61,0-14.82.2-18.55,1.45-8.54,2.86-14.17,6.87-17.37,11.1C110.1,145.45,111.42,152.21,116.55,155.71Z"/><path class="745cd9f9-0966-4d5d-b176-d15b0f25df7e" d="M164.94,94.65c-8.06,14.17-9.78,30-9.78,30l-.86,0c-.19,1.22-.26,1.92-.26,1.92s-17.61-.45-23.13,1.4c-8.61,2.88-14.24,6.94-17.43,11.21a15.55,15.55,0,0,0-1.8,5.88l1.35,6.83a12,12,0,0,0,7.79,5.75c18.29,4.67,31.73,13.06,31.73,35,0,5,1.5,16.27-2.67,26.68-2.42,8.31-7.77,16.45-19.34,21l5.4,27.28,52.44-.54,10.7.11Z"/><path class="de4684b1-bbbf-4af3-9f80-8abc9effea41" d="M129,128.62q-.87.33-1.7.67L133.59,162c11.44,5.36,19,14.2,19,30.64,0,5,1.5,16.27-2.67,26.68,0,.16-.1.32-.15.48s-.18.59-.28.88-.19.55-.29.82L149,222q-.16.42-.33.84l-.2.47c-.13.3-.25.59-.39.89l-.08.17q-.47,1-1,2l-.11.2c-.18.31-.36.62-.55.93l-.1.17,7.62,39.73,30.4-.31L156,119.79c-.59,3-.79,4.88-.79,4.88l-.86,0v0l0,.24,0,.19,0,.3v.07l0,.3v0c-.05.4-.08.65-.09.74v0s-17.61-.45-23.13,1.4q-.94.31-1.82.65Z"/><path class="7e9633e3-bcbe-4c87-8907-0ef9be7fa00b" d="M200.25,201.44c-15.57,0-28.23-18.86-28.23-42.05s12.67-42.05,28.23-42.05,28.23,18.86,28.23,42.05S215.82,201.44,200.25,201.44Z"/><path class="503ee0bc-1204-4917-8147-db1bb19ebc2e" d="M200.25,120.33c13.94,0,25.23,17.48,25.23,39.05s-11.3,39.05-25.23,39.05S175,181,175,159.39s11.3-39.05,25.23-39.05m0-6c-17.51,0-31.23,19.79-31.23,45.05s13.72,45.05,31.23,45.05,31.23-19.79,31.23-45.05-13.72-45.05-31.23-45.05Z"/><path class="312ccd02-fe43-423a-8cbb-0ff9945a078b" d="M199.21,120.37c-13.11.82-23.64,17.12-24.17,37.4.54,19,10.69,34.23,23.13,34.23,12.79,0,23.16-16,23.16-35.84C221.33,136.92,211.52,121.22,199.21,120.37Z"/><ellipse class="b1f921a5-ba30-4d00-9205-184a0b783ae0" cx="191.79" cy="143.92" rx="12.7" ry="9.35" transform="translate(2.94 291.67) rotate(-74.92)"/><path class="7e9633e3-bcbe-4c87-8907-0ef9be7fa00b" d="M325.21,187.41A12.74,12.74,0,1,1,338,174.66,12.76,12.76,0,0,1,325.21,187.41Z"/><path class="503ee0bc-1204-4917-8147-db1bb19ebc2e" d="M325.21,163.92a10.74,10.74,0,1,1-10.74,10.74,10.74,10.74,0,0,1,10.74-10.74m0-4A14.74,14.74,0,1,0,340,174.66a14.76,14.76,0,0,0-14.74-14.74Z"/><path class="312ccd02-fe43-423a-8cbb-0ff9945a078b" d="M324.73,163.94a10.73,10.73,0,0,0-10.24,10.24,9.78,9.78,0,1,0,10.24-10.24Z"/><ellipse class="b1f921a5-ba30-4d00-9205-184a0b783ae0" cx="321.42" cy="171.92" rx="5.1" ry="4.35" transform="translate(18.78 375.09) rotate(-62.01)"/><path class="7e9633e3-bcbe-4c87-8907-0ef9be7fa00b" d="M75.88,187.41a12.74,12.74,0,1,1,12.74-12.74A12.76,12.76,0,0,1,75.88,187.41Z"/><path class="503ee0bc-1204-4917-8147-db1bb19ebc2e" d="M75.88,163.92a10.74,10.74,0,1,1-10.74,10.74,10.74,10.74,0,0,1,10.74-10.74m0-4a14.74,14.74,0,1,0,14.74,14.74,14.76,14.76,0,0,0-14.74-14.74Z"/><path class="312ccd02-fe43-423a-8cbb-0ff9945a078b" d="M75.4,163.94a10.73,10.73,0,0,0-10.24,10.24A9.78,9.78,0,1,0,75.4,163.94Z"/><ellipse class="b1f921a5-ba30-4d00-9205-184a0b783ae0" cx="72.09" cy="171.92" rx="5.1" ry="4.35" transform="translate(-113.56 154.91) rotate(-62.01)"/><rect class="294bfac4-a9fd-43b7-8759-a11877bcf5e4" x="57.6" y="265.58" width="285.31" height="31.1" rx="4.83" ry="4.83"/><path class="ac939cb3-b9b9-4b24-bc13-098912065dbb" d="M338.07,267.58a2.83,2.83,0,0,1,2.83,2.83v21.44a2.83,2.83,0,0,1-2.83,2.83H62.43a2.83,2.83,0,0,1-2.83-2.83V270.41a2.83,2.83,0,0,1,2.83-2.83H338.07m0-4H62.43a6.84,6.84,0,0,0-6.83,6.83v21.44a6.84,6.84,0,0,0,6.83,6.83H338.07a6.84,6.84,0,0,0,6.83-6.83V270.41a6.84,6.84,0,0,0-6.83-6.83Z"/><rect class="5cf3c885-631f-487b-a2c9-749da9d71d9e" x="59.6" y="267.58" width="248.31" height="23.92" rx="2.83" ry="2.83"/><g class="056b909b-4a0f-4b61-93db-3a2ec014fe09"><polygon class="6ba66d3d-0bc6-49f2-a10e-aaa53ed80895" points="159.97 307.37 159.97 256.09 204.38 230.44 248.8 256.09 248.8 307.37 204.38 333.01 159.97 307.37"/><path class="ec957fdf-c6fd-4663-8630-8b8bc80acb84" d="M204.38,234.49l40.91,23.62v47.24L204.38,329l-40.91-23.62V258.11l40.91-23.62m0-8.08-3.5,2L160,252l-3.5,2v55.33l3.5,2L200.88,335l3.5,2,3.5-2,40.91-23.62,3.5-2V254.07l-3.5-2-40.91-23.62-3.5-2Z"/></g><polygon class="6ba66d3d-0bc6-49f2-a10e-aaa53ed80895" points="158.97 303.79 158.97 253.66 202.38 228.6 245.79 253.66 245.79 303.79 202.38 328.86 158.97 303.79"/><path class="21012f24-505c-4d72-acdd-4ae12dc48b33" d="M202.38,231.48l40.91,23.62v47.24L202.38,326l-40.91-23.62V255.11l40.91-23.62m0-5.77-2.5,1.44L159,250.78l-2.5,1.44v53l2.5,1.44,40.91,23.62,2.5,1.44,2.5-1.44,40.91-23.62,2.5-1.44v-53l-2.5-1.44-40.91-23.62-2.5-1.44Z"/><polygon class="f25b1509-1696-4366-a1c0-495a5817d372" points="238.67 298.34 238.67 253.77 201.22 232.15 161.47 255.11 161.47 298.34 200.07 320.63 238.67 298.34"/><path class="5cf3c885-631f-487b-a2c9-749da9d71d9e" d="M201.52,305.44A28.78,28.78,0,1,1,227,263.39l.92,1.77-12.15,6.32-1-.92a8.76,8.76,0,1,0-5.83,15.3,8.63,8.63,0,0,0,4.51-1.29l1.15-.69,11.22,8.3-1.19,1.61A28.89,28.89,0,0,1,201.52,305.44Z"/><path class="0e56035b-3dad-4de9-b92a-6b6a40cc52ec" d="M201.52,249.89a26.81,26.81,0,0,1,23.76,14.42l-9.15,4.76a10.79,10.79,0,1,0-1.61,17.21l8.53,6.31a26.78,26.78,0,1,1-21.53-42.7m0-4A30.78,30.78,0,1,0,226.26,295l2.38-3.22-3.22-2.38-8.53-6.31-2.15-1.59-2.29,1.39a6.65,6.65,0,0,1-3.48,1,6.78,6.78,0,1,1,0-13.56,6.69,6.69,0,0,1,4.49,1.76l2.06,1.84,2.45-1.28,9.15-4.76,3.55-1.85-1.85-3.55a30.68,30.68,0,0,0-27.3-16.58Z"/><ellipse class="15650cee-71aa-49ea-bfbd-dc35e2d5071f" cx="191.79" cy="143.92" rx="7.41" ry="5.46" transform="translate(2.94 291.67) rotate(-74.92)"/></svg>