<svg xmlns="http://www.w3.org/2000/svg" width="200" height="200" fill="none" xmlns:v="https://vecta.io/nano"><path d="M99.995 11.561c48.846 0 88.445 39.6 88.445 88.445s-39.6 88.445-88.445 88.445-88.445-39.599-88.445-88.445 39.599-88.445 88.445-88.445zm0-10.25C45.574 1.311 1.3 45.585 1.3 100.006s44.275 98.695 98.695 98.695 98.695-44.274 98.695-98.695S154.415 1.311 99.995 1.311z" fill="#000"/><path d="M99.995 192.988c-51.27 0-92.981-41.712-92.981-92.982S48.724 7.024 99.995 7.024s92.981 41.711 92.981 92.982-41.711 92.982-92.981 92.982z" fill="#878787"/><path d="M99.995 11.524c48.866 0 88.481 39.617 88.481 88.482s-39.615 88.482-88.481 88.482-88.481-39.615-88.481-88.482 39.615-88.482 88.481-88.482zm0-9c-53.751 0-97.481 43.73-97.481 97.482s43.73 97.482 97.481 97.482 97.481-43.73 97.481-97.482-43.73-97.482-97.481-97.482z" fill="#ec537a"/><path d="M99.995 23.672c42.09 0 76.333 34.243 76.333 76.334s-34.243 76.334-76.333 76.334-76.333-34.243-76.333-76.334 34.243-76.334 76.333-76.334zm0-17.064c-51.58 0-93.397 41.816-93.397 93.398s41.817 93.398 93.397 93.398 93.397-41.814 93.397-93.398S151.578 6.608 99.995 6.608z" fill="#ff8fac"/><path d="M106.505 52.47a2.64 2.64 0 0 1-.86.577 2.63 2.63 0 0 1-1.016.201l-9.371.002c-.703-.001-1.377-.28-1.874-.777s-.777-1.171-.778-1.874l-.001-5.735a2.64 2.64 0 0 1 .778-1.876c.245-.247.537-.443.859-.577s.666-.202 1.014-.201h9.372c.703 0 1.378.279 1.876.776s.777 1.171.778 1.875l.001 5.736c.001.348-.068.693-.201 1.014a2.64 2.64 0 0 1-.577.858z" fill="#919191"/><path d="M93.959 43.609a1.68 1.68 0 0 1 1.187-.493l9.594-.003c.922 0 1.679.756 1.679 1.68l.002 5.873c-.002.445-.18.871-.495 1.185a1.69 1.69 0 0 1-1.186.493l-9.592.001a1.69 1.69 0 0 1-1.682-1.678v-5.872c0-.464.19-.882.493-1.186zm-1.466-1.466a3.72 3.72 0 0 0-1.1 2.652l.001 5.872a3.76 3.76 0 0 0 3.753 3.752l9.593-.001c1 0 1.942-.393 2.652-1.104a3.73 3.73 0 0 0 .815-1.214 3.72 3.72 0 0 0 .284-1.435l-.001-5.873c-.001-.995-.397-1.949-1.1-2.652s-1.657-1.099-2.652-1.1l-9.593.002c-.493-.001-.981.096-1.436.285s-.868.467-1.216.816z" fill="#515151"/><path d="M116.9 81.495c-.221.223-.485.4-.775.52a2.38 2.38 0 0 1-.916.182l-30.52.004a2.38 2.38 0 0 1-2.211-1.474 2.38 2.38 0 0 1-.181-.915l-.001-6.867c.001-.683.279-1.105.514-1.339.728-.728 2.054-.675 3.228.126l2.508 1.714c.061.042.132.064.206.064l22.393-.004c.074.001.146-.021.207-.063l2.506-1.716c.765-.522 1.908-.91 2.824-.425.584.307.919.903.92 1.637v6.865a2.4 2.4 0 0 1-.182.916 2.39 2.39 0 0 1-.52.776z" fill="#919191"/><path d="M83.028 72.194c.408-.407 1.297-.226 2 .255l2.582 1.768c.236.16.517.248.802.248l23.07-.005a1.43 1.43 0 0 0 .802-.249l2.582-1.767c.942-.646 2.223-.755 2.223.388l.002 7.072c0 .393-.159.748-.417 1.005-.132.132-.288.237-.46.309s-.357.108-.544.107l-31.442.007a1.42 1.42 0 0 1-1.005-.415 1.42 1.42 0 0 1-.416-1.005l-.001-7.076c0-.292.083-.5.222-.642zm-1.475-1.475c-.382.383-.834 1.058-.834 2.118l.001 7.075a3.51 3.51 0 0 0 3.509 3.506l31.442-.005a3.49 3.49 0 0 0 1.342-.266c.425-.176.812-.435 1.137-.761s.585-.712.761-1.138a3.48 3.48 0 0 0 .266-1.343l-.002-7.072c0-1.139-.561-2.114-1.504-2.611-1.353-.714-2.945-.209-3.982.502l-2.412 1.65-22.659.002-2.412-1.647c-1.656-1.134-3.526-1.137-4.653-.01z" fill="#515151"/><path d="M94.62 48.404h10.648V76.49H94.62V48.404z" fill="#a4a4a4"/><path d="M95.609 49.291l8.667-.001.005 26.31-8.667.001-.005-26.31zm-2.112-2.112v2.112l.005 26.311.001 2.114h2.111l8.667-.001 2.113-.001V75.6l-.005-26.311v-2.113h-2.113l-8.667.003h-2.112z" fill="#676767"/><path d="M101.309 156.626c-.409.412-1.014.604-1.619.518-.28-.037-.547-.139-.781-.298a1.81 1.81 0 0 1-.563-.617l-6.859-12.682-.013-65.311 16.979-.003.012 65.312-6.857 12.683c-.08.146-.178.282-.299.398z" fill="#898989"/><path d="M92.353 78.638l15.221-.003.013 65.183-6.857 12.68a.71.71 0 0 1-.124.168c-.372.374-1.116.317-1.38-.167l-6.859-12.678-.014-65.183zm-2.061-2.061v2.063l.012 65.181.001.522.249.46 6.859 12.677c.429.793 1.204 1.325 2.125 1.46.456.069.921.032 1.359-.11s.838-.383 1.167-.706c.189-.191.353-.407.48-.645l6.854-12.68.247-.46v-.522l-.01-65.182v-2.061h-2.063l-15.221.003h-2.059z" fill="#676767"/><g fill="#e4e4e4"><path d="M95.664 52.825h6.453v22.619h-6.453V52.825z"/><path d="M106.3 52.266c-.219.22-.48.395-.767.514a2.35 2.35 0 0 1-.905.18l-9.371.002c-.627-.001-1.227-.25-1.67-.693s-.692-1.044-.693-1.671l-.001-5.734c0-.631.246-1.223.693-1.67.218-.221.478-.396.765-.515s.594-.18.904-.178l9.371-.002c.31-.001.618.06.905.178a2.36 2.36 0 0 1 .766.513c.22.219.394.48.514.766a2.36 2.36 0 0 1 .18.905l.001 5.736c0 .629-.246 1.222-.693 1.669z"/></g><path d="M94.098 43.704a1.64 1.64 0 0 1 1.158-.482l9.373-.002c.901 0 1.64.738 1.64 1.641l.002 5.736c-.002.435-.175.851-.483 1.158a1.64 1.64 0 0 1-1.158.481l-9.371.001a1.65 1.65 0 0 1-1.642-1.64v-5.735a1.63 1.63 0 0 1 .481-1.158zm-1.023-1.022a3.06 3.06 0 0 0-.905 2.182l.001 5.735a3.06 3.06 0 0 0 .906 2.181c.286.288.626.516 1 .671s.776.235 1.181.234l9.371-.002c.824 0 1.599-.321 2.183-.905a3.07 3.07 0 0 0 .67-1 3.05 3.05 0 0 0 .234-1.181v-5.736c.001-.406-.079-.807-.234-1.182a3.06 3.06 0 0 0-.671-1.001c-.286-.287-.627-.514-1.001-.669a3.08 3.08 0 0 0-1.182-.233l-9.372.001a3.07 3.07 0 0 0-2.181.906z" fill="#515151"/><path d="M116.696 81.29c-.195.196-.426.351-.681.457a2.09 2.09 0 0 1-.805.16l-30.521.005c-.562 0-1.09-.219-1.486-.616-.196-.194-.351-.426-.457-.681s-.16-.528-.159-.804l-.001-6.867c0-.582.233-.939.43-1.135.731-.732 1.995-.429 2.859.16l2.507 1.715a.66.66 0 0 0 .371.115l22.394-.005c.132 0 .26-.038.368-.114l2.507-1.715c.663-.452 1.722-.832 2.525-.408.285.15.763.53.763 1.381l.001 6.865a2.08 2.08 0 0 1-.159.805c-.105.255-.26.487-.456.682z" fill="#e4e4e4"/><path d="M83.525 72.319c.396-.396 1.259-.219 1.94.248l2.507 1.714a1.38 1.38 0 0 0 .778.242l22.395-.006a1.37 1.37 0 0 0 .777-.241l2.507-1.714c.914-.627 2.157-.733 2.157.376l.002 6.864c0 .382-.154.728-.405.976-.128.129-.279.231-.447.3s-.347.105-.528.104l-30.521.007a1.38 1.38 0 0 1-1.38-1.379l-.001-6.867c.002-.284.084-.486.219-.624zm-1.022-1.023c-.293.293-.641.817-.641 1.647l.001 6.867c.001.749.299 1.467.829 1.997s1.248.827 1.997.827l30.52-.005c.756 0 1.466-.294 1.998-.827.264-.262.472-.574.615-.917s.214-.712.213-1.083l-.002-6.864c0-.9-.42-1.636-1.149-2.023-1.088-.572-2.402-.142-3.271.453l-2.489 1.702-22.352.004-2.489-1.701c-1.35-.924-2.903-.954-3.78-.077z" fill="#515151"/><path d="M104.677 70.378v-1.023s-1.874-.584-4.729-.583-4.698.585-4.698.585l.001 1.023s2.601-.586 4.697-.586 4.729.584 4.729.584zm-.001-6.094V63.26s-1.874-.584-4.73-.583-4.697.585-4.697.585l-.001 1.023s2.604-.586 4.699-.586 4.729.585 4.729.585zm-.001-5.537v-1.023s-1.874-.583-4.729-.583-4.699.586-4.699.586l.001 1.022s2.603-.584 4.698-.585 4.729.583 4.729.583z" fill="#676767"/><path d="M99.238 156.262l-6.739-12.456-.011-56.072 14.955-.002.01 56.07-6.736 12.46c-.291.539-1.188.537-1.479 0z" fill="#bbb"/><path d="M99.977 156.665c-.297 0-.592-.135-.738-.403l-6.74-12.456-.011-56.072 7.479-.001.01 68.932z" fill="#e4e4e4"/><path d="M91.771 87.222l16.26-.042" stroke="#676767" stroke-width="3" stroke-miterlimit="10"/><path d="M114.335 73.143a.97.97 0 0 0-.097-.449l-2.316 1.583c-.228.157-.499.241-.776.241l-1.536.002a1.38 1.38 0 0 1-.717.204l-22.394.004a1.38 1.38 0 0 1-.778-.241l-2.404-1.644-.009.101.001 6.867a1.38 1.38 0 0 0 .405.975 1.38 1.38 0 0 0 .976.403l28.982-.007c.397-.242.664-.675.664-1.174l-.001-6.866zM94.48 43.427a1.64 1.64 0 0 0-.864 1.437l.002 5.735c0 .902.738 1.639 1.64 1.638h7.896c.513-.278.864-.814.864-1.435l-.001-5.736a1.65 1.65 0 0 0-.482-1.158c-.308-.307-.724-.48-1.159-.482l-7.896.001z" fill="#e4e4e4"/><path d="M95 44.266l4.846-.001c.437 0 .795.357.795.795a.8.8 0 0 1-.234.562c-.149.149-.351.233-.561.233l-4.845.001c-.204-.01-.396-.098-.537-.246s-.219-.344-.219-.548.078-.401.219-.549.333-.236.537-.247zm-6.275 32.808l12.343-.002a.8.8 0 0 0 .563-.234c.149-.149.233-.352.233-.563a.8.8 0 0 0-.796-.794l-12.344.001a.8.8 0 0 0-.795.796.8.8 0 0 0 .796.796z" fill="#f7f7f7"/></svg>