<svg xmlns="http://www.w3.org/2000/svg" width="200" height="200"><style>.st2{fill:#e4e4e4}.st9{fill:#515151}.st16{fill:#f7f7f7}.st19{fill:#919191}.st27{fill:#676767}</style><g id="knight_x5F_mysticblue"><g id="Inactive_copy_7"><path d="M100 11.555c48.847 0 88.446 39.6 88.446 88.445s-39.6 88.445-88.446 88.445S11.554 148.846 11.554 100 51.153 11.555 100 11.555m0-10.25C45.579 1.305 1.304 45.579 1.304 100S45.579 198.695 100 198.695s98.696-44.274 98.696-98.695S154.421 1.305 100 1.305z"/><path d="M100 192.982c-51.271 0-92.982-41.712-92.982-92.982S48.729 7.018 100 7.018 192.982 48.729 192.982 100 151.271 192.982 100 192.982z" fill="#878787"/><path d="M100 11.518c48.867 0 88.482 39.617 88.482 88.482 0 48.867-39.615 88.482-88.482 88.482S11.518 148.867 11.518 100c0-48.865 39.615-88.482 88.482-88.482m0-9C46.248 2.518 2.518 46.248 2.518 100s43.73 97.482 97.482 97.482 97.482-43.73 97.482-97.482S153.752 2.518 100 2.518z" fill="#0071bc"/><g><path d="M100 23.666c42.091 0 76.334 34.243 76.334 76.334S142.091 176.334 100 176.334 23.666 142.091 23.666 100 57.909 23.666 100 23.666m0-17.064C48.419 6.602 6.602 48.418 6.602 100c0 51.584 41.817 93.398 93.398 93.398 51.584 0 93.398-41.814 93.398-93.398 0-51.582-41.814-93.398-93.398-93.398z" fill="#70abf1"/></g></g><g id="knight_x5F_inactive_copy_7"><g id="knight_x5F_inactive_x5F_level1_7_"><g id="sword_89_"><path class="st19" d="M106.51 52.464a2.633 2.633 0 01-1.876.778l-9.371.002a2.655 2.655 0 01-2.652-2.651l-.001-5.735c0-.707.276-1.373.778-1.876a2.633 2.633 0 011.873-.778h9.372a2.654 2.654 0 012.654 2.651l.001 5.736a2.632 2.632 0 01-.778 1.873"/><path class="st9" d="M93.964 43.603a1.68 1.68 0 011.187-.493l9.595-.003c.922 0 1.679.756 1.679 1.68l.002 5.873a1.687 1.687 0 01-1.681 1.678l-9.593.001c-.923 0-1.68-.754-1.682-1.678v-5.872c0-.464.19-.882.493-1.186m-1.466-1.466a3.719 3.719 0 00-1.1 2.652l.001 5.872a3.758 3.758 0 003.753 3.752l9.594-.001c1 0 1.942-.393 2.652-1.104a3.719 3.719 0 001.099-2.649l-.001-5.873a3.756 3.756 0 00-3.752-3.752l-9.594.002a3.724 3.724 0 00-2.652 1.101"/><path class="st19" d="M116.905 81.489a2.376 2.376 0 01-1.691.702l-30.52.004c-.64 0-1.24-.248-1.692-.699a2.38 2.38 0 01-.7-1.691l-.001-6.867c.001-.683.279-1.105.514-1.339.728-.728 2.054-.675 3.228.126l2.508 1.714a.363.363 0 00.206.064l22.393-.004a.363.363 0 00.207-.063l2.506-1.716c.765-.522 1.908-.91 2.824-.425.584.307.919.903.92 1.637v6.865a2.387 2.387 0 01-.702 1.692"/><path class="st9" d="M83.033 72.188c.408-.407 1.297-.226 2 .255l2.582 1.768c.236.16.517.248.802.248l23.071-.005c.286 0 .565-.088.802-.249l2.582-1.767c.942-.646 2.223-.755 2.223.388l.002 7.072c0 .393-.159.748-.417 1.005a1.41 1.41 0 01-1.004.416l-31.443.007a1.42 1.42 0 01-1.421-1.42l-.001-7.076c0-.292.083-.5.222-.642m-1.475-1.475c-.382.383-.834 1.058-.834 2.118l.001 7.075a3.51 3.51 0 003.509 3.506l31.443-.005a3.493 3.493 0 002.479-1.027 3.493 3.493 0 001.027-2.481l-.002-7.072c0-1.139-.561-2.114-1.504-2.611-1.353-.714-2.945-.209-3.982.502l-2.412 1.65-22.66.002-2.412-1.647c-1.656-1.134-3.526-1.137-4.653-.01"/><path fill="#a4a4a4" d="M94.625 48.398h10.648v28.086H94.625z"/><path class="st27" d="M95.614 49.285l8.667-.001.005 26.31-8.667.001-.005-26.31zm-2.112-2.112v2.112l.005 26.311.001 2.114h2.111l8.667-.001 2.113-.001v-2.114l-.005-26.311V47.17h-2.113l-8.667.003h-2.112z"/><path d="M101.314 156.62c-.409.412-1.014.604-1.619.518a1.809 1.809 0 01-1.344-.915l-6.859-12.682-.013-65.311 16.979-.003.012 65.312-6.857 12.683c-.08.146-.178.282-.299.398z" fill="#898989"/><path class="st27" d="M92.358 78.632l15.221-.003.013 65.183-6.857 12.68a.69.69 0 01-.124.168c-.372.374-1.116.317-1.38-.167l-6.859-12.678-.014-65.183m-2.061-2.061v2.063l.012 65.181.001.522.249.46 6.859 12.677c.429.793 1.204 1.325 2.125 1.46a2.97 2.97 0 002.526-.816c.189-.191.353-.407.48-.645l6.854-12.68.247-.46v-.522l-.01-65.182v-2.061h-2.063l-15.221.003h-2.059z"/><path class="st2" d="M95.669 52.819h6.453v22.619h-6.453z"/><path class="st2" d="M106.306 52.26a2.354 2.354 0 01-1.672.694l-9.371.002a2.366 2.366 0 01-2.363-2.364l-.001-5.734c0-.631.246-1.223.693-1.67a2.334 2.334 0 011.669-.693l9.372-.002a2.35 2.35 0 011.671.691 2.36 2.36 0 01.694 1.671l.001 5.736c0 .629-.246 1.222-.693 1.669"/><path class="st9" d="M94.103 43.698a1.639 1.639 0 011.158-.482l9.373-.002c.901 0 1.64.738 1.64 1.641l.002 5.736a1.645 1.645 0 01-1.641 1.639l-9.371.001c-.901 0-1.64-.736-1.642-1.64v-5.735a1.628 1.628 0 01.481-1.158m-1.023-1.022a3.06 3.06 0 00-.905 2.182l.001 5.735c0 .823.321 1.597.906 2.181a3.065 3.065 0 002.181.905l9.371-.002c.824 0 1.599-.321 2.183-.905a3.066 3.066 0 00.904-2.181v-5.736a3.07 3.07 0 00-.905-2.183 3.075 3.075 0 00-2.183-.903l-9.372.001a3.069 3.069 0 00-2.181.906"/><path class="st2" d="M116.701 81.284a2.09 2.09 0 01-1.486.617l-30.521.005c-.562 0-1.09-.219-1.486-.616a2.085 2.085 0 01-.616-1.485l-.001-6.867c0-.582.233-.939.43-1.135.731-.732 1.995-.429 2.859.16l2.507 1.715a.659.659 0 00.371.115l22.394-.005c.132 0 .26-.038.368-.114l2.507-1.715c.663-.452 1.722-.832 2.525-.408.285.15.763.53.763 1.381l.001 6.865a2.09 2.09 0 01-.615 1.487"/><path class="st9" d="M83.53 72.313c.396-.396 1.259-.219 1.94.248l2.507 1.714c.229.157.501.242.778.242l22.395-.006c.277 0 .549-.084.777-.241l2.507-1.714c.914-.627 2.157-.733 2.157.376l.002 6.864c0 .382-.154.728-.405.976a1.365 1.365 0 01-.975.404l-30.521.007a1.38 1.38 0 01-1.38-1.379l-.001-6.867c.002-.284.084-.486.219-.624m-1.022-1.023c-.293.293-.641.817-.641 1.647l.001 6.867a2.827 2.827 0 002.826 2.824l30.52-.005c.756 0 1.466-.294 1.998-.827a2.806 2.806 0 00.828-2l-.002-6.864c0-.9-.42-1.636-1.149-2.023-1.088-.572-2.402-.142-3.271.453l-2.489 1.702-22.352.004-2.489-1.701c-1.35-.924-2.903-.954-3.78-.077"/><path class="st27" d="M104.682 70.372v-1.023s-1.874-.584-4.729-.583c-2.857.001-4.698.585-4.698.585l.001 1.023s2.601-.586 4.697-.586c2.094 0 4.729.584 4.729.584M104.681 64.278v-1.024s-1.874-.584-4.73-.583c-2.857 0-4.697.585-4.697.585l-.001 1.023s2.604-.586 4.699-.586c2.094-.001 4.729.585 4.729.585M104.68 58.741v-1.023s-1.874-.583-4.729-.583c-2.857.001-4.699.586-4.699.586l.001 1.022s2.603-.584 4.698-.585c2.094-.001 4.729.583 4.729.583"/><path d="M99.243 156.256L92.504 143.8l-.011-56.072 14.955-.002.01 56.07-6.736 12.46c-.291.539-1.188.537-1.479 0" fill="#bbb"/><path class="st2" d="M99.982 156.659c-.297 0-.592-.135-.738-.403l-6.74-12.456-.011-56.072 7.479-.001s.307 68.932.01 68.932"/><path fill="none" stroke="#676767" stroke-width="3" stroke-miterlimit="10" d="M91.776 87.216l16.26-.042"/><path class="st2" d="M114.34 73.137a.966.966 0 00-.097-.449l-2.316 1.583a1.367 1.367 0 01-.776.241l-1.536.002a1.38 1.38 0 01-.717.204l-22.394.004a1.38 1.38 0 01-.778-.241l-2.404-1.644c-.002.033-.009.065-.009.101l.001 6.867a1.38 1.38 0 001.381 1.379l28.982-.007c.397-.242.664-.675.664-1.174l-.001-6.866zM94.485 43.421a1.638 1.638 0 00-.864 1.437l.002 5.735c0 .902.738 1.639 1.64 1.638h7.896c.513-.278.864-.814.864-1.435l-.001-5.736a1.646 1.646 0 00-1.641-1.64l-7.896.001z"/><path class="st16" d="M95.005 44.26l4.846-.001c.437 0 .795.357.795.795a.797.797 0 01-.795.795l-4.845.001a.796.796 0 01-.001-1.59M88.73 77.068l12.343-.002a.798.798 0 00.796-.797.798.798 0 00-.796-.794l-12.344.001a.799.799 0 00-.795.796.8.8 0 00.796.796"/></g></g></g></g></svg>