<svg xmlns="http://www.w3.org/2000/svg" width="200" height="200"><style>.st2{fill:#e4e4e4}.st8{fill:#898989}.st9{fill:#515151}.st12{fill:#bbb}.st16{fill:#f7f7f7}.st19{fill:#919191}.st27{fill:#676767}.st37{fill:none;stroke:#676767;stroke-width:3;stroke-miterlimit:10}.st40{fill:#a4a4a4}</style><g id="knight_x5F_blue"><g id="Inactive_copy"><path d="M100 11.554c48.847 0 88.446 39.601 88.446 88.445 0 48.847-39.6 88.446-88.446 88.446S11.554 148.846 11.554 100c0-48.845 39.599-88.446 88.446-88.446m0-10.25C45.579 1.304 1.304 45.579 1.304 100S45.579 198.696 100 198.696s98.696-44.275 98.696-98.696S154.421 1.304 100 1.304z"/><path d="M100 192.982c-51.271 0-92.982-41.712-92.982-92.982C7.018 48.73 48.73 7.019 100 7.019s92.982 41.71 92.982 92.981c0 51.27-41.711 92.982-92.982 92.982z" fill="#878787"/><path d="M100 11.518c48.867 0 88.482 39.616 88.482 88.481 0 48.867-39.615 88.482-88.482 88.482S11.518 148.867 11.518 100c0-48.866 39.615-88.482 88.482-88.482m0-9C46.248 2.518 2.518 46.248 2.518 100s43.73 97.482 97.482 97.482 97.482-43.73 97.482-97.482S153.752 2.518 100 2.518z" fill="#0000b2"/><g><path d="M100 23.667c42.091 0 76.334 34.243 76.334 76.333S142.091 176.333 100 176.333 23.666 142.09 23.666 100 57.909 23.667 100 23.667m0-17.065C48.419 6.602 6.602 48.418 6.602 100c0 51.584 41.817 93.398 93.398 93.398 51.584 0 93.398-41.814 93.398-93.398 0-51.582-41.814-93.398-93.398-93.398z" fill="#33f"/></g></g><g id="knight_x5F_inactive_copy"><g id="knight_x5F_inactive_x5F_level2_1_"><g id="sword_11_"><path class="st19" d="M135.34 52.464a2.63 2.63 0 01-1.875.778l-9.372.002a2.655 2.655 0 01-2.652-2.651l-.001-5.735c0-.707.276-1.373.778-1.876a2.634 2.634 0 011.873-.778h9.373a2.653 2.653 0 012.653 2.651l.001 5.736a2.628 2.628 0 01-.778 1.873"/><path class="st9" d="M122.794 43.603a1.68 1.68 0 011.187-.493l9.595-.003c.922 0 1.679.756 1.679 1.68l.003 5.873a1.685 1.685 0 01-1.682 1.678l-9.593.001c-.922 0-1.68-.754-1.682-1.678v-5.872c0-.464.19-.882.493-1.186m-1.465-1.466a3.72 3.72 0 00-1.101 2.652l.001 5.872a3.758 3.758 0 003.753 3.752l9.594-.001a3.725 3.725 0 002.652-1.104 3.72 3.72 0 001.1-2.649l-.001-5.873a3.757 3.757 0 00-3.753-3.752l-9.594.002a3.722 3.722 0 00-2.651 1.101"/><path class="st19" d="M145.736 81.489a2.378 2.378 0 01-1.691.702l-30.52.004c-.64 0-1.241-.248-1.692-.699a2.377 2.377 0 01-.701-1.691l-.001-6.867c.001-.683.279-1.105.514-1.339.729-.728 2.055-.675 3.228.126l2.508 1.714a.363.363 0 00.206.064l22.394-.004a.36.36 0 00.206-.063l2.507-1.716c.764-.522 1.907-.91 2.823-.425.584.307.919.903.92 1.637v6.865a2.382 2.382 0 01-.701 1.692"/><path class="st9" d="M111.864 72.188c.408-.407 1.297-.226 2 .255l2.582 1.768c.236.16.516.248.801.248l23.072-.005c.285 0 .565-.088.802-.249l2.582-1.767c.941-.646 2.222-.755 2.222.388l.002 7.072c0 .393-.158.748-.417 1.005a1.41 1.41 0 01-1.004.416l-31.443.007c-.785 0-1.42-.636-1.421-1.42l-.001-7.076c0-.292.083-.5.223-.642m-1.476-1.475c-.381.383-.834 1.058-.834 2.118l.001 7.075a3.51 3.51 0 003.509 3.506l31.443-.005a3.493 3.493 0 002.479-1.027 3.497 3.497 0 001.027-2.481l-.002-7.072c0-1.139-.562-2.114-1.505-2.611-1.352-.714-2.944-.209-3.982.502l-2.411 1.65-22.661.002-2.412-1.647c-1.655-1.134-3.525-1.137-4.652-.01"/><path class="st40" d="M123.456 48.398h10.649v28.086h-10.649z"/><path class="st27" d="M124.445 49.285l8.666-.001.005 26.31-8.666.001-.005-26.31zm-2.113-2.112v2.112l.006 26.311.001 2.114h2.111l8.666-.001 2.114-.001v-2.114l-.005-26.311V47.17h-2.114l-8.666.003h-2.113z"/><path class="st8" d="M130.146 156.62c-.409.412-1.015.604-1.62.518a1.81 1.81 0 01-1.344-.915l-6.859-12.682-.012-65.311 16.979-.003.012 65.312-6.857 12.683c-.082.146-.18.282-.299.398z"/><path class="st27" d="M121.189 78.632l15.221-.003.012 65.183-6.856 12.68a.694.694 0 01-.125.168c-.372.374-1.116.317-1.38-.167l-6.859-12.678-.013-65.183m-2.061-2.061v2.063l.011 65.181.001.522.25.46 6.859 12.677c.429.793 1.203 1.325 2.125 1.46a2.969 2.969 0 002.525-.816c.19-.191.353-.407.48-.645l6.854-12.68.248-.46v-.522l-.011-65.182v-2.061h-2.062l-15.221.003h-2.059z"/><path class="st2" d="M124.5 52.819h6.454v22.619H124.5z"/><path class="st2" d="M135.136 52.26a2.352 2.352 0 01-1.671.694l-9.372.002a2.366 2.366 0 01-2.362-2.364l-.001-5.734c0-.631.246-1.223.692-1.67a2.336 2.336 0 011.669-.693l9.373-.002c.628 0 1.223.244 1.67.691a2.36 2.36 0 01.694 1.671l.001 5.736c0 .629-.246 1.222-.693 1.669"/><path class="st9" d="M122.933 43.698a1.64 1.64 0 011.158-.482l9.374-.002c.9 0 1.639.738 1.639 1.641l.002 5.736a1.64 1.64 0 01-1.64 1.639l-9.372.001c-.9 0-1.64-.736-1.641-1.64v-5.735a1.628 1.628 0 01.48-1.158m-1.023-1.022a3.065 3.065 0 00-.905 2.182l.001 5.735c0 .823.322 1.597.906 2.181s1.359.905 2.181.905l9.372-.002c.823 0 1.599-.321 2.182-.905a3.067 3.067 0 00.905-2.181v-5.736c0-.824-.322-1.597-.906-2.183a3.072 3.072 0 00-2.182-.903l-9.373.001a3.07 3.07 0 00-2.181.906"/><path class="st2" d="M145.532 81.284a2.094 2.094 0 01-1.486.617l-30.521.005a2.082 2.082 0 01-1.486-.616 2.08 2.08 0 01-.616-1.485l-.002-6.867c0-.582.233-.939.43-1.135.732-.732 1.995-.429 2.859.16l2.507 1.715c.11.075.237.114.371.115l22.394-.005a.637.637 0 00.369-.114l2.507-1.715c.662-.452 1.722-.832 2.524-.408.286.15.764.53.764 1.381l.001 6.865a2.095 2.095 0 01-.615 1.487"/><path class="st9" d="M112.36 72.313c.396-.396 1.259-.219 1.94.248l2.507 1.714c.229.157.501.242.778.242l22.395-.006c.277 0 .549-.084.778-.241l2.507-1.714c.914-.627 2.156-.733 2.156.376l.002 6.864c0 .382-.154.728-.404.976-.25.251-.594.404-.975.404l-30.521.007a1.38 1.38 0 01-1.38-1.379l-.001-6.867c.002-.284.083-.486.218-.624m-1.022-1.023c-.293.293-.641.817-.641 1.647l.001 6.867a2.827 2.827 0 002.827 2.824l30.52-.005c.755 0 1.465-.294 1.998-.827s.827-1.243.827-2l-.002-6.864c0-.9-.419-1.636-1.149-2.023-1.088-.572-2.402-.142-3.271.453l-2.49 1.702-22.352.004-2.488-1.701c-1.349-.924-2.903-.954-3.78-.077"/><path class="st27" d="M133.512 70.372v-1.023s-1.873-.584-4.729-.583c-2.858.001-4.699.585-4.699.585l.001 1.023s2.602-.586 4.698-.586c2.094 0 4.729.584 4.729.584M133.511 64.278v-1.024s-1.873-.584-4.729-.583c-2.858 0-4.698.585-4.698.585l-.001 1.023s2.604-.586 4.7-.586c2.093-.001 4.728.585 4.728.585M133.51 58.741v-1.023s-1.873-.583-4.729-.583c-2.858.001-4.7.586-4.7.586l.001 1.022s2.604-.584 4.699-.585c2.094-.001 4.729.583 4.729.583"/><path class="st12" d="M128.074 156.256l-6.74-12.456-.01-56.072 14.955-.002.009 56.07-6.736 12.46c-.29.539-1.188.537-1.478 0"/><path class="st2" d="M128.813 156.659c-.296 0-.592-.135-.737-.403l-6.741-12.456-.01-56.072 7.478-.001c-.001 0 .306 68.932.01 68.932"/><path class="st37" d="M120.606 87.216l16.26-.042"/><path class="st2" d="M143.17 73.137a.966.966 0 00-.097-.449l-2.315 1.583a1.372 1.372 0 01-.777.241l-1.535.002a1.387 1.387 0 01-.718.204l-22.394.004c-.277 0-.549-.085-.778-.241l-2.404-1.644c-.002.033-.008.065-.008.101l.001 6.867a1.38 1.38 0 001.381 1.379l28.981-.007c.397-.242.664-.675.664-1.174l-.001-6.866zM123.315 43.421a1.637 1.637 0 00-.863 1.437l.001 5.735c0 .902.739 1.639 1.64 1.638h7.896c.513-.278.865-.814.865-1.435l-.001-5.736a1.646 1.646 0 00-1.642-1.64l-7.896.001z"/><path class="st16" d="M123.836 44.26l4.846-.001c.436 0 .794.357.794.795a.797.797 0 01-.794.795l-4.845.001a.797.797 0 01-.796-.796c0-.436.357-.794.795-.794M117.562 77.068l12.343-.002a.797.797 0 00.795-.797.797.797 0 00-.795-.794l-12.344.001a.8.8 0 00-.796.796.8.8 0 00.797.796"/></g><g id="sword_10_"><path class="st19" d="M79.738 52.464a2.63 2.63 0 01-1.875.778l-9.372.002a2.655 2.655 0 01-2.652-2.651l-.001-5.735c0-.707.276-1.373.778-1.876a2.634 2.634 0 011.873-.778h9.373a2.653 2.653 0 012.653 2.651l.001 5.736a2.624 2.624 0 01-.778 1.873"/><path class="st9" d="M67.192 43.603a1.68 1.68 0 011.187-.493l9.595-.003c.922 0 1.679.756 1.679 1.68l.002 5.873a1.685 1.685 0 01-1.681 1.678l-9.593.001c-.922 0-1.68-.754-1.682-1.678v-5.872c0-.464.191-.882.493-1.186m-1.464-1.466a3.72 3.72 0 00-1.101 2.652l.001 5.872a3.758 3.758 0 003.753 3.752l9.594-.001c1 0 1.942-.393 2.652-1.104a3.72 3.72 0 001.1-2.649l-.001-5.873a3.757 3.757 0 00-3.753-3.752l-9.594.002a3.722 3.722 0 00-2.651 1.101"/><path class="st19" d="M90.135 81.489a2.378 2.378 0 01-1.691.702l-30.52.004c-.64 0-1.241-.248-1.692-.699a2.377 2.377 0 01-.701-1.691l-.001-6.867c.001-.683.279-1.105.514-1.339.729-.728 2.055-.675 3.228.126l2.508 1.714a.363.363 0 00.206.064l22.394-.004a.36.36 0 00.206-.063l2.507-1.716c.764-.522 1.907-.91 2.823-.425.584.307.919.903.92 1.637v6.865a2.39 2.39 0 01-.701 1.692"/><path class="st9" d="M56.262 72.188c.409-.407 1.298-.226 2 .255l2.583 1.768c.236.16.516.248.801.248l23.072-.005c.285 0 .565-.088.802-.249l2.582-1.767c.941-.646 2.222-.755 2.222.388l.002 7.072c0 .393-.158.748-.417 1.005a1.41 1.41 0 01-1.004.416l-31.443.007c-.785 0-1.42-.636-1.421-1.42l-.001-7.076c-.001-.292.082-.5.222-.642m-1.476-1.475c-.381.383-.834 1.058-.834 2.118l.001 7.075a3.51 3.51 0 003.509 3.506l31.443-.005a3.493 3.493 0 002.479-1.027 3.497 3.497 0 001.027-2.481l-.002-7.072c0-1.139-.562-2.114-1.505-2.611-1.353-.714-2.944-.209-3.982.502l-2.411 1.65-22.661.002-2.412-1.647c-1.655-1.134-3.525-1.137-4.652-.01"/><path class="st40" d="M67.854 48.398h10.649v28.086H67.854z"/><path class="st27" d="M68.844 49.285l8.666-.001.005 26.31-8.666.001-.005-26.31zm-2.114-2.112v2.112l.005 26.311.001 2.114h2.112l8.666-.001 2.114-.001v-2.114l-.005-26.311V47.17H77.51l-8.666.003H66.73z"/><path class="st8" d="M74.544 156.62c-.409.412-1.015.604-1.62.518a1.81 1.81 0 01-1.344-.915l-6.859-12.682-.012-65.311 16.979-.003.013 65.312-6.857 12.683a1.748 1.748 0 01-.3.398z"/><path class="st27" d="M65.588 78.632l15.221-.003.012 65.183-6.856 12.68a.694.694 0 01-.125.168c-.372.374-1.116.317-1.38-.167l-6.86-12.679-.012-65.182m-2.062-2.061v2.063l.011 65.181.001.522.249.46 6.86 12.677c.428.793 1.203 1.325 2.124 1.46a2.97 2.97 0 002.526-.816c.19-.191.353-.407.48-.645l6.854-12.68.248-.46v-.522l-.009-65.182v-2.061h-2.062l-15.221.003h-2.061z"/><path class="st2" d="M68.898 52.819h6.454v22.619h-6.454z"/><path class="st2" d="M79.534 52.26a2.352 2.352 0 01-1.671.694l-9.372.002a2.366 2.366 0 01-2.362-2.364l-.002-5.734c0-.631.247-1.223.693-1.67a2.336 2.336 0 011.669-.693l9.373-.002c.628 0 1.223.244 1.67.691a2.36 2.36 0 01.694 1.671l.001 5.736a2.342 2.342 0 01-.693 1.669"/><path class="st9" d="M67.331 43.698a1.64 1.64 0 011.158-.482l9.374-.002c.9 0 1.639.738 1.639 1.641l.002 5.736a1.64 1.64 0 01-1.64 1.639l-9.372.001c-.9 0-1.64-.736-1.641-1.64v-5.735a1.632 1.632 0 01.48-1.158m-1.022-1.022a3.065 3.065 0 00-.905 2.182l.001 5.735c0 .823.322 1.597.906 2.181s1.359.905 2.181.905l9.372-.002c.823 0 1.599-.321 2.182-.905a3.067 3.067 0 00.905-2.181v-5.736c0-.824-.322-1.597-.906-2.183a3.072 3.072 0 00-2.182-.903l-9.373.001a3.069 3.069 0 00-2.181.906"/><path class="st2" d="M89.931 81.284a2.094 2.094 0 01-1.486.617l-30.522.005c-.562 0-1.09-.219-1.485-.616a2.081 2.081 0 01-.617-1.485l-.001-6.867c0-.582.233-.939.43-1.135.732-.732 1.995-.429 2.859.16l2.507 1.715c.11.075.237.114.371.115l22.394-.005a.637.637 0 00.369-.114l2.507-1.715c.662-.452 1.721-.832 2.524-.408.286.15.764.53.764 1.381l.001 6.865a2.099 2.099 0 01-.615 1.487"/><path class="st9" d="M56.759 72.313c.396-.396 1.259-.219 1.94.248l2.507 1.714c.229.157.501.242.778.242l22.395-.006c.277 0 .549-.084.778-.241l2.507-1.714c.914-.627 2.156-.733 2.156.376l.002 6.864c0 .382-.154.728-.405.976a1.365 1.365 0 01-.974.404l-30.521.007a1.38 1.38 0 01-1.379-1.379l-.001-6.867c0-.284.081-.486.217-.624m-1.023-1.023c-.293.293-.641.817-.641 1.647l.001 6.867a2.827 2.827 0 002.827 2.824l30.52-.005c.755 0 1.465-.294 1.998-.827s.827-1.243.827-2l-.002-6.864c0-.9-.419-1.636-1.149-2.023-1.088-.572-2.402-.142-3.271.453l-2.49 1.702-22.352.004-2.489-1.701c-1.348-.924-2.902-.954-3.779-.077"/><path class="st27" d="M77.91 70.372v-1.023s-1.873-.584-4.729-.583c-2.858.001-4.699.585-4.699.585l.001 1.023s2.602-.586 4.698-.586c2.094 0 4.729.584 4.729.584M77.909 64.278v-1.024s-1.873-.584-4.729-.583c-2.858 0-4.698.585-4.698.585l-.001 1.023s2.604-.586 4.7-.586c2.093-.001 4.728.585 4.728.585M77.908 58.741v-1.023s-1.873-.583-4.729-.583c-2.858.001-4.7.586-4.7.586l.001 1.022s2.604-.584 4.699-.585c2.094-.001 4.729.583 4.729.583"/><path class="st12" d="M72.473 156.256l-6.74-12.456-.01-56.072 14.955-.002.009 56.07-6.736 12.46c-.291.539-1.188.537-1.478 0"/><path class="st2" d="M73.211 156.659c-.296 0-.592-.135-.737-.403L65.732 143.8l-.01-56.072 7.478-.001s.308 68.932.011 68.932"/><path class="st37" d="M65.005 87.216l16.26-.042"/><path class="st2" d="M87.568 73.137a.966.966 0 00-.097-.449l-2.315 1.583a1.372 1.372 0 01-.777.241l-1.535.002a1.387 1.387 0 01-.718.204l-22.394.004c-.277 0-.549-.085-.778-.241l-2.404-1.644c-.002.033-.008.065-.008.101l.001 6.867a1.38 1.38 0 001.381 1.379l28.981-.007c.397-.242.664-.675.664-1.174l-.001-6.866zM67.714 43.421a1.637 1.637 0 00-.863 1.437l.001 5.735c0 .902.739 1.639 1.64 1.638h7.896c.513-.278.865-.814.865-1.435l-.001-5.736a1.646 1.646 0 00-1.642-1.64l-7.896.001z"/><path class="st16" d="M68.234 44.26l4.846-.001c.436 0 .794.357.794.795a.797.797 0 01-.794.795l-4.845.001a.797.797 0 01-.796-.796c0-.436.358-.794.795-.794M61.96 77.068l12.343-.002a.797.797 0 00.795-.797.797.797 0 00-.795-.794l-12.344.001a.8.8 0 00-.796.796.8.8 0 00.797.796"/></g></g></g></g></svg>