<svg xmlns="http://www.w3.org/2000/svg" width="200" height="200"><style>.st6{fill:#b78358}.st13{fill:#bcbec0}.st18{fill:#916136}.st20{fill:#939598}.st21{fill:#c49a6c}.st23{fill:#603913}.st25{fill:#633b1a}.st26{fill:#636362}.st28{fill:#9b7753}.st29{fill:none;stroke:#414042;stroke-width:3;stroke-miterlimit:10}.st42{fill:#414042}.st43{fill:#42250d}</style><g id="knight_x5F_white"><g id="Active_State_copy_10"><path d="M100 11.555c48.847 0 88.446 39.601 88.446 88.445 0 48.847-39.6 88.446-88.446 88.446S11.554 148.847 11.554 100c0-48.845 39.599-88.445 88.446-88.445m0-10.25C45.579 1.305 1.304 45.579 1.304 100S45.579 198.696 100 198.696s98.696-44.275 98.696-98.696S154.421 1.305 100 1.305z"/><path d="M100 192.982c-51.271 0-92.982-41.712-92.982-92.982S48.729 7.019 100 7.019s92.982 41.71 92.982 92.981-41.711 92.982-92.982 92.982z" fill="#fff"/><path d="M100 11.519c48.867 0 88.482 39.616 88.482 88.481 0 48.867-39.615 88.482-88.482 88.482S11.518 148.867 11.518 100c0-48.865 39.615-88.481 88.482-88.481m0-9C46.248 2.519 2.518 46.248 2.518 100s43.73 97.482 97.482 97.482 97.482-43.73 97.482-97.482S153.752 2.519 100 2.519z" fill="#6bb2b0"/><g><path d="M100 23.666c42.09 0 76.333 34.243 76.333 76.334S142.09 176.334 100 176.334 23.667 142.091 23.667 100 57.91 23.666 100 23.666m0-17.064C48.419 6.602 6.602 48.418 6.602 100c0 51.584 41.817 93.398 93.398 93.398 51.584 0 93.398-41.814 93.398-93.398 0-51.582-41.814-93.398-93.398-93.398z" fill="#efeae1"/></g></g><g id="knight_x5F_active_copy_10"><g id="knight_x5F_active_x5F_level3_11_"><g id="sword_119_"><path class="st18" d="M139.867 50.833a2.558 2.558 0 01-1.821.756l-9.102.002a2.579 2.579 0 01-2.576-2.575l-.001-5.57c0-.687.269-1.333.756-1.821a2.557 2.557 0 011.819-.756h9.103a2.576 2.576 0 012.577 2.574l.001 5.571a2.555 2.555 0 01-.756 1.819"/><path class="st43" d="M127.683 42.227a1.632 1.632 0 011.152-.479l9.318-.003c.896 0 1.631.734 1.631 1.631l.002 5.704a1.638 1.638 0 01-1.632 1.63l-9.316.001a1.638 1.638 0 01-1.633-1.63v-5.703a1.624 1.624 0 01.478-1.151m-1.423-1.424a3.616 3.616 0 00-1.068 2.576l.001 5.703a3.649 3.649 0 003.645 3.644l9.317-.001c.972 0 1.887-.381 2.576-1.071a3.614 3.614 0 001.067-2.573l-.001-5.704a3.648 3.648 0 00-3.645-3.644l-9.317.002a3.607 3.607 0 00-2.575 1.068"/><path class="st18" d="M149.964 79.022a2.311 2.311 0 01-1.643.682l-29.641.004c-.621 0-1.205-.241-1.644-.68s-.681-1.021-.681-1.643l-.001-6.669c.001-.663.271-1.073.499-1.301.707-.706 1.995-.655 3.135.123l2.436 1.664c.06.041.128.063.2.063l21.748-.004a.348.348 0 00.2-.062l2.435-1.666c.742-.508 1.853-.884 2.742-.413.567.298.893.878.894 1.59v6.668a2.308 2.308 0 01-.679 1.644"/><path class="st43" d="M117.067 69.989c.396-.396 1.26-.219 1.942.248l2.508 1.716c.229.156.501.241.778.241l22.407-.005c.277 0 .549-.085.778-.241l2.508-1.716c.915-.627 2.158-.733 2.158.376l.002 6.869c0 .381-.154.727-.405.976-.249.25-.594.404-.975.404l-30.538.007a1.38 1.38 0 01-1.38-1.38l-.001-6.872c.002-.283.083-.485.218-.623m-1.433-1.432c-.37.371-.81 1.026-.81 2.057l.001 6.871a3.41 3.41 0 003.407 3.405l30.538-.005a3.387 3.387 0 002.407-.998 3.392 3.392 0 00.998-2.409l-.002-6.869c0-1.105-.545-2.053-1.461-2.536-1.313-.693-2.86-.203-3.868.487l-2.342 1.604-22.008.002-2.343-1.601c-1.606-1.1-3.422-1.103-4.517-.008"/><path class="st28" d="M128.326 46.884h10.342V74.16h-10.342z"/><path class="st23" d="M129.286 47.746l8.417-.001.005 25.552-8.417.001-.005-25.552zm-2.052-2.052v2.052l.005 25.553.001 2.053h2.051l8.417-.001 2.053-.001v-2.053l-.005-25.553v-2.053h-2.053l-8.417.003h-2.052z"/><path class="st26" d="M134.822 151.99c-.397.399-.985.586-1.573.502a1.754 1.754 0 01-1.305-.889l-6.662-12.316-.012-63.43 16.49-.003.012 63.431-6.66 12.317a1.625 1.625 0 01-.29.388z"/><path class="st42" d="M126.124 76.247l14.782-.003.012 63.306-6.659 12.314a.635.635 0 01-.121.163c-.361.363-1.084.309-1.34-.162l-6.662-12.313-.012-63.305m-2.002-2.001v2.003l.011 63.304.001.508.242.446 6.662 12.312c.416.771 1.169 1.287 2.063 1.418a2.884 2.884 0 002.453-.793c.185-.186.343-.396.467-.626l6.657-12.314.24-.446v-.508l-.01-63.305v-2.001h-2.003l-14.782.003h-2.001z"/><path class="st21" d="M129.339 51.178h6.268v21.968h-6.268z"/><path class="st25" d="M139.669 50.635a2.282 2.282 0 01-1.623.674l-9.102.002a2.298 2.298 0 01-2.295-2.296l-.001-5.569c0-.612.239-1.188.673-1.622a2.27 2.27 0 011.621-.673l9.103-.002c.61 0 1.188.237 1.622.672.434.435.674 1.011.675 1.622l.001 5.571c0 .611-.239 1.186-.674 1.621"/><path class="st43" d="M127.817 42.319c.29-.288.688-.468 1.125-.468l9.104-.002c.875 0 1.592.717 1.592 1.593l.002 5.571a1.597 1.597 0 01-1.594 1.593l-9.102.001a1.6 1.6 0 01-1.594-1.593v-5.57c0-.438.18-.836.467-1.125m-.993-.992a2.975 2.975 0 00-.879 2.118l.001 5.57c0 .8.313 1.551.88 2.118s1.32.879 2.118.879l9.102-.002c.8 0 1.553-.312 2.119-.879a2.98 2.98 0 00.879-2.118v-5.571c0-.8-.313-1.551-.88-2.119a2.986 2.986 0 00-2.119-.878l-9.103.001a2.986 2.986 0 00-2.118.881"/><path class="st25" d="M149.766 78.823a2.03 2.03 0 01-1.443.6l-29.643.004a2.021 2.021 0 01-1.443-.598 2.022 2.022 0 01-.599-1.443l-.001-6.669c0-.565.227-.912.417-1.103.711-.711 1.938-.416 2.777.156l2.435 1.665c.106.073.23.111.36.112l21.748-.005a.617.617 0 00.358-.111l2.435-1.665c.644-.439 1.672-.809 2.452-.396.277.146.741.515.741 1.341l.001 6.668a2.027 2.027 0 01-.595 1.444"/><path class="st43" d="M117.55 70.11c.385-.384 1.223-.212 1.885.241l2.435 1.665c.223.152.486.234.756.234l21.749-.005c.27 0 .533-.082.756-.234l2.435-1.665c.888-.608 2.095-.712 2.095.365l.002 6.667c0 .37-.15.706-.394.947a1.33 1.33 0 01-.946.393l-29.642.007c-.74 0-1.339-.601-1.34-1.34l-.001-6.669c-.001-.276.078-.472.21-.606m-.993-.993c-.284.284-.622.793-.622 1.6l.001 6.669a2.745 2.745 0 002.745 2.743l29.641-.005c.733 0 1.423-.285 1.94-.803a2.727 2.727 0 00.804-1.942l-.002-6.667c0-.874-.407-1.589-1.116-1.965-1.057-.556-2.333-.138-3.177.439l-2.418 1.653-21.708.004-2.417-1.652c-1.311-.896-2.82-.926-3.671-.074"/><path class="st23" d="M138.092 68.226v-.994s-1.819-.567-4.593-.566c-2.775.001-4.563.568-4.563.568l.001.994s2.526-.569 4.563-.569c2.033-.001 4.592.567 4.592.567M138.091 62.307v-.994s-1.819-.567-4.594-.566c-2.775 0-4.563.568-4.563.568l-.001.993s2.529-.568 4.564-.568c2.035-.002 4.594.567 4.594.567M138.09 56.93v-.994s-1.819-.566-4.593-.566c-2.775.001-4.564.569-4.564.569l.001.993s2.528-.567 4.563-.568c2.034-.002 4.593.566 4.593.566"/><path class="st20" d="M132.811 151.636l-6.546-12.097-.01-54.458 14.524-.002.009 54.456-6.542 12.101c-.282.523-1.153.522-1.435 0"/><path class="st13" d="M133.528 152.027c-.288 0-.575-.131-.717-.392l-6.547-12.097-.01-54.458 7.263-.001c.001.001.299 66.948.011 66.948"/><path class="st29" d="M125.559 84.584l15.791-.041"/><path class="st18" d="M147.472 70.91a.952.952 0 00-.094-.437l-2.249 1.538a1.334 1.334 0 01-.755.234l-1.491.001c-.209.128-.45.198-.696.198l-21.749.004c-.27 0-.533-.082-.756-.234l-2.335-1.596c-.002.032-.008.063-.008.098l.001 6.669c0 .739.6 1.34 1.341 1.34l28.147-.007c.386-.235.645-.655.645-1.14l-.001-6.668zM128.189 42.051c-.496.271-.84.792-.839 1.395l.001 5.57c0 .876.718 1.592 1.593 1.591h7.668c.498-.271.84-.791.84-1.394l-.001-5.571a1.598 1.598 0 00-1.594-1.592l-7.668.001z"/><path class="st6" d="M128.694 42.865l4.706-.001c.424 0 .771.347.771.771a.774.774 0 01-.771.772l-4.705.001a.773.773 0 01-.772-.773c0-.422.347-.77.771-.77M122.601 74.729l11.987-.002a.773.773 0 00.772-.773.774.774 0 00-.772-.771H122.6a.776.776 0 00-.772.773c0 .424.348.773.773.773"/></g><g id="sword_118_"><path class="st18" d="M72.867 50.833a2.558 2.558 0 01-1.821.756l-9.102.002a2.579 2.579 0 01-2.576-2.575l-.001-5.57c0-.687.269-1.333.756-1.821a2.557 2.557 0 011.819-.756h9.103a2.576 2.576 0 012.577 2.574l.001 5.571a2.555 2.555 0 01-.756 1.819"/><path class="st43" d="M60.683 42.227a1.632 1.632 0 011.152-.479l9.318-.003c.896 0 1.631.734 1.631 1.631l.002 5.704a1.638 1.638 0 01-1.632 1.63l-9.316.001a1.638 1.638 0 01-1.633-1.63v-5.703a1.624 1.624 0 01.478-1.151m-1.423-1.424a3.616 3.616 0 00-1.068 2.576l.001 5.703a3.649 3.649 0 003.645 3.644l9.317-.001c.972 0 1.887-.381 2.576-1.071a3.614 3.614 0 001.067-2.573l-.001-5.704a3.648 3.648 0 00-3.645-3.644l-9.317.002a3.607 3.607 0 00-2.575 1.068"/><path class="st18" d="M82.964 79.022a2.311 2.311 0 01-1.643.682l-29.641.004c-.621 0-1.205-.241-1.644-.68s-.681-1.021-.681-1.643l-.001-6.669c.001-.663.271-1.073.499-1.301.707-.706 1.995-.655 3.135.123l2.436 1.664c.06.041.128.063.2.063l21.748-.004a.348.348 0 00.2-.062l2.435-1.666c.742-.508 1.853-.884 2.742-.413.567.298.893.878.894 1.59v6.668a2.308 2.308 0 01-.679 1.644"/><path class="st43" d="M50.067 69.989c.396-.396 1.26-.219 1.942.248l2.508 1.716c.229.156.501.241.778.241l22.407-.005c.277 0 .549-.085.778-.241l2.508-1.716c.915-.627 2.158-.733 2.158.376l.002 6.869c0 .381-.154.727-.405.976-.249.25-.594.404-.975.404l-30.538.007a1.38 1.38 0 01-1.38-1.38l-.001-6.872c.002-.283.083-.485.218-.623m-1.433-1.432c-.37.371-.81 1.026-.81 2.057l.001 6.871a3.41 3.41 0 003.407 3.405l30.538-.005a3.387 3.387 0 002.407-.998 3.392 3.392 0 00.998-2.409l-.002-6.869c0-1.105-.545-2.053-1.461-2.536-1.313-.693-2.86-.203-3.868.487l-2.342 1.604-22.008.002-2.343-1.601c-1.606-1.1-3.422-1.103-4.517-.008"/><path class="st28" d="M61.326 46.884h10.342V74.16H61.326z"/><path class="st23" d="M62.286 47.746l8.417-.001.005 25.552-8.417.001-.005-25.552zm-2.052-2.052v2.052l.005 25.553.001 2.053h2.051l8.417-.001 2.053-.001v-2.053l-.005-25.553v-2.053h-2.053l-8.417.003h-2.052z"/><path class="st26" d="M67.822 151.99c-.397.399-.985.586-1.573.502a1.754 1.754 0 01-1.305-.889l-6.662-12.316-.012-63.43 16.49-.003.012 63.431-6.66 12.317a1.625 1.625 0 01-.29.388z"/><path class="st42" d="M59.124 76.247l14.782-.003.012 63.306-6.659 12.314a.635.635 0 01-.121.163c-.361.363-1.084.309-1.34-.162l-6.662-12.313-.012-63.305m-2.002-2.001v2.003l.011 63.304.001.508.242.446 6.662 12.312c.416.771 1.169 1.287 2.063 1.418a2.884 2.884 0 002.453-.793c.185-.186.343-.396.467-.626l6.657-12.314.24-.446v-.508l-.01-63.305v-2.001h-2.003l-14.782.003h-2.001z"/><path class="st21" d="M62.339 51.178h6.268v21.968h-6.268z"/><path class="st25" d="M72.669 50.635a2.282 2.282 0 01-1.623.674l-9.102.002a2.298 2.298 0 01-2.295-2.296l-.001-5.569c0-.612.239-1.188.673-1.622a2.27 2.27 0 011.621-.673l9.103-.002c.61 0 1.188.237 1.622.672.434.435.674 1.011.675 1.622l.001 5.571c0 .611-.239 1.186-.674 1.621"/><path class="st43" d="M60.817 42.319c.29-.288.688-.468 1.125-.468l9.104-.002c.875 0 1.592.717 1.592 1.593l.002 5.571a1.597 1.597 0 01-1.594 1.593l-9.102.001a1.6 1.6 0 01-1.594-1.593v-5.57c0-.438.18-.836.467-1.125m-.993-.992a2.975 2.975 0 00-.879 2.118l.001 5.57c0 .8.313 1.551.88 2.118s1.32.879 2.118.879l9.102-.002c.8 0 1.553-.312 2.119-.879a2.98 2.98 0 00.879-2.118v-5.571c0-.8-.313-1.551-.88-2.119a2.986 2.986 0 00-2.119-.878l-9.103.001a2.986 2.986 0 00-2.118.881"/><path class="st25" d="M82.766 78.823a2.03 2.03 0 01-1.443.6l-29.643.004a2.021 2.021 0 01-1.443-.598 2.022 2.022 0 01-.599-1.443l-.001-6.669c0-.565.227-.912.417-1.103.711-.711 1.938-.416 2.777.156l2.435 1.665c.106.073.23.111.36.112l21.748-.005a.617.617 0 00.358-.111l2.435-1.665c.644-.439 1.672-.809 2.452-.396.277.146.741.515.741 1.341l.001 6.668a2.027 2.027 0 01-.595 1.444"/><path class="st43" d="M50.55 70.11c.385-.384 1.223-.212 1.885.241l2.435 1.665c.223.152.486.234.756.234l21.749-.005c.27 0 .533-.082.756-.234l2.435-1.665c.888-.608 2.095-.712 2.095.365l.002 6.667c0 .37-.15.706-.394.947a1.33 1.33 0 01-.946.393l-29.643.008c-.74 0-1.339-.601-1.34-1.34l-.001-6.669c0-.277.079-.473.211-.607m-.993-.993c-.284.284-.622.793-.622 1.6l.001 6.669a2.745 2.745 0 002.745 2.743l29.641-.005c.733 0 1.423-.285 1.94-.803a2.727 2.727 0 00.804-1.942l-.002-6.667c0-.874-.407-1.589-1.116-1.965-1.057-.556-2.333-.138-3.177.439l-2.418 1.653-21.708.004-2.417-1.652c-1.311-.896-2.82-.926-3.671-.074"/><path class="st23" d="M71.092 68.226v-.994s-1.819-.567-4.593-.566c-2.775.001-4.563.568-4.563.568l.001.994s2.526-.569 4.563-.569c2.033-.001 4.592.567 4.592.567M71.091 62.307v-.994s-1.819-.567-4.594-.566c-2.775 0-4.563.568-4.563.568l-.001.993s2.529-.568 4.564-.568c2.035-.002 4.594.567 4.594.567M71.09 56.93v-.994s-1.819-.566-4.593-.566c-2.775.001-4.564.569-4.564.569l.001.993s2.528-.567 4.563-.568c2.034-.002 4.593.566 4.593.566"/><path class="st20" d="M65.811 151.636l-6.546-12.097-.01-54.458 14.524-.002.009 54.456-6.542 12.101c-.282.523-1.153.522-1.435 0"/><path class="st13" d="M66.528 152.027c-.288 0-.575-.131-.717-.392l-6.547-12.097-.01-54.458 7.263-.001c.001.001.299 66.948.011 66.948"/><path class="st29" d="M58.559 84.584l15.791-.041"/><path class="st18" d="M80.472 70.91a.952.952 0 00-.094-.437l-2.249 1.538a1.334 1.334 0 01-.755.234l-1.491.001c-.209.128-.45.198-.696.198l-21.749.004c-.27 0-.533-.082-.756-.234l-2.335-1.596c-.002.032-.008.063-.008.098l.001 6.669c0 .739.6 1.34 1.341 1.34l28.147-.007c.386-.235.645-.655.645-1.14l-.001-6.668zM61.189 42.051c-.496.271-.84.792-.839 1.395l.001 5.57c0 .876.718 1.592 1.593 1.591h7.668c.498-.271.84-.791.84-1.394l-.001-5.571a1.598 1.598 0 00-1.594-1.592l-7.668.001z"/><path class="st6" d="M61.694 42.865l4.706-.001c.424 0 .771.347.771.771a.774.774 0 01-.771.772l-4.705.001a.773.773 0 01-.772-.773c0-.422.347-.77.771-.77M55.601 74.729l11.987-.002a.773.773 0 00.772-.773.774.774 0 00-.772-.771H55.6a.776.776 0 00-.772.773c0 .424.348.773.773.773"/></g><g id="sword_117_"><path class="st18" d="M105.867 64.833a2.558 2.558 0 01-1.821.756l-9.102.002a2.579 2.579 0 01-2.576-2.575l-.001-5.57c0-.687.269-1.333.756-1.821a2.557 2.557 0 011.819-.756h9.103a2.576 2.576 0 012.577 2.574l.001 5.571a2.555 2.555 0 01-.756 1.819"/><path class="st43" d="M93.683 56.227a1.632 1.632 0 011.152-.479l9.318-.003c.896 0 1.631.734 1.631 1.631l.002 5.704a1.638 1.638 0 01-1.632 1.63l-9.316.001a1.638 1.638 0 01-1.633-1.63v-5.703a1.624 1.624 0 01.478-1.151m-1.423-1.424a3.616 3.616 0 00-1.068 2.576l.001 5.703a3.649 3.649 0 003.645 3.644l9.317-.001c.972 0 1.887-.381 2.576-1.071a3.614 3.614 0 001.067-2.573l-.001-5.704a3.648 3.648 0 00-3.645-3.644l-9.317.002a3.607 3.607 0 00-2.575 1.068"/><path class="st18" d="M115.964 93.022a2.311 2.311 0 01-1.643.682l-29.641.004c-.621 0-1.205-.241-1.644-.68s-.681-1.021-.681-1.643l-.001-6.669c.001-.663.271-1.073.499-1.301.707-.706 1.995-.655 3.135.123l2.436 1.664c.06.041.128.063.2.063l21.748-.004a.348.348 0 00.2-.062l2.435-1.666c.742-.508 1.853-.884 2.742-.413.567.298.893.878.894 1.59v6.668a2.308 2.308 0 01-.679 1.644"/><path class="st43" d="M83.067 83.989c.396-.396 1.26-.219 1.942.248l2.508 1.716c.229.156.501.241.778.241l22.407-.005c.277 0 .549-.085.778-.241l2.508-1.716c.915-.627 2.158-.733 2.158.376l.002 6.869c0 .381-.154.727-.405.976-.249.25-.594.404-.975.404l-30.538.007a1.38 1.38 0 01-1.38-1.38l-.001-6.872c.002-.283.083-.485.218-.623m-1.433-1.432c-.37.371-.81 1.026-.81 2.057l.001 6.871a3.41 3.41 0 003.407 3.405l30.538-.005a3.387 3.387 0 002.407-.998 3.392 3.392 0 00.998-2.409l-.002-6.869c0-1.105-.545-2.053-1.461-2.536-1.313-.693-2.86-.203-3.868.487l-2.342 1.604-22.008.002-2.343-1.601c-1.606-1.1-3.422-1.103-4.517-.008"/><path class="st28" d="M94.326 60.884h10.342V88.16H94.326z"/><path class="st23" d="M95.286 61.746l8.417-.001.005 25.552-8.417.001-.005-25.552zm-2.052-2.052v2.052l.005 25.553.001 2.053h2.051l8.417-.001 2.053-.001v-2.053l-.005-25.553v-2.053h-2.053l-8.417.003h-2.052z"/><path class="st26" d="M100.822 165.99c-.397.399-.985.586-1.573.502a1.754 1.754 0 01-1.305-.889l-6.662-12.316-.012-63.43 16.49-.003.012 63.431-6.66 12.317a1.625 1.625 0 01-.29.388z"/><path class="st42" d="M92.124 90.247l14.782-.003.012 63.306-6.659 12.314a.635.635 0 01-.121.163c-.361.363-1.084.309-1.34-.162l-6.662-12.313-.012-63.305m-2.002-2.001v2.003l.011 63.304.001.508.242.446 6.662 12.312c.416.771 1.169 1.287 2.063 1.418a2.884 2.884 0 002.453-.793c.185-.186.343-.396.467-.626l6.657-12.314.24-.446v-.508l-.01-63.305v-2.001h-2.003l-14.782.003h-2.001z"/><path class="st21" d="M95.339 65.178h6.268v21.968h-6.268z"/><path class="st25" d="M105.669 64.635a2.282 2.282 0 01-1.623.674l-9.102.002a2.298 2.298 0 01-2.295-2.296l-.001-5.569c0-.612.239-1.188.673-1.622a2.27 2.27 0 011.621-.673l9.103-.002c.61 0 1.188.237 1.622.672.434.435.674 1.011.675 1.622l.001 5.571c0 .611-.239 1.186-.674 1.621"/><path class="st43" d="M93.817 56.319c.29-.288.688-.468 1.125-.468l9.104-.002c.875 0 1.592.717 1.592 1.593l.002 5.571a1.597 1.597 0 01-1.594 1.593l-9.102.001a1.6 1.6 0 01-1.594-1.593v-5.57c0-.438.18-.836.467-1.125m-.993-.992a2.975 2.975 0 00-.879 2.118l.001 5.57c0 .8.313 1.551.88 2.118s1.32.879 2.118.879l9.102-.002c.8 0 1.553-.312 2.119-.879a2.98 2.98 0 00.879-2.118v-5.571c0-.8-.313-1.551-.88-2.119a2.986 2.986 0 00-2.119-.878l-9.103.001a2.986 2.986 0 00-2.118.881"/><path class="st25" d="M115.766 92.823a2.03 2.03 0 01-1.443.6l-29.643.004a2.021 2.021 0 01-1.443-.598 2.022 2.022 0 01-.599-1.443l-.001-6.669c0-.565.227-.912.417-1.103.711-.711 1.938-.416 2.777.156l2.435 1.665c.106.073.23.111.36.112l21.748-.005a.617.617 0 00.358-.111l2.435-1.665c.644-.439 1.672-.809 2.452-.396.277.146.741.515.741 1.341l.001 6.668a2.027 2.027 0 01-.595 1.444"/><path class="st43" d="M83.55 84.11c.385-.384 1.223-.212 1.885.241l2.435 1.665c.223.152.486.234.756.234l21.749-.005c.27 0 .533-.082.756-.234l2.435-1.665c.888-.608 2.095-.712 2.095.365l.002 6.667c0 .37-.15.706-.394.947a1.33 1.33 0 01-.946.393l-29.643.008c-.74 0-1.339-.601-1.34-1.34l-.001-6.669c0-.277.079-.473.211-.607m-.993-.993c-.284.284-.622.793-.622 1.6l.001 6.669a2.745 2.745 0 002.745 2.743l29.641-.005c.733 0 1.423-.285 1.94-.803a2.727 2.727 0 00.804-1.942l-.002-6.667c0-.874-.407-1.589-1.116-1.965-1.057-.556-2.333-.138-3.177.439l-2.418 1.653-21.708.004-2.417-1.652c-1.311-.896-2.82-.926-3.671-.074"/><path class="st23" d="M104.092 82.226v-.994s-1.819-.567-4.593-.566c-2.775.001-4.563.568-4.563.568l.001.994s2.526-.569 4.563-.569c2.033-.001 4.592.567 4.592.567M104.091 76.307v-.994s-1.819-.567-4.594-.566c-2.775 0-4.563.568-4.563.568l-.001.993s2.529-.568 4.564-.568c2.035-.002 4.594.567 4.594.567M104.09 70.93v-.994s-1.819-.566-4.593-.566c-2.775.001-4.564.569-4.564.569l.001.993s2.528-.567 4.563-.568c2.034-.002 4.593.566 4.593.566"/><path class="st20" d="M98.811 165.636l-6.546-12.097-.01-54.458 14.524-.002.009 54.456-6.542 12.101c-.282.523-1.153.522-1.435 0"/><path class="st13" d="M99.528 166.027c-.288 0-.575-.131-.717-.392l-6.547-12.097-.01-54.458 7.263-.001c.001.001.299 66.948.011 66.948"/><path class="st29" d="M91.559 98.584l15.791-.041"/><path class="st18" d="M113.472 84.91a.952.952 0 00-.094-.437l-2.249 1.538a1.334 1.334 0 01-.755.234l-1.491.001c-.209.128-.45.198-.696.198l-21.749.004c-.27 0-.533-.082-.756-.234l-2.335-1.596c-.002.032-.008.063-.008.098l.001 6.669c0 .739.6 1.34 1.341 1.34l28.147-.007c.386-.235.645-.655.645-1.14l-.001-6.668zM94.189 56.051c-.496.271-.84.792-.839 1.395l.001 5.57c0 .876.718 1.592 1.593 1.591h7.668c.498-.271.84-.791.84-1.394l-.001-5.571a1.598 1.598 0 00-1.594-1.592l-7.668.001z"/><path class="st6" d="M94.694 56.865l4.706-.001c.424 0 .771.347.771.771a.774.774 0 01-.771.772l-4.705.001a.773.773 0 01-.772-.773c0-.422.347-.77.771-.77M88.601 88.729l11.987-.002a.773.773 0 00.772-.773.774.774 0 00-.772-.771H88.6a.776.776 0 00-.772.773c0 .424.348.773.773.773"/></g></g></g></g></svg>