<svg xmlns="http://www.w3.org/2000/svg" width="139.7" height="139.7"><style>.st19{fill:#ba1529}</style><g id="Hard_shadow"><path id="_x38__2_" d="M117.2 133.4H23.9a17 17 0 01-17-16.9V23.2A17 17 0 0124 6.3h93.3A17 17 0 01134 23.2v93.3a17 17 0 01-17 17z" opacity=".5"/></g><g id="_x23__cartoony"><g id="_x38_"><path d="M112.3 129.3H19a17 17 0 01-16.9-17V19A17 17 0 0119 2.2h93.3a17 17 0 0117 16.8v93.4a17 17 0 01-17 16.9z" fill="#eae9e4"/><path class="st19" d="M30.5 98.8c4.4-.2 7 5.8 3.7 8.8-3 3.3-9.2.8-8.9-3.6a5 5 0 015.2-5.2zM48.1 98.8c4.4-.2 7 5.8 3.7 8.8-3 3.3-9.2.8-8.9-3.6a5 5 0 015.2-5.2zM65.7 98.8c4.4-.2 7 5.8 3.7 8.8-3 3.3-9.2.8-8.9-3.6a5 5 0 015.2-5.2zM83.3 98.8c4.3-.2 7 5.8 3.7 8.8-3 3.3-9.2.8-8.9-3.6a5 5 0 015.2-5.2zM100.9 98.8c4.3-.2 7 5.8 3.7 8.8-3 3.3-9.2.8-8.9-3.6a5 5 0 015.2-5.2z"/></g><path d="M90.4 70.6c0 2.4-.3 4.6-1 6.5a17.3 17.3 0 01-6.7 8.8c-1.6 1-3.3 1.9-5.1 2.5a35.7 35.7 0 01-21 .8c-3-.8-5.5-2-7.9-3.7a19.5 19.5 0 01-5.6-6.2 17 17 0 01-2.2-8.7 17.8 17.8 0 014.3-11.4c1-1 2-1.9 3.3-2.6a17.2 17.2 0 01-5.9-13.3c0-3 .7-5.8 2-8 1.4-2.4 3.2-4.3 5.3-5.8a24 24 0 017.4-3.6 29.5 29.5 0 0119 1c1.6.6 3.2 1.5 4.7 2.5a18.1 18.1 0 016.3 8.3 18.3 18.3 0 01-.5 13c-1 2.2-2.4 4.2-4.4 6 2.9 1.4 5 3.3 6.2 5.7s1.8 5 1.8 8.2zM73 47.6c0-1-.2-2-.7-2.7-.4-.8-1-1.5-1.7-2a8 8 0 00-5-1.8 8.6 8.6 0 00-5.1 1.8c-.7.5-1.3 1.2-1.7 2a5.4 5.4 0 000 5.3 7 7 0 004.1 3.2 8.5 8.5 0 007.7-1.2c.7-.6 1.3-1.2 1.7-2 .5-.8.7-1.7.7-2.7zm-.1 20.9c0-1-.2-1.9-.7-2.7-.4-.8-1-1.4-1.6-2-.7-.5-1.5-1-2.4-1.2a8.2 8.2 0 00-7.6 1.2c-.7.6-1.3 1.2-1.8 2-.4.8-.6 1.7-.6 2.7 0 1 .2 1.8.6 2.5.5.8 1 1.5 1.8 2a8.4 8.4 0 007.6 1.3c1-.3 1.7-.8 2.4-1.3s1.2-1.2 1.6-2c.5-.7.7-1.6.7-2.5z" fill="#c00" id="_x23_"/></g></svg>