<svg xmlns="http://www.w3.org/2000/svg" width="139.7" height="139.7"><style>.st72{fill:#004405}</style><g id="Hard_shadow"><path id="_x31_1_2_" d="M117.2 133.4H23.9a17 17 0 01-17-16.9V23.2A17 17 0 0124 6.3h93.3A17 17 0 01134 23.2v93.3a17 17 0 01-17 17z" opacity=".5"/></g><g id="_x23__cartoony"><g id="_x31_1"><path d="M112.3 129.3H19a17 17 0 01-16.9-17V19A17 17 0 0119 2.2h93.3a17 17 0 0117 16.8v93.4a17 17 0 01-17 16.9z" fill="#eae9e4"/><path class="st72" d="M57 98.8c4.3-.2 7 5.8 3.6 8.8-3 3.3-9.2.8-8.9-3.6a5 5 0 015.2-5.2zM74.5 98.8c4.3-.2 7 5.8 3.7 8.8-3 3.3-9.2.8-8.9-3.6a5 5 0 015.2-5.2z"/></g><g id="_x23_"><path class="st72" d="M62.8 27l-2.5 62.5-19.2-.9 1-41.6-7 4.9-6.6-15L43 26l20 .9zM98.5 27L96 89.5l-19.2-.9 1-41.6-7 4.9-6.6-15L78.5 26l20 .9z"/></g></g></svg>