<svg xmlns="http://www.w3.org/2000/svg" width="139.7" height="139.7"><style>.st53{opacity:.8}.st65{display:inline}.st72{fill:#004405}</style><g id="Hard_shadow"><path id="_x34__2_" d="M117.2 133.4H24A17 17 0 017 116.5V23.2A17 17 0 0123.9 6.3h93.3a17 17 0 0116.9 16.9v93.3a17 17 0 01-16.9 17z" opacity=".5"/></g><g id="_x23__cartoony"><g id="_x34_"><path d="M112.3 129.3H19a17 17 0 01-16.9-17V19A17 17 0 0119 2.2h93.3a17 17 0 0117 16.8v93.4a17 17 0 01-17 16.9z" fill="#eae9e4"/><path class="st72" d="M48.1 98.8c4.4-.2 7 5.8 3.7 8.8-3 3.3-9.2.8-8.9-3.6a5 5 0 015.2-5.2zM65.7 98.8c4.4-.2 7 5.8 3.7 8.8-3 3.3-9.2.8-8.9-3.6a5 5 0 015.2-5.2zM83.3 98.8c4.3-.2 7 5.8 3.7 8.8-3 3.3-9.2.8-8.9-3.6a5 5 0 015.2-5.2z"/></g><path class="st72" d="M89.1 69.1l-3.8.1-.8 19L64.6 90l1-20.3-23.4.5 6.5-38.6h16.6l-4.8 27 5.8-.3L68 25h19l-1.3 32.6 3.4-.1V69z" id="_x23_"/></g></svg>