<svg xmlns="http://www.w3.org/2000/svg" width="139.7" height="139.7"><style>.st72{fill:#004405}</style><g id="Hard_shadow"><path id="_x31_0_2_" d="M117.2 133.4H23.9a17 17 0 01-17-16.9V23.2A17 17 0 0124 6.3h93.3A17 17 0 01134 23.2v93.3a17 17 0 01-17 17z" opacity=".5"/></g><g id="_x23__cartoony"><g id="_x31_0"><path d="M112.3 129.3H19a17 17 0 01-16.9-17V19A17 17 0 0119 2.2h93.3a17 17 0 0117 16.8v93.4a17 17 0 01-17 16.9z" fill="#eae9e4"/><path class="st72" d="M48.1 98.8c4.4-.2 7 5.8 3.7 8.8-3 3.3-9.2.8-8.9-3.6a5 5 0 015.2-5.2zM65.7 98.8c4.4-.2 7 5.8 3.7 8.8-3 3.3-9.2.8-8.9-3.6a5 5 0 015.2-5.2zM83.3 98.8c4.3-.2 7 5.8 3.7 8.8-3 3.3-9.2.8-8.9-3.6a5 5 0 015.2-5.2z"/></g><g id="_x23_"><path class="st72" d="M54.5 27.1L52 89.6l-19.2-.9 1-41.6-7 4.9-6.5-15 14.3-10.8 20 .9zM112.2 58.8a35.1 35.1 0 01-12.7 26.9A25.2 25.2 0 0185 90.5a23.7 23.7 0 01-14.5-4.8 31.8 31.8 0 01-11.9-19.2 35.2 35.2 0 0112-34.6 24.7 24.7 0 0122.2-3.5 25.1 25.1 0 0112 8.8 34.5 34.5 0 017.4 21.6zm-18.5 1.3a20 20 0 00-2.2-8.7c-.7-1.4-1.7-2.5-2.8-3.5a6.2 6.2 0 00-4-1.4c-1.7 0-3 .5-4.2 1.4-1.2 1-2.1 2.1-2.9 3.5-.7 1.4-1.3 2.9-1.6 4.4s-.5 3-.5 4.3a20 20 0 002.1 8.8c.8 1.4 1.7 2.5 2.9 3.5 1.1.9 2.5 1.4 4.1 1.4 1.6 0 3-.5 4-1.4 1.2-1 2.2-2.1 3-3.5a24.1 24.1 0 002.2-8.7z"/></g></g></svg>