<svg xmlns="http://www.w3.org/2000/svg" width="139.7" height="139.7"><style>.st19{fill:#ba1529}.st53{opacity:.8}.st65{display:inline}</style><g id="Hard_shadow"><path id="_x36__2_" d="M117.2 133.4H23.9a17 17 0 01-17-16.9V23.2A17 17 0 0124 6.3h93.3A17 17 0 01134 23.2v93.3a17 17 0 01-17 17z" opacity=".5"/></g><g id="_x23__cartoony"><g id="_x36_"><path d="M112.3 129.3H19a17 17 0 01-16.9-17V19A17 17 0 0119 2.2h93.3a17 17 0 0117 16.8v93.4a17 17 0 01-17 16.9z" fill="#eae9e4"/><path class="st19" d="M30.5 98.8c4.4-.2 7 5.8 3.7 8.8-3 3.3-9.2.8-8.9-3.6a5 5 0 015.2-5.2zM48.1 98.8c4.4-.2 7 5.8 3.7 8.8-3 3.3-9.2.8-8.9-3.6a5 5 0 015.2-5.2zM65.7 98.8c4.4-.2 7 5.8 3.7 8.8-3 3.3-9.2.8-8.9-3.6a5 5 0 015.2-5.2zM83.3 98.8c4.3-.2 7 5.8 3.7 8.8-3 3.3-9.2.8-8.9-3.6a5 5 0 015.2-5.2zM100.9 98.8c4.3-.2 7 5.8 3.7 8.8-3 3.3-9.2.8-8.9-3.6a5 5 0 015.2-5.2z"/></g><path d="M90.4 68c0 3.6-.6 6.8-1.9 9.7a22.1 22.1 0 01-13 12.3 28 28 0 01-17.8.5 21.5 21.5 0 01-11-8.3 30.4 30.4 0 01-5.2-13.4 47.4 47.4 0 01.1-16.9c.5-3 1.2-5.8 2.2-8.5 1-2.6 2.3-5 3.8-7.3a24.4 24.4 0 0112.9-9.4 30.3 30.3 0 0113.2-1.2l4 .6 3.8 1c1.3.5 2.4 1 3.5 1.7l-1.3 17.3A30.2 30.2 0 0070 43c-1.8 0-3.4.2-4.7.8A9.2 9.2 0 0062 46c-1 1-1.6 2.2-2.1 3.6-.6 1.3-.9 2.9-1 4.6 1.9-1.1 4-2 6.2-2.6a23.7 23.7 0 0114 .2A16.2 16.2 0 0190.4 68zm-16.7 1.3a5 5 0 00-.6-2.4c-.4-.7-.9-1.3-1.5-1.9a7.6 7.6 0 00-7-1.2 7 7 0 00-2.2 1.2c-.6.6-1.1 1.2-1.5 1.9a5 5 0 00-.6 2.4c0 .9.2 1.7.6 2.4a6 6 0 001.5 1.8 7.3 7.3 0 004.5 1.6 7.6 7.6 0 004.7-1.6 6 6 0 001.5-1.8c.4-.7.6-1.5.6-2.4z" fill="#c00" id="_x23_"/></g></svg>