<svg xmlns="http://www.w3.org/2000/svg" width="139.7" height="139.7"><style>.st53{opacity:.8}.st65{display:inline}.st72{fill:#004405}</style><g id="Hard_shadow"><path id="_x35__2_" d="M117.2 133.4H24A17 17 0 017 116.5V23.2A17 17 0 0123.9 6.3h93.3a17 17 0 0116.9 16.9v93.3a17 17 0 01-16.9 17z" opacity=".5"/></g><g id="_x23__cartoony"><g id="_x35_"><path d="M112.3 129.3H19a17 17 0 01-16.9-17V19A17 17 0 0119 2.2h93.3a17 17 0 0117 16.8v93.4a17 17 0 01-17 16.9z" fill="#eae9e4"/><path class="st72" d="M39.3 98.8c4.4-.2 7 5.8 3.7 8.8-3 3.3-9.2.8-8.9-3.6a5 5 0 015.2-5.2zM57 98.8c4.3-.2 7 5.8 3.6 8.8-3 3.3-9.2.8-8.9-3.6a5 5 0 015.2-5.2zM74.5 98.8c4.3-.2 7 5.8 3.7 8.8-3 3.3-9.2.8-8.9-3.6a5 5 0 015.2-5.2zM92.1 98.8c4.3-.2 7 5.8 3.7 8.8-3 3.3-9.2.8-8.9-3.6a5 5 0 015.2-5.2z"/></g><path class="st72" d="M88.5 68.2c0 3.8-.7 7-2 9.9s-3.2 5.1-5.6 7a23.8 23.8 0 01-8.2 4.1 36.6 36.6 0 01-20.2 0 62.3 62.3 0 01-9.7-3.3l1.7-17.5a32.7 32.7 0 0014.8 4l2.6-.1c1-.2 2.1-.4 3-.8 1-.4 1.9-.9 2.5-1.5.7-.6 1-1.4 1-2.5a4 4 0 00-.7-2.5 6.3 6.3 0 00-2.1-1.7 31.2 31.2 0 00-11.8-2 47 47 0 00-8 .9l1.8-35.5 35.6-1 1 18.4L62 42.8l-.5 7.9a34.5 34.5 0 018-1c2.6 0 5 .4 7.4 1.3a17.9 17.9 0 0110 9.5 19 19 0 011.5 7.7z" id="_x23_"/></g></svg>