<svg xmlns="http://www.w3.org/2000/svg" xmlns:xlink="http://www.w3.org/1999/xlink" width="346.21" height="399.79" viewBox="0 0 346.21 399.79"><defs><linearGradient id="linear-gradient" x1="-1948.64" y1="-1906.73" x2="-1969.56" y2="-1942.95" gradientTransform="rotate(60 -2580.7011 982.4545)" gradientUnits="userSpaceOnUse"><stop offset=".19" stop-color="#e8cf96"/><stop offset=".31" stop-color="#e8cf96" stop-opacity=".82"/><stop offset=".56" stop-color="#e8cf96" stop-opacity=".47"/><stop offset=".77" stop-color="#e8cf96" stop-opacity=".22"/><stop offset=".92" stop-color="#e8cf96" stop-opacity=".06"/><stop offset="1" stop-color="#e8cf96" stop-opacity="0"/></linearGradient><linearGradient id="linear-gradient-2" x1="-1817.19" y1="-1902.59" x2="-1793.85" y2="-1943.02" xlink:href="#linear-gradient"/><linearGradient id="linear-gradient-3" x1="-4322.78" y1="-457.6" x2="-4290.28" y2="-457.6" gradientTransform="rotate(119.97 -2335.137 1210.38)" xlink:href="#linear-gradient"/><style>.cls-4{fill:#57afd6}.cls-5{fill:#80cff3}.cls-6{fill:#f2e8c0}.cls-7{fill:#e0b569}</style></defs><g id="Layer_5" data-name="Layer 5"><g style="opacity:0"><path style="fill:#0a67a6" d="M2 298.67l.26-197.6L173.31 2.31l170.9 98.67-.06 197.6-171.05 98.76L2 298.67z"/><path d="M173.31 4.62l168.9 97.51v195.29L173.1 395 4 297.51l.25-195.29 169.06-97.6m0-4.62L.26 99.91 0 299.82l173.1 99.83 173.06-99.92V99.82L173.31 0z" style="fill:#3873a0"/></g><path class="cls-4" d="M346.21 99.82L173.31 0l-33.6 19.4c0 .33-1.46 10.18-1.43 10.51.62 6.41 3.86 6.57 4.48 13 .48 4.9 2.56 9 4.27 13.28 6.18 15.38 25.13 16.41 36.87 26.34 3.87 3.27 7 7.54 11.07 10.47 5.71 4.07 13 5.31 19 9 10 6.24 15.63 19.21 27 22.67 3.59 1.09 2.8 1.2 6.55 1.82 4.82.79 9.65 3.29 14.13 5s1.63 10.45 6.12 12.38c6.25 4.62 9.19 8.42 8 15-.9 5 1.25 7.27.77 12.29-.67 7 1.92 13.94 1.66 20.94-.42 11.75-8.82 23.15-6.13 34.71.85 3.66 2.77 7.1 4.12 10.66a70.81 70.81 0 013.24 14.05c1.53 9.55 3.06 19.13 3.08 28.76a26.79 26.79 0 00.55 7.09c1.18 4.35 4.75 8 8.22 11.56 2.36 2.39 4 6.25 7.3 7.85 2.14 1 9.76 10 13.88 12.42l33.74-19.48z"/><path class="cls-5" d="M346.21 99.82L173.31 0l-25.78 14.88c0 .33.58 2.07.62 2.39.62 6.42 2.51 6.36 3.13 12.77.48 4.9 1 9.87 2.68 14.13 6.18 15.38 25.12 16.41 36.87 26.34 3.86 3.27 7 7.54 11.07 10.47 5.71 4.07 13 5.31 19 9 10 6.24 15.63 19.21 27 22.67 3.59 1.09 7.53 1.14 11.29 1.76 4.82.79 5.48 5.74 10 7.44 6.54 2.47 5.62 9.87 8.5 13.87-.27 9.53 14.34 8.78 14.87 19.75.25 5.05-1.64 10.65-2.12 15.67-.68 7 1.92 13.94 1.66 20.94-.43 11.75-8.82 23.15-6.13 34.71.84 3.66 2.77 7.1 4.11 10.66a70.84 70.84 0 013.25 14.05c1.53 9.55 3.06 19.13 3.08 28.76a26.79 26.79 0 00.55 7.09c1.18 4.35 4.75 8 8.22 11.56 2.36 2.39 4 6.25 7.3 7.85 2.14 1 5.63 4.4 9.75 6.81l24-13.87z"/><path class="cls-6" d="M346.21 99.82L173.31 0 157.1 9.36c0 .32.91 1.57 1.54 8 .47 4.89 1 9.86 2.67 14.12 6.18 15.38 25.13 16.41 36.88 26.34 3.86 3.27 7 7.54 11.06 10.47 5.71 4.07 13 5.31 19 9 10 6.25 12.5 18 23.86 21.42 3.58 1.09 9.66 4.78 13.42 5.4 4.82.79 5.53 7.54 10 9.25 9 3.45 1.41 5.83 9.75 10.62.75.44 4.49 11.59 5.25 12 4.88 4 17.63 11.13 18.08 20.36.24 5-3.05 9.8-3.54 14.81-.67 7 1.92 13.94 1.67 20.94-.43 11.76-8.82 23.15-6.14 34.72.85 3.65 2.78 7.09 4.12 10.66a70.68 70.68 0 013.25 14c1.52 9.55 3.05 19.12 3.07 28.75a26.8 26.8 0 00.56 7.09c1.18 4.35 4.75 8 8.22 11.56 2.35 2.39 4.78 4.83 8 6.43a44.59 44.59 0 005.15 2l13.17-7.61z"/><path class="cls-7" d="M346.19 99.79L173.29 0l-5.83 3.37s5.49 7 5.91 9.62a25.28 25.28 0 003.63 9.26c2.06 3.2 1.84 7.55 4.38 10.38 7 7.87 20.07 12.26 30.89 20.71 3.55 2.78 6.54 6.25 10.27 8.79 5.19 3.54 11.51 5.09 16.86 8.39 9 5.53 14.9 15.74 24.82 19.3 3.14 1.12 6.49 1.5 9.73 2.28 4.16 1 3.39 1.46 7.33 3.13 8 3.35 2.1 8.49 5.59 10.77 1.78 1.17 4.12 7.66 5.75 8.5 1.91 1 4.12 5.25 7 6.75 1.54.81 3.56 6.71 4.5 9.25.83 2.25 8.94 4.2 9 8 .14 8.52 8.39 8.3 6.47 21.88-.63 4.47-2.14 8.8-2.47 13.3-.48 6.27 1.34 12.51 1.16 18.79-.3 10.55-6.18 20.77-4.3 31.15.6 3.28 1.95 6.37 2.89 9.57a78.85 78.85 0 012.27 12.6c1.07 8.58 2.15 17.17 2.16 25.81a30.05 30.05 0 00.39 6.36c.83 3.9 3.33 7.21 5.76 10.37a22.63 22.63 0 005.65 5.77c1.86 1.16 6.57 7.46 7.9 8.61l3.35-1.72 1.82-1.26z"/><path d="M346.21 99.82L173.29 0l-5.83 3.37s5.49 7 5.91 9.62a25.28 25.28 0 003.63 9.26c2.06 3.2 1.84 7.55 4.38 10.38 7 7.87 20.07 12.26 30.88 20.71 3.56 2.78 6.55 6.25 10.28 8.79 5.19 3.54 11.51 5.09 16.86 8.39 9 5.53 14.9 15.74 24.82 19.3 3.14 1.12 6.49 1.5 9.73 2.28 4.16 1 3.39 1.46 7.33 3.13 8 3.35 2.1 8.49 5.59 10.77 1.46 1 3.57 6.57 5.53 8.24 1.52 1.29 6 6.71 7.13 6.86" style="fill:url(#linear-gradient)" id="_1" data-name="1"/><path d="M299.52 121.1c1.54.8 3.56 6.7 4.5 9.25.83 2.24 8.94 4.19 9 8 .14 8.51 8.39 8.29 6.47 21.88-.63 4.47-2.13 8.8-2.47 13.29-.48 6.27 1.34 12.52 1.16 18.8-.3 10.54-6.18 20.77-4.3 31.15.6 3.28 1.95 6.36 2.89 9.56a79 79 0 012.23 12.61c1.07 8.57 2.15 17.16 2.16 25.8a30.15 30.15 0 00.39 6.37c.83 3.9 3.33 7.2 5.76 10.37A23 23 0 00333 294c1.86 1.16 6.57 7.46 7.9 8.61l3.35-1.73 1.82-1.25.14-199.76" style="fill:url(#linear-gradient-2)" id="_2" data-name="2"/><path class="cls-4" d="M173 399.79l33.81-19.52c0-.32-3.8-13.83-3.83-14.15-.63-6.4-3.86-6.55-4.48-12.95-.48-4.88-2.56-9-4.27-13.24-6.16-15.34-25.06-16.35-36.78-26.25-3.86-3.26-6.95-7.52-11-10.43-5.7-4.06-13-5.29-18.93-9-9.94-6.22-15.6-19.15-26.93-22.6-3.59-1.08-7.52-1.13-11.26-1.74a71.12 71.12 0 01-13.76-4.2c-9-3.44-18-6.89-26.38-11.67a27.1 27.1 0 00-6.4-3.06c-4.35-1.14-9.31.11-14.08 1.35-3.24.84-7.41.36-10.42 2.39-2.02 1.28-18.17 5.75-18.17 5.9v39.54z"/><path class="cls-5" d="M173 399.79l24.52-14.17c0-.33-4.18-6.6-4.21-6.93-.63-6.39-2.51-6.33-3.14-12.73-.48-4.88-1-9.84-2.68-14.09-6.17-15.33-25.06-16.34-36.79-26.25-3.85-3.25-6.95-7.51-11-10.43-5.7-4.06-13-5.29-18.92-9C110.76 300 105.09 287 93.76 283.6c-3.58-1.09-7.51-1.14-11.26-1.75a71 71 0 01-13.75-4.2c-9-3.44-18-6.89-26.38-11.67a27.07 27.07 0 00-6.4-3.05c-4.35-1.15-9.31.1-14.09 1.34-3.23.85-7.4.36-10.41 2.4-2 1.33-7.21 2.79-11.34 5.15v28.34z"/><path class="cls-6" d="M173 399.79l13.22-7.64c-2.36-3.68-2.73-7.1-3.36-13.49-.47-4.89-1-9.84-2.68-14.09-6.16-15.33-25.06-16.35-36.79-26.25-3.85-3.26-6.94-7.52-11-10.43-5.7-4.06-13-5.29-18.93-9-9.94-6.22-15.6-19.15-26.93-22.6-3.58-1.08-7.52-1.13-11.26-1.75a70.41 70.41 0 01-13.76-4.19c-9-3.44-18-6.89-26.37-11.67a26.93 26.93 0 00-6.41-3.05c-4.35-1.15-9.31.1-14.08 1.34-3.24.84-4.13 6.49-8.4 6.25-2.37-.14-4.07.46-6 .79L.06 300.1z"/><path class="cls-7" d="M178 396.87l-1.81-2.54c-1.19-1.35-1.35-1.84-1.92-4.42-1.07-4.85-2.66-5-3.74-9.81-.82-3.71-1.66-7.47-3.47-10.8-6.53-12-22.65-14.39-33.44-22.81-3.54-2.77-6.53-6.23-10.25-8.76-5.18-3.53-11.48-5.07-16.82-8.36-9-5.51-14.86-15.69-24.77-19.23-3.13-1.12-6.47-1.49-9.7-2.27a78.82 78.82 0 01-12-4.32c-7.93-3.34-15.89-6.7-23.36-11a30.57 30.57 0 00-5.7-2.83c-3.78-1.23-7.88-.72-11.83-.19-2.67.36-10.69 1.23-12.53 2.42-2.84 1.86-4.84.56-6.5 1.15v7.05L173 399.79z"/><path d="M178 396.87l-1.81-2.54c-1.19-1.35-1.35-1.84-1.92-4.42-1.07-4.85-2.66-5-3.74-9.81-.82-3.71-1.66-7.47-3.47-10.8-6.53-12-22.65-14.39-33.44-22.81-3.54-2.77-6.53-6.23-10.25-8.76-5.18-3.53-11.48-5.07-16.82-8.36-9-5.51-14.86-15.69-24.77-19.23-3.13-1.12-6.47-1.49-9.7-2.27a78.82 78.82 0 01-12-4.32c-7.93-3.34-15.89-6.7-23.36-11a30.57 30.57 0 00-5.7-2.83c-3.78-1.23-7.88-.72-11.83-.19-2.67.36-10.69 1.23-12.53 2.42-2.84 1.86-4.84.56-6.5 1.15v7.05L173 399.79z" style="fill:url(#linear-gradient-3)"/></g></svg>