<svg id="Gold_tile" data-name="Gold tile" xmlns="http://www.w3.org/2000/svg" width="346.95" height="400.63" viewBox="0 0 346.95 400.63"><defs><linearGradient id="linear-gradient" x1="173.48" y1="400.63" x2="173.48" gradientUnits="userSpaceOnUse"><stop offset="0" stop-color="#feec98"/><stop offset=".07" stop-color="#fee383"/><stop offset=".18" stop-color="#ffd666"/><stop offset=".29" stop-color="#ffcd52"/><stop offset=".4" stop-color="#ffc845"/><stop offset=".5" stop-color="#ffc641"/><stop offset=".7" stop-color="#946828"/></linearGradient><linearGradient id="linear-gradient-2" x1="173.48" x2="173.48" y2="400.63" gradientUnits="userSpaceOnUse"><stop offset="0" stop-color="#fed14f"/><stop offset=".02" stop-color="#f9cc4d"/><stop offset=".14" stop-color="#dfaf41"/><stop offset=".26" stop-color="#cb9b38"/><stop offset=".38" stop-color="#c08e33"/><stop offset=".5" stop-color="#bc8a31"/><stop offset=".7" stop-color="#a94e25"/><stop offset="1" stop-color="#fcdc56"/></linearGradient><radialGradient id="radial-gradient" cx="166.42" cy="196.43" r="172.73" gradientUnits="userSpaceOnUse"><stop offset=".59" stop-color="#ca9d3e"/><stop offset="1" stop-color="#b88830"/></radialGradient><style>.cls-6{fill:#b56628}.cls-7{fill:#fab562}.cls-8{fill:#f9d53d;stroke:#8d4e23;stroke-miterlimit:10;stroke-width:3.41px}.cls-9{fill:#ffe4c5}.cls-10{fill:#e78826}</style></defs><path fill="url(#radial-gradient)" d="M0 100.16v200.31l173.48 100.16 173.47-100.16V100.16L173.48 0 0 100.16z"/><path d="M173.48 33.54l144.43 83.39V283.7l-144.43 83.39L29.05 283.7V116.93l144.43-83.39m0-33.54L0 100.16v200.31l173.48 100.16L347 300.47V100.16L173.48 0z" fill="url(#linear-gradient)"/><path d="M173.48 28.91l148.43 85.7V286l-148.43 85.7L25 286V114.61l148.44-85.7m0-28.91L0 100.16v200.31l173.48 100.16L347 300.47V100.16L173.48 0z" fill="url(#linear-gradient-2)"/><path d="M173.48 15l160.45 92.64V293l-160.45 92.59L13 293V107.67L173.48 15m0-15L0 100.16v200.31l173.48 100.16L347 300.47V100.16L173.48 0z" fill="#754d29"/><path d="M173.48 12.72l162.46 93.8v187.59l-162.46 93.8L11 294.11V106.52l162.46-93.8m0-12.72L0 100.16v200.31l173.48 100.16L347 300.47V100.16L173.48 0z" fill="#dfb469"/><path class="cls-6" d="M78.13 125.18a9.3 9.3 0 00-4.4 1.07 11.4 11.4 0 00-11-7.3c-6.33 0-11.47 4.65-11.47 10.38a10.36 10.36 0 00.09 1.25h-.25c-5.32 0-9.63 3.35-9.63 7.47s4.36 5.95 9.68 5.95c4.67 0 7.18-1.34 9.39-4.46.72.13 3.54-1.83 4.3-1.88a16.32 16.32 0 007-2c1.81.84 4.78.34 7.31.34 4.42 0 6.93-.79 6.93-4.34s-3.53-6.48-7.95-6.48zM263.16 128a15 15 0 0114.37-9.85c8.31 0 15.05 6.28 15.05 14a13.6 13.6 0 01-.12 1.7h.39c7 0 12.63 4.52 12.63 10.09s-5.72 8-12.7 8c-6.13 0-9.42-1.81-12.32-6-.94.18-4.64-2.47-5.64-2.54a21 21 0 01-9.25-2.71c-5.77-1.69-3.67-13.39-2.41-12.69z"/><path class="cls-7" d="M50.46 130.87c-4.08 0-8.15 2.59-8.15 5.22s3.68 6.48 7.38 4.74c6.3-3 7.22-3.29 7.22-5.91s-2.38-4.05-6.45-4.05z"/><path class="cls-7" d="M62.29 119.36c-5.43 0-10.14 3.39-10.14 6.61s4.61 7.35 9.83 5.84c4.3-1.25 6.14-3 9.83-5.84 2.52-1.97-4.09-6.61-9.52-6.61zM78.72 125.32c-2.25-.09-4.76.16-5 2.13-.28 2.63 1.95 1.81 5 1.81s6 1.38 6-.51-3.59-3.32-6-3.43zM292.64 132.31c5.15-.45 10.61 2.68 10.93 6.3s-3.86 9.36-8.74 7.38c-8.33-3.39-9.53-3.75-9.85-7.37s2.51-5.85 7.66-6.31zM276.29 117.72c6.86-.6 13.23 3.56 13.62 8s-4.93 10.66-11.72 9.16c-5.59-1.24-8.13-3.4-13.14-7-3.43-2.39 4.37-9.55 11.24-10.16z"/><path class="cls-8" d="M111.11 118.27l29.22-18.56c1.86-1.85 5.82-1.71 8.44-1.71l13.94.26a8.73 8.73 0 018.26 5.89l2.46 10.29a11 11 0 01-1.81 10.49L148 139.14"/><path class="cls-8" d="M109 140.8h35.66a3.4 3.4 0 003.28-4.31l-4.68-16.92a3.4 3.4 0 00-3.28-2.5h-26.29a3.41 3.41 0 00-3.28 2.48l-4.74 16.93a3.4 3.4 0 003.33 4.32zM169.1 101.04l-26.58 16.03"/><path class="cls-8" d="M137 128.62l29.22-18.56c1.86-1.85 5.82-1.71 8.44-1.71l13.94.26a8.74 8.74 0 018.26 5.88l2.46 10.29a11 11 0 01-1.81 10.5l-23.61 14.2"/><path class="cls-8" d="M134.85 151.15h35.66a3.4 3.4 0 003.28-4.31l-4.68-16.93a3.41 3.41 0 00-3.28-2.49h-26.24a3.4 3.4 0 00-3.28 2.48l-4.74 16.93a3.4 3.4 0 003.28 4.32zM195 111.39l-26.58 16.03M205.41 125.59l-8.15 23a1.74 1.74 0 002.44 1.68l33.76-14.62a3.8 3.8 0 001.88-5.21l-6.05-14.77z"/><path class="cls-8" d="M196.23 148l-31-40.8c-1.86-2.09-1.34-7.43.87-9.13l6.9-12.6a.7.7 0 011.17-.09l30.71 39.54a2.23 2.23 0 01.52 1.55L198 147.4a1 1 0 01-1.77.6z"/><path class="cls-8" d="M174.6 83.51l15.3-6.88a6 6 0 016.95 1.48l31.28 35.13a2 2 0 01-.74 3.23l-17.92 7.44a6.08 6.08 0 01-7-1.72l-28.84-34.45a2.73 2.73 0 01.97-4.23z"/><path class="cls-9" d="M136.26 136.28s15-12.28 32.84 0l-1.47-5.46s-.27-1.89-2.95-1.67h-24.84s-1.28-.71-2.13 2.1zM109.5 129.75s2.81-9.88 28-10.8h-22.63a3.47 3.47 0 00-2.48.45 10.42 10.42 0 00-.68 1.85zM121.94 113.52a91.27 91.27 0 0141.29-13.64h-16.31s-3.41-.94-7.67 2.64z"/><path class="cls-10" d="M173.08 89.4l30.52 36.65-6.85 19.75L167 106.6a6.29 6.29 0 01-.65-6.25c1.42-3.09 4.26-8.65 6.73-10.95zM202.27 140.23l30.17-12.3 1.4 3.39s1.17 2-1.45 3.05-33.22 14.29-33.22 14.29zM163.23 113.94l7.75 9.88 3.39-1.92-7.75-10.09-3.39 2.13zM173.08 126.63l-2.64 1.81 3.59 12.71 1.45 5.38 12.11-7.25-11.28-14.69-3.23 2.04zM170.69 142.32h-36.08l-1.26 4.68s-1 2.52 1.94 2.47 34.48 0 34.48 0 2.66.2 2.42-2.27zM144.34 117.81l1.12 3.44 19.22-12.19s-1.79-1.86-1.74-2.34zM141 119.17l-7.81 5.76a4.65 4.65 0 00-1.75 2.71c-.37 1.79-1.77 7.07-1.77 7.07H108l-.58 2.23s-.48 1.83 1.74 2.2h22.81l2.86-10s.29-1.8 3.15-3.11l4.57-2.9-.89-3.2a1.56 1.56 0 00-.66-.76z"/><path class="cls-9" d="M177 84.34a42.58 42.58 0 0136 14.26c15.49 17.41-15.5-17.41-15.5-17.41s-2.53-3.3-4-3.26a5 5 0 00-3.15.43zM207 126.73s20.19-6.36 24.38-1l-2.75-7.9zM163.23 113.94s-12.85 9.89-7.42 11.68h-10.93z"/></svg>