<svg xmlns="http://www.w3.org/2000/svg" xmlns:xlink="http://www.w3.org/1999/xlink" width="346" height="399.91" viewBox="0 0 346.09 399.91"><defs><linearGradient id="a" x1="-1840.93" y1="-1968.89" x2="-1861.85" y2="-2005.12" gradientTransform="rotate(60 -2580.7394 857.9883)" gradientUnits="userSpaceOnUse"><stop offset=".19" stop-color="#e8cf96"/><stop offset=".31" stop-color="#e8cf96" stop-opacity=".82"/><stop offset=".56" stop-color="#e8cf96" stop-opacity=".47"/><stop offset=".77" stop-color="#e8cf96" stop-opacity=".22"/><stop offset=".92" stop-color="#e8cf96" stop-opacity=".06"/><stop offset="1" stop-color="#e8cf96" stop-opacity="0"/></linearGradient><linearGradient id="b" x1="-1709.49" y1="-1964.75" x2="-1686.14" y2="-2005.19" xlink:href="#a"/></defs><g data-name="Layer 5"><g style="opacity:0"><path style="fill:#0a67a6" d="M173 399.91l173-100V100.09L172.9.09 0 99.91v199.82l173 100.18z"/></g><path d="M346.09 99.82L173.19 0l-33.6 19.4c0 .33-1.46 10.18-1.43 10.51.62 6.41 3.86 6.57 4.48 13 .48 4.9 2.56 9 4.27 13.28 6.18 15.38 25.13 16.41 36.88 26.34 3.86 3.27 7 7.54 11.06 10.47 5.71 4.07 13 5.31 19 9 10 6.24 15.63 19.21 27 22.67 3.59 1.09 2.8 1.2 6.55 1.82 4.82.79 9.66 3.29 14.13 5s1.63 10.45 6.12 12.38c6.25 4.62 9.19 8.42 8 15-.89 5 1.26 7.27.77 12.29-.67 7 1.92 13.94 1.66 20.94-.42 11.75-8.82 23.15-6.13 34.71.85 3.66 2.77 7.1 4.12 10.66a70.81 70.81 0 013.24 14.05c1.53 9.55 3.06 19.13 3.08 28.76a26.79 26.79 0 00.55 7.09c1.19 4.35 4.75 8 8.23 11.56 2.35 2.39 4 6.25 7.29 7.85 2.14 1 9.76 10 13.88 12.42L346 299.73z" style="fill:#57afd6"/><path d="M346.09 99.82L173.19 0l-25.78 14.88c0 .33.59 2.07.62 2.39.62 6.42 2.51 6.36 3.13 12.77.48 4.9 1 9.87 2.68 14.13C160 59.55 179 60.58 190.71 70.51c3.86 3.27 7 7.54 11.07 10.47 5.71 4.07 13 5.31 19 9 10 6.24 15.63 19.21 27 22.67 3.59 1.09 7.53 1.14 11.29 1.76 4.82.79 5.48 5.74 10 7.44 6.54 2.47 5.62 9.87 8.5 13.87-.27 9.53 14.34 8.78 14.87 19.75.25 5.05-1.64 10.65-2.12 15.67-.68 7 1.92 13.94 1.66 20.94-.43 11.75-8.82 23.15-6.13 34.71.84 3.66 2.77 7.1 4.12 10.66a71.52 71.52 0 013.24 14.05c1.53 9.55 3.06 19.13 3.08 28.75a26.83 26.83 0 00.55 7.1c1.18 4.35 4.75 8 8.22 11.56 2.36 2.39 4 6.25 7.3 7.85 2.14 1 5.63 4.4 9.75 6.81l24-13.87z" style="fill:#80cff3"/><path d="M346.09 99.82L173.19 0 157 9.36c0 .32.91 1.57 1.54 8 .47 4.9 1 9.87 2.68 14.13 6.17 15.38 25.12 16.41 36.87 26.34 3.86 3.27 7 7.54 11.06 10.47 5.71 4.07 13 5.31 19 9 10 6.25 12.5 18 23.86 21.42 3.59 1.09 9.67 4.78 13.42 5.4 4.82.79 5.53 7.54 10 9.25 9 3.45 1.41 5.83 9.75 10.62.75.43 4.49 11.59 5.25 12 4.88 4 17.63 11.13 18.08 20.36.24 5-3 9.8-3.53 14.81-.68 7 1.91 13.94 1.66 20.94-.43 11.75-8.82 23.15-6.14 34.72.85 3.65 2.78 7.09 4.12 10.65a70.93 70.93 0 013.25 14.06c1.52 9.54 3.05 19.12 3.07 28.75a26.8 26.8 0 00.56 7.09c1.18 4.35 4.75 8 8.22 11.56 2.35 2.39 4.78 4.83 8.06 6.43a44.49 44.49 0 005.14 2l13.08-7.63z" style="fill:#f2e8c0"/><path d="M346.07 99.79L173.17 0l-5.83 3.37s5.5 7 5.92 9.62a24.93 24.93 0 003.62 9.25c2.05 3.2 1.83 7.55 4.37 10.38 7.05 7.87 20.08 12.26 30.89 20.71 3.55 2.78 6.54 6.25 10.27 8.79 5.19 3.54 11.51 5.09 16.86 8.39 9 5.53 14.9 15.74 24.82 19.3 3.14 1.12 6.49 1.5 9.73 2.28 4.16 1 3.39 1.46 7.33 3.13 8 3.35 2.1 8.49 5.59 10.77 1.78 1.17 4.13 7.66 5.75 8.5 1.91 1 4.12 5.25 7 6.75 1.54.81 3.56 6.71 4.5 9.25.83 2.25 8.94 4.2 9 8 .14 8.52 8.39 8.3 6.47 21.88-.63 4.47-2.13 8.8-2.47 13.3-.48 6.27 1.34 12.51 1.16 18.79-.3 10.55-6.18 20.77-4.3 31.15.6 3.28 1.95 6.37 2.89 9.57a78.85 78.85 0 012.27 12.6c1.07 8.57 2.15 17.17 2.16 25.8a30.11 30.11 0 00.39 6.37c.83 3.9 3.33 7.21 5.76 10.37a22.63 22.63 0 005.68 5.78c1.86 1.16 6.57 7.46 7.9 8.61l3.35-1.72 1.82-1.26z" style="fill:#e0b569"/><path d="M346.09 99.82L173.17 0l-5.83 3.37s5.5 7 5.92 9.62a24.93 24.93 0 003.62 9.25c2.05 3.2 1.83 7.55 4.37 10.38 7.05 7.87 20.07 12.26 30.89 20.71 3.55 2.78 6.54 6.25 10.27 8.79 5.19 3.54 11.51 5.09 16.86 8.39 9 5.53 14.9 15.74 24.82 19.3 3.14 1.12 6.49 1.49 9.73 2.28 4.16 1 3.39 1.46 7.33 3.13 8 3.35 2.1 8.49 5.59 10.77 1.46 1 3.57 6.57 5.54 8.24 1.51 1.29 6 6.71 7.12 6.86" style="fill:url(#a)" data-name="1"/><path d="M299.4 121.1c1.54.8 3.56 6.7 4.5 9.25.83 2.24 8.94 4.19 9 8 .14 8.52 8.39 8.3 6.47 21.89-.63 4.47-2.13 8.8-2.47 13.29-.48 6.27 1.34 12.52 1.16 18.8-.3 10.54-6.18 20.77-4.3 31.15.6 3.28 1.95 6.36 2.89 9.56a79 79 0 012.27 12.61c1.07 8.57 2.15 17.16 2.16 25.8a30.82 30.82 0 00.39 6.37c.83 3.9 3.33 7.2 5.76 10.37a23 23 0 005.65 5.77c1.86 1.16 6.57 7.46 7.9 8.61l3.35-1.73 1.82-1.25.14-199.76" style="fill:url(#b)" data-name="2"/></g></svg>