<svg xmlns="http://www.w3.org/2000/svg" xmlns:xlink="http://www.w3.org/1999/xlink" width="346.09" height="399.79" viewBox="0 0 346.09 399.79"><defs><style>.cls-1{opacity:0;}.cls-2{fill:#0a67a6;}.cls-3{fill:#57afd6;}.cls-4{fill:#80cff3;}.cls-5{fill:#f2e8c0;}.cls-6{fill:#e0b569;}.cls-7{fill:url(#linear-gradient);}.cls-8{fill:url(#linear-gradient-2);}.cls-9{fill:url(#linear-gradient-3);}.cls-10{fill:url(#linear-gradient-4);}.cls-11{fill:url(#linear-gradient-5);}.cls-12{fill:url(#linear-gradient-6);}.cls-13{fill:url(#linear-gradient-7);}</style><linearGradient id="linear-gradient" x1="340.41" y1="47.28" x2="345.51" y2="46.5" gradientTransform="matrix(1, 0, 0, -1, 0, 145.49)" gradientUnits="userSpaceOnUse"><stop offset="0.19" stop-color="#e8cf96"/><stop offset="0.31" stop-color="#e8cf96" stop-opacity="0.82"/><stop offset="0.56" stop-color="#e8cf96" stop-opacity="0.47"/><stop offset="0.77" stop-color="#e8cf96" stop-opacity="0.22"/><stop offset="0.92" stop-color="#e8cf96" stop-opacity="0.06"/><stop offset="1" stop-color="#e8cf96" stop-opacity="0"/></linearGradient><linearGradient id="linear-gradient-2" x1="260.98" y1="-203.94" x2="236.2" y2="-162.81" gradientTransform="matrix(1, 0, 0, -1, 0, 145.49)" gradientUnits="userSpaceOnUse"><stop offset="0" stop-color="#e8cf96" stop-opacity="0"/><stop offset="0.08" stop-color="#e8cf96" stop-opacity="0.06"/><stop offset="0.23" stop-color="#e8cf96" stop-opacity="0.22"/><stop offset="0.44" stop-color="#e8cf96" stop-opacity="0.47"/><stop offset="0.69" stop-color="#e8cf96" stop-opacity="0.82"/><stop offset="0.81" stop-color="#e8cf96"/></linearGradient><linearGradient id="linear-gradient-3" x1="-5501.23" y1="1751.4" x2="-5444.83" y2="1756.7" gradientTransform="translate(-5454.7 1958.7) rotate(180)" xlink:href="#linear-gradient"/><linearGradient id="linear-gradient-4" x1="-5247.33" y1="-1557.82" x2="-5272.11" y2="-1516.69" gradientTransform="matrix(-1, 0, 0, 1, -5162.29, 1608.25)" xlink:href="#linear-gradient-2"/><linearGradient id="linear-gradient-5" x1="299.48" y1="192.66" x2="355.83" y2="197.95" gradientTransform="matrix(1, 0, 0, 1, 0, 0)" xlink:href="#linear-gradient"/><linearGradient id="linear-gradient-6" x1="107.02" y1="308.87" x2="79.34" y2="363.98" gradientTransform="matrix(1, 0, 0, 1, 0, 0)" xlink:href="#linear-gradient"/><linearGradient id="linear-gradient-7" x1="-5262.21" y1="1828.9" x2="-5289.89" y2="1884" gradientTransform="translate(-5023.2 1919.81) rotate(180)" xlink:href="#linear-gradient"/></defs><title>Sea Tiles</title><g id="Layer_5" data-name="Layer 5"><g class="cls-1"><polygon class="cls-2" points="173.06 0.1 346 100.06 346 299.81 172.96 399.78 0.12 299.99 0.12 100.24 173.06 0.1"/></g><path class="cls-3" d="M173,.09l0,0L.06,99.81V299.65l.11.06V300L173,399.72l33.58-19.41c0-.32,1.46-10.18,1.43-10.5-.63-6.41-3.86-6.57-4.49-13-.48-4.89-2.56-9-4.27-13.27-6.18-15.37-25.12-16.39-36.87-26.32-3.86-3.27-7-7.54-11.06-10.46-5.71-4.07-13-5.31-19-9-10-6.23-15.63-19.2-27-22.65-3.59-1.09-2.79-1.2-6.55-1.82-4.82-.79-9.65-3.28-14.12-5s-1.64-10.45-6.13-12.37c-6.24-4.62-9.18-8.42-8-15a13.69,13.69,0,0,0,0-4.87c1.27-3.07,2.83-6.09,3.57-9.27,2.07-8.92-2.44-17.74-4.81-26.69,2.34-9.1,7-18,4.92-27.1-.77-3.31-2.43-6.45-3.73-9.66a13.56,13.56,0,0,0-.06-4.48c-1.19-6.57,1.75-10.37,8-15C83,142,80.05,133.25,84.63,131.5c1.69-.64,3.44-1.41,5.22-2.15,3.52-.5,7.17-.62,10.51-1.64a23.15,23.15,0,0,0,7.41-4c9-4.1,14.44-14.21,22.47-20.28,5.31-2.59,11.26-4,16.07-7.44a16,16,0,0,1,1.43-.91l.51-.27c3.18-1.61,5.86-1.57,9.09-4.3,5.1-4.32,9.85-3.67,17-.57,3.91,2.92,10-4,13.77-.88s8.3,6,11.39,9.72c2.42,3,2.11,2.2,4.85,4.76,5.2,4.86,12.34,6.25,19.46,7.76,5,5.54,9.83,11.24,16.81,13.37,3.59,1.09,2.79,1.2,6.55,1.81,4.82.79,9.65,3.29,14.12,5s1.64,10.45,6.13,12.37c6.25,4.62,9.18,8.41,8,15-.9,5,1.25,7.27.77,12.28-.67,7,1.92,13.94,1.67,20.94-.42,11.75-8.81,23.14-6.13,34.7.86,3.66,2.78,7.1,4.13,10.66a70.88,70.88,0,0,1,3.24,14c.35,2.17.7,4.33,1,6.5,4.16-4,11.85-5.78,12.24-13.68.25-5.05-1.64-10.65-2.12-15.66-.67-7,1.92-13.94,1.67-20.94-.42-11.75-8.81-23.14-6.12-34.7.85-3.66,2.77-7.1,4.12-10.66a71.45,71.45,0,0,0,3.25-14c1.53-9.55,3.06-19.12,3.08-28.74a27.18,27.18,0,0,1,.55-7.09c1.19-4.35,4.76-8,8.23-11.56,2.35-2.38,4-6.25,7.3-7.84,2.13-1,5.62-4.4,9.74-6.8L345.83,100v-.2L173,.08Z"/><polygon class="cls-3" points="173.23 0.01 173.09 0.09 345.94 99.81 346.07 99.8 173.23 0.01"/><path class="cls-3" d="M346,300,173.17,399.72l-33.58-19.41c0-.32-1.46-10.18-1.43-10.5.63-6.41,3.86-6.57,4.49-13,.48-4.89,2.56-9,4.27-13.27,6.18-15.37,25.12-16.39,36.87-26.32,3.86-3.27,7-7.54,11.06-10.46,5.71-4.07,13-5.31,19-9,10-6.23,15.63-19.2,27-22.65,3.59-1.09,2.79-1.2,6.55-1.82,4.82-.79,9.65-3.28,14.12-5s1.64-10.45,6.13-12.37c6.24-4.62,9.18-8.42,8-15-.9-5,1.25-7.28.77-12.29-.67-7,1.92-13.94,1.67-20.94-.43-11.74-8.81-23.14-6.13-34.7.85-3.65,2.78-7.09,4.13-10.65a70.81,70.81,0,0,0,3.24-14c1.53-9.54,3.07-19.12,3.09-28.74a26.79,26.79,0,0,1,.55-7.09c1.19-4.35,4.75-8,8.23-11.55,2.35-2.39,4-6.25,7.29-7.85,2.14-1,9.76-10,13.88-12.41l33.72,19.48Z"/><polygon class="cls-4" points="346.07 99.8 173.23 0.01 173.09 0.09 345.94 99.81 346.07 99.8"/><path class="cls-4" d="M345.83,99.82,173,.08h0l0,0L.06,99.81V299.65l24,13.87c4.12-2.41,7.61-5.77,9.75-6.81,3.27-1.59,4.94-5.45,7.3-7.84,3.47-3.53,7-7.21,8.22-11.55a26.83,26.83,0,0,0,.55-7.1c0-9.62,1.56-19.19,3.09-28.74a70.21,70.21,0,0,1,3.25-14c1.34-3.56,3.27-7,4.12-10.65,2.68-11.57-5.7-23-6.12-34.71-.26-7,2.33-14,1.66-20.93-.48-5-2.36-10.61-2.12-15.66.54-11,15.14-10.22,14.88-19.74,2.87-4,2-11.4,8.5-13.87,2.42-.92,3.73-2.78,5.18-4.43,3.71-.59,7.59-.66,11.13-1.74a23.21,23.21,0,0,0,7.4-4c9-4.1,14.45-14.2,22.47-20.28,5.31-2.58,11.26-4,16.08-7.44.25-.18.5-.38.75-.57A28.26,28.26,0,0,0,144.33,81a47.16,47.16,0,0,0,6.57-6.09c.33-.19.65-.4,1-.57,9.76-5,16.41,8,24.53,3,4.9.49,10.85-4,16.26.42,2.58,2.11,5.59,1.83,8.24,2.74.21.16.42.34.64.5.77.54,1.56,1,2.37,1.49l.16.17c2.41,2.95,4.43,6.34,7.17,8.9,5.2,4.86,12.34,6.24,19.46,7.75,5,5.54,9.83,11.25,16.8,13.37,3.59,1.09,7.53,1.14,11.29,1.75,4.82.79,5.48,5.74,9.95,7.43,6.54,2.48,5.63,9.87,8.51,13.87-.26,9.25,13.48,8.81,14.79,18.8a51.32,51.32,0,0,1-2.16,7.8c-1.35,3.56-3.27,7-4.12,10.66-2.06,8.85,2.37,17.6,4.75,26.49-2.32,9.16-7.08,18.17-5,27.29.85,3.65,2.77,7.09,4.12,10.65a51.74,51.74,0,0,1,2.37,8.9c-2.12,8.88-14.83,8.81-14.58,17.7-2.88,4-2,11.4-8.51,13.87-4.47,1.69-5.13,6.64-10,7.43-3.76.62-7.7.67-11.29,1.76-11.35,3.45-17,16.41-27,22.65-5.94,3.72-13.26,4.95-19,9-4.09,2.92-7.2,7.19-11.06,10.46C179,339.16,160,340.19,153.85,355.56c-1.72,4.26-2.21,9.22-2.69,14.12-.62,6.41-2.51,6.35-3.13,12.76,0,.33-.6,2.07-.62,2.39l25.76,14.89L346,300V100.14l-.22-.12Z"/><path class="cls-5" d="M345.83,99.82,173,.08,156.77,9.44c0,.32.9,1.57,1.53,8,.48,4.9,1,9.86,2.68,14.12,6.18,15.38,25.12,16.4,36.87,26.32,3.86,3.27,7,7.54,11.06,10.46,5.71,4.08,13,5.31,19,9,10,6.24,12.5,17.94,23.85,21.4,3.59,1.09,9.67,4.78,13.42,5.4,4.82.78,5.53,7.53,10,9.24,9,3.45,1.41,5.83,9.75,10.62.75.43,4.5,11.57,5.25,12,4.88,4,17.63,11.12,18.08,20.34.25,5-3,9.8-3.53,14.81-.67,7,1.92,13.94,1.67,20.94-.42,11.74-8.81,23.14-6.12,34.7.85,3.65,2.78,7.09,4.12,10.65a70.84,70.84,0,0,1,3.25,14.05c1.53,9.54,3.06,19.12,3.08,28.74a27.22,27.22,0,0,0,.56,7.09c1.18,4.35,4.75,8,8.22,11.55,2.35,2.39,4.78,4.83,8.06,6.42a42.1,42.1,0,0,0,5.14,2l13.16-7.6Z"/><path class="cls-5" d="M345.82,118.55a.39.39,0,0,0,.15,0v-12l-.15,0Z"/><polygon class="cls-5" points="345.97 99.82 345.97 99.81 266.62 53.99 345.97 99.82"/><polygon class="cls-5" points="173.15 0.02 173.13 0.01 172.98 0.1 172.99 0.11 173.15 0.02"/><path class="cls-4" d="M.17,300,173,399.72l25.76-14.89c0-.32-.58-2.06-.62-2.39-.62-6.41-2.51-6.35-3.13-12.76-.48-4.9-1-9.86-2.69-14.12-6.17-15.37-25.11-16.4-36.86-26.32-3.86-3.27-7-7.54-11.06-10.46-5.71-4.08-13-5.31-19-9-10-6.24-15.64-19.2-27-22.65C94.89,286,91,286,87.19,285.34c-4.82-.79-5.48-5.74-10-7.43C70.7,275.44,71.61,268,68.73,264c.27-9.52-14.33-8.76-14.87-19.73-.25-5.05,1.64-10.65,2.12-15.66.67-7-1.92-13.94-1.67-20.94.42-11.75,8.81-23.14,6.12-34.7-.85-3.66-2.77-7.1-4.12-10.66a71.45,71.45,0,0,1-3.25-14C51.53,138.76,50,129.19,50,119.57a27.18,27.18,0,0,0-.55-7.09c-1.19-4.35-4.76-8-8.23-11.56-2.35-2.38-4-6.25-7.29-7.84-2.14-1-5.63-4.4-9.75-6.8l-24,13.86Z"/><path class="cls-5" d="M.17,300,173,399.72l16.19-9.36c0-.33-.9-1.57-1.53-8-.48-4.89-1-9.86-2.68-14.12-6.18-15.37-25.12-16.39-36.87-26.32-3.86-3.26-7-7.53-11.06-10.46-5.71-4.07-13-5.3-19-9-10-6.24-12.49-17.95-23.85-21.4-3.59-1.09-9.67-4.78-13.42-5.4-4.82-.79-5.53-7.53-10-9.24-9-3.45-1.41-5.83-9.75-10.62-.75-.43-4.5-11.58-5.25-12-4.88-4-17.63-11.11-18.08-20.33-.25-5.05,3-9.8,3.53-14.81.67-7-1.92-13.94-1.67-20.94.42-11.75,8.81-23.14,6.12-34.7-.85-3.66-2.77-7.09-4.12-10.66a70.58,70.58,0,0,1-3.25-14c-1.53-9.55-3.06-19.12-3.08-28.74a26.8,26.8,0,0,0-.56-7.09c-1.18-4.35-4.75-8-8.22-11.55-2.35-2.39-4.78-4.83-8-6.43a42.66,42.66,0,0,0-5.15-2L.16,100.14Z"/><path class="cls-6" d="M.18,300l172.87,99.7,5.83-3.37s-5.49-7-5.91-9.62a25.34,25.34,0,0,0-3.62-9.25c-2.06-3.19-1.84-7.54-4.38-10.37-7.05-7.86-20.07-12.25-30.88-20.69-3.55-2.78-6.55-6.25-10.27-8.79-5.19-3.54-11.51-5.08-16.86-8.38-9-5.52-14.9-15.73-24.82-19.28-3.14-1.13-6.49-1.5-9.73-2.28-4.15-1-3.38-1.46-7.32-3.12-8-3.36-2.11-8.5-5.59-10.77-1.79-1.17-4.13-7.65-5.75-8.5-1.92-1-4.13-5.25-7-6.74-1.54-.81-3.56-6.71-4.5-9.25-.83-2.25-8.94-4.19-9-8-.14-8.52-8.39-8.29-6.48-21.88.63-4.46,2.13-8.79,2.47-13.29.47-6.26-1.35-12.51-1.17-18.79.29-10.54,6.17-20.76,4.29-31.14-.6-3.27-1.95-6.36-2.89-9.55a79,79,0,0,1-2.28-12.61C26.12,145.49,25,136.89,25,128.26a31.39,31.39,0,0,0-.39-6.36c-.83-3.9-3.33-7.21-5.77-10.37a22.88,22.88,0,0,0-5.64-5.76c-1.86-1.16-6.57-7.46-7.91-8.61L2,98.89.16,100.14Z"/><polygon class="cls-5" points="346.04 299.98 346.02 299.99 346.05 100.14 346.04 299.98"/><path class="cls-3" d="M.17,300V261.11a.56.56,0,0,1-.14.09V300l172.84,99.79.14-.08Z"/><path class="cls-3" d="M270.81,266.11A70.65,70.65,0,0,1,257,270.32c-3.76.62-7.7.67-11.29,1.76-11.35,3.46-17,16.42-27,22.66-5.94,3.73-13.26,5-19,9-4.1,2.93-7.16,2.22-11,5.48-5.1,4.32-9.86,3.67-17,.57-3.91-2.92-10,4-13.77.89s-8.3-6-11.39-9.73c-2.41-3-2.11-2.2-4.85-4.76-8.67-8.11-22.73-6.54-33.12-12-6.19-3.28-10.92-9-17.3-11.91-4.58-2.08-9.83-2.64-14.59-4.35a42.45,42.45,0,0,1-8-4,.66.66,0,0,1,0,.14c2.88,4,2,11.4,8.51,13.87,4.47,1.69,5.13,6.64,10,7.43,3.76.62,7.7.67,11.29,1.76,11.35,3.45,17,16.41,27,22.65,5.94,3.72,13.26,4.95,19,9,4.09,2.92,7.2,7.19,11.06,10.46,5.06,4.28,11.47,6.9,17.6,9.74,6.15-2.84,12.55-5.46,17.61-9.74,3.86-3.27,7-7.54,11.06-10.46,5.71-4.08,13-5.31,19-9,10-6.24,15.64-19.2,27-22.65,3.59-1.09,7.53-1.14,11.29-1.76,4.82-.79,5.48-5.74,10-7.43,6.54-2.47,5.63-9.87,8.51-13.87a4.34,4.34,0,0,1,0-.51C275.27,264.41,273,265.26,270.81,266.11Z"/><path class="cls-4" d="M.17,300V270.19a.38.38,0,0,0-.14.05V300l172.84,99.79.14-.08Z"/><path class="cls-4" d="M335.15,267.07c-3-2-7.2-1.56-10.45-2.4-4.78-1.24-9.76-2.49-14.12-1.34a27,27,0,0,0-6.41,3.07c-8.34,4.79-17.4,8.25-26.43,11.71A71.43,71.43,0,0,1,264,282.32c-3.75.62-7.7.67-11.28,1.76-11.36,3.46-17,16.42-27,22.66-5.93,3.72-13.25,5-19,9-4.1,2.93-8,7.36-12.5,9.67-9.77,5-16.42-8-24.53-3-4.9-.49-10.85,4-16.26-.42-3.71-3-8.33-1.12-11.42-4.9-2.41-2.95-4.43-6.34-7.17-8.9-8.67-8.1-22.73-6.53-33.11-12-6.19-3.28-10.92-9-17.31-11.91-4.58-2.09-9.83-2.64-14.59-4.35a45.19,45.19,0,0,1-9.13-4.72,1.73,1.73,0,0,0,.4.59c8.34,4.79.72,7.17,9.75,10.62,4.47,1.71,5.18,8.45,10,9.24,3.75.62,9.83,4.31,13.42,5.4,11.36,3.45,13.89,15.16,23.85,21.4,5.94,3.72,13.26,4.95,19,9,4.1,2.93,7.2,7.2,11.06,10.46,11.75,9.93,30.69,10.95,36.87,26.32,1.71,4.26,2.2,9.23,2.68,14.12.61,6.26,1.46,7.6,1.53,8l156.68-90.51V272.1C341.77,269.74,337.12,268.4,335.15,267.07Z"/><path class="cls-5" d="M.18,300V281.25a.46.46,0,0,0-.15,0V300l172.84,99.79.15-.09Z"/><path class="cls-5" d="M341.64,281.15c-3-2-6.35-2.92-9.59-3.76-4.79-1.25-9.76-2.5-14.12-1.35a27.27,27.27,0,0,0-6.42,3.07c-8.34,4.79-17.4,8.26-26.43,11.71A70.86,70.86,0,0,1,271.3,295c-3.76.62-7.7.67-11.29,1.76-11.35,3.46-17,16.42-27,22.67-5.94,3.71-13.26,5-19,9C210,331.41,207.5,336.63,203,339c-8.21,4.22-20.75-3.26-26.65-5.48-.74-.45-12.27,1.89-13,1.45-8.32-4.82-6.57,3-14.07-3.13-3.72-3-9.92-.25-13-4-2.41-2.95-8.65-6.36-11.39-8.92-8.67-8.11-20.08-4.45-30.46-9.95-6.19-3.28-10.92-9-17.31-11.91-4.58-2.09-9.83-2.64-14.59-4.35a38.59,38.59,0,0,1-5.62-2.6c.91,1.66,1.81,3.24,2.61,3.76,3.48,2.27-2.37,7.41,5.59,10.77,3.94,1.66,3.17,2.12,7.32,3.12,3.24.78,6.59,1.15,9.73,2.28C92.06,313.51,98,323.72,107,329.24c5.35,3.3,11.67,4.84,16.86,8.38,3.72,2.54,6.72,6,10.27,8.79,10.81,8.44,23.83,12.83,30.88,20.69,2.54,2.83,2.32,7.18,4.38,10.37a25.34,25.34,0,0,1,3.62,9.25c.41,2.57,5.71,9.36,5.89,9.6l167.05-96.5v-15.2A42.46,42.46,0,0,0,341.64,281.15Z"/><path class="cls-5" d="M189.81,351.79c7.44-4.14,11.37,3.12,22.18-5.33,3.55-2.78,6.55-6.25,10.27-8.79,5.19-3.54,11.51-5.09,16.86-8.38,9-5.53,14.89-15.74,24.81-19.3,3.14-1.12,6.49-1.49,9.73-2.28a79.09,79.09,0,0,0,12-4.33c8-3.36,15.93-6.72,23.41-11a30.39,30.39,0,0,1,5.71-2.84c3.79-1.24,7.9-.72,11.86-.2a22.63,22.63,0,0,1,7.81,2c1.94,1,9.75,1.95,11.41,2.54l.13,2.76V100.14l-13.16-7.6a42.66,42.66,0,0,0-5.15,2c-3.27,1.6-5.7,4-8.05,6.43-3.47,3.52-7,7.2-8.22,11.55a26.8,26.8,0,0,0-.56,7.09c0,9.62-1.55,19.19-3.08,28.74a70.58,70.58,0,0,1-3.25,14c-1.35,3.57-3.27,7-4.12,10.66-2.69,11.56,5.7,23,6.12,34.7.25,7-2.34,13.95-1.67,20.94.48,5,3.78,9.76,3.53,14.81-.45,9.22-13.2,16.34-18.08,20.33-.75.42-4.5,11.57-5.25,12-8.34,4.79-.71,7.17-9.75,10.62-4.47,1.71-5.18,8.45-10,9.24-3.75.62-9.83,4.31-13.42,5.4-11.35,3.45-13.89,15.16-23.85,21.4-5.94,3.72-13.26,4.95-19,9-4.1,2.93-7.2,7.2-11.06,10.46-4.24,3.58-9.41,6-14.58,8.36C185.7,351.58,188.08,352.76,189.81,351.79Z"/><polygon class="cls-5" points="345.91 299.81 173.06 399.65 173.17 399.72 346.04 299.98 346.04 298.2 345.91 299.81"/><path class="cls-6" d="M172.84,399.78,0,300v-6.73s8.82,1.25,11.29.31a25.22,25.22,0,0,1,9.82-1.49c3.8.18,7.45-2.18,11.17-1.4,10.34,2.17,20.65,11.25,33.37,16.39,4.18,1.69,8.68,2.55,12.74,4.5,5.66,2.72,10.16,7.42,15.69,10.4,9.28,5,21.07,5,29.12,11.85,2.54,2.15,4.54,4.87,6.83,7.28,2.95,3.09,3,2.2,6.37,4.78,6.88,5.21,8.41-2.43,12.12-.55,1.9,1,8.69-.25,10.24.73,1.82,1.16,6.6.95,9.34,2.69,1.47.93,7.58-.27,10.26-.73,2.36-.41,8.1,5.64,11.42,3.79,7.44-4.14,11.37,3.12,22.18-5.33,3.55-2.78,6.55-6.25,10.27-8.79,5.19-3.54,11.51-5.09,16.86-8.38,9-5.53,14.89-15.74,24.81-19.3,3.14-1.12,6.49-1.49,9.73-2.28a79.09,79.09,0,0,0,12-4.33c8-3.36,15.93-6.72,23.41-11a30.39,30.39,0,0,1,5.71-2.84c3.79-1.24,7.9-.72,11.86-.2a22.63,22.63,0,0,1,7.81,2c1.94,1,9.75,1.95,11.41,2.54l.18,3.76-.18,2.2Z"/><path class="cls-5" d="M.18,281.25a.46.46,0,0,0-.15,0v11.95l.15,0Z"/><polygon class="cls-5" points="0.03 299.98 0.03 299.99 79.38 345.81 0.03 299.98"/><polygon class="cls-5" points="172.85 399.77 172.87 399.78 173.02 399.69 173.01 399.68 172.85 399.77"/><path class="cls-6" d="M345.87,300,173,399.71l-5.83-3.37s5.49-7,5.91-9.62a25.21,25.21,0,0,1,3.63-9.25c2-3.19,1.83-7.54,4.37-10.37,7.06-7.86,20.07-12.25,30.88-20.69,3.56-2.78,6.55-6.25,10.28-8.79,5.19-3.54,11.5-5.08,16.85-8.38,9-5.52,14.9-15.73,24.82-19.28,3.14-1.13,6.49-1.5,9.73-2.28,4.15-1,3.39-1.46,7.32-3.12,8-3.36,2.11-8.5,5.59-10.77,1.79-1.17,4.13-7.65,5.76-8.5,1.91-1,4.12-5.25,7-6.74,1.54-.81,3.56-6.71,4.5-9.25.83-2.25,8.94-4.19,9-8,.14-8.52,8.38-8.29,6.47-21.88-.62-4.46-2.13-8.79-2.47-13.29-.47-6.26,1.35-12.51,1.17-18.79-.29-10.54-6.17-20.76-4.29-31.14.6-3.27,1.95-6.36,2.89-9.55a79,79,0,0,0,2.28-12.61c1.07-8.56,2.15-17.16,2.16-25.79a31.39,31.39,0,0,1,.39-6.36c.84-3.9,3.34-7.21,5.77-10.37a22.76,22.76,0,0,1,5.65-5.76c1.86-1.16,6.56-7.46,7.9-8.61l3.35,1.73,1.81,1.25Z"/><path class="cls-6" d="M345.87,99.79,173,.09l-5.83,3.37s5.49,7,5.91,9.62a25.1,25.1,0,0,0,3.63,9.24c2,3.2,1.83,7.55,4.37,10.37,7.06,7.87,20.07,12.25,30.88,20.7,3.56,2.78,6.55,6.24,10.28,8.78,5.19,3.54,11.5,5.09,16.85,8.38,9,5.53,14.9,15.73,24.82,19.29,3.14,1.12,6.49,1.49,9.73,2.28,4.15,1,3.39,1.46,7.32,3.12,8,3.35,2.11,8.49,5.59,10.77,1.79,1.16,4.13,7.65,5.76,8.49,1.91,1,4.12,5.25,7,6.75,1.54.8,3.56,6.7,4.5,9.25.83,2.24,8.94,4.19,9,8,.14,8.52,8.38,8.29,6.47,21.88-.62,4.46-2.13,8.79-2.47,13.28-.47,6.27,1.35,12.51,1.17,18.79-.29,10.54-6.17,20.77-4.29,31.14.6,3.28,1.95,6.37,2.89,9.56a78.79,78.79,0,0,1,2.28,12.61c1.07,8.56,2.15,17.15,2.16,25.79a31.44,31.44,0,0,0,.39,6.36c.84,3.9,3.34,7.2,5.77,10.37a22.76,22.76,0,0,0,5.65,5.76c1.86,1.16,6.56,7.46,7.9,8.61l3.35-1.73,1.81-1.25Z"/><line class="cls-7" x1="340.73" y1="97.16" x2="345.89" y2="100.14"/><path class="cls-8" d="M346,300h0l-36.24,20.92L172.84,399.77l-4.92-51.06c1.47.94,7.59-.27,10.26-.72,2.36-.41,8.1,5.64,11.43,3.79,7.44-4.14,11.37,3.12,22.18-5.33,3-2.32,5.53-5.1,8.46-7.44.73-.47,1.45-.94,2.12-1.4,5.19-3.54,11.5-5.09,16.86-8.38,9-5.53,14.89-15.73,24.82-19.29,3.13-1.12,6.48-1.49,9.72-2.27,4.16-1,3.39-1.47,7.33-3.13,7.95-3.35,2.1-8.49,5.59-10.77,1.78-1.16,4.13-7.65,5.75-8.49,1.91-1,4.12-5.25,7-6.75a5.86,5.86,0,0,0,1.75-2.41l24.6,13.09.69.09a22.73,22.73,0,0,1,7.82,2c1.93,1,10,2,11.67,2.57v3.64l0,1.52Z"/><polyline class="cls-5" points="346.07 99.8 173.23 0.01 173.08 0.1 345.92 99.78"/><path class="cls-5" d="M4.47,118.65c3,2,6.34,2.91,9.59,3.76,4.79,1.24,9.76,2.49,14.12,1.34a27.2,27.2,0,0,0,6.41-3.07C42.93,115.89,52,112.42,61,109a70.74,70.74,0,0,1,13.79-4.21c3.75-.62,7.7-.67,11.28-1.76,11.36-3.46,17-16.42,27-22.66,5.93-3.72,13.25-5,19-9,4.1-2.93,6.56-8.15,11.06-10.46,8.21-4.23,20.75,3.25,26.65,5.47.74.45,12.27-1.88,13-1.45,8.32,4.83,6.56-3,14.07,3.13,3.71,3,9.91.25,13,4,2.42,3,8.65,6.36,11.39,8.93,8.67,8.1,20.08,4.44,30.47,9.94,6.19,3.28,10.92,9,17.3,11.91,4.58,2.09,9.83,2.64,14.59,4.35a38.11,38.11,0,0,1,5.62,2.6c-.9-1.66-1.81-3.24-2.6-3.76-3.49-2.27,2.36-7.41-5.59-10.77-3.94-1.66-3.17-2.12-7.33-3.12-3.24-.78-6.59-1.15-9.72-2.28-9.93-3.55-15.84-13.76-24.83-19.28-5.35-3.3-11.66-4.84-16.85-8.38-3.73-2.54-6.72-6-10.27-8.79-10.81-8.44-23.83-12.82-30.89-20.69-2.53-2.83-2.32-7.17-4.37-10.37a25.1,25.1,0,0,1-3.62-9.25c-.42-2.56-5.72-9.36-5.9-9.6L.19,100v15.2A42.92,42.92,0,0,0,4.47,118.65Z"/><path class="cls-6" d="M173.27,0l172.8,99.81v6.73s-8.82-1.25-11.29-.31a25.19,25.19,0,0,1-9.82,1.49c-3.79-.18-7.44,2.18-11.16,1.4-10.34-2.17-20.65-11.25-33.37-16.39-4.18-1.68-8.68-2.54-12.75-4.5C262,85.52,257.52,80.82,252,77.84c-9.27-5-21.07-5-29.11-11.85-2.54-2.15-4.54-4.86-6.84-7.28-2.94-3.09-3-2.2-6.37-4.78-6.88-5.21-8.4,2.43-12.12.55-1.9-1-8.69.25-10.23-.73-1.83-1.16-6.61-1-9.34-2.69-1.47-.93-7.59.27-10.26.73-2.36.41-8.1-5.64-11.43-3.79-7.44,4.14-11.37-3.12-22.18,5.33-3.55,2.78-6.54,6.25-10.27,8.79-5.19,3.54-11.5,5.09-16.85,8.38C98,76,92.1,86.24,82.17,89.8c-3.13,1.12-6.48,1.49-9.72,2.28A78.33,78.33,0,0,0,60.4,96.41c-8,3.36-15.94,6.72-23.42,11a31,31,0,0,1-5.7,2.85c-3.8,1.23-7.91.71-11.86.19a22.68,22.68,0,0,1-7.82-2c-1.93-1-9.74-2-11.41-2.53L0,102.17.19,100Z"/><path class="cls-5" d="M41.52,237.44c1.35-3.56,3.28-7,4.13-10.66,2.68-11.56-5.7-22.95-6.13-34.7-.25-7,2.34-14,1.67-20.94-.48-5-3.77-9.76-3.53-14.81.46-9.22,13.2-16.34,18.08-20.33.76-.42,4.5-11.57,5.25-12,8.34-4.79.72-7.17,9.75-10.62,4.47-1.7,5.18-8.45,10-9.24,3.76-.61,9.83-4.31,13.42-5.4,11.36-3.45,13.9-15.16,23.86-21.4,5.93-3.72,13.25-5,19-9,4.1-2.93,7.2-7.2,11.07-10.46,4.23-3.58,9.4-6,14.57-8.36C160.4,48.21,158,47,156.29,48c-7.44,4.14-11.37-3.12-22.18,5.33-3.55,2.78-6.54,6.25-10.27,8.79-5.19,3.54-11.5,5.09-16.85,8.38C98,76,92.1,86.24,82.17,89.8c-3.13,1.12-6.48,1.49-9.72,2.28A78.33,78.33,0,0,0,60.4,96.41c-8,3.36-15.94,6.72-23.42,11a31,31,0,0,1-5.7,2.85c-3.8,1.23-7.91.71-11.86.19l-1.54-.21q.51.63,1,1.26c2.44,3.16,4.94,6.47,5.77,10.37a31.39,31.39,0,0,1,.39,6.36c0,8.63,1.09,17.23,2.16,25.79a79,79,0,0,0,2.28,12.61c.94,3.19,2.29,6.28,2.89,9.55,1.88,10.38-4,20.6-4.29,31.14-.18,6.28,1.64,12.53,1.17,18.79-.34,4.5-1.84,8.83-2.47,13.29-1.91,13.59,6.34,13.36,6.48,21.88,0,1.53,1.37,2.76,3,3.84.56-4.57,1.29-9.12,2-13.67A70.72,70.72,0,0,1,41.52,237.44Z"/><polygon class="cls-5" points="0.16 105.29 0.06 103.17 0.06 299.65 0.18 299.73 0.16 105.29"/><path class="cls-6" d="M.24,99.78,173.1.08l5.83,3.37s-5.49,7-5.91,9.62a25.1,25.1,0,0,1-3.62,9.25c-2.06,3.2-1.84,7.54-4.38,10.37C158,40.56,145,44.94,134.14,53.38c-3.55,2.78-6.55,6.25-10.27,8.79-5.19,3.54-11.51,5.08-16.86,8.38-9,5.52-14.89,15.73-24.82,19.28-3.14,1.13-6.49,1.5-9.72,2.28-4.16,1-3.39,1.46-7.33,3.12-8,3.36-2.1,8.5-5.59,10.77-1.78,1.17-4.13,7.65-5.75,8.5-1.92,1-4.13,5.25-7,6.75-1.54.8-3.56,6.7-4.5,9.24-.83,2.25-8.94,4.19-9,8-.14,8.52-8.39,8.3-6.48,21.88.63,4.46,2.13,8.79,2.47,13.29.47,6.26-1.35,12.51-1.17,18.79.3,10.54,6.17,20.76,4.29,31.14-.6,3.27-1.95,6.36-2.89,9.55a80.34,80.34,0,0,0-2.28,12.61c-1.07,8.57-2.14,17.16-2.16,25.79a30.69,30.69,0,0,1-.39,6.36c-.83,3.9-3.33,7.21-5.77,10.37A23.09,23.09,0,0,1,13.28,294c-1.86,1.15-6.57,7.45-7.91,8.6L2,300.9.21,299.65Z"/><path class="cls-9" d="M33.19,138.64c-.26-3.79,8.32-5.69,9-8a64.78,64.78,0,0,1,2.71-6.83L20.29,110.73l-.68-.09a22.68,22.68,0,0,1-7.82-2c-1.93-1-10-2-11.66-2.56l0,193.74,40.3-32.23c-6.78-3.53-7-5.44-7-5.44.24-4.93-3.43-8.85-3.43-8.85C27.25,249.34,27,247.6,27,247.6c.53-4.24,1.19-10.2,2.4-14.31.95-3.19,2.3-6.28,2.89-9.55,0,0,1-8.53-.67-12.29l-2.57-11.27s4.57-17.66,3.47-21c0,0-1.26-8.22-3.22-12.42,0,0-2.29-9.27-2.49-14,0,0,1.5-4.95,3.62-6.92C30.44,145.87,33.43,142.16,33.19,138.64Z"/><path class="cls-10" d="M0,99.87H0L36.24,79,173.17.08l4.92,51.06c-1.47-.93-7.58.27-10.26.73-2.36.4-8.1-5.65-11.42-3.8C149,52.21,145,45,134.23,53.41c-3,2.31-5.54,5.1-8.47,7.43-.73.48-1.44.94-2.11,1.4-5.19,3.54-11.51,5.09-16.86,8.38C97.81,76.15,91.9,86.35,82,89.91c-3.14,1.12-6.49,1.49-9.72,2.27-4.16,1-3.39,1.47-7.33,3.13-8,3.35-2.1,8.49-5.59,10.77-1.78,1.16-4.13,7.65-5.75,8.49-1.92,1-4.13,5.25-7,6.75a5.77,5.77,0,0,0-1.75,2.41L20.22,110.64l-.69-.09a22.62,22.62,0,0,1-7.81-2c-1.94-1-10-2-11.68-2.57v-3.64l0-1.52Z"/><path class="cls-11" d="M312.77,261.31c.26,3.79-8.33,5.69-9,8a66.14,66.14,0,0,1-2.7,6.84l24.6,13.08.69.09a22.74,22.74,0,0,1,7.82,2c1.93,1,10,2,11.66,2.56l0-193.74L305.61,132.2c6.79,3.54,7.16,5.6,7.16,5.6-.24,4.92,3.43,8.75,3.43,8.75,2.7,4,2.88,5.78,2.88,5.78a103.32,103.32,0,0,1-2.54,14.33c-.94,3.19-2.29,6.28-2.89,9.55,0,0-1,8.53.68,12.29l2.57,11.27s-4.57,17.66-3.47,21c0,0,1.26,8.21,3.22,12.41,0,0,2.29,9.27,2.49,14,0,0-1.5,5-3.62,6.92C315.52,254.08,312.52,257.79,312.77,261.31Z"/><path class="cls-12" d="M40.41,267.58a3.36,3.36,0,0,1,1.94,2c.26.58,2.56,6.56,2.56,6.56s1.2,2.28,2.19,2.58c0,0,1.67.7,5.48,5.71a7.86,7.86,0,0,1,2.56,2.48s3.48,6.31,4.23,6.75c0,0,2,1.07,1.33,4.28,0,0-.85,2.4,1.53,4.9a14,14,0,0,0,3.73,2.1s2.35,1.14,3.24,1.73a47.6,47.6,0,0,0,7.92,2s6.83,1.28,10,3.76a105.34,105.34,0,0,1,14.12,12.43s12.58,3.54,14.55,4.58a25.37,25.37,0,0,1,9.73,6.53s4.07,4.54,5.81,6.38c0,0,5.18,3.46,6.23,4.26,0,0,3.07,2.25,6.07.3,0,0,2.67-2.18,3.82-1.88a3.1,3.1,0,0,1,1.42.42,40.51,40.51,0,0,0,7.38.2,5,5,0,0,1,2.87.57,38.37,38.37,0,0,0,5.81,1.31s2.93.7,3,1.22l4.92,51.06-46.69-27L0,300Z"/><path class="cls-13" d="M305.61,132.2a3.36,3.36,0,0,1-1.93-2c-.26-.58-2.57-6.56-2.57-6.56s-1.2-2.29-2.19-2.58c0,0-1.67-.7-5.47-5.72a7.7,7.7,0,0,1-2.56-2.47s-3.48-6.32-4.23-6.75c0,0-2-1.07-1.34-4.29,0,0,.85-2.39-1.52-4.89a13.72,13.72,0,0,0-3.73-2.1s-2.35-1.14-3.24-1.73a47.89,47.89,0,0,0-7.92-2s-6.84-1.28-10-3.76A105.71,105.71,0,0,1,244.82,75s-12.57-3.54-14.55-4.59a25.24,25.24,0,0,1-9.72-6.53s-4.07-4.53-5.82-6.38c0,0-5.17-3.46-6.23-4.25,0,0-3.07-2.25-6.06-.3,0,0-2.67,2.18-3.82,1.88a3.1,3.1,0,0,1-1.42-.42,40.61,40.61,0,0,0-7.38-.2,5,5,0,0,1-2.88-.58,39.53,39.53,0,0,0-5.81-1.31s-2.92-.69-3-1.22L173.19,0l46.7,27L346,99.8Z"/></g></svg>