<svg xmlns="http://www.w3.org/2000/svg" xmlns:xlink="http://www.w3.org/1999/xlink" width="346.34" height="399.76" viewBox="0 0 346.34 399.76"><defs><linearGradient id="linear-gradient" x1="-1948.63" y1="-1906.71" x2="-1969.54" y2="-1942.93" gradientTransform="rotate(60 -2580.6952 982.4049)" gradientUnits="userSpaceOnUse"><stop offset=".19" stop-color="#e8cf96"/><stop offset=".31" stop-color="#e8cf96" stop-opacity=".82"/><stop offset=".56" stop-color="#e8cf96" stop-opacity=".47"/><stop offset=".77" stop-color="#e8cf96" stop-opacity=".22"/><stop offset=".92" stop-color="#e8cf96" stop-opacity=".06"/><stop offset="1" stop-color="#e8cf96" stop-opacity="0"/></linearGradient><linearGradient id="linear-gradient-2" x1="-1793.46" y1="-1943.32" x2="-1818.25" y2="-1902.18" gradientTransform="rotate(60 -2580.6952 982.4049)" gradientUnits="userSpaceOnUse"><stop offset="0" stop-color="#e8cf96" stop-opacity="0"/><stop offset=".08" stop-color="#e8cf96" stop-opacity=".06"/><stop offset=".23" stop-color="#e8cf96" stop-opacity=".22"/><stop offset=".44" stop-color="#e8cf96" stop-opacity=".47"/><stop offset=".69" stop-color="#e8cf96" stop-opacity=".82"/><stop offset=".81" stop-color="#e8cf96"/></linearGradient><linearGradient id="linear-gradient-3" x1="-1744.89" y1="-1784.13" x2="-1698.61" y2="-1791.25" xlink:href="#linear-gradient"/><style>.cls-4{fill:#57afd6}.cls-5{fill:#80cff3}.cls-6{fill:#f2e8c0}.cls-7{fill:#e0b569}</style></defs><g id="Layer_5" data-name="Layer 5"><g style="opacity:0"><path style="fill:#0a67a6" d="M2 298.75l.26-197.61L173.31 2.39l170.9 98.66-.05 197.6-171.06 98.76L2 298.75z"/><path d="M173.31 4.7l168.9 97.51V297.5L173.1 395.1 4 297.59l.25-195.29L173.31 4.7m0-4.62L.26 100 0 299.9l173.1 99.82 173.06-99.91V99.9L173.31.08z" style="fill:#3873a0"/></g><path class="cls-4" d="M280.89 258.34c2-4.49 8.89-7.4 7.76-14.3-.77-4.73 3.19-7.78 1.46-12.35-1.35-3.56-3.27-7-4.12-10.65-2.69-11.57 5.7-23 6.12-34.72.26-7-2.34-14-1.67-20.94.49-5 2.64-9.84 3.53-14.82 2.73-15.14-5.86-32.06 4.36-45.1 2.84-3.61 6.9-6.52 10.9-9.39 5.24-3.74 4.24-5.35 9.49-9.1.26-.19 1.49-1.54 1.76-1.73l25.68 14.82v-.24L173.26 0l-33.6 19.4c0 .33-1.46 10.18-1.43 10.51.62 6.41 3.86 6.57 4.49 13 .47 4.9 2.56 9 4.27 13.28 6.18 15.38 25.12 16.41 36.87 26.34 3.86 3.27 7 7.54 11.06 10.47 5.71 4.07 13 5.31 19 9 10 6.24 15.64 19.21 27 22.67 3.59 1.09 2.79 1.2 6.55 1.82 4.82.79 9.65 3.29 14.12 5s1.64 10.45 6.13 12.38c6.25 4.62 9.18 8.42 8 15-.9 5 1.25 7.27.77 12.28-.68 7 1.91 14 1.66 21-.43 11.75-8.82 23.15-6.14 34.71.85 3.66 2.78 7.1 4.12 10.66a71 71 0 013.25 14.05c.37 2.36.75 4.71 1.1 7.07z"/><path class="cls-4" d="M346.32 299.76l-.06-199.64-33.61-19.39c-.27.18-9.55 3.83-9.81 4-5.25 3.74-3.76 6.63-9 10.37-4 2.87-6.53 6.73-9.36 10.35-10.23 13-1.64 29.95-4.36 45.1-.9 5-3.05 9.8-3.53 14.81-.68 7 1.92 14 1.67 21-.43 11.75-8.82 23.15-6.13 34.71.85 3.66.35 3 1.7 6.59 1.73 4.56 2 10 2.74 14.73s-8.23 6.64-7.66 11.49c-.87 7.73-2.69 12.17-9 14.43-4.76 1.72-5.67 4.73-10.26 6.81-6.38 2.92-11.11 8.64-17.3 11.92-10.39 5.51-24.46 3.95-33.13 12.06-2.74 2.56-4.75 5.95-7.16 8.9a71 71 0 01-10.55 9.83c-7.5 6.1-15 12.22-23.35 17.05a26.6 26.6 0 00-5.87 4c-3.18 3.2-4.58 8.13-5.9 12.9-.89 3.23-3.4 6.61-3.14 10.25.16 2.37-3.8 13.46-3.82 18.22l33.74 19.47z"/><path class="cls-5" d="M346.32 299.76l-.06-199.64-25.78-14.88c-.27.19-1.5 1.54-1.76 1.73-5.25 3.75-4.25 5.36-9.49 9.1-4 2.87-8.06 5.78-10.89 9.39-10.23 13-1.64 30-4.37 45.1-.89 5-3 9.81-3.53 14.82-.67 7 1.93 13.94 1.67 20.94-.42 11.75-8.81 23.15-6.12 34.72.85 3.65 2.77 7.09 4.12 10.65 1.73 4.57-2.23 7.62-1.46 12.35 1.13 6.9-5.73 9.81-7.76 14.3-8.38 4.53-.42 16.81-9.66 22.76-4.25 2.74-10 3.9-14.63 6-6.38 2.91-11.11 8.64-17.3 11.92-10.39 5.51-24.45 3.94-33.12 12.06-2.75 2.56-4.76 5.95-7.17 8.89a71.07 71.07 0 01-10.55 9.84c-7.5 6.1-15 12.22-23.35 17.05a27.08 27.08 0 00-5.87 4c-3.17 3.2-4.58 8.13-5.89 12.9-.9 3.23-3.41 6.61-3.15 10.24.17 2.38-1 7.08-1 11.85l24 13.85z"/><path class="cls-5" d="M346.16 99.82L173.26 0l-25.78 14.88c0 .33.59 2.07.62 2.39.63 6.42 2.51 6.36 3.14 12.77.47 4.9 1 9.87 2.68 14.13 6.17 15.38 25.12 16.41 36.87 26.34 3.86 3.27 7 7.54 11.06 10.47 5.71 4.07 13 5.31 19 9 10 6.24 15.64 19.21 27 22.67 3.58 1.09 7.53 1.14 11.29 1.76 4.82.79 5.47 5.74 9.95 7.44 6.54 2.47 5.63 9.87 8.5 13.87-.26 9.53 14.34 8.78 14.88 19.75.24 5.05-1.64 10.65-2.13 15.67-.67 7 1.92 13.94 1.66 20.94-.42 11.75-8.81 23.15-6.13 34.71.85 3.66 2.78 7.1 4.12 10.66a70.84 70.84 0 013.25 14.05c1.52 9.55 3.05 19.13 3.07 28.75a27.26 27.26 0 00.55 7.1c1.19 4.35 4.76 8 8.23 11.56 2.35 2.39 4 6.25 7.29 7.85 2.14 1 5.63 4.4 9.75 6.8l24-13.86z"/><path class="cls-6" d="M346.16 99.82L173.26 0l-16.2 9.36c0 .32.91 1.57 1.53 8 .48 4.9 1 9.87 2.68 14.13 6.18 15.38 25.12 16.41 36.87 26.34 3.86 3.27 7 7.54 11.06 10.47 5.71 4.07 13 5.31 19 9 10 6.25 12.49 18 23.85 21.42 3.59 1.09 9.67 4.78 13.43 5.4 4.82.79 5.52 7.54 10 9.25 9 3.45 1.4 5.83 9.75 10.62.75.43 4.49 11.59 5.25 12 4.87 4 17.62 11.13 18.07 20.36.25 5-3 9.8-3.53 14.81-.68 7 1.92 13.94 1.66 20.94-.43 11.75-8.82 23.15-6.13 34.72.84 3.65 2.77 7.09 4.12 10.66a70.65 70.65 0 013.24 14c1.53 9.54 3.06 19.12 3.08 28.75a26.79 26.79 0 00.55 7.09c1.18 4.35 4.75 8 8.22 11.56 2.36 2.39 4.78 4.83 8.06 6.43a43.2 43.2 0 005.14 2l13.17-7.6z"/><path class="cls-6" d="M346.32 299.76l-.06-199.64-16.21-9.36c-.27.19-.91 1.58-6.15 5.33-4 2.86-8.06 5.77-10.89 9.39-10.23 13-1.64 30-4.37 45.1-.89 5-3 9.8-3.52 14.81-.68 7 1.92 13.94 1.67 21-.43 11.75-9.3 19.8-6.61 31.37.85 3.65.69 10.76 2 14.33 1.72 4.56-3.77 8.55-3 13.28 1.53 9.55-4.35 4.14-4.32 13.76 0 .86-7.79 9.68-7.77 10.55-1 6.22-.81 20.82-8.58 25.83-4.25 2.74-10 2.26-14.59 4.35-6.39 2.91-11.12 8.64-17.31 11.92-10.38 5.51-24.45 3.94-33.12 12-2.74 2.56-4.76 6-7.17 8.9a71 71 0 01-10.54 9.84c-7.51 6.1-15 12.22-23.36 17.05a27.08 27.08 0 00-5.86 4c-3.18 3.21-4.58 8.14-5.9 12.91-.89 3.23-1.79 6.55-1.53 10.19a43.23 43.23 0 00.86 5.44l13.17 7.59z"/><path class="cls-7" d="M346.34 299.74l-.1-199.63-5.83-3.37s-3.32 8.27-5.38 9.94a25.15 25.15 0 00-6.2 7.76c-1.74 3.38-5.61 5.36-6.79 9-3.29 10-.57 23.51-2.48 37.1-.63 4.47-2.14 8.8-2.47 13.3-.48 6.26 1.34 12.51 1.17 18.79-.3 10.55-6.18 20.77-4.3 31.15.6 3.28 2 6.37 2.89 9.56 1.22 4.1.43 3.67 1 7.91 1.08 8.57-6.3 6.07-6.53 10.23-.12 2.13-4.56 7.41-4.49 9.24.1 2.15-2.48 6.19-2.34 9.43.08 1.74-4 6.44-5.76 8.53-1.53 1.84.84 9.84-2.42 11.79-7.31 4.38-3 11.42-15.71 16.55-4.18 1.69-8.69 2.55-12.75 4.51-5.66 2.73-10.16 7.42-15.69 10.41-9.28 5-21.08 5-29.12 11.86-2.54 2.16-4.54 4.87-6.84 7.29a79.79 79.79 0 01-9.78 8.27 211.16 211.16 0 01-21.26 14.78 30.65 30.65 0 00-5.32 3.52c-3 2.67-4.57 6.49-6.1 10.18a23 23 0 00-2.17 7.77c-.07 2.2-3.17 9.42-3.5 11.16l3.17 2 2 .94z"/><path class="cls-7" d="M346.15 99.79L173.25 0l-5.83 3.37s5.49 7 5.91 9.62a25.1 25.1 0 003.67 9.26c2.05 3.2 1.84 7.55 4.37 10.38 7.06 7.87 20.08 12.26 30.89 20.71 3.55 2.78 6.55 6.25 10.27 8.79 5.2 3.54 11.51 5.09 16.86 8.39 9 5.53 14.9 15.74 24.83 19.3 3.14 1.12 6.49 1.5 9.72 2.28 4.16 1 3.39 1.46 7.33 3.13 8 3.35 2.1 8.49 5.59 10.77 1.79 1.17 4.13 7.66 5.75 8.5 1.92 1 4.13 5.25 7 6.75 1.54.81 3.56 6.71 4.5 9.25.83 2.25 8.94 4.2 9 8 .14 8.52 8.39 8.3 6.48 21.88-.63 4.47-2.14 8.8-2.48 13.3-.47 6.27 1.34 12.51 1.17 18.79-.3 10.55-6.19 20.77-4.31 31.15.6 3.28 1.95 6.37 2.89 9.56a79.2 79.2 0 012.28 12.61c1.07 8.57 2.14 17.17 2.16 25.8a30.78 30.78 0 00.38 6.37c.83 3.9 3.33 7.21 5.77 10.37a22.76 22.76 0 005.55 5.77c1.87 1.16 6.57 7.46 7.91 8.61l3.39-1.71 1.81-1.26z"/><path d="M299.47 121.09c-1.14-.14-5.6-5.56-7.12-6.85-2-1.67-4.08-7.29-5.54-8.24-3.49-2.28 2.37-7.42-5.59-10.77-3.94-1.67-3.17-2.13-7.33-3.13-3.23-.78-6.58-1.16-9.72-2.28-9.93-3.56-15.84-13.77-24.83-19.3-5.35-3.3-11.66-4.85-16.86-8.39-3.72-2.54-6.72-6-10.27-8.79-10.81-8.45-23.83-12.84-30.89-20.71-2.53-2.83-2.32-7.18-4.32-10.38a25.1 25.1 0 01-3.67-9.25c-.42-2.61-5.91-9.62-5.91-9.62L173.25 0l172.91 99.82z" style="fill:url(#linear-gradient)" id="_1" data-name="1"/><path class="cls-6" d="M346.32 299.76v-.01l-173.13 99.97 173.13-99.96z"/><path d="M346.32 299.75V257.9l-.16-158.08-46.69 21.27c1.55.81 3.56 6.71 4.5 9.26.83 2.24 8.94 4.19 9 8 .14 8.52 8.39 8.3 6.48 21.89-.53 3.72-1.65 7.35-2.21 11.05-.05.87-.09 1.73-.15 2.54-.48 6.26 1.34 12.51 1.17 18.79-.3 10.55-6.18 20.77-4.3 31.15.6 3.28 2 6.37 2.89 9.56 1.22 4.1.43 3.67 1 7.91 1.08 8.57-6.3 6.07-6.53 10.23-.12 2.13-4.56 7.41-4.49 9.24.1 2.15-2.48 6.19-2.34 9.43a5.92 5.92 0 01-1.21 2.73l23.65 14.77.42.55A23.09 23.09 0 00333 294c1.87 1.16 6.73 7.68 8.07 8.83l3.15-1.82 1.33-.74z" style="fill:url(#linear-gradient-2)"/><path d="M173.19 399.72L341 302.8c-1.36-1.17-6.2-7.66-8.06-8.82a22.76 22.76 0 01-5.64-5.77l-.42-.55-23.65-14.77a66.76 66.76 0 01-4.57 5.77c-1.65 1.73.84 9.84-2.42 11.79-7.31 4.38-3 11.42-15.71 16.55-4.18 1.69-8.69 2.55-12.75 4.51-5.66 2.73-10.16 7.42-15.69 10.41-9.28 5-21.08 5-29.12 11.86-2.54 2.16-4.54 4.87-6.84 7.29a79.79 79.79 0 01-9.78 8.27 211.16 211.16 0 01-21.26 14.78 30.65 30.65 0 00-5.32 3.52c-3 2.67-4.57 6.49-6.1 10.18a23 23 0 00-2.17 7.77c-.07 2.12-2.95 8.91-3.45 10.94v.25l5.17 3" style="fill:url(#linear-gradient-3)"/></g></svg>