<svg xmlns="http://www.w3.org/2000/svg" xmlns:xlink="http://www.w3.org/1999/xlink" width="346" height="399.83" viewBox="0 0 346 399.83"><defs><linearGradient id="linear-gradient" x1="-1840.19" y1="-1968.44" x2="-1861.11" y2="-2004.67" gradientTransform="matrix(.5 .87 -.87 .5 -546.42 2663.52)" gradientUnits="userSpaceOnUse"><stop offset=".19" stop-color="#e8cf96"/><stop offset=".31" stop-color="#e8cf96" stop-opacity=".82"/><stop offset=".56" stop-color="#e8cf96" stop-opacity=".47"/><stop offset=".77" stop-color="#e8cf96" stop-opacity=".22"/><stop offset=".92" stop-color="#e8cf96" stop-opacity=".06"/><stop offset="1" stop-color="#e8cf96" stop-opacity="0"/></linearGradient><linearGradient id="linear-gradient-2" x1="-1708.72" y1="-1964.26" x2="-1685.37" y2="-2004.7" xlink:href="#linear-gradient"/><linearGradient id="linear-gradient-5" x1="-3242.31" y1="3424.07" x2="-3263.22" y2="3387.85" gradientTransform="matrix(-.5 -.87 .87 -.5 -4478.08 -779.58)" xlink:href="#linear-gradient"/><linearGradient id="linear-gradient-6" x1="-3110.84" y1="3428.28" x2="-3087.49" y2="3387.84" gradientTransform="matrix(-.5 -.87 .87 -.5 -4478.08 -779.58)" xlink:href="#linear-gradient"/><style>.cls-4{fill:#57afd6}.cls-5{fill:#80cff3}.cls-6{fill:#f2e8c0}.cls-7{fill:#e0b569}.cls-8{fill:url(#linear-gradient)}.cls-9{fill:url(#linear-gradient-2)}</style></defs><g id="Layer_5" data-name="Layer 5"><g style="opacity:0"><path style="fill:#0a67a6" d="M2 298.49V100.98L172.9 2.31 344 101.16v197.51l-171 98.85L2 298.49z"/><path d="M172.9 4.62L342 102.31v195.21L173 395.2 4 297.34v-195.2L172.9 4.62m0-4.62L0 99.83v199.82l173 100.18 173-100V100L172.9 0z" style="fill:#3873a0"/></g><path class="cls-4" d="M345.86 99.75L172.91 0l-33.59 19.42c0 .33-1.46 10.18-1.43 10.51.63 6.41 3.87 6.57 4.5 13 .47 4.9 2.56 9 4.27 13.28 6.18 15.37 25.13 16.39 36.88 26.32 3.87 3.27 7 7.54 11.07 10.46 5.71 4.08 13 5.31 19 9 10 6.24 15.64 19.2 27 22.66 3.59 1.09 2.79 1.2 6.55 1.82 4.82.78 9.65 3.28 14.13 5s1.64 10.45 6.13 12.37c6.25 4.62 9.19 8.42 8 15-.89 5 1.26 7.28.78 12.29-.67 7 1.92 13.94 1.67 20.94-.42 11.75-8.81 23.15-6.12 34.72.85 3.65 2.78 7.09 4.12 10.65a71 71 0 013.25 14.05c1.53 9.55 3.07 19.13 3.09 28.75a26.84 26.84 0 00.56 7.1c1.18 4.35 4.75 8 8.23 11.55 2.35 2.39 4 6.26 7.3 7.85 2.14 1 9.76 10 13.88 12.42l33.73-19.49z"/><path class="cls-5" d="M345.86 99.75L172.91 0l-25.77 14.9c0 .33.59 2.06.62 2.39.63 6.41 2.51 6.36 3.14 12.77.48 4.89 1 9.86 2.69 14.12 6.18 15.38 25.12 16.4 36.88 26.33 3.86 3.26 7 7.54 11.06 10.46 5.72 4.07 13 5.3 19 9 10 6.25 15.64 19.21 27 22.66 3.59 1.09 7.53 1.14 11.29 1.76 4.82.79 5.48 5.74 10 7.43 6.55 2.47 5.63 9.87 8.51 13.87-.26 9.53 14.35 8.77 14.88 19.75.25 5-1.63 10.65-2.12 15.66-.67 7 1.93 13.94 1.68 20.95-.43 11.75-8.81 23.15-6.12 34.71.85 3.66 2.77 7.1 4.12 10.66a70.84 70.84 0 013.23 14.07c1.53 9.55 3.06 19.13 3.09 28.75a27.22 27.22 0 00.55 7.09c1.19 4.35 4.76 8 8.23 11.56 2.36 2.39 4 6.25 7.3 7.85 2.14 1 5.64 4.39 9.75 6.8l24-13.87z"/><path class="cls-6" d="M345.86 99.75L172.91 0l-16.2 9.36c0 .32.91 1.57 1.54 8 .48 4.89 1 9.86 2.68 14.12 6.18 15.38 25.13 16.4 36.88 26.33 3.87 3.26 7 7.53 11.07 10.46 5.71 4.07 13 5.3 19 9 10 6.24 12.5 18 23.86 21.41 3.59 1.09 9.67 4.78 13.43 5.4 4.82.78 5.53 7.53 10 9.24 9 3.45 1.41 5.83 9.76 10.62.75.43 4.5 11.58 5.25 12 4.88 4 17.63 11.12 18.09 20.34.25 5.06-3.05 9.81-3.53 14.82-.67 7 1.92 13.94 1.67 20.94-.42 11.75-8.81 23.15-6.12 34.72.85 3.65 2.78 7.09 4.13 10.65a71.71 71.71 0 013.25 14c1.53 9.55 3.06 19.13 3.08 28.76a27.22 27.22 0 00.56 7.09c1.19 4.35 4.76 8 8.23 11.55 2.35 2.39 4.78 4.83 8.06 6.43a43.2 43.2 0 005.14 2l13.17-7.6z"/><path class="cls-7" d="M345.84 99.73L172.9 0l-5.83 3.37s5.49 7 5.91 9.63a25.21 25.21 0 003.63 9.25c2 3.2 1.84 7.54 4.38 10.37 7 7.87 20.08 12.25 30.89 20.7 3.56 2.78 6.55 6.24 10.28 8.78 5.19 3.55 11.51 5.09 16.86 8.39 9 5.52 14.91 15.73 24.84 19.29 3.13 1.12 6.48 1.49 9.72 2.27 4.16 1 3.39 1.46 7.33 3.13 8 3.35 2.11 8.49 5.6 10.77 1.78 1.16 4.13 7.65 5.75 8.5 1.92 1 4.13 5.25 7 6.74 1.54.81 3.57 6.71 4.51 9.25.83 2.25 8.94 4.19 9 8 .14 8.52 8.39 8.29 6.48 21.88-.62 4.47-2.13 8.79-2.47 13.29-.47 6.27 1.35 12.51 1.18 18.8-.3 10.54-6.18 20.77-4.29 31.15.6 3.28 1.95 6.36 2.89 9.56a79 79 0 012.28 12.61c1.08 8.57 2.15 17.16 2.17 25.8a30.69 30.69 0 00.39 6.36c.83 3.91 3.33 7.21 5.77 10.37a22.63 22.63 0 005.65 5.77c1.86 1.16 6.57 7.46 7.91 8.61l3.34-1.73 1.82-1.25z"/><path class="cls-8" d="M345.85 99.75L172.9 0l-5.83 3.37s5.49 7 5.91 9.63a25.21 25.21 0 003.63 9.25c2 3.2 1.84 7.54 4.38 10.37 7 7.87 20.08 12.25 30.89 20.7 3.56 2.78 6.55 6.24 10.28 8.78 5.19 3.55 11.51 5.09 16.86 8.39 9 5.52 14.91 15.73 24.84 19.28 3.13 1.13 6.48 1.5 9.72 2.28 4.16 1 3.39 1.46 7.33 3.13 8 3.35 2.11 8.49 5.6 10.77 1.46 1 3.57 6.56 5.54 8.23 1.51 1.29 6 6.71 7.12 6.86" id="_1" data-name="1"/><path class="cls-9" d="M299.17 121.05c1.55.8 3.57 6.7 4.51 9.25.83 2.24 8.94 4.19 9 8 .14 8.52 8.39 8.29 6.48 21.88-.62 4.47-2.13 8.8-2.47 13.3-.47 6.27 1.35 12.51 1.18 18.79-.3 10.55-6.18 20.78-4.29 31.15.6 3.28 1.95 6.37 2.89 9.57a78.87 78.87 0 012.28 12.6c1.08 8.57 2.15 17.17 2.17 25.8a30.78 30.78 0 00.39 6.37c.83 3.9 3.33 7.21 5.77 10.37a22.76 22.76 0 005.65 5.76c1.86 1.16 6.57 7.46 7.91 8.61l3.34-1.73 1.82-1.25.06-199.76" id="_2" data-name="2"/><path class="cls-4" d="M345.86 99.75L172.91 0l-33.59 19.42c0 .33-1.46 10.18-1.43 10.51.63 6.41 3.87 6.57 4.5 13 .47 4.9 2.56 9 4.27 13.28 6.18 15.37 25.13 16.39 36.88 26.32 3.87 3.27 7 7.54 11.07 10.46 5.71 4.08 13 5.31 19 9 10 6.24 15.64 19.2 27 22.66 3.59 1.09 2.79 1.2 6.55 1.82 4.82.78 9.65 3.28 14.13 5s1.64 10.45 6.13 12.37c6.25 4.62 9.19 8.42 8 15-.89 5 1.26 7.28.78 12.29-.67 7 1.92 13.94 1.67 20.94-.42 11.75-8.81 23.15-6.12 34.72.85 3.65 2.78 7.09 4.12 10.65a71 71 0 013.25 14.05c1.53 9.55 3.07 19.13 3.09 28.75a26.84 26.84 0 00.56 7.1c1.18 4.35 4.75 8 8.23 11.55 2.35 2.39 4 6.26 7.3 7.85 2.14 1 9.76 10 13.88 12.42l33.73-19.49z"/><path class="cls-5" d="M345.86 99.75L172.91 0l-25.77 14.9c0 .33.59 2.06.62 2.39.63 6.41 2.51 6.36 3.14 12.77.48 4.89 1 9.86 2.69 14.12 6.18 15.38 25.12 16.4 36.88 26.33 3.86 3.26 7 7.54 11.06 10.46 5.72 4.07 13 5.3 19 9 10 6.25 15.64 19.21 27 22.66 3.59 1.09 7.53 1.14 11.29 1.76 4.82.79 5.48 5.74 10 7.43 6.55 2.47 5.63 9.87 8.51 13.87-.26 9.53 14.35 8.77 14.88 19.75.25 5-1.63 10.65-2.12 15.66-.67 7 1.93 13.94 1.68 20.95-.43 11.75-8.81 23.15-6.12 34.71.85 3.66 2.77 7.1 4.12 10.66a70.84 70.84 0 013.23 14.07c1.53 9.55 3.06 19.13 3.09 28.75a27.22 27.22 0 00.55 7.09c1.19 4.35 4.76 8 8.23 11.56 2.36 2.39 4 6.25 7.3 7.85 2.14 1 5.64 4.39 9.75 6.8l24-13.87z"/><path class="cls-6" d="M345.86 99.75L172.91 0l-16.2 9.36c0 .32.91 1.57 1.54 8 .48 4.89 1 9.86 2.68 14.12 6.18 15.38 25.13 16.4 36.88 26.33 3.87 3.26 7 7.53 11.07 10.46 5.71 4.07 13 5.3 19 9 10 6.24 12.5 18 23.86 21.41 3.59 1.09 9.67 4.78 13.43 5.4 4.82.78 5.53 7.53 10 9.24 9 3.45 1.41 5.83 9.76 10.62.75.43 4.5 11.58 5.25 12 4.88 4 17.63 11.12 18.09 20.34.25 5.06-3.05 9.81-3.53 14.82-.67 7 1.92 13.94 1.67 20.94-.42 11.75-8.81 23.15-6.12 34.72.85 3.65 2.78 7.09 4.13 10.65a71.71 71.71 0 013.25 14c1.53 9.55 3.06 19.13 3.08 28.76a27.22 27.22 0 00.56 7.09c1.19 4.35 4.76 8 8.23 11.55 2.35 2.39 4.78 4.83 8.06 6.43a43.2 43.2 0 005.14 2l13.17-7.6z"/><path class="cls-7" d="M345.84 99.73L172.9 0l-5.83 3.37s5.49 7 5.91 9.63a25.21 25.21 0 003.63 9.25c2 3.2 1.84 7.54 4.38 10.37 7 7.87 20.08 12.25 30.89 20.7 3.56 2.78 6.55 6.24 10.28 8.78 5.19 3.55 11.51 5.09 16.86 8.39 9 5.52 14.91 15.73 24.84 19.29 3.13 1.12 6.48 1.49 9.72 2.27 4.16 1 3.39 1.46 7.33 3.13 8 3.35 2.11 8.49 5.6 10.77 1.78 1.16 4.13 7.65 5.75 8.5 1.92 1 4.13 5.25 7 6.74 1.54.81 3.57 6.71 4.51 9.25.83 2.25 8.94 4.19 9 8 .14 8.52 8.39 8.29 6.48 21.88-.62 4.47-2.13 8.79-2.47 13.29-.47 6.27 1.35 12.51 1.18 18.8-.3 10.54-6.18 20.77-4.29 31.15.6 3.28 1.95 6.36 2.89 9.56a79 79 0 012.28 12.61c1.08 8.57 2.15 17.16 2.17 25.8a30.69 30.69 0 00.39 6.36c.83 3.91 3.33 7.21 5.77 10.37a22.63 22.63 0 005.65 5.77c1.86 1.16 6.57 7.46 7.91 8.61l3.34-1.73 1.82-1.25z"/><path class="cls-8" d="M345.85 99.75L172.9 0l-5.83 3.37s5.49 7 5.91 9.63a25.21 25.21 0 003.63 9.25c2 3.2 1.84 7.54 4.38 10.37 7 7.87 20.08 12.25 30.89 20.7 3.56 2.78 6.55 6.24 10.28 8.78 5.19 3.55 11.51 5.09 16.86 8.39 9 5.52 14.91 15.73 24.84 19.28 3.13 1.13 6.48 1.5 9.72 2.28 4.16 1 3.39 1.46 7.33 3.13 8 3.35 2.11 8.49 5.6 10.77 1.46 1 3.57 6.56 5.54 8.23 1.51 1.29 6 6.71 7.12 6.86" id="_1-2" data-name="1"/><path class="cls-9" d="M299.17 121.05c1.55.8 3.57 6.7 4.51 9.25.83 2.24 8.94 4.19 9 8 .14 8.52 8.39 8.29 6.48 21.88-.62 4.47-2.13 8.8-2.47 13.3-.47 6.27 1.35 12.51 1.18 18.79-.3 10.55-6.18 20.78-4.29 31.15.6 3.28 1.95 6.37 2.89 9.57a78.87 78.87 0 012.28 12.6c1.08 8.57 2.15 17.17 2.17 25.8a30.78 30.78 0 00.39 6.37c.83 3.9 3.33 7.21 5.77 10.37a22.76 22.76 0 005.65 5.76c1.86 1.16 6.57 7.46 7.91 8.61l3.34-1.73 1.82-1.25.06-199.76" id="_2-2" data-name="2"/><path class="cls-4" d="M.1 299.72l173 99.75 33.59-19.42c0-.32 1.46-10.18 1.43-10.51-.63-6.41-3.87-6.56-4.5-13-.47-4.89-2.56-9-4.27-13.27-6.18-15.38-25.13-16.4-36.88-26.33-3.87-3.26-7-7.54-11.07-10.46-5.71-4.07-13-5.3-19-9-10-6.24-15.64-19.21-27-22.66-3.59-1.09-2.79-1.21-6.55-1.82-4.82-.79-9.65-3.29-14.13-5s-1.64-10.44-6.13-12.37c-6.25-4.62-9.19-8.42-8-15 .89-5-1.26-7.28-.78-12.29.67-7-1.92-13.95-1.67-20.95.42-11.75 8.81-23.15 6.12-34.71-.85-3.66-2.78-7.1-4.12-10.66A70.84 70.84 0 0166.86 148c-1.54-9.55-3.07-19.13-3.09-28.75a26.8 26.8 0 00-.56-7.09c-1.18-4.35-4.75-8-8.23-11.56-2.35-2.39-4-6.25-7.3-7.85-2.14-1-9.76-10-13.88-12.42L.07 99.81z"/><path class="cls-5" d="M.1 299.72l173 99.75 25.77-14.9c0-.32-.59-2.06-.62-2.39-.63-6.41-2.51-6.35-3.14-12.76-.48-4.9-1-9.87-2.69-14.13-6.18-15.38-25.12-16.39-36.88-26.33-3.86-3.26-7-7.53-11.06-10.46-5.72-4.07-13-5.3-19-9-10-6.24-15.64-19.21-27-22.66-3.59-1.09-7.53-1.14-11.29-1.75-4.82-.79-5.48-5.74-10-7.44-6.55-2.47-5.63-9.87-8.51-13.87C69 254.23 54.34 255 53.81 244c-.25-5.05 1.63-10.66 2.12-15.67.67-7-1.93-13.94-1.68-20.94.43-11.75 8.81-23.15 6.12-34.72-.85-3.67-2.77-7.07-4.12-10.67A71 71 0 0153 148c-1.53-9.55-3.07-19.13-3.09-28.75a27.26 27.26 0 00-.55-7.1c-1.19-4.35-4.76-8-8.23-11.55-2.36-2.39-4-6.26-7.3-7.85-2.14-1-5.64-4.4-9.75-6.8L.07 99.81z"/><path class="cls-6" d="M.1 299.72l173 99.75 16.2-9.36c0-.33-.91-1.58-1.54-8-.48-4.9-1-9.87-2.68-14.13-6.19-15.37-25.13-16.39-36.88-26.32-3.87-3.27-7-7.54-11.07-10.46-5.71-4.08-13-5.31-19-9-10-6.24-12.5-17.95-23.86-21.4-3.59-1.1-9.67-4.79-13.43-5.4-4.82-.79-5.53-7.54-10-9.25-9-3.45-1.41-5.83-9.76-10.62-.75-.43-4.5-11.58-5.25-12-4.88-4-17.63-11.11-18.09-20.34-.25-5 3-9.8 3.53-14.81.67-7-1.92-14-1.67-21 .42-11.75 8.81-23.15 6.12-34.71-.85-3.66-2.78-7.1-4.13-10.66a71.55 71.55 0 01-3.25-14c-1.53-9.55-3.06-19.13-3.08-28.75a27.22 27.22 0 00-.56-7.09c-1.19-4.35-4.76-8-8.23-11.56-2.35-2.39-4.78-4.83-8.06-6.42a43.38 43.38 0 00-5.14-2L.07 99.81z"/><path class="cls-7" d="M.12 299.75l172.94 99.71 5.83-3.37s-5.49-7-5.91-9.63a25.17 25.17 0 00-3.63-9.24c-2-3.2-1.84-7.55-4.38-10.38-7.05-7.87-20.08-12.25-30.89-20.69-3.56-2.78-6.55-6.25-10.28-8.79-5.19-3.54-11.51-5.09-16.86-8.38C98 323.45 92 313.24 82.1 309.69c-3.13-1.12-6.48-1.5-9.72-2.28-4.16-1-3.39-1.46-7.33-3.12-8-3.36-2.11-8.5-5.6-10.78-1.78-1.16-4.13-7.65-5.75-8.49-1.92-1-4.13-5.25-7-6.75-1.54-.8-3.57-6.7-4.51-9.25-.83-2.25-8.94-4.19-9-8-.14-8.52-8.39-8.3-6.48-21.88.62-4.47 2.13-8.8 2.47-13.3.47-6.27-1.35-12.51-1.18-18.79.3-10.55 6.18-20.78 4.29-31.15-.6-3.28-1.95-6.37-2.89-9.57a78.87 78.87 0 01-2.28-12.6C26 145.17 25 136.57 25 127.94a30.78 30.78 0 00-.39-6.37c-.83-3.9-3.33-7.21-5.77-10.37a23 23 0 00-5.65-5.77c-1.86-1.16-6.57-7.46-7.91-8.6l-3.39 1.72-1.82 1.26z"/><path d="M.11 299.72l173 99.74 5.83-3.37s-5.49-7-5.91-9.63a25.17 25.17 0 00-3.63-9.24c-2-3.2-1.84-7.55-4.38-10.38-7.05-7.87-20.08-12.25-30.89-20.69-3.56-2.78-6.55-6.25-10.28-8.79-5.19-3.54-11.51-5.09-16.86-8.38C98 323.45 92 313.25 82.1 309.69c-3.13-1.12-6.48-1.5-9.72-2.28-4.16-1-3.39-1.46-7.33-3.12-8-3.35-2.11-8.5-5.6-10.78-1.46-.95-3.57-6.56-5.54-8.23-1.51-1.29-6-6.71-7.12-6.85" style="fill:url(#linear-gradient-5)" id="_1-3" data-name="1"/><path d="M46.79 278.43c-1.55-.81-3.57-6.71-4.51-9.25-.83-2.25-8.94-4.19-9-8-.14-8.52-8.39-8.29-6.48-21.88.62-4.47 2.13-8.8 2.46-13.29.48-6.27-1.34-12.51-1.17-18.8.3-10.54 6.18-20.77 4.29-31.15-.6-3.28-2-6.37-2.89-9.56a79 79 0 01-2.28-12.61c-1.08-8.57-2.15-17.16-2.17-25.8a30.69 30.69 0 00-.39-6.36c-.83-3.91-3.33-7.21-5.77-10.37a22.63 22.63 0 00-5.65-5.77c-1.86-1.16-6.57-7.46-7.91-8.61L2 98.71.16 100 .1 299.72" style="fill:url(#linear-gradient-6)" id="_2-3" data-name="2"/></g></svg>