<svg xmlns="http://www.w3.org/2000/svg" width="142.453" height="142.453"><path fill="#5BEFB6" d="M123.937 142.419H23.023c-9.585 0-21.863-7.771-21.863-17.357l1.126-102.04c0-9.585 10.024-17.355 19.609-17.355L123.937 1.16c9.584 0 17.355 12.278 17.355 21.863v102.04c0 9.585-7.771 17.356-17.355 17.356z"/><radialGradient id="a" cx="165.5356" cy="-155.9565" r="65.5603" gradientTransform="matrix(1 0 0 -1 -96 -87.5479)" gradientUnits="userSpaceOnUse"><stop offset="0" stop-color="#e4faf5"/><stop offset=".1826" stop-color="#dbfaf2"/><stop offset=".4803" stop-color="#c3fcea"/><stop offset=".8541" stop-color="#9bfedc"/><stop offset="1" stop-color="#8affd6"/></radialGradient><path fill="url(#a)" d="M18.517 133.968c-8.018 0-14.542-6.523-14.542-14.539V17.389c0-8.018 6.522-14.541 14.542-14.541h102.038c8.019 0 14.542 6.522 14.542 14.541v102.04c0 8.016-6.522 14.539-14.542 14.539H18.517z"/><path fill="#F6FFFF" d="M120.554 5.664c6.467 0 11.728 5.26 11.728 11.725v102.04c0 6.463-5.261 11.725-11.728 11.725H18.517c-6.466 0-11.726-5.262-11.726-11.725V17.389c0-6.465 5.26-11.725 11.726-11.725h102.037m0-5.63H18.517c-9.585 0-17.356 7.77-17.356 17.355v102.04c0 9.584 7.77 17.355 17.356 17.355h102.038c9.587 0 17.357-7.771 17.357-17.355V17.389c0-9.585-7.771-17.355-17.358-17.355z"/></svg>