<svg xmlns="http://www.w3.org/2000/svg" width="142.453" height="142.453"><linearGradient id="a" gradientUnits="userSpaceOnUse" x1="167.2261" y1="-88.9243" x2="167.2261" y2="-229.7471" gradientTransform="matrix(1 0 0 -1 -96 -87.5479)"><stop offset="0" stop-color="#9ed1ee"/><stop offset=".2109" stop-color="#99c8e6"/><stop offset=".5547" stop-color="#8bb0d1"/><stop offset=".9866" stop-color="#7588ae"/><stop offset="1" stop-color="#7487ad"/></linearGradient><path fill="url(#a)" d="M123.773 142.199H23.172c-9.556 0-21.795-7.746-21.795-17.305L2.5 23.172c0-9.556 9.993-17.303 19.549-17.303l101.725-4.493c9.555 0 17.303 12.24 17.303 21.796v101.722c-.001 9.559-7.749 17.305-17.304 17.305z"/><g><linearGradient id="b" gradientUnits="userSpaceOnUse" x1="165.5405" y1="-90.6079" x2="165.5404" y2="-221.3213" gradientTransform="matrix(1 0 0 -1 -96 -87.5479)"><stop offset="0" stop-color="#36a9ad"/><stop offset=".2584" stop-color="#5ab8c5"/><stop offset=".5828" stop-color="#82c9df"/><stop offset=".8414" stop-color="#9ad3ef"/><stop offset="1" stop-color="#a3d7f5"/></linearGradient><path fill="url(#b)" d="M18.68 133.773c-7.993 0-14.496-6.502-14.496-14.492V17.555c0-7.992 6.502-14.495 14.496-14.495h101.724c7.992 0 14.494 6.503 14.494 14.495v101.726c0 7.99-6.502 14.492-14.494 14.492H18.68z"/><path fill="#F6FFFF" d="M120.404 5.867c6.445 0 11.688 5.244 11.688 11.688v101.726c0 6.443-5.242 11.686-11.688 11.686H18.68c-6.446 0-11.69-5.242-11.69-11.686V17.555c0-6.444 5.244-11.688 11.69-11.688h101.724m0-5.613H18.68C9.125.254 1.377 8 1.377 17.555v101.726c0 9.555 7.746 17.299 17.303 17.299h101.724c9.555 0 17.301-7.744 17.301-17.299V17.555C137.705 8 129.958.254 120.404.254z"/></g></svg>