<svg xmlns="http://www.w3.org/2000/svg" width="200" height="200"><radialGradient id="a" cx="272.9961" cy="509.6953" r="93.2798" gradientTransform="translate(-158.945 -382.2459) scale(.9434)" gradientUnits="userSpaceOnUse"><stop offset=".2973" stop-color="#f6ffff"/><stop offset="1" stop-color="#cceffe"/></radialGradient><path d="M29.5 186.5c-10.4 0-18.9-8.5-18.9-18.9V29.5c0-10.4 8.5-18.9 18.9-18.9h138.2c10.399 0 18.899 8.5 18.899 18.9v138.2c0 10.399-8.5 18.899-18.899 18.899H29.5v-.099z" fill="url(#a)"/><path d="M167.7 12.7c9.3 0 16.899 7.6 16.899 16.9v138.2c0 9.3-7.601 16.9-16.899 16.9H29.5c-9.3 0-16.9-7.601-16.9-16.9V29.5c0-9.3 7.6-16.9 16.9-16.9h138.2m0-3.9H29.5C18 8.7 8.6 18.1 8.6 29.6v138.2c0 11.5 9.4 20.9 20.9 20.9h138.2c11.5 0 20.899-9.4 20.899-20.9V29.5C188.5 18.1 179.2 8.7 167.7 8.7z" fill="#9cbbd0"/><path d="M167.7 8.7c11.5 0 20.899 9.4 20.899 20.9v138.2c0 11.5-9.399 20.9-20.899 20.9H29.5c-11.5 0-20.9-9.4-20.9-20.9V29.5C8.6 18 18 8.6 29.5 8.6h138.2m0-3.9H29.5C15.8 4.7 4.7 15.8 4.7 29.5v138.2c0 13.7 11.1 24.899 24.9 24.899h138.2c13.7 0 24.9-11.199 24.9-24.899V29.5c-.2-13.7-11.3-24.8-25-24.8z" fill="#223948"/><path d="M152.2 62.5c-10.7 0-19.3-8.7-19.3-19.3 0-10.6 8.699-19.3 19.3-19.3 10.6 0 19.3 8.7 19.3 19.3 0 10.6-8.6 19.3-19.3 19.3z" fill="#7290a7"/><path d="M152.2 24.6c10.3 0 18.6 8.3 18.6 18.6s-8.3 18.6-18.6 18.6-18.6-8.3-18.6-18.6 8.4-18.6 18.6-18.6m0-1.5c-11.101 0-20.101 9-20.101 20.1 0 11.1 9 20.1 20.101 20.1 11.1 0 20.1-9 20.1-20.1 0-11.1-9-20.1-20.1-20.1z" fill="#223948"/><path d="M167.9 33.3c.898 1.4 1.1 2.1 1.199 2.3.399.6-9.5-13.3-24.199-4.1-13.602 8.5-7.301 23.2-7 23.7.1.1-.4-.4-1.5-2-5.5-8.7-2.9-20.2 5.8-25.7 8.8-5.5 20.3-2.9 25.7 5.8z" fill="#4f6a7f"/><g><path d="M41.4 174.1c-10.7 0-19.3-8.699-19.3-19.3 0-10.6 8.7-19.3 19.3-19.3s19.3 8.7 19.3 19.3c0 10.6-8.6 19.3-19.3 19.3z" fill="#7290a7"/><path d="M41.4 136.2c10.3 0 18.6 8.3 18.6 18.6s-8.3 18.6-18.6 18.6-18.6-8.301-18.6-18.602c0-10.299 8.3-18.598 18.6-18.598m0-1.5c-11.1 0-20.1 9-20.1 20.1 0 11.101 9 20.101 20.1 20.101s20.1-9 20.1-20.101c0-11.1-9-20.1-20.1-20.1z" fill="#223948"/></g><g><path d="M57.1 144.8c.9 1.4 1.1 2.101 1.2 2.3.4.602-9.5-13.3-24.2-4.1-13.6 8.5-7.3 23.2-7 23.7.1.1-.4-.4-1.5-2-5.5-8.7-2.9-20.2 5.8-25.7s20.2-2.9 25.7 5.8z" fill="#4f6a7f"/></g><g><path d="M98.6 117.9c-10.7 0-19.3-8.7-19.3-19.3S88 79.3 98.6 79.3s19.3 8.7 19.3 19.3-8.6 19.3-19.3 19.3z" fill="#7290a7"/><path d="M98.6 80c10.3 0 18.6 8.3 18.6 18.6s-8.3 18.6-18.6 18.6S80 108.9 80 98.6 88.3 80 98.6 80m0-1.5c-11.1 0-20.1 9-20.1 20.1s9 20.1 20.1 20.1 20.1-9 20.1-20.1-9-20.1-20.1-20.1z" fill="#223948"/></g><g><path d="M114.3 88.7c.9 1.4 1.101 2.1 1.2 2.3.4.6-9.5-13.3-24.2-4.1-13.6 8.5-7.3 23.2-7 23.7.1.102-.4-.398-1.5-2-5.5-8.7-2.9-20.2 5.8-25.7s20.2-2.9 25.7 5.8z" fill="#4f6a7f"/></g></svg>