<svg xmlns="http://www.w3.org/2000/svg" width="200" height="200"><radialGradient id="a" cx="244.0137" cy="509.6953" r="93.2798" gradientTransform="translate(-131.6027 -382.2459) scale(.9434)" gradientUnits="userSpaceOnUse"><stop offset=".2973" stop-color="#f6ffff"/><stop offset="1" stop-color="#cceffe"/></radialGradient><path d="M29.5 186.5c-10.4 0-18.9-8.5-18.9-18.9V29.5c0-10.4 8.5-18.9 18.9-18.9h138.2c10.399 0 18.899 8.5 18.899 18.9v138.2c0 10.399-8.5 18.899-18.899 18.899L29.5 186.5z" fill="url(#a)"/><path d="M167.7 12.7c9.3 0 16.899 7.6 16.899 16.9v138.2c0 9.3-7.6 16.9-16.899 16.9H29.5c-9.3 0-16.9-7.601-16.9-16.9V29.5c0-9.3 7.6-16.9 16.9-16.9h138.2m0-3.9H29.5C18 8.7 8.6 18.1 8.6 29.6v138.2c0 11.5 9.4 20.9 20.9 20.9h138.2c11.5 0 20.899-9.4 20.899-20.9V29.5C188.5 18.1 179.2 8.7 167.7 8.7z" fill="#9cbbd0"/><path d="M167.7 8.7c11.5 0 20.899 9.4 20.899 20.9v138.2c0 11.5-9.399 20.9-20.899 20.9H29.5c-11.5 0-20.9-9.4-20.9-20.9V29.5C8.6 18 18 8.6 29.5 8.6h138.2m0-3.9H29.5C15.8 4.7 4.7 15.8 4.7 29.5v138.2c0 13.7 11.2 24.899 24.9 24.899h138.2c13.7 0 24.9-11.199 24.9-24.899V29.5c-.2-13.7-11.3-24.8-25-24.8z" fill="#223948"/><g><path d="M98.6 119.3c-10.7 0-19.3-8.7-19.3-19.3 0-10.6 8.7-19.3 19.3-19.3s19.3 8.7 19.3 19.3c0 10.6-8.6 19.3-19.3 19.3z" fill="#7290a7"/><path d="M98.6 81.4c10.3 0 18.6 8.3 18.6 18.6s-8.3 18.6-18.6 18.6S80 110.3 80 100s8.3-18.6 18.6-18.6m0-1.5c-11.1 0-20.1 9-20.1 20.1 0 11.1 9 20.1 20.1 20.1s20.1-9 20.1-20.1c0-11.1-9-20.1-20.1-20.1z" fill="#223948"/></g><g><path d="M114.3 90.1c.9 1.4 1.101 2.1 1.2 2.3.5.6-9.5-13.4-24.1-4.2-13.6 8.5-7.3 23.2-7 23.7.1.1-.4-.4-1.5-2-5.5-8.7-2.9-20.2 5.8-25.7s20.1-2.8 25.6 5.9z" fill="#4f6a7f"/></g></svg>