<svg xmlns="http://www.w3.org/2000/svg" width="128" height="128"><linearGradient id="a" gradientUnits="userSpaceOnUse" x1="195.215" y1="-206.538" x2="133.335" y2="-99.358" gradientTransform="matrix(1 0 0 -1 -96 -102)"><stop offset="0" stop-color="#fecb4e"/><stop offset=".139" stop-color="#f9c13f"/><stop offset=".342" stop-color="#f5b731"/><stop offset=".589" stop-color="#f2b229"/><stop offset="1" stop-color="#f1b026"/></linearGradient><path fill="url(#a)" d="M64.668 118.818c-.354 0-.711-.006-1.067-.017-18.727-.532-34.263-15.587-35.368-34.27-.715-12.089 4.461-23.524 13.912-30.931L20.569 9.989a2.713 2.713 0 01.128-2.649 2.714 2.714 0 012.319-1.29l18.474.172a3.739 3.739 0 013.284 2.008l16.145 30.797h5.931L82.955 8.301a3.875 3.875 0 013.404-2.08l18.127-.169c1.027 0 1.94.508 2.47 1.359a2.86 2.86 0 01.136 2.793L86.049 52.742c9.499 6.866 15.118 17.794 15.118 29.576 0 9.75-3.797 18.916-10.688 25.81-6.895 6.894-16.06 10.69-25.808 10.69h-.003z"/><path fill="#4A2F01" d="M23.017 8.05h.007l9.249.086 9.2.086a1.745 1.745 0 011.531.937l16.705 31.869h8.35l16.67-31.799a1.882 1.882 0 011.649-1.009l9.118-.085 9.009-.083h.009a.877.877 0 01.786 1.266L83.488 53.409c9.438 6.155 15.679 16.801 15.679 28.909 0 19.055-15.444 34.5-34.5 34.5-.335 0-.672-.004-1.009-.014-17.714-.507-32.382-14.699-33.429-32.39-.737-12.454 5.141-23.58 14.446-30.208L22.363 9.104a.73.73 0 01.654-1.054m0-4a4.705 4.705 0 00-4.018 2.235 4.698 4.698 0 00-.221 4.592l20.868 42.186c-9.164 7.819-14.132 19.39-13.41 31.589 1.166 19.709 17.554 35.588 37.308 36.15.376.012.75.018 1.123.018 21.229 0 38.5-17.271 38.5-38.5a38.373 38.373 0 00-14.592-30.173l20.31-41.055a4.842 4.842 0 00-.229-4.735 4.848 4.848 0 00-4.143-2.304l-9.056.084-9.117.084a5.879 5.879 0 00-5.156 3.151L65.641 37.027h-3.512L46.546 7.301a5.733 5.733 0 00-5.037-3.079l-9.199-.085-9.249-.086-.019-.001h-.025z"/><path fill="#D7A119" d="M59.819 53.516L83.73 7.899a2.18 2.18 0 011.918-1.172l19.15-.179a2.186 2.186 0 011.981 3.158l-26.643 53.86-20.317-10.05z"/><path fill="#4A2F01" d="M104.82 8.05c.509 0 .842.534.615.991L79.457 61.557 61.86 52.853 85.061 8.596a.685.685 0 01.602-.368l19.152-.178h.005m0-3H104.793l-19.16.178c-1.36.013-2.6.771-3.231 1.976L59.203 51.459l-1.426 2.721 2.753 1.361 17.597 8.705 2.688 1.33 1.332-2.688 25.979-52.517a3.667 3.667 0 00-.173-3.58 3.668 3.668 0 00-3.133-1.741z"/><path fill="#B08219" d="M70.659 57.205L95.496 8.137l10.436-.098-26.475 53.519z"/><path fill="#D7A119" d="M20.987 9.706a2.172 2.172 0 01.102-2.123 2.177 2.177 0 011.859-1.034l19.172.179a2.18 2.18 0 011.916 1.17l23.912 45.618-20.317 10.05-26.644-53.86z"/><path fill="#4A2F01" d="M22.948 8.05h.006l19.152.178a.69.69 0 01.603.368l23.199 44.257-17.597 8.704L22.332 9.041a.687.687 0 01.616-.991m0-3a3.668 3.668 0 00-3.133 1.741 3.667 3.667 0 00-.172 3.58l25.979 52.517 1.33 2.688 2.689-1.33 17.597-8.705 2.753-1.361-1.427-2.721L45.366 7.203a3.684 3.684 0 00-3.23-1.976L22.982 5.05h-.034z"/><path fill="#B08219" d="M57.109 57.205L32.272 8.137l-10.435-.098 26.475 53.519z"/><linearGradient id="b" gradientUnits="userSpaceOnUse" x1="135.224" y1="-158.875" x2="186.111" y2="-209.762" gradientTransform="matrix(1 0 0 -1 -96 -102)"><stop offset="0" stop-color="#fecb4e"/><stop offset=".139" stop-color="#f9c13f"/><stop offset=".342" stop-color="#f5b731"/><stop offset=".589" stop-color="#f2b229"/><stop offset="1" stop-color="#f1b026"/></linearGradient><path fill="url(#b)" d="M64.667 118.318c-19.851 0-36-16.149-36-36 0-16.694 11.58-31.234 27.708-35.036v-5.089a2.67 2.67 0 012.667-2.666h11.25a2.67 2.67 0 012.666 2.666v5.089c16.129 3.802 27.709 18.342 27.709 35.036 0 19.851-16.149 36-36 36z"/><path fill="#4A2F01" d="M70.292 41.027c.646 0 1.167.522 1.167 1.166v6.298C87.26 51.646 99.167 65.59 99.167 82.318c0 19.055-15.446 34.5-34.5 34.5-19.054 0-34.5-15.445-34.5-34.5 0-16.729 11.907-30.672 27.708-33.827v-6.298c0-.644.522-1.166 1.167-1.166h11.25m0-3h-11.25a4.171 4.171 0 00-4.167 4.166v3.921C38.68 50.483 27.167 65.33 27.167 82.318c0 20.678 16.822 37.5 37.5 37.5 20.679 0 37.5-16.822 37.5-37.5 0-16.988-11.513-31.835-27.708-36.204v-3.921a4.171 4.171 0 00-4.167-4.166z"/><linearGradient id="c" gradientUnits="userSpaceOnUse" x1="144.919" y1="-157.377" x2="176.413" y2="-211.926" gradientTransform="matrix(1 0 0 -1 -96 -102)"><stop offset="0" stop-color="#fecb4e"/><stop offset=".139" stop-color="#f9c13f"/><stop offset=".342" stop-color="#f5b731"/><stop offset=".589" stop-color="#f2b229"/><stop offset="1" stop-color="#f1b026"/></linearGradient><path fill="url(#c)" d="M64.667 114.152c-17.369 0-31.5-14.131-31.5-31.5s14.131-31.5 31.5-31.5 31.5 14.131 31.5 31.5-14.131 31.5-31.5 31.5z"/><path fill="#683007" d="M64.667 51.652c17.121 0 31 13.879 31 31s-13.879 31-31 31-31-13.879-31-31 13.879-31 31-31m0-1c-17.645 0-32 14.355-32 32s14.355 32 32 32c17.646 0 32-14.355 32-32s-14.355-32-32-32z"/><path fill="#FEFF6C" d="M66.834 45.09h-7.042a.814.814 0 01-.812-.812v-1.709c0-.446.365-.812.812-.812h7.042c.445 0 .812.366.812.812v1.709a.815.815 0 01-.812.812zM55.409 51.121s-1.209.222-5.169 1.912c-4.318 1.843-10.084 7.557-10.084 7.557s-.583.233-.878-.154c-.416-.549.346-1.052.346-1.052s5.034-5.219 10.072-7.583c3.751-1.76 5.42-1.926 5.42-1.926.453-.053.688.203.768.464.08.261.005.682-.475.782z"/><linearGradient id="d" gradientUnits="userSpaceOnUse" x1="173.628" y1="-207.1" x2="147.707" y2="-162.203" gradientTransform="matrix(1 0 0 -1 -96 -102)"><stop offset="0" stop-color="#c77a25"/><stop offset=".302" stop-color="#d78f25"/><stop offset=".734" stop-color="#eaa726"/><stop offset="1" stop-color="#f1b026"/></linearGradient><circle fill="url(#d)" cx="64.667" cy="82.652" r="25.917"/><g><g opacity=".2"><path d="M77.396 101.965c-.304 0-.608-.074-.883-.22l-11.306-6.788-11.256 6.761a1.935 1.935 0 01-.932.247 1.897 1.897 0 01-1.869-2.22l2.168-12.642-8.743-9.645c-.476-.461-.659-1.206-.435-1.896a1.888 1.888 0 011.53-1.291l.072-.011h12.116l5.632-12.513c.338-.685.989-1.089 1.716-1.089.729 0 1.379.404 1.701 1.057l5.646 12.545h13.031l.072.011c.72.104 1.307.601 1.529 1.293.226.69.041 1.436-.479 1.941l-9.633 9.678 2.188 12.562a1.886 1.886 0 01-.416 1.54c-.359.433-.888.68-1.449.68z"/><path d="M65.209 61.659c.32 0 .641.167.805.5l5.676 12.612a.897.897 0 00.677.489h13.151a.897.897 0 01.496 1.529l-9.644 9.688a.898.898 0 00-.259.793l2.168 12.643a.897.897 0 01-1.299.946l-11.354-6.818a.898.898 0 00-.834 0l-11.354 6.818a.895.895 0 01-1.301-.946l2.168-12.643a.892.892 0 00-.258-.793l-8.728-9.688a.897.897 0 01.497-1.529h12.236a.898.898 0 00.675-.489l5.677-12.612a.89.89 0 01.805-.5m0-2a2.88 2.88 0 00-2.597 1.614l-.017.032-.015.032-5.366 11.924H45.672l-.143.021a2.875 2.875 0 00-2.339 1.971 2.88 2.88 0 00.675 2.911l8.378 9.3-2.078 12.112a2.896 2.896 0 004.204 3.054l.05-.026.049-.029 10.741-6.451 10.741 6.451.049.029.051.026a2.893 2.893 0 003.567-.7c.549-.65.78-1.51.637-2.354l-2.073-12.08 9.252-9.294c.773-.754 1.055-1.892.711-2.948s-1.238-1.812-2.338-1.971l-.144-.021H73.204l-5.367-11.924-.015-.032-.016-.032a2.88 2.88 0 00-2.597-1.615z"/></g><linearGradient id="e" gradientUnits="userSpaceOnUse" x1="139.046" y1="-182.312" x2="182.282" y2="-182.312" gradientTransform="matrix(1 0 0 -1 -96 -102)"><stop offset="0" stop-color="#fecb4e"/><stop offset=".139" stop-color="#f9c13f"/><stop offset=".342" stop-color="#f5b731"/><stop offset=".589" stop-color="#f2b229"/><stop offset="1" stop-color="#f1b026"/></linearGradient><path fill="url(#e)" d="M76.396 100.965c-.304 0-.608-.074-.883-.22l-11.306-6.788-11.256 6.761a1.935 1.935 0 01-.932.247 1.897 1.897 0 01-1.869-2.22l2.168-12.642-8.743-9.645c-.476-.461-.659-1.206-.435-1.896a1.888 1.888 0 011.53-1.291l.072-.011h12.116l5.632-12.513c.338-.685.989-1.089 1.716-1.089.729 0 1.379.404 1.701 1.057l5.646 12.545h13.031l.072.011c.72.104 1.307.601 1.529 1.293.226.69.041 1.436-.479 1.941l-9.633 9.678 2.188 12.562a1.886 1.886 0 01-.416 1.54c-.359.433-.888.68-1.449.68z"/><path fill="#683007" d="M64.209 60.659c.32 0 .641.167.805.5l5.676 12.612a.897.897 0 00.677.489h13.151a.897.897 0 01.496 1.529l-9.644 9.688a.898.898 0 00-.259.793l2.168 12.643a.897.897 0 01-1.299.946l-11.354-6.818a.9.9 0 00-.417-.104.868.868 0 00-.417.104l-11.354 6.818a.895.895 0 01-1.301-.946l2.168-12.643a.892.892 0 00-.258-.793l-8.728-9.688a.897.897 0 01.497-1.529h12.236a.898.898 0 00.675-.489l5.677-12.612a.89.89 0 01.805-.5m0-2a2.88 2.88 0 00-2.597 1.614l-.017.032-.015.032-5.366 11.924H44.672l-.143.021a2.875 2.875 0 00-2.339 1.971 2.88 2.88 0 00.675 2.911l8.378 9.3-2.078 12.112a2.896 2.896 0 004.204 3.054l.05-.026.049-.029 10.741-6.451 10.741 6.451.049.029.051.026a2.893 2.893 0 003.567-.7c.549-.65.78-1.51.637-2.354l-2.073-12.08 9.252-9.294c.773-.754 1.055-1.892.711-2.948s-1.238-1.812-2.338-1.971l-.144-.021H72.204l-5.367-11.924-.015-.032-.016-.032a2.88 2.88 0 00-2.597-1.615z"/></g><linearGradient id="f" gradientUnits="userSpaceOnUse" x1="160.667" y1="-201.964" x2="160.667" y2="-162.66" gradientTransform="matrix(1 0 0 -1 -96 -102)"><stop offset="0" stop-color="#9f5a25"/><stop offset=".031" stop-color="#a56125"/><stop offset=".183" stop-color="#c17d25"/><stop offset=".347" stop-color="#d69426"/><stop offset=".524" stop-color="#e5a426"/><stop offset=".725" stop-color="#eead26"/><stop offset="1" stop-color="#f1b026"/></linearGradient><path fill="url(#f)" d="M65.014 61.159l5.676 12.612a.897.897 0 00.677.489h13.151a.897.897 0 01.496 1.529l-9.644 9.688a.898.898 0 00-.259.793l2.168 12.643a.895.895 0 01-1.299.945L64.626 93.04a.892.892 0 00-.834 0l-11.354 6.819a.896.896 0 01-1.301-.944l2.168-12.644a.894.894 0 00-.258-.793l-8.728-9.688a.897.897 0 01.497-1.529h12.236a.895.895 0 00.675-.49l5.677-12.611a.898.898 0 011.61-.001z"/><g><linearGradient id="g" gradientUnits="userSpaceOnUse" x1="158.956" y1="-164.999" x2="158.956" y2="-200.305" gradientTransform="matrix(1 0 0 -1 -96 -102)"><stop offset="0" stop-color="#feff6c" stop-opacity=".7"/><stop offset="1" stop-color="#feff6c" stop-opacity="0"/></linearGradient><path fill="url(#g)" d="M63.536 62.999l9.854 35.306c-.262-.138-9.076-5.539-9.336-5.4l-7.17 4.287-4.361-22.254s5.383.201 5.514-.062l5.499-11.877z"/></g></svg>