<svg xmlns="http://www.w3.org/2000/svg" width="139.7" height="139.7"><style>.st72{fill:#004405}</style><g id="Hard_shadow"><path id="_x39__2_" d="M117.2 133.4H23.9a17 17 0 01-17-16.9V23.2A17 17 0 0124 6.3h93.3A17 17 0 01134 23.2v93.3a17 17 0 01-17 17z" opacity=".5"/></g><g id="_x23__cartoony"><g id="_x39_"><path d="M112.3 129.3H19a17 17 0 01-16.9-17V19A17 17 0 0119 2.2h93.3a17 17 0 0117 16.8v93.4a17 17 0 01-17 16.9z" fill="#eae9e4"/><path class="st72" d="M39.3 98.8c4.4-.2 7 5.8 3.7 8.8-3 3.3-9.2.8-8.9-3.6a5 5 0 015.2-5.2zM57 98.8c4.3-.2 7 5.8 3.6 8.8-3 3.3-9.2.8-8.9-3.6a5 5 0 015.2-5.2zM74.5 98.8c4.3-.2 7 5.8 3.7 8.8-3 3.3-9.2.8-8.9-3.6a5 5 0 015.2-5.2zM92.1 98.8c4.3-.2 7 5.8 3.7 8.8-3 3.3-9.2.8-8.9-3.6a5 5 0 015.2-5.2z"/></g><path class="st72" d="M89.4 54.3a54.8 54.8 0 01-2.7 16.6c-1 2.7-2.2 5.2-3.6 7.5A23.2 23.2 0 0162.4 90a52.1 52.1 0 01-9-.9c-1.5-.3-3-.7-4.4-1.3-1.5-.5-2.8-1.2-4-2L47.4 69c1 .6 2 1 3.1 1.5a26.6 26.6 0 007.1 2l3.5.3c1.7 0 3.1-.2 4.4-.7a8.6 8.6 0 003.1-2c1-1 1.6-2 2.1-3.4.6-1.2 1-2.7 1.2-4.2a24.9 24.9 0 01-11.4 2.9c-2.5 0-4.9-.4-7-1.2a16.2 16.2 0 01-9.8-8.5c-1.1-2-1.6-4.3-1.6-7a22.7 22.7 0 016.8-16.3c2.1-2 4.6-3.5 7.5-4.7 2.9-1 6-1.6 9.3-1.6a21.2 21.2 0 0118 8.4c2 2.5 3.4 5.5 4.3 8.9 1 3.4 1.5 7 1.5 10.8zm-18.2-6.4c0-.9-.2-1.7-.6-2.4a6.3 6.3 0 00-3.7-3 7.5 7.5 0 00-4.7 0l-2 1.1c-.6.5-1.1 1.1-1.5 1.8-.4.7-.5 1.5-.5 2.3 0 .9.2 1.6.5 2.3s1 1.3 1.6 1.8a7 7 0 008.9 0c.6-.4 1-1 1.4-1.6.4-.7.6-1.5.6-2.3z" id="_x23_"/></g></svg>