<svg xmlns="http://www.w3.org/2000/svg" width="139.68" height="139.68"><style>.st53{opacity:.8}.st65{display:inline}.st72{fill:#004405}</style><g id="Hard_shadow"><path id="_x32__2_" d="M117.2 133.4H23.88C14.6 133.4 7 125.83 7 116.55V23.2c0-9.28 7.6-16.87 16.87-16.87h93.34c9.27 0 16.87 7.6 16.87 16.87v93.34c0 9.28-7.6 16.87-16.87 16.87z" opacity=".5"/></g><g id="_x23__cartoony"><g id="_x32_"><path d="M112.34 129.25H19c-9.28 0-16.87-7.59-16.87-16.87V19.05C2.13 9.77 9.73 2.18 19 2.18h93.34c9.28 0 16.87 7.59 16.87 16.87v93.33c0 9.28-7.6 16.87-16.87 16.87z" fill="#eae9e4"/><path class="st72" d="M66.2 98.28c4.35-.21 7.04 5.86 3.66 8.83-2.9 3.24-9.18.76-8.83-3.66 0-2.97 2.2-5.17 5.17-5.17z"/></g><path class="st72" d="M87.2 48.76c0 2.34-.42 4.57-1.27 6.7a26.18 26.18 0 01-3.36 5.97 34.24 34.24 0 01-4.75 5.15 58.48 58.48 0 01-5.38 4.24h13.89L85.27 89.1l-41.13-1.4v-16a62.7 62.7 0 004.9-1.92c1.71-.74 3.4-1.6 5.05-2.57a37.37 37.37 0 004.7-3.25 25.37 25.37 0 003.91-3.93c1.13-1.42 2.02-2.97 2.68-4.64s1-3.47 1-5.4c0-1.12-.2-2.1-.6-2.95a5.95 5.95 0 00-1.65-2.13c-.7-.57-1.51-1-2.44-1.27s-1.9-.42-2.96-.42c-.88 0-1.77.1-2.68.28-.91.2-1.8.47-2.68.82s-1.71.78-2.49 1.3a12.1 12.1 0 00-2.08 1.73l-3.87-17.23c1.08-1.08 2.33-1.99 3.73-2.72 1.41-.74 2.89-1.33 4.44-1.78 1.55-.46 3.14-.79 4.75-1 1.6-.2 3.2-.3 4.74-.3 3.46 0 6.68.62 9.67 1.87s5.59 2.96 7.8 5.14a24.47 24.47 0 017.14 17.43z" id="_x23_"/></g></svg>