<svg xmlns="http://www.w3.org/2000/svg" width="139.7" height="139.7"><style>.st53{opacity:.8}.st65{display:inline}.st72{fill:#004405}</style><g id="Hard_shadow"><path id="_x33__2_" d="M117.2 133.4H24A17 17 0 017 116.5V23.2A17 17 0 0123.9 6.3h93.3a17 17 0 0116.9 16.9v93.3a17 17 0 01-16.9 17z" opacity=".5"/></g><g id="_x23__cartoony"><g id="_x33_"><path d="M112.3 129.3H19a17 17 0 01-16.9-17V19A17 17 0 0119 2.2h93.3a17 17 0 0117 16.8v93.4a17 17 0 01-17 16.9z" fill="#eae9e4"/><path class="st72" d="M57 98.8c4.3-.2 7 5.8 3.6 8.8-3 3.3-9.2.8-8.9-3.6a5 5 0 015.2-5.2zM74.5 98.8c4.3-.2 7 5.8 3.7 8.8-3 3.3-9.2.8-8.9-3.6a5 5 0 015.2-5.2z"/></g><path class="st72" d="M88.3 68.2c0 3.9-.7 7.3-2 10.1-1.2 2.9-2.9 5.3-5.1 7.1a21.7 21.7 0 01-8 4.3 35.4 35.4 0 01-30.1-4.9l1.7-17.7a31.9 31.9 0 008 4 33 33 0 008.8 1.8c.8 0 1.7 0 2.6-.2.8 0 1.6-.3 2.3-.7s1.3-.8 1.7-1.5c.5-.6.7-1.4.7-2.5 0-.6-.3-1.2-.9-1.8-.5-.5-1.2-1-2-1.4a13.2 13.2 0 00-4.8-1.3 19 19 0 00-5 .7c-.5.1-.9.3-1.2.6l.3-12.6a27.4 27.4 0 002.8.2l3.4-.3c1.3-.2 2.3-.5 3.3-1s1.9-1.2 2.6-2c.7-.9 1-2 1-3.3 0-1-.3-1.8-.8-2.4-.5-.6-1.2-1-2-1.3a10 10 0 00-2.5-.7A19.4 19.4 0 0047.6 46l-3.7-16c2.7-2.2 5.7-4 9.2-5s6.9-1.8 10.4-1.8c3.2 0 6.2.4 9.1 1.4 3 .9 5.5 2.3 7.7 4a19.2 19.2 0 017 18.9 16.2 16.2 0 01-5.2 7.9c1.2.5 2.2 1.3 3 2.2.8 1 1.5 2 2 3.1s.7 2.4.9 3.6l.3 3.8z" id="_x23_"/></g></svg>