<svg xmlns="http://www.w3.org/2000/svg" width="139.7" height="139.7"><style>.st72{fill:#004405}</style><g id="Hard_shadow"><path id="_x31_2_2_" d="M117.2 133.4H23.9a17 17 0 01-17-16.9V23.2A17 17 0 0124 6.3h93.3A17 17 0 01134 23.2v93.3a17 17 0 01-17 17z" opacity=".5"/></g><g id="_x23__cartoony"><g id="_x31_2"><path d="M112.3 129.3H19a17 17 0 01-16.9-17V19A17 17 0 0119 2.2h93.3a17 17 0 0117 16.8v93.4a17 17 0 01-17 16.9z" fill="#eae9e4"/><path class="st72" d="M65.7 98.8c4.4-.2 7 5.8 3.7 8.8-3 3.3-9.2.8-8.9-3.6a5 5 0 015.2-5.2z"/></g><g id="_x23_"><path class="st72" d="M58.4 27l-2.6 62.5-19.1-.9 1-41.6-7 4.9-6.6-15L38.4 26l20 .9zM104.6 48.8c0 2.3-.4 4.6-1.2 6.7-.9 2.1-2 4.1-3.4 6-1.4 1.8-3 3.5-4.7 5.1-1.8 1.6-3.6 3-5.4 4.3h13.9l-1 18.2-41.2-1.4v-16a62.5 62.5 0 0010-4.4A37.4 37.4 0 0080 60c1.2-1.5 2-3 2.7-4.7s1-3.4 1-5.4c0-1-.2-2-.6-3a6 6 0 00-1.6-2c-.7-.6-1.5-1-2.5-1.3s-1.9-.4-3-.4a13.2 13.2 0 00-5.3 1 13.8 13.8 0 00-4.6 3l-3.8-17.1c1-1.1 2.3-2 3.7-2.8a24.4 24.4 0 019.2-2.7l4.7-.3a24.9 24.9 0 0117.5 7 24 24 0 017.1 17.4z"/></g></g></svg>