<svg xmlns="http://www.w3.org/2000/svg" width="130" height="130"><linearGradient id="a" gradientUnits="userSpaceOnUse" x1="65.029" y1="92.58" x2="65.029" y2="37.438"><stop offset="0" stop-color="#fcee21"/><stop offset=".148" stop-color="#fce921"/><stop offset=".315" stop-color="#fbdc21"/><stop offset=".491" stop-color="#f9c522"/><stop offset=".674" stop-color="#f7a622"/><stop offset=".86" stop-color="#f47d23"/><stop offset="1" stop-color="#f15a24"/></linearGradient><path d="M19.125 37.5c-5.438.25-6.375 4.625-6.375 4.625L5.5 77.313c-.125 2.063 1.063 4.875 1.063 4.875s1.938 3.938 3.813 7.375 5.5 3 5.5 3 96.188 0 99.063-.063 4.375-2.313 4.375-2.313 2.938-5.813 3.75-7.438 1.313-3.25 1.5-4.125-7.375-36.563-7.375-36.563-1.344-4.5-6.438-4.625l-91.626.064z" fill="url(#a)" stroke="#000" stroke-width="5" stroke-linejoin="round" stroke-miterlimit="10"/><linearGradient id="b" gradientUnits="userSpaceOnUse" x1="64.977" y1="76.408" x2="64.977" y2="91.125"><stop offset="0" stop-color="#fffbf2"/><stop offset=".222" stop-color="#faf8f0"/><stop offset=".472" stop-color="#edefe8"/><stop offset=".736" stop-color="#d6e0dc"/><stop offset="1" stop-color="#b8cccc"/></linearGradient><path d="M16.749 91.084l-.444.005c-1.6 0-3.4-.147-4.526-1.905-.401-.628-3.835-6.963-4.32-9.002-.281-1.179.089-1.97.449-2.426.946-1.198 2.727-1.299 4.468-1.299l43.278-.034c.068-.01.137-.015.206-.015l9.118.008 9.116-.008c.07 0 .141.005.21.015l43.275.034c1.74 0 3.521.101 4.467 1.299.36.456.73 1.247.449 2.426-.485 2.039-3.919 8.374-4.32 9.002-1.126 1.758-2.927 1.905-4.526 1.905l-.476-.005-47.506.041-48.918-.041z" fill="url(#b)"/><path d="M74.094 77.908v.015l43.484.034c1.968 0 3.875.127 3.458 1.877s-3.732 7.928-4.125 8.541c-.616.963-1.518 1.214-3.263 1.214-.143 0-.291-.002-.445-.005l-47.537.041-48.916-.041c-.154.003-.303.005-.445.005-1.745 0-2.646-.251-3.263-1.214-.393-.613-3.708-6.791-4.125-8.541s1.49-1.877 3.458-1.877l43.484-.034v-.015l9.117.008 9.118-.008m0-3h-.003l-9.117.008-9.111-.008h-.003c-.1 0-.199.005-.299.015l-43.188.034c-1.558 0-4.167 0-5.644 1.87-.799 1.012-1.059 2.326-.73 3.702.563 2.363 4.201 8.97 4.517 9.463 1.662 2.597 4.449 2.597 5.789 2.597.152 0 .31-.002.474-.005l48.885.041 47.512-.041c.164.003.322.005.474.005 1.34 0 4.127 0 5.789-2.597.315-.493 3.954-7.1 4.517-9.463.328-1.376.068-2.69-.73-3.702-1.477-1.87-4.086-1.87-5.646-1.87l-43.189-.034c-.1-.01-.199-.015-.297-.015z" fill="#6bb2b0"/><g><linearGradient id="c" gradientUnits="userSpaceOnUse" x1="65" y1="82.103" x2="65" y2="38.982"><stop offset="0" stop-color="#fffbf2"/><stop offset=".222" stop-color="#faf8f0"/><stop offset=".472" stop-color="#edefe8"/><stop offset=".736" stop-color="#d6e0dc"/><stop offset="1" stop-color="#b8cccc"/></linearGradient><path d="M10.992 82.104c-2.752 0-3.984-2.08-3.984-4.141 0-.101.01-.2.03-.299l7.143-35.132c.473-2.134 2.576-3.55 5.238-3.55h91.102c2.507 0 4.241 1.099 5.154 3.267.038.091.067.186.087.282l7.024 34.39c.382.966.229 2.221-.415 3.271-.744 1.215-1.989 1.911-3.417 1.911H10.992z" fill="url(#c)"/><path d="M110.521 40.482c2.097 0 3.167.913 3.771 2.349l7.057 34.546c.497.976-.299 3.227-2.395 3.227H10.992c-2.096 0-2.484-1.658-2.484-2.641l7.143-35.132c.289-1.303 1.672-2.349 3.769-2.349h91.101m0-3H19.419c-3.382 0-6.073 1.889-6.697 4.699l-.011.052-7.143 35.132c-.04.196-.061.396-.061.598 0 3.321 2.255 5.641 5.484 5.641h107.962c1.961 0 3.673-.958 4.696-2.627.854-1.396 1.064-3.09.584-4.464l-7.003-34.282a2.986 2.986 0 00-.175-.563c-1.151-2.738-3.411-4.186-6.534-4.186z" fill="#6bb2b0"/></g></svg>