<svg xmlns="http://www.w3.org/2000/svg" width="132" height="132"><path d="M65.131 20.063s4.25 4.313 15 18.563c7.815 10.359 8.605 11.193 9.563 14.063 1.125 3.375.25 5.875.25 5.875l20.469 5.344s2.344.531 2.219 2.906-2 2.844-2 2.844.188.094.438.406.281.5.281.5l2.188-1.844s1.018-.9 2.469-.563c1.344.313 1.75 1.188 1.75 1.188s.52-.336 1.094-1.031c.594-.719 1.701-1.362 2.813-1.156 0 0 1.594.156 2.313 1.875l1.875 5s2.031 4.594 2.031 5.844l-6.959 24.251s-.249 1.749-1.541 2.333-1.584.458-2.084.375-4.75-1.166-4.75-1.166l-7.999 9.291-82.333.208-5.368-15.7 2.469-4-4.375-1.875L8.35 74.156l2.111-1.249.107-.063s-1.271.323-1.896.198-2.458-1.167-3-1.875-1.583-1.875-1.25-4.125c.114-.772.495-1.429.75-2 .489-1.095.916-1.792.917-1.792 0 0 .833-1.291 1.958-1.333s1.749.208 1.749.208-.582-3.084-.082-4 .5-.916.916-1.166 1.166-.543 1.166-.543-1.5-1.041-1.041-3.125c.459-2.082 2.25-2.207 2.25-2.207l5.041-1.043s-.709-2.49.334-4c.912-1.318 2.348-1.291 3.625-1.082.941.152 1.917.375 1.917.375s-.167-1.521 1.354-2.604c.593-.422 1.295-.455 1.875-.563.907-.167 1.583-.25 1.583-.25l-2.958-3.583s-1.167-1.542-.125-3.167c1.041-1.625 2.416-1.667 3.291-1.417s2.229.938 2.229.938-.666-3.104-.707-4.104c-.042-1 .229-2.313 1.563-3.084 0 0 10.797-3.537 14.854-4.833 6-1.917 12.791-3.625 12.791-3.625s2.293-.583 3.209-.333 1.333.541 2.25 1.354z" fill="none" stroke="#000" stroke-width="5" stroke-miterlimit="10"/><path fill="#b25900" d="M10.035 75.091l4.572-10.376 14.157-7.352 14.633-.799zM69.855 96.202l46.342.427-14.529-13.214-28.948 4.902z"/><linearGradient id="a" gradientUnits="userSpaceOnUse" x1="64.421" y1="53.613" x2="64.421" y2="113.686"><stop offset="0" stop-color="#d1ebff"/><stop offset=".189" stop-color="#cce8fe"/><stop offset=".399" stop-color="#bfdffc"/><stop offset=".618" stop-color="#a9d1f9"/><stop offset=".843" stop-color="#8abcf5"/><stop offset="1" stop-color="#70abf1"/></linearGradient><path d="M24.311 113.686a1.499 1.499 0 01-1.421-1.021l-4.162-12.349a1.501 1.501 0 01.147-1.271l2.649-4.269-4.803-2.009a1.5 1.5 0 01-.843-.905l-5.342-15.854a1.5 1.5 0 01.646-1.763l33.826-20.417a1.497 1.497 0 011.561.006l32.528 19.994c.605.373.867 1.347.626 2.015L72.893 95h43.993c.585 0 1.116.113 1.361.645.246.531.16 1.042-.22 1.487l-13.681 16.004c-.284.334-.701.499-1.14.499l-78.895.051z" fill="url(#a)"/><path d="M45.783 55.113l32.528 19.971L70.757 96h46.129l-13.681 16.084-78.895.09-4.162-12.343 3.578-5.762-6.428-2.686-5.342-15.854 33.827-20.416m0-3c-.537 0-1.073.144-1.55.432L10.407 72.962a2.998 2.998 0 00-1.292 3.526l5.342 15.854c.275.817.89 1.477 1.686 1.81l3.179 1.329-1.722 2.774a3 3 0 00-.294 2.54l4.162 12.256c.411 1.221 1.555 1.949 2.843 1.949h.003l78.895.014c.878-.001 1.712-.34 2.281-1.008l13.681-16.038A3.018 3.018 0 00116.886 93H75.028l6.105-16.896a2.986 2.986 0 00-1.251-3.563L47.354 52.552a2.99 2.99 0 00-1.571-.439z" fill="#0071bc"/><path d="M88.135 103h-6.68l4.371-10h6.683zM97.361 103h-6.68l4.373-10h6.68z"/><path d="M117.854 105.911c-.123 0-.247-.015-.372-.047-48.616-12.4-49.466-13.118-49.785-13.389-1.258-1.067-1.419-1.204 12.595-24.283l1.052-1.514 2.285-6.317a1.5 1.5 0 011.789-.941l24.642 6.437a1.5 1.5 0 01.024 2.895c-1.488.627-2.967 1.478-4.377 2.335.022-.003.157-.017.202-.018.047-.012.096-.021.143-.027l.479-.07c.208-.031.405-.062.586-.084.287-.034.562-.074.836-.118a1.436 1.436 0 01.473 0l.42.067a1.5 1.5 0 011.16 2.026l-.157.402a63.045 63.045 0 00-.661 1.736c.409-.322.824-.704 1.267-1.164l.104-.101a139.67 139.67 0 013.858-3.296 1.491 1.491 0 011.518-.23c.51.209.865.68.924 1.228l.146 1.35.234-.262c.857-.86 1.65-1.668 2.444-2.477l.459-.467a1.496 1.496 0 011.384-.415c.503.108.915.466 1.092.948l3.531 9.591c.11.299.122.624.035.93l-6.891 24.185a1.495 1.495 0 01-1.439 1.09z" fill="#d1ebff"/><path d="M85.039 60.871l24.642 6.437c-.026.007-.053.011-.081.021-1.847.766-3.627 1.83-5.331 2.88-.706.436-1.644 1.574-.535 2.158.373.196.831.263 1.313.263.299 0 .605-.025.907-.062a.674.674 0 00.295-.038l.007-.002c.378-.052.739-.113 1.05-.152.296-.035.591-.078.885-.125l.42.067c-.314.807-.635 1.607-.919 2.421-.143.316-1.462 4.7-1.462 4.7s1.646-1.417 1.674-1.473c.07-.024 2.04-1.654 2.062-1.668a13.633 13.633 0 001.572-1.421l.032-.03a141.714 141.714 0 013.801-3.247l.122 1.131.021.189c-.007.018.366 3.377.366 3.377l2.479-2.77c.958-.958 1.905-1.926 2.855-2.893l3.531 9.591-6.891 24.185S69.572 92.095 68.666 91.329c-.44-.374 12.909-22.359 12.909-22.359l1.113-1.598 2.351-6.501m-.001-3.001a3.002 3.002 0 00-2.82 1.98l-2.217 6.131-.888 1.274c-.036.052-.07.104-.104.158-.033.055-3.384 5.573-6.637 11.067a429.368 429.368 0 00-4.491 7.726 74.956 74.956 0 00-1.464 2.698c-.472.932-1.578 3.112.306 4.712.729.616 1.092.923 26.12 7.443a5517.468 5517.468 0 0024.27 6.258 3 3 0 003.626-2.085l6.891-24.185a2.996 2.996 0 00-.069-1.858l-3.531-9.591a2.997 2.997 0 00-2.816-1.963c-.796 0-1.569.317-2.14.897l-.46.468-.82.834a3.014 3.014 0 00-1.289-1.011 2.997 2.997 0 00-3.039.458c-.679.557-1.376 1.144-2.128 1.789a2.959 2.959 0 00-.666-.93 3.001 3.001 0 00-.233-5.734l-24.642-6.437a2.963 2.963 0 00-.759-.099z" fill="#0071bc"/><linearGradient id="b" gradientUnits="userSpaceOnUse" x1="171.32" y1="70.823" x2="171.323" y2="79.742" gradientTransform="rotate(14.518 149.636 -132.099)"><stop offset="0" stop-color="#70abf1"/><stop offset=".859" stop-color="#70abf1" stop-opacity=".141"/><stop offset="1" stop-color="#70abf1" stop-opacity="0"/></linearGradient><path d="M121.213 70.636c-.232.202-1.662 1.441-2.855 2.893-.952 1.158-2.479 2.77-2.479 2.77l-.509-4.697s-4.324 3.606-4.791 4.203l14.114 4.407-3.48-9.576z" fill="url(#b)"/><linearGradient id="c" gradientUnits="userSpaceOnUse" x1="149.315" y1="70.897" x2="149.315" y2="78.963" gradientTransform="rotate(14.518 149.636 -132.099)"><stop offset="0" stop-color="#70abf1"/><stop offset=".859" stop-color="#70abf1" stop-opacity=".141"/><stop offset="1" stop-color="#70abf1" stop-opacity="0"/></linearGradient><path d="M108.609 72.318c-.447-.22-4.432.886-5.15-.22-.576-.884 0-1.662 6.222-4.791l-22.712-5.942-1.79 7.869 22.518 5.675c.037-.138.557-1.674.912-2.591z" fill="url(#c)"/><linearGradient id="d" gradientUnits="userSpaceOnUse" x1="50.578" y1="60.85" x2="25.597" y2="35.868"><stop offset="0" stop-color="#d1ebff"/><stop offset=".189" stop-color="#cce8fe"/><stop offset=".399" stop-color="#bfdffc"/><stop offset=".618" stop-color="#a9d1f9"/><stop offset=".843" stop-color="#8abcf5"/><stop offset="1" stop-color="#70abf1"/></linearGradient><path d="M9.357 71.56c-.153 0-.307-.023-.454-.07-1.94-.616-3.561-2.391-2.905-4.591a1.51 1.51 0 01.077-.203l1.146-2.47a1.5 1.5 0 011.736-.82l2.65.686-.607-4.56a1.5 1.5 0 011.867-1.649l4.004 1.049-4.247-3.827a1.5 1.5 0 01.708-2.585l6.447-1.296-.526-3.12a1.499 1.499 0 011.712-1.731l6.597 1.036-1.423-.852a1.5 1.5 0 01.515-2.766l4.868-.839-4.442-5.355a1.502 1.502 0 011.767-2.327c1.512.677 3.215 1.409 4.506 1.936-.137-.599-.289-1.231-.415-1.757-1.156-4.816-1.467-6.111.028-6.725 1.249-.514 26.059-8.563 29.238-8.563 1.129 0 1.731.785 1.744 1.56.002.174-.025.347-.082.511-2.147 6.247-12.901 37.483-13.704 38.95a1.503 1.503 0 01-.961.737l-39.488 9.6a1.594 1.594 0 01-.356.041z" fill="url(#d)"/><path d="M62.204 21.66c.159 0 .243.026.244.083 0 0-12.819 37.288-13.602 38.717l-39.488 9.6c-1.012-.321-2.36-1.261-1.922-2.732l1.146-2.47 4.807 1.243-.902-6.767 9.969 2.611-8.828-7.955 7.873-1.582-.769-4.555 14.236 2.236-8.06-4.82 7.423-1.279-6.097-7.352s6.205 2.776 6.899 2.776c.02 0 .035-.002.046-.007.477-.213-2.228-9.058-1.645-9.297 1.919-.787 25.981-8.45 28.67-8.45m0-3c-3.588 0-28.634 8.193-29.809 8.677-2.479 1.017-1.954 3.707-1.701 5 .134.689.319 1.5.517 2.334-.591-.256-1.187-.519-1.75-.771a3 3 0 00-3.535 4.653l2.787 3.36-2.313.399a3 3 0 00-2.49 3.002l-2.711-.426a2.998 2.998 0 00-3.423 3.463l.285 1.688-5.022 1.009a3.001 3.001 0 00-1.417 5.169l.209.188a2.999 2.999 0 00-2.315 3.324l.313 2.35-.493-.127a3.001 3.001 0 00-3.472 1.641l-1.146 2.47a3.055 3.055 0 00-.154.406c-.822 2.76.813 5.472 3.889 6.448a2.994 2.994 0 001.616.056l39.488-9.6a2.996 2.996 0 001.923-1.475c.787-1.438 8.989-25.166 13.807-39.182.113-.329.168-.675.163-1.021-.026-1.47-1.17-3.035-3.246-3.035z" fill="#0071bc"/><linearGradient id="e" gradientUnits="userSpaceOnUse" x1="53.11" y1="67.493" x2="85.939" y2="48.54"><stop offset="0" stop-color="#d1ebff"/><stop offset=".189" stop-color="#cce8fe"/><stop offset=".399" stop-color="#bfdffc"/><stop offset=".618" stop-color="#a9d1f9"/><stop offset=".843" stop-color="#8abcf5"/><stop offset="1" stop-color="#70abf1"/></linearGradient><path d="M79.039 93.73c-.786 0-1.471-.257-1.98-.743a1.247 1.247 0 01-.094-.098L50.116 62.25a1.493 1.493 0 01-.363-1.15c.181-1.669 9.514-33.271 11.383-39.59.048-.162.123-.315.222-.452.282-.391.772-.64 1.253-.64.925 0 1.536 0 13.038 14.848 4.231 5.462 11.191 14.633 11.852 15.992 1.073 2.212 1.424 3.779 1.251 5.592a1.262 1.262 0 01-.017.119l-6.03 34.067c-.218 1.589-2.074 2.694-3.666 2.694-.001 0 0 0 0 0z" fill="url(#e)"/><path d="M62.611 21.918c1.168 0 22.592 28.043 23.541 29.996.961 1.981 1.251 3.274 1.106 4.793l-6.03 34.067c-.109.792-1.242 1.456-2.189 1.456-.367 0-.705-.1-.946-.329l-26.849-30.64c.176-1.619 11.33-39.326 11.33-39.326a.045.045 0 01.037-.017m0-3c-.963 0-1.904.479-2.468 1.26-.199.275-.35.582-.446.907-4.194 14.179-11.257 38.211-11.435 39.853-.091.835.173 1.67.726 2.302l26.849 30.64c.059.067.121.133.187.194.783.746 1.854 1.157 3.016 1.157 2.191 0 4.764-1.516 5.15-3.971l6.023-34.03c.014-.079.024-.158.032-.238.198-2.086-.205-3.936-1.394-6.386-.965-1.986-11.906-16.116-12.017-16.259-11.952-15.429-12.478-15.429-14.223-15.429z" fill="#0071bc"/><path d="M46.833 67.67c-1.925-.251-4.296.482-4.49 3.569l-.515 8.196 7.051.876s.872-4.882 1.485-8.03c.594-3.037-1.279-4.32-3.531-4.611z"/><path fill="#0071bc" d="M24.092 112.696l-1.347-1.975 4.423-6.894 2.833 3.495 2.931-4.194 2.287 3.447-2.11-1.792-2.74 4.455-2.957-1.986zM57.707 69.446l9.293.801V66.73L72.871 63l.127-7.458-3.017-6.074-.759-10.336 1.897 9.804 3.596 5.22 3.288-2.77 2.543.852.529-3.09 3.392-.212-2.331 1.278-.426 2.77-3.394.321-3.605 3.09.107 8.523-6.468 3.091-.336 4.368zM17.465 71.837l-1.736 1.054 3.087 5.424-5.067 3.064.82 1.909 5.117-3.314 1.639 3.064 7.48-.102 2.172 4.12 6.176-1.457 3.716 2.914-3.04-4.22-5.55.703-1.35-3.365-7.771-.753zM78.857 95.74l-10.02 6.233-6.761 1.12-7.873 6.952 5.805-7.672 7.716-1.759 7.633-6.792zM86.912 69.527s3.898 12.25 4.082 12.413c.187.162 6.432 4.475 6.738 4.621.308.147-3.032 3.979-3.032 3.979l10.829 6.604-13.837-5.896 3.707-4.007-5.69-3.825-4.391-12.185 1.594-1.704z"/><path d="M47.961 116.203H38.41l-1.606-11.258a5.758 5.758 0 013.136-5.127 6.86 6.86 0 016.111-.068l.209.1a5.76 5.76 0 013.253 5.186l-1.552 11.167z"/></svg>