<svg xmlns="http://www.w3.org/2000/svg" width="200" height="200" fill="none" xmlns:v="https://vecta.io/nano"><style><![CDATA[.B{fill:#42250d}.C{fill:#916136}.D{fill:#603913}.E{fill:#633b1a}.F{stroke-miterlimit:10}]]></style><path d="M99.693 10.354c49.34 0 89.339 40.001 89.339 89.338s-40 89.339-89.339 89.339-89.339-39.999-89.339-89.339 39.999-89.338 89.339-89.338zm0-10.353C44.722 0 0 44.721 0 99.692s44.722 99.693 99.693 99.693 99.693-44.722 99.693-99.693S154.664 0 99.693 0z" fill="#000"/><path d="M99.995 194.144c-51.909 0-94.139-42.231-94.139-94.14S48.086 5.866 99.995 5.866s94.139 42.229 94.139 94.138-42.23 94.14-94.139 94.14z" fill="#fff"/><path d="M99.995 10.422c49.475 0 89.583 40.109 89.583 89.583s-40.108 89.583-89.583 89.583-89.583-40.108-89.583-89.583S50.52 10.422 99.995 10.422zm0-9.112C45.574 1.31 1.3 45.583 1.3 100.005S45.574 198.7 99.995 198.7s98.695-44.274 98.695-98.695S154.416 1.31 99.995 1.31z" fill="#ec537a"/><path d="M99.995 22.72c42.614 0 77.283 34.669 77.283 77.285s-34.669 77.284-77.283 77.284-77.283-34.67-77.283-77.284S57.382 22.72 99.995 22.72zm0-17.276c-52.223 0-94.56 42.337-94.56 94.561s42.337 94.56 94.56 94.56 94.56-42.334 94.56-94.56-42.334-94.561-94.56-94.561z" fill="#ff8fac"/><path d="M135.733 51.934a2.66 2.66 0 0 1-.87.584c-.325.135-.674.204-1.026.203l-9.477.002c-.711-.001-1.392-.284-1.895-.786s-.786-1.184-.787-1.895l-.001-5.8a2.67 2.67 0 0 1 .787-1.896c.248-.25.543-.448.869-.583a2.66 2.66 0 0 1 1.025-.204h9.478c.71 0 1.393.282 1.896.785s.786 1.184.787 1.895l.001 5.8a2.64 2.64 0 0 1-.204 1.027c-.134.325-.333.621-.583.869z" class="C"/><path d="M123.047 42.973a1.7 1.7 0 0 1 1.2-.497l9.703-.004c.932 0 1.698.765 1.698 1.699l.002 5.939c0 .223-.044.444-.13.65a1.69 1.69 0 0 1-.369.551 1.7 1.7 0 0 1-1.201.496l-9.701.002c-.45-.002-.882-.181-1.199-.499s-.5-.749-.502-1.199v-5.938c-.001-.468.193-.891.499-1.2zm-1.482-1.482c-.353.351-.633.769-.825 1.229a3.77 3.77 0 0 0-.287 1.453l.001 5.938a3.8 3.8 0 0 0 3.794 3.794l9.702-.001c1.012 0 1.964-.397 2.681-1.116.354-.351.634-.768.825-1.228a3.76 3.76 0 0 0 .287-1.451l-.001-5.939c-.001-1.006-.401-1.971-1.113-2.682a3.79 3.79 0 0 0-2.681-1.112l-9.702.002c-1.011 0-1.964.395-2.681 1.113z" class="B"/><path d="M146.246 81.288c-.223.225-.49.404-.783.526a2.41 2.41 0 0 1-.927.184l-30.862.004a2.4 2.4 0 0 1-1.711-.708c-.225-.224-.403-.491-.524-.784s-.185-.608-.184-.926l-.001-6.943c.001-.691.282-1.118.52-1.355.737-.735 2.077-.682 3.264.129l2.536 1.732a.37.37 0 0 0 .209.065l22.644-.004c.074.001.147-.022.209-.064l2.535-1.734c.773-.528 1.928-.92 2.855-.43.59.31.929.913.93 1.655v6.942a2.43 2.43 0 0 1-.184.926 2.44 2.44 0 0 1-.526.785z" class="C"/><path d="M111.993 71.882c.413-.412 1.313-.229 2.023.258l2.611 1.787a1.45 1.45 0 0 0 .811.251l23.331-.005a1.45 1.45 0 0 0 .811-.251l2.611-1.787c.952-.653 2.247-.763 2.247.392l.002 7.152c0 .397-.16.756-.421 1.016-.133.134-.292.24-.466.312s-.362.109-.55.109l-31.797.007a1.44 1.44 0 0 1-1.436-1.437l-.001-7.155c-.001-.296.083-.506.224-.649zm-1.492-1.492c-.386.387-.843 1.069-.843 2.141l.001 7.154c.001.94.375 1.842 1.041 2.507s1.566 1.038 2.506 1.039l31.797-.005a3.53 3.53 0 0 0 2.507-1.039c.33-.329.591-.72.77-1.151s.27-.892.269-1.358l-.002-7.152c0-1.151-.567-2.137-1.521-2.641-1.368-.722-2.978-.212-4.029.507l-2.437 1.669-22.916.002-2.439-1.666c-1.674-1.145-3.565-1.148-4.704-.008z" class="B"/><path d="M123.715 47.823h10.769v28.401h-10.769V47.823z" fill="#9b7753"/><path d="M124.716 48.721l8.764-.001.005 26.605-8.764.001-.005-26.605zm-2.136-2.137v2.136l.005 26.606.001 2.137h2.135l8.764-.001 2.137-.001v-2.137l-.005-26.606v-2.137h-2.137l-8.764.003h-2.136z" class="D"/><path d="M130.479 157.261c-.413.417-1.025.611-1.638.524a1.83 1.83 0 0 1-.788-.302c-.236-.161-.432-.374-.57-.624l-6.938-12.824-.012-66.042 17.17-.003.013 66.043-6.935 12.825c-.081.148-.18.286-.302.403z" fill="#636362"/><path d="M121.423 78.397l15.391-.003.013 65.914-6.934 12.823a.67.67 0 0 1-.126.169c-.376.378-1.128.321-1.396-.168l-6.937-12.821-.011-65.914zm-2.085-2.083V78.4l.012 65.912.001.529.252.464 6.937 12.819c.433.803 1.217 1.34 2.148 1.477a3 3 0 0 0 1.374-.111 3.02 3.02 0 0 0 1.181-.714 2.8 2.8 0 0 0 .485-.653l6.932-12.822.25-.464v-.529l-.01-65.913v-2.084h-2.087l-15.391.003h-2.084z" fill="#414042"/><path d="M124.771 52.294h6.526v22.874h-6.526V52.294z" fill="#c49a6c"/><path d="M135.527 51.728a2.37 2.37 0 0 1-1.69.702l-9.476.002a2.39 2.39 0 0 1-2.39-2.39l-.001-5.799a2.37 2.37 0 0 1 .701-1.689c.221-.223.484-.4.773-.52a2.37 2.37 0 0 1 .915-.181l9.477-.002a2.37 2.37 0 0 1 1.689.7 2.38 2.38 0 0 1 .702 1.689l.001 5.8c.001.314-.06.625-.181.915a2.36 2.36 0 0 1-.52.774z" class="E"/><path d="M123.186 43.07a1.66 1.66 0 0 1 1.171-.486l9.479-.002c.911 0 1.657.745 1.657 1.658l.002 5.8a1.66 1.66 0 0 1-1.658 1.657l-9.477.001c-.439-.001-.86-.176-1.171-.487s-.486-.732-.488-1.171v-5.8c-.001-.456.186-.87.485-1.17zm-1.034-1.034c-.291.289-.521.633-.678 1.012a3.1 3.1 0 0 0-.236 1.195l.001 5.8c0 .832.325 1.615.915 2.206.29.291.633.521 1.011.678a3.1 3.1 0 0 0 1.195.236l9.477-.002a3.1 3.1 0 0 0 2.207-.914 3.11 3.11 0 0 0 .677-1.012 3.1 3.1 0 0 0 .237-1.194v-5.8c0-.832-.325-1.615-.915-2.207-.29-.29-.634-.52-1.013-.677s-.784-.237-1.194-.236l-9.478.001a3.1 3.1 0 0 0-2.206.915z" class="B"/><path d="M146.04 81.08c-.197.198-.431.355-.689.462s-.534.162-.814.162l-30.864.005a2.11 2.11 0 0 1-.814-.161c-.257-.107-.492-.264-.688-.462a2.08 2.08 0 0 1-.462-.689c-.107-.258-.162-.535-.161-.814l-.001-6.943c0-.589.235-.95.434-1.148.74-.74 2.017-.433 2.892.162l2.535 1.734c.11.076.241.116.375.116l22.644-.005c.133.001.264-.039.373-.115l2.536-1.734c.669-.458 1.74-.841 2.552-.412.288.151.772.535.772 1.396l.001 6.942c0 .568-.22 1.102-.621 1.504z" class="E"/><path d="M112.496 72.007c.401-.4 1.273-.221 1.962.251l2.535 1.734a1.4 1.4 0 0 0 .787.244l22.645-.006a1.4 1.4 0 0 0 .787-.243l2.535-1.734c.924-.633 2.181-.741 2.181.381l.002 6.941c0 .386-.156.736-.409.987a1.39 1.39 0 0 1-.987.408l-30.863.007c-.369 0-.725-.147-.986-.409s-.409-.616-.409-.986l-.001-6.943c.001-.288.083-.493.221-.632zm-1.035-1.035c-.296.297-.648.825-.648 1.666l.001 6.943c.001.758.303 1.484.838 2.019a2.86 2.86 0 0 0 2.02.837l30.862-.005c.765 0 1.483-.297 2.021-.835a2.84 2.84 0 0 0 .837-2.023l-.002-6.941c0-.91-.425-1.654-1.162-2.046-1.1-.579-2.429-.144-3.308.457l-2.517 1.722-22.603.004-2.517-1.72c-1.364-.934-2.935-.965-3.822-.078z" class="B"/><path d="M133.884 70.044v-1.034s-1.894-.591-4.781-.59-4.752.592-4.752.592l.001 1.034s2.631-.592 4.751-.592 4.781.59 4.781.59zm-.001-6.163v-1.035s-1.894-.59-4.782-.589-4.751.591-4.751.591l-.001 1.034s2.634-.591 4.753-.591 4.781.59 4.781.59zm-.001-5.598v-1.035s-1.894-.59-4.781-.59-4.753.593-4.753.593l.001 1.034s2.633-.591 4.752-.592 4.781.59 4.781.59z" class="D"/><path d="M128.386 156.892l-6.816-12.595-.01-56.702 15.124-.002.009 56.7-6.813 12.599c-.293.546-1.2.545-1.494 0z" fill="#939598"/><path d="M129.133 157.3c-.301 0-.599-.136-.746-.407l-6.817-12.595-.01-56.702 7.562-.001c0-.001.311 69.705.011 69.705z" fill="#bcbec0"/><path d="M120.835 87.077l16.441-.042" stroke="#414042" stroke-width="3" class="F"/><path d="M143.651 72.841c.005-.157-.029-.313-.098-.455l-2.342 1.602c-.23.158-.504.243-.785.243l-1.552.002a1.4 1.4 0 0 1-.725.206l-22.647.004a1.4 1.4 0 0 1-.786-.243l-2.431-1.662-.008.102.001 6.943c0 .77.625 1.395 1.396 1.395l29.308-.007a1.39 1.39 0 0 0 .671-1.187l-.002-6.943zM123.574 42.79c-.517.282-.874.824-.873 1.453l.001 5.8a1.66 1.66 0 0 0 1.658 1.656h7.984c.264-.14.484-.349.638-.605a1.65 1.65 0 0 0 .237-.846l-.001-5.8c-.002-.44-.177-.861-.488-1.172s-.733-.486-1.172-.487h-7.984z" class="C"/><path d="M124.1 43.639l4.9-.001c.207.01.401.099.543.249a.8.8 0 0 1 0 1.109c-.142.15-.336.239-.543.249l-4.899.001c-.214 0-.418-.085-.569-.236s-.236-.356-.236-.569c0-.439.361-.802.804-.802zm-6.346 33.178l12.482-.002c.213 0 .418-.085.569-.236a.81.81 0 0 0 .235-.57.81.81 0 0 0-.804-.803l-12.483.001c-.214.001-.417.086-.568.237s-.235.355-.236.568a.81.81 0 0 0 .805.805z" fill="#b78358"/><path d="M79.507 51.934c-.248.25-.544.448-.869.584a2.66 2.66 0 0 1-1.027.203l-9.476.002c-.711-.001-1.392-.284-1.895-.786s-.786-1.184-.787-1.895l-.001-5.8a2.67 2.67 0 0 1 .787-1.896c.248-.25.543-.448.868-.583s.674-.204 1.026-.204h9.478c.711 0 1.393.282 1.896.785s.786 1.184.787 1.895l.001 5.8a2.66 2.66 0 0 1-.787 1.895z" class="C"/><path d="M66.819 42.973c.319-.318.751-.497 1.201-.497l9.702-.004c.932 0 1.698.765 1.698 1.699l.003 5.939a1.7 1.7 0 0 1-.499 1.201c-.158.158-.345.282-.552.368a1.7 1.7 0 0 1-.65.129l-9.7.002c-.45-.002-.881-.181-1.2-.499a1.71 1.71 0 0 1-.501-1.199v-5.938c0-.468.193-.891.498-1.2zm-1.48-1.482c-.354.351-.634.769-.825 1.229s-.289.954-.287 1.453l.001 5.938a3.8 3.8 0 0 0 3.795 3.794l9.701-.001c1.011 0 1.964-.397 2.682-1.116a3.76 3.76 0 0 0 1.112-2.679l-.001-5.939a3.8 3.8 0 0 0-3.795-3.794l-9.701.002c-1.012 0-1.964.395-2.681 1.113z" class="B"/><path d="M90.02 81.288a2.41 2.41 0 0 1-.784.526c-.293.122-.608.184-.926.184l-30.862.004a2.4 2.4 0 0 1-1.711-.708c-.457-.457-.709-1.064-.709-1.71l-.001-6.943c.001-.691.282-1.118.52-1.355.736-.735 2.078-.682 3.264.129l2.536 1.732c.061.042.134.065.209.065l22.644-.004c.074.001.147-.022.209-.064l2.535-1.734c.772-.528 1.929-.92 2.855-.43.59.31.93.913.931 1.655v6.942a2.41 2.41 0 0 1-.71 1.711z" class="C"/><path d="M55.766 71.882c.413-.412 1.312-.229 2.023.258l2.611 1.787c.238.162.521.251.81.251l23.332-.005c.288 0 .571-.089.81-.251l2.611-1.787c.953-.653 2.248-.763 2.248.392l.002 7.152a1.42 1.42 0 0 1-.422 1.016c-.133.134-.291.24-.465.312s-.361.109-.549.109l-31.797.007a1.44 1.44 0 0 1-1.015-.421c-.27-.269-.421-.635-.421-1.016l-.001-7.155c0-.296.084-.506.225-.649zm-1.492-1.492c-.385.387-.842 1.069-.842 2.141l.001 7.154a3.55 3.55 0 0 0 3.548 3.546l31.797-.005a3.53 3.53 0 0 0 2.507-1.039c.33-.329.592-.72.77-1.151s.27-.892.269-1.358l-.002-7.152c0-1.151-.568-2.137-1.521-2.641-1.369-.722-2.979-.212-4.028.507l-2.438 1.669-22.916.002-2.439-1.666c-1.674-1.145-3.565-1.148-4.705-.008z" class="B"/><path d="M67.49 47.823h10.768v28.401H67.49V47.823z" fill="#9b7753"/><path d="M68.49 48.721l8.764-.001.005 26.605-8.764.001-.005-26.605zm-2.137-2.137v2.136l.005 26.606.001 2.137h2.135l8.764-.001 2.137-.001v-2.137l-.005-26.606v-2.137h-2.137l-8.764.003h-2.136z" class="D"/><path d="M74.254 157.261c-.414.417-1.027.611-1.638.524a1.83 1.83 0 0 1-1.359-.926l-6.937-12.824-.012-66.042 17.17-.003.012 66.043-6.935 12.825a1.66 1.66 0 0 1-.301.403z" fill="#636362"/><path d="M65.197 78.397l15.391-.003.012 65.914-6.933 12.823c-.033.063-.076.119-.127.169-.376.378-1.129.321-1.395-.168l-6.937-12.821-.011-65.914zm-2.086-2.083V78.4l.012 65.912.001.529.252.464 6.937 12.819c.433.803 1.217 1.34 2.148 1.477.945.138 1.9-.171 2.553-.825a2.78 2.78 0 0 0 .486-.653l6.932-12.822.25-.464v-.529l-.011-65.913v-2.084h-2.086l-15.39.003h-2.086z" fill="#414042"/><path d="M68.544 52.294h6.526v22.874h-6.526V52.294z" fill="#c49a6c"/><path d="M79.3 51.728c-.221.223-.485.4-.775.52s-.601.182-.915.182l-9.477.002a2.39 2.39 0 0 1-2.389-2.39l-.001-5.799a2.37 2.37 0 0 1 .701-1.689 2.36 2.36 0 0 1 .773-.52c.29-.12.601-.182.914-.18l9.477-.002a2.37 2.37 0 0 1 1.689.7 2.38 2.38 0 0 1 .703 1.689l.001 5.8a2.37 2.37 0 0 1-.702 1.689z" class="E"/><path d="M66.96 43.07a1.66 1.66 0 0 1 1.171-.486l9.478-.002c.91 0 1.657.745 1.657 1.658l.002 5.8a1.66 1.66 0 0 1-1.658 1.657l-9.476.001c-.911 0-1.659-.744-1.66-1.658v-5.8c-.001-.456.187-.87.486-1.17zm-1.034-1.034a3.1 3.1 0 0 0-.914 2.206l.001 5.8a3.1 3.1 0 0 0 1.927 2.884 3.1 3.1 0 0 0 1.195.236l9.476-.002a3.1 3.1 0 0 0 2.885-1.926c.157-.379.237-.785.237-1.194v-5.8c0-.832-.325-1.615-.915-2.207a3.11 3.11 0 0 0-2.207-.913l-9.478.001a3.1 3.1 0 0 0-2.206.915z" class="B"/><path d="M89.813 81.08c-.197.198-.431.355-.689.462s-.534.162-.814.162l-30.864.005c-.279.001-.556-.054-.814-.161s-.492-.264-.689-.462a2.11 2.11 0 0 1-.623-1.502l-.001-6.943c0-.589.235-.95.434-1.148.739-.74 2.017-.433 2.892.162l2.534 1.734a.67.67 0 0 0 .376.116L84.2 73.5c.135 0 .263-.038.374-.115l2.534-1.734c.67-.458 1.741-.841 2.553-.412.288.151.772.535.772 1.396l.001 6.942a2.11 2.11 0 0 1-.621 1.504z" class="E"/><path d="M56.27 72.007c.401-.4 1.274-.221 1.962.251l2.535 1.734a1.4 1.4 0 0 0 .787.244l22.645-.006c.28 0 .556-.085.787-.243l2.535-1.734c.924-.633 2.181-.741 2.181.381l.002 6.941c0 .386-.156.736-.409.987s-.6.408-.986.408l-30.863.007c-.37 0-.725-.147-.986-.409s-.409-.616-.409-.987l-.001-6.943c.001-.288.083-.493.221-.632zm-1.035-1.035c-.296.297-.648.825-.648 1.666l.001 6.943a2.86 2.86 0 0 0 2.858 2.856l30.862-.005a2.84 2.84 0 0 0 2.641-1.763c.144-.347.217-.719.216-1.095l-.002-6.941c0-.91-.424-1.654-1.162-2.046-1.099-.579-2.429-.144-3.308.457l-2.518 1.722-22.603.004-2.516-1.72c-1.364-.934-2.935-.965-3.822-.078z" class="B"/><path d="M77.659 70.044v-1.034s-1.894-.591-4.783-.59-4.75.592-4.75.592l.001 1.034s2.63-.592 4.749-.592 4.783.59 4.783.59zm-.001-6.163v-1.035s-1.894-.59-4.784-.589-4.749.591-4.749.591l-.001 1.034s2.633-.591 4.751-.591 4.783.59 4.783.59zm-.001-5.598v-1.035s-1.894-.59-4.783-.59-4.752.593-4.752.593l.002 1.034s2.632-.591 4.75-.592 4.783.59 4.783.59z" class="D"/><path d="M72.159 156.892l-6.815-12.595-.01-56.702 15.123-.002.01 56.7-6.813 12.599c-.295.546-1.201.545-1.495 0z" fill="#939598"/><path d="M72.906 157.3c-.3 0-.598-.136-.746-.407l-6.816-12.595-.01-56.702 7.562-.001c-.001-.001.311 69.705.01 69.705z" fill="#bcbec0"/><path d="M64.608 87.077l16.442-.042" stroke="#414042" stroke-width="3" class="F"/><path d="M87.424 72.841c.004-.157-.029-.313-.097-.455l-2.342 1.602a1.39 1.39 0 0 1-.786.243l-1.552.002c-.219.134-.47.205-.726.206l-22.645.004a1.4 1.4 0 0 1-.787-.243l-2.431-1.662-.008.102.001 6.943c0 .77.624 1.395 1.396 1.395l29.307-.007c.401-.245.67-.682.67-1.187l-.001-6.943zM67.348 42.79c-.263.141-.483.35-.637.606s-.236.548-.237.847l.001 5.8c0 .912.747 1.657 1.659 1.656h7.984a1.65 1.65 0 0 0 .875-1.451l-.001-5.8c-.002-.44-.177-.861-.488-1.172s-.733-.486-1.172-.487h-7.984z" class="C"/><path d="M67.874 43.639l4.9-.001c.206.01.401.099.543.249s.222.348.222.555-.079.405-.222.555-.337.239-.543.249l-4.899.001c-.213 0-.418-.085-.569-.236s-.236-.356-.236-.569c0-.439.362-.802.804-.802zm-6.345 33.178l12.481-.002c.213 0 .418-.085.569-.236s.236-.356.236-.57-.086-.417-.237-.568-.355-.235-.568-.235l-12.482.001c-.213.001-.417.086-.568.237s-.236.355-.236.568a.81.81 0 0 0 .805.805z" fill="#b78358"/></svg>