<svg xmlns="http://www.w3.org/2000/svg" width="200" height="200"><style>.st6{fill:#b78358}.st18{fill:#916136}.st23{fill:#603913}.st25{fill:#633b1a}.st43{fill:#42250d}</style><g id="knight_x5F_blue"><g id="Active_State_copy"><path d="M100 11.555c48.847 0 88.446 39.601 88.446 88.445 0 48.847-39.6 88.446-88.446 88.446S11.554 148.847 11.554 100c0-48.845 39.599-88.445 88.446-88.445m0-10.25C45.579 1.305 1.304 45.579 1.304 100c0 54.421 44.275 98.696 98.696 98.696s98.696-44.275 98.696-98.696S154.421 1.305 100 1.305z"/><path d="M100 192.982c-51.271 0-92.982-41.712-92.982-92.982C7.018 48.73 48.729 7.019 100 7.019S192.982 48.73 192.982 100c0 51.271-41.711 92.982-92.982 92.982z" fill="#fff"/><path d="M100 11.519c48.867 0 88.482 39.616 88.482 88.481 0 48.867-39.615 88.482-88.482 88.482S11.518 148.867 11.518 100c0-48.865 39.615-88.481 88.482-88.481m0-9C46.248 2.519 2.518 46.249 2.518 100c0 53.752 43.73 97.482 97.482 97.482s97.482-43.73 97.482-97.482c0-53.751-43.73-97.481-97.482-97.481z" fill="#0000b2"/><g><path d="M100 23.667c42.09 0 76.333 34.243 76.333 76.333S142.09 176.333 100 176.333 23.667 142.09 23.667 100 57.91 23.667 100 23.667m0-17.065C48.419 6.602 6.602 48.418 6.602 100c0 51.584 41.817 93.398 93.398 93.398 51.584 0 93.398-41.814 93.398-93.398 0-51.582-41.814-93.398-93.398-93.398z" fill="#33f"/></g></g><g id="knight_x5F_active_copy"><g id="knight_x5F_active_x5F_level1_1_"><g id="sword_6_"><path class="st18" d="M106.543 52.437a2.634 2.634 0 01-1.877.778l-9.377.002a2.656 2.656 0 01-2.653-2.653l-.001-5.738c0-.708.276-1.374.778-1.877a2.633 2.633 0 011.874-.778h9.378a2.655 2.655 0 012.655 2.652l.001 5.739a2.633 2.633 0 01-.778 1.875"/><path class="st43" d="M93.989 43.57a1.684 1.684 0 011.188-.493l9.601-.003c.922 0 1.68.757 1.68 1.681l.002 5.876a1.686 1.686 0 01-1.682 1.68l-9.599.001c-.923 0-1.68-.755-1.682-1.68v-5.875c0-.464.19-.882.492-1.187m-1.466-1.467a3.726 3.726 0 00-1.101 2.654l.001 5.875a3.76 3.76 0 003.755 3.754l9.6-.001a3.73 3.73 0 002.654-1.104 3.723 3.723 0 001.1-2.651l-.001-5.876A3.758 3.758 0 00104.776 41l-9.6.002c-1 0-1.943.391-2.653 1.101"/><path class="st18" d="M116.945 81.479a2.384 2.384 0 01-1.692.702l-30.538.004c-.64 0-1.241-.248-1.692-.7a2.377 2.377 0 01-.702-1.692l-.001-6.87c.001-.684.28-1.106.515-1.341.729-.728 2.056-.675 3.229.127l2.509 1.715a.364.364 0 00.207.064l22.405-.005a.363.363 0 00.207-.063l2.508-1.717c.765-.523 1.908-.91 2.825-.426.585.307.92.904.921 1.638v6.87c0 .639-.25 1.241-.701 1.694"/><path class="st43" d="M83.054 72.172c.408-.407 1.298-.226 2.001.256l2.583 1.768c.237.161.517.248.802.248l23.086-.005c.285 0 .565-.087.802-.248l2.583-1.768c.943-.646 2.224-.756 2.224.387l.002 7.077c0 .393-.158.748-.417 1.005a1.412 1.412 0 01-1.004.417l-31.462.007a1.422 1.422 0 01-1.422-1.422l-.001-7.08c-.001-.291.082-.5.223-.642m-1.478-1.475c-.381.382-.834 1.057-.834 2.118l.001 7.079a3.513 3.513 0 003.511 3.509l31.462-.005a3.49 3.49 0 002.479-1.028 3.496 3.496 0 001.028-2.482l-.002-7.077c0-1.139-.562-2.114-1.505-2.612-1.354-.715-2.947-.21-3.985.502l-2.413 1.651-22.673.003-2.414-1.649c-1.656-1.134-3.527-1.137-4.655-.009"/><path fill="#9b7753" d="M94.652 48.368h10.655V76.47H94.652z"/><path class="st23" d="M95.642 49.256l8.672-.001.005 26.325-8.672.001-.005-26.325zm-2.115-2.114v2.114l.006 26.326.001 2.114h2.112l8.672-.001 2.115-.001V75.58l-.006-26.326v-2.115h-2.114l-8.672.003h-2.114z"/><path d="M101.346 156.653c-.41.412-1.016.604-1.621.518a1.81 1.81 0 01-1.345-.916l-6.863-12.688-.012-65.348 16.988-.003.013 65.349-6.861 12.689c-.082.147-.18.283-.299.399z" fill="#636362"/><path d="M92.384 78.62l15.229-.003.012 65.22-6.86 12.687a.651.651 0 01-.125.168c-.372.375-1.116.318-1.38-.167l-6.864-12.685-.012-65.22m-2.063-2.062v2.063l.011 65.218.001.523.25.459 6.863 12.685c.429.794 1.204 1.326 2.126 1.461a2.97 2.97 0 002.527-.817 2.76 2.76 0 00.481-.645l6.858-12.688.247-.46v-.522l-.01-65.219v-2.062h-2.063l-15.229.003h-2.062z" fill="#414042"/><path fill="#c49a6c" d="M95.697 52.792h6.457v22.633h-6.457z"/><path class="st25" d="M106.339 52.233a2.355 2.355 0 01-1.673.693l-9.377.002a2.367 2.367 0 01-2.364-2.365l-.001-5.737c0-.631.247-1.224.693-1.671a2.338 2.338 0 011.67-.693l9.378-.002a2.362 2.362 0 012.366 2.363l.002 5.739c0 .63-.247 1.223-.694 1.671"/><path class="st43" d="M94.129 43.666a1.64 1.64 0 011.158-.482l9.379-.002c.902 0 1.641.739 1.641 1.642l.002 5.739c0 .451-.186.86-.483 1.159a1.642 1.642 0 01-1.159.482l-9.377.001a1.648 1.648 0 01-1.642-1.642v-5.738a1.63 1.63 0 01.481-1.159m-1.024-1.023a3.063 3.063 0 00-.905 2.183l.001 5.738c0 .824.321 1.598.906 2.183.584.585 1.36.905 2.182.905l9.377-.002c.824 0 1.6-.321 2.184-.905.585-.586.905-1.36.905-2.183v-5.739a3.07 3.07 0 00-.906-2.184 3.078 3.078 0 00-2.184-.904l-9.378.001a3.074 3.074 0 00-2.182.907"/><path class="st25" d="M116.74 81.274a2.092 2.092 0 01-1.486.617l-30.54.004c-.562 0-1.09-.218-1.486-.615a2.086 2.086 0 01-.617-1.487l-.001-6.87c0-.583.233-.94.43-1.137.732-.732 1.996-.428 2.861.161l2.509 1.716a.659.659 0 00.371.115l22.405-.005a.637.637 0 00.369-.114l2.509-1.716c.663-.452 1.723-.833 2.526-.408.285.149.764.53.764 1.381l.001 6.87c0 .562-.218 1.09-.615 1.488"/><path class="st43" d="M83.55 72.297c.396-.396 1.26-.219 1.942.248L88 74.261c.229.157.501.241.779.241l22.406-.005c.278 0 .55-.085.779-.241l2.508-1.716c.915-.627 2.158-.733 2.158.376l.002 6.869c0 .381-.154.728-.405.976a1.367 1.367 0 01-.975.404l-30.539.008a1.382 1.382 0 01-1.38-1.381l-.001-6.87c.001-.285.082-.487.218-.625m-1.023-1.023c-.293.293-.642.817-.642 1.648l.001 6.87a2.83 2.83 0 002.828 2.826l30.538-.005a2.81 2.81 0 001.999-.827 2.81 2.81 0 00.828-2.001l-.002-6.869c0-.9-.42-1.637-1.15-2.023-1.089-.573-2.403-.143-3.272.452l-2.491 1.703-22.365.005-2.49-1.703c-1.35-.923-2.905-.954-3.782-.076"/><path class="st23" d="M104.714 70.355v-1.023s-1.875-.585-4.731-.584c-2.859.001-4.702.586-4.702.586l.001 1.024s2.603-.587 4.701-.587c2.095 0 4.731.584 4.731.584M104.713 64.257v-1.024s-1.875-.584-4.733-.583c-2.858 0-4.7.585-4.7.585l-.001 1.023s2.605-.586 4.702-.586c2.095-.001 4.732.585 4.732.585M104.712 58.717v-1.023s-1.875-.584-4.732-.584c-2.858.001-4.702.587-4.702.587l.001 1.023s2.604-.585 4.701-.586c2.095-.001 4.732.583 4.732.583"/><path d="M99.272 156.288l-6.744-12.463-.01-56.104 14.964-.002.009 56.102-6.739 12.467c-.291.539-1.189.538-1.48 0" fill="#939598"/><path d="M100.012 156.691c-.297 0-.592-.135-.738-.403l-6.745-12.463-.01-56.104 7.482-.002s.308 68.972.011 68.972" fill="#bcbec0"/><path fill="none" stroke="#414042" stroke-width="3" stroke-miterlimit="10" d="M91.802 87.208l16.268-.041"/><path class="st18" d="M114.377 73.122a.974.974 0 00-.097-.45l-2.316 1.585a1.38 1.38 0 01-.778.241l-1.536.001a1.374 1.374 0 01-.717.204l-22.407.004a1.38 1.38 0 01-.779-.241l-2.405-1.644c-.002.033-.008.065-.008.101l.001 6.87c0 .762.618 1.381 1.381 1.381l28.999-.008c.397-.242.664-.675.664-1.174l-.002-6.87zM94.512 43.389a1.636 1.636 0 00-.864 1.437l.001 5.738c0 .903.739 1.641 1.641 1.64h7.9c.513-.279.865-.815.865-1.437l-.001-5.739a1.646 1.646 0 00-1.642-1.64l-7.9.001z"/><path class="st6" d="M95.032 44.228l4.848-.001a.796.796 0 010 1.591l-4.847.001a.798.798 0 01-.796-.797c0-.436.358-.794.795-.794M88.754 77.055l12.35-.002a.798.798 0 00.796-.797.798.798 0 00-.796-.795l-12.351.001a.8.8 0 00-.796.797.8.8 0 00.797.796"/></g></g></g></g></svg>