<svg xmlns="http://www.w3.org/2000/svg" xmlns:xlink="http://www.w3.org/1999/xlink" width="200" height="200" fill="none" xmlns:v="https://vecta.io/nano"><style><![CDATA[.B{fill:#42250d}.C{fill:#916136}.D{fill:#603913}.E{fill:#633b1a}.F{fill:#9b7753}.G{fill:#636362}.H{fill:#414042}.I{fill:#c49a6c}.J{fill:#939598}.K{fill:#bcbec0}.L{stroke:#414042}.M{stroke-width:3}.N{stroke-miterlimit:10}.O{fill:#b78358}]]></style><path d="M99.995 11.56c48.846 0 88.445 39.601 88.445 88.445s-39.6 88.445-88.445 88.445-88.445-39.599-88.445-88.445S51.148 11.56 99.995 11.56zm0-10.25C45.574 1.31 1.3 45.584 1.3 100.005S45.574 198.7 99.995 198.7s98.695-44.275 98.695-98.695S154.415 1.31 99.995 1.31z" fill="#000"/><path d="M99.995 192.986c-51.27 0-92.981-41.712-92.981-92.982s41.711-92.98 92.981-92.98 92.981 41.71 92.981 92.98-41.711 92.982-92.981 92.982z" fill="#fff"/><path d="M99.995 11.524c48.866 0 88.481 39.616 88.481 88.481s-39.615 88.481-88.481 88.481-88.481-39.615-88.481-88.481 39.615-88.481 88.481-88.481zm0-9c-53.751 0-97.481 43.729-97.481 97.481s43.73 97.481 97.481 97.481 97.481-43.73 97.481-97.481-43.73-97.481-97.481-97.481z" fill="#ec537a"/><path d="M99.995 23.671c42.089 0 76.332 34.243 76.332 76.334s-34.243 76.333-76.332 76.333-76.332-34.243-76.332-76.333 34.243-76.334 76.332-76.334zm0-17.064c-51.58 0-93.397 41.816-93.397 93.398s41.817 93.397 93.397 93.397 93.397-41.814 93.397-93.397S151.578 6.607 99.995 6.607z" fill="#ff8fac"/><use xlink:href="#B" class="C"/><path d="M127.678 42.232a1.63 1.63 0 0 1 1.151-.479l9.318-.003c.896 0 1.631.734 1.631 1.631l.002 5.704a1.64 1.64 0 0 1-1.632 1.63l-9.316.001c-.432-.001-.845-.173-1.151-.479s-.479-.719-.481-1.151v-5.703c0-.214.042-.426.124-.623s.202-.377.354-.528zm-1.423-1.424c-.34.337-.609.739-.792 1.181a3.61 3.61 0 0 0-.276 1.395l.001 5.703a3.65 3.65 0 0 0 3.644 3.644l9.317-.001a3.62 3.62 0 0 0 2.576-1.071c.339-.337.608-.738.791-1.18a3.6 3.6 0 0 0 .276-1.393l-.001-5.704c-.001-.966-.385-1.893-1.069-2.576s-1.61-1.067-2.576-1.068l-9.317.002a3.6 3.6 0 0 0-1.394.275 3.61 3.61 0 0 0-1.18.793z" class="B"/><path d="M149.958 79.027c-.215.217-.471.388-.753.505s-.585.177-.89.177l-29.64.004a2.31 2.31 0 0 1-1.644-.68c-.439-.439-.681-1.021-.681-1.643l-.001-6.669c.001-.663.271-1.073.499-1.301.707-.706 1.995-.655 3.135.123l2.436 1.664a.35.35 0 0 0 .2.063l21.747-.004a.35.35 0 0 0 .2-.062l2.435-1.666c.742-.508 1.853-.884 2.742-.413.567.298.893.878.894 1.59v6.668c.001.305-.058.608-.175.89s-.288.538-.504.754z" class="C"/><path d="M117.061 69.994c.396-.396 1.26-.219 1.942.248l2.508 1.716c.229.156.501.241.778.241l22.407-.005c.277 0 .549-.085.778-.241l2.508-1.716c.915-.627 2.158-.733 2.158.376l.002 6.869a1.37 1.37 0 0 1-1.38 1.38l-30.538.007a1.38 1.38 0 0 1-1.38-1.38l-.001-6.872c.002-.283.083-.485.218-.623zm-1.433-1.432c-.37.371-.81 1.026-.81 2.057l.001 6.871a3.41 3.41 0 0 0 3.407 3.405l30.538-.005c.447.001.89-.087 1.303-.258s.789-.423 1.104-.74.568-.691.74-1.105.259-.857.258-1.304l-.002-6.869c0-1.105-.545-2.053-1.461-2.536-1.313-.693-2.86-.203-3.868.487l-2.342 1.604-22.008.002-2.343-1.601c-1.606-1.1-3.422-1.103-4.517-.008z" class="B"/><path d="M128.321 46.889h10.342v27.276h-10.342V46.889z" class="F"/><path d="M129.28 47.751l8.417-.001.005 25.552-8.417.001-.005-25.552zm-2.051-2.052v2.052l.005 25.553.001 2.053h2.05l8.417-.001 2.053-.001v-2.053l-.005-25.553v-2.053h-2.053l-8.417.003h-2.051z" class="D"/><path d="M134.817 151.994c-.397.399-.985.586-1.573.502-.272-.036-.532-.135-.758-.289a1.76 1.76 0 0 1-.547-.6l-6.662-12.316-.012-63.429 16.489-.003.012 63.43-6.659 12.317a1.62 1.62 0 0 1-.29.388z" class="G"/><path d="M126.119 76.252l14.782-.003.012 63.305-6.659 12.314a.64.64 0 0 1-.121.163c-.361.363-1.084.309-1.34-.162l-6.662-12.313-.012-63.304zm-2.002-2.001v2.003l.011 63.303.001.508.242.446 6.662 12.312c.416.771 1.169 1.287 2.063 1.418.442.067.894.03 1.32-.107a2.89 2.89 0 0 0 1.133-.686 2.72 2.72 0 0 0 .467-.626l6.657-12.314.24-.446v-.508l-.01-63.304v-2.001H140.9l-14.782.003h-2.001v-.001z" class="H"/><path d="M129.333 51.183h6.268v21.968h-6.268V51.183z" class="I"/><path d="M139.663 50.64c-.213.214-.465.384-.744.499a2.28 2.28 0 0 1-.879.175l-9.102.002c-.609-.001-1.192-.243-1.622-.673s-.672-1.014-.673-1.623l-.001-5.569a2.28 2.28 0 0 1 .673-1.622 2.27 2.27 0 0 1 1.621-.673l9.103-.002c.61 0 1.188.237 1.622.672a2.29 2.29 0 0 1 .675 1.622l.001 5.571c0 .611-.239 1.186-.674 1.621z" class="E"/><path d="M127.811 42.324c.29-.288.688-.468 1.125-.468l9.104-.002a1.6 1.6 0 0 1 1.592 1.593l.002 5.571c-.001.422-.169.827-.468 1.126a1.6 1.6 0 0 1-1.126.467l-9.102.001a1.6 1.6 0 0 1-1.594-1.593v-5.57c0-.438.18-.836.467-1.125zm-.993-.992a2.98 2.98 0 0 0-.652.971 2.97 2.97 0 0 0-.227 1.147l.001 5.57c0 .8.313 1.551.88 2.118s1.32.879 2.118.879l9.102-.002c.8 0 1.553-.312 2.119-.879.279-.277.501-.608.651-.971a2.97 2.97 0 0 0 .228-1.147v-5.571a2.98 2.98 0 0 0-.88-2.119c-.278-.279-.608-.5-.972-.651a2.98 2.98 0 0 0-1.147-.227l-9.103.001c-.394 0-.783.078-1.147.229a3 3 0 0 0-.971.652z" class="B"/><path d="M149.761 78.828a2.04 2.04 0 0 1-.662.444c-.247.103-.513.156-.781.156l-29.643.004c-.268.001-.534-.051-.782-.154a2.03 2.03 0 0 1-.661-.444 2.02 2.02 0 0 1-.445-.661c-.102-.248-.155-.513-.154-.782l-.001-6.669c0-.565.227-.912.417-1.103.711-.711 1.938-.416 2.777.156l2.435 1.665a.64.64 0 0 0 .36.112l21.748-.005c.128.001.253-.038.358-.111l2.435-1.665c.644-.439 1.672-.809 2.452-.396.276.146.74.515.74 1.341l.001 6.668a2.05 2.05 0 0 1-.152.782 2.02 2.02 0 0 1-.442.662z" class="E"/><path d="M117.545 70.115c.385-.384 1.223-.212 1.885.241l2.435 1.665a1.34 1.34 0 0 0 .756.234l21.748-.005a1.34 1.34 0 0 0 .756-.234l2.435-1.665c.888-.608 2.095-.712 2.095.365l.002 6.667c0 .37-.15.706-.394.947-.124.125-.271.224-.434.291s-.336.102-.512.102l-29.641.007a1.34 1.34 0 0 1-1.34-1.34l-.001-6.669c-.001-.276.078-.472.21-.606zm-.993-.993c-.284.284-.622.793-.622 1.6l.001 6.669c.001.728.29 1.425.805 1.94a2.74 2.74 0 0 0 1.94.803l29.64-.005c.733 0 1.423-.285 1.94-.803.256-.254.459-.557.597-.89a2.73 2.73 0 0 0 .207-1.052l-.002-6.667c0-.874-.407-1.589-1.116-1.965-1.057-.556-2.333-.138-3.177.439l-2.418 1.653-21.707.004-2.417-1.652c-1.311-.896-2.82-.926-3.671-.074z" class="B"/><use xlink:href="#C" class="D"/><path d="M132.805 151.64l-6.545-12.097-.01-54.458 14.523-.002.009 54.455-6.542 12.101c-.282.523-1.153.522-1.435 0z" class="J"/><path d="M133.522 152.031c-.288 0-.575-.131-.717-.392l-6.546-12.097-.01-54.457 7.262-.001c.001.001.299 66.948.011 66.948z" class="K"/><path d="M125.554 84.589l15.791-.041" class="L M N"/><path d="M147.466 70.915c.004-.151-.028-.301-.094-.437l-2.249 1.538a1.33 1.33 0 0 1-.755.234l-1.491.001c-.209.128-.45.198-.696.198l-21.749.004a1.34 1.34 0 0 1-.756-.234l-2.335-1.596-.008.098.001 6.669a1.34 1.34 0 0 0 1.341 1.34l28.147-.007a1.33 1.33 0 0 0 .645-1.14l-.001-6.668zm-19.283-28.859c-.496.271-.84.792-.839 1.395l.001 5.57c0 .876.718 1.592 1.593 1.591h7.668c.498-.271.84-.791.84-1.394l-.001-5.571a1.6 1.6 0 0 0-.469-1.125c-.298-.298-.703-.466-1.125-.467l-7.668.001z" class="C"/><path d="M128.688 42.87l4.706-.001c.424 0 .771.347.771.771a.78.78 0 0 1-.226.545c-.145.145-.341.226-.545.227l-4.705.001c-.205 0-.401-.082-.546-.227a.77.77 0 0 1-.226-.546c0-.422.347-.77.771-.77zm-6.093 31.864l11.987-.002c.205 0 .401-.082.546-.227a.77.77 0 0 0 .226-.546c-.001-.204-.082-.4-.227-.545s-.341-.226-.545-.226h-11.988c-.205.001-.4.083-.545.228s-.226.341-.227.545c0 .424.348.773.773.773z" class="O"/><path d="M72.862 50.838a2.56 2.56 0 0 1-1.821.756l-9.102.002a2.58 2.58 0 0 1-2.576-2.575l-.001-5.57a2.56 2.56 0 0 1 1.59-2.381c.312-.13.647-.196.985-.196h9.103c.683 0 1.338.271 1.821.753s.755 1.138.756 1.821l.001 5.571c.001.338-.066.673-.196.985s-.32.596-.56.834z" class="C"/><path d="M60.678 42.232a1.63 1.63 0 0 1 1.152-.479l9.318-.003c.896 0 1.631.734 1.631 1.631l.002 5.704a1.64 1.64 0 0 1-1.632 1.63l-9.316.001a1.64 1.64 0 0 1-1.633-1.63v-5.703c0-.214.042-.426.124-.623s.202-.377.354-.528zm-1.423-1.424c-.34.337-.609.739-.792 1.181s-.277.916-.276 1.395l.001 5.703a3.65 3.65 0 0 0 3.645 3.644l9.317-.001a3.62 3.62 0 0 0 2.576-1.071c.339-.337.608-.738.791-1.18s.277-.915.276-1.393l-.001-5.704a3.65 3.65 0 0 0-3.645-3.644l-9.317.002c-.479-.002-.953.092-1.395.275s-.843.453-1.18.793z" class="B"/><path d="M82.959 79.027a2.31 2.31 0 0 1-1.643.682l-29.641.004a2.31 2.31 0 0 1-1.644-.68c-.439-.439-.681-1.021-.681-1.643l-.001-6.669c.001-.663.271-1.073.499-1.301.707-.706 1.995-.655 3.135.123l2.436 1.664a.35.35 0 0 0 .2.063l21.748-.004c.072 0 .141-.021.2-.062l2.435-1.666c.742-.508 1.853-.884 2.742-.413.567.298.893.878.894 1.59v6.668c.001.305-.058.608-.175.89s-.288.538-.504.754z" class="C"/><path d="M50.062 69.994c.396-.396 1.26-.219 1.942.248l2.508 1.716c.229.156.501.241.778.241l22.407-.005c.277 0 .549-.085.778-.241l2.508-1.716c.915-.627 2.158-.733 2.158.376l.002 6.869a1.37 1.37 0 0 1-1.38 1.38l-30.538.007a1.38 1.38 0 0 1-1.38-1.38l-.001-6.872c.002-.283.083-.485.218-.623zm-1.433-1.432c-.37.371-.81 1.026-.81 2.057l.001 6.871a3.41 3.41 0 0 0 3.407 3.405l30.538-.005c.447.001.89-.087 1.303-.258s.788-.423 1.104-.74.568-.691.74-1.105a3.39 3.39 0 0 0 .258-1.304l-.002-6.869c0-1.105-.545-2.053-1.461-2.536-1.313-.693-2.86-.203-3.868.487l-2.342 1.604-22.008.002-2.343-1.601c-1.606-1.1-3.422-1.103-4.517-.008z" class="B"/><path d="M61.321 46.889h10.342v27.276H61.321V46.889z" class="F"/><path d="M62.282 47.751l8.417-.001.005 25.552-8.417.001-.005-25.552zm-2.052-2.052v2.052l.005 25.553.001 2.053h2.051l8.417-.001 2.053-.001v-2.053l-.005-25.553v-2.053h-2.053l-8.417.003H60.23z" class="D"/><path d="M67.817 151.994c-.397.399-.985.586-1.573.502a1.76 1.76 0 0 1-1.305-.889l-6.662-12.316-.012-63.429 16.49-.003.012 63.43-6.66 12.317c-.077.143-.174.274-.29.388z" class="G"/><path d="M59.119 76.252l14.782-.003.012 63.305-6.659 12.314a.65.65 0 0 1-.121.163c-.361.363-1.084.309-1.34-.162l-6.662-12.313-.012-63.304zm-2.002-2.001v2.003l.011 63.303.001.508.242.446 6.662 12.312c.416.771 1.169 1.287 2.063 1.418.442.067.894.03 1.32-.107s.814-.373 1.133-.686a2.72 2.72 0 0 0 .467-.626l6.657-12.314.24-.446v-.508l-.01-63.304v-2.001H73.9l-14.782.003h-2.001v-.001z" class="H"/><path d="M62.334 51.183h6.268v21.968h-6.268V51.183z" class="I"/><path d="M72.664 50.64c-.213.214-.465.384-.744.499a2.28 2.28 0 0 1-.879.175l-9.102.002a2.3 2.3 0 0 1-2.295-2.296l-.001-5.569a2.28 2.28 0 0 1 .673-1.622 2.27 2.27 0 0 1 1.621-.673l9.103-.002c.61 0 1.188.237 1.622.672a2.29 2.29 0 0 1 .675 1.622l.001 5.571c0 .611-.239 1.186-.674 1.621z" class="E"/><path d="M60.812 42.324c.29-.288.688-.468 1.125-.468l9.104-.002a1.6 1.6 0 0 1 1.592 1.593l.002 5.571c-.001.422-.169.827-.468 1.126s-.704.467-1.126.467l-9.102.001a1.6 1.6 0 0 1-1.594-1.593v-5.57c0-.438.18-.836.467-1.125zm-.993-.992c-.279.277-.501.607-.652.971s-.228.754-.227 1.147l.001 5.57c0 .8.313 1.551.88 2.118s1.32.879 2.118.879l9.102-.002c.8 0 1.553-.312 2.119-.879a2.98 2.98 0 0 0 .879-2.118v-5.571a2.98 2.98 0 0 0-.88-2.119c-.278-.279-.608-.5-.972-.651s-.754-.228-1.147-.227l-9.103.001c-.394 0-.784.078-1.147.229s-.694.373-.971.652z" class="B"/><path d="M82.761 78.828a2.03 2.03 0 0 1-1.443.6l-29.643.004a2.02 2.02 0 0 1-1.443-.598 2.02 2.02 0 0 1-.599-1.443l-.001-6.669c0-.565.227-.912.417-1.103.711-.711 1.938-.416 2.777.156l2.435 1.665a.64.64 0 0 0 .36.112l21.748-.005c.128.001.253-.038.358-.111l2.435-1.665c.644-.439 1.672-.809 2.452-.396.277.146.741.515.741 1.341l.001 6.668a2.03 2.03 0 0 1-.595 1.444z" class="E"/><path d="M50.546 70.115c.385-.384 1.223-.212 1.885.241l2.435 1.665a1.34 1.34 0 0 0 .756.234l21.749-.005a1.34 1.34 0 0 0 .756-.234l2.435-1.665c.888-.608 2.095-.712 2.095.365l.002 6.667c0 .37-.15.706-.394.947a1.33 1.33 0 0 1-.946.393l-29.643.008a1.34 1.34 0 0 1-1.34-1.34l-.001-6.669c0-.277.079-.473.211-.607zm-.993-.993c-.284.284-.622.793-.622 1.6l.001 6.669c.001.728.29 1.425.805 1.94s1.212.803 1.94.803l29.641-.005c.733 0 1.423-.285 1.94-.803.256-.254.459-.557.597-.89a2.73 2.73 0 0 0 .207-1.052l-.002-6.667c0-.874-.407-1.589-1.116-1.965-1.057-.556-2.333-.138-3.177.439l-2.418 1.653-21.708.004-2.417-1.652c-1.311-.896-2.82-.926-3.671-.074z" class="B"/><use xlink:href="#C" x="-66.999" class="D"/><path d="M65.806 151.64l-6.546-12.097-.01-54.458 14.524-.002.009 54.455-6.542 12.101c-.282.523-1.153.522-1.435 0z" class="J"/><path d="M66.523 152.031c-.288 0-.575-.131-.717-.392l-6.547-12.097-.01-54.457 7.263-.001c.001.001.299 66.948.011 66.948z" class="K"/><path d="M58.554 84.589l15.791-.041" class="L M N"/><path d="M80.467 70.915a.95.95 0 0 0-.094-.437l-2.249 1.538c-.222.153-.486.234-.755.234l-1.491.001c-.209.128-.45.198-.696.198l-21.749.004a1.34 1.34 0 0 1-.756-.234l-2.335-1.596-.008.098.001 6.669a1.34 1.34 0 0 0 1.341 1.34l28.147-.007a1.33 1.33 0 0 0 .645-1.14l-.001-6.668zM61.184 42.056c-.496.271-.84.792-.839 1.395l.001 5.57c0 .876.718 1.592 1.593 1.591h7.668c.498-.271.84-.791.84-1.394l-.001-5.571a1.6 1.6 0 0 0-1.594-1.592l-7.668.001z" class="C"/><path d="M61.689 42.87l4.706-.001c.424 0 .771.347.771.771-.001.204-.082.4-.226.545s-.34.226-.545.227l-4.705.001c-.205 0-.401-.082-.546-.227s-.226-.341-.226-.546c0-.422.347-.77.771-.77zm-6.093 31.864l11.987-.002c.205 0 .401-.082.546-.227s.226-.341.226-.546-.082-.4-.227-.545-.341-.226-.545-.226H55.595c-.205.001-.401.083-.545.228s-.226.341-.227.545c0 .424.348.773.773.773z" class="O"/><use xlink:href="#B" x="-33.999" y="14" class="C"/><path d="M93.678 56.232a1.63 1.63 0 0 1 1.152-.479l9.318-.003c.896 0 1.631.734 1.631 1.631l.002 5.704a1.64 1.64 0 0 1-1.632 1.63l-9.316.001a1.64 1.64 0 0 1-1.633-1.63v-5.703c0-.214.042-.426.124-.623s.202-.377.354-.528zm-1.423-1.424c-.34.337-.609.739-.792 1.181s-.277.916-.276 1.395l.001 5.703a3.65 3.65 0 0 0 3.645 3.644l9.317-.001a3.62 3.62 0 0 0 2.576-1.071c.339-.337.608-.738.791-1.18a3.6 3.6 0 0 0 .276-1.393l-.001-5.704c-.001-.966-.385-1.893-1.069-2.576s-1.61-1.067-2.576-1.068l-9.317.002c-.479-.002-.953.092-1.395.275s-.843.453-1.18.793z" class="B"/><path d="M115.959 93.027c-.215.217-.471.388-.753.505s-.585.177-.89.177l-29.641.004a2.31 2.31 0 0 1-1.644-.68c-.439-.439-.681-1.021-.681-1.643l-.001-6.669c.001-.663.271-1.073.499-1.301.707-.706 1.995-.655 3.135.123l2.436 1.664a.35.35 0 0 0 .2.063l21.748-.004a.35.35 0 0 0 .2-.062l2.435-1.666c.742-.508 1.853-.884 2.742-.413.567.298.893.878.894 1.59v6.668c.001.305-.058.608-.175.89s-.288.539-.504.754z" class="C"/><path d="M83.062 83.994c.396-.396 1.26-.219 1.942.248l2.508 1.716c.229.156.501.241.778.241l22.407-.005c.277 0 .549-.085.778-.241l2.508-1.716c.915-.627 2.157-.733 2.157.376l.002 6.869a1.37 1.37 0 0 1-1.379 1.38l-30.538.007a1.38 1.38 0 0 1-1.38-1.38l-.001-6.872c.002-.283.083-.485.218-.623zm-1.433-1.432c-.37.371-.81 1.026-.81 2.057l.001 6.871a3.41 3.41 0 0 0 3.407 3.405l30.538-.005a3.38 3.38 0 0 0 1.302-.258c.413-.171.789-.423 1.104-.74s.568-.691.74-1.105.259-.857.258-1.304l-.002-6.869c0-1.105-.545-2.053-1.461-2.536-1.313-.693-2.859-.203-3.867.487l-2.342 1.604-22.008.002-2.343-1.601c-1.606-1.1-3.422-1.103-4.517-.008z" class="B"/><path d="M94.321 60.889h10.342v27.276H94.321V60.889z" class="F"/><path d="M95.281 61.751l8.417-.001.005 25.552-8.416.001-.005-25.552zm-2.052-2.052v2.052l.005 25.553.001 2.053h2.051l8.417-.001 2.053-.001v-2.053l-.005-25.553v-2.053h-2.053l-8.416.003h-2.052z" class="D"/><path d="M100.817 165.994c-.397.399-.985.586-1.573.502a1.76 1.76 0 0 1-1.305-.889l-6.662-12.316-.012-63.429 16.489-.003.012 63.43-6.659 12.317c-.077.143-.175.274-.29.388z" class="G"/><path d="M92.119 90.252l14.782-.003.012 63.305-6.659 12.314a.64.64 0 0 1-.121.163c-.361.363-1.084.309-1.34-.162l-6.662-12.313-.012-63.305zm-2.002-2.001v2.003l.011 63.303.001.508.242.446 6.662 12.312c.416.771 1.169 1.287 2.063 1.418.442.067.894.03 1.32-.107a2.89 2.89 0 0 0 1.133-.686 2.72 2.72 0 0 0 .467-.626l6.657-12.314.24-.446v-.508l-.01-63.305v-2.001H106.9l-14.782.003h-2.001v-.001z" class="H"/><path d="M95.334 65.183h6.268v21.968h-6.268V65.183z" class="I"/><path d="M105.663 64.64c-.213.214-.465.384-.744.5a2.28 2.28 0 0 1-.879.174l-9.101.002a2.3 2.3 0 0 1-2.295-2.296l-.001-5.569a2.28 2.28 0 0 1 .673-1.622 2.27 2.27 0 0 1 1.621-.673l9.102-.002c.61 0 1.188.237 1.622.672a2.29 2.29 0 0 1 .675 1.622l.001 5.571c0 .611-.239 1.186-.674 1.621z" class="E"/><path d="M93.812 56.324c.29-.288.688-.468 1.125-.468l9.104-.002a1.6 1.6 0 0 1 1.592 1.593l.002 5.571c-.001.422-.169.827-.468 1.126a1.6 1.6 0 0 1-1.126.467l-9.102.001a1.6 1.6 0 0 1-1.594-1.593v-5.57c0-.438.18-.836.467-1.125zm-.993-.992a2.97 2.97 0 0 0-.652.971c-.151.364-.228.754-.227 1.147l.001 5.57c0 .8.313 1.551.88 2.118s1.32.879 2.118.879l9.102-.002c.8 0 1.553-.312 2.119-.879.279-.278.501-.608.651-.971a2.97 2.97 0 0 0 .228-1.147v-5.571a2.98 2.98 0 0 0-.88-2.119c-.278-.279-.608-.5-.972-.651a2.98 2.98 0 0 0-1.147-.227l-9.103.001c-.394 0-.783.078-1.147.229s-.694.373-.971.652z" class="B"/><path d="M115.761 92.827c-.189.19-.414.341-.661.444s-.514.156-.782.156l-29.643.004a2.02 2.02 0 0 1-1.443-.598 2.02 2.02 0 0 1-.599-1.443l-.001-6.669c0-.565.227-.912.417-1.103.711-.711 1.938-.416 2.777.156l2.435 1.665a.64.64 0 0 0 .36.112l21.748-.005c.128.001.253-.038.358-.111l2.435-1.665c.644-.439 1.672-.809 2.452-.396.277.146.741.515.741 1.341l.001 6.668c.001.268-.051.534-.153.782a2.02 2.02 0 0 1-.442.662z" class="E"/><path d="M83.545 84.115c.385-.384 1.223-.212 1.885.241l2.435 1.665a1.34 1.34 0 0 0 .756.234l21.748-.005a1.34 1.34 0 0 0 .756-.234l2.435-1.665c.888-.608 2.095-.712 2.095.365l.002 6.667c0 .37-.15.706-.394.947-.124.125-.271.224-.434.291s-.336.102-.512.102l-29.642.008a1.34 1.34 0 0 1-1.34-1.34l-.001-6.669c0-.277.079-.473.211-.607zm-.993-.993c-.284.284-.622.793-.622 1.6l.001 6.669c.001.728.29 1.425.805 1.94s1.213.803 1.94.803l29.64-.005c.733 0 1.423-.285 1.94-.803.256-.254.459-.557.597-.89a2.73 2.73 0 0 0 .207-1.052l-.002-6.667c0-.874-.407-1.589-1.116-1.965-1.057-.556-2.333-.138-3.177.439l-2.418 1.653-21.707.004-2.417-1.652c-1.311-.896-2.82-.926-3.671-.074z" class="B"/><use xlink:href="#C" x="-33.999" y="13.999" class="D"/><path d="M98.806 165.64l-6.546-12.097-.01-54.457 14.524-.002.009 54.455-6.542 12.101c-.282.523-1.153.522-1.435 0z" class="J"/><path d="M99.523 166.031c-.288 0-.575-.131-.717-.392l-6.547-12.097-.01-54.457 7.263-.001c.001.001.299 66.947.011 66.947z" class="K"/><path d="M91.554 98.589l15.791-.041" class="L M N"/><path d="M113.467 84.915c.004-.151-.028-.301-.094-.437l-2.249 1.538a1.33 1.33 0 0 1-.755.234l-1.491.001c-.209.128-.45.198-.696.198l-21.749.004a1.34 1.34 0 0 1-.756-.234l-2.335-1.596-.008.098.001 6.669a1.34 1.34 0 0 0 1.341 1.34l28.147-.007a1.33 1.33 0 0 0 .645-1.14l-.001-6.668zM94.184 56.056c-.496.271-.84.792-.839 1.395l.001 5.57c0 .876.718 1.592 1.593 1.591h7.668c.498-.271.84-.791.84-1.394l-.001-5.571a1.6 1.6 0 0 0-.469-1.125c-.298-.298-.703-.466-1.125-.467l-7.668.001z" class="C"/><path d="M94.689 56.87l4.706-.001c.424 0 .771.347.771.771-.001.204-.082.4-.227.545s-.34.226-.545.227l-4.705.001c-.205 0-.401-.082-.546-.227s-.226-.341-.226-.546c0-.422.347-.77.771-.77zm-6.093 31.864l11.987-.002c.204 0 .401-.082.546-.227s.226-.341.226-.546a.78.78 0 0 0-.227-.545c-.145-.144-.341-.226-.545-.226H88.595c-.205.001-.401.083-.545.228s-.226.341-.227.545c0 .424.348.773.773.773z" class="O"/><defs ><path id="B" d="M139.861 50.838a2.55 2.55 0 0 1-.835.561c-.312.13-.648.196-.986.195l-9.102.002a2.58 2.58 0 0 1-2.576-2.575l-.001-5.57a2.56 2.56 0 0 1 1.59-2.381c.312-.13.647-.196.985-.196h9.103c.683 0 1.338.271 1.821.753s.755 1.138.756 1.821l.001 5.571c.001.338-.066.673-.196.985s-.32.596-.56.834z"/><path id="C" d="M138.086 68.231v-.994s-1.819-.567-4.593-.566-4.563.568-4.563.568l.001.994s2.526-.569 4.563-.569 4.592.567 4.592.567zm-.001-5.919v-.994s-1.819-.567-4.594-.566-4.563.568-4.563.568l-.001.993s2.529-.568 4.564-.568 4.594.567 4.594.567zm-.001-5.377v-.994s-1.819-.566-4.593-.566-4.564.569-4.564.569l.001.993s2.528-.567 4.563-.568 4.593.566 4.593.566z"/></defs></svg>