<svg xmlns="http://www.w3.org/2000/svg" xmlns:xlink="http://www.w3.org/1999/xlink" width="129" height="128" fill="none" xmlns:v="https://vecta.io/nano"><mask id="A" mask-type="alpha" maskUnits="userSpaceOnUse" x="41" y="0" width="64" height="80"><path d="M46.363 32.495l-4.157-2.783L41 .613l48.908 3.562 14.795 75.485H64.152l-9.788-7.204-6.403-37.559c-.223-1.243-1.158-2.119-1.598-2.403z" fill="#c4c4c4"/></mask><g mask="url(#A)"><path d="M81.105 36.399l2.39-.733a2.5 2.5 0 0 0-4.75-.091l2.36.824zm-7.136 20.435l-2.36-.824-.029.09 2.39.735zm-21.436-.027l2.416-.644-.023-.081-2.393.724zm-6.185-20.435l2.393-.724a2.5 2.5 0 0 0-4.886.544l2.493.18zm16.665-24.289v-2.5 2.5zm-.951.272l-1.396-2.074-.008.005 1.404 2.069zM47.114 22.501l-1.404-2.068-.049.033-.047.035 1.5 2zm-.061.045l-1.5-2-.094.071-.087.079 1.682 1.85zm-.055.051l1.576 1.94.054-.044.052-.047-1.682-1.85zm-.706 1.176l-2.453-.481-.047.238v.242h2.5zm0 .03l2.421.624.079-.307v-.317h-2.5zm-3.214 12.469l-2.421-.624-.021.082-.016.083 2.457.46zm1.983 2.371v-2.5h-.009-.009l.017 2.5zm1.15-.363l1.436 2.047.972-.682.085-1.185-2.494-.18zm19.595-25.926l-1.396 2.074.009.006 1.387-2.08zm14.91 9.94l1.5-2-.055-.042-.058-.038-1.387 2.08zm.06.045l1.682-1.85-.087-.079-.094-.071-1.5 2zm.056.05l-1.682 1.85.052.047.054.044 1.576-1.94zm.706 1.176h2.5v-.243l-.047-.238-2.453.481zm0 .03h-2.5v.317l.079.307 2.421-.624zm3.214 12.469l2.457-.46-.016-.083-.021-.081-2.421.624zm-1.983 2.371l.017-2.5h-.009-.009v2.5zm-1.151-.363l-2.39.733.252.821.703.493 1.436-2.047zm-5.29 19.584l7.136-20.435-4.721-1.648-7.136 20.435 4.721 1.648zm-3.084 2.21c1.43 0 2.693-.933 3.113-2.3l-4.779-1.469c.225-.732.901-1.231 1.666-1.231v5zm-19.981 0h19.981v-5H53.264v5zm-3.147-2.418c.38 1.426 1.671 2.418 3.147 2.418v-5c.79 0 1.481.531 1.684 1.294l-4.831 1.287zm-6.162-20.355L50.14 57.53l4.786-1.448-6.185-20.435-4.786 1.448zM63.014 9.582a4.28 4.28 0 0 0-2.347.698l2.792 4.148c-.13.088-.228.12-.27.131a.63.63 0 0 1-.175.022v-5zm-2.355.704L45.71 20.432l2.808 4.137 14.949-10.146-2.808-4.137zM45.614 20.501l-.061.045 3 4 .061-.045-3-4zm-.242.196l-.055.05 3.363 3.7.056-.05-3.363-3.7zm.05-.04c-.82.666-1.381 1.599-1.584 2.635l4.907.961c-.022.112-.082.212-.171.284l-3.152-3.881zm-1.63 3.116v.03h5v-.03h-5zm.079-.594l-3.214 12.469 4.842 1.248 3.214-12.469-4.842-1.248zM40.62 35.812c-.122.653-.098 1.325.07 1.967l4.837-1.265c.019.071.021.145.008.217l-4.915-.919zm.07 1.967c.168.643.476 1.24.902 1.75l3.836-3.207c.047.056.081.122.099.193l-4.837 1.265zm.902 1.75c.426.509.959.918 1.562 1.198l2.101-4.537c.066.031.125.076.172.132l-3.836 3.207zm1.562 1.198c.603.279 1.26.421 1.924.417l-.035-5c.073-.001.146.015.212.046l-2.101 4.537zm1.906.417a4.51 4.51 0 0 0 2.586-.817l-2.871-4.093c.085-.059.183-.09.285-.09v5zm19.852-26.561a.91.91 0 0 1-.503-.154l2.792-4.148c-.671-.452-1.464-.698-2.289-.698v5zm-.494-.147l14.91 9.94 2.773-4.16-14.91-9.94-2.773 4.16zm14.797 9.86l.06.045 3-4-.061-.045-3 4zm-.121-.105l.055.05 3.363-3.7-.055-.05-3.363 3.7zm.161.141c-.088-.072-.149-.172-.171-.284l4.907-.961c-.203-1.037-.764-1.969-1.584-2.636l-3.152 3.881zm-.217-.765v.03h5v-.03h-5zm.079.654l3.214 12.469 4.842-1.248-3.214-12.469-4.842 1.248zm3.178 12.305c-.014-.072-.011-.146.008-.217l4.837 1.265c.168-.642.192-1.314.07-1.967l-4.915.919zm.008-.217a.5.5 0 0 1 .1-.193l3.836 3.207a4.5 4.5 0 0 0 .902-1.75l-4.837-1.265zm.1-.193c.047-.056.106-.101.172-.132l2.101 4.537c.603-.279 1.136-.688 1.562-1.198l-3.836-3.207zm.172-.132c.067-.031.139-.047.212-.046l-.035 5c.664.005 1.321-.138 1.924-.417l-2.101-4.537zm.195-.046c.102 0 .2.031.285.09l-2.871 4.093c.761.534 1.666.817 2.586.817v-5zM64.917 9.582h-.005v5h.005v-5zm-1.904 5h1.904v-5h-1.904v5zM48.704 38.46l.138-1.909-4.987-.36-.138 1.909 4.987.36zm35.305-1.119l-.514-1.675-4.78 1.466.514 1.675 4.78-1.466z" fill="#000"/><path d="M53.263 56.612h19.981l7.136-20.435-16.651-9.587-16.651 9.587 6.185 20.435z" fill="url(#B)"/><path d="M78.043 45l5 28m-34-28l-5 28" stroke="#000" stroke-width="5"/><path d="M49.043 45h29l5 28h-39l5-28z" fill="#4c7ede"/><path fill-rule="evenodd" d="M63.354 25.933c.234-.135.522-.135.755 0L80.76 35.52c.306.176.45.541.346.878l-3.062 8.6 2.5 14c-.098.318-.391.534-.723.534l-32.777.466c-.343 0-.643-.231-.731-.562l2.731-14.438-2.695-8.628c-.088-.331.057-.68.354-.851l16.651-9.587zM47.961 36.542l2.583 8.456-2.5 13 30.5-.5-2-12.5 2.937-8.468-15.75-9.068-15.77 9.08z" fill="#304e89"/><path d="M66.324 57.59H61.51l-.807-5.681a2.9 2.9 0 0 1 1.579-2.583c.964-.495 2.104-.505 3.078-.035l.111.05c.491.238.906.609 1.196 1.071s.444.997.444 1.543l-.782 5.636h-.005zm-.555-17.372h-3.714l-.621-4.309a2.21 2.21 0 0 1 1.216-1.968 2.71 2.71 0 0 1 2.382-.025l.081.04c.377.178.695.46.918.811s.342.76.343 1.177l-.605 4.274z" fill="#000"/><path d="M45.066 37.886a1.26 1.26 0 0 1-.968-.457 1.26 1.26 0 0 1-.268-1.037l3.209-12.161c.05-.303.212-.565.439-.752l.025-.025 15.142-10.091.267-.015c.454 0 .828.368.828.822v12.176a1.24 1.24 0 0 1-.464.974l-.04.035-17.433 10.293c-.217.162-.469.242-.737.242v-.005z" fill="url(#C)"/><path d="M62.917 13.803c.035 0 .066.025.066.071v12.469c0 .074-.016.147-.047.215s-.077.127-.134.174L45.378 37.019a.49.49 0 0 1-.313.111c-.074 0-.147-.017-.213-.048s-.126-.077-.173-.134-.081-.123-.1-.195-.021-.146-.008-.219l3.209-12.479c.022-.115.085-.219.177-.293l14.92-9.95c.012-.007.026-.011.04-.01zm0-1.514a1.59 1.59 0 0 0-.893.273l-14.91 9.94-.061.045-.055.05c-.366.297-.616.713-.706 1.176v.03l-3.214 12.469a2 2 0 0 0 .031.875c.075.286.212.552.401.778s.427.409.695.533a2 2 0 0 0 .856.185c.409 0 .812-.126 1.15-.363l17.357-10.243.096-.061.086-.071c.233-.189.42-.427.549-.698s.194-.567.193-.866V13.874c0-.873-.706-1.584-1.579-1.584h.005z" fill="#304e89"/><path d="M82.756 37.886c.185-.001.368-.042.535-.121a1.26 1.26 0 0 0 .433-.336c.118-.143.203-.309.249-.488a1.26 1.26 0 0 0 .019-.548l-3.209-12.161c-.05-.303-.212-.565-.439-.752l-.025-.025-15.142-10.091-.267-.015c-.454 0-.828.368-.828.822v12.176a1.24 1.24 0 0 0 .464.974l.04.035L82.02 37.648c.217.162.469.242.737.242v-.005z" fill="url(#D)"/><path d="M64.906 13.803c-.035 0-.066.025-.066.071v12.469c0 .074.016.147.047.215s.077.127.134.174l17.423 10.288a.49.49 0 0 0 .313.111c.074 0 .147-.017.213-.048s.126-.077.173-.134.081-.123.1-.195.021-.146.008-.219l-3.209-12.479c-.022-.115-.085-.219-.177-.293l-14.92-9.95c-.012-.007-.026-.011-.04-.01zm0-1.514a1.59 1.59 0 0 1 .893.273l14.91 9.94.061.045.055.05c.366.297.616.713.706 1.176v.03l3.214 12.469c.054.29.044.589-.031.875s-.212.552-.401.778-.427.409-.695.533-.56.188-.856.185c-.409 0-.812-.126-1.15-.363L64.255 28.038l-.096-.061-.086-.071c-.233-.189-.42-.427-.549-.698s-.194-.567-.193-.866V13.874c0-.873.706-1.584 1.579-1.584h-.005z" fill="#304e89"/><path d="M62.441 12.381s.597-.298 1.492-.298 1.492.298 1.492.298l-.163.711H62.74l-.298-.711z" fill="#304e89"/><path d="M77.043 45h-27" stroke="#304e89" stroke-width="1.5"/></g><path d="M91.086 87.355l2.39-.733a2.5 2.5 0 0 0-4.75-.091l2.36.824zM79.83 119.588l-2.36-.825-.029.09 2.39.735zm-33.811-.044l2.416-.644-.023-.08-2.393.724zm-9.755-32.233l2.393-.724a2.5 2.5 0 0 0-4.886.544l2.494.18zM62.551 49v-2.5V49zm-1.5.43l-1.396-2.074-.008.005 1.404 2.069zM37.472 65.434l-1.404-2.068-.049.033-.047.035 1.5 2zm-.096.072l-1.5-2-.094.071-.087.079 1.682 1.85zm-.087.079l1.576 1.941.054-.044.052-.047-1.682-1.85zm-1.114 1.854l-2.453-.481-.047.238v.243h2.5zm0 .048l2.421.624.079-.307v-.317h-2.5zm-5.07 19.668l-2.421-.624-.021.082-.015.083 2.457.46zm3.128 3.741v-2.5h-.009-.009l.017 2.5zm1.814-.573l1.436 2.047.972-.682.085-1.185-2.494-.18zM66.954 49.43l-1.396 2.074.009.006 1.387-2.08zm23.518 15.679l1.5-2-.055-.042-.058-.038-1.387 2.08zm.096.072l1.682-1.85-.087-.079-.094-.071-1.5 2zm.088.08l-1.682 1.85.052.047.054.044 1.576-1.94zm1.114 1.854h2.5v-.243l-.047-.238-2.453.481zm0 .048h-2.5v.317l.079.307 2.421-.624zm5.07 19.668l2.458-.46-.016-.083-.021-.082-2.421.624zm-3.128 3.741l.018-2.5h-.009-.009v2.5zm-1.815-.573l-2.39.733.252.82.703.493 1.436-2.047zm-9.706 30.415l11.256-32.233-4.721-1.648-11.256 32.232 4.72 1.649zm-3.501 2.519c1.622 0 3.054-1.059 3.531-2.609l-4.779-1.469c.168-.548.675-.922 1.248-.922v5zm-31.516 0h31.516v-5H47.173v5zm-3.569-2.743c.431 1.617 1.895 2.743 3.569 2.743v-5c.592 0 1.11.397 1.262.969l-4.831 1.288zm-9.732-32.152l9.755 32.232 4.786-1.448-9.755-32.233-4.786 1.448zM62.551 46.5c-.922 0-2.004.256-2.896.856l2.792 4.148c-.031.021-.047.028-.045.026a.29.29 0 0 1 .036-.012.53.53 0 0 1 .068-.014c.023-.003.039-.004.044-.004v-5zm-2.904.861L36.068 63.365l2.808 4.137 23.579-16.004-2.808-4.137zM35.972 63.434l-.096.072 3 4 .096-.072-3-4zm-.277.222l-.087.08 3.363 3.7.087-.08-3.363-3.7zm.018-.011c-1.031.838-1.736 2.011-1.991 3.314l4.907.961c.03-.155.114-.295.237-.394l-3.152-3.881zm-2.038 3.795v.048h5v-.048h-5zm.079-.576l-5.07 19.668 4.842 1.248 5.07-19.668-4.842-1.248zm-5.106 19.832a5.66 5.66 0 0 0 .088 2.472l4.837-1.265a.66.66 0 0 1-.01-.288l-4.915-.919zm.088 2.472a5.66 5.66 0 0 0 1.134 2.199l3.836-3.207a.66.66 0 0 1-.132-.256l-4.837 1.265zm1.134 2.199a5.66 5.66 0 0 0 1.963 1.505l2.101-4.537a.66.66 0 0 1-.229-.175l-3.836 3.207zm1.963 1.505a5.66 5.66 0 0 0 2.418.524l-.035-5a.66.66 0 0 1-.282-.061l-2.101 4.537zm2.401.524c1.156 0 2.294-.356 3.25-1.026l-2.871-4.093c-.11.077-.245.12-.379.12v5zM65.546 51.5l2.805-4.144a5.01 5.01 0 0 0-2.805-.856v5zm.022.01l23.518 15.679 2.773-4.16L68.341 47.35l-2.773 4.16zm23.405 15.599l.096.072 3-4-.096-.072-3 4zm-.086-.079l.088.08 3.363-3.7-.088-.08-3.363 3.7zm.193.17c.123.1.207.239.237.394l4.907-.961c-.256-1.304-.96-2.477-1.991-3.314L89.079 67.2zm.19-.086v.048h5v-.048h-5zm.079.672l5.07 19.668 4.842-1.248-5.07-19.668-4.842 1.248zm5.033 19.504a.66.66 0 0 1-.01.288l4.837 1.265a5.67 5.67 0 0 0 .088-2.472l-4.915.919zm-.01.288a.66.66 0 0 1-.132.256l3.836 3.207c.535-.64.923-1.391 1.134-2.199l-4.837-1.265zm-.132.256a.66.66 0 0 1-.229.175l2.101 4.537a5.66 5.66 0 0 0 1.963-1.505l-3.836-3.207zm-.229.175a.66.66 0 0 1-.282.061l-.035 5a5.66 5.66 0 0 0 2.418-.524l-2.101-4.537zm-.299.061c-.133 0-.268-.042-.379-.12l-2.871 4.093c.956.671 2.095 1.026 3.25 1.026v-5zM65.554 46.5h-.008v5h.008v-5zm-3.003 5h3.003v-5h-3.003v5zm-24.01 39.003l.217-3.011-4.987-.36-.217 3.011 4.987.36zm55.746-1.239l-.811-2.642-4.78 1.466.811 2.643 4.78-1.466z" fill="#000"/><path d="M47.173 119.237h31.516l11.256-32.233-26.264-15.121-26.264 15.121 9.755 32.233z" fill="url(#E)"/><path fill-rule="evenodd" d="M63.085 70.847c.369-.212.823-.212 1.191 0L90.54 85.968c.483.278.709.853.545 1.385l-11.256 32.233c-.154.501-.617.843-1.141.843H47.172c-.541 0-1.014-.364-1.154-.887L36.263 87.31c-.139-.522.09-1.072.558-1.342l26.264-15.121zM38.806 87.58l9.283 30.462h29.717l10.717-30.48L63.68 73.259 38.806 87.58z" fill="#304e89"/><path d="M66.866 120.781h-7.593L58 111.82a4.58 4.58 0 0 1 .672-2.389c.44-.719 1.069-1.302 1.819-1.686 1.52-.78 3.319-.796 4.855-.056l.175.08c.775.375 1.428.96 1.885 1.689s.7 1.573.701 2.433l-1.234 8.89h-.008zm-.876-27.402h-5.858l-.979-6.797c0-1.305.74-2.507 1.918-3.104.582-.292 1.223-.448 1.874-.455s1.295.135 1.883.415l.127.064a3.48 3.48 0 0 1 1.99 3.136l-.955 6.741z" fill="#000"/><path d="M34.242 89.704a1.99 1.99 0 0 1-1.527-.721 1.99 1.99 0 0 1-.423-1.635l5.062-19.181a1.95 1.95 0 0 1 .692-1.186l.04-.04L61.97 51.024l.422-.024c.716 0 1.305.581 1.305 1.297v19.205c0 .597-.263 1.162-.732 1.536l-.064.056L35.404 89.33a1.92 1.92 0 0 1-1.162.382v-.008z" fill="url(#F)"/><path d="M62.398 51.712c.056 0 .103.04.103.112v19.668c0 .117-.025.232-.075.338s-.122.2-.212.275L34.734 88.332a.77.77 0 0 1-.493.175c-.116 0-.231-.026-.337-.076s-.198-.122-.273-.211-.128-.194-.158-.307-.034-.23-.013-.345l5.062-19.684a.78.78 0 0 1 .279-.462l23.534-15.695c.019-.011.041-.017.064-.016zm0-2.388a2.51 2.51 0 0 0-1.409.43L37.472 65.433l-.096.072-.087.08c-.577.469-.971 1.125-1.114 1.854v.048l-5.07 19.668a3.16 3.16 0 0 0 .682 2.608 3.16 3.16 0 0 0 2.446 1.133c.645 0 1.281-.199 1.814-.573l27.378-16.156.151-.096.135-.112a3.16 3.16 0 0 0 1.17-2.467V51.823c0-1.377-1.114-2.499-2.491-2.499h.008z" fill="#304e89"/><path d="M93.693 89.7a1.99 1.99 0 0 0 1.527-.721 1.99 1.99 0 0 0 .423-1.635l-5.062-19.181a1.95 1.95 0 0 0-.692-1.186l-.04-.04L65.965 51.02l-.422-.024c-.716 0-1.305.581-1.305 1.297v19.205c0 .597.263 1.162.732 1.536l.064.056 27.497 16.236a1.92 1.92 0 0 0 1.162.382V89.7z" fill="url(#G)"/><g fill="#304e89"><path d="M65.534 51.712c-.056 0-.103.04-.103.112v19.668c0 .117.025.232.075.338s.122.2.212.275l27.481 16.228a.77.77 0 0 0 .493.175c.116 0 .231-.026.337-.076s.198-.122.273-.211.128-.194.158-.307.034-.23.013-.345L89.41 67.884a.78.78 0 0 0-.279-.462L65.598 51.728a.12.12 0 0 0-.064-.016zm0-2.388a2.51 2.51 0 0 1 1.409.43l23.518 15.679.096.072.088.08c.577.469.971 1.125 1.114 1.854v.048l5.07 19.668a3.16 3.16 0 0 1-.682 2.608 3.16 3.16 0 0 1-2.446 1.133c-.645 0-1.281-.199-1.815-.573L64.507 74.165l-.151-.096-.135-.112a3.16 3.16 0 0 1-1.17-2.467V51.823c0-1.377 1.114-2.499 2.491-2.499h-.008z"/><path d="M61.648 49.471S62.59 49 64.002 49s2.354.471 2.354.471l-.257 1.121h-3.979l-.471-1.121z"/></g><defs><linearGradient id="B" x1="63.729" y1="36.177" x2="63.729" y2="69.983" xlink:href="#H"><stop offset=".005" stop-color="#77a1f0"/><stop offset=".271" stop-color="#4c7ede"/><stop offset=".531" stop-color="#3267cd"/></linearGradient><linearGradient id="C" x1="63.201" y1="27.623" x2="46.651" y2="18.066" xlink:href="#H"><stop offset=".104" stop-color="#77a1f0"/><stop offset=".479" stop-color="#4c7ede"/><stop offset=".865" stop-color="#3267cd"/></linearGradient><linearGradient id="D" x1="64.622" y1="27.623" x2="81.172" y2="18.066" xlink:href="#H"><stop offset=".104" stop-color="#77a1f0"/><stop offset=".479" stop-color="#4c7ede"/><stop offset=".865" stop-color="#3267cd"/></linearGradient><linearGradient id="E" x1="63.682" y1="87.004" x2="63.682" y2="140.327" xlink:href="#H"><stop offset=".099" stop-color="#77a1f0"/><stop offset=".5" stop-color="#4c7ede"/><stop offset=".917" stop-color="#3267cd"/></linearGradient><linearGradient id="F" x1="62.845" y1="73.516" x2="36.741" y2="58.442" xlink:href="#H"><stop offset=".161" stop-color="#77a1f0"/><stop offset=".589" stop-color="#4c7ede"/><stop offset=".917" stop-color="#3267cd"/></linearGradient><linearGradient id="G" x1="65.09" y1="73.512" x2="91.194" y2="58.438" xlink:href="#H"><stop offset=".161" stop-color="#77a1f0"/><stop offset=".589" stop-color="#4c7ede"/><stop offset=".917" stop-color="#3267cd"/></linearGradient><linearGradient id="H" gradientUnits="userSpaceOnUse"/></defs></svg>