<svg xmlns="http://www.w3.org/2000/svg" xmlns:xlink="http://www.w3.org/1999/xlink" width="200" height="200"><style>.st6{fill:#223948}.st8{fill:#f5f5f5}.st19{opacity:.5}</style><g id="dice_x5F_darkred_x5F_2-regular-active"><g id="dice_x5F_red_x5F_1_x5F_active"><image width="833" height="833" xlink:href="80B54391.png" transform="matrix(.24 0 0 .24 2.669 2.669)" overflow="visible" opacity=".33"/><radialGradient id="SVGID_1_" cx="98.603" cy="98.604" r="89.935" gradientUnits="userSpaceOnUse"><stop offset=".181" stop-color="#fe404d"/><stop offset=".894" stop-color="#e52c2a"/></radialGradient><path d="M167.683 188.539H29.524c-11.471 0-20.855-9.385-20.855-20.855V29.524c0-11.471 9.385-20.855 20.855-20.855h138.159c11.471 0 20.855 9.385 20.855 20.855v138.159c.001 11.471-9.384 20.856-20.855 20.856z" fill="url(#SVGID_1_)"/><path class="st6" d="M167.683 8.669c11.471 0 20.855 9.385 20.855 20.855v138.159c0 11.471-9.385 20.855-20.855 20.855H29.524c-11.471 0-20.855-9.385-20.855-20.855V29.524c0-11.471 9.385-20.855 20.855-20.855h138.159m0-4H29.524c-13.706 0-24.855 11.15-24.855 24.855v138.159c0 13.706 11.15 24.855 24.855 24.855h138.159c13.706 0 24.855-11.15 24.855-24.855V29.524c.001-13.705-11.149-24.855-24.855-24.855z"/><g><g id="_x31__323_"><path class="st8" d="M98.604 119.345c-10.667 0-19.344-8.678-19.344-19.345s8.678-19.345 19.344-19.345 19.345 8.678 19.345 19.345-8.679 19.345-19.345 19.345z"/><path class="st6" d="M98.604 81.405c10.27 0 18.595 8.325 18.595 18.595s-8.325 18.595-18.595 18.595c-10.269 0-18.594-8.325-18.594-18.595s8.324-18.595 18.594-18.595m0-1.5c-11.08 0-20.094 9.015-20.094 20.095s9.014 20.095 20.094 20.095 20.095-9.015 20.095-20.095-9.015-20.095-20.095-20.095z"/></g><path d="M114.189 89.983c-.861-1.349-1.422-1.896-1.529-2.067-.405-.659 7.994 14.252-6.532 23.637-13.425 8.673-24.119-3.216-24.471-3.72-.08-.117.16.559 1.197 2.181 5.531 8.652 17.03 11.183 25.682 5.651 8.654-5.531 11.185-17.029 5.653-25.682z" fill="#bababa" id="_x31__321_"/></g><g><g id="_x31__319_"><path class="st8" d="M98.604 119.345c-10.667 0-19.344-8.678-19.344-19.345s8.678-19.345 19.344-19.345 19.345 8.678 19.345 19.345-8.679 19.345-19.345 19.345z"/><path class="st6" d="M98.604 81.405c10.27 0 18.595 8.325 18.595 18.595s-8.325 18.595-18.595 18.595c-10.269 0-18.594-8.325-18.594-18.595s8.324-18.595 18.594-18.595m0-1.5c-11.08 0-20.094 9.015-20.094 20.095s9.014 20.095 20.094 20.095 20.095-9.015 20.095-20.095-9.015-20.095-20.095-20.095z"/></g><path d="M114.325 90.068c.855 1.353 1.112 2.093 1.223 2.262.424.647-9.51-13.288-24.175-4.119-13.551 8.474-7.326 23.203-7.019 23.735.071.123-.438-.382-1.466-2.01-5.486-8.682-2.896-20.166 5.785-25.652s20.165-2.896 25.652 5.784z" fill="#878787" id="_x31__317_"/></g></g></g></svg>