<svg xmlns="http://www.w3.org/2000/svg" xmlns:xlink="http://www.w3.org/1999/xlink" width="200.126" height="200"><style>.st4{fill:#878787}.st6{fill:#223948}.st8{fill:#f5f5f5}.st19{opacity:.5}</style><g id="dice_x5F_darkred_x5F_2-regular-active"><g id="dice_x5F_red_x5F_4_x5F_active"><image width="833" height="833" xlink:href="23496A5B.png" transform="matrix(.24 0 0 .24 2.74 2.669)" overflow="visible" opacity=".33"/><radialGradient id="SVGID_1_" cx="98.675" cy="98.604" r="89.935" gradientUnits="userSpaceOnUse"><stop offset=".181" stop-color="#fe404d"/><stop offset=".894" stop-color="#e52c2a"/></radialGradient><path d="M167.755 188.539H29.596c-11.471 0-20.855-9.385-20.855-20.855V29.524c0-11.471 9.385-20.855 20.855-20.855h138.159c11.471 0 20.855 9.385 20.855 20.855v138.159c0 11.471-9.384 20.856-20.855 20.856z" fill="url(#SVGID_1_)"/><path class="st6" d="M167.755 8.669c11.471 0 20.855 9.385 20.855 20.855v138.159c0 11.471-9.385 20.855-20.855 20.855H29.596c-11.471 0-20.855-9.385-20.855-20.855V29.524c0-11.471 9.385-20.855 20.855-20.855h138.159m0-4H29.596c-13.705 0-24.855 11.15-24.855 24.855v138.159c0 13.706 11.15 24.855 24.855 24.855h138.159c13.705 0 24.855-11.15 24.855-24.855V29.524c0-13.705-11.15-24.855-24.855-24.855z"/><g><g id="_x31__259_"><path class="st8" d="M153.111 62.531c-10.667 0-19.345-8.678-19.345-19.345s8.678-19.345 19.345-19.345 19.345 8.678 19.345 19.345-8.678 19.345-19.345 19.345z"/><path class="st6" d="M153.111 24.592c10.27 0 18.595 8.325 18.595 18.595s-8.325 18.595-18.595 18.595-18.595-8.325-18.595-18.595 8.326-18.595 18.595-18.595m0-1.5c-11.08 0-20.095 9.015-20.095 20.095s9.015 20.095 20.095 20.095 20.095-9.015 20.095-20.095-9.015-20.095-20.095-20.095z"/></g><g id="_x31__257_" class="st19"><path class="st4" d="M168.833 33.255c.854 1.353 1.111 2.093 1.223 2.262.423.647-9.512-13.289-24.176-4.119-13.551 8.474-7.326 23.203-7.018 23.735.07.123-.438-.382-1.467-2.01-5.486-8.682-2.896-20.166 5.784-25.653 8.681-5.486 20.167-2.896 25.654 5.785z"/></g><g id="_x31__255_"><path class="st8" d="M42.274 174.098c-10.667 0-19.345-8.678-19.345-19.346 0-10.666 8.678-19.344 19.345-19.344s19.345 8.678 19.345 19.344c0 10.667-8.678 19.346-19.345 19.346z"/><path class="st6" d="M42.274 136.158c10.27 0 18.595 8.325 18.595 18.594 0 10.271-8.325 18.596-18.595 18.596s-18.595-8.325-18.595-18.596c.001-10.269 8.326-18.594 18.595-18.594m0-1.5c-11.08 0-20.095 9.014-20.095 20.094 0 11.081 9.015 20.096 20.095 20.096s20.095-9.015 20.095-20.096c0-11.08-9.015-20.094-20.095-20.094z"/></g><g id="_x31__253_" class="st19"><path class="st4" d="M57.995 144.821c.855 1.352 1.112 2.093 1.223 2.262.424.647-9.51-13.289-24.175-4.119-13.551 8.474-7.326 23.203-7.019 23.735.071.123-.438-.383-1.467-2.011-5.486-8.681-2.896-20.166 5.785-25.652s20.167-2.896 25.653 5.785z"/></g><g><g id="_x31__251_"><path class="st8" d="M42.274 62.531c-10.667 0-19.345-8.678-19.345-19.345s8.678-19.345 19.345-19.345 19.345 8.678 19.345 19.345-8.678 19.345-19.345 19.345z"/><path class="st6" d="M42.274 24.592c10.27 0 18.595 8.325 18.595 18.595s-8.325 18.595-18.595 18.595S23.68 53.456 23.68 43.187s8.325-18.595 18.594-18.595m0-1.5c-11.08 0-20.095 9.015-20.095 20.095s9.015 20.095 20.095 20.095 20.095-9.015 20.095-20.095-9.015-20.095-20.095-20.095z"/></g><g id="_x31__249_" class="st19"><path class="st4" d="M57.995 33.255c.855 1.353 1.112 2.093 1.223 2.262.424.647-9.51-13.289-24.175-4.119-13.551 8.474-7.326 23.203-7.019 23.735.071.123-.438-.382-1.467-2.01-5.486-8.682-2.896-20.166 5.785-25.653 8.682-5.486 20.167-2.896 25.653 5.785z"/></g></g><g><g id="_x31__247_"><path class="st8" d="M153.111 174.098c-10.667 0-19.345-8.678-19.345-19.346 0-10.666 8.678-19.344 19.345-19.344s19.345 8.678 19.345 19.344c0 10.667-8.678 19.346-19.345 19.346z"/><path class="st6" d="M153.111 136.158c10.27 0 18.595 8.325 18.595 18.594 0 10.271-8.325 18.596-18.595 18.596s-18.595-8.325-18.595-18.596c.001-10.269 8.326-18.594 18.595-18.594m0-1.5c-11.08 0-20.095 9.014-20.095 20.094 0 11.081 9.015 20.096 20.095 20.096s20.095-9.015 20.095-20.096c0-11.08-9.015-20.094-20.095-20.094z"/></g><g id="_x31__245_" class="st19"><path class="st4" d="M168.833 144.821c.854 1.352 1.111 2.093 1.223 2.262.423.647-9.512-13.289-24.176-4.119-13.551 8.474-7.326 23.203-7.018 23.735.07.123-.438-.383-1.467-2.011-5.486-8.681-2.896-20.166 5.784-25.652s20.167-2.896 25.654 5.785z"/></g></g></g></g></g></svg>