<svg xmlns="http://www.w3.org/2000/svg" xmlns:xlink="http://www.w3.org/1999/xlink" width="346.21" height="399.65" viewBox="0 0 346.21 399.65"><defs><linearGradient id="linear-gradient" x1="-1361.58" y1="-2697.06" x2="-1382.5" y2="-2733.28" gradientTransform="rotate(60 -2971.6124 78.8963)" gradientUnits="userSpaceOnUse"><stop offset=".19" stop-color="#e8cf96"/><stop offset=".31" stop-color="#e8cf96" stop-opacity=".82"/><stop offset=".56" stop-color="#e8cf96" stop-opacity=".47"/><stop offset=".77" stop-color="#e8cf96" stop-opacity=".22"/><stop offset=".92" stop-color="#e8cf96" stop-opacity=".06"/><stop offset="1" stop-color="#e8cf96" stop-opacity="0"/></linearGradient><linearGradient id="linear-gradient-2" x1="-1230.14" y1="-2692.91" x2="-1206.79" y2="-2733.35" xlink:href="#linear-gradient"/><linearGradient id="linear-gradient-3" x1="-4839.48" y1="684.01" x2="-4806.97" y2="684.01" gradientTransform="rotate(180 -2403.165 443.205)" xlink:href="#linear-gradient"/><style>.cls-4{fill:#57afd6}.cls-5{fill:#80cff3}.cls-6{fill:#f2e8c0}.cls-7{fill:#e0b569}</style></defs><g id="Layer_5" data-name="Layer 5"><g style="opacity:0"><path style="fill:#0a67a6" d="M2 298.67l.26-197.6L173.31 2.31l170.9 98.67-.05 197.6-171.06 98.76L2 298.67z"/><path d="M173.31 4.62l168.9 97.51v195.29L173.1 395 4 297.51l.26-195.29 169.05-97.6m0-4.62L.26 99.91 0 299.82l173.1 99.83 173.06-99.92V99.82L173.31 0z" style="fill:#3873a0"/></g><path class="cls-4" d="M346.21 99.82L173.31 0l-33.6 19.4c0 .33-1.46 10.18-1.43 10.51.62 6.41 3.86 6.57 4.48 13 .48 4.9 2.56 9 4.27 13.28 6.18 15.38 25.13 16.41 36.87 26.34 3.87 3.27 7 7.54 11.07 10.47 5.71 4.07 13 5.31 19 9 10 6.24 15.63 19.21 27 22.67 3.59 1.09 2.8 1.2 6.55 1.82 4.82.79 9.65 3.29 14.13 5s1.63 10.45 6.12 12.38c6.25 4.62 9.19 8.42 8 15-.9 5 1.25 7.27.77 12.29-.67 7 1.92 13.94 1.66 20.94-.42 11.75-8.82 23.15-6.13 34.71.85 3.66 2.77 7.1 4.12 10.66a70.81 70.81 0 013.24 14.05c1.53 9.55 3.06 19.13 3.08 28.76a26.79 26.79 0 00.55 7.09c1.18 4.35 4.75 8 8.22 11.56 2.36 2.39 4 6.25 7.3 7.85 2.14 1 9.76 10 13.88 12.42l33.74-19.48z"/><path class="cls-5" d="M346.21 99.82L173.31 0l-25.78 14.88c0 .33.58 2.07.62 2.39.62 6.42 2.51 6.36 3.13 12.77.48 4.9 1 9.87 2.68 14.13 6.18 15.38 25.12 16.41 36.87 26.34 3.86 3.27 7 7.54 11.07 10.47 5.71 4.07 13 5.31 19 9 10 6.24 15.63 19.21 27 22.67 3.59 1.09 7.53 1.14 11.29 1.76 4.82.79 5.48 5.74 10 7.44 6.54 2.47 5.62 9.87 8.5 13.87-.27 9.53 14.34 8.78 14.87 19.75.25 5.05-1.64 10.65-2.12 15.67-.68 7 1.92 13.94 1.66 20.94-.43 11.75-8.82 23.15-6.13 34.71.84 3.66 2.77 7.1 4.11 10.66a70.84 70.84 0 013.25 14.05c1.53 9.55 3.06 19.13 3.08 28.76a26.79 26.79 0 00.55 7.09c1.18 4.35 4.75 8 8.22 11.56 2.36 2.39 4 6.25 7.3 7.85 2.14 1 5.63 4.4 9.75 6.81l24-13.87z"/><path class="cls-6" d="M346.21 99.82L173.31 0 157.1 9.36c0 .32.91 1.57 1.54 8 .47 4.89 1 9.86 2.68 14.12 6.17 15.38 25.12 16.41 36.87 26.34 3.86 3.27 7 7.54 11.06 10.47 5.71 4.07 13 5.31 19 9 10 6.25 12.5 18 23.86 21.42 3.58 1.09 9.66 4.78 13.42 5.4 4.82.79 5.53 7.54 10 9.25 9 3.45 1.41 5.83 9.75 10.62.75.44 4.49 11.59 5.25 12 4.88 4 17.63 11.13 18.08 20.36.24 5-3.05 9.8-3.54 14.81-.67 7 1.92 13.94 1.67 20.94-.43 11.76-8.82 23.15-6.14 34.72.85 3.65 2.78 7.09 4.12 10.66a70.68 70.68 0 013.25 14c1.52 9.55 3.05 19.12 3.07 28.75a26.8 26.8 0 00.56 7.09c1.18 4.35 4.75 8 8.22 11.56 2.35 2.39 4.78 4.83 8 6.43a44.59 44.59 0 005.15 2l13.17-7.61z"/><path class="cls-7" d="M346.19 99.79L173.29 0l-5.83 3.37s5.49 7 5.92 9.62a25.06 25.06 0 003.62 9.26c2.06 3.2 1.84 7.55 4.38 10.38 7 7.87 20.07 12.26 30.89 20.71 3.55 2.78 6.54 6.25 10.27 8.79 5.19 3.54 11.51 5.09 16.86 8.39 9 5.53 14.9 15.74 24.82 19.3 3.14 1.12 6.49 1.5 9.73 2.28 4.16 1 3.39 1.46 7.33 3.13 8 3.35 2.1 8.49 5.59 10.77 1.78 1.17 4.12 7.66 5.75 8.5 1.91 1 4.12 5.25 7 6.75 1.54.81 3.56 6.71 4.5 9.25.83 2.25 8.94 4.2 9 8 .14 8.52 8.39 8.3 6.47 21.88-.63 4.47-2.14 8.8-2.47 13.3-.48 6.27 1.34 12.51 1.16 18.79-.3 10.55-6.18 20.77-4.3 31.15.6 3.28 1.95 6.37 2.89 9.57a78.85 78.85 0 012.27 12.6c1.07 8.58 2.15 17.17 2.16 25.81a30.05 30.05 0 00.39 6.36c.83 3.9 3.33 7.21 5.76 10.37a22.63 22.63 0 005.65 5.77c1.86 1.16 6.57 7.46 7.9 8.61l3.35-1.72 1.82-1.26z"/><path d="M346.21 99.82L173.29 0l-5.83 3.37s5.49 7 5.92 9.62a25.06 25.06 0 003.62 9.26c2.06 3.2 1.84 7.55 4.38 10.38 7 7.87 20.07 12.26 30.88 20.71 3.56 2.78 6.55 6.25 10.28 8.79 5.19 3.54 11.51 5.09 16.86 8.39 9 5.53 14.9 15.74 24.82 19.3 3.14 1.12 6.49 1.5 9.73 2.28 4.16 1 3.39 1.46 7.33 3.13 8 3.35 2.1 8.49 5.59 10.77 1.46 1 3.57 6.57 5.53 8.24 1.52 1.29 6 6.71 7.13 6.86" style="fill:url(#linear-gradient)" id="_1" data-name="1"/><path d="M299.52 121.1c1.54.8 3.56 6.7 4.5 9.25.83 2.24 8.94 4.19 9 8 .14 8.51 8.39 8.29 6.47 21.88-.63 4.47-2.13 8.8-2.47 13.29-.48 6.27 1.34 12.52 1.16 18.8-.3 10.54-6.18 20.77-4.3 31.15.6 3.28 1.95 6.36 2.89 9.56a79 79 0 012.23 12.61c1.07 8.57 2.15 17.16 2.16 25.8a30.15 30.15 0 00.39 6.37c.83 3.9 3.33 7.2 5.76 10.37A23 23 0 00333 294c1.86 1.16 6.57 7.46 7.9 8.61l3.35-1.73 1.82-1.25.14-199.76" style="fill:url(#linear-gradient-2)" id="_2" data-name="2"/><path class="cls-4" d="M.25 299.7l33.81 19.52c.27-.19 10.08-10.2 10.35-10.4 5.22-3.73 3.74-6.61 9-10.35 4-2.85 6.51-6.71 9.34-10.32 10.2-13 1.63-29.87 4.34-45 .89-5 3-9.77 3.51-14.78.67-7-1.92-13.9-1.67-20.88.42-11.72 8.79-23.09 6.1-34.63-.85-3.64-2.77-7.07-4.11-10.62a70.56 70.56 0 01-3.25-14c-1.52-9.52-3.06-19.07-3.08-28.67a27.14 27.14 0 00-.55-7.08c-1.19-4.33-4.75-8-8.21-11.52-2.35-2.38-4-6.23-7.28-7.82-2.11-1-14-12.8-14.15-12.73L.14 100.23z"/><path class="cls-5" d="M.25 299.7l24.53 14.15c.27-.19 3.63-6.93 3.89-7.11 5.23-3.75 4.24-5.35 9.47-9.09 4-2.85 8-5.76 10.86-9.36 10.19-13 1.62-29.88 4.33-45 .9-5 3-9.77 3.52-14.77.67-7-1.92-13.91-1.67-20.89.42-11.72 8.78-23.09 6.1-34.63-.85-3.64-2.77-7.07-4.12-10.62a71.3 71.3 0 01-3.24-14c-1.53-9.53-3.06-19.08-3.08-28.68a27 27 0 00-.56-7.07c-1.18-4.34-4.74-8-8.21-11.53-2.35-2.38-4-6.23-7.28-7.82-2.13-1-6-4.85-10.13-7.24L.14 100.23z"/><path class="cls-6" d="M.25 299.7l13.22 7.63c2-3.89 4.79-5.92 10-9.66 4-2.85 8-5.76 10.86-9.36 10.19-13 1.62-29.88 4.33-45 .9-5 3-9.77 3.52-14.77.67-7-1.92-13.91-1.67-20.89.42-11.72 8.78-23.09 6.1-34.62-.85-3.65-2.77-7.08-4.12-10.63a71.3 71.3 0 01-3.24-14c-1.53-9.53-3.06-19.08-3.08-28.68a27.07 27.07 0 00-.56-7.07c-1.18-4.34-4.74-8-8.21-11.53-2.34-2.38-7.68-.32-9.6-4.14-1.07-2.12-2.44-3.3-3.71-4.84l-14 8z"/><path class="cls-7" d="M5.32 302.62l1.29-2.84c.57-1.71.91-2.08 2.86-3.87 3.67-3.35 3-4.79 6.63-8.14 2.8-2.56 5.64-5.17 7.62-8.41 7.14-11.67 1.13-26.81 3-40.36.63-4.46 2.13-8.77 2.46-13.26.47-6.25-1.34-12.48-1.17-18.75.29-10.51 6.16-20.71 4.27-31.06-.59-3.27-1.94-6.35-2.88-9.54a78.51 78.51 0 01-2.28-12.57C26.08 145.27 25 136.7 25 128.09a31.25 31.25 0 00-.39-6.35c-.83-3.9-3.33-7.19-5.76-10.35-1.64-2.13-6.41-8.64-8.36-9.63-3-1.54-2.91-3.91-4.24-5.06l-6.1 3.53.1 199.47z"/><path d="M5.32 302.62l1.29-2.84c.57-1.71.91-2.08 2.86-3.87 3.67-3.35 3-4.79 6.63-8.14 2.8-2.56 5.64-5.17 7.62-8.41 7.14-11.67 1.13-26.81 3-40.36.63-4.46 2.13-8.77 2.46-13.26.47-6.25-1.34-12.48-1.17-18.75.29-10.51 6.16-20.71 4.27-31.06-.59-3.27-1.94-6.35-2.88-9.54a78.51 78.51 0 01-2.28-12.57C26.08 145.27 25 136.7 25 128.09a31.25 31.25 0 00-.39-6.35c-.83-3.9-3.33-7.19-5.76-10.35-1.64-2.13-6.41-8.64-8.36-9.63-3-1.54-2.91-3.91-4.24-5.06l-6.1 3.53.1 199.47z" style="fill:url(#linear-gradient-3)"/></g></svg>