<svg xmlns="http://www.w3.org/2000/svg" xmlns:xlink="http://www.w3.org/1999/xlink" width="346.04" height="399.93" viewBox="0 0 346.04 399.93"><defs><linearGradient id="linear-gradient" x1="-54.01" y1="2830.66" x2="-21.5" y2="2830.66" gradientTransform="rotate(-60.03 -2287.5472 1197.1193)" gradientUnits="userSpaceOnUse"><stop offset=".19" stop-color="#e8cf96"/><stop offset=".31" stop-color="#e8cf96" stop-opacity=".82"/><stop offset=".56" stop-color="#e8cf96" stop-opacity=".47"/><stop offset=".77" stop-color="#e8cf96" stop-opacity=".22"/><stop offset=".92" stop-color="#e8cf96" stop-opacity=".06"/><stop offset="1" stop-color="#e8cf96" stop-opacity="0"/></linearGradient><linearGradient id="linear-gradient-2" x1="-1706.65" y1="-1813.47" x2="-1674.06" y2="-1813.47" gradientTransform="rotate(60 -2580.7123 942.3351)" xlink:href="#linear-gradient"/><style>.cls-3{fill:#57afd6}.cls-4{fill:#80cff3}.cls-5{fill:#f2e8c0}.cls-6{fill:#e0b569}</style></defs><g id="Layer_5" data-name="Layer 5"><g style="opacity:0"><path style="fill:#0a67a6" d="M173 399.93l173-100V100.11L172.9.11 0 99.93v199.82l173 100.18z"/></g><path class="cls-3" d="M172.94 0l-33.81 19.52c0 .33 3.8 13.83 3.83 14.16.62 6.39 3.85 6.55 4.48 12.94.48 4.89 2.56 9 4.27 13.25 6.16 15.33 25.06 16.34 36.78 26.24 3.86 3.26 6.95 7.52 11 10.44 5.7 4.06 13 5.29 18.93 9 9.94 6.23 15.6 19.16 26.93 22.6 3.58 1.09 7.52 1.14 11.26 1.75a69.76 69.76 0 0113.76 4.2c9 3.43 18 6.88 26.38 11.66a26.71 26.71 0 006.4 3.06c4.35 1.14 9.31-.1 14.08-1.35 3.24-.84 7.41-.36 10.42-2.39 1.94-1.31 18.09-5.74 18.09-5.89V99.65z"/><path class="cls-4" d="M172.94 0l-24.52 14.17c0 .33 4.18 6.6 4.21 6.93.63 6.4 2.51 6.34 3.14 12.74.48 4.88 1 9.83 2.68 14.08 6.17 15.34 25.06 16.35 36.79 26.25 3.85 3.26 6.95 7.52 11 10.43 5.69 4.07 13 5.29 18.92 9 9.94 6.23 15.61 19.15 26.94 22.6 3.58 1.08 7.51 1.14 11.26 1.75a70.31 70.31 0 0113.75 4.19c9 3.44 18.05 6.89 26.38 11.67a27.1 27.1 0 006.4 3.06c4.35 1.14 9.31-.11 14.09-1.35 3.23-.84 7.4-.36 10.41-2.39 2-1.33 7.21-2.8 11.34-5.15V99.64z"/><path class="cls-5" d="M172.94 0l-13.22 7.64c2.36 3.69 2.73 7.1 3.36 13.5.47 4.88 1 9.84 2.68 14.09 6.16 15.33 25.06 16.34 36.78 26.24 3.86 3.26 7 7.52 11 10.44 5.7 4.06 13 5.29 18.93 9 9.94 6.23 15.6 19.16 26.93 22.6 3.58 1.09 7.51 1.14 11.26 1.75a69.76 69.76 0 0113.76 4.2c9 3.43 18.05 6.89 26.37 11.66a27 27 0 006.41 3.06c4.35 1.14 9.31-.1 14.08-1.35 3.24-.84 4.13-6.49 8.4-6.24a23.92 23.92 0 006-.8l.08-16.08z"/><path class="cls-6" d="M167.87 2.93l1.82 2.54c1.19 1.34 1.34 1.83 1.91 4.41 1.08 4.85 2.67 5 3.75 9.82.82 3.7 1.66 7.46 3.47 10.79 6.53 12 22.65 14.39 33.44 22.81 3.54 2.77 6.53 6.23 10.25 8.76 5.18 3.54 11.48 5.08 16.82 8.36 9 5.51 14.86 15.69 24.77 19.24 3.13 1.12 6.47 1.49 9.7 2.26a79.9 79.9 0 0112 4.32c7.93 3.35 15.89 6.7 23.36 11a30.84 30.84 0 005.69 2.84c3.79 1.23 7.89.71 11.84.19 2.67-.36 10.69-1.24 12.53-2.43 2.84-1.86 4.84-.56 6.5-1.14v-7L172.94 0z"/><path d="M167.87 2.93l1.82 2.54c1.19 1.34 1.34 1.83 1.91 4.41 1.08 4.85 2.67 5 3.75 9.82.82 3.7 1.66 7.46 3.47 10.79 6.53 12 22.65 14.39 33.44 22.81 3.54 2.77 6.53 6.23 10.25 8.76 5.18 3.54 11.48 5.08 16.82 8.36 9 5.51 14.86 15.69 24.77 19.24 3.13 1.12 6.47 1.49 9.7 2.26a79.9 79.9 0 0112 4.32c7.93 3.35 15.89 6.7 23.36 11a30.84 30.84 0 005.69 2.84c3.79 1.23 7.89.71 11.84.19 2.67-.36 10.69-1.24 12.53-2.43 2.84-1.86 4.84-.56 6.5-1.14v-7L172.94 0z" style="fill:url(#linear-gradient)"/><path class="cls-3" d="M346 299.52v-39.15c-.29-.14-13.91-3.64-14.21-3.78-5.86-2.67-7.62.06-13.48-2.61-4.48-2-9.09-2.29-13.64-2.94-16.4-2.34-26.77 13.56-41.24 18.76-4.76 1.71-10 2.26-14.6 4.35-6.39 2.91-11.12 8.63-17.31 11.92-10.39 5.5-24.45 3.93-33.13 12-2.74 2.56-4.75 5.95-7.17 8.89a71 71 0 01-10.54 9.84c-7.51 6.1-15 12.21-23.36 17a26.6 26.6 0 00-5.87 4c-3.18 3.2-4.58 8.13-5.9 12.9-.89 3.23-3.41 6.61-3.15 10.24.16 2.34-4.09 18.59-4 18.66l34.35 19.81z"/><path class="cls-4" d="M346 299.52v-28.4c-.29-.14-7.82.32-8.12.18-5.87-2.67-6.76-1-12.63-3.67-4.48-2-9-4.09-13.57-4.74-16.41-2.34-26.77 13.55-41.25 18.76-4.76 1.71-10 2.26-14.6 4.35-6.38 2.91-11.11 8.63-17.3 11.91-10.39 5.51-24.46 3.93-33.13 12-2.74 2.56-4.76 5.95-7.17 8.9a70.48 70.48 0 01-10.55 9.83c-7.51 6.1-15 12.22-23.36 17.05a27 27 0 00-5.87 4c-3.17 3.2-4.58 8.13-5.9 12.9-.89 3.24-3.4 6.61-3.15 10.25.17 2.37-1.19 7.65-1.21 12.42l24.61 14.2z"/><path class="cls-5" d="M346 299.52v-15.31c-4.38.19-7.53-1.2-13.39-3.87-4.48-2-9-4.09-13.58-4.74-16.4-2.34-26.77 13.56-41.24 18.76-4.76 1.72-10 2.27-14.6 4.35-6.39 2.91-11.12 8.63-17.31 11.92-10.39 5.5-24.45 3.93-33.13 12-2.74 2.56-4.75 5.95-7.17 8.9a71.46 71.46 0 01-10.54 9.83c-7.51 6.1-15 12.21-23.37 17a26.78 26.78 0 00-5.86 4c-3.18 3.2-4.58 8.13-5.9 12.9-.89 3.23 3.56 6.84 1.21 10.42a23.49 23.49 0 00-2.34 5.64l13.92 8.14z"/><path class="cls-6" d="M346 293.65l-3.11.3c-1.77.36-2.27.25-4.79-.55-4.75-1.5-5.65-.18-10.4-1.68-3.63-1.15-7.31-2.3-11.11-2.4-13.7-.32-23.84 12.44-36.59 17.58-4.18 1.68-8.68 2.54-12.74 4.5-5.67 2.72-10.17 7.42-15.7 10.4-9.28 5-21.08 5-29.13 11.85-2.54 2.16-4.54 4.87-6.84 7.29a79 79 0 01-9.78 8.27C199 354.42 192 359.65 184.57 364a30.28 30.28 0 00-5.32 3.52c-3 2.67-4.58 6.49-6.1 10.17-1 2.51-4.3 9.91-4.18 12.1.18 3.4-1.95 4.48-2.27 6.22l6.12 3.53 173.2-100z"/><path d="M346 293.65l-3.11.3c-1.77.36-2.27.25-4.79-.55-4.75-1.5-5.65-.18-10.4-1.68-3.63-1.15-7.31-2.3-11.11-2.4-13.7-.32-23.84 12.44-36.59 17.58-4.18 1.68-8.68 2.54-12.74 4.5-5.67 2.72-10.17 7.42-15.7 10.4-9.28 5-21.08 5-29.13 11.85-2.54 2.16-4.54 4.87-6.84 7.29a79 79 0 01-9.78 8.27C199 354.42 192 359.65 184.57 364a30.28 30.28 0 00-5.32 3.52c-3 2.67-4.58 6.49-6.1 10.17-1 2.51-4.3 9.91-4.18 12.1.18 3.4-1.95 4.48-2.27 6.22l6.12 3.53 173.2-100z" style="fill:url(#linear-gradient-2)"/></g></svg>