<svg xmlns="http://www.w3.org/2000/svg" xmlns:xlink="http://www.w3.org/1999/xlink" width="346.47" height="399.72" viewBox="0 0 346.47 399.72"><defs><linearGradient id="linear-gradient" x1="-1028.15" y1="2457.29" x2="-995.65" y2="2457.29" gradientTransform="rotate(-60.03 -2451.177 167.0345)" gradientUnits="userSpaceOnUse"><stop offset=".19" stop-color="#e8cf96"/><stop offset=".31" stop-color="#e8cf96" stop-opacity=".82"/><stop offset=".56" stop-color="#e8cf96" stop-opacity=".47"/><stop offset=".77" stop-color="#e8cf96" stop-opacity=".22"/><stop offset=".92" stop-color="#e8cf96" stop-opacity=".06"/><stop offset="1" stop-color="#e8cf96" stop-opacity="0"/></linearGradient><linearGradient id="linear-gradient-2" x1="-1740.95" y1="-1793.69" x2="-1708.36" y2="-1793.69" gradientTransform="rotate(60 -2580.6569 982.3712)" xlink:href="#linear-gradient"/><linearGradient id="linear-gradient-3" x1="-5369.14" y1="1792.72" x2="-5336.57" y2="1792.72" gradientTransform="rotate(-179.94 -2668.5648 994.9125)" xlink:href="#linear-gradient"/><style>.cls-4{fill:#57afd6}.cls-5{fill:#80cff3}.cls-6{fill:#f2e8c0}.cls-7{fill:#e0b569}</style></defs><g id="Layer_5" data-name="Layer 5"><g style="opacity:0"><path style="fill:#0a67a6" d="M2 298.67l.26-197.6L173.31 2.31l170.9 98.67-.06 197.6-171.05 98.76L2 298.67z"/><path d="M173.31 4.62l168.9 97.51v195.29L173.1 395 4 297.51l.25-195.29 169.06-97.6m0-4.62L.26 99.91 0 299.82l173.1 99.82 173.06-99.91V99.82L173.31 0z" style="fill:#3873a0"/></g><path class="cls-4" d="M173.37.15l-33.82 19.52c0 .33 3.8 13.83 3.84 14.16.62 6.39 3.85 6.55 4.48 12.94.48 4.89 2.56 9 4.26 13.24 6.17 15.34 25.07 16.35 36.79 26.25 3.85 3.26 7 7.52 11 10.44 5.7 4.06 13 5.29 18.93 9 9.94 6.23 15.6 19.16 26.93 22.6 3.58 1.09 7.52 1.14 11.26 1.75a69.76 69.76 0 0113.76 4.2c9 3.43 18.05 6.88 26.37 11.66a27 27 0 006.41 3.06c4.35 1.14 9.31-.11 14.08-1.35 3.24-.84 7.41-.36 10.42-2.39 1.94-1.31 18.09-5.75 18.09-5.89V99.8z"/><path class="cls-5" d="M173.37.15l-24.52 14.17c0 .33 4.18 6.6 4.21 6.93.63 6.4 2.51 6.34 3.14 12.73.47 4.89 1 9.84 2.68 14.09 6.17 15.34 25.06 16.35 36.78 26.25 3.86 3.26 7 7.52 11 10.43 5.7 4.07 13 5.29 18.93 9 9.94 6.22 15.6 19.15 26.93 22.59 3.58 1.09 7.52 1.14 11.26 1.75a71.12 71.12 0 0113.76 4.2c9 3.44 18.05 6.89 26.38 11.67a26.68 26.68 0 006.4 3c4.35 1.15 9.31-.1 14.08-1.34 3.24-.84 7.41-.36 10.42-2.39 2-1.33 7.21-2.8 11.34-5.16V99.74z"/><path class="cls-6" d="M173.37.15l-13.22 7.64c2.35 3.68 2.73 7.1 3.35 13.5.48 4.88 1 9.83 2.68 14.08 6.17 15.34 25.07 16.35 36.79 26.25 3.85 3.26 6.95 7.52 11 10.44 5.7 4.06 13 5.28 18.93 9 9.93 6.23 15.6 19.15 26.93 22.6 3.58 1.08 7.51 1.14 11.26 1.75a70.41 70.41 0 0113.76 4.19c9 3.44 18.05 6.89 26.37 11.67a26.78 26.78 0 006.41 3.06c4.34 1.14 9.31-.11 14.08-1.35 3.24-.84 4.13-6.49 8.39-6.25a23.37 23.37 0 006-.79l.09-16.09z"/><path class="cls-7" d="M168.3 3.08l1.82 2.54C171.31 7 171.46 7.45 172 10c1.08 4.85 2.67 5 3.74 9.81.82 3.71 1.66 7.47 3.48 10.8 6.53 12 22.65 14.39 33.43 22.81 3.55 2.77 6.54 6.23 10.25 8.76 5.18 3.54 11.49 5.08 16.82 8.36 9 5.51 14.87 15.69 24.77 19.23 3.13 1.12 6.47 1.5 9.71 2.27a78.7 78.7 0 0112 4.32c7.94 3.35 15.9 6.7 23.37 11a30.84 30.84 0 005.69 2.84c3.79 1.22 7.89.71 11.84.18 2.67-.35 10.69-1.23 12.52-2.42 2.85-1.86 4.84-.56 6.51-1.14v-7L173.37.15z"/><path d="M168.3 3.08l1.82 2.54C171.31 7 171.46 7.45 172 10c1.08 4.85 2.67 5 3.74 9.81.82 3.71 1.66 7.47 3.48 10.8 6.53 12 22.65 14.39 33.43 22.81 3.55 2.77 6.54 6.23 10.25 8.76 5.18 3.54 11.49 5.08 16.82 8.36 9 5.51 14.87 15.69 24.77 19.23 3.13 1.12 6.47 1.5 9.71 2.27a78.7 78.7 0 0112 4.32c7.94 3.35 15.9 6.7 23.37 11a30.84 30.84 0 005.69 2.84c3.79 1.22 7.89.71 11.84.18 2.67-.35 10.69-1.23 12.52-2.42 2.85-1.86 4.84-.56 6.51-1.14v-7L173.37.15z" style="fill:url(#linear-gradient)"/><path class="cls-4" d="M346.45 299.67v-39.15c-.29-.14-13.91-3.65-14.21-3.78-5.86-2.67-7.62.06-13.48-2.61-4.48-2-9.09-2.29-13.64-2.94-16.41-2.34-26.77 13.55-41.25 18.76-4.76 1.71-10 2.26-14.59 4.35-6.39 2.91-11.12 8.63-17.31 11.91-10.39 5.51-24.45 3.94-33.13 12-2.74 2.57-4.76 6-7.17 8.9a70.58 70.58 0 01-10.53 9.89c-7.5 6.09-15 12.21-23.36 17a26.73 26.73 0 00-5.86 4c-3.18 3.2-4.58 8.14-5.9 12.91-.9 3.23-3.41 6.6-3.15 10.24.16 2.34-4.09 18.59-4 18.66l34.35 19.81z"/><path class="cls-5" d="M346.45 299.67v-28.4c-.29-.14-7.83.32-8.12.18-5.87-2.67-6.77-1-12.63-3.67-4.48-2-9-4.09-13.58-4.74-16.4-2.34-26.76 13.55-41.24 18.76-4.76 1.71-10 2.26-14.6 4.35-6.38 2.9-11.11 8.63-17.31 11.91-10.38 5.5-24.45 3.93-33.13 12-2.74 2.56-4.75 5.95-7.16 8.9a70.48 70.48 0 01-10.55 9.83c-7.51 6.1-15 12.21-23.36 17a27 27 0 00-5.87 4c-3.18 3.2-4.58 8.13-5.9 12.9-.89 3.23-3.4 6.61-3.15 10.24.17 2.38-1.19 7.66-1.22 12.43l24.62 14.2z"/><path class="cls-6" d="M346.45 299.67v-15.32c-4.38.2-7.53-1.19-13.4-3.85-4.47-2-9-4.1-13.57-4.75-16.41-2.34-26.77 13.56-41.25 18.76-4.76 1.71-10 2.26-14.59 4.35-6.39 2.91-11.12 8.63-17.31 11.91-10.39 5.51-24.45 3.94-33.13 12.05-2.74 2.56-4.76 5.95-7.17 8.89a70.58 70.58 0 01-10.55 9.84c-7.5 6.1-15 12.21-23.36 17a27.08 27.08 0 00-5.86 4c-3.18 3.2-4.59 8.14-5.9 12.9-.9 3.24 3.56 6.84 1.21 10.43a23.49 23.49 0 00-2.34 5.64l13.92 8.14z"/><path class="cls-7" d="M346.45 293.8l-3.11.3c-1.77.36-2.27.25-4.79-.55-4.75-1.5-5.65-.18-10.4-1.68-3.63-1.15-7.31-2.3-11.12-2.4-13.71-.37-23.85 12.44-36.58 17.57-4.18 1.69-8.68 2.55-12.75 4.51C262 314.27 257.54 319 252 322c-9.28 5-21.08 5-29.13 11.85-2.54 2.16-4.54 4.87-6.84 7.29a79 79 0 01-9.78 8.27c-6.89 5.21-13.79 10.44-21.26 14.77a30.28 30.28 0 00-5.32 3.52c-3 2.67-4.58 6.49-6.1 10.17-1 2.51-4.3 9.9-4.18 12.1.18 3.4-2 4.48-2.28 6.21l6.13 3.54 173.2-100z"/><path d="M346.45 293.8l-3.11.3c-1.77.36-2.27.25-4.79-.55-4.75-1.5-5.65-.18-10.4-1.68-3.63-1.15-7.31-2.3-11.12-2.4-13.71-.37-23.85 12.44-36.58 17.57-4.18 1.69-8.68 2.55-12.75 4.51C262 314.27 257.54 319 252 322c-9.28 5-21.08 5-29.13 11.85-2.54 2.16-4.54 4.87-6.84 7.29a79 79 0 01-9.78 8.27c-6.89 5.21-13.79 10.44-21.26 14.77a30.28 30.28 0 00-5.32 3.52c-3 2.67-4.58 6.49-6.1 10.17-1 2.51-4.3 9.9-4.18 12.1.18 3.4-2 4.48-2.28 6.21l6.13 3.54 173.2-100z" style="fill:url(#linear-gradient-2)"/><path class="cls-4" d="M.1 299.86l33.84 19.61c.27-.19 10.11-10.21 10.38-10.4 5.24-3.74 3.76-6.62 9-10.36 4-2.85 6.53-6.71 9.37-10.32 10.24-13 1.68-29.93 4.42-45.06.9-5 3-9.79 3.54-14.79.68-7-1.9-13.94-1.64-20.93.44-11.74 8.84-23.12 6.17-34.68-.85-3.65-2.77-7.09-4.11-10.65a70.86 70.86 0 01-3.23-14c-1.51-9.54-3-19.11-3-28.73a26.79 26.79 0 00-.55-7.09c-1.17-4.35-4.74-8-8.2-11.56-2.35-2.39-4-6.25-7.28-7.85-2.11-1-14-12.84-14.15-12.76L.3 100z"/><path class="cls-5" d="M.1 299.86l24.56 14.21c.27-.19 3.64-6.93 3.91-7.12 5.24-3.74 4.25-5.35 9.49-9.08 4-2.86 8.06-5.76 10.89-9.37 10.23-13 1.68-29.93 4.42-45.06.9-5 3.05-9.78 3.54-14.79.68-7-1.9-13.94-1.64-20.93.44-11.72 8.84-23.12 6.17-34.72-.85-3.65-2.77-7.09-4.11-10.65a71.56 71.56 0 01-3.23-14c-1.51-9.54-3-19.11-3-28.73a26.79 26.79 0 00-.55-7.09c-1.17-4.35-4.73-8-8.2-11.55-2.35-2.4-4-6.26-7.28-7.85-2.14-1-6-4.87-10.14-7.28L.3 100z"/><path class="cls-6" d="M.1 299.86l13.24 7.66c2-3.89 4.8-5.92 10-9.66 4-2.85 8.06-5.75 10.9-9.36 10.23-13 1.67-29.93 4.41-45.06.91-5 3.06-9.79 3.55-14.79.68-7-1.9-13.94-1.64-20.93C41 196 49.43 184.6 46.76 173c-.84-3.65-2.76-7.09-4.1-10.65a70.86 70.86 0 01-3.23-14c-1.52-9.54-3-19.12-3-28.73a26.79 26.79 0 00-.54-7.09c-1.18-4.35-4.74-8-8.21-11.56-2.34-2.39-7.69-.34-9.61-4.16A23.72 23.72 0 0014.31 92l-14 8z"/><path class="cls-7" d="M5.17 302.79l1.3-2.79c.57-1.71.92-2.09 2.88-3.87 3.67-3.35 3-4.8 6.65-8.15 2.81-2.56 5.65-5.17 7.64-8.41 7.18-11.68 1.18-26.86 3.11-40.43.63-4.46 2.14-8.78 2.48-13.28.48-6.26-1.33-12.5-1.14-18.78.31-10.53 6.2-20.74 4.33-31.11-.59-3.28-1.94-6.37-2.88-9.56a80 80 0 01-2.26-12.6c-1.06-8.57-2.12-17.15-2.13-25.78a30.68 30.68 0 00-.38-6.36c-.82-3.9-3.32-7.21-5.75-10.37-1.64-2.15-6.41-8.67-8.36-9.67-3-1.54-2.91-3.92-4.24-5.07L.3 100 .1 299.86z"/><path d="M5.17 302.79l1.3-2.79c.57-1.71.92-2.09 2.88-3.87 3.67-3.35 3-4.8 6.65-8.15 2.81-2.56 5.65-5.17 7.64-8.41 7.18-11.68 1.18-26.86 3.11-40.43.63-4.46 2.14-8.78 2.48-13.28.48-6.26-1.33-12.5-1.14-18.78.31-10.53 6.2-20.74 4.33-31.11-.59-3.28-1.94-6.37-2.88-9.56a80 80 0 01-2.26-12.6c-1.06-8.57-2.12-17.15-2.13-25.78a30.68 30.68 0 00-.38-6.36c-.82-3.9-3.32-7.21-5.75-10.37-1.64-2.15-6.41-8.67-8.36-9.67-3-1.54-2.91-3.92-4.24-5.07L.3 100 .1 299.86z" style="fill:url(#linear-gradient-3)"/></g></svg>