<svg xmlns="http://www.w3.org/2000/svg" xmlns:xlink="http://www.w3.org/1999/xlink" width="346.01" height="399.93" viewBox="0 0 346.01 399.93"><defs><linearGradient id="linear-gradient" x1="-638.34" y1="-858.31" x2="-605.83" y2="-858.31" gradientTransform="matrix(.5 -.87 -.87 -.5 -180.57 -904.23)" gradientUnits="userSpaceOnUse"><stop offset=".19" stop-color="#e8cf96"/><stop offset=".31" stop-color="#e8cf96" stop-opacity=".82"/><stop offset=".56" stop-color="#e8cf96" stop-opacity=".47"/><stop offset=".77" stop-color="#e8cf96" stop-opacity=".22"/><stop offset=".92" stop-color="#e8cf96" stop-opacity=".06"/><stop offset="1" stop-color="#e8cf96" stop-opacity="0"/></linearGradient><linearGradient id="linear-gradient-2" x1="-4908.36" y1="3415.96" x2="-4875.85" y2="3415.96" gradientTransform="matrix(-.5 .87 .87 .5 -5310.96 2861.45)" xlink:href="#linear-gradient"/><style>.cls-4{fill:#57afd6}.cls-5{fill:#80cff3}.cls-6{fill:#f2e8c0}.cls-7{fill:#e0b569}</style></defs><g id="Layer_5" data-name="Layer 5"><g style="opacity:0"><path style="fill:#0a67a6" d="M2.01 298.71V101.2l171.1-98.85 170.9 98.67v197.51l-171 99.03-171-98.85z"/><path d="M173.11 4.66L342 102.18v195.2l-169 97.87L4 297.56V102.35L173.11 4.66m0-4.62L0 100v199.87l173 100 173-100.18V99.87L173.11 0z" style="fill:#3873a0"/></g><path class="cls-4" d="M345.85 99.89v39c-.29.14-13.87 3.63-14.17 3.76-5.85 2.66-7.6-.06-13.45 2.59-4.47 2-9.07 2.28-13.61 2.93-16.36 2.33-26.68-13.53-41.12-18.73-4.75-1.71-10-2.27-14.56-4.35-6.36-2.9-11.08-8.61-17.25-11.89-10.36-5.5-24.39-3.94-33-12-2.73-2.56-4.74-5.94-7.14-8.88a70.59 70.59 0 00-10.55-9.8c-7.49-6.09-15-12.19-23.29-17a26.67 26.67 0 01-5.85-4c-3.17-3.19-4.57-8.11-5.88-12.87-.89-3.22-3.39-6.59-3.14-10.21.17-2.34-4.07-18.54-3.94-18.62L173.16.06z"/><path class="cls-5" d="M345.85 99.89v28.32c-.3.14-7.81-.32-8.11-.19-5.85 2.66-6.74 1-12.59 3.66-4.47 2-9 4.07-13.54 4.72-16.37 2.32-26.69-13.53-41.13-18.73-4.75-1.71-10-2.27-14.55-4.35-6.37-2.9-11.09-8.61-17.26-11.89-10.36-5.5-24.39-3.94-33-12-2.74-2.56-4.74-5.94-7.15-8.88A70.59 70.59 0 00188 70.71c-7.49-6.09-15-12.19-23.29-17a26.67 26.67 0 01-5.85-4c-3.17-3.19-4.57-8.11-5.88-12.87-.89-3.22-3.39-6.59-3.13-10.22.16-2.36-1.19-7.63-1.21-12.39L173.16.06z"/><path class="cls-6" d="M345.85 99.89v15.27c-4.36-.2-7.51 1.18-13.36 3.84-4.47 2-9 4.08-13.54 4.72-16.36 2.33-26.69-13.53-41.13-18.73-4.74-1.71-10-2.26-14.55-4.35-6.38-2.9-11.09-8.64-17.27-11.89-10.36-5.49-24.39-3.93-33-12-2.73-2.55-4.74-5.93-7.15-8.87A70.17 70.17 0 00195.31 58c-7.48-6.08-15-12.19-23.29-17a26.63 26.63 0 01-5.85-4c-3.16-3.2-4.56-8.12-5.87-12.87-.89-3.23 3.55-6.82 1.21-10.4-1.31-2-1.64-3.75-2.33-5.62L173.06 0z"/><path class="cls-7" d="M345.85 105.74l-3.11-.3c-1.76-.36-2.26-.25-4.78.54-4.73 1.5-5.63.18-10.37 1.67-3.61 1.14-7.29 2.3-11.08 2.39-13.68.36-23.79-12.42-36.48-17.55-4.17-1.68-8.66-2.54-12.71-4.49-5.65-2.72-10.13-7.41-15.65-10.39-9.25-5-21-5-29-11.84-2.53-2.15-4.53-4.85-6.82-7.27a77.75 77.75 0 00-9.75-8.25c-6.86-5.2-13.75-10.42-21.2-14.74a31 31 0 01-5.3-3.51c-3-2.67-4.56-6.48-6.08-10.16-1-2.49-4.28-9.88-4.16-12.06.18-3.4-1.94-4.47-2.26-6.2l6.1-3.52 172.65 99.83z"/><path d="M345.85 105.74l-3.11-.3c-1.76-.36-2.26-.25-4.78.54-4.73 1.5-5.63.18-10.37 1.67-3.61 1.14-7.29 2.3-11.08 2.39-13.68.36-23.79-12.42-36.48-17.55-4.17-1.68-8.66-2.54-12.71-4.49-5.65-2.72-10.13-7.41-15.65-10.39-9.25-5-21-5-29-11.84-2.53-2.15-4.53-4.85-6.82-7.27a77.75 77.75 0 00-9.75-8.25c-6.86-5.2-13.75-10.42-21.2-14.74a31 31 0 01-5.3-3.51c-3-2.67-4.56-6.48-6.08-10.16-1-2.49-4.28-9.88-4.16-12.06.18-3.4-1.94-4.47-2.26-6.2l6.1-3.52 172.65 99.83z" style="fill:url(#linear-gradient)"/><path class="cls-4" d="M0 300v-39c.3-.14 13.88-3.62 14.18-3.76 5.85-2.66 7.6.06 13.45-2.59 4.46-2 9.06-2.28 13.6-2.93 16.36-2.32 26.69 13.53 41.12 18.74 4.75 1.71 10 2.26 14.56 4.34 6.37 2.91 11.08 8.62 17.25 11.89 10.36 5.5 24.39 3.94 33 12 2.73 2.56 4.74 5.94 7.14 8.88a70.65 70.65 0 0010.52 9.81c7.48 6.09 15 12.19 23.29 17a26.67 26.67 0 015.85 4c3.16 3.19 4.56 8.11 5.87 12.87.89 3.23 3.4 6.59 3.14 10.22-.17 2.33 4.07 18.54 3.94 18.61l-34.26 19.74z"/><path class="cls-5" d="M0 300v-28.32c.29-.14 7.8.32 8.1.19 5.85-2.66 6.74-1 12.6-3.65 4.46-2 9-4.08 13.54-4.73 16.36-2.32 26.68 13.54 41.12 18.74 4.75 1.71 10 2.26 14.56 4.34 6.36 2.91 11.08 8.62 17.25 11.89 10.36 5.5 24.39 3.94 33 12 2.73 2.56 4.74 5.94 7.14 8.88a70.65 70.65 0 0010.52 9.81c7.48 6.09 15 12.19 23.29 17a27 27 0 015.84 4c3.17 3.19 4.57 8.11 5.88 12.87.89 3.23 3.39 6.59 3.14 10.22-.17 2.37 1.18 7.64 1.21 12.39l-24.56 14.15z"/><path class="cls-6" d="M0 300v-15.22c4.37.19 7.51-1.19 13.36-3.85 4.47-2 9-4.08 13.54-4.72 16.38-2.33 26.7 13.53 41.1 18.73 4.75 1.71 10 2.27 14.55 4.35 6.37 2.9 11.09 8.61 17.26 11.89 10.36 5.49 24.39 3.94 33 12 2.74 2.56 4.75 5.94 7.15 8.88a70.59 70.59 0 0010.51 9.81c7.49 6.09 15 12.19 23.29 17a26.67 26.67 0 015.85 4c3.17 3.19 4.57 8.11 5.88 12.87.89 3.22-3.56 6.82-1.22 10.39a23.42 23.42 0 012.34 5.63l-13.89 8.11z"/><path class="cls-7" d="M0 294.19l3.11.31c1.76.36 2.26.24 4.78-.55 4.74-1.5 5.63-.18 10.37-1.67 3.62-1.14 7.29-2.29 11.08-2.39 13.69-.35 23.79 12.42 36.48 17.55 4.17 1.69 8.66 2.55 12.71 4.5 5.65 2.72 10.14 7.4 15.65 10.39 9.25 5 21 5 29 11.83 2.54 2.15 4.53 4.86 6.82 7.27a78.47 78.47 0 009.75 8.25c6.87 5.21 13.75 10.42 21.2 14.75a30.07 30.07 0 015.3 3.51c3 2.66 4.57 6.47 6.08 10.15 1 2.5 4.28 9.88 4.17 12.06-.19 3.4 1.93 4.48 2.26 6.21l-6.11 3.52L0 300z"/><path d="M0 294.19l3.11.31c1.76.36 2.26.24 4.78-.55 4.74-1.5 5.63-.18 10.37-1.67 3.62-1.14 7.29-2.29 11.08-2.39 13.69-.35 23.79 12.42 36.48 17.55 4.17 1.69 8.66 2.55 12.71 4.5 5.65 2.72 10.14 7.4 15.65 10.39 9.25 5 21 5 29 11.83 2.54 2.15 4.53 4.86 6.82 7.27a78.47 78.47 0 009.75 8.25c6.87 5.21 13.75 10.42 21.2 14.75a30.07 30.07 0 015.3 3.51c3 2.66 4.57 6.47 6.08 10.15 1 2.5 4.28 9.88 4.17 12.06-.19 3.4 1.93 4.48 2.26 6.21l-6.11 3.52L0 300z" style="fill:url(#linear-gradient-2)"/></g></svg>