<svg xmlns="http://www.w3.org/2000/svg" width="346" height="400" viewBox="0 0 346 400"><defs><linearGradient id="a" x1="-317.99" y1="2859.47" x2="-285.4" y2="2859.47" gradientTransform="rotate(-60 -2445.8232 982.81)" gradientUnits="userSpaceOnUse"><stop offset=".19" stop-color="#e8cf96"/><stop offset=".31" stop-color="#e8cf96" stop-opacity=".82"/><stop offset=".56" stop-color="#e8cf96" stop-opacity=".47"/><stop offset=".77" stop-color="#e8cf96" stop-opacity=".22"/><stop offset=".92" stop-color="#e8cf96" stop-opacity=".06"/><stop offset="1" stop-color="#e8cf96" stop-opacity="0"/></linearGradient></defs><g data-name="Layer 5"><g style="opacity:0"><path style="fill:#0a67a6" d="M173 0L0 100v200l173 100 173-100V100L173 0z"/></g><path d="M172.69 0l-33.91 19.56c0 .32 3.8 13.87 3.83 14.19.63 6.42 3.86 6.57 4.49 13 .48 4.9 2.56 9 4.27 13.28 6.17 15.38 25.12 16.41 36.87 26.34 3.86 3.27 7 7.54 11.06 10.47 5.72 4.08 13 5.31 19 9 10 6.25 15.64 19.21 27 22.67 3.59 1.09 7.53 1.15 11.29 1.76a70.77 70.77 0 0113.79 4.22c9 3.45 18.09 6.92 26.44 11.71a26.88 26.88 0 006.42 3.07c4.36 1.15 9.33-.1 14.12-1.34 3.25-.85 7.43-.36 10.45-2.4 1.94-1.31 18.14-5.75 18.14-5.89V99.99z" style="fill:#57afd6"/><path d="M172.69 0L148.1 14.2c0 .33 4.19 6.62 4.22 7 .63 6.41 2.51 6.35 3.14 12.77.47 4.89 1 9.86 2.68 14.12 6.17 15.38 25.12 16.41 36.87 26.34 3.86 3.27 7 7.54 11.06 10.47 5.71 4.08 13 5.31 19 9 10 6.25 15.64 19.21 27 22.67 3.58 1.09 7.53 1.15 11.28 1.76a70.86 70.86 0 0113.8 4.22c9 3.45 18.09 6.91 26.43 11.71a27.46 27.46 0 006.42 3.07c4.36 1.15 9.34-.1 14.13-1.34 3.24-.85 7.42-.36 10.44-2.4 2-1.33 7.23-2.79 11.37-5.16V100z" style="fill:#80cff3"/><path d="M172.69 0l-13.26 7.66c2.36 3.69 2.74 7.12 3.36 13.53.48 4.9 1 9.86 2.68 14.13 6.18 15.37 25.12 16.4 36.87 26.34 3.86 3.26 7 7.54 11.06 10.46 5.72 4.08 13 5.31 19 9 10 6.25 15.64 19.21 27 22.67 3.59 1.1 7.53 1.15 11.29 1.76a71.46 71.46 0 0113.79 4.22c9 3.45 18.09 6.92 26.44 11.71a26.88 26.88 0 006.42 3.07c4.36 1.15 9.33-.1 14.12-1.34 3.25-.85 4.14-6.51 8.42-6.26 2.38.14 4.08-.46 6.06-.79l.09-16.13z" style="fill:#f2e8c0"/><path d="M167.61 2.93l1.82 2.55c1.2 1.35 1.35 1.84 1.92 4.43 1.07 4.86 2.67 5 3.74 9.84.82 3.71 1.66 7.49 3.48 10.83 6.55 12.06 22.7 14.44 33.51 22.89 3.56 2.78 6.55 6.25 10.28 8.79 5.19 3.54 11.51 5.09 16.86 8.39 9 5.53 14.89 15.74 24.82 19.3 3.14 1.12 6.49 1.5 9.73 2.28a78.71 78.71 0 0112.05 4.33c8 3.36 15.94 6.73 23.43 11a30.35 30.35 0 005.7 2.85c3.8 1.23 7.91.72 11.87.2 2.68-.36 10.72-1.23 12.56-2.43 2.86-1.86 4.86-.56 6.52-1.14V100L172.69 0z" style="fill:#e0b569"/><path d="M167.61 2.93l1.82 2.55c1.2 1.35 1.35 1.84 1.92 4.43 1.07 4.86 2.67 5 3.74 9.84.82 3.71 1.66 7.49 3.48 10.83 6.55 12.06 22.7 14.44 33.51 22.89 3.56 2.78 6.55 6.25 10.28 8.79 5.19 3.54 11.51 5.09 16.86 8.39 9 5.53 14.89 15.74 24.82 19.3 3.14 1.12 6.49 1.5 9.73 2.28a78.71 78.71 0 0112.05 4.33c8 3.36 15.94 6.73 23.43 11a30.35 30.35 0 005.7 2.85c3.8 1.23 7.91.72 11.87.2 2.68-.36 10.72-1.23 12.56-2.43 2.86-1.86 4.86-.56 6.52-1.14V100L172.69 0z" style="fill:url(#a)"/></g></svg>