<svg xmlns="http://www.w3.org/2000/svg" xmlns:xlink="http://www.w3.org/1999/xlink" width="346.28" height="399.64" viewBox="0 0 346.28 399.64"><defs><linearGradient id="linear-gradient" x1="-5162.49" y1="1636.1" x2="-5129.9" y2="1636.1" gradientTransform="rotate(179.97 -2564.6707 918.7336)" gradientUnits="userSpaceOnUse"><stop offset=".19" stop-color="#e8cf96"/><stop offset=".31" stop-color="#e8cf96" stop-opacity=".82"/><stop offset=".56" stop-color="#e8cf96" stop-opacity=".47"/><stop offset=".77" stop-color="#e8cf96" stop-opacity=".22"/><stop offset=".92" stop-color="#e8cf96" stop-opacity=".06"/><stop offset="1" stop-color="#e8cf96" stop-opacity="0"/></linearGradient><linearGradient id="linear-gradient-2" x1="-1782.93" y1="-1769.4" x2="-1803.83" y2="-1805.61" gradientTransform="rotate(60 -2379.0729 907.325)" xlink:href="#linear-gradient"/><linearGradient id="linear-gradient-3" x1="-1627.83" y1="-1806" x2="-1652.61" y2="-1764.87" gradientTransform="rotate(60 -2379.0729 907.325)" gradientUnits="userSpaceOnUse"><stop offset="0" stop-color="#e8cf96" stop-opacity="0"/><stop offset=".08" stop-color="#e8cf96" stop-opacity=".06"/><stop offset=".23" stop-color="#e8cf96" stop-opacity=".22"/><stop offset=".44" stop-color="#e8cf96" stop-opacity=".47"/><stop offset=".69" stop-color="#e8cf96" stop-opacity=".82"/><stop offset=".81" stop-color="#e8cf96"/></linearGradient><linearGradient id="linear-gradient-4" x1="-1579.29" y1="-1646.87" x2="-1533.02" y2="-1653.99" gradientTransform="rotate(60 -2379.0729 907.325)" xlink:href="#linear-gradient"/><style>.cls-4{fill:#57afd6}.cls-5{fill:#80cff3}.cls-6{fill:#f2e8c0}.cls-7{fill:#e0b569}</style></defs><g id="Layer_5" data-name="Layer 5"><g style="opacity:0"><path style="fill:#0a67a6" d="M2.07 298.67l.05-197.6L173.18 2.31l171.1 98.67-.26 197.6-171.05 98.75-170.9-98.66z"/><path d="M173.18 4.62l169.1 97.51-.28 195.29L173 395 4.07 297.52v-195.3l169.11-97.6m0-4.62L.12 99.91v199.91L173 399.64l173-99.91.26-199.91L173.18 0z" style="fill:#3873a0"/></g><path class="cls-4" d="M.12 299.93L34 319.51c.27-.19 10.11-10.24 10.37-10.43 5.24-3.75 3.76-6.63 9-10.38 4-2.86 6.52-6.73 9.36-10.34 10.22-13.05 1.63-30 4.34-45.11.9-5 3-9.8 3.53-14.81.67-7-1.93-13.95-1.68-20.95.42-11.75 8.81-23.15 6.12-34.71-.85-3.66-2.78-7.1-4.13-10.66a70.84 70.84 0 01-3.25-14.05c-1.53-9.55-3.07-19.12-3.1-28.75a26.79 26.79 0 00-.55-7.09c-1.19-4.35-4.76-8-8.23-11.56-2.36-2.38-4-6.25-7.3-7.84C46.39 91.8 34.44 80 34.31 80.07L0 99.93z"/><path class="cls-5" d="M.12 299.93l24.6 14.19c.27-.19 3.63-6.94 3.9-7.13 5.24-3.75 4.25-5.36 9.49-9.11 4-2.86 8-5.78 10.89-9.39 10.22-13 1.62-30 4.34-45.1.9-5 3-9.81 3.53-14.82.67-7-1.93-13.94-1.68-20.95.42-11.75 8.81-23.15 6.12-34.71-.85-3.66-2.78-7.09-4.13-10.66a70.68 70.68 0 01-3.25-14.05c-1.53-9.54-3.07-19.12-3.09-28.75a27.22 27.22 0 00-.56-7.09c-1.19-4.35-4.76-8-8.23-11.55-2.36-2.39-4-6.26-7.3-7.85-2.14-1-6-4.86-10.16-7.26L0 99.93z"/><path class="cls-6" d="M.12 299.93l13.26 7.65c2-3.89 4.8-5.93 10-9.68 4-2.86 8-5.77 10.89-9.39 10.22-13 1.63-30 4.35-45.1.89-5 3-9.81 3.52-14.82.67-7-1.93-13.94-1.68-20.94.42-11.75 8.81-23.15 6.12-34.72-.85-3.65-2.78-7.09-4.13-10.66a70.75 70.75 0 01-3.25-14c-1.53-9.55-3.07-19.13-3.09-28.75a27.26 27.26 0 00-.56-7.1c-1.19-4.35-4.76-8-8.23-11.55-2.36-2.39-7.7-.33-9.63-4.16A24.11 24.11 0 0014 91.82l-14 8z"/><path class="cls-7" d="M5.2 302.86L6.49 300c.57-1.71.92-2.08 2.88-3.87 3.67-3.37 3-4.81 6.65-8.17 2.8-2.57 5.64-5.18 7.63-8.43 7.16-11.7 1.14-26.88 3-40.47.63-4.47 2.13-8.8 2.47-13.29.47-6.27-1.35-12.52-1.18-18.8.29-10.54 6.17-20.77 4.29-31.15-.6-3.28-2-6.37-2.9-9.56a79 79 0 01-2.28-12.61c-1.08-8.57-2.15-17.16-2.17-25.8a30.69 30.69 0 00-.39-6.36c-.84-3.91-3.34-7.21-5.77-10.37-1.65-2.15-6.43-8.67-8.39-9.67-3-1.54-2.91-3.92-4.25-5.07L0 99.93l.12 200z"/><path d="M5.2 302.86L6.49 300c.57-1.71.92-2.08 2.88-3.87 3.67-3.37 3-4.81 6.65-8.17 2.8-2.57 5.64-5.18 7.63-8.43 7.16-11.7 1.14-26.88 3-40.47.63-4.47 2.13-8.8 2.47-13.29.47-6.27-1.35-12.52-1.18-18.8.29-10.54 6.17-20.77 4.29-31.15-.6-3.28-2-6.37-2.9-9.56a79 79 0 01-2.28-12.61c-1.08-8.57-2.15-17.16-2.17-25.8a30.69 30.69 0 00-.39-6.36c-.84-3.91-3.34-7.21-5.77-10.37-1.65-2.15-6.43-8.67-8.39-9.67-3-1.54-2.91-3.92-4.25-5.07L0 99.93l.12 200z" style="fill:url(#linear-gradient)"/><path class="cls-4" d="M280.61 258.26c2-4.49 8.88-7.4 7.75-14.3-.77-4.72 3.19-7.77 1.46-12.33-1.35-3.57-3.27-7-4.12-10.66-2.69-11.56 5.7-22.95 6.12-34.69.25-7-2.34-14-1.67-20.94.49-5 2.63-9.83 3.53-14.81 2.72-15.13-5.86-32 4.36-45.08 2.83-3.61 6.89-6.52 10.89-9.38 5.24-3.75 4.24-5.36 9.48-9.1.27-.19 1.49-1.55 1.76-1.73l25.68 14.81v-.24L173 0l-33.56 19.43c0 .32-1.46 10.18-1.43 10.5.62 6.41 3.86 6.57 4.48 13 .48 4.89 2.56 9 4.27 13.27 6.18 15.37 25.11 16.4 36.86 26.33 3.86 3.26 7 7.54 11 10.46 5.71 4.08 13 5.31 19 9 10 6.24 15.62 19.2 27 22.66 3.59 1.09 2.79 1.2 6.55 1.82 4.81.79 9.64 3.29 14.11 5s1.64 10.44 6.13 12.37c6.24 4.62 9.18 8.42 8 15-.9 5 1.25 7.27.77 12.28-.67 7 1.92 13.94 1.66 20.94-.42 11.74-8.81 23.14-6.13 34.7.85 3.65 2.77 7.09 4.12 10.65a71.52 71.52 0 013.24 14.05q.57 3.53 1.11 7.06a4.64 4.64 0 01.43-.26z"/><path class="cls-4" d="M346 299.66l-.06-199.55-33.59-19.38c-.27.18-9.55 3.82-9.81 4-5.24 3.75-3.76 6.63-9 10.38-4 2.86-6.53 6.72-9.36 10.33-10.22 13-1.64 30-4.36 45.09-.9 5-3.05 9.79-3.53 14.8-.67 7 1.92 13.94 1.67 20.94-.42 11.74-8.81 23.14-6.12 34.7.85 3.65.35 3 1.7 6.58 1.72 4.57 2 10 2.73 14.72s-8.22 6.64-7.65 11.49c-.87 7.72-2.69 12.17-9 14.43-4.76 1.71-5.67 4.72-10.25 6.81-6.38 2.91-11.11 8.63-17.3 11.91-10.38 5.51-24.44 3.94-33.11 12.05-2.74 2.56-4.75 5.95-7.16 8.89a71 71 0 01-10.54 9.84c-7.5 6.09-15 12.21-23.35 17a26.73 26.73 0 00-5.86 4c-3.17 3.2-4.58 8.13-5.89 12.9-.89 3.23-3.4 6.6-3.15 10.24.17 2.37-3.79 13.45-3.81 18.22l33.8 19.53z"/><path class="cls-5" d="M346 299.66l-.06-199.55-25.77-14.87c-.27.18-1.49 1.54-1.76 1.73-5.24 3.74-4.24 5.35-9.48 9.1-4 2.86-8.06 5.77-10.89 9.38-10.22 13-1.64 30-4.36 45.08-.9 5-3 9.8-3.53 14.81-.67 7 1.92 13.94 1.67 20.94C291.4 198 283 209.41 285.7 221c.85 3.65 2.77 7.09 4.12 10.66 1.73 4.56-2.23 7.61-1.46 12.33 1.13 6.9-5.73 9.81-7.75 14.3-8.39 4.53-.43 16.8-9.66 22.75-4.25 2.73-10 3.9-14.62 6-6.38 2.91-11.11 8.63-17.3 11.91-10.38 5.51-24.44 3.94-33.11 12-2.74 2.56-4.75 6-7.16 8.89a71.5 71.5 0 01-10.54 9.84c-7.5 6.1-15 12.21-23.35 17a27.08 27.08 0 00-5.86 4c-3.17 3.2-4.58 8.13-5.89 12.9-.89 3.23-3.4 6.61-3.15 10.24.17 2.37-1 7.07-1 11.84l24 13.85z"/><path class="cls-5" d="M345.85 99.81L173 0l-25.74 14.91c0 .33.58 2.07.62 2.39.62 6.41 2.5 6.36 3.13 12.77.48 4.89 1 9.86 2.68 14.12 6.17 15.37 25.11 16.39 36.85 26.33 3.86 3.26 7 7.53 11.06 10.46 5.71 4.07 13 5.31 19 9 10 6.25 15.63 19.21 27 22.66 3.59 1.1 7.53 1.15 11.29 1.76 4.82.79 5.47 5.74 9.95 7.44 6.54 2.47 5.62 9.87 8.5 13.87-.27 9.52 14.33 8.77 14.86 19.74.25 5.05-1.64 10.65-2.12 15.65-.67 7 1.92 13.94 1.66 20.94-.42 11.74-8.81 23.14-6.13 34.7.85 3.65 2.77 7.09 4.12 10.65a70.81 70.81 0 013.24 14.05c1.53 9.54 3.06 19.11 3.08 28.73a26.76 26.76 0 00.55 7.09c1.18 4.35 4.75 8 8.22 11.56 2.35 2.39 4 6.25 7.29 7.84 2.14 1.05 5.63 4.4 9.74 6.81l24-13.86z"/><path class="cls-6" d="M345.85 99.81L173 0l-16.17 9.39c0 .32.9 1.57 1.53 8 .47 4.9 1 9.86 2.68 14.12 6.17 15.38 25.11 16.4 36.85 26.33 3.86 3.27 7 7.54 11.06 10.46 5.71 4.08 13 5.31 19 9 10 6.24 12.49 18 23.84 21.41 3.59 1.09 9.67 4.78 13.43 5.4 4.81.79 5.52 7.54 10 9.25 9 3.45 1.41 5.82 9.75 10.61.75.43 4.49 11.58 5.25 12 4.87 4 17.61 11.12 18.06 20.34.25 5.05-3.05 9.8-3.53 14.81-.67 7 1.92 13.94 1.66 20.93-.42 11.75-8.81 23.14-6.13 34.7.85 3.65 2.77 7.09 4.12 10.65a70.81 70.81 0 013.24 14.05c1.53 9.54 3.06 19.12 3.08 28.74a26.79 26.79 0 00.55 7.09c1.18 4.34 4.75 8 8.22 11.55 2.35 2.39 4.78 4.83 8.05 6.43a43.2 43.2 0 005.14 2l13.16-7.6z"/><path class="cls-6" d="M346 299.66l-.06-199.55-16.2-9.35c-.27.19-.91 1.57-6.15 5.32-4 2.86-8 5.77-10.88 9.38-10.23 13-1.64 30-4.36 45.08-.9 5-3.05 9.8-3.53 14.81-.67 7 1.92 13.94 1.67 20.94-.43 11.74-9.3 19.8-6.61 31.35.85 3.66.69 10.77 2 14.33 1.72 4.56-3.76 8.55-3 13.28 1.53 9.54-4.34 4.13-4.32 13.75 0 .86-7.78 9.68-7.76 10.54-1 6.22-.81 20.82-8.57 25.82-4.25 2.74-10 2.26-14.59 4.35-6.38 2.91-11.11 8.63-17.3 11.91-10.38 5.51-24.44 3.95-33.11 12.05-2.74 2.56-4.75 5.95-7.16 8.9a70.93 70.93 0 01-10.54 9.83c-7.5 6.1-15 12.21-23.35 17a26.78 26.78 0 00-5.86 4c-3.17 3.2-4.58 8.13-5.89 12.89-.89 3.23-1.79 6.56-1.54 10.19a44.51 44.51 0 00.87 5.43l13.17 7.6z"/><path class="cls-7" d="M346 299.64l-.09-199.54-5.83-3.36s-3.33 8.26-5.38 9.93a25 25 0 00-6.2 7.76c-1.74 3.37-5.6 5.36-6.79 9-3.28 10-.57 23.5-2.48 37.09-.63 4.46-2.13 8.79-2.47 13.29-.47 6.26 1.35 12.5 1.17 18.78-.29 10.54-6.17 20.76-4.29 31.14.59 3.27 1.95 6.36 2.89 9.55 1.21 4.1.43 3.67 1 7.91 1.07 8.57-6.3 6.07-6.53 10.22-.12 2.13-4.56 7.41-4.48 9.23.09 2.16-2.49 6.2-2.35 9.44.08 1.73-4 6.43-5.75 8.52-1.53 1.84.84 9.83-2.42 11.79-7.31 4.37-3 11.4-15.71 16.54-4.18 1.69-8.68 2.55-12.74 4.51-5.66 2.72-10.16 7.42-15.68 10.4-9.28 5-21.07 5-29.11 11.86-2.54 2.15-4.54 4.86-6.84 7.28a78.82 78.82 0 01-9.77 8.27c-6.88 5.21-13.79 10.44-21.25 14.77a30.65 30.65 0 00-5.32 3.52c-3 2.67-4.57 6.49-6.09 10.17a22.57 22.57 0 00-2.17 7.77c-.08 2.19-3.18 9.42-3.51 11.15l3.17 2 2 .94z"/><path class="cls-7" d="M345.83 99.78L173 0l-5.83 3.37s5.49 7 5.91 9.62a25.1 25.1 0 003.62 9.25c2 3.2 1.83 7.54 4.37 10.37 7 7.87 20.07 12.26 30.87 20.7 3.56 2.78 6.55 6.25 10.27 8.79 5.19 3.54 11.51 5.09 16.86 8.38 9 5.53 14.89 15.74 24.81 19.29 3.13 1.13 6.48 1.5 9.72 2.28 4.16 1 3.39 1.47 7.32 3.13 8 3.35 2.11 8.49 5.59 10.77 1.79 1.16 4.13 7.65 5.75 8.5 1.92 1 4.12 5.24 7 6.74 1.54.81 3.55 6.7 4.49 9.25.83 2.24 8.94 4.19 9 8 .14 8.52 8.38 8.3 6.47 21.88-.63 4.46-2.13 8.79-2.47 13.28-.48 6.27 1.34 12.51 1.16 18.79-.3 10.54-6.18 20.76-4.3 31.14.6 3.27 1.95 6.36 2.89 9.56a78.85 78.85 0 012.27 12.6c1.07 8.57 2.14 17.16 2.16 25.79a30 30 0 00.39 6.36c.83 3.9 3.33 7.21 5.76 10.37a22.88 22.88 0 005.64 5.76c1.86 1.17 6.57 7.46 7.9 8.61l3.35-1.72 1.81-1.26z"/><path d="M299.18 121.08c-1.14-.15-5.61-5.57-7.12-6.86-2-1.67-4.08-7.28-5.54-8.23-3.48-2.28 2.37-7.42-5.59-10.77-3.93-1.66-3.16-2.13-7.32-3.13-3.24-.78-6.59-1.15-9.72-2.28-9.93-3.56-15.84-13.76-24.81-19.29-5.35-3.29-11.67-4.84-16.86-8.38-3.72-2.54-6.71-6-10.27-8.79-10.8-8.45-23.82-12.83-30.87-20.7-2.54-2.83-2.32-7.17-4.37-10.37a25.1 25.1 0 01-3.62-9.28c-.42-2.61-5.91-9.62-5.91-9.62L173 0l172.84 99.81z" style="fill:url(#linear-gradient-2)" id="_1" data-name="1"/><path class="cls-6" d="M346 299.66v-.02l-173.04 99.94L346 299.66z"/><path d="M346 299.64v-41.82l-.15-158-46.67 21.27c1.54.8 3.56 6.7 4.49 9.24.83 2.25 8.94 4.2 9 8 .14 8.51 8.39 8.29 6.47 21.88-.52 3.71-1.65 7.34-2.21 11 0 .87-.09 1.72-.15 2.54-.47 6.26 1.35 12.5 1.17 18.78-.29 10.54-6.17 20.76-4.29 31.14.59 3.27 1.95 6.36 2.89 9.55 1.21 4.1.43 3.67 1 7.91 1.07 8.57-6.3 6.07-6.53 10.22-.12 2.13-4.56 7.41-4.48 9.23.09 2.16-2.49 6.2-2.35 9.44a5.78 5.78 0 01-1.21 2.72l23.64 14.76.42.55a22.76 22.76 0 005.64 5.77c1.86 1.16 6.72 7.68 8.06 8.83l3.16-1.82 1.32-.74z" style="fill:url(#linear-gradient-3)"/><path d="M173 399.58l167.71-96.88c-1.35-1.17-6.19-7.66-8-8.82a22.76 22.76 0 01-5.65-5.76l-.42-.55L303 272.8a65.86 65.86 0 01-4.56 5.77c-1.65 1.73.84 9.83-2.42 11.79-7.31 4.37-3 11.4-15.71 16.54-4.18 1.69-8.68 2.55-12.74 4.51-5.66 2.72-10.16 7.42-15.68 10.4-9.28 5-21.07 5-29.11 11.86-2.54 2.15-4.54 4.86-6.84 7.28a79.69 79.69 0 01-9.77 8.27c-6.88 5.21-13.79 10.44-21.25 14.77a30.65 30.65 0 00-5.32 3.52c-3 2.67-4.57 6.49-6.09 10.17a22.57 22.57 0 00-2.17 7.77c-.07 2.12-3 8.9-3.45 10.93v.26l5.16 3" style="fill:url(#linear-gradient-4)"/></g></svg>