<svg xmlns="http://www.w3.org/2000/svg" xmlns:xlink="http://www.w3.org/1999/xlink" width="346.34" height="399.75" viewBox="0 0 346.34 399.75"><defs><linearGradient id="linear-gradient" x1="-389.68" y1="-1002.11" x2="-343.39" y2="-1009.23" gradientTransform="scale(1 -1) rotate(60.1 -875.172 .7358)" gradientUnits="userSpaceOnUse"><stop offset=".19" stop-color="#e8cf96"/><stop offset=".31" stop-color="#e8cf96" stop-opacity=".82"/><stop offset=".56" stop-color="#e8cf96" stop-opacity=".47"/><stop offset=".77" stop-color="#e8cf96" stop-opacity=".22"/><stop offset=".92" stop-color="#e8cf96" stop-opacity=".06"/><stop offset="1" stop-color="#e8cf96" stop-opacity="0"/></linearGradient><linearGradient id="linear-gradient-2" x1="-438.22" y1="-1161.29" x2="-463.02" y2="-1120.15" gradientTransform="scale(1 -1) rotate(60.1 -875.172 .7358)" gradientUnits="userSpaceOnUse"><stop offset="0" stop-color="#e8cf96" stop-opacity="0"/><stop offset=".08" stop-color="#e8cf96" stop-opacity=".06"/><stop offset=".23" stop-color="#e8cf96" stop-opacity=".22"/><stop offset=".44" stop-color="#e8cf96" stop-opacity=".47"/><stop offset=".69" stop-color="#e8cf96" stop-opacity=".82"/><stop offset=".81" stop-color="#e8cf96"/></linearGradient><linearGradient id="linear-gradient-3" x1="-4747.36" y1="-1002.28" x2="-4701.08" y2="-1009.4" gradientTransform="rotate(120 -2705.086 1053.6978)" xlink:href="#linear-gradient"/><linearGradient id="linear-gradient-4" x1="-588.71" y1="3086.79" x2="-614.56" y2="3126.09" gradientTransform="rotate(-60 -2580.6512 982.459)" xlink:href="#linear-gradient"/><style>.cls-4{fill:#57afd6}.cls-5{fill:#80cff3}.cls-6{fill:#f2e8c0}.cls-7{fill:#e0b569}</style></defs><g id="Layer_5" data-name="Layer 5"><g style="opacity:0"><path style="fill:#0a67a6" d="M2.26 298.58L2 100.98 173.1 2.31l171.06 98.76.05 197.6-170.9 98.67L2.26 298.58z"/><path d="M173.1 4.62l169.06 97.6v195.3L173.31 395l-169-97.6L4 102.13 173.1 4.62m0-4.62L0 99.82l.26 199.92 173.05 99.91 172.9-99.82V99.91L173.1 0z" style="fill:#3873a0"/></g><path class="cls-4" d="M173.32 399.6l172.87-99.88v-38.8c-.29-.14-8.09-6.35-8.39-6.49-5.86-2.66-7.62.07-13.48-2.6-4.48-2-9.1-2.29-13.64-2.94-16.41-2.33-26.76 13.57-41.24 18.78-4.76 1.71-10 2.26-14.6 4.35-6.38 2.91-11.11 8.64-17.3 11.92-10.39 5.51-24.46 3.94-33.13 12.05-2.74 2.56-2.44 1.82-4.85 4.76-3.09 3.78-7.67 6.72-11.39 9.74s-9.87-3.81-13.78-.88c-7.13 3.1-11.88 3.75-17-.57-3.86-3.26-6.93-2.55-11-5.47-5.71-4.08-13-5.31-19-9-10-6.24-15.64-19.21-27-22.66-3.59-1.09-7.53-1.14-11.29-1.76a70.74 70.74 0 01-13.79-4.21c-9-3.45-18.1-6.91-26.44-11.7a26.68 26.68 0 00-6.42-3.07c-4.37-1.15-9.34.1-14.13 1.35-3.24.84-7.42.35-10.44 2.39-2 1.34-13.56 3.45-17.7 5.81v39z"/><path class="cls-5" d="M173.32 399.6l172.87-99.88V270c-.29-.14-2.08-.53-2.38-.66-5.86-2.67-6.75-1-12.62-3.67-4.48-2-9-4.09-13.58-4.74-16.41-2.33-26.76 13.56-41.24 18.77-4.76 1.72-10 2.27-14.59 4.36-6.39 2.91-11.12 8.64-17.31 11.92-10.38 5.5-24.45 3.94-33.12 12.05-2.74 2.56-4.76 5.95-7.17 8.9-3.09 3.78-7.71 1.87-11.42 4.91-5.41 4.43-11.36-.07-16.26.42-8.12-5-14.77 8-24.54 3-4.5-2.32-8.41-6.75-12.51-9.67-5.71-4.08-13-5.31-19-9-10-6.24-15.65-19.2-27-22.66-3.59-1.09-7.53-1.14-11.29-1.76a70.74 70.74 0 01-13.79-4.21c-9-3.45-18.09-6.91-26.44-11.7a26.88 26.88 0 00-6.42-3.07c-4.36-1.14-9.33.1-14.12 1.35-3.25.84-7.43.36-10.45 2.39-2 1.34-6.62 2.68-10.77 5.05v27.72z"/><path class="cls-6" d="M173.32 399.6l172.87-99.88V281c-.3-.14-1.82 0-7.69-2.66-4.48-2-9-4.1-13.57-4.74-16.41-2.34-26.77 13.56-41.24 18.77-4.76 1.71-10 2.26-14.6 4.35-6.38 2.91-11.11 8.64-17.3 11.92-10.39 5.51-21.8 1.85-30.48 10-2.73 2.56-9 6-11.39 8.93-3.09 3.78-9.29 1-13 4-7.5 6.1-5.75-1.7-14.07 3.14-.75.43-12.28-1.9-13-1.45-5.9 2.22-18.44 9.7-26.66 5.48-4.5-2.31-7-7.54-11.06-10.46-5.72-4.08-13-5.31-19-9-10-6.24-15.64-19.21-27-22.66-3.59-1.09-7.53-1.14-11.29-1.76A70.74 70.74 0 0161 290.63c-9-3.45-18.1-6.91-26.44-11.7a27.46 27.46 0 00-6.42-3.07c-4.36-1.15-9.34.1-14.12 1.35-3.25.84-6.58 1.72-9.6 3.76a42.46 42.46 0 00-4.27 3.48v15.2z"/><path class="cls-7" d="M173.36 399.6l172.83-99.89V293s-8.82 1.26-11.29.31a25.08 25.08 0 00-9.82-1.48c-3.8.18-7.46-2.18-11.18-1.4-10.34 2.18-20.65 11.26-33.37 16.4-4.18 1.69-8.69 2.55-12.75 4.51-5.66 2.73-10.16 7.42-15.69 10.41-9.28 5-21.08 5-29.13 11.86-2.54 2.15-4.53 4.87-6.83 7.28-2.95 3.1-3 2.2-6.37 4.79-6.89 5.21-8.41-2.43-12.13-.55-1.9 1-8.69-.25-10.23.74-1.83 1.16-6.61 1-9.35 2.69-1.47.93-7.59-.27-10.26-.73-2.36-.4-8.1 5.65-11.43 3.8-7.45-4.14-11.37 3.12-22.19-5.33-3.55-2.78-6.55-6.24-10.27-8.79-5.2-3.54-11.51-5.09-16.87-8.38-9-5.53-14.9-15.73-24.83-19.29-3.14-1.12-6.49-1.5-9.72-2.28a78.82 78.82 0 01-12.06-4.33c-8-3.36-15.94-6.72-23.43-11a30.14 30.14 0 00-5.71-2.85c-3.79-1.23-7.91-.72-11.86-.19a22.52 22.52 0 00-7.82 2c-1.94 1-9.74 2-11.41 2.54L0 297.45l.18 2.2z"/><path class="cls-4" d="M346.32 100l-.06 199.65L312.65 319c-.27-.19-9.55-3.83-9.81-4-5.24-3.75-3.76-6.63-9-10.38-4-2.86-6.53-6.73-9.36-10.34-10.23-13-1.64-30-4.36-45.1-.9-5-3.05-9.81-3.53-14.82-.67-7 1.92-13.94 1.67-20.94-.43-11.75-8.82-23.15-6.13-34.72.85-3.65.36-3 1.7-6.58 1.73-4.57 2-10 2.74-14.73s-8.23-6.65-7.65-11.5c-.88-7.72-2.7-12.16-9-14.43-4.76-1.71-5.67-4.72-10.26-6.81-6.38-2.91-11.11-8.64-17.3-11.92-10.39-5.51-24.45-3.94-33.13-12-2.74-2.57-4.75-6-7.16-8.9a71.07 71.07 0 00-10.55-9.84c-7.5-6.1-15-12.22-23.35-17a26.91 26.91 0 01-5.87-4c-3.17-3.2-4.58-8.14-5.9-12.91-.89-3.23-3.4-6.61-3.14-10.24.17-2.38-3.8-13.46-3.82-18.23L173.2 0z"/><path class="cls-5" d="M346.32 100l-.06 199.65-25.78 14.87c-.27-.18-1.5-1.54-1.76-1.73-5.25-3.75-4.25-5.35-9.49-9.1-4-2.86-8.06-5.77-10.89-9.39-10.23-13-1.64-30-4.37-45.1-.89-5-3-9.8-3.52-14.81-.68-7 1.92-13.95 1.66-20.95-.42-11.75-8.81-23.15-6.12-34.71.85-3.66 2.78-7.1 4.12-10.66 1.73-4.57-2.23-7.62-1.46-12.34 1.13-6.9-5.73-9.81-7.76-14.31-8.38-4.53-.42-16.8-9.66-22.75-4.25-2.74-10-3.91-14.62-6-6.39-2.91-11.12-8.63-17.31-11.92-10.39-5.51-24.45-3.94-33.12-12-2.74-2.56-4.76-6-7.17-8.9a71.07 71.07 0 00-10.55-9.84c-7.5-6.1-15-12.21-23.35-17a27.8 27.8 0 01-5.87-4c-3.17-3.2-4.58-8.14-5.89-12.9-.89-3.24-3.41-6.62-3.15-10.25.17-2.38-1-7.08-1-11.85L173.2 0z"/><path class="cls-6" d="M346.32 99.96v.02L173.19 0l173.13 99.96z"/><path class="cls-4" d="M173.32 399.6l-33.67-19.44a1.26 1.26 0 010 .16l33.6 19.4 172.9-99.82v-.16zM279.35 148.19a70.84 70.84 0 01-3.25 14.05c-1.34 3.56-3.27 7-4.12 10.66-2.68 11.57 5.71 23 6.14 34.71.25 7-2.34 14-1.66 20.95.48 5-1.67 7.31-.77 12.29 1.18 6.58-1.75 10.37-8 15-4.49 1.92-1.55 10.62-6.13 12.37s-9.3 4.21-14.12 5c-3.76.62-3 .73-6.55 1.82-11.36 3.46-17 16.43-27 22.67-5.93 3.73-13.26 5-19 9-4.09 2.92-7.2 7.2-11.06 10.46a42.1 42.1 0 01-7.5 4.94l.13.07c4.9-.49 10.85 4 16.26-.42 3.71-3 8.32-1.13 11.42-4.91 2.41-2.95 4.43-6.34 7.17-8.9 8.67-8.11 22.74-6.55 33.12-12.05 6.19-3.28 10.92-9 17.31-11.92 4.58-2.09 9.83-2.64 14.59-4.36 6.24-2.24 11.72-6.47 17.24-10.38.62-6.73 1.55-13.59.37-20.12-.89-5-3-9.8-3.52-14.81-.68-7 1.92-13.95 1.66-20.95-.42-11.75-8.81-23.15-6.12-34.71.85-3.66 2.78-7.1 4.12-10.66 1.73-4.57-2.23-7.62-1.46-12.34 1.13-6.9-5.73-9.81-7.76-14.31l-.44-.26c-.32 2.4-.7 4.76-1.07 7.11z"/><path class="cls-5" d="M173.32 399.6l-25.81-14.9v.14l25.78 14.88 172.9-99.82v-.16zM312.35 92.94c-3.27 1.59-4.94 5.46-7.29 7.85-3.47 3.52-7 7.2-8.23 11.55a27.29 27.29 0 00-.55 7.1c0 9.62-1.55 19.2-3.07 28.75a70.84 70.84 0 01-3.21 14.05c-1.35 3.57-3.27 7-4.12 10.66-2.69 11.56 5.71 23 6.13 34.71.26 7-2.33 14-1.66 20.95.49 5 2.37 10.61 2.13 15.66-.53 11-15.14 10.22-14.88 19.75-2.87 4-2 11.4-8.5 13.88-4.48 1.69-5.14 6.64-9.95 7.44-3.76.61-7.71.66-11.29 1.76-11.36 3.45-17 16.42-27 22.66-5.94 3.73-13.26 5-19 9-4.1 2.92-7.2 7.2-11.06 10.46a44.82 44.82 0 01-8.66 5.55 1.82 1.82 0 00.71 0c8.32-4.84 6.57 3 14.07-3.14 3.72-3 9.92-.26 13-4 2.42-3 8.65-6.37 11.39-8.93 8.68-8.11 20.09-4.45 30.48-10 6.19-3.28 10.92-9 17.3-11.92 4.58-2.09 9.84-2.64 14.6-4.35 14.47-5.21 24.83-21.11 41.24-18.77 4.54.64 9.09 2.7 13.57 4.74 5.73 2.6 7.31 2.53 7.66 2.65l-.05-181-24-13.86c-4.11 2.4-7.62 5.75-9.76 6.8z"/><path class="cls-6" d="M173.36 399.6l-16.26-9.38a.56.56 0 000 .15l16.2 9.35 172.9-99.82v-.18zM327.8 94.35c-3.28 1.6-5.7 4-8.06 6.44-3.47 3.52-7 7.2-8.22 11.55a26.83 26.83 0 00-.55 7.1c0 9.62-1.55 19.2-3.08 28.75a70.81 70.81 0 01-3.24 14.05c-1.35 3.56-3.28 7-4.12 10.66-2.69 11.56 5.7 23 6.13 34.71.26 7-2.34 14-1.66 20.95.48 5 3.78 9.76 3.53 14.81-.45 9.22-13.2 16.35-18.07 20.35-.76.42-4.5 11.57-5.25 12-8.35 4.8-.72 7.17-9.75 10.63-4.47 1.7-5.18 8.45-10 9.24-3.75.62-9.83 4.31-13.42 5.41-11.36 3.45-13.89 15.17-23.85 21.41-5.94 3.72-13.27 5-19 9-4.09 2.92-7.2 7.2-11.06 10.46a37.84 37.84 0 01-5.07 3.57c1.9 0 3.72 0 4.56-.38 3.72-1.88 5.24 5.76 12.13.55 3.41-2.59 3.42-1.69 6.37-4.79 2.3-2.41 4.29-5.13 6.83-7.28 8-6.82 19.85-6.84 29.13-11.86 5.53-3 10-7.68 15.69-10.41 4.06-2 8.57-2.82 12.75-4.51 12.72-5.14 23-14.22 33.37-16.4 3.72-.78 7.38 1.58 11.18 1.4a25.08 25.08 0 019.82 1.48c2.43.93 11-.26 11.26-.3l-.05-193-13.17-7.6a45 45 0 00-5.13 2.01z"/><path class="cls-6" d="M313.07 261.22c.13-8.52 8.38-8.29 6.47-21.88-.63-4.47-2.14-8.8-2.48-13.29-.47-6.27 1.34-12.52 1.17-18.8-.3-10.54-6.19-20.77-4.3-31.15.59-3.28 1.94-6.37 2.89-9.56a80.11 80.11 0 002.27-12.61c1.07-8.57 2.14-17.17 2.15-25.8a31.53 31.53 0 01.39-6.37c.83-3.9 3.33-7.21 5.77-10.37a22.93 22.93 0 015.64-5.77c1.86-1.16 6.57-7.46 7.91-8.61l2.46 1.27L173.2 0 160 7.6a41.11 41.11 0 00-.87 5.44c-.26 3.63.64 7 1.53 10.19 1.32 4.76 2.72 9.7 5.9 12.9a27.13 27.13 0 005.86 4c8.33 4.83 15.86 10.94 23.36 17.05A69.93 69.93 0 01206.35 67c2.42 2.95 4.43 6.34 7.17 8.9 8.67 8.11 22.74 6.55 33.13 12.06 6.19 3.28 10.91 9 17.3 11.91 4.58 2.09 10.34 1.61 14.59 4.35 7.77 5 7.56 19.61 8.58 25.84 0 .86 7.77 9.68 7.77 10.54 0 9.63 5.85 4.21 4.32 13.76-.76 4.73 4.73 8.72 3 13.29-1.35 3.56-1.19 10.67-2 14.33-2.69 11.56 6.18 19.62 6.61 31.37.25 7-2.34 14-1.67 20.94.48 5 2.63 9.84 3.53 14.82 1 5.46.49 11.15-.06 16.8 2.2-1.23 4.38-2.71 4.45-4.69zM346.11 99.99l.04 199.68.11-.06.06-199.65-1.54-.89 1.33.92z"/><path class="cls-7" d="M346.34 100l-.09 199.63-5.84 3.37s-3.32-8.26-5.38-9.94a25 25 0 01-6.19-7.76c-1.75-3.38-5.62-5.36-6.8-9-3.29-10.05-.57-23.52-2.48-37.11-.63-4.46-2.14-8.79-2.47-13.29-.47-6.27 1.34-12.51 1.17-18.8-.3-10.54-6.18-20.77-4.3-31.15.6-3.28 2-6.36 2.9-9.56 1.21-4.1.42-3.67.95-7.91 1.08-8.57-6.3-6.07-6.53-10.23-.12-2.13-4.56-7.4-4.48-9.23.09-2.16-2.49-6.2-2.35-9.44.08-1.74-4-6.44-5.76-8.52-1.53-1.84.84-9.84-2.42-11.8-7.31-4.38-3-11.41-15.71-16.55-4.18-1.69-8.69-2.55-12.75-4.51-5.66-2.72-10.16-7.42-15.69-10.41-9.28-5-21.08-5-29.12-11.86-2.54-2.15-4.54-4.87-6.84-7.28a79 79 0 00-9.78-8.28c-6.88-5.21-13.79-10.44-21.26-14.77a31.24 31.24 0 01-5.32-3.52c-3-2.67-4.57-6.49-6.09-10.18a22.57 22.57 0 01-2.17-7.78c-.08-2.18-3.18-9.41-3.54-11.12l3.18-2 2-.94z"/><path class="cls-7" d="M346.15 299.93l-172.9 99.79-5.83-3.37s5.49-7 5.91-9.63a25.17 25.17 0 013.62-9.25c2.05-3.2 1.84-7.54 4.37-10.37 7.06-7.88 20.08-12.26 30.89-20.72 3.55-2.77 6.55-6.24 10.27-8.79 5.2-3.54 11.51-5.09 16.86-8.39 9-5.53 14.9-15.73 24.83-19.29 3.14-1.13 6.49-1.5 9.72-2.28 4.16-1 3.39-1.47 7.33-3.13 8-3.36 2.1-8.5 5.59-10.78 1.79-1.16 4.13-7.65 5.75-8.5 1.92-1 4.13-5.25 7-6.75 1.54-.8 3.56-6.7 4.5-9.25.83-2.25 8.94-4.19 9-8 .13-8.52 8.38-8.29 6.47-21.88-.63-4.47-2.14-8.8-2.48-13.29-.47-6.27 1.34-12.52 1.17-18.8-.3-10.54-6.19-20.77-4.3-31.15.59-3.28 1.94-6.37 2.89-9.56a80.11 80.11 0 002.27-12.61c1.07-8.57 2.14-17.17 2.15-25.8a31.53 31.53 0 01.39-6.37c.83-3.9 3.33-7.21 5.77-10.37a22.93 22.93 0 015.64-5.77c1.86-1.16 6.57-7.46 7.91-8.61l3.35 1.73 1.81 1.25z"/><path d="M173.17 0L341 97c-1.36 1.17-6.2 7.66-8.06 8.82a22.88 22.88 0 00-5.64 5.76l-.42.56-23.65 14.77a66.76 66.76 0 00-4.57-5.77c-1.65-1.73.84-9.84-2.42-11.79-7.31-4.38-3-11.42-15.71-16.56-4.18-1.68-8.69-2.54-12.75-4.5-5.66-2.73-10.16-7.42-15.69-10.42-9.28-5-21.08-5-29.12-11.85-2.54-2.16-4.54-4.87-6.84-7.28a78.13 78.13 0 00-9.78-8.28C199.48 45.2 192.57 40 185.1 35.64a30.65 30.65 0 01-5.32-3.52c-3-2.67-4.57-6.49-6.1-10.18a22.78 22.78 0 01-2.16-7.77c-.08-2.12-3-8.91-3.46-10.94L168 3l5.17-3" style="fill:url(#linear-gradient)"/><path d="M346.3 100v41.86l-.15 158.08-46.69-21.28c1.54-.8 3.56-6.7 4.5-9.25.83-2.25 8.94-4.19 9-8 .14-8.51 8.39-8.29 6.47-21.88-.52-3.72-1.65-7.35-2.21-11 0-.87-.09-1.73-.15-2.54-.47-6.27 1.35-12.51 1.17-18.79-.29-10.55-6.17-20.77-4.29-31.15.6-3.28 1.95-6.37 2.89-9.56 1.21-4.11.43-3.67 1-7.91 1.07-8.57-6.31-6.07-6.54-10.23-.11-2.13-4.56-7.41-4.48-9.24.1-2.16-2.48-6.2-2.34-9.43a5.92 5.92 0 00-1.21-2.73l23.64-14.77.42-.55a22.8 22.8 0 015.65-5.77c1.86-1.16 6.72-7.68 8.06-8.83l3.16 1.82 1.33.74z" style="fill:url(#linear-gradient-2)"/><path d="M.19 299.66L168 396.54c.34-1.75 3.54-9.19 3.61-11.38a22.8 22.8 0 012.17-7.77l.27-.64 1-27.87a66.38 66.38 0 01-7.28-1.07c-2.32-.56-8.1 5.65-11.42 3.8-7.45-4.14-11.38 3.12-22.19-5.33-3.56-2.78-6.55-6.25-10.28-8.79-5.19-3.54-11.51-5.09-16.86-8.38-9-5.53-14.9-15.74-24.83-19.29-3.14-1.13-6.49-1.5-9.73-2.28a78.82 78.82 0 01-12.06-4.33c-7.95-3.36-15.94-6.73-23.42-11a31.33 31.33 0 00-5.71-2.84c-3.8-1.23-7.91-.72-11.87-.19a22.41 22.41 0 00-7.81 2c-1.87 1-9.19 1.89-11.2 2.47l-.23.1v6" style="fill:url(#linear-gradient-3)"/><path class="cls-6" d="M157.1 390.22a.56.56 0 000 .15l10.36 6 .09-.12zM173.25 399.72h.01l79.38-45.82-79.39 45.82zM346.15 299.91l.01-.01v-.18l-.01.01v.18z"/><path d="M299.46 278.67l46.69 21.27-46.72 26.95-126.18 72.86-5.25-3.18c.34-1.76 3.54-9.19 3.62-11.38a22.73 22.73 0 012.17-7.77l.27-.65 1-27.86s2.59.1 3.34-.6c0 0 1.44-1.1 7.69-1.89a7.76 7.76 0 013.42-1s7.21.14 8-.29c0 0 1.91-1.17 4.38 1 0 0 1.65 1.93 5 1.13a14 14 0 003.68-2.19s2.16-1.46 3.12-1.94a46.86 46.86 0 005.68-5.87s4.53-5.28 8.24-6.74a106.18 106.18 0 0117.83-6s9.36-9.12 11.25-10.3a25.2 25.2 0 0110.47-5.22s6-1.26 8.44-1.85c0 0 5.59-2.75 6.8-3.27 0 0 3.48-1.54 3.29-5.11 0 0-.55-3.4.29-4.25a3.12 3.12 0 011.07-1 41.66 41.66 0 003.87-6.3 5 5 0 011.93-2.2 38.73 38.73 0 004-4.38s2.15-2.15 2.61-1.97z" style="fill:url(#linear-gradient-4)"/></g></svg>