<svg xmlns="http://www.w3.org/2000/svg" xmlns:xlink="http://www.w3.org/1999/xlink" width="346.21" height="399.91" viewBox="0 0 346.21 399.91"><defs><style>.cls-1{opacity:0;}.cls-2{fill:#0a67a6;}.cls-3{fill:#3873a0;}.cls-4{fill:#57afd6;}.cls-5{fill:#80cff3;}.cls-6{fill:#f2e8c0;}.cls-7{fill:#e0b569;}.cls-8{fill:url(#linear-gradient);}.cls-9{fill:url(#linear-gradient-2);}.cls-10{fill:url(#linear-gradient-3);}.cls-11{fill:url(#linear-gradient-4);}.cls-12{fill:url(#linear-gradient-5);}.cls-13{fill:url(#linear-gradient-6);}</style><linearGradient id="linear-gradient" x1="-5447.22" y1="872.43" x2="-5400.93" y2="865.31" gradientTransform="translate(-5410.56 1062.78) rotate(180)" gradientUnits="userSpaceOnUse"><stop offset="0.19" stop-color="#e8cf96"/><stop offset="0.31" stop-color="#e8cf96" stop-opacity="0.82"/><stop offset="0.56" stop-color="#e8cf96" stop-opacity="0.47"/><stop offset="0.77" stop-color="#e8cf96" stop-opacity="0.22"/><stop offset="0.92" stop-color="#e8cf96" stop-opacity="0.06"/><stop offset="1" stop-color="#e8cf96" stop-opacity="0"/></linearGradient><linearGradient id="linear-gradient-2" x1="110.32" y1="310.75" x2="84.48" y2="350.04" gradientTransform="matrix(1, 0, 0, 1, 0, 0)" xlink:href="#linear-gradient"/><linearGradient id="linear-gradient-3" x1="340.53" y1="964.56" x2="345.63" y2="963.78" gradientTransform="matrix(1, 0, 0, -1, 0, 1062.78)" xlink:href="#linear-gradient"/><linearGradient id="linear-gradient-4" x1="261.07" y1="713.25" x2="236.28" y2="754.4" gradientTransform="matrix(1, 0, 0, -1, 0, 1062.78)" gradientUnits="userSpaceOnUse"><stop offset="0" stop-color="#e8cf96" stop-opacity="0"/><stop offset="0.08" stop-color="#e8cf96" stop-opacity="0.06"/><stop offset="0.23" stop-color="#e8cf96" stop-opacity="0.22"/><stop offset="0.44" stop-color="#e8cf96" stop-opacity="0.47"/><stop offset="0.69" stop-color="#e8cf96" stop-opacity="0.82"/><stop offset="0.81" stop-color="#e8cf96"/></linearGradient><linearGradient id="linear-gradient-5" x1="259.93" y1="44.9" x2="237.38" y2="91.78" gradientTransform="matrix(1, 0, 0, 1, 0, 0)" xlink:href="#linear-gradient-4"/><linearGradient id="linear-gradient-6" x1="299.78" y1="192.73" x2="355.95" y2="198" gradientTransform="matrix(1, 0, 0, 1, 0, 0)" xlink:href="#linear-gradient"/></defs><title>Sea Tiles</title><g id="Layer_5" data-name="Layer 5"><g class="cls-1"><polygon class="cls-2" points="2.12 298.93 2.12 101.41 173.12 2.39 344.12 101.24 344.12 298.75 173.02 397.6 2.12 298.93"/><path class="cls-3" d="M173.12,4.7l169,97.69V297.6L173,395.29,4.12,297.77V102.57l169-97.87m0-4.62L.12,100.26V300.08L173,399.91l173.1-100V100.08l-173-100Z"/></g><path class="cls-4" d="M183.64,82.57c3.87,3.27,7,7.54,11.07,10.47,5.71,4.07,13,5.3,19,9,10,6.24,15.65,19.21,27,22.66,3.59,1.1,2.8,1.21,6.56,1.82,4.82.79,9.65,3.29,14.12,5S263,142,267.49,143.91c6.25,4.63,9.19,8.42,8,15-.89,5,1.26,7.28.78,12.29-.67,7,1.92,13.94,1.67,21-.43,11.74-8.82,23.14-6.13,34.71.85,3.65,2.78,7.09,4.12,10.66a70.84,70.84,0,0,1,3.25,14q.52,3.24,1,6.5c4.17-4,11.87-5.78,12.25-13.69.25-5.06-1.63-10.66-2.12-15.67-.67-7,1.93-13.94,1.67-20.94-.42-11.75-8.81-23.15-6.12-34.72.85-3.65,2.78-7.09,4.12-10.65a71,71,0,0,0,3.25-14.05c1.53-9.55,3.06-19.13,3.08-28.76a27.22,27.22,0,0,1,.56-7.09c1.19-4.35,4.75-8,8.23-11.56,2.35-2.39,4-6.25,7.3-7.84,2.14-1,5.63-4.4,9.74-6.81L346,100v-.21L173,.07,139.43,19.48c0,.32-1.46,10.18-1.43,10.51.63,6.41,3.86,6.56,4.49,13,.48,4.9,2.56,9,4.28,13.28C153,71.62,171.89,72.64,183.64,82.57Z"/><path class="cls-4" d="M346.16,300.07,173.23,399.84l-33.59-19.41c0-.32-1.46-10.18-1.43-10.51.63-6.41,3.86-6.57,4.49-13,.48-4.89,2.56-9,4.28-13.28,6.18-15.37,25.12-16.39,36.87-26.33,3.87-3.26,7-7.53,11.07-10.46,5.71-4.07,13-5.3,19-9,10-6.24,15.64-19.2,27-22.66,3.59-1.09,2.8-1.2,6.55-1.82,4.83-.79,9.66-3.28,14.13-5s1.64-10.45,6.13-12.38c6.25-4.62,9.19-8.42,8-15-.89-5,1.26-7.28.78-12.29-.68-7,1.92-14,1.67-21-.43-11.75-8.82-23.15-6.13-34.71.85-3.66,2.78-7.1,4.12-10.66a70.84,70.84,0,0,0,3.25-14c1.53-9.55,3.07-19.13,3.09-28.75a26.79,26.79,0,0,1,.55-7.09c1.19-4.35,4.76-8,8.23-11.56,2.35-2.39,4-6.25,7.3-7.85,2.14-1,9.76-10,13.88-12.42l33.73,19.49Z"/><path class="cls-5" d="M346.16,300.07,173.23,399.84,147.46,385c0-.32.58-2.06.62-2.39.62-6.41,2.51-6.35,3.14-12.77.47-4.89,1-9.86,2.68-14.12,6.18-15.38,25.13-16.4,36.88-26.33,3.86-3.27,7-7.54,11.06-10.46,5.72-4.08,13-5.31,19-9,10-6.24,15.64-19.21,27-22.66,3.59-1.1,7.53-1.15,11.29-1.76,4.82-.79,5.48-5.74,10-7.43,6.54-2.48,5.63-9.88,8.5-13.88-.26-9.53,14.35-8.77,14.88-19.74.25-5.06-1.63-10.66-2.12-15.67-.67-7,1.93-13.94,1.67-20.94-.42-11.75-8.81-23.15-6.12-34.72.85-3.65,2.78-7.09,4.12-10.65a71,71,0,0,0,3.25-14.05c1.53-9.55,3.06-19.13,3.08-28.76a27.22,27.22,0,0,1,.56-7.09c1.19-4.35,4.75-8,8.23-11.56,2.35-2.39,4-6.25,7.3-7.84,2.14-1,5.63-4.4,9.74-6.81l24,13.87Z"/><path class="cls-5" d="M346,99.83,173,.07,147.25,15c0,.32.59,2.06.62,2.39.62,6.41,2.51,6.35,3.14,12.76.47,4.9,1,9.87,2.68,14.13,6.18,15.38,25.13,16.4,36.88,26.33,3.86,3.27,7,7.54,11.06,10.46,5.72,4.08,13,5.31,19,9,10,6.24,15.64,19.21,27,22.66,3.59,1.09,7.53,1.14,11.29,1.76,4.82.79,5.48,5.74,10,7.43,6.54,2.47,5.63,9.88,8.5,13.88-.26,9.52,14.35,8.76,14.88,19.74.25,5.05-1.63,10.65-2.12,15.67-.67,7,1.93,13.94,1.67,20.94-.42,11.75-8.81,23.15-6.12,34.72.85,3.65,2.78,7.09,4.12,10.65A70.84,70.84,0,0,1,293,251.56c1.53,9.55,3.06,19.13,3.08,28.75a27.26,27.26,0,0,0,.56,7.1c1.19,4.35,4.76,8,8.23,11.55,2.35,2.39,4,6.26,7.3,7.85,2.14,1,5.63,4.4,9.74,6.81l24-13.87Z"/><path class="cls-6" d="M346,99.83,173,.07l-16.2,9.36c0,.32.91,1.57,1.54,8,.47,4.9,1,9.87,2.68,14.13,6.18,15.38,25.13,16.4,36.88,26.33,3.86,3.26,7,7.54,11.06,10.46,5.72,4.08,13,5.31,19,9,10,6.24,12.5,18,23.86,21.41,3.59,1.09,9.67,4.78,13.43,5.4,4.82.79,5.53,7.54,10,9.24,9,3.45,1.41,5.83,9.75,10.63.75.43,4.5,11.58,5.26,12,4.87,4,17.63,11.11,18.08,20.34.25,5.05-3,9.8-3.53,14.81-.67,7,1.92,13.95,1.67,20.95-.42,11.75-8.81,23.15-6.13,34.71.85,3.66,2.78,7.1,4.13,10.66a70.84,70.84,0,0,1,3.25,14.05c1.53,9.55,3.06,19.13,3.08,28.75a26.76,26.76,0,0,0,.56,7.09c1.18,4.35,4.75,8,8.22,11.56,2.36,2.39,4.78,4.83,8.06,6.43a43.2,43.2,0,0,0,5.14,2l13.17-7.6Z"/><path class="cls-6" d="M345.94,118.58l.15,0v-12l-.15,0Z"/><polygon class="cls-6" points="346.09 99.84 346.09 99.83 266.71 53.99 346.09 99.84"/><polygon class="cls-6" points="173.21 0.01 173.19 0 173.04 0.09 173.05 0.1 173.21 0.01"/><path class="cls-4" d="M.17,300.07,173.1,399.84l33.6-19.41c0-.32,1.45-10.18,1.42-10.51-.62-6.41-3.86-6.57-4.49-13-.48-4.89-2.56-9-4.27-13.28-6.18-15.37-25.13-16.39-36.88-26.33-3.86-3.26-7-7.53-11.07-10.46-5.71-4.07-13-5.3-19-9-10-6.24-15.64-19.2-27-22.66-3.59-1.09-2.79-1.2-6.55-1.82-4.82-.79-9.66-3.28-14.13-5S83.12,257.92,78.63,256c-6.25-4.62-9.19-8.42-8-15,.89-5-1.26-7.28-.77-12.29.67-7-1.93-14-1.67-21,.42-11.75,8.81-23.15,6.12-34.71-.85-3.66-2.77-7.1-4.12-10.66a70.84,70.84,0,0,1-3.25-14c-1.53-9.55-3.06-19.13-3.09-28.75a26.79,26.79,0,0,0-.55-7.09c-1.18-4.35-4.75-8-8.23-11.56-2.35-2.39-4-6.25-7.3-7.85-2.14-1-9.76-10-13.87-12.42L.16,100.16Z"/><path class="cls-5" d="M.17,300.07,173.1,399.84,198.87,385c0-.32-.58-2.06-.62-2.39-.62-6.41-2.51-6.35-3.13-12.77-.48-4.89-1-9.86-2.69-14.12-6.18-15.38-25.12-16.4-36.88-26.33-3.86-3.27-7-7.54-11.06-10.46-5.72-4.08-13-5.31-19-9-10-6.24-15.64-19.21-27-22.66-3.59-1.1-7.53-1.15-11.29-1.76-4.82-.79-5.48-5.74-10-7.43-6.54-2.48-5.62-9.88-8.5-13.88.26-9.53-14.34-8.77-14.88-19.74-.25-5.06,1.64-10.66,2.12-15.67.67-7-1.92-13.94-1.67-20.94.42-11.75,8.81-23.15,6.12-34.72-.84-3.65-2.77-7.09-4.12-10.65a71,71,0,0,1-3.25-14.05C51.55,138.8,50,129.22,50,119.59a26.8,26.8,0,0,0-.56-7.09c-1.18-4.35-4.75-8-8.22-11.56-2.36-2.39-4-6.25-7.3-7.84-2.14-1-5.63-4.4-9.75-6.81l-24,13.87Z"/><path class="cls-6" d="M.17,300.07,173.1,399.84l16.2-9.36c0-.32-.91-1.57-1.53-8-.48-4.89-1-9.86-2.69-14.12C178.9,353,160,352,148.21,342c-3.87-3.27-7-7.54-11.07-10.46-5.71-4.08-13-5.31-19-9-10-6.24-12.5-18-23.86-21.41-3.59-1.09-9.67-4.78-13.42-5.4-4.83-.79-5.54-7.54-10-9.25-9-3.45-1.41-5.83-9.75-10.62-.75-.43-4.5-11.58-5.25-12-4.88-4-17.63-11.12-18.09-20.34-.24-5.05,3-9.81,3.53-14.82.68-7-1.92-13.94-1.67-20.94.43-11.75,8.82-23.15,6.13-34.72C44.92,169.4,43,166,41.65,162.4a70.31,70.31,0,0,1-3.25-14.05c-1.53-9.55-3.07-19.13-3.09-28.75a26.83,26.83,0,0,0-.55-7.1c-1.19-4.35-4.76-8-8.23-11.55-2.35-2.39-4.78-4.84-8.06-6.43a45.2,45.2,0,0,0-5.14-2L.16,100.16Z"/><path class="cls-7" d="M.19,300.1l172.92,99.73,5.83-3.37s-5.49-7-5.91-9.62a25.34,25.34,0,0,0-3.62-9.25c-2.06-3.2-1.84-7.54-4.38-10.37C158,359.35,145,355,134.14,346.51c-3.56-2.77-6.55-6.24-10.28-8.78-5.19-3.54-11.51-5.09-16.86-8.39-9-5.52-14.9-15.73-24.83-19.29-3.14-1.12-6.49-1.49-9.73-2.28-4.16-1-3.39-1.46-7.33-3.12-8-3.36-2.1-8.5-5.59-10.77-1.79-1.17-4.13-7.66-5.75-8.5-1.92-1-4.13-5.25-7-6.75-1.54-.81-3.56-6.71-4.5-9.25-.83-2.25-8.94-4.19-9-8-.14-8.52-8.39-8.29-6.48-21.88.63-4.47,2.13-8.79,2.47-13.29.47-6.27-1.35-12.51-1.17-18.8.29-10.54,6.17-20.77,4.29-31.15-.6-3.28-1.95-6.36-2.89-9.56a79,79,0,0,1-2.28-12.61c-1.07-8.57-2.15-17.16-2.16-25.8a31.39,31.39,0,0,0-.39-6.36c-.83-3.91-3.34-7.21-5.77-10.37a22.63,22.63,0,0,0-5.65-5.77c-1.86-1.16-6.57-7.46-7.91-8.61L2,98.91.16,100.16Z"/><polygon class="cls-6" points="346.16 300.07 346.15 300.08 346.17 100.16 346.16 300.07"/><path class="cls-4" d="M.17,300.07V261.19l-.14.09v38.8l172.9,99.83.14-.08Z"/><path class="cls-4" d="M270.91,266.19a70.74,70.74,0,0,1-13.79,4.21c-3.76.62-7.7.67-11.29,1.76-11.36,3.46-17,16.43-27,22.67-5.93,3.73-13.26,5-19,9-4.1,2.92-7.16,2.21-11,5.47-5.1,4.32-9.85,3.68-17,.58-3.91-2.93-10,4-13.77.88s-8.3-5.95-11.4-9.73c-2.41-2.95-2.11-2.2-4.85-4.76-8.67-8.11-22.74-6.54-33.13-12.05-6.19-3.28-10.92-9-17.31-11.91-4.58-2.09-9.83-2.64-14.59-4.35a42.45,42.45,0,0,1-8-4v.14c2.88,4,2,11.4,8.5,13.88,4.48,1.69,5.14,6.64,10,7.43,3.76.61,7.7.66,11.29,1.76,11.36,3.45,17,16.42,27,22.66,5.94,3.72,13.26,4.95,19,9,4.1,2.92,7.2,7.19,11.06,10.46,5.07,4.28,11.47,6.91,17.62,9.74,6.14-2.83,12.54-5.46,17.61-9.74,3.86-3.27,7-7.54,11.06-10.46,5.72-4.08,13-5.31,19-9,10-6.24,15.64-19.21,27-22.66,3.59-1.1,7.53-1.15,11.29-1.76,4.82-.79,5.48-5.74,10-7.43,6.54-2.48,5.63-9.88,8.5-13.88,0-.17,0-.34,0-.51Q274.25,264.92,270.91,266.19Z"/><path class="cls-5" d="M.17,300.07v-29.8a.38.38,0,0,0-.14.05v29.76l172.9,99.83.14-.08Z"/><path class="cls-5" d="M335.26,267.14c-3-2-7.2-1.55-10.44-2.39-4.79-1.24-9.77-2.49-14.13-1.34a26.68,26.68,0,0,0-6.42,3.07c-8.34,4.79-17.4,8.26-26.43,11.71a71,71,0,0,1-13.79,4.21c-3.76.62-7.71.67-11.29,1.77-11.36,3.45-17,16.42-27,22.66-5.93,3.73-13.26,5-19,9-4.1,2.92-8,7.36-12.5,9.67-9.77,5-16.43-8-24.54-3-4.91-.49-10.86,4-16.27-.42-3.71-3-8.32-1.13-11.42-4.91-2.41-2.94-4.43-6.33-7.17-8.89-8.67-8.11-22.74-6.54-33.13-12.05-6.19-3.28-10.92-9-17.31-11.91-4.58-2.09-9.83-2.64-14.59-4.35a44.76,44.76,0,0,1-9.14-4.72,1.73,1.73,0,0,0,.4.59c8.34,4.79.72,7.17,9.75,10.62,4.47,1.71,5.18,8.46,10,9.25,3.75.62,9.83,4.31,13.42,5.4,11.36,3.45,13.9,15.17,23.86,21.41,5.94,3.72,13.27,4.95,19,9,4.1,2.92,7.2,7.19,11.07,10.46C160,352,178.9,353,185.08,368.37c1.72,4.26,2.21,9.23,2.69,14.12.61,6.26,1.46,7.6,1.53,8L346,299.91V272.18C341.89,269.82,337.24,268.48,335.26,267.14Z"/><path class="cls-6" d="M.19,300.1V281.33a.46.46,0,0,0-.15,0v18.71l172.9,99.83.16-.09Z"/><path class="cls-6" d="M341.76,281.23c-3-2-6.35-2.92-9.6-3.76-4.79-1.25-9.76-2.49-14.12-1.34a26.85,26.85,0,0,0-6.42,3.06c-8.34,4.8-17.4,8.26-26.44,11.72a71.43,71.43,0,0,1-13.79,4.21c-3.76.62-7.7.67-11.29,1.76-11.36,3.46-17,16.43-27,22.67-5.94,3.72-13.26,5-19,9-4.1,2.93-6.57,8.16-11.07,10.47-8.21,4.22-20.76-3.26-26.66-5.48-.74-.45-12.27,1.89-13,1.46-8.32-4.83-6.56,3-14.07-3.14-3.72-3-9.92-.25-13-4-2.41-2.95-8.65-6.36-11.39-8.93-8.68-8.1-20.09-4.44-30.48-9.95-6.19-3.28-10.92-9-17.31-11.91-4.58-2.09-9.83-2.64-14.59-4.35a37.73,37.73,0,0,1-5.63-2.61c.91,1.67,1.81,3.25,2.61,3.77,3.49,2.27-2.37,7.41,5.59,10.77,3.94,1.66,3.17,2.12,7.33,3.12,3.24.79,6.59,1.16,9.73,2.28C92.1,313.61,98,323.82,107,329.34c5.35,3.3,11.67,4.85,16.86,8.39,3.73,2.54,6.72,6,10.28,8.78C145,355,158,359.35,165,367.22c2.54,2.83,2.32,7.17,4.38,10.37a25.34,25.34,0,0,1,3.62,9.25c.41,2.57,5.71,9.37,5.9,9.6L346,299.91V284.7A43.89,43.89,0,0,0,341.76,281.23Z"/><path class="cls-6" d="M189.88,351.9c7.44-4.14,11.38,3.12,22.19-5.33,3.55-2.78,6.55-6.25,10.27-8.79,5.19-3.55,11.51-5.1,16.86-8.39,9-5.53,14.9-15.74,24.83-19.3,3.13-1.13,6.48-1.5,9.72-2.28a79.94,79.94,0,0,0,12.06-4.34c8-3.36,15.94-6.72,23.42-11a31.06,31.06,0,0,1,5.71-2.85c3.79-1.23,7.91-.72,11.86-.19a22.46,22.46,0,0,1,7.82,2c1.94,1,9.75,1.95,11.41,2.53l.13,2.77V100.16L333,92.55a45.2,45.2,0,0,0-5.14,2c-3.28,1.59-5.7,4-8.06,6.43-3.47,3.52-7,7.2-8.22,11.55a26.84,26.84,0,0,0-.56,7.1c0,9.62-1.56,19.2-3.08,28.75a71,71,0,0,1-3.25,14.05c-1.35,3.56-3.28,7-4.13,10.65-2.68,11.57,5.7,23,6.13,34.72.25,7-2.34,14-1.67,20.94.48,5,3.78,9.77,3.53,14.82-.46,9.22-13.21,16.35-18.08,20.34-.76.42-4.51,11.57-5.26,12-8.34,4.79-.71,7.17-9.75,10.62-4.47,1.71-5.18,8.46-10,9.25-3.76.62-9.84,4.31-13.43,5.4-11.36,3.45-13.9,15.17-23.86,21.41-5.94,3.72-13.26,4.95-19,9-4.1,2.92-7.2,7.19-11.06,10.46-4.24,3.58-9.41,6-14.58,8.36C185.77,351.69,188.15,352.86,189.88,351.9Z"/><polygon class="cls-6" points="346.03 299.9 173.12 399.78 173.23 399.84 346.16 300.07 346.16 298.29 346.03 299.9"/><path class="cls-7" d="M172.9,399.91,0,300.07v-6.74s8.82,1.25,11.3.31a25,25,0,0,1,9.82-1.49c3.8.18,7.45-2.18,11.17-1.4C42.66,292.92,53,302,65.7,307.14c4.18,1.69,8.68,2.55,12.75,4.5,5.66,2.73,10.16,7.42,15.69,10.41,9.28,5,21.08,5,29.13,11.85,2.54,2.15,4.54,4.87,6.84,7.28,2.94,3.1,3,2.2,6.37,4.78,6.89,5.22,8.41-2.42,12.13-.54,1.9,1,8.69-.25,10.23.73,1.83,1.16,6.61.94,9.35,2.68,1.47.94,7.59-.26,10.26-.72,2.36-.41,8.1,5.64,11.43,3.79,7.44-4.14,11.38,3.12,22.19-5.33,3.55-2.78,6.55-6.25,10.27-8.79,5.19-3.55,11.51-5.1,16.86-8.39,9-5.53,14.9-15.74,24.83-19.3,3.13-1.13,6.48-1.5,9.72-2.28a79.94,79.94,0,0,0,12.06-4.34c8-3.36,15.94-6.72,23.42-11a31.06,31.06,0,0,1,5.71-2.85c3.79-1.23,7.91-.72,11.86-.19a22.46,22.46,0,0,1,7.82,2c1.94,1,9.75,1.95,11.41,2.53l.18,3.77-.18,2.2Z"/><path class="cls-8" d="M.15,100.16.17,294c1.7-.59,9.74-1.54,11.67-2.56a22.52,22.52,0,0,1,7.82-2l.69-.09L45,276.22a65.31,65.31,0,0,1-2.71-6.84c-.68-2.3-8.94-4.19-9-8-.14-8.52-8.39-8.29-6.48-21.88.63-4.47,2.13-8.79,2.47-13.29.47-6.27-1.35-12.51-1.17-18.8.29-10.54,6.18-20.77,4.29-31.15-.6-3.28-1.95-6.36-2.89-9.56a79,79,0,0,1-2.28-12.61c-1.07-8.57-2.15-17.16-2.16-25.8a31.39,31.39,0,0,0-.39-6.36c-.83-3.91-3.34-7.21-5.77-10.37a22.63,22.63,0,0,0-5.65-5.77c-1.8-1.12-6.23-7-7.74-8.46l-.21-.15-5.16,3"/><path class="cls-6" d="M.18,281.33a.46.46,0,0,0-.15,0v12l.15,0Z"/><polygon class="cls-6" points="0.03 300.06 0.03 300.08 79.41 345.91 0.03 300.06"/><polygon class="cls-6" points="172.91 399.9 172.93 399.91 173.09 399.82 173.07 399.81 172.91 399.9"/><path class="cls-9" d="M168,348.84l4.92,51.07-46.71-27L0,300.08.14,294c1.69-.59,9.74-1.54,11.67-2.56a22.68,22.68,0,0,1,7.82-2l.68-.09,24.62-13.09s1.2,2.29,2.19,2.58c0,0,1.67.71,5.48,5.72A7.91,7.91,0,0,1,55.16,287s3.48,6.32,4.23,6.76c0,0,2,1.07,1.33,4.28a5,5,0,0,0,1.53,4.9A13.72,13.72,0,0,0,66,305s2.35,1.14,3.24,1.73a48.52,48.52,0,0,0,7.93,2s6.83,1.27,10,3.76a106,106,0,0,1,14.13,12.42s12.58,3.55,14.55,4.59a25.33,25.33,0,0,1,9.73,6.54s4.07,4.53,5.82,6.38c0,0,5.18,3.46,6.23,4.25,0,0,3.07,2.25,6.07.3,0,0,2.67-2.18,3.82-1.87a3.1,3.1,0,0,1,1.42.42,41.93,41.93,0,0,0,7.38.2,5.05,5.05,0,0,1,2.88.57,38,38,0,0,0,5.81,1.31S167.88,348.32,168,348.84Z"/><path class="cls-7" d="M346,300.1,173.06,399.83l-5.83-3.37s5.49-7,5.92-9.62a25,25,0,0,1,3.62-9.25c2-3.2,1.84-7.54,4.38-10.37,7-7.87,20.08-12.26,30.89-20.71,3.55-2.77,6.55-6.24,10.27-8.78,5.2-3.54,11.51-5.09,16.87-8.39,9-5.52,14.9-15.73,24.83-19.29,3.14-1.12,6.49-1.49,9.72-2.28,4.16-1,3.39-1.46,7.33-3.12,8-3.36,2.11-8.5,5.6-10.77,1.78-1.17,4.13-7.66,5.75-8.5,1.92-1,4.13-5.25,7-6.75,1.54-.81,3.56-6.71,4.5-9.25.83-2.25,8.94-4.19,9-8,.14-8.52,8.39-8.29,6.48-21.88-.63-4.47-2.14-8.79-2.48-13.29-.47-6.27,1.35-12.51,1.18-18.8-.3-10.54-6.18-20.77-4.3-31.15.6-3.28,1.95-6.36,2.9-9.56A79,79,0,0,0,319,154.09c1.08-8.57,2.15-17.16,2.17-25.8a30,30,0,0,1,.39-6.36c.83-3.91,3.33-7.21,5.76-10.37a22.8,22.8,0,0,1,5.65-5.77c1.86-1.16,6.57-7.46,7.91-8.61l3.35,1.73,1.81,1.25Z"/><path class="cls-7" d="M346,99.81,173.06.07l-5.83,3.37s5.49,7,5.92,9.63a25,25,0,0,0,3.62,9.25c2,3.2,1.84,7.54,4.38,10.37,7,7.87,20.08,12.25,30.89,20.7,3.55,2.78,6.55,6.25,10.27,8.79,5.2,3.54,11.51,5.09,16.87,8.38,9,5.53,14.9,15.74,24.83,19.3,3.14,1.12,6.49,1.49,9.72,2.27,4.16,1,3.39,1.47,7.33,3.13,8,3.35,2.11,8.49,5.6,10.77,1.78,1.17,4.13,7.66,5.75,8.5,1.92,1,4.13,5.25,7,6.75,1.54.8,3.56,6.7,4.5,9.25.83,2.25,8.94,4.19,9,8,.14,8.52,8.39,8.3,6.48,21.89-.63,4.46-2.14,8.79-2.48,13.29-.47,6.27,1.35,12.51,1.18,18.8-.3,10.54-6.18,20.77-4.3,31.15.6,3.27,1.95,6.36,2.9,9.56A78.77,78.77,0,0,1,319,245.82c1.08,8.57,2.15,17.16,2.17,25.8a30,30,0,0,0,.39,6.36c.83,3.9,3.33,7.21,5.76,10.37a22.8,22.8,0,0,0,5.65,5.77c1.86,1.16,6.57,7.46,7.91,8.61L344.2,301l1.81-1.25Z"/><line class="cls-10" x1="340.85" y1="97.18" x2="346.01" y2="100.16"/><path class="cls-11" d="M346.12,300.07h0L309.88,321l-137,78.9L168,348.82c1.47.93,7.59-.27,10.27-.73,2.36-.4,8.1,5.65,11.42,3.8,7.45-4.14,11.38,3.11,22.19-5.34,3-2.31,5.54-5.1,8.47-7.44.73-.47,1.45-.94,2.12-1.4,5.19-3.54,11.51-5.08,16.86-8.38,9-5.53,14.9-15.74,24.83-19.29,3.14-1.13,6.49-1.5,9.73-2.28,4.15-1,3.39-1.46,7.32-3.13,8-3.35,2.11-8.49,5.6-10.77,1.78-1.16,4.13-7.65,5.75-8.5,1.92-1,4.13-5.25,7-6.74a5.91,5.91,0,0,0,1.76-2.42l24.61,13.1.69.09a22.73,22.73,0,0,1,7.82,2c1.93,1,10,2,11.68,2.57v3.64l0,1.52Z"/><path class="cls-12" d="M346,99.81,173.07.07l-5.83,3.37s5.5,7,5.92,9.63a25.17,25.17,0,0,0,3.62,9.25c2.05,3.2,1.84,7.54,4.38,10.37,7.05,7.87,20.08,12.25,30.89,20.7,3.55,2.78,6.55,6.25,10.28,8.79,5.19,3.54,11.5,5.09,16.86,8.38,9,5.53,14.9,15.74,24.83,19.3,3.14,1.12,6.49,1.49,9.73,2.27,4.15,1,3.38,1.47,7.32,3.13,8,3.35,2.11,8.49,5.6,10.77,1.78,1.17,4.13,7.66,5.75,8.5,1.92,1,4.13,5.25,7,6.75,1.54.8,3.56,6.7,4.5,9.25,0,0,.76,1.92,2,1.77L346,100.16"/><path class="cls-13" d="M312.88,261.38c.26,3.8-8.33,5.7-9,8a65.31,65.31,0,0,1-2.71,6.84l24.62,13.09.69.09a22.41,22.41,0,0,1,7.81,2c1.94,1,10,2,11.67,2.56l0-193.81L305.9,132.3c6.79,3.54,7,5.53,7,5.53-.24,4.93,3.43,8.76,3.43,8.76,2.71,4,2.88,5.78,2.88,5.78a101.86,101.86,0,0,1-2.54,14.33c-.94,3.2-2.29,6.28-2.89,9.56,0,0-1,8.53.68,12.29L317,199.82s-4.57,17.67-3.47,21c0,0,1.26,8.22,3.22,12.42,0,0,2.29,9.27,2.49,14,0,0-1.5,5-3.62,6.93C315.63,254.16,312.63,257.87,312.88,261.38Z"/></g></svg>